<svg xmlns="http://www.w3.org/2000/svg" width="295" height="316" viewBox="0 0 295 316">
  <g id="Group_133279" data-name="Group 133279" transform="translate(-1125 -401)">
    <rect id="Rectangle_41424" data-name="Rectangle 41424" width="295" height="316" transform="translate(1125 401)" fill="none"/>
    <g id="Group_129766" data-name="Group 129766" transform="translate(869.497 -11.23)">
      <circle id="Ellipse_4882" data-name="Ellipse 4882" cx="132.498" cy="132.498" r="132.498" transform="translate(271.002 426.459)" fill="#bddcf6" opacity="0.74"/>
      <g id="Group_129765" data-name="Group 129765" transform="translate(259.503 420.23)">
        <g id="Group_129754" data-name="Group 129754" transform="translate(0)">
          <path id="Path_190433" data-name="Path 190433" d="M-11.487-350.721h-4a16.167,16.167,0,0,0-16.167,16.167v88.711a16.167,16.167,0,0,0,16.167,16.167H39.333A16.167,16.167,0,0,0,55.5-245.843h0" transform="translate(31.649 461.849)" fill="none" stroke="#1a2e35" stroke-linecap="round" stroke-linejoin="round" stroke-width="1.103" stroke-dasharray="4.412"/>
          <path id="Path_190434" data-name="Path 190434" d="M80.477-474.05v-17.523a9.9,9.9,0,0,1,9.9-9.9h71.284a9.9,9.9,0,0,1,9.9,9.9h0" transform="translate(2.177 501.474)" fill="none" stroke="#1a2e35" stroke-linecap="round" stroke-linejoin="round" stroke-width="1.103" stroke-dasharray="4.412"/>
        </g>
        <g id="Group_129755" data-name="Group 129755" transform="translate(5.632 261.107)">
          <ellipse id="Ellipse_4895" data-name="Ellipse 4895" cx="141.181" cy="19.729" rx="141.181" ry="19.729" transform="translate(0 0)" fill="#fafbfc"/>
          <ellipse id="Ellipse_4896" data-name="Ellipse 4896" cx="141.181" cy="19.729" rx="141.181" ry="19.729" transform="translate(0 0)" fill="#fafbfc" opacity="0.5"/>
        </g>
        <g id="Group_129756" data-name="Group 129756" transform="translate(13.727 34.567)">
          <path id="Path_190435" data-name="Path 190435" d="M253.144-438.212V-305.48a16.363,16.363,0,0,1-16.36,16.361H3.333a16.363,16.363,0,0,1-16.36-16.361V-438.212c0-.39.016-.773.049-1.154A16.358,16.358,0,0,1,3.333-454.581h233.45A16.358,16.358,0,0,1,253.1-439.367C253.128-438.985,253.144-438.6,253.144-438.212Z" transform="translate(13.027 454.581)" fill="#fff" stroke="#1a2e35" stroke-linecap="round" stroke-linejoin="round" stroke-width="1.103"/>
          <path id="Rectangle_41075" data-name="Rectangle 41075" d="M0,0H251.083a0,0,0,0,1,0,0V117.144a20.8,20.8,0,0,1-20.8,20.8H20.8A20.8,20.8,0,0,1,0,117.144V0A0,0,0,0,1,0,0Z" transform="translate(7.961 21.346)" fill="#4dcedf"/>
          <path id="Path_190436" data-name="Path 190436" d="M253.113-439.367H-12.961A16.358,16.358,0,0,1,3.351-454.581H236.8A16.358,16.358,0,0,1,253.113-439.367Z" transform="translate(13.01 454.581)" fill="#89a5e8"/>
          <path id="Path_190437" data-name="Path 190437" d="M29.327-445.3a2.9,2.9,0,0,1-2.9,2.9,2.9,2.9,0,0,1-2.9-2.9,2.9,2.9,0,0,1,2.9-2.9A2.9,2.9,0,0,1,29.327-445.3Z" transform="translate(3.418 452.902)" fill="#1a2e35"/>
          <path id="Path_190438" data-name="Path 190438" d="M45.95-445.3a2.9,2.9,0,0,1-2.9,2.9,2.9,2.9,0,0,1-2.9-2.9,2.9,2.9,0,0,1,2.9-2.9A2.9,2.9,0,0,1,45.95-445.3Z" transform="translate(-0.951 452.902)" fill="#1a2e35"/>
          <circle id="Ellipse_4897" data-name="Ellipse 4897" cx="2.898" cy="2.898" r="2.898" transform="translate(51.456 4.709)" fill="#1a2e35"/>
          <path id="Path_190439" data-name="Path 190439" d="M248.857-425.618V-303.01a15.338,15.338,0,0,1-15.337,15.337H13.106a15.332,15.332,0,0,1-15.035-12.36l-.008-.008v-.033a15.2,15.2,0,0,1-.285-2.935V-425.618Z" transform="translate(10.187 446.968)" fill="none" stroke="#1a2e35" stroke-miterlimit="10" stroke-width="1.103"/>
          <path id="Path_190440" data-name="Path 190440" d="M327.693-402.589A15.6,15.6,0,0,0,324.285-404l-1.375-6.156h-5.855L315.69-404a15.1,15.1,0,0,0-3.415,1.406l-5.285-3.383-4.139,4.139,3.325,5.285a15.053,15.053,0,0,0-1.406,3.415l-6.155,1.367v5.854l6.155,1.374a14.922,14.922,0,0,0,1.406,3.44l-3.382,5.319,4.138,4.138,5.319-3.383a15.1,15.1,0,0,0,3.415,1.415l1.366,6.147h5.854l1.375-6.147a15.59,15.59,0,0,0,3.407-1.415l.268.171v-27.891ZM320-381.243a7.559,7.559,0,0,1-7.562-7.562A7.564,7.564,0,0,1,320-396.368a7.564,7.564,0,0,1,7.562,7.562A7.559,7.559,0,0,1,320-381.243Z" transform="translate(-68.886 442.903)" fill="#89ecf4"/>
          <path id="Path_190441" data-name="Path 190441" d="M162.852-400.726V-413.07l-12.978-2.879a33.555,33.555,0,0,0-2.969-7.2l1.569-2.472H87.219l1.513,2.408a31.931,31.931,0,0,0-2.96,7.2l-12.978,2.887v12.344L85.772-397.9a32.383,32.383,0,0,0,2.96,7.254L81.6-379.429l8.733,8.725,11.205-7.131a32.986,32.986,0,0,0,7.2,2.984l2.879,12.962h12.344l2.9-12.962a33.19,33.19,0,0,0,7.18-2.984l11.214,7.131,8.725-8.725-7.083-11.214a33.844,33.844,0,0,0,2.969-7.188Zm-44.967,9.775A15.946,15.946,0,0,1,101.938-406.9a15.946,15.946,0,0,1,15.946-15.946A15.946,15.946,0,0,1,133.83-406.9,15.946,15.946,0,0,1,117.884-390.951Z" transform="translate(-9.531 446.97)" fill="#89ecf4"/>
          <path id="Path_190442" data-name="Path 190442" d="M61.261-292.121l.52-9.791-10.148-2.862a27.418,27.418,0,0,0-2.082-5.822l6.132-8.611-6.57-7.294-9.189,5.2a27.232,27.232,0,0,0-5.6-2.675L32.573-334.39l-9.791-.52-2.83,10.181a25.628,25.628,0,0,0-5.822,2.066l-8.6-6.131-7.3,6.57,5.2,9.2a25.456,25.456,0,0,0-2.683,5.586l-2.968.488v13.263l2.155.61a25.615,25.615,0,0,0,2.082,5.838l-4.236,5.928.285,5.082v.033l.008.008,4.366,4.846,9.206-5.2a25.471,25.471,0,0,0,5.61,2.708l1.675,9.994v.008l.082.414,9.79.52.26-.935v-.008l2.57-9.238a26.23,26.23,0,0,0,5.854-2.065l8.587,6.123,7.3-6.562-5.188-9.2a25.412,25.412,0,0,0,2.651-5.579Zm-26-15.3a12.68,12.68,0,0,0-17.906-.943,12.68,12.68,0,0,0-.943,17.905,12.679,12.679,0,0,0,17.905.935A12.67,12.67,0,0,0,35.256-307.417Z" transform="translate(10.187 423.126)" fill="#89ecf4"/>
          <path id="Path_190443" data-name="Path 190443" d="M173.584-308.067a19.85,19.85,0,0,0,.594-4.637l7.039-3.7-1.945-7.142-7.944.372a19.786,19.786,0,0,0-2.855-3.688l2.354-7.6-6.415-3.675-5.368,5.857a20.728,20.728,0,0,0-4.621-.589l-3.716-7.044-7.131,1.94.377,7.955a20.161,20.161,0,0,0-3.7,2.851l-7.6-2.346-3.681,6.405,5.888,5.353a19.312,19.312,0,0,0-.581,4.624l-7.052,3.713,1.945,7.142,7.955-.377a18.953,18.953,0,0,0,2.844,3.694l-2.366,7.561,6.416,3.675,5.34-5.807a19.442,19.442,0,0,0,4.632.585L157.7-285.9l7.131-1.94-.313-6.8-.053-1.165a19.652,19.652,0,0,0,3.732-2.856l7.6,2.362,3.14-5.487.536-.929Zm-16.86,4.338A9.551,9.551,0,0,1,145-310.434a9.552,9.552,0,0,1,6.706-11.727,9.553,9.553,0,0,1,11.727,6.706A9.552,9.552,0,0,1,156.724-303.729Z" transform="translate(-23.838 424.441)" fill="#89ecf4"/>
          <path id="Path_190444" data-name="Path 190444" d="M275.333-296.562l1.627-9.8-9.921-3.992a26.322,26.322,0,0,0-1.423-6.115l7.14-7.952-5.781-8.083-9.848,4.18a26.2,26.2,0,0,0-5.318-3.3l-.578-10.684-9.806-1.619-4.017,9.88a27.428,27.428,0,0,0-6.091,1.432l-7.977-7.14-8.075,5.782,4.188,9.839a26.794,26.794,0,0,0-2.984,4.635c-.114.228-.228.455-.334.683l-10.676.594-1.627,9.79,1.61.65,8.311,3.35a25.815,25.815,0,0,0,1.423,6.091l-7.14,7.977,5.782,8.075,9.848-4.2a25.55,25.55,0,0,0,5.31,3.326l.553,10.636,9.8,1.618,4.009-9.806a25.774,25.774,0,0,0,6.107-1.432L257.4-275l8.083-5.79-4.188-9.848a25.7,25.7,0,0,0,3.358-5.342ZM247.84-297a12.835,12.835,0,0,1-17.906-2.969,12.824,12.824,0,0,1,2.96-17.9,12.833,12.833,0,0,1,17.906,2.96A12.833,12.833,0,0,1,247.84-297Z" transform="translate(-43.973 425.497)" fill="#89ecf4"/>
        </g>
        <g id="Group_129761" data-name="Group 129761" transform="translate(25.469 90.924)">
          <rect id="Rectangle_41076" data-name="Rectangle 41076" width="96.417" height="126.064" rx="13.11" transform="translate(0)" fill="#406ecc"/>
          <g id="Group_129760" data-name="Group 129760" transform="translate(8.977 9.525)">
            <path id="Path_190445" data-name="Path 190445" d="M111.5-355.548v106.736a9.664,9.664,0,0,1-9.669,9.668H24.739a9.663,9.663,0,0,1-9.66-9.668V-355.548a9.662,9.662,0,0,1,9.66-9.66h77.087A9.663,9.663,0,0,1,111.5-355.548Z" transform="translate(-15.079 365.208)" fill="#fff" stroke="#1a2e35" stroke-linecap="round" stroke-linejoin="round" stroke-width="1.103"/>
            <path id="Path_190446" data-name="Path 190446" d="M111.5-355.548v5.717H15.079v-5.717a9.662,9.662,0,0,1,9.66-9.66h77.087A9.663,9.663,0,0,1,111.5-355.548Z" transform="translate(-15.079 365.208)" fill="#89a5e8"/>
            <rect id="Rectangle_41077" data-name="Rectangle 41077" width="23.72" height="3.978" transform="translate(9.067 21.998)" fill="#89a5e8"/>
            <rect id="Rectangle_41078" data-name="Rectangle 41078" width="23.72" height="3.979" transform="translate(9.067 57.668)" fill="#89a5e8"/>
            <rect id="Rectangle_41079" data-name="Rectangle 41079" width="23.72" height="3.979" transform="translate(9.067 90.014)" fill="#89a5e8"/>
            <g id="Group_129757" data-name="Group 129757" transform="translate(9.067 31.848)">
              <rect id="Rectangle_41080" data-name="Rectangle 41080" width="67.37" height="2.918" fill="#1a2e35"/>
              <rect id="Rectangle_41081" data-name="Rectangle 41081" width="55.222" height="2.844" transform="translate(0 5.585)" fill="#1a2e35"/>
              <rect id="Rectangle_41082" data-name="Rectangle 41082" width="62.454" height="2.844" transform="translate(0 11.076)" fill="#1a2e35"/>
              <rect id="Rectangle_41083" data-name="Rectangle 41083" width="62.454" height="2.844" transform="translate(0 16.562)" fill="#1a2e35"/>
            </g>
            <g id="Group_129758" data-name="Group 129758" transform="translate(9.067 64.195)">
              <rect id="Rectangle_41084" data-name="Rectangle 41084" width="67.37" height="2.918" fill="#1a2e35"/>
              <rect id="Rectangle_41085" data-name="Rectangle 41085" width="55.222" height="2.844" transform="translate(0 5.585)" fill="#1a2e35"/>
              <rect id="Rectangle_41086" data-name="Rectangle 41086" width="62.454" height="2.844" transform="translate(0 11.076)" fill="#1a2e35"/>
            </g>
            <g id="Group_129759" data-name="Group 129759" transform="translate(9.067 99.715)">
              <rect id="Rectangle_41087" data-name="Rectangle 41087" width="67.37" height="2.918" fill="#1a2e35"/>
              <rect id="Rectangle_41088" data-name="Rectangle 41088" width="55.222" height="2.844" transform="translate(0 5.585)" fill="#1a2e35"/>
              <rect id="Rectangle_41089" data-name="Rectangle 41089" width="62.454" height="2.844" transform="translate(0 11.076)" fill="#1a2e35"/>
            </g>
          </g>
        </g>
        <g id="Group_129763" data-name="Group 129763" transform="translate(117.116 14.91)">
          <path id="Path_190447" data-name="Path 190447" d="M249.632-469.717v43.138a11.518,11.518,0,0,1-11.522,11.522h-99.36a11.524,11.524,0,0,1-11.522-11.522v-43.138a11.531,11.531,0,0,1,11.522-11.531h99.36A11.525,11.525,0,0,1,249.632-469.717Z" transform="translate(-127.227 481.248)" fill="#fff" stroke="#1c1c1b" stroke-miterlimit="10" stroke-width="1.103"/>
          <path id="Path_190448" data-name="Path 190448" d="M249.632-469.717v.984H127.227v-.984a11.531,11.531,0,0,1,11.522-11.531h99.36A11.525,11.525,0,0,1,249.632-469.717Z" transform="translate(-127.227 481.248)" fill="#89a5e8"/>
          <path id="Path_190449" data-name="Path 190449" d="M150.547-471.037a1.765,1.765,0,0,1-2.5,0,1.765,1.765,0,0,1,0-2.5,1.765,1.765,0,0,1,2.5,0A1.765,1.765,0,0,1,150.547-471.037Z" transform="translate(-132.565 479.356)" fill="#1a2e35"/>
          <path id="Path_190450" data-name="Path 190450" d="M161.667-471.037a1.765,1.765,0,0,1-2.5,0,1.765,1.765,0,0,1,0-2.5,1.765,1.765,0,0,1,2.5,0A1.765,1.765,0,0,1,161.667-471.037Z" transform="translate(-135.487 479.356)" fill="#1a2e35"/>
          <path id="Path_190451" data-name="Path 190451" d="M172.787-471.037a1.765,1.765,0,0,1-2.5,0,1.765,1.765,0,0,1,0-2.5,1.765,1.765,0,0,1,2.5,0A1.765,1.765,0,0,1,172.787-471.037Z" transform="translate(-138.41 479.356)" fill="#1a2e35"/>
          <rect id="Rectangle_41090" data-name="Rectangle 41090" width="40.012" height="34.586" transform="translate(7.805 20.447)" fill="none" stroke="#1a2e35" stroke-linecap="round" stroke-linejoin="round" stroke-width="1.103" stroke-dasharray="4.412"/>
          <g id="Group_129762" data-name="Group 129762" transform="translate(53.99 20.447)">
            <rect id="Rectangle_41091" data-name="Rectangle 41091" width="46.048" height="2.429" fill="#1a2e35"/>
            <rect id="Rectangle_41092" data-name="Rectangle 41092" width="35.322" height="2.429" transform="translate(0 5.037)" fill="#1a2e35"/>
            <rect id="Rectangle_41093" data-name="Rectangle 41093" width="52.598" height="2.458" transform="translate(0 10.045)" fill="#1a2e35"/>
            <rect id="Rectangle_41094" data-name="Rectangle 41094" width="44.788" height="2.458" transform="translate(0 14.938)" fill="#1a2e35"/>
          </g>
        </g>
        <path id="Path_190452" data-name="Path 190452" d="M196.371-128.4s-21.378,6.131-24.362,7.188c-2.716.96-10.075,3.537-15.6,2.74a11.956,11.956,0,0,1-1.578-.341c-5.594-1.667-8.107-3.22-8.839-6.741s2.049-6.107,4.733-7.765,17.239-3.391,17.239-3.391l3.513,1.033h.008Z" transform="translate(-15.012 405.597)" fill="#0f2771"/>
        <path id="Path_190453" data-name="Path 190453" d="M156.412-118.469a11.956,11.956,0,0,1-1.578-.341c-5.594-1.667-8.107-3.22-8.839-6.741s2.049-6.107,4.733-7.765,17.239-3.391,17.239-3.391l3.513,1.033c-3.179,1.463-15.036,2.276-17.622,3.765s-3.838,4.293-2.309,8.083C152.362-121.811,154.542-119.86,156.412-118.469Z" transform="translate(-15.012 405.597)" fill="#fff"/>
        <path id="Path_190454" data-name="Path 190454" d="M193.2-127.214s-16.055,4.16-22.421,6.822-18.513,3.827-22.839-1.664-.5-10.215,3.827-11.264,13.076-2.713,17.853-2.048" transform="translate(-15.054 405.285)" fill="none" stroke="#1a2e35" stroke-linecap="round" stroke-linejoin="round" stroke-width="1.103"/>
        <path id="Path_190455" data-name="Path 190455" d="M158.464-118.395s-8.169-4.479-5.456-10.757c2-4.633,12.9-3.628,18.3-6.161" transform="translate(-16.742 405.23)" fill="none" stroke="#1a2e35" stroke-linecap="round" stroke-linejoin="round" stroke-width="1.103"/>
        <path id="Path_190456" data-name="Path 190456" d="M286.813-117.625a6.777,6.777,0,0,1-3.2,5.587,12.536,12.536,0,0,1-6.57,1.358c-7.5-.1-21.589-5.456-21.589-5.456l-13.2-7.294,6.864-10.863,1.878-2.977,4.854,1.09s4.017,2.277,8.059,4.09,13.848,2.2,17.3,4.993S287.187-121.268,286.813-117.625Z" transform="translate(-40.344 405.745)" fill="#0f2771"/>
        <path id="Path_190457" data-name="Path 190457" d="M289.26-117.625a6.777,6.777,0,0,1-3.2,5.587,9.885,9.885,0,0,0-.374-6.587c-1.464-3.309-6.27-6.228-12.58-6.716s-11.141-3.44-13.669-4.757c-1.976-1.025-6.14-3.261-7.871-4.2l1.878-2.977,4.854,1.09s4.017,2.277,8.059,4.09,13.848,2.2,17.3,4.993S289.634-121.268,289.26-117.625Z" transform="translate(-42.792 405.745)" fill="#fff"/>
        <path id="Path_190458" data-name="Path 190458" d="M245.732-119.821a83.3,83.3,0,0,0,30.89,10.552c2.4.289,5.193.329,6.8-1.476a5.029,5.029,0,0,0,1.109-3.771c-.291-3.387-3.14-6.074-6.264-7.417s-6.574-1.663-9.892-2.407a39.067,39.067,0,0,1-9.513-3.48c-2.385-1.244-4.694-2.756-7.327-3.313s-5.768.119-7.171,2.414" transform="translate(-40.9 404.18)" fill="none" stroke="#1a2e35" stroke-linecap="round" stroke-linejoin="round" stroke-width="1.103"/>
        <path id="Path_190459" data-name="Path 190459" d="M284.964-111a8.791,8.791,0,0,0,4.828-6.236c.478-3.194-1.34-6.4-3.9-8.368a21.681,21.681,0,0,0-8.926-3.544,57.875,57.875,0,0,1-9.4-2.273c-4.624-1.807-9.185-5.376-13.984-4.1" transform="translate(-43.321 405.357)" fill="none" stroke="#1a2e35" stroke-linecap="round" stroke-linejoin="round" stroke-width="1.103"/>
        <path id="Path_190460" data-name="Path 190460" d="M237.93-277.061l-22.329-8.5-.276-.105s.081-.593.147-1.456c.138-1.781.211-4.684-.627-5.667-1.244-1.456-4.773-.236-8.213-1.813s-9.807,1.244-9.807,1.244-4.594-.846-6.619,2.472a17.992,17.992,0,0,0-.675,6.659s-.146.057-.422.155c-2.659.992-17.134,6.44-20.2,8.628-3.383,2.4-7.124,27-8.327,34.218S157.241-227.491,158.33-225s16.638,14.459,25.582,17.549,40.682,2.187,40.682,2.187.52-.139,1.44-.431c5.367-1.723,24.411-8.822,34.511-25.565C260.545-231.264,250.762-263.351,237.93-277.061ZM177.6-235.688c-1.642,1.163-.764,5.675-.764,5.675l-2.8-2.464,7.018-17.255,2.993,13.247S179.245-236.843,177.6-235.688Zm56.14,10.962c-.773.4,2.22-7.9.8-9.775s-5.683-1.7-5.683-1.7l.366-2.269c.049-.252,2.529-12.97,2.529-12.97l.837-1s8.684,14.889,10.238,20.134C242.826-232.3,233.361-224.726,233.742-224.726Z" transform="translate(-18.207 447.224)" fill="#0f2771"/>
        <path id="Path_190461" data-name="Path 190461" d="M204.724-343.646,193.2-331.41s-1.589,1.405-.958,4.954,2.1,6.6,3.213,6.835a15.815,15.815,0,0,0,2.669.239s2.469,5.352,4.219,7.456c0,0,.61,8.261.285,10.555,0,0,4.14,3.616,8.04,4.076s9.926-5.515,9.926-5.515l1.493-7.315s3.535-5.366,3.776-6.8,1.858-1.063,2.652-1.767a13.458,13.458,0,0,0,2.936-6.836c.3-2.978.325-6.4-3.135-5.395-3-.806-1.121-7.143-1.121-7.143l-5.267-4.648Z" transform="translate(-27.161 459.99)" fill="#ffcfa6"/>
        <path id="Path_190462" data-name="Path 190462" d="M226.683-285.559a11.759,11.759,0,0,1-.593,1.333c-1.9,3.586-10.189,10.417-10.189,10.417l-2.5-7.7-1.374,7.7c-2.765-1.2-11.2-8.513-11.2-8.513s-.285-.683-.634-1.749c.276-.1.422-.155.422-.155a17.992,17.992,0,0,1,.675-6.659c2.025-3.318,6.619-2.472,6.619-2.472s6.368-2.821,9.807-1.244,6.968.357,8.213,1.813.48,7.123.48,7.123Z" transform="translate(-29.289 447.224)" fill="#fff" opacity="0.5"/>
        <path id="Path_190463" data-name="Path 190463" d="M257.069-274.223l-22.329-8.5-.276-.105s.081-.593.147-1.456l-.464,2.895-3.3,4.489a90.478,90.478,0,0,1,10.3,4.542,9.049,9.049,0,0,1,4.734,9.026l-4.116,35.2-1.684,19.987,5.091,5.285c5.367-1.723,24.411-8.822,34.511-25.565C279.684-228.426,269.9-260.513,257.069-274.223Zm-4.188,52.335c-.773.4,2.22-7.9.8-9.775s-5.683-1.7-5.683-1.7l.366-2.269c.049-.252,2.529-12.97,2.529-12.97l.837-1s8.684,14.889,10.238,20.134C261.965-229.466,252.5-221.888,252.882-221.888Z" transform="translate(-37.346 444.386)" opacity="0.2"/>
        <path id="Path_190464" data-name="Path 190464" d="M187.278-226.476l-3.472-11.6s-6.225-21.233-10.494-26.47l1.122,14.933s-3.663,17.839-7.054,23.141-4.122,6.62,0,6.62,14.149,7.993,14.149,7.993l-.773-6.668Zm-8.725,4.489-2.8-2.464,7.018-17.255,2.993,13.247s-4.806-.358-6.449.8S178.553-221.987,178.553-221.987Z" transform="translate(-19.923 439.199)" opacity="0.2"/>
        <path id="Path_190465" data-name="Path 190465" d="M206-300.616s.641,6.257,0,9.116" transform="translate(-30.815 448.679)" fill="none" stroke="#1a2e35" stroke-linecap="round" stroke-linejoin="round" stroke-width="1.103"/>
        <path id="Path_190466" data-name="Path 190466" d="M231.621-291.519a26.783,26.783,0,0,1,.7-5.978" transform="translate(-37.55 447.86)" fill="none" stroke="#1a2e35" stroke-linecap="round" stroke-linejoin="round" stroke-width="1.103"/>
        <path id="Path_190467" data-name="Path 190467" d="M224.837-337.318s3.785,4.757,3.591,8.348-.486,7.862-.388,12.036-6.7,12.91-10.192,13.687-6.5.97-8.736-1.262a84.382,84.382,0,0,1-7.377-9.318c-2.912-3.98-2.233-12.716-2.233-12.716" transform="translate(-29.09 458.326)" fill="none" stroke="#1a2e35" stroke-linecap="round" stroke-linejoin="round" stroke-width="1.103"/>
        <path id="Path_190468" data-name="Path 190468" d="M221.405-318.186a19.715,19.715,0,0,0-.3,3.956,4.5,4.5,0,0,0,.972,3.1c.418.427,1.026.768,1.106,1.36a1.44,1.44,0,0,1-.778,1.289,10.941,10.941,0,0,0-1.365.811" transform="translate(-34.77 453.298)" fill="none" stroke="#1a2e35" stroke-linecap="round" stroke-linejoin="round" stroke-width="1.103"/>
        <path id="Path_190469" data-name="Path 190469" d="M213.379-303.3s.438,2.821,4.221,3.412" transform="translate(-32.755 449.384)" fill="none" stroke="#1a2e35" stroke-linecap="round" stroke-linejoin="round" stroke-width="1.103"/>
        <path id="Path_190470" data-name="Path 190470" d="M213.352-315.794c0,.815-.352,1.477-.787,1.477s-.787-.661-.787-1.477.352-1.476.787-1.476S213.352-316.609,213.352-315.794Z" transform="translate(-32.334 453.057)" fill="#1a2e35"/>
        <path id="Path_190471" data-name="Path 190471" d="M228.661-315.312c0,.815-.352,1.476-.787,1.476s-.787-.661-.787-1.476.352-1.477.787-1.477S228.661-316.128,228.661-315.312Z" transform="translate(-36.358 452.931)" fill="#1a2e35"/>
        <path id="Path_190472" data-name="Path 190472" d="M226.134-320.174s3.669-3.67,6.774.423" transform="translate(-36.108 454.218)" fill="none" stroke="#1a2e35" stroke-linecap="round" stroke-linejoin="round" stroke-width="2.206"/>
        <path id="Path_190473" data-name="Path 190473" d="M213.465-319.953s-2.329-2.611-6,0" transform="translate(-31.201 454.067)" fill="none" stroke="#1a2e35" stroke-linecap="round" stroke-linejoin="round" stroke-width="2.206"/>
        <path id="Path_190474" data-name="Path 190474" d="M206.283-297.178s2.248,6.2,7.267,7.952,11.685-7.362,11.685-7.362l-.349-1.185s-4.367,5.674-9.226,4.707-9.662-7.55-9.662-7.55Z" transform="translate(-30.815 448.679)" fill="#1a2e35"/>
        <path id="Path_190475" data-name="Path 190475" d="M198.177-315.44s-2.993,1.056-3.788-1.275-3.523-8.468-1.137-10.514,4.3,2.7,4.3,2.7" transform="translate(-27.214 455.809)" fill="none" stroke="#1a2e35" stroke-linecap="round" stroke-linejoin="round" stroke-width="1.103"/>
        <path id="Path_190476" data-name="Path 190476" d="M238.232-313.893s2.781.56,3.577-1.772,3.524-8.468,1.137-10.514-4.3,2.7-4.3,2.7" transform="translate(-39.288 455.533)" fill="none" stroke="#1a2e35" stroke-linecap="round" stroke-linejoin="round" stroke-width="1.103"/>
        <path id="Path_190477" data-name="Path 190477" d="M196.395-326.5a4.148,4.148,0,0,0,2.626-1.551,6.532,6.532,0,0,0,.763-2.353,28.34,28.34,0,0,0,.416-4.743,6.385,6.385,0,0,1,.167-1.849,4.74,4.74,0,0,1,1-1.645c1.044-1.224,2.3-2.258,3.294-3.524a5.882,5.882,0,0,0,1.454-4.455,20.236,20.236,0,0,0,16.567,4.284c5.266-1.032,10.319-5.654,9.7-11.461a4.7,4.7,0,0,0-3.711-4.044c-2.6-.647-4.942.74-7.3,1.63-4.3,1.621-8.507-1.163-12.851-1.631-3.715-.4-8.275.061-10.21,3.755,0,0-6.673.784-9.6,6.264s2.633,13.068,2.633,13.068,2.237-2.707,5.11,2.773Z" transform="translate(-26.051 463.765)" fill="#1a2e35"/>
        <path id="Path_190478" data-name="Path 190478" d="M234.349-340.048s-1.726,8.993,2.777,13.347c0,0,.986-2.7,1.984-3.363a10.425,10.425,0,0,0-.788-9.984C235.027-345.281,234.349-340.048,234.349-340.048Z" transform="translate(-38.182 459.655)" fill="#1a2e35"/>
        <path id="Path_190479" data-name="Path 190479" d="M233.235-353.1a8.491,8.491,0,0,1-5.138,5.364c-6.251,2.546-12.322-.278-18.581-.831-5.115-.452-10.754,4.157-11.11,9.408" transform="translate(-28.82 462.475)" fill="none" stroke="#fff" stroke-linecap="round" stroke-linejoin="round" stroke-width="1.103" opacity="0.2"/>
        <path id="Path_190480" data-name="Path 190480" d="M193.138-339.508a10.928,10.928,0,0,1,6.659-9.643" transform="translate(-27.435 461.437)" fill="none" stroke="#fff" stroke-linecap="round" stroke-linejoin="round" stroke-width="1.103" opacity="0.2"/>
        <path id="Path_190481" data-name="Path 190481" d="M204.042-289.646a28.512,28.512,0,0,0,9.735,6.659s7.483-2.17,11.292-7.387" transform="translate(-30.301 445.987)" fill="none" stroke="#1a2e35" stroke-linecap="round" stroke-linejoin="round" stroke-width="1.103"/>
        <circle id="Ellipse_4898" data-name="Ellipse 4898" cx="6.622" cy="6.622" r="6.622" transform="translate(169.84 134.004) rotate(-24.636)" fill="none" stroke="#1a2e35" stroke-linecap="round" stroke-linejoin="round" stroke-width="1.103"/>
        <circle id="Ellipse_4899" data-name="Ellipse 4899" cx="6.622" cy="6.622" r="6.622" transform="translate(186.033 131.498) rotate(-7.003)" fill="none" stroke="#1a2e35" stroke-linecap="round" stroke-linejoin="round" stroke-width="1.103"/>
        <path id="Path_190482" data-name="Path 190482" d="M204.621-292.738a5.191,5.191,0,0,0-3.185,2.47c-1.172,2.062-.465,8.558-.465,8.558s6.05,5.988,11.2,8.513l1.52-8.547,2.359,8.547s7.978-5.642,10.187-10.412c0,0,.721-5.561,0-7.387a2.548,2.548,0,0,0-2.381-1.743" transform="translate(-29.438 446.609)" fill="none" stroke="#1a2e35" stroke-linecap="round" stroke-linejoin="round" stroke-width="1.103"/>
        <path id="Path_190483" data-name="Path 190483" d="M191.174-223.157s-2.362-15.846-5.509-22.311" transform="translate(-25.471 434.184)" fill="none" stroke="#1a2e35" stroke-linecap="round" stroke-linejoin="round" stroke-width="1.103"/>
        <path id="Path_190484" data-name="Path 190484" d="M176.434-264.549a64.208,64.208,0,0,1,4.894,8.191" transform="translate(-23.045 439.199)" fill="none" stroke="#1a2e35" stroke-linecap="round" stroke-linejoin="round" stroke-width="1.103"/>
        <path id="Path_190485" data-name="Path 190485" d="M260.74-251.259a45.719,45.719,0,0,1,2.6-7.734" transform="translate(-45.204 437.739)" fill="none" stroke="#1a2e35" stroke-linecap="round" stroke-linejoin="round" stroke-width="1.103"/>
        <path id="Path_190486" data-name="Path 190486" d="M254.109-222.268s1.706-10.863,3.737-19.815" transform="translate(-43.461 433.294)" fill="none" stroke="#1a2e35" stroke-linecap="round" stroke-linejoin="round" stroke-width="1.103"/>
        <path id="Path_190487" data-name="Path 190487" d="M258.033-237.489A12.5,12.5,0,0,1,264.625-242" transform="translate(-44.492 433.272)" fill="none" stroke="#1a2e35" stroke-linecap="round" stroke-linejoin="round" stroke-width="1.103"/>
        <path id="Path_190488" data-name="Path 190488" d="M235.758-282.308s13.74,5.488,22.606,8.6c0,0,10.91,10.26,22.607,45.8,0,0-10.722,18.031-31.109,23.812" transform="translate(-38.638 443.867)" fill="none" stroke="#1a2e35" stroke-linecap="round" stroke-linejoin="round" stroke-width="1.103"/>
        <path id="Path_190489" data-name="Path 190489" d="M259.7-202.482l9.851-8.224s5.211-3.961,10.63-1.251" transform="translate(-44.93 425.625)" fill="none" stroke="#1a2e35" stroke-linecap="round" stroke-linejoin="round" stroke-width="1.103"/>
        <path id="Path_190490" data-name="Path 190490" d="M259.178-237.231s8.148,12,10.232,20.131" transform="translate(-44.793 432.019)" fill="none" stroke="#1a2e35" stroke-linecap="round" stroke-linejoin="round" stroke-width="1.103"/>
        <path id="Path_190491" data-name="Path 190491" d="M179.383-207.2l-2.883-2.749a13.514,13.514,0,0,0-9.124,2.5" transform="translate(-20.664 424.868)" fill="none" stroke="#1a2e35" stroke-linecap="round" stroke-linejoin="round" stroke-width="1.103"/>
        <path id="Path_190492" data-name="Path 190492" d="M179.753-216.281s3.58-11.761,7.112-17.833" transform="translate(-23.917 431.2)" fill="none" stroke="#1a2e35" stroke-linecap="round" stroke-linejoin="round" stroke-width="1.103"/>
        <path id="Path_190493" data-name="Path 190493" d="M189.634-280.353s-19.764,7.416-21.7,9.576-9.3,43.637-9.5,48.384c-.173,4.243,15.221,13.777,22.825,17.795" transform="translate(-18.314 443.354)" fill="none" stroke="#1a2e35" stroke-linecap="round" stroke-linejoin="round" stroke-width="1.103"/>
        <rect id="Rectangle_41095" data-name="Rectangle 41095" width="32.151" height="22.842" rx="6.532" transform="translate(215.536 133.499)" fill="#fff" stroke="#1a2e35" stroke-linecap="round" stroke-linejoin="round" stroke-width="1.103"/>
        <path id="Path_190494" data-name="Path 190494" d="M272.608-311.054l-6.182,3.881,5.737,5.088" transform="translate(-46.698 451.423)" fill="none" stroke="#1a2e35" stroke-linecap="round" stroke-linejoin="round" stroke-width="1.103"/>
        <path id="Path_190495" data-name="Path 190495" d="M289.789-301.572l5.556-4.735-6.413-4.2" transform="translate(-52.614 451.281)" fill="none" stroke="#1a2e35" stroke-linecap="round" stroke-linejoin="round" stroke-width="1.103"/>
        <line id="Line_246" data-name="Line 246" y1="14.31" x2="4.564" transform="translate(228.915 138.311)" fill="none" stroke="#1a2e35" stroke-linecap="round" stroke-linejoin="round" stroke-width="1.103"/>
        <path id="Path_190496" data-name="Path 190496" d="M219.882-261.807a1.3,1.3,0,0,1-1.3,1.3,1.3,1.3,0,0,1-1.3-1.3,1.3,1.3,0,0,1,1.3-1.3A1.3,1.3,0,0,1,219.882-261.807Z" transform="translate(-33.781 438.82)" fill="#1a2e35"/>
        <g id="Group_129764" data-name="Group 129764" transform="translate(158.06 211.027)">
          <path id="Path_190497" data-name="Path 190497" d="M235.419-167.876h-44.98a1.055,1.055,0,0,1-1.055-1.054h0a1.055,1.055,0,0,1,1.055-1.055h44.98a1.055,1.055,0,0,1,1.054,1.055h0A1.054,1.054,0,0,1,235.419-167.876Z" transform="translate(-184.508 203.317)" fill="#1a2e35"/>
          <path id="Path_190498" data-name="Path 190498" d="M235.254-183.257l6.028-28.306a3.012,3.012,0,0,0-2.946-3.639H185.783a3.013,3.013,0,0,0-2.955,3.6l5.4,27.364a3.013,3.013,0,0,0,2.887,2.427l41.121.942A3.012,3.012,0,0,0,235.254-183.257Z" transform="translate(-182.769 215.202)" fill="#fff" stroke="#1a2e35" stroke-linecap="round" stroke-linejoin="round" stroke-width="1.103"/>
          <path id="Path_190499" data-name="Path 190499" d="M224.96-194.569a4.2,4.2,0,0,1-4.2,4.2,4.2,4.2,0,0,1-4.2-4.2,4.2,4.2,0,0,1,4.2-4.2A4.2,4.2,0,0,1,224.96-194.569Z" transform="translate(-191.653 210.882)" fill="#1a2e35"/>
          <line id="Line_247" data-name="Line 247" x2="6.244" transform="translate(41.552 2.686)" fill="none" stroke="#1a2e35" stroke-linecap="round" stroke-linejoin="round" stroke-width="1.103"/>
          <line id="Line_248" data-name="Line 248" x2="23.701" transform="translate(11.735 2.686)" fill="none" stroke="#1a2e35" stroke-linecap="round" stroke-linejoin="round" stroke-width="1.103"/>
        </g>
        <path id="Path_190500" data-name="Path 190500" d="M226.849-144.678,222.056-132.1s-12.216-3.08-27.87-6.287c-16.369-3.354-33.463-7.7-42.331-23.254a8.818,8.818,0,0,1-1.294-6.261c1.28-5.374,8.271-6.833,12.878-7.37a85.536,85.536,0,0,1,8.721-.49c1.483-.021,6.378-.8,7.562.073a34.74,34.74,0,0,0,5.688,3.37c2.617,1.111,40.815-1,40.815-1a13.621,13.621,0,0,0,1.2-4.586c6-3.052,19.909-5.637,25.783-4.5,9.238,1.8,14.627,7.186,13.6,12.832S245.4-148.784,226.849-144.678Z" transform="translate(-16.201 417.68)" fill="#1a2e35"/>
        <path id="Path_190501" data-name="Path 190501" d="M235.833-138.98s-11.62-3.08-21.114-9.5-16.913-13.858-30.142-12.318" transform="translate(-25.185 411.982)" fill="none" stroke="#fff" stroke-linecap="round" stroke-linejoin="round" stroke-width="1.103"/>
        <path id="Path_190502" data-name="Path 190502" d="M222.5-153.206c6-1.726,10.4-5.6,15.212-9.33A102.989,102.989,0,0,1,254-173.238" transform="translate(-35.154 415.199)" fill="none" stroke="#fff" stroke-linecap="round" stroke-linejoin="round" stroke-width="1.103"/>
        <line id="Line_249" data-name="Line 249" x2="1.76" transform="translate(185.241 138.311)" fill="none" stroke="#1a2e35" stroke-linecap="round" stroke-linejoin="round" stroke-width="1.103"/>
      </g>
    </g>
  </g>
</svg>
