<svg id="Group_109061" data-name="Group 109061" xmlns="http://www.w3.org/2000/svg" width="169.101" height="169.101" viewBox="0 0 169.101 169.101">
  <g id="Elipse_4774" data-name="Elipse 4774">
    <circle id="Ellipse_4777" data-name="Ellipse 4777" cx="84.551" cy="84.551" r="84.551" fill="#0f2771"/>
    <circle id="Ellipse_4778" data-name="Ellipse 4778" cx="83.89" cy="83.89" r="83.89" transform="translate(0.66 0.661)" fill="#0f2771"/>
  </g>
  <g id="Group_109059" data-name="Group 109059" transform="translate(19.727 58.362)">
    <path id="Path_115523" data-name="Path 115523" d="M2472.612,3381.2h-4.652l-9.3,23.257h4.652l1.86-4.651H2475.4l1.86,4.651h4.652Zm-5.583,13.954,3.256-8.14,3.256,8.14Z" transform="translate(-2458.657 -3381.201)" fill="#feca2e"/>
  </g>
  <path id="Path_115524" data-name="Path 115524" d="M2505.286,3388.178v-2.326a4.452,4.452,0,0,0-4.5-4.651h-18.761v23.257h18.761a4.451,4.451,0,0,0,4.5-4.651v-2.326a4.453,4.453,0,0,0-4.5-4.652h0A4.451,4.451,0,0,0,2505.286,3388.178Zm-6.977,11.629H2486.68v-4.652h11.629a2.326,2.326,0,1,1,0,4.652Zm2.326-11.629a2.327,2.327,0,0,1-2.326,2.326H2486.68l-.155-4.729,11.8.065a2.325,2.325,0,0,1,2.314,2.326Z" transform="translate(-2434.608 -3322.838)" fill="#e0f3ff"/>
  <g id="Group_109060" data-name="Group 109060" transform="translate(102.809 58.362)">
    <path id="Path_115525" data-name="Path 115525" d="M2548.622,3384.607a11.593,11.593,0,0,0-8.221-3.407h-11.629v23.257H2540.4a11.627,11.627,0,0,0,8.221-19.85Zm-8.221,15.2h-6.978v-13.955h6.978a6.978,6.978,0,0,1,0,13.955Z" transform="translate(-2528.772 -3381.201)" fill="#e0f3ff"/>
  </g>
  <path id="Path_115526" data-name="Path 115526" d="M2474.824,3357.541V3380.8h4.652v-9.3h13.954v-4.652h-13.954v-4.651h18.606v-4.652Z" transform="translate(-2435.94 -3327.214)" fill="#e0f3ff"/>
  <path id="Path_115527" data-name="Path 115527" d="M2552.143,3381.2v23.257H2575.4v-4.651h-18.606v-4.652h13.955V3390.5h-13.955v-4.651H2575.4V3381.2Z" transform="translate(-2421.641 -3322.838)" fill="#feca2e"/>
  <path id="Path_115528" data-name="Path 115528" d="M2502.847,3365.332a3.139,3.139,0,0,1,3.14-3.139h15.466v-4.652h-17.6a5.659,5.659,0,0,0-5.659,5.659v11.94a5.659,5.659,0,0,0,5.659,5.659h17.6v-13.955h-9.3v4.652h4.652v4.651h-10.815a3.14,3.14,0,0,1-3.14-3.14Z" transform="translate(-2431.618 -3327.214)" fill="#e0f3ff"/>
  <path id="Path_115529" data-name="Path 115529" d="M2510.052,3388.992a3.14,3.14,0,0,1,3.14-3.14h15.466V3381.2h-17.5a5.757,5.757,0,0,0-5.757,5.757V3398.7a5.756,5.756,0,0,0,5.757,5.756h17.5v-4.651h-15.466a3.14,3.14,0,0,1-3.14-3.14Z" transform="translate(-2430.286 -3322.838)" fill="#e0f3ff"/>
  <path id="Path_115530" data-name="Path 115530" d="M2525.493,3357.541V3380.8h4.651v-9.3H2544.1v9.3h4.651v-23.257H2544.1v9.3h-13.955v-9.3Z" transform="translate(-2426.57 -3327.214)" fill="#e0f3ff"/>
  <rect id="Rectangle_40515" data-name="Rectangle 40515" width="4.652" height="23.257" transform="translate(131.268 30.327)" fill="#feca2e"/>
  <path id="Path_115531" data-name="Path 115531" d="M2473.26,3405.939v16.087a2.519,2.519,0,0,1-2.519,2.52h-8.915a2.52,2.52,0,0,1-2.519-2.52v-2.131h-4.652v3.876a5.428,5.428,0,0,0,5.427,5.427h12.4a5.427,5.427,0,0,0,5.427-5.427v-17.831Z" transform="translate(-2439.67 -3318.263)" fill="#feca2e"/>
  <path id="Path_115532" data-name="Path 115532" d="M2505.586,3410.591l-11.275,4.509,11.275,14.1h-4.651l-10.15-12.687-3.8,1.523V3429.2h-4.651v-23.258h4.651v7.443c1.389-.557-.721.287,18.606-7.443Z" transform="translate(-2434.552 -3318.263)" fill="#e0f3ff"/>
  <path id="Path_115533" data-name="Path 115533" d="M2505.7,3405.939v17.831a5.428,5.428,0,0,0,5.427,5.427h17.831v-4.652h-16.845a1.761,1.761,0,0,1-1.761-1.761v-16.845Z" transform="translate(-2430.23 -3318.263)" fill="#e0f3ff"/>
  <path id="Path_115534" data-name="Path 115534" d="M2547.679,3405.939l-6.048,9.071a1.117,1.117,0,0,1-1.859,0l-6.048-9.071h-4.651V3429.2h4.651v-16.281l3.362,5.043a4.345,4.345,0,0,0,3.615,1.935h0a4.346,4.346,0,0,0,3.616-1.935l3.362-5.043V3429.2h4.651v-23.258Z" transform="translate(-2425.908 -3318.263)" fill="#e0f3ff"/>
  <path id="Path_115535" data-name="Path 115535" d="M2571.05,3405.939v17.443l-13.955-17.443h-4.652V3429.2h4.652v-17.443l13.955,17.443h4.651v-23.257Z" transform="translate(-2421.585 -3318.263)" fill="#e0f3ff"/>
  <path id="Path_115536" data-name="Path 115536" d="M2507.708,3430.678l-8.439,21.1a3.435,3.435,0,0,1-3.19,2.159h0a3.435,3.435,0,0,1-3.189-2.159l-3.52-8.8a.289.289,0,0,0-.536,0l-3.52,8.8a3.435,3.435,0,0,1-3.188,2.159h0a3.436,3.436,0,0,1-3.19-2.159l-8.439-21.1h4.652l6.977,17.442,4.426-11.064a2.747,2.747,0,0,1,2.551-1.728h0a2.747,2.747,0,0,1,2.551,1.728l4.426,11.064,6.978-17.442Z" transform="translate(-2436.74 -3313.688)" fill="#e0f3ff"/>
  <path id="Path_115537" data-name="Path 115537" d="M2531.3,3430.678h-4.651l-6.977,8.721-6.978-8.721h-4.651l9.3,11.628-9.3,11.629h4.651l6.978-8.721,6.977,8.721h4.651l-9.3-11.629Z" transform="translate(-2429.797 -3313.688)" fill="#e0f3ff"/>
  <path id="Path_115538" data-name="Path 115538" d="M2556.409,3430.677l-7.975,13.289-1.993,3.324-3.986,6.645H2537.8l5.979-9.968-10.631-13.289h4.651l7.975,9.968,5.98-9.968Z" transform="translate(-2425.153 -3313.688)" fill="#feca2e"/>
</svg>
