<svg id="Group_109062" data-name="Group 109062" xmlns="http://www.w3.org/2000/svg" width="169.101" height="169.101" viewBox="0 0 169.101 169.101">
  <g id="Elipse_4774" data-name="Elipse 4774">
    <circle id="Ellipse_4779" data-name="Ellipse 4779" cx="84.551" cy="84.551" r="84.551" fill="#0f2771"/>
    <circle id="Ellipse_4780" data-name="Ellipse 4780" cx="83.89" cy="83.89" r="83.89" transform="translate(0.66 0.661)" fill="#0f2771"/>
  </g>
  <path id="Path_115539" data-name="Path 115539" d="M2629.985,3392.291v29.025h5.8v-11.61H2653.2v-5.8H2635.79V3398.1h23.22v-5.8Z" transform="translate(-2592.812 -3320.787)" fill="#e0f3ff"/>
  <path id="Path_115540" data-name="Path 115540" d="M2714.879,3392.291l-10.532,26.33a4.287,4.287,0,0,1-3.98,2.695h0a4.286,4.286,0,0,1-3.98-2.695l-10.531-26.33h5.8l7.574,18.933a1.221,1.221,0,0,0,2.268,0l7.573-18.933Z" transform="translate(-2582.479 -3320.787)" fill="#e0f3ff"/>
  <line id="Line_174" data-name="Line 174" y2="167.469" transform="translate(83.863 0.791)" fill="none" stroke="#feca2e" stroke-miterlimit="10" stroke-width="4"/>
</svg>
