<svg id="Grupo_109192" data-name="Grupo 109192" xmlns="http://www.w3.org/2000/svg" width="102.742" height="102.742" viewBox="0 0 102.742 102.742">
  <circle id="Elipse_4809" data-name="Elipse 4809" cx="51.371" cy="51.371" r="51.371" fill="#0f2771"/>
  <path id="Trazado_115595" data-name="Trazado 115595" d="M-279.128,2308.129h-14.485v-1.56h14.485a1.17,1.17,0,0,0,1.17-1.17,1.17,1.17,0,0,0-1.17-1.17h-14.654a3.93,3.93,0,0,0-3.755-2.789H-314.4a3.929,3.929,0,0,0-3.755,2.789h-14.63a1.17,1.17,0,0,0-1.17,1.17,1.17,1.17,0,0,0,1.17,1.17h14.461v1.56h-14.461a1.17,1.17,0,0,0-1.17,1.17,1.17,1.17,0,0,0,1.17,1.17h14.461v2.71a3.931,3.931,0,0,0,2.766,3.749l2.9,7.562c0,.01.01.02.014.03s.019.041.029.062a1.156,1.156,0,0,0,.077.135c.007.011.011.023.019.034l2.8,3.933.977,3.132a1.169,1.169,0,0,0,1.117.822h.42v11.352l-11.58,6.653-.018.013a1.126,1.126,0,0,0-.149.107l-.041.035a1.2,1.2,0,0,0-.135.145c-.008.01-.014.021-.021.031a1.228,1.228,0,0,0-.088.143c-.009.016-.017.032-.024.048a1.222,1.222,0,0,0-.07.186l0,.011a1.177,1.177,0,0,0-.031.185c0,.019,0,.038,0,.057s0,.036,0,.054v15.021a1.171,1.171,0,0,0,.548.991l12.233,7.685.027.015c.01.006.019.013.029.019s.016.006.024.01a1.181,1.181,0,0,0,.242.1l.033.007a1.181,1.181,0,0,0,.268.033h0a1.181,1.181,0,0,0,.267-.033l.032-.007a1.139,1.139,0,0,0,.242-.1c.008,0,.016-.006.024-.01s.02-.013.03-.019l.027-.015,12.233-7.685a1.171,1.171,0,0,0,.547-.991v-15.021c0-.018,0-.036,0-.054s0-.038,0-.057a1.14,1.14,0,0,0-.031-.186l0-.01a1.134,1.134,0,0,0-.07-.186c-.007-.017-.016-.032-.024-.048a1.2,1.2,0,0,0-.088-.143c-.007-.01-.013-.02-.021-.03a1.177,1.177,0,0,0-.135-.146l-.04-.034a1.112,1.112,0,0,0-.15-.107l-.018-.013-11.712-6.729v-11.276h.551a1.169,1.169,0,0,0,1.117-.822l.977-3.132,2.8-3.933c.008-.011.012-.023.019-.034a1.164,1.164,0,0,0,.077-.135c.01-.021.02-.041.029-.062s.01-.019.014-.03l2.9-7.562a3.931,3.931,0,0,0,2.766-3.749v-2.71h14.485a1.17,1.17,0,0,0,1.17-1.17A1.17,1.17,0,0,0-279.128,2308.129Zm-26.84,49.829-9.963-6.259,9.963-5.724L-296,2351.7Zm-11.063-4.187,9.893,6.215v12.258l-9.893-6.215Zm22.126,12.258-9.894,6.215v-12.258l9.894-6.215Zm-6.27-43.128h-9.586l-2.223-5.8h14.031Zm-3.058,4.576a1.17,1.17,0,0,0-.164.331l-.776,2.489h-1.589l-.776-2.489a1.179,1.179,0,0,0-.164-.331l-1.593-2.237h6.656Zm8.28-14.3a1.585,1.585,0,0,1-1.584,1.584H-314.4a1.585,1.585,0,0,1-1.584-1.584v-7.815a1.586,1.586,0,0,1,1.584-1.584h16.862a1.586,1.586,0,0,1,1.584,1.584Z" transform="translate(357.326 -2281.506)" fill="#fff"/>
</svg>
