<svg xmlns="http://www.w3.org/2000/svg" xmlns:xlink="http://www.w3.org/1999/xlink" width="290.829" height="264.274" viewBox="0 0 290.829 264.274">
  <defs>
    <clipPath id="clip-path">
      <path id="Trazado_191545" data-name="Trazado 191545" d="M-860.651,270.761l.089-33.357c.363-1.349.653-6.3,1.429-9.747,1.308-5.781-3.852-12.75-4.215-12.977-1.446-.9-4.522-.888-4.522-.888s-3-3.448-5.709-4.538a13.458,13.458,0,0,0-5.781-.719,27.617,27.617,0,0,0-6.864-4.158,5.646,5.646,0,0,0-5.781,1.09l-3.375,5.257a3.936,3.936,0,0,0,.46,4.918c1.615,1.591,3.682.847,4.724.847,1.445,0,1.986-1.631,1.986-1.631s.355,8.495,0,9.577l-.008.008c-.371,1.082-3.068,3.609-3.068,3.609l-9.028-11.95a87.261,87.261,0,0,1-8.131-13.413,6.155,6.155,0,0,0-1.018-1.582c-1.582-1.793-4.974-2.317-5.854,1a6.493,6.493,0,0,0,.145,3.2c3.779,11.151,8.584,19.582,12.968,28.367,2.608,5.216,1.639,5.152,2.939,7.509-.153.1-.081.3-.242.4-.638,2.536-1.082,5.079-1.72,7.614A34.891,34.891,0,0,0-904.119,240a20.745,20.745,0,0,0,.4-5.37,7.061,7.061,0,0,0-2.237-4.764,4.643,4.643,0,0,0-2.633-1.026,2.748,2.748,0,0,0-2.9,2.35,27.751,27.751,0,0,1-.759,4.086,40.7,40.7,0,0,1-2.083,5.128c0,3.367,2.083,2.819,3.6,16.36,1.179,10.546,14.761,17.515,22.158,25.129l7.881,24.79a152.821,152.821,0,0,0,26.3-13.808Z" transform="translate(915.455 -199.687)" fill="#fff"/>
    </clipPath>
    <clipPath id="clip-path-2">
      <path id="Trazado_191588" data-name="Trazado 191588" d="M-972.465,231.687c-.323-1.493-2.447-1.275-2.447-1.275-7.13.42-8.091,11.6-8.091,11.6l-2.551,7.655-.8-11.515.081-14.842s2.156-14.2,1.2-16.432a3.247,3.247,0,0,0-2.948-2.156c-4.15-1.042-4.393,4.941-4.393,4.941l-3.5,12.21-1.437,13.17-1.2-.638s-.565-13.97-.323-14.2,1.68-9.658,1.68-9.658.791-1.752,1.752-3.989a4.836,4.836,0,0,0,0-3.989c-1.68-3.432-5.184-1.833-5.9,0a53.268,53.268,0,0,1-2.875,5.427l-4,10.933c.154,2.471-1.268,14.68-1.268,14.68l-1.437-.654-2.318-7.171,1.76-7.34s3.827-4.223,3.19-6.7-3.908-1.752-3.908-1.752l-6.54,7.816h-1.922l-4.546,5.749a36.518,36.518,0,0,0-1.85,11.467,36.2,36.2,0,0,0,.807,7.615l1.042,4.853v31.363s-3.109,5.023-3.109,5.5c0,.218-1.284,4.183-3.077,9.125a154.337,154.337,0,0,0,19.34,10.045c2.244.888,4.513,1.736,6.791,2.544,2.866-8.051,6.217-16.667,8.067-18.677,3.666-3.989,10.844-11.652,10.844-11.652s8.164-13.106,9.117-17.466c.792-3.578,2.705-10.07,3.367-12.3a4.405,4.405,0,0,0,.186-1.558c-.057-1.179-.169-3.465-.169-5.483C-973.854,236.048-972.15,233.173-972.465,231.687Z" transform="translate(1031.396 -200.543)" fill="#fff"/>
    </clipPath>
    <clipPath id="clip-path-3">
      <path id="Trazado_191711" data-name="Trazado 191711" d="M-752.115,214.843a54.222,54.222,0,0,1-.735,8.955c-2.188,13.057-9.052,22.585-17.175,22.585a10.656,10.656,0,0,1-2.156-.226c-8.866-1.881-15.746-15.181-15.746-31.314,0-17.418,8.019-23.579,17.9-23.579S-752.115,197.426-752.115,214.843Z" transform="translate(787.928 -191.264)" fill="#fff" stroke="#1a2e35" stroke-miterlimit="10" stroke-width="1"/>
    </clipPath>
  </defs>
  <g id="Grupo_131708" data-name="Grupo 131708" transform="translate(0.521 0.5)">
    <g id="Grupo_131715" data-name="Grupo 131715" transform="translate(39.674 137.57)">
      <rect id="Rectángulo_41286" data-name="Rectángulo 41286" width="174.07" height="73.311" fill="#def1ff"/>
      <g id="Grupo_131714" data-name="Grupo 131714" transform="translate(3.637 4.436)">
        <rect id="Rectángulo_41287" data-name="Rectángulo 41287" width="16.378" height="9.066" fill="#fff" stroke="#1a2e35" stroke-miterlimit="10" stroke-width="1"/>
        <rect id="Rectángulo_41288" data-name="Rectángulo 41288" width="25.796" height="9.066" transform="translate(140.61 44.194)" fill="#fff" stroke="#1a2e35" stroke-miterlimit="10" stroke-width="1"/>
        <rect id="Rectángulo_41289" data-name="Rectángulo 41289" width="15.923" height="9.066" transform="translate(150.483 11.322)" fill="#fff" stroke="#1a2e35" stroke-miterlimit="10" stroke-width="1"/>
        <rect id="Rectángulo_41290" data-name="Rectángulo 41290" width="16.378" height="9.066" transform="translate(0 33.016)" fill="#fff" stroke="#1a2e35" stroke-miterlimit="10" stroke-width="1"/>
        <rect id="Rectángulo_41291" data-name="Rectángulo 41291" width="13.258" height="9.066" transform="translate(0 22.097)" fill="#fff" stroke="#1a2e35" stroke-miterlimit="10" stroke-width="1"/>
        <g id="Grupo_131708-2" data-name="Grupo 131708" transform="translate(0 11.049)">
          <rect id="Rectángulo_41292" data-name="Rectángulo 41292" width="9.066" height="9.066" fill="#fff" stroke="#1a2e35" stroke-miterlimit="10" stroke-width="1"/>
          <rect id="Rectángulo_41293" data-name="Rectángulo 41293" width="9.066" height="9.066" transform="translate(11.571)" fill="#fff" stroke="#1a2e35" stroke-miterlimit="10" stroke-width="1"/>
          <rect id="Rectángulo_41294" data-name="Rectángulo 41294" width="9.066" height="9.066" transform="translate(23.142)" fill="#fff" stroke="#1a2e35" stroke-miterlimit="10" stroke-width="1"/>
          <rect id="Rectángulo_41295" data-name="Rectángulo 41295" width="9.066" height="9.066" transform="translate(34.714)" fill="#fff" stroke="#1a2e35" stroke-miterlimit="10" stroke-width="1"/>
          <rect id="Rectángulo_41296" data-name="Rectángulo 41296" width="9.066" height="9.066" transform="translate(46.285)" fill="#fff" stroke="#1a2e35" stroke-miterlimit="10" stroke-width="1"/>
          <rect id="Rectángulo_41297" data-name="Rectángulo 41297" width="9.066" height="9.066" transform="translate(57.856)" fill="#fff" stroke="#1a2e35" stroke-miterlimit="10" stroke-width="1"/>
          <rect id="Rectángulo_41298" data-name="Rectángulo 41298" width="9.066" height="9.066" transform="translate(69.428)" fill="#fff" stroke="#1a2e35" stroke-miterlimit="10" stroke-width="1"/>
          <rect id="Rectángulo_41299" data-name="Rectángulo 41299" width="9.066" height="9.066" transform="translate(80.999)" fill="#fff" stroke="#1a2e35" stroke-miterlimit="10" stroke-width="1"/>
          <rect id="Rectángulo_41300" data-name="Rectángulo 41300" width="9.066" height="9.066" transform="translate(92.57)" fill="#fff" stroke="#1a2e35" stroke-miterlimit="10" stroke-width="1"/>
          <rect id="Rectángulo_41301" data-name="Rectángulo 41301" width="9.066" height="9.066" transform="translate(104.141)" fill="#fff" stroke="#1a2e35" stroke-miterlimit="10" stroke-width="1"/>
          <rect id="Rectángulo_41302" data-name="Rectángulo 41302" width="9.066" height="9.066" transform="translate(115.713)" fill="#fff" stroke="#1a2e35" stroke-miterlimit="10" stroke-width="1"/>
          <rect id="Rectángulo_41303" data-name="Rectángulo 41303" width="9.066" height="9.066" transform="translate(127.284)" fill="#fff" stroke="#1a2e35" stroke-miterlimit="10" stroke-width="1"/>
          <rect id="Rectángulo_41304" data-name="Rectángulo 41304" width="9.066" height="9.066" transform="translate(138.855)" fill="#fff" stroke="#1a2e35" stroke-miterlimit="10" stroke-width="1"/>
        </g>
        <g id="Grupo_131709" data-name="Grupo 131709" transform="translate(0 55.373)">
          <rect id="Rectángulo_41305" data-name="Rectángulo 41305" width="9.066" height="9.066" fill="#fff" stroke="#1a2e35" stroke-miterlimit="10" stroke-width="1"/>
          <rect id="Rectángulo_41306" data-name="Rectángulo 41306" width="9.066" height="9.066" transform="translate(11.571)" fill="#fff" stroke="#1a2e35" stroke-miterlimit="10" stroke-width="1"/>
          <rect id="Rectángulo_41307" data-name="Rectángulo 41307" width="9.066" height="9.066" transform="translate(23.142)" fill="#fff" stroke="#1a2e35" stroke-miterlimit="10" stroke-width="1"/>
          <rect id="Rectángulo_41308" data-name="Rectángulo 41308" width="11.062" height="9.066" transform="translate(34.714)" fill="#fff" stroke="#1a2e35" stroke-miterlimit="10" stroke-width="1"/>
          <rect id="Rectángulo_41309" data-name="Rectángulo 41309" width="55.351" height="9.066" transform="translate(48.281)" fill="#fff" stroke="#1a2e35" stroke-miterlimit="10" stroke-width="1"/>
          <rect id="Rectángulo_41310" data-name="Rectángulo 41310" width="9.066" height="9.066" transform="translate(122.241)" fill="#fff" stroke="#1a2e35" stroke-miterlimit="10" stroke-width="1"/>
          <rect id="Rectángulo_41311" data-name="Rectángulo 41311" width="9.066" height="9.066" transform="translate(133.813)" fill="#fff" stroke="#1a2e35" stroke-miterlimit="10" stroke-width="1"/>
          <rect id="Rectángulo_41312" data-name="Rectángulo 41312" width="9.066" height="9.066" transform="translate(145.403)" fill="#fff" stroke="#1a2e35" stroke-miterlimit="10" stroke-width="1"/>
          <rect id="Rectángulo_41313" data-name="Rectángulo 41313" width="14.076" height="9.066" transform="translate(105.896)" fill="#fff" stroke="#1a2e35" stroke-miterlimit="10" stroke-width="1"/>
          <rect id="Rectángulo_41314" data-name="Rectángulo 41314" width="9.066" height="9.066" transform="translate(157.34)" fill="#fff" stroke="#1a2e35" stroke-miterlimit="10" stroke-width="1"/>
        </g>
        <g id="Grupo_131710" data-name="Grupo 131710" transform="translate(15.831 22.097)">
          <rect id="Rectángulo_41315" data-name="Rectángulo 41315" width="9.066" height="9.066" fill="#fff" stroke="#1a2e35" stroke-miterlimit="10" stroke-width="1"/>
          <rect id="Rectángulo_41316" data-name="Rectángulo 41316" width="9.066" height="9.066" transform="translate(11.571)" fill="#fff" stroke="#1a2e35" stroke-miterlimit="10" stroke-width="1"/>
          <rect id="Rectángulo_41317" data-name="Rectángulo 41317" width="9.066" height="9.066" transform="translate(23.143)" fill="#fff" stroke="#1a2e35" stroke-miterlimit="10" stroke-width="1"/>
          <rect id="Rectángulo_41318" data-name="Rectángulo 41318" width="9.066" height="9.066" transform="translate(34.714)" fill="#fff" stroke="#1a2e35" stroke-miterlimit="10" stroke-width="1"/>
          <rect id="Rectángulo_41319" data-name="Rectángulo 41319" width="9.066" height="9.066" transform="translate(46.285)" fill="#fff" stroke="#1a2e35" stroke-miterlimit="10" stroke-width="1"/>
          <rect id="Rectángulo_41320" data-name="Rectángulo 41320" width="9.066" height="9.066" transform="translate(57.856)" fill="#fff" stroke="#1a2e35" stroke-miterlimit="10" stroke-width="1"/>
          <rect id="Rectángulo_41321" data-name="Rectángulo 41321" width="9.066" height="9.066" transform="translate(69.428)" fill="#fff" stroke="#1a2e35" stroke-miterlimit="10" stroke-width="1"/>
          <rect id="Rectángulo_41322" data-name="Rectángulo 41322" width="9.066" height="9.066" transform="translate(80.999)" fill="#fff" stroke="#1a2e35" stroke-miterlimit="10" stroke-width="1"/>
          <rect id="Rectángulo_41323" data-name="Rectángulo 41323" width="9.066" height="9.066" transform="translate(92.57)" fill="#fff" stroke="#1a2e35" stroke-miterlimit="10" stroke-width="1"/>
          <rect id="Rectángulo_41324" data-name="Rectángulo 41324" width="9.066" height="9.066" transform="translate(104.141)" fill="#fff" stroke="#1a2e35" stroke-miterlimit="10" stroke-width="1"/>
          <rect id="Rectángulo_41325" data-name="Rectángulo 41325" width="9.066" height="9.066" transform="translate(115.713)" fill="#fff" stroke="#1a2e35" stroke-miterlimit="10" stroke-width="1"/>
          <rect id="Rectángulo_41326" data-name="Rectángulo 41326" width="9.066" height="9.066" transform="translate(127.284)" fill="#fff" stroke="#1a2e35" stroke-miterlimit="10" stroke-width="1"/>
          <path id="Trazado_191521" data-name="Trazado 191521" d="M-823.3,213.316V233.43h-9.064V222.38h-2.658v-9.064Z" transform="translate(973.876 -213.315)" fill="#fff" stroke="#1a2e35" stroke-miterlimit="10" stroke-width="1"/>
        </g>
        <g id="Grupo_131711" data-name="Grupo 131711" transform="translate(18.485 33.146)">
          <rect id="Rectángulo_41327" data-name="Rectángulo 41327" width="9.066" height="9.066" fill="#fff" stroke="#1a2e35" stroke-miterlimit="10" stroke-width="1"/>
          <rect id="Rectángulo_41328" data-name="Rectángulo 41328" width="9.066" height="9.066" transform="translate(11.571)" fill="#fff" stroke="#1a2e35" stroke-miterlimit="10" stroke-width="1"/>
          <rect id="Rectángulo_41329" data-name="Rectángulo 41329" width="9.066" height="9.066" transform="translate(23.142)" fill="#fff" stroke="#1a2e35" stroke-miterlimit="10" stroke-width="1"/>
          <rect id="Rectángulo_41330" data-name="Rectángulo 41330" width="9.066" height="9.066" transform="translate(34.714)" fill="#fff" stroke="#1a2e35" stroke-miterlimit="10" stroke-width="1"/>
          <rect id="Rectángulo_41331" data-name="Rectángulo 41331" width="9.066" height="9.066" transform="translate(46.285)" fill="#fff" stroke="#1a2e35" stroke-miterlimit="10" stroke-width="1"/>
          <rect id="Rectángulo_41332" data-name="Rectángulo 41332" width="9.066" height="9.066" transform="translate(57.856)" fill="#fff" stroke="#1a2e35" stroke-miterlimit="10" stroke-width="1"/>
          <rect id="Rectángulo_41333" data-name="Rectángulo 41333" width="9.066" height="9.066" transform="translate(69.427)" fill="#fff" stroke="#1a2e35" stroke-miterlimit="10" stroke-width="1"/>
          <rect id="Rectángulo_41334" data-name="Rectángulo 41334" width="9.066" height="9.066" transform="translate(80.999)" fill="#fff" stroke="#1a2e35" stroke-miterlimit="10" stroke-width="1"/>
          <rect id="Rectángulo_41335" data-name="Rectángulo 41335" width="9.066" height="9.066" transform="translate(92.57)" fill="#fff" stroke="#1a2e35" stroke-miterlimit="10" stroke-width="1"/>
          <rect id="Rectángulo_41336" data-name="Rectángulo 41336" width="9.066" height="9.066" transform="translate(104.141)" fill="#fff" stroke="#1a2e35" stroke-miterlimit="10" stroke-width="1"/>
          <rect id="Rectángulo_41337" data-name="Rectángulo 41337" width="9.066" height="9.066" transform="translate(115.713)" fill="#fff" stroke="#1a2e35" stroke-miterlimit="10" stroke-width="1"/>
          <rect id="Rectángulo_41338" data-name="Rectángulo 41338" width="9.066" height="9.066" transform="translate(127.284)" fill="#fff" stroke="#1a2e35" stroke-miterlimit="10" stroke-width="1"/>
        </g>
        <g id="Grupo_131712" data-name="Grupo 131712" transform="translate(13.567 44.194)">
          <rect id="Rectángulo_41339" data-name="Rectángulo 41339" width="9.066" height="9.066" fill="#fff" stroke="#1a2e35" stroke-miterlimit="10" stroke-width="1"/>
          <rect id="Rectángulo_41340" data-name="Rectángulo 41340" width="9.066" height="9.066" transform="translate(11.571)" fill="#fff" stroke="#1a2e35" stroke-miterlimit="10" stroke-width="1"/>
          <rect id="Rectángulo_41341" data-name="Rectángulo 41341" width="9.066" height="9.066" transform="translate(23.143)" fill="#fff" stroke="#1a2e35" stroke-miterlimit="10" stroke-width="1"/>
          <rect id="Rectángulo_41342" data-name="Rectángulo 41342" width="9.066" height="9.066" transform="translate(34.714)" fill="#fff" stroke="#1a2e35" stroke-miterlimit="10" stroke-width="1"/>
          <rect id="Rectángulo_41343" data-name="Rectángulo 41343" width="9.066" height="9.066" transform="translate(46.285)" fill="#fff" stroke="#1a2e35" stroke-miterlimit="10" stroke-width="1"/>
          <rect id="Rectángulo_41344" data-name="Rectángulo 41344" width="9.066" height="9.066" transform="translate(57.856)" fill="#fff" stroke="#1a2e35" stroke-miterlimit="10" stroke-width="1"/>
          <rect id="Rectángulo_41345" data-name="Rectángulo 41345" width="9.066" height="9.066" transform="translate(69.428)" fill="#fff" stroke="#1a2e35" stroke-miterlimit="10" stroke-width="1"/>
          <rect id="Rectángulo_41346" data-name="Rectángulo 41346" width="9.066" height="9.066" transform="translate(80.999)" fill="#fff" stroke="#1a2e35" stroke-miterlimit="10" stroke-width="1"/>
          <rect id="Rectángulo_41347" data-name="Rectángulo 41347" width="9.066" height="9.066" transform="translate(92.57)" fill="#fff" stroke="#1a2e35" stroke-miterlimit="10" stroke-width="1"/>
          <rect id="Rectángulo_41348" data-name="Rectángulo 41348" width="9.066" height="9.066" transform="translate(104.141)" fill="#fff" stroke="#1a2e35" stroke-miterlimit="10" stroke-width="1"/>
          <rect id="Rectángulo_41349" data-name="Rectángulo 41349" width="9.066" height="9.066" transform="translate(115.713)" fill="#fff" stroke="#1a2e35" stroke-miterlimit="10" stroke-width="1"/>
        </g>
        <g id="Grupo_131713" data-name="Grupo 131713" transform="translate(18.485 0.547)">
          <rect id="Rectángulo_41350" data-name="Rectángulo 41350" width="9.066" height="9.066" fill="#fff" stroke="#1a2e35" stroke-miterlimit="10" stroke-width="1"/>
          <rect id="Rectángulo_41351" data-name="Rectángulo 41351" width="9.066" height="9.066" transform="translate(11.571)" fill="#fff" stroke="#1a2e35" stroke-miterlimit="10" stroke-width="1"/>
          <rect id="Rectángulo_41352" data-name="Rectángulo 41352" width="9.066" height="9.066" transform="translate(23.142)" fill="#fff" stroke="#1a2e35" stroke-miterlimit="10" stroke-width="1"/>
          <rect id="Rectángulo_41353" data-name="Rectángulo 41353" width="9.066" height="9.066" transform="translate(34.714)" fill="#fff" stroke="#1a2e35" stroke-miterlimit="10" stroke-width="1"/>
          <rect id="Rectángulo_41354" data-name="Rectángulo 41354" width="9.066" height="9.066" transform="translate(46.285)" fill="#fff" stroke="#1a2e35" stroke-miterlimit="10" stroke-width="1"/>
          <rect id="Rectángulo_41355" data-name="Rectángulo 41355" width="9.066" height="9.066" transform="translate(57.856)" fill="#fff" stroke="#1a2e35" stroke-miterlimit="10" stroke-width="1"/>
          <rect id="Rectángulo_41356" data-name="Rectángulo 41356" width="9.066" height="9.066" transform="translate(69.427)" fill="#fff" stroke="#1a2e35" stroke-miterlimit="10" stroke-width="1"/>
          <rect id="Rectángulo_41357" data-name="Rectángulo 41357" width="9.066" height="9.066" transform="translate(80.999)" fill="#fff" stroke="#1a2e35" stroke-miterlimit="10" stroke-width="1"/>
          <rect id="Rectángulo_41358" data-name="Rectángulo 41358" width="9.066" height="9.066" transform="translate(92.57)" fill="#fff" stroke="#1a2e35" stroke-miterlimit="10" stroke-width="1"/>
          <rect id="Rectángulo_41359" data-name="Rectángulo 41359" width="9.066" height="9.066" transform="translate(104.141)" fill="#fff" stroke="#1a2e35" stroke-miterlimit="10" stroke-width="1"/>
          <rect id="Rectángulo_41360" data-name="Rectángulo 41360" width="9.066" height="9.066" transform="translate(115.713)" fill="#fff" stroke="#1a2e35" stroke-miterlimit="10" stroke-width="1"/>
          <rect id="Rectángulo_41361" data-name="Rectángulo 41361" width="9.066" height="9.066" transform="translate(127.284)" fill="#fff" stroke="#1a2e35" stroke-miterlimit="10" stroke-width="1"/>
          <rect id="Rectángulo_41362" data-name="Rectángulo 41362" width="9.066" height="9.066" transform="translate(138.855)" fill="#fff" stroke="#1a2e35" stroke-miterlimit="10" stroke-width="1"/>
        </g>
        <rect id="Rectángulo_41363" data-name="Rectángulo 41363" width="10.984" height="9.066" transform="translate(0 44.194)" fill="#fff" stroke="#1a2e35" stroke-miterlimit="10" stroke-width="1"/>
      </g>
    </g>
    <path id="Trazado_191522" data-name="Trazado 191522" d="M-1044.821,178.382l3.637-1.213h168.069l2.4,1.2Z" transform="translate(1084.495 -40.343)" fill="#1a2e35"/>
    <path id="Trazado_191523" data-name="Trazado 191523" d="M-889.148,309.819l-3.539-21.318a17.411,17.411,0,0,0-4.792-8.346c-7.041-6.792-16.345-13.765-16.745-22.669-.611-13.606-2.732-13.2-2.505-16.557a40.788,40.788,0,0,0,2.422-4.981,29.025,29.025,0,0,0,1.026-4.03,2.75,2.75,0,0,1,3.049-2.151,4.672,4.672,0,0,1,2.558,1.2,7.085,7.085,0,0,1,1.917,4.905,20.968,20.968,0,0,1-.755,5.328,34.832,34.832,0,0,1,2.271,9.365c.807-2.49,1.419-5,2.226-7.486.166-.091.106-.287.264-.377-1.139-2.445-.174-2.309-2.43-7.69-3.8-9.056-8.029-17.787-11.055-29.167a6.47,6.47,0,0,1,.068-3.2c1.094-3.252,4.445-2.505,5.909-.611a6.253,6.253,0,0,1,.906,1.645,87.886,87.886,0,0,0,7.222,13.923l8.218,12.527s2.86-2.347,3.3-3.4l.008-.008c.43-1.056.641-9.561.641-9.561s-.649,1.592-2.09,1.5c-1.041-.075-3.154.528-4.656-1.162a3.929,3.929,0,0,1-.136-4.935l3.72-5.026a5.642,5.642,0,0,1,5.841-.7,27.788,27.788,0,0,1,6.573,4.6,13.441,13.441,0,0,1,5.72,1.1c2.634,1.268,5.4,4.905,5.4,4.905s3.071.189,4.452,1.192c.347.249,5.033,7.546,3.343,13.229-1,3.388-1.622,8.309-2.075,9.629l-2.3,33.272,4.641,21.9-9.923,5.531a71.164,71.164,0,0,1-11.419,5.106Z" transform="translate(1053.069 -46.045)" opacity="0.2"/>
    <g id="Grupo_131726" data-name="Grupo 131726" transform="translate(137.298 153.819)">
      <g id="Grupo_131725" data-name="Grupo 131725">
        <g id="Grupo_131724" data-name="Grupo 131724">
          <g id="Grupo_131719" data-name="Grupo 131719">
            <path id="Trazado_191524" data-name="Trazado 191524" d="M-860.651,270.761l.089-33.357c.363-1.349.653-6.3,1.429-9.747,1.308-5.781-3.852-12.75-4.215-12.977-1.446-.9-4.522-.888-4.522-.888s-3-3.448-5.709-4.538a13.458,13.458,0,0,0-5.781-.719,27.617,27.617,0,0,0-6.864-4.158,5.646,5.646,0,0,0-5.781,1.09l-3.375,5.257a3.936,3.936,0,0,0,.46,4.918c1.615,1.591,3.682.847,4.724.847,1.445,0,1.986-1.631,1.986-1.631s.355,8.495,0,9.577l-.008.008c-.371,1.082-3.068,3.609-3.068,3.609l-9.028-11.95a87.261,87.261,0,0,1-8.131-13.413,6.155,6.155,0,0,0-1.018-1.582c-1.582-1.793-4.974-2.317-5.854,1a6.493,6.493,0,0,0,.145,3.2c3.779,11.151,8.584,19.582,12.968,28.367,2.608,5.216,1.639,5.152,2.939,7.509-.153.1-.081.3-.242.4-.638,2.536-1.082,5.079-1.72,7.614A34.891,34.891,0,0,0-904.119,240a20.745,20.745,0,0,0,.4-5.37,7.061,7.061,0,0,0-2.237-4.764,4.643,4.643,0,0,0-2.633-1.026,2.748,2.748,0,0,0-2.9,2.35,27.751,27.751,0,0,1-.759,4.086,40.7,40.7,0,0,1-2.083,5.128c0,3.367,2.083,2.819,3.6,16.36,1.179,10.546,14.761,17.515,22.158,25.129l7.881,24.79a152.821,152.821,0,0,0,26.3-13.808Z" transform="translate(915.455 -199.687)" fill="#ffcfa6"/>
            <g id="Grupo_131718" data-name="Grupo 131718" clip-path="url(#clip-path)">
              <g id="Grupo_131717" data-name="Grupo 131717" transform="translate(2.967 -1.534)" opacity="0.36">
                <path id="Trazado_191525" data-name="Trazado 191525" d="M-902.728,269.513c.091-.165.17-.336.247-.507A.575.575,0,0,0-902.728,269.513Z" transform="translate(909.365 -215.161)" fill="#4dcedf"/>
                <path id="Trazado_191526" data-name="Trazado 191526" d="M-902.273,250.408c-.148-1.86.117-3.731.039-5.6a7.334,7.334,0,0,0-1.923-5.107c-1.947-1.835-7.279-.9-5.492,2.587a2.238,2.238,0,0,0,2.769,1.032,2.017,2.017,0,0,0,.94-2.726,9.667,9.667,0,0,1-.457,10.992,8.784,8.784,0,0,1,2.13,10,1.094,1.094,0,0,1,1.241-.012,3.825,3.825,0,0,1,.963,1.705c.257.61.756,1.244,1.416,1.2a11.439,11.439,0,0,0,.017-7.077A42.844,42.844,0,0,1-902.273,250.408Z" transform="translate(911.152 -207.747)" fill="#4dcedf"/>
                <path id="Trazado_191527" data-name="Trazado 191527" d="M-875.045,207.325a7.483,7.483,0,0,0-3.569-1.5Z" transform="translate(903.448 -199.658)" fill="#4dcedf"/>
                <path id="Trazado_191528" data-name="Trazado 191528" d="M-865.012,231.426c-.286-1.283-.878-2.477-1.232-3.744-.823-2.951-.307-6.1-.684-9.143a15.776,15.776,0,0,0-5.606-10.155l-1.352-.57a7.611,7.611,0,0,1,2.721,3.954,71.246,71.246,0,0,1,1.835,11.091,149.557,149.557,0,0,0,3.138,17.063C-865.292,237.169-864.383,234.253-865.012,231.426Z" transform="translate(902.288 -200.147)" fill="#4dcedf"/>
                <path id="Trazado_191529" data-name="Trazado 191529" d="M-882.248,219.087a4.716,4.716,0,0,0,1.593-3.1,12.623,12.623,0,0,0-.085-3.185,1.037,1.037,0,0,1-1.187.715,2.659,2.659,0,0,1-1.427-1.3l-.276.949-.111-.514-.358.457c.534,1.515,1.05,3.272.224,4.65a5.507,5.507,0,0,1-1.7,1.573A2.876,2.876,0,0,0-882.248,219.087Z" transform="translate(905.156 -201.228)" fill="#4dcedf"/>
                <path id="Trazado_191530" data-name="Trazado 191530" d="M-879.226,212.493c.015.125.029.251.044.376A.571.571,0,0,0-879.226,212.493Z" transform="translate(903.598 -201.295)" fill="#4dcedf"/>
                <path id="Trazado_191531" data-name="Trazado 191531" d="M-891.094,224.123c-2.647-5.2-5.295-10.4-8.2-15.454a49.829,49.829,0,0,0-5.77-8.425c-1.005-1.128-3.894-3.741-5.485-2.02-1.06,1.148.335,3.235-.971,4.477.3.017,1.774-.143,1.93.049a22.973,22.973,0,0,1,5.066,14.636c1.065-.835,2.523.324,3.354,1.392a246.724,246.724,0,0,1,14.314,20.452c-.857-3.117-.878-6.424-1.8-9.522A33.787,33.787,0,0,0-891.094,224.123Z" transform="translate(911.523 -197.654)" fill="#4dcedf"/>
                <path id="Trazado_191532" data-name="Trazado 191532" d="M-848.546,240.488a32.878,32.878,0,0,0,2.364-10.444,17.142,17.142,0,0,0-2.369-9.452c-.436-.707-2.25-3.6-3.242-3.364-1.771.42.555,3.5.96,4.268,1.53,2.9,3.1,5.977,3,9.258-.075,2.529-1.139,4.9-1.989,7.287a15.425,15.425,0,0,0-1.063,5.177c-.131.194-.25.395-.392.581a7.77,7.77,0,0,1-4.741,3.125q1.095-3.378,2.188-6.754a2.873,2.873,0,0,0-.113-2.462,2.033,2.033,0,0,0,.23-.983,4.731,4.731,0,0,0-.64-1.733c-1.01-2.175-.667-4.7-.422-7.087a22.344,22.344,0,0,0-.446-8.8,9.486,9.486,0,0,0-5.664-6.392l.72.776-.951-.691q.884,1.839,1.769,3.679l-.652.93a2.1,2.1,0,0,1,2.667,1.234,6.5,6.5,0,0,1,.221,3.25,65.005,65.005,0,0,0,.89,18.305,8.979,8.979,0,0,1-1.086,4.026,3.992,3.992,0,0,1-3.775,2.046,3.968,3.968,0,0,0-1.455-4.022c-1.521,2.112-.625,5.4-.393,7.8a85.427,85.427,0,0,0,1.752,10.838,34.961,34.961,0,0,1,1.926-9.085l2.462,8.94a5.3,5.3,0,0,1,.466-2.434,1.817,1.817,0,0,1,2.083-.966,2.557,2.557,0,0,1,1.247,1.552,27.774,27.774,0,0,1,1.518,16.326,2.3,2.3,0,0,0,2.916-1.131,6.691,6.691,0,0,0,.536-3.392Q-848.283,255.589-848.546,240.488Z" transform="translate(899.715 -201.348)" fill="#4dcedf"/>
                <path id="Trazado_191533" data-name="Trazado 191533" d="M-877.642,253.563c-.484.849,1.493,4.215,1.821,5.014l4.99,12.182a57.516,57.516,0,0,0-3.868-15.6C-875.039,254.316-876.682,251.88-877.642,253.563Z" transform="translate(903.228 -211.23)" fill="#4dcedf"/>
                <path id="Trazado_191534" data-name="Trazado 191534" d="M-875.614,222.339c-.283.429-.689.958-1.181.807-.458-.14-.536-.746-.528-1.226q.069-4.238.137-8.475c-2.281,1.634-1.988,3.777-2.148,6.216-.092,1.412.316,8.146-.647,8.972a25.251,25.251,0,0,0,5.615-6.833C-874.762,221.472-875.331,221.911-875.614,222.339Z" transform="translate(903.784 -201.529)" fill="#4dcedf"/>
                <g id="Grupo_131716" data-name="Grupo 131716" opacity="0.5">
                  <path id="Trazado_191535" data-name="Trazado 191535" d="M-902.728,269.513c.091-.165.17-.336.247-.507A.575.575,0,0,0-902.728,269.513Z" transform="translate(909.365 -215.161)" fill="#4dcedf"/>
                  <path id="Trazado_191536" data-name="Trazado 191536" d="M-902.273,250.408c-.148-1.86.117-3.731.039-5.6a7.334,7.334,0,0,0-1.923-5.107c-1.947-1.835-7.279-.9-5.492,2.587a2.238,2.238,0,0,0,2.769,1.032,2.017,2.017,0,0,0,.94-2.726,9.667,9.667,0,0,1-.457,10.992,8.784,8.784,0,0,1,2.13,10,1.094,1.094,0,0,1,1.241-.012,3.825,3.825,0,0,1,.963,1.705c.257.61.756,1.244,1.416,1.2a11.439,11.439,0,0,0,.017-7.077A42.844,42.844,0,0,1-902.273,250.408Z" transform="translate(911.152 -207.747)" fill="#4dcedf"/>
                  <path id="Trazado_191537" data-name="Trazado 191537" d="M-875.045,207.325a7.483,7.483,0,0,0-3.569-1.5Z" transform="translate(903.448 -199.658)" fill="#4dcedf"/>
                  <path id="Trazado_191538" data-name="Trazado 191538" d="M-865.012,231.426c-.286-1.283-.878-2.477-1.232-3.744-.823-2.951-.307-6.1-.684-9.143a15.776,15.776,0,0,0-5.606-10.155l-1.352-.57a7.611,7.611,0,0,1,2.721,3.954,71.246,71.246,0,0,1,1.835,11.091,149.557,149.557,0,0,0,3.138,17.063C-865.292,237.169-864.383,234.253-865.012,231.426Z" transform="translate(902.288 -200.147)" fill="#4dcedf"/>
                  <path id="Trazado_191539" data-name="Trazado 191539" d="M-882.248,219.087a4.716,4.716,0,0,0,1.593-3.1,12.623,12.623,0,0,0-.085-3.185,1.037,1.037,0,0,1-1.187.715,2.659,2.659,0,0,1-1.427-1.3l-.276.949-.111-.514-.358.457c.534,1.515,1.05,3.272.224,4.65a5.507,5.507,0,0,1-1.7,1.573A2.876,2.876,0,0,0-882.248,219.087Z" transform="translate(905.156 -201.228)" fill="#4dcedf"/>
                  <path id="Trazado_191540" data-name="Trazado 191540" d="M-879.226,212.493c.015.125.029.251.044.376A.571.571,0,0,0-879.226,212.493Z" transform="translate(903.598 -201.295)" fill="#4dcedf"/>
                  <path id="Trazado_191541" data-name="Trazado 191541" d="M-891.094,224.123c-2.647-5.2-5.295-10.4-8.2-15.454a49.829,49.829,0,0,0-5.77-8.425c-1.005-1.128-3.894-3.741-5.485-2.02-1.06,1.148.335,3.235-.971,4.477.3.017,1.774-.143,1.93.049a22.973,22.973,0,0,1,5.066,14.636c1.065-.835,2.523.324,3.354,1.392a246.724,246.724,0,0,1,14.314,20.452c-.857-3.117-.878-6.424-1.8-9.522A33.787,33.787,0,0,0-891.094,224.123Z" transform="translate(911.523 -197.654)" fill="#4dcedf"/>
                  <path id="Trazado_191542" data-name="Trazado 191542" d="M-848.546,240.488a32.878,32.878,0,0,0,2.364-10.444,17.142,17.142,0,0,0-2.369-9.452c-.436-.707-2.25-3.6-3.242-3.364-1.771.42.555,3.5.96,4.268,1.53,2.9,3.1,5.977,3,9.258-.075,2.529-1.139,4.9-1.989,7.287a15.425,15.425,0,0,0-1.063,5.177c-.131.194-.25.395-.392.581a7.77,7.77,0,0,1-4.741,3.125q1.095-3.378,2.188-6.754a2.873,2.873,0,0,0-.113-2.462,2.033,2.033,0,0,0,.23-.983,4.731,4.731,0,0,0-.64-1.733c-1.01-2.175-.667-4.7-.422-7.087a22.344,22.344,0,0,0-.446-8.8,9.486,9.486,0,0,0-5.664-6.392l.72.776-.951-.691q.884,1.839,1.769,3.679l-.652.93a2.1,2.1,0,0,1,2.667,1.234,6.5,6.5,0,0,1,.221,3.25,65.005,65.005,0,0,0,.89,18.305,8.979,8.979,0,0,1-1.086,4.026,3.992,3.992,0,0,1-3.775,2.046,3.968,3.968,0,0,0-1.455-4.022c-1.521,2.112-.625,5.4-.393,7.8a85.427,85.427,0,0,0,1.752,10.838,34.961,34.961,0,0,1,1.926-9.085l2.462,8.94a5.3,5.3,0,0,1,.466-2.434,1.817,1.817,0,0,1,2.083-.966,2.557,2.557,0,0,1,1.247,1.552,27.774,27.774,0,0,1,1.518,16.326,2.3,2.3,0,0,0,2.916-1.131,6.691,6.691,0,0,0,.536-3.392Q-848.283,255.589-848.546,240.488Z" transform="translate(899.715 -201.348)" fill="#4dcedf"/>
                  <path id="Trazado_191543" data-name="Trazado 191543" d="M-877.642,253.563c-.484.849,1.493,4.215,1.821,5.014l4.99,12.182a57.516,57.516,0,0,0-3.868-15.6C-875.039,254.316-876.682,251.88-877.642,253.563Z" transform="translate(903.228 -211.23)" fill="#4dcedf"/>
                  <path id="Trazado_191544" data-name="Trazado 191544" d="M-875.614,222.339c-.283.429-.689.958-1.181.807-.458-.14-.536-.746-.528-1.226q.069-4.238.137-8.475c-2.281,1.634-1.988,3.777-2.148,6.216-.092,1.412.316,8.146-.647,8.972a25.251,25.251,0,0,0,5.615-6.833C-874.762,221.472-875.331,221.911-875.614,222.339Z" transform="translate(903.784 -201.529)" fill="#4dcedf"/>
                </g>
              </g>
            </g>
          </g>
          <g id="Grupo_131723" data-name="Grupo 131723" transform="translate(1.198 3.601)">
            <g id="Grupo_131722" data-name="Grupo 131722">
              <g id="Grupo_131721" data-name="Grupo 131721" transform="translate(7.621 4.524)">
                <path id="Trazado_191546" data-name="Trazado 191546" d="M-866.538,212.984a59.313,59.313,0,0,1,2.059,15.109,8.052,8.052,0,0,0,.269,2.533,2.5,2.5,0,0,0,1.731,1.724" transform="translate(894.633 -211.075)" fill="none"/>
                <path id="Trazado_191547" data-name="Trazado 191547" d="M-852.394,219.554c2.24,4.726-.053,15.278.116,16.021a2.655,2.655,0,0,0,1.272,1.813" transform="translate(891.163 -212.687)" fill="none"/>
                <g id="Grupo_131720" data-name="Grupo 131720">
                  <path id="Trazado_191548" data-name="Trazado 191548" d="M-879.4,211.717c-.263,1.5-.484,3.243-.747,4.745a8.76,8.76,0,0,1-3.025-6.008" transform="translate(898.715 -210.454)" fill="none"/>
                  <path id="Trazado_191549" data-name="Trazado 191549" d="M-897.864,265.485l-1.629.717" transform="translate(902.719 -223.957)" fill="none"/>
                  <path id="Trazado_191550" data-name="Trazado 191550" d="M-896.848,267.216a9.442,9.442,0,0,0-.017,3.818" transform="translate(902.12 -224.382)" fill="none"/>
                  <path id="Trazado_191551" data-name="Trazado 191551" d="M-884.146,248.528q.9,1.625,1.807,3.252" transform="translate(898.953 -219.796)" fill="none"/>
                  <path id="Trazado_191552" data-name="Trazado 191552" d="M-879.549,231.932l1.8-2.538" transform="translate(897.825 -215.101)" fill="none"/>
                  <path id="Trazado_191553" data-name="Trazado 191553" d="M-846.249,248.528q-.271.994-.542,1.988" transform="translate(889.788 -219.796)" fill="none"/>
                  <path id="Trazado_191554" data-name="Trazado 191554" d="M-851.894,239.672l1.589-5.071" transform="translate(891.04 -216.379)" fill="none"/>
                  <path id="Trazado_191555" data-name="Trazado 191555" d="M-844.856,229.328a2.035,2.035,0,0,1,2.746.854" transform="translate(889.313 -215.026)" fill="none"/>
                  <path id="Trazado_191556" data-name="Trazado 191556" d="M-859.229,217.877a3.907,3.907,0,0,1,3.636.832" transform="translate(892.84 -212.24)" fill="none"/>
                  <path id="Trazado_191557" data-name="Trazado 191557" d="M-903.768,224.009a5.531,5.531,0,0,1,4.683-1.764" transform="translate(903.768 -213.338)" fill="none"/>
                </g>
              </g>
              <path id="Trazado_191558" data-name="Trazado 191558" d="M-912.79,205.419a5.052,5.052,0,0,1,3.8-.889" transform="translate(913.603 -204.459)" fill="none"/>
              <path id="Trazado_191559" data-name="Trazado 191559" d="M-911.654,250.48a9.675,9.675,0,0,0-2.213,2.488Z" transform="translate(913.867 -215.751)" fill="#fff"/>
            </g>
            <path id="Trazado_191560" data-name="Trazado 191560" d="M-909.974,244.872c1.193-.852,3.094,1.055,4.191.081a1.758,1.758,0,0,0,.368-1.635,5.5,5.5,0,0,1-.218-1.729" transform="translate(912.912 -213.569)" fill="none"/>
          </g>
        </g>
      </g>
      <path id="Trazado_191561" data-name="Trazado 191561" d="M-865.384,239.005a13.646,13.646,0,0,1,.828,9.672" transform="translate(903.169 -209.334)" fill="none"/>
      <path id="Trazado_191562" data-name="Trazado 191562" d="M-854.015,245.172a6.245,6.245,0,0,1-.757,4.147" transform="translate(900.565 -210.847)" fill="none"/>
    </g>
    <g id="Grupo_131735" data-name="Grupo 131735" transform="translate(137.298 153.819)">
      <g id="Grupo_131734" data-name="Grupo 131734">
        <g id="Grupo_131733" data-name="Grupo 131733">
          <g id="Grupo_131732" data-name="Grupo 131732">
            <g id="Grupo_131727" data-name="Grupo 131727">
              <path id="Trazado_191563" data-name="Trazado 191563" d="M-880.693,306.687l-7.881-24.79c-7.4-7.614-20.979-14.583-22.158-25.129-1.518-13.541-3.6-12.993-3.6-16.36a40.7,40.7,0,0,0,2.083-5.128,27.751,27.751,0,0,0,.759-4.086,2.748,2.748,0,0,1,2.9-2.35,4.643,4.643,0,0,1,2.633,1.026,7.057,7.057,0,0,1,2.236,4.764,20.712,20.712,0,0,1-.4,5.37,34.891,34.891,0,0,1,2.891,9.189c.638-2.536,1.082-5.079,1.72-7.614.161-.1.089-.291.242-.4-1.3-2.357-.331-2.293-2.939-7.509-4.384-8.785-9.189-17.215-12.968-28.367a6.493,6.493,0,0,1-.145-3.2c.88-3.319,4.271-2.794,5.854-1a6.155,6.155,0,0,1,1.018,1.582,87.261,87.261,0,0,0,8.131,13.413l9.028,11.95s2.7-2.527,3.068-3.609l.008-.008c.355-1.082,0-9.577,0-9.577s-.541,1.631-1.986,1.631c-1.042,0-3.109.743-4.724-.847a3.936,3.936,0,0,1-.46-4.918l3.375-5.257a5.646,5.646,0,0,1,5.781-1.09,27.617,27.617,0,0,1,6.864,4.158,13.458,13.458,0,0,1,5.781.719c2.714,1.09,5.709,4.538,5.709,4.538s3.077-.016,4.522.888c.363.226,5.523,7.2,4.215,12.977-.776,3.448-1.066,8.4-1.429,9.747l-.089,33.357,6.258,22.118" transform="translate(915.455 -199.687)" fill="none" stroke="#1a2e35" stroke-miterlimit="10" stroke-width="1"/>
            </g>
            <g id="Grupo_131731" data-name="Grupo 131731" transform="translate(1.198 3.601)">
              <g id="Grupo_131730" data-name="Grupo 131730">
                <g id="Grupo_131729" data-name="Grupo 131729" transform="translate(7.621 4.524)">
                  <path id="Trazado_191564" data-name="Trazado 191564" d="M-866.538,212.984a59.313,59.313,0,0,1,2.059,15.109,8.052,8.052,0,0,0,.269,2.533,2.5,2.5,0,0,0,1.731,1.724" transform="translate(894.633 -211.075)" fill="none" stroke="#1a2e35" stroke-miterlimit="10" stroke-width="1"/>
                  <path id="Trazado_191565" data-name="Trazado 191565" d="M-852.394,219.554c2.24,4.726-.053,15.278.116,16.021a2.655,2.655,0,0,0,1.272,1.813" transform="translate(891.163 -212.687)" fill="none" stroke="#1a2e35" stroke-miterlimit="10" stroke-width="1"/>
                  <g id="Grupo_131728" data-name="Grupo 131728">
                    <path id="Trazado_191566" data-name="Trazado 191566" d="M-879.4,211.717c-.263,1.5-.484,3.243-.747,4.745a8.76,8.76,0,0,1-3.025-6.008" transform="translate(898.715 -210.454)" fill="none" stroke="#1a2e35" stroke-miterlimit="10" stroke-width="1"/>
                    <path id="Trazado_191567" data-name="Trazado 191567" d="M-897.864,265.485l-1.629.717" transform="translate(902.719 -223.957)" fill="none" stroke="#1a2e35" stroke-miterlimit="10" stroke-width="1"/>
                    <path id="Trazado_191568" data-name="Trazado 191568" d="M-896.848,267.216a9.442,9.442,0,0,0-.017,3.818" transform="translate(902.12 -224.382)" fill="none" stroke="#1a2e35" stroke-miterlimit="10" stroke-width="1"/>
                    <path id="Trazado_191569" data-name="Trazado 191569" d="M-884.146,248.528q.9,1.625,1.807,3.252" transform="translate(898.953 -219.796)" fill="none" stroke="#1a2e35" stroke-miterlimit="10" stroke-width="1"/>
                    <path id="Trazado_191570" data-name="Trazado 191570" d="M-879.549,231.932l1.8-2.538" transform="translate(897.825 -215.101)" fill="none" stroke="#1a2e35" stroke-miterlimit="10" stroke-width="1"/>
                    <path id="Trazado_191571" data-name="Trazado 191571" d="M-846.249,248.528q-.271.994-.542,1.988" transform="translate(889.788 -219.796)" fill="none" stroke="#1a2e35" stroke-miterlimit="10" stroke-width="1"/>
                    <path id="Trazado_191572" data-name="Trazado 191572" d="M-851.894,239.672l1.589-5.071" transform="translate(891.04 -216.379)" fill="none" stroke="#1a2e35" stroke-miterlimit="10" stroke-width="1"/>
                    <path id="Trazado_191573" data-name="Trazado 191573" d="M-844.856,229.328a2.035,2.035,0,0,1,2.746.854" transform="translate(889.313 -215.026)" fill="none" stroke="#1a2e35" stroke-miterlimit="10" stroke-width="1"/>
                    <path id="Trazado_191574" data-name="Trazado 191574" d="M-859.229,217.877a3.907,3.907,0,0,1,3.636.832" transform="translate(892.84 -212.24)" fill="none" stroke="#1a2e35" stroke-miterlimit="10" stroke-width="1"/>
                    <path id="Trazado_191575" data-name="Trazado 191575" d="M-903.768,224.009a5.531,5.531,0,0,1,4.683-1.764" transform="translate(903.768 -213.338)" fill="none" stroke="#1a2e35" stroke-miterlimit="10" stroke-width="1"/>
                  </g>
                </g>
                <path id="Trazado_191576" data-name="Trazado 191576" d="M-912.79,205.419a5.052,5.052,0,0,1,3.8-.889" transform="translate(913.603 -204.459)" fill="none" stroke="#1a2e35" stroke-miterlimit="10" stroke-width="1"/>
                <path id="Trazado_191577" data-name="Trazado 191577" d="M-911.654,250.48a9.675,9.675,0,0,0-2.213,2.488" transform="translate(913.867 -215.751)" fill="none" stroke="#1a2e35" stroke-miterlimit="10" stroke-width="1"/>
              </g>
              <path id="Trazado_191578" data-name="Trazado 191578" d="M-909.974,244.872c1.193-.852,3.094,1.055,4.191.081a1.758,1.758,0,0,0,.368-1.635,5.5,5.5,0,0,1-.218-1.729" transform="translate(912.912 -213.569)" fill="none" stroke="#1a2e35" stroke-miterlimit="10" stroke-width="1"/>
            </g>
          </g>
        </g>
        <path id="Trazado_191579" data-name="Trazado 191579" d="M-865.384,239.005a13.646,13.646,0,0,1,.828,9.672" transform="translate(903.169 -209.334)" fill="none" stroke="#1a2e35" stroke-miterlimit="10" stroke-width="1"/>
        <path id="Trazado_191580" data-name="Trazado 191580" d="M-854.015,245.172a6.245,6.245,0,0,1-.757,4.147" transform="translate(900.565 -210.847)" fill="none" stroke="#1a2e35" stroke-miterlimit="10" stroke-width="1"/>
      </g>
    </g>
    <path id="Trazado_191581" data-name="Trazado 191581" d="M-968.024,246.563a4.575,4.575,0,0,1-.068,1.57c-.491,2.271-1.909,8.89-2.43,12.512-.619,4.422-7.765,18.111-7.765,18.111s-6.58,8.18-9.931,12.436c-1.645,2.09-4.249,10.55-6.46,18.609q-4.188-1.268-8.3-2.732c-2.271-.807-4.543-1.66-6.784-2.543a111,111,0,0,1-11.795-5.75c1.253-4.55,2.09-8.052,2.075-8.256-.038-.475,2.687-5.72,2.687-5.72l-2.377-31.272-1.4-4.762a35.761,35.761,0,0,1-1.381-7.531,36.475,36.475,0,0,1,.974-11.569l4.1-6.082,1.917-.143,5.931-8.286s3.207-.966,4.03,1.449-2.671,6.928-2.671,6.928l-1.2,7.448,2.852,6.973,1.479.543s.5-12.278.159-14.73l3.154-11.206a53.217,53.217,0,0,0,2.46-5.63,3.181,3.181,0,0,1,5.886-.445,4.849,4.849,0,0,1,.3,3.977c-.792,2.3-1.449,4.113-1.449,4.113s-.717,9.493-.943,9.757c-.226.249,1.4,14.134,1.4,14.134l1.238.551.438-13.244,2.573-12.444s-.211-5.984,4.007-5.26a3.259,3.259,0,0,1,3.1,1.932c1.124,2.151.053,16.474.053,16.474l1.041,14.806,1.668,11.418,1.962-7.826s.113-11.214,7.192-12.172c0,0,2.105-.377,2.536,1.087s-1.049,4.452-.838,7.32C-968.455,243.122-968.168,245.394-968.024,246.563Z" transform="translate(1078.911 -47.092)" opacity="0.2"/>
    <g id="Grupo_131742" data-name="Grupo 131742" transform="translate(49.805 154.465)">
      <path id="Trazado_191582" data-name="Trazado 191582" d="M-972.465,231.687c-.323-1.493-2.447-1.275-2.447-1.275-7.13.42-8.091,11.6-8.091,11.6l-2.551,7.655-.8-11.515.081-14.842s2.156-14.2,1.2-16.432a3.247,3.247,0,0,0-2.948-2.156c-4.15-1.042-4.393,4.941-4.393,4.941l-3.5,12.21-1.437,13.17-1.2-.638s-.565-13.97-.323-14.2,1.68-9.658,1.68-9.658.791-1.752,1.752-3.989a4.836,4.836,0,0,0,0-3.989c-1.68-3.432-5.184-1.833-5.9,0a53.268,53.268,0,0,1-2.875,5.427l-4,10.933c.154,2.471-1.268,14.68-1.268,14.68l-1.437-.654-2.318-7.171,1.76-7.34s3.827-4.223,3.19-6.7-3.908-1.752-3.908-1.752l-6.54,7.816h-1.922l-4.546,5.749a36.518,36.518,0,0,0-1.85,11.467,36.2,36.2,0,0,0,.807,7.615l1.042,4.853v31.363s-3.109,5.023-3.109,5.5c0,.218-1.284,4.183-3.077,9.125a154.337,154.337,0,0,0,19.34,10.045c2.244.888,4.513,1.736,6.791,2.544,2.866-8.051,6.217-16.667,8.067-18.677,3.666-3.989,10.844-11.652,10.844-11.652s8.164-13.106,9.117-17.466c.792-3.578,2.705-10.07,3.367-12.3a4.405,4.405,0,0,0,.186-1.558c-.057-1.179-.169-3.465-.169-5.483C-973.854,236.048-972.15,233.173-972.465,231.687Z" transform="translate(1031.396 -200.543)" fill="#ffcfa6"/>
      <g id="Grupo_131741" data-name="Grupo 131741" clip-path="url(#clip-path-2)">
        <path id="Trazado_191583" data-name="Trazado 191583" d="M-1020.477,227.567c1.218-1.52,3.725-2.1,5.141-.767a5.382,5.382,0,0,1,1.293,3.029,6.45,6.45,0,0,0,1.139,3.108,2.086,2.086,0,0,0,2.947.366q.152,2.479.3,4.958a19.623,19.623,0,0,0,2.6-10.139,20.344,20.344,0,0,1,.1-5.131c.4-1.67,1.694-3.295,3.409-3.373,1.9-.087,3.406,1.766,3.772,3.634s-.063,3.788-.179,5.688a17.388,17.388,0,0,0,1.634,8.462q.6-1.213,1.2-2.428l1.08,4.871q.469-5.36.936-10.72a7.717,7.717,0,0,1,.656-2.947,2.626,2.626,0,0,1,2.422-1.525c1.36.135,2.142,1.585,2.6,2.873,3.4,9.616,2,20.18.558,30.276.946.168,1.74-.781,1.976-1.712a22.61,22.61,0,0,1,.5-2.828c.353-.893,1.447-1.628,2.259-1.118,1.189.749.359,3.068,1.608,3.708a17.236,17.236,0,0,1,3.416-8.25c.836-1.087,2.093-2.164,3.421-1.819a2.682,2.682,0,0,1,1.783,2.282c.146,1.013,1.607-3.17,1.356-2.178.571-5.821-.572-6.435,0-12.256.1-1.051,1.8-2.873,1.08-3.643-.687-.732-2.739-1.805-3.651-1.383s-3.877,1.9-4.467,2.71c-3.708,5.119-3.455,12.534-4.608,18.75-.984-9.478-1.964-19.113-.226-28.482.958-5.168,2.725-10.551,1.056-15.536-.761-2.275-2.783-4.551-5.143-4.119-1.9.349-3.056,2.268-3.83,4.043-2.6,5.963-3.752,12.436-4.886,18.841l4.254-19.336a13.079,13.079,0,0,0,.435-5.091,4.457,4.457,0,0,0-3.136-3.7c-1.665-.35-3.32.635-4.575,1.784-4.486,4.1-6.155,10.364-7.617,16.265a11.673,11.673,0,0,0,.874-4.756,3.99,3.99,0,0,0-2.773-3.615c-2.055-.451-3.922,1.384-4.824,3.283s-1.348,4.086-2.785,5.621a3.432,3.432,0,0,0-4.336-.24,8.428,8.428,0,0,0-2.755,3.774,35.111,35.111,0,0,0-2.918,16.965,6.206,6.206,0,0,1,6.2-3.527l-.451-3.858" transform="translate(1030.436 -199.58)" fill="#4dcedf" opacity="0.31"/>
        <g id="Grupo_131740" data-name="Grupo 131740" transform="translate(6.518 37.978)" opacity="0.31">
          <g id="Grupo_131736" data-name="Grupo 131736" transform="translate(8.218 1.111)">
            <path id="Trazado_191584" data-name="Trazado 191584" d="M-1011.678,253.518q-.1,1.429-.191,2.857a1.373,1.373,0,0,1,2.09-.53,3.033,3.033,0,0,1,.475-1.765c.239-.574.265-1.389-.294-1.661-.663-.324-1.32.438-1.669,1.088q-.043-.354-.088-.709Z" transform="translate(1011.869 -252.342)" fill="#4dcedf"/>
          </g>
          <g id="Grupo_131737" data-name="Grupo 131737" transform="translate(17.711)">
            <path id="Trazado_191585" data-name="Trazado 191585" d="M-997.766,251.45a6.622,6.622,0,0,0-1.523,3.154,3.25,3.25,0,0,1,1.1-.809,1.107,1.107,0,0,1,1.255.28c.17.229.231.561.485.693a.6.6,0,0,0,.737-.272,1.749,1.749,0,0,0,.192-.832,4.649,4.649,0,0,0-.092-1.64,1.583,1.583,0,0,0-1.09-1.135.973.973,0,0,0-1.18.829Z" transform="translate(999.289 -250.869)" fill="#4dcedf"/>
          </g>
          <g id="Grupo_131738" data-name="Grupo 131738" transform="translate(28.131 1.491)">
            <path id="Trazado_191586" data-name="Trazado 191586" d="M-983.9,254.536a8.517,8.517,0,0,0-1.582,3.8,3.305,3.305,0,0,0,1.466-.788,2.927,2.927,0,0,1,1.487-.737,1.048,1.048,0,0,1,1.173.922,7.087,7.087,0,0,1,.062-1.918,3.991,3.991,0,0,0-.14-1.9,1.593,1.593,0,0,0-1.454-1.067,1.012,1.012,0,0,0-.892,1.352Z" transform="translate(985.481 -252.845)" fill="#4dcedf"/>
          </g>
          <g id="Grupo_131739" data-name="Grupo 131739" transform="translate(0 6.889)">
            <path id="Trazado_191587" data-name="Trazado 191587" d="M-1021.881,260.076a7.507,7.507,0,0,0-.878,3.551,1.243,1.243,0,0,1,1.1-1.107,2.524,2.524,0,0,1,1.612.429,4.374,4.374,0,0,0,.106-1.73,1.49,1.49,0,0,0-1.107-1.212c-.574-.093-1.21.462-1.052,1.022l-.178-.435Z" transform="translate(1022.759 -259.997)" fill="#4dcedf"/>
          </g>
        </g>
      </g>
    </g>
    <g id="Grupo_131743" data-name="Grupo 131743" transform="translate(49.805 154.465)">
      <path id="Trazado_191589" data-name="Trazado 191589" d="M-1031.4,293.468c1.793-4.942,3.077-8.907,3.077-9.125,0-.476,3.109-5.5,3.109-5.5V247.482l-1.042-4.853a36.2,36.2,0,0,1-.807-7.615,36.522,36.522,0,0,1,1.85-11.467l4.546-5.749h1.922l6.54-7.816s3.271-.719,3.908,1.752-3.19,6.7-3.19,6.7l-1.76,7.34,2.318,7.171,1.437.654s1.422-12.209,1.268-14.68l4-10.933a53.268,53.268,0,0,0,2.875-5.427c.718-1.833,4.223-3.432,5.9,0a4.836,4.836,0,0,1,0,3.989c-.961,2.237-1.752,3.989-1.752,3.989s-1.438,9.416-1.68,9.658.323,14.2.323,14.2l1.2.638,1.437-13.17,3.5-12.209s.242-5.984,4.393-4.942a3.247,3.247,0,0,1,2.948,2.156c.961,2.228-1.2,16.432-1.2,16.432l-.081,14.842.8,11.515,2.551-7.655s.961-11.176,8.091-11.6c0,0,2.124-.218,2.447,1.275s-1.388,4.361-1.388,7.235c0,2.019.112,4.3.169,5.483a4.405,4.405,0,0,1-.186,1.558c-.662,2.228-2.576,8.721-3.367,12.3-.953,4.36-9.117,17.466-9.117,17.466s-7.178,7.663-10.844,11.652c-1.85,2.01-5.2,10.626-8.067,18.677" transform="translate(1031.396 -200.543)" fill="none" stroke="#1a2e35" stroke-miterlimit="10" stroke-width="1"/>
    </g>
    <path id="Trazado_191590" data-name="Trazado 191590" d="M-1002.888,245.915a4.561,4.561,0,0,1-1.072,4.3" transform="translate(1074.469 -57.211)" fill="#fff" stroke="#1a2e35" stroke-miterlimit="10" stroke-width="1"/>
    <path id="Trazado_191591" data-name="Trazado 191591" d="M-1018.666,251.975c1.039-1.605,2.047-3.81,1.768-5.7-.546-3.7-2.233-7.968-1.474-11.634q.729-3.512,1.456-7.026" transform="translate(1078.077 -52.72)" fill="#fff" stroke="#1a2e35" stroke-miterlimit="10" stroke-width="1"/>
    <path id="Trazado_191592" data-name="Trazado 191592" d="M-978.795,213.177a7.371,7.371,0,0,1,3.763.011q.021-.525.043-1.05" transform="translate(1068.294 -48.923)" fill="none" stroke="#1a2e35" stroke-miterlimit="10" stroke-width="1"/>
    <path id="Trazado_191593" data-name="Trazado 191593" d="M-991.926,206.613a2.46,2.46,0,0,0,2.528.173,2.46,2.46,0,0,0,1.281-2.187" transform="translate(1071.516 -47.073)" fill="none" stroke="#1a2e35" stroke-miterlimit="10" stroke-width="1"/>
    <path id="Trazado_191594" data-name="Trazado 191594" d="M-956.916,241.982a4.635,4.635,0,0,0-3.464,4.781l1.85.552" transform="translate(1063.78 -56.246)" fill="none" stroke="#1a2e35" stroke-miterlimit="10" stroke-width="1"/>
    <path id="Trazado_191595" data-name="Trazado 191595" d="M-987.971,243.2c.084,1.265-.071,4.292.014,5.558" transform="translate(1070.548 -56.545)" fill="#fff" stroke="#1a2e35" stroke-miterlimit="10" stroke-width="1"/>
    <path id="Trazado_191596" data-name="Trazado 191596" d="M-986.273,245.529q-.229,3.111-.458,6.221.019-.4.037-.792" transform="translate(1070.241 -57.116)" fill="#fff" stroke="#1a2e35" stroke-miterlimit="10" stroke-width="1"/>
    <path id="Trazado_191597" data-name="Trazado 191597" d="M-971.1,268.7a10.344,10.344,0,0,1-.706,6.836" transform="translate(1066.578 -62.802)" fill="#fff" stroke="#1a2e35" stroke-miterlimit="10" stroke-width="1"/>
    <path id="Trazado_191598" data-name="Trazado 191598" d="M-996.6,254.294c-1.645,1.8-1.4,6.131-.242,8.511" transform="translate(1072.95 -59.267)" fill="none" stroke="#1a2e35" stroke-miterlimit="10" stroke-width="1"/>
    <path id="Trazado_191599" data-name="Trazado 191599" d="M-980.76,258.239a8.465,8.465,0,0,1-2.013,5.534" transform="translate(1069.27 -60.235)" fill="none" stroke="#1a2e35" stroke-miterlimit="10" stroke-width="1"/>
    <path id="Trazado_191600" data-name="Trazado 191600" d="M-1012.122,255.437A7.712,7.712,0,0,0-1011,260.7" transform="translate(1076.492 -59.547)" fill="none" stroke="#1a2e35" stroke-miterlimit="10" stroke-width="1"/>
    <path id="Trazado_191601" data-name="Trazado 191601" d="M-1021.374,262.9a6.4,6.4,0,0,0,1.162,4.03" transform="translate(1078.744 -61.379)" fill="none" stroke="#1a2e35" stroke-miterlimit="10" stroke-width="1"/>
    <path id="Trazado_191602" data-name="Trazado 191602" d="M-1008.657,216.536a2.4,2.4,0,0,1,2.64.423l.933-1.231" transform="translate(1075.621 -49.804)" fill="none" stroke="#1a2e35" stroke-miterlimit="10" stroke-width="1"/>
    <path id="Trazado_191603" data-name="Trazado 191603" d="M-998.4,224a3.125,3.125,0,0,1,3.99.677" transform="translate(1073.103 -51.724)" fill="none" stroke="#1a2e35" stroke-miterlimit="10" stroke-width="1"/>
    <path id="Trazado_191604" data-name="Trazado 191604" d="M-982.37,229a5.047,5.047,0,0,1,4.289.09" transform="translate(1069.171 -52.954)" fill="none" stroke="#1a2e35" stroke-miterlimit="10" stroke-width="1"/>
    <path id="Trazado_191605" data-name="Trazado 191605" d="M-1018.029,236.884a4.1,4.1,0,0,1,3.955-1.962" transform="translate(1077.921 -54.506)" fill="none" stroke="#1a2e35" stroke-miterlimit="10" stroke-width="1"/>
    <path id="Trazado_191606" data-name="Trazado 191606" d="M-1024.734,246.444a2.138,2.138,0,0,1,1.789-2.008" transform="translate(1079.566 -56.848)" fill="none" stroke="#1a2e35" stroke-miterlimit="10" stroke-width="1"/>
    <g id="Grupo_131751" data-name="Grupo 131751" transform="translate(217.998 63.464)">
      <ellipse id="Elipse_4916" data-name="Elipse 4916" cx="31.277" cy="31.277" rx="31.277" ry="31.277" transform="translate(0 9.347)" fill="none" stroke="#1a2e35" stroke-linecap="round" stroke-linejoin="round" stroke-width="1"/>
      <g id="Grupo_131750" data-name="Grupo 131750" transform="translate(8.31)">
        <g id="Grupo_131747" data-name="Grupo 131747" transform="translate(0 12.966)">
          <g id="Grupo_131744" data-name="Grupo 131744" transform="translate(8.968)">
            <path id="Trazado_191607" data-name="Trazado 191607" d="M-736.21,125.611c-6.669,10.938-9.041,9.461-31.789,20.358-11.547,5.532-22.708-12.252-15.158-30.506.368-.89,3.63-5.395,3.63-5.395a17.019,17.019,0,0,1,12.414-12.512,17.027,17.027,0,0,1,16.7,5.63,17.992,17.992,0,0,1,15.983-3.818c.264.77.513,1.524.755,2.264.091.287.189.566.272.853.287.883.558,1.766.807,2.656q.747,2.536,1.389,5.1a10.223,10.223,0,0,0-7.426.445c-1.668.815-3.064,2.158-4.8,2.822s-4.135.287-4.8-1.449c.838,3.486,4.5,2.444,8.01,3.134C-734.78,116.262-733.4,121.007-736.21,125.611Z" transform="translate(785.62 -97.134)" opacity="0.2"/>
          </g>
          <g id="Grupo_131746" data-name="Grupo 131746" transform="translate(0 1.423)">
            <path id="Trazado_191608" data-name="Trazado 191608" d="M-736.356,127.571s5.6-.758,8.259-.361a5.1,5.1,0,0,1,3.221,1.848,1.784,1.784,0,0,1,.386,1l.3,4.375a1.777,1.777,0,0,1-.482,1.356c-1.091,1.136-4.39,3.212-14.152,3.958C-752.552,140.8-736.356,127.571-736.356,127.571Z" transform="translate(784.46 -105.909)" fill="#fff" stroke="#1a2e35" stroke-linecap="round" stroke-linejoin="round" stroke-width="1"/>
            <g id="Grupo_131745" data-name="Grupo 131745">
              <path id="Trazado_191609" data-name="Trazado 191609" d="M-753.49,110.367a20.893,20.893,0,0,1,4.583,13.3c0,5.215-6.039,23.024-21.5,25.192-16.367,2.295-29.525-11.713-26.715-28.569C-795.18,108.636-766.63,94.037-753.49,110.367Z" transform="translate(797.504 -100.017)" fill="#fff" stroke="#1a2e35" stroke-linecap="round" stroke-linejoin="round" stroke-width="1"/>
              <ellipse id="Elipse_4917" data-name="Elipse 4917" cx="23.748" cy="22.478" rx="23.748" ry="22.478" transform="translate(0.267)" fill="#fff"/>
              <ellipse id="Elipse_4918" data-name="Elipse 4918" cx="19.496" cy="18.453" rx="19.496" ry="18.453" transform="translate(4.47 5.202)" fill="#1a2e35"/>
              <path id="Trazado_191610" data-name="Trazado 191610" d="M-749.653,121.5c0-12.414-10.633-22.478-23.748-22.478S-797.15,109.085-797.15,121.5" transform="translate(797.417 -99.021)" fill="none" stroke="#1a2e35" stroke-linecap="round" stroke-linejoin="round" stroke-width="1"/>
              <path id="Trazado_191611" data-name="Trazado 191611" d="M-742.514,144.021a21.755,21.755,0,0,0,6.266-15.214" transform="translate(784.011 -106.329)" fill="none" stroke="#1a2e35" stroke-linecap="round" stroke-linejoin="round" stroke-width="1"/>
              <path id="Trazado_191612" data-name="Trazado 191612" d="M-787.725,150.064a24.375,24.375,0,0,0,16.636,6.437,24.726,24.726,0,0,0,11.023-2.563" transform="translate(795.104 -111.545)" fill="none" stroke="#1a2e35" stroke-linecap="round" stroke-linejoin="round" stroke-width="1"/>
              <path id="Trazado_191613" data-name="Trazado 191613" d="M-792.265,144.754q.467.7.986,1.356" transform="translate(796.218 -110.242)" fill="none" stroke="#1a2e35" stroke-linecap="round" stroke-linejoin="round" stroke-width="1"/>
              <path id="Trazado_191614" data-name="Trazado 191614" d="M-797.15,128.807a21.407,21.407,0,0,0,2.263,9.59" transform="translate(797.417 -106.329)" fill="none" stroke="#1a2e35" stroke-linecap="round" stroke-linejoin="round" stroke-width="1"/>
            </g>
            <path id="Trazado_191615" data-name="Trazado 191615" d="M-723.107,136.5s-4.234-2.959-11.1-.276" transform="translate(781.974 -107.874)" fill="#fff" stroke="#1a2e35" stroke-linecap="round" stroke-linejoin="round" stroke-width="1"/>
            <path id="Trazado_191616" data-name="Trazado 191616" d="M-727.183,139.686a43.609,43.609,0,0,1-8.782,1.379" transform="translate(782.404 -108.999)" fill="#fff" stroke="#1a2e35" stroke-linecap="round" stroke-linejoin="round" stroke-width="1"/>
            <path id="Trazado_191617" data-name="Trazado 191617" d="M-721.755,138.447a4.006,4.006,0,0,1-1.059.545" transform="translate(779.177 -108.695)" fill="#fff" stroke="#1a2e35" stroke-linecap="round" stroke-linejoin="round" stroke-width="1"/>
          </g>
        </g>
        <g id="Grupo_131749" data-name="Grupo 131749" transform="translate(19.602)">
          <g id="Grupo_131748" data-name="Grupo 131748">
            <path id="Trazado_191618" data-name="Trazado 191618" d="M-729.945,98.268c-.083-.287-.181-.566-.272-.853-1.441-4.467-3.3-9.373-5.554-14.549-.415-.958-.853-1.932-1.29-2.913l-.506.045c-2.166.219-4.445.491-6.226,1.721-1.789,1.253-2.845,3.826-1.69,5.675,1.132,1.834,4.1,2.853,3.63,4.943-4.837,2.724-10.738,2.407-16.119,3.781a26.249,26.249,0,0,0-8.988,4.241c-.008,0-.008.008-.015.008a27.7,27.7,0,0,0-2.445,2.053,9.672,9.672,0,0,0-1,1.072c-.008.008-.008.008-.008.015a3.688,3.688,0,0,0-.853,1.917c-.189,2.015,1.645,3.388,3.6,4.264a.44.44,0,0,1-.03.815,11.244,11.244,0,0,0-3.524,2.038c-.008,0-.015.008-.023.015a.875.875,0,0,0,.732,1.494c.091-.015.2-.023.3-.03a5.7,5.7,0,0,1,2.279.272,2.739,2.739,0,0,1,2.045,2.158c.121,1.532-1.622,2.913-3.886,3.086-.551.053-.128.709.679.845a12.05,12.05,0,0,0,4.83-.392c1.894-.453,3.917-1.109,4.988-2.732a3.414,3.414,0,0,0,.453-2.4,2.428,2.428,0,0,0-2.007-2.2,66.02,66.02,0,0,0,10.354-2.075h.008l1.064-.324a9.93,9.93,0,0,0,2.92-1.275,4.065,4.065,0,0,0,1.275-1.4c.785-1.517-.325-3.917-2-3.6,4.867-1.909,10.014-3.026,14.934-4.784C-731.5,98.9-730.714,98.6-729.945,98.268Z" transform="translate(771.528 -79.953)" fill="#e4f2ff"/>
          </g>
        </g>
      </g>
    </g>
    <path id="Trazado_191619" data-name="Trazado 191619" d="M-844.24,4.853l-253.154,1.155,3.829-5.737a9.926,9.926,0,0,1,8.256-4.416h229.073a9.927,9.927,0,0,1,7.732,3.7Z" transform="translate(1097.394 4.146)" fill="#fff" stroke="#1a2e35" stroke-linecap="round" stroke-linejoin="round" stroke-width="1"/>
    <g id="Grupo_131760" data-name="Grupo 131760" transform="translate(0 7.38)">
      <g id="Grupo_131754" data-name="Grupo 131754">
        <rect id="Rectángulo_41364" data-name="Rectángulo 41364" width="65.415" height="65.415" rx="32.707" transform="translate(91.347 39.569)" fill="#757575" stroke="#1a2e35" stroke-linecap="round" stroke-linejoin="round" stroke-width="1"/>
        <path id="Trazado_191620" data-name="Trazado 191620" d="M-960.59,108.73v9.3a5.283,5.283,0,0,0,5.283,5.283h31.9a5.288,5.288,0,0,0,5.283-5.246c.04-4.184.263-9.336.263-9.336Z" transform="translate(1063.827 -30.93)" fill="#999" stroke="#1a2e35" stroke-linecap="round" stroke-linejoin="round" stroke-width="1"/>
        <g id="Grupo_131753" data-name="Grupo 131753">
          <g id="Grupo_131752" data-name="Grupo 131752">
            <path id="Trazado_191621" data-name="Trazado 191621" d="M-877.413,86.541h-186.55a4.78,4.78,0,0,1-4.453-3.044L-1097.19,9.649a2.946,2.946,0,0,1,2.745-4.016h247.514a2.946,2.946,0,0,1,2.745,4.016L-872.96,83.5A4.78,4.78,0,0,1-877.413,86.541Z" transform="translate(1097.394 -5.633)" fill="#bfbfbf" stroke="#1a2e35" stroke-linecap="round" stroke-linejoin="round" stroke-width="1"/>
            <path id="Trazado_191622" data-name="Trazado 191622" d="M-874.245,81.625h-189.767l-26.113-69.793h241.869Z" transform="translate(1095.61 -7.154)" fill="#1a2e35"/>
          </g>
        </g>
      </g>
      <rect id="Rectángulo_41365" data-name="Rectángulo 41365" width="42.306" height="2.896" transform="translate(103.44 80.807)" fill="#1a2e35"/>
      <g id="Grupo_131758" data-name="Grupo 131758" transform="translate(38.967 8.936)">
        <g id="Grupo_131756" data-name="Grupo 131756" transform="translate(0 0)">
          <path id="Trazado_191623" data-name="Trazado 191623" d="M-891.08,80.012h-134c-.736,0-1.438-.334-1.568-.749l-19.06-60.558c-.214-.679.38-1.232,1.329-1.232h172.6c.948,0,1.543.552,1.33,1.232l-19.061,60.558C-889.641,79.678-890.344,80.012-891.08,80.012Z" transform="translate(1045.757 -17.474)" fill="#4dcedf"/>
          <path id="Trazado_191624" data-name="Trazado 191624" d="M-889.958,81.227h-133.017l-16.2-53.21H-873.76Z" transform="translate(1044.141 -20.061)" fill="#1a2e35"/>
          <g id="Grupo_131755" data-name="Grupo 131755" transform="translate(11.388 11.251)">
            <path id="Trazado_191625" data-name="Trazado 191625" d="M-1000.9,45.522h-25.182c-.622,0-1.03.336-.912.748a1.383,1.383,0,0,0,1.331.744h25.036c.618,0,1.06-.333.986-.744S-1000.277,45.522-1000.9,45.522Z" transform="translate(1029.77 -35.607)" fill="#fff"/>
            <path id="Trazado_191626" data-name="Trazado 191626" d="M-998.556,51.614h-21.417c-.611,0-1.017.324-.909.722a1.336,1.336,0,0,0,1.295.718h21.295c.607,0,1.042-.321.971-.718S-997.945,51.614-998.556,51.614Z" transform="translate(1028.27 -37.102)" fill="#fff"/>
            <path id="Trazado_191627" data-name="Trazado 191627" d="M-998.408,57.494h-24.3c-.6,0-1,.312-.888.7a1.328,1.328,0,0,0,1.278.693h24.166c.6,0,1.025-.309.956-.693S-997.808,57.494-998.408,57.494Z" transform="translate(1028.937 -38.544)" fill="#fff" opacity="0.5"/>
            <path id="Trazado_191628" data-name="Trazado 191628" d="M-994.11,63.171h-14.274c-.589,0-.993.3-.9.673s.64.669,1.226.669h14.2c.586,0,1.008-.3.942-.669S-993.519,63.171-994.11,63.171Z" transform="translate(1025.423 -39.937)" fill="#fff"/>
            <path id="Trazado_191629" data-name="Trazado 191629" d="M-996.085,68.657h-23.481c-.579,0-.967.292-.864.65a1.277,1.277,0,0,0,1.229.647h23.354c.576,0,.992-.289.928-.647S-995.505,68.657-996.085,68.657Z" transform="translate(1028.159 -41.283)" fill="#fff"/>
            <path id="Trazado_191630" data-name="Trazado 191630" d="M-993.642,73.96H-1012.6c-.571,0-.957.282-.864.629s.627.626,1.195.626h18.861c.567,0,.977-.279.915-.626S-993.072,73.96-993.642,73.96Z" transform="translate(1026.45 -42.585)" fill="#fff"/>
            <path id="Trazado_191631" data-name="Trazado 191631" d="M-992.6,79.091h-18.652c-.561,0-.943.272-.852.608s.614.606,1.172.606h18.555c.558,0,.961-.271.9-.606S-992.035,79.091-992.6,79.091Z" transform="translate(1026.114 -43.844)" fill="#fff"/>
            <path id="Trazado_191632" data-name="Trazado 191632" d="M-992.233,84.056h-20.35c-.552,0-.926.264-.836.589s.607.586,1.156.586h20.246c.549,0,.947-.263.889-.586S-991.681,84.056-992.233,84.056Z" transform="translate(1026.438 -45.062)" fill="#fff"/>
            <path id="Trazado_191633" data-name="Trazado 191633" d="M-989.008,88.864h-13.145c-.543,0-.921.256-.843.571s.577.567,1.118.567H-988.8c.54,0,.934-.254.877-.567S-988.466,88.864-989.008,88.864Z" transform="translate(1023.88 -46.242)" fill="#fff" opacity="0.5"/>
            <path id="Trazado_191634" data-name="Trazado 191634" d="M-999.982,39.2h-18.767c-.633,0-1.057.348-.946.776a1.372,1.372,0,0,0,1.34.771H-999.7c.629,0,1.078-.345,1-.771A1.256,1.256,0,0,0-999.982,39.2Z" transform="translate(1027.979 -34.057)" fill="#fff" opacity="0.5"/>
            <path id="Trazado_191635" data-name="Trazado 191635" d="M-1003.577,32.651h-26.128c-.645,0-1.065.361-.939.805a1.447,1.447,0,0,0,1.39.8h25.972c.641,0,1.1-.358,1.018-.8A1.285,1.285,0,0,0-1003.577,32.651Z" transform="translate(1030.667 -32.449)" fill="#fff"/>
            <path id="Trazado_191636" data-name="Trazado 191636" d="M-990.911,93.523h-21.653c-.535,0-.9.248-.81.553s.589.55,1.121.55h21.545c.532,0,.919-.246.865-.55S-990.377,93.523-990.911,93.523Z" transform="translate(1026.427 -47.385)" fill="#fff"/>
            <path id="Trazado_191637" data-name="Trazado 191637" d="M-980.778,47.138h4.885l-.245-1.864h-4.92Z" transform="translate(1018.494 -35.546)" fill="#fff" opacity="0.5"/>
            <path id="Trazado_191638" data-name="Trazado 191638" d="M-979.872,53.173h4.8l-.236-1.8h-4.833Z" transform="translate(1018.27 -37.043)" fill="#fff" opacity="0.5"/>
            <path id="Trazado_191639" data-name="Trazado 191639" d="M-979,59h4.715l-.228-1.737h-4.748Z" transform="translate(1018.053 -38.488)" fill="#fff" opacity="0.5"/>
            <path id="Trazado_191640" data-name="Trazado 191640" d="M-978.152,64.626h4.635l-.22-1.678H-978.4Z" transform="translate(1017.843 -39.883)" fill="#fff" opacity="0.5"/>
            <path id="Trazado_191641" data-name="Trazado 191641" d="M-977.335,70.063h4.557l-.213-1.622h-4.588Z" transform="translate(1017.641 -41.23)" fill="#fff" opacity="0.5"/>
            <path id="Trazado_191642" data-name="Trazado 191642" d="M-976.545,75.32h4.482l-.206-1.569h-4.512Z" transform="translate(1017.445 -42.533)" fill="#fff" opacity="0.5"/>
            <path id="Trazado_191643" data-name="Trazado 191643" d="M-975.781,80.406h4.409l-.2-1.518h-4.438Z" transform="translate(1017.255 -43.794)" fill="#fff" opacity="0.5"/>
            <path id="Trazado_191644" data-name="Trazado 191644" d="M-975.042,85.33h4.338l-.193-1.47h-4.366Z" transform="translate(1017.072 -45.014)" fill="#fff" opacity="0.5"/>
            <path id="Trazado_191645" data-name="Trazado 191645" d="M-974.326,90.1h4.27l-.187-1.424h-4.3Z" transform="translate(1016.895 -46.195)" fill="#fff" opacity="0.5"/>
            <path id="Trazado_191646" data-name="Trazado 191646" d="M-981.718,40.881h4.974L-977,38.947h-5.011Z" transform="translate(1018.728 -33.994)" fill="#fff" opacity="0.5"/>
            <path id="Trazado_191647" data-name="Trazado 191647" d="M-982.693,34.39h5.067l-.263-2.007h-5.105Z" transform="translate(1018.969 -32.383)" fill="#fff" opacity="0.5"/>
            <path id="Trazado_191648" data-name="Trazado 191648" d="M-973.632,94.718h4.2l-.181-1.38h-4.23Z" transform="translate(1016.723 -47.34)" fill="#fff" opacity="0.5"/>
            <path id="Trazado_191649" data-name="Trazado 191649" d="M-939.458,84.645c-.011-.325.428-.589.979-.589h72.308c.552,0,.922.264.827.589s-.616.586-1.164.586h-71.938C-938.994,85.232-939.447,84.969-939.458,84.645Z" transform="translate(1008.287 -45.062)" fill="#fff"/>
            <path id="Trazado_191650" data-name="Trazado 191650" d="M-854.7,80.305H-894.74c-.558,0-.981-.271-.944-.606s.522-.608,1.083-.608h40.246c.561,0,.936.272.838.608S-854.146,80.305-854.7,80.305Z" transform="translate(997.547 -43.844)" fill="#fff"/>
            <path id="Trazado_191651" data-name="Trazado 191651" d="M-911.4,80.305h-12.455c-.558,0-1.006-.271-1-.606s.464-.608,1.025-.608h12.52c.561,0,.994.272.968.608S-910.841,80.305-911.4,80.305Z" transform="translate(1004.704 -43.844)" fill="#fff" opacity="0.5"/>
            <path id="Trazado_191652" data-name="Trazado 191652" d="M-891.29,75.215h-56.478c-.567,0-1.044-.28-1.066-.626s.424-.629.994-.629h56.778c.57,0,.979.282.915.629S-890.723,75.215-891.29,75.215Z" transform="translate(1010.588 -42.585)" fill="#fff"/>
            <path id="Trazado_191653" data-name="Trazado 191653" d="M-963.383,73.96h4.025c.57,0,1.056.282,1.086.629s-.406.626-.973.626h-4c-.568,0-1.058-.28-1.1-.626S-963.953,73.96-963.383,73.96Z" transform="translate(1014.394 -42.585)" fill="#fff" opacity="0.5"/>
            <path id="Trazado_191654" data-name="Trazado 191654" d="M-879.787,69.307c-.076.358-.605.647-1.182.647h-53.22c-.577,0-1.05-.289-1.056-.647s.458-.65,1.038-.65H-880.7C-880.118,68.657-879.711,68.948-879.787,69.307Z" transform="translate(1007.253 -41.283)" fill="#fff"/>
            <path id="Trazado_191655" data-name="Trazado 191655" d="M-963.954,68.657h15.1c.58,0,1.062.291,1.076.65s-.442.647-1.019.647h-15.022c-.577,0-1.077-.289-1.116-.647S-964.533,68.657-963.954,68.657Z" transform="translate(1014.538 -41.283)" fill="#fff"/>
            <path id="Trazado_191656" data-name="Trazado 191656" d="M-964.544,63.171h58.055c.59,0,1.027.3.977.673s-.565.669-1.152.669H-964.4c-.586,0-1.095-.3-1.136-.669S-965.133,63.171-964.544,63.171Z" transform="translate(1014.687 -39.937)" fill="#fff"/>
            <path id="Trazado_191657" data-name="Trazado 191657" d="M-914.614,58.883c-.6,0-1.067-.31-1.051-.693s.515-.7,1.116-.7h30.634c.6,0,1.032.312.965.7s-.6.693-1.2.693Z" transform="translate(1002.449 -38.544)" fill="#fff"/>
            <path id="Trazado_191658" data-name="Trazado 191658" d="M-965.154,57.494h26.514c.6,0,1.085.312,1.084.7s-.487.693-1.084.693h-26.366c-.6,0-1.115-.31-1.158-.693S-965.754,57.494-965.154,57.494Z" transform="translate(1014.84 -38.544)" fill="#fff"/>
            <path id="Trazado_191659" data-name="Trazado 191659" d="M-857.665,53.053h-72.974c-.607,0-1.1-.321-1.1-.717s.49-.722,1.1-.722h73.39c.611,0,1.012.324.9.722A1.365,1.365,0,0,1-857.665,53.053Z" transform="translate(1006.394 -37.102)" fill="#fff"/>
            <path id="Trazado_191660" data-name="Trazado 191660" d="M-853.086,47.014H-917.3c-.618,0-1.108-.333-1.095-.744s.529-.748,1.151-.748h64.586c.622,0,1.028.336.908.748A1.394,1.394,0,0,1-853.086,47.014Z" transform="translate(1003.119 -35.607)" fill="#fff"/>
            <path id="Trazado_191661" data-name="Trazado 191661" d="M-834.748,40.752h-13.446c-.629,0-1.06-.345-.961-.771a1.336,1.336,0,0,1,1.326-.776H-834.3c.633,0,1.046.348.921.776A1.423,1.423,0,0,1-834.748,40.752Z" transform="translate(986.133 -34.057)" fill="#fff" opacity="0.5"/>
            <path id="Trazado_191662" data-name="Trazado 191662" d="M-876.767,40.752h-49.376c-.629,0-1.137-.345-1.135-.771s.518-.776,1.152-.776h49.668c.633,0,1.075.348.988.776A1.285,1.285,0,0,1-876.767,40.752Z" transform="translate(1005.299 -34.057)" fill="#fff"/>
            <path id="Trazado_191663" data-name="Trazado 191663" d="M-961.78,88.864h45.6c.543,0,.958.256.927.571s-.5.567-1.035.567h-45.366c-.54,0-1.007-.254-1.041-.567S-962.323,88.864-961.78,88.864Z" transform="translate(1013.99 -46.242)" fill="#fff"/>
            <path id="Trazado_191664" data-name="Trazado 191664" d="M-961.279,93.523h70.056c.535,0,.915.248.85.553s-.549.55-1.081.55h-69.708c-.532,0-.991-.246-1.025-.55S-961.814,93.523-961.279,93.523Z" transform="translate(1013.864 -47.385)" fill="#fff"/>
            <path id="Trazado_191665" data-name="Trazado 191665" d="M-875.551,34.256h-35.665c-.641,0-1.144-.358-1.122-.8s.562-.805,1.207-.805h35.879c.645,0,1.1.361,1.014.805A1.293,1.293,0,0,1-875.551,34.256Z" transform="translate(1001.633 -32.449)" fill="#fff"/>
            <path id="Trazado_191666" data-name="Trazado 191666" d="M-935.213,34.256h-32.442c-.641,0-1.2-.358-1.25-.8s.434-.805,1.078-.805h32.638c.644,0,1.161.361,1.152.805S-934.572,34.256-935.213,34.256Z" transform="translate(1015.513 -32.449)" fill="#fff" opacity="0.5"/>
            <path id="Trazado_191667" data-name="Trazado 191667" d="M-889.146,88.864c.543,0,.946.256.9.571s-.52.567-1.06.567h-3.525c-.54,0-.948-.254-.91-.567s.509-.571,1.052-.571Z" transform="translate(997.07 -46.242)" fill="#fff" opacity="0.5"/>
            <path id="Trazado_191668" data-name="Trazado 191668" d="M-947.18,84.645c.016.324-.416.586-.964.586h-4.8c-.549,0-1.015-.263-1.041-.586s.4-.589.952-.589h4.827C-947.657,84.056-947.2,84.32-947.18,84.645Z" transform="translate(1011.852 -45.062)" fill="#fff" opacity="0.5"/>
            <path id="Trazado_191669" data-name="Trazado 191669" d="M-870.735,63.844c-.07.37-.6.669-1.189.669h-5.613c-.586,0-1.015-.3-.957-.669s.585-.673,1.174-.673h5.644C-871.086,63.171-870.665,63.473-870.735,63.844Z" transform="translate(993.33 -39.937)" fill="#fff" opacity="0.5"/>
            <path id="Trazado_191670" data-name="Trazado 191670" d="M-846.862,68.657c.58,0,.971.291.875.65s-.641.647-1.218.647h-4.474c-.577,0-.974-.289-.887-.647s.627-.65,1.207-.65Z" transform="translate(986.97 -41.283)" fill="#fff" opacity="0.5"/>
            <path id="Trazado_191671" data-name="Trazado 191671" d="M-942.36,53.053c-.608,0-1.113-.321-1.129-.717s.465-.722,1.075-.722h4.763c.611,0,1.111.324,1.116.722s-.482.717-1.09.717Z" transform="translate(1009.276 -37.102)" fill="#fff" opacity="0.5"/>
          </g>
        </g>
        <g id="Grupo_131757" data-name="Grupo 131757" transform="translate(8.778 1.687)">
          <path id="Trazado_191672" data-name="Trazado 191672" d="M-1029.451,21.99a1.608,1.608,0,0,1-1.589,2.226,3.35,3.35,0,0,1-2.971-2.226,1.614,1.614,0,0,1,1.572-2.28A3.341,3.341,0,0,1-1029.451,21.99Z" transform="translate(1034.125 -19.71)" fill="#fff"/>
          <path id="Trazado_191673" data-name="Trazado 191673" d="M-1021.305,22.039a1.66,1.66,0,0,1-1.659,2.225,3.216,3.216,0,0,1-2.9-2.225,1.665,1.665,0,0,1,1.645-2.279A3.207,3.207,0,0,1-1021.305,22.039Z" transform="translate(1032.121 -19.722)" fill="#fff"/>
          <path id="Trazado_191674" data-name="Trazado 191674" d="M-1013.066,21.99a1.716,1.716,0,0,1-1.733,2.226,3.084,3.084,0,0,1-2.827-2.226,1.72,1.72,0,0,1,1.72-2.28A3.077,3.077,0,0,1-1013.066,21.99Z" transform="translate(1030.095 -19.71)" fill="#fff"/>
        </g>
      </g>
      <g id="Grupo_131759" data-name="Grupo 131759" transform="translate(5.486 4.335)">
        <path id="Trazado_191675" data-name="Trazado 191675" d="M-1090.125,11.832l20.336,54.355,24.533-54.355Z" transform="translate(1090.125 -11.489)" fill="#fff" opacity="0.1"/>
        <path id="Trazado_191676" data-name="Trazado 191676" d="M-1044.657,81.625l40.7-69.793h42.6l-59.9,69.793Z" transform="translate(1078.969 -11.489)" fill="#fff" opacity="0.1"/>
        <path id="Trazado_191677" data-name="Trazado 191677" d="M-930.569,11.378-994,81.514h9.767l65.709-69.793Z" transform="translate(1066.539 -11.378)" fill="#fff" opacity="0.1"/>
        <path id="Trazado_191678" data-name="Trazado 191678" d="M-893.347,81.625l69.716-69.793h9.838l-71.877,69.793Z" transform="translate(1041.842 -11.489)" fill="#fff" opacity="0.1"/>
      </g>
    </g>
    <g id="Grupo_131798" data-name="Grupo 131798" transform="translate(10.692 100.817)">
      <g id="Grupo_131764" data-name="Grupo 131764" transform="translate(29.105 11.326)">
        <g id="Grupo_131762" data-name="Grupo 131762">
          <g id="Grupo_131761" data-name="Grupo 131761">
            <path id="Trazado_191679" data-name="Trazado 191679" d="M-1024.995,144.459h-15.92a3.743,3.743,0,0,0-3.742,3.742v7.746a3.742,3.742,0,0,0,3.742,3.742h4.161l3.153,7.146,4.445-7.146h4.161a3.742,3.742,0,0,0,3.742-3.742V148.2A3.743,3.743,0,0,0-1024.995,144.459Z" transform="translate(1044.657 -144.459)" fill="#fff" stroke="#1a2e35" stroke-linecap="round" stroke-linejoin="round" stroke-width="1"/>
          </g>
        </g>
        <g id="Grupo_131763" data-name="Grupo 131763" transform="translate(9.489 3.704)">
          <path id="Trazado_191680" data-name="Trazado 191680" d="M-1032.082,150.094a.738.738,0,0,1,.776-.727.722.722,0,0,1,.776.7.744.744,0,0,1-.776.757A.738.738,0,0,1-1032.082,150.094Zm.165,1.58h1.212v5.178h-1.212Z" transform="translate(1032.082 -149.367)" fill="#1a2e35"/>
          <path id="Trazado_191681" data-name="Trazado 191681" d="M-1027.038,151.475v.311h1.425v.97H-1027v4.169h-1.212v-4.169h-.854v-.97h.854v-.33a1.673,1.673,0,0,1,1.852-1.794,1.941,1.941,0,0,1,1.1.281l-.34.911a1.192,1.192,0,0,0-.669-.213C-1026.777,150.642-1027.038,150.922-1027.038,151.475Z" transform="translate(1031.342 -149.439)" fill="#1a2e35"/>
        </g>
      </g>
      <g id="Grupo_131768" data-name="Grupo 131768" transform="translate(77.565 12.411)">
        <g id="Grupo_131766" data-name="Grupo 131766">
          <g id="Grupo_131765" data-name="Grupo 131765">
            <path id="Trazado_191682" data-name="Trazado 191682" d="M-960.779,145.9H-976.7a3.742,3.742,0,0,0-3.742,3.742v7.745a3.742,3.742,0,0,0,3.742,3.742h4.161l3.153,7.146,4.446-7.146h4.16a3.743,3.743,0,0,0,3.743-3.742v-7.745A3.743,3.743,0,0,0-960.779,145.9Z" transform="translate(980.441 -145.897)" fill="#fff" stroke="#1a2e35" stroke-linecap="round" stroke-linejoin="round" stroke-width="1"/>
          </g>
        </g>
        <g id="Grupo_131767" data-name="Grupo 131767" transform="translate(1.814 3.994)">
          <path id="Trazado_191683" data-name="Trazado 191683" d="M-972.763,156.82h-4.062a1.567,1.567,0,0,0,1.677,1.241,1.853,1.853,0,0,0,1.406-.563l.65.747a2.625,2.625,0,0,1-2.084.843,2.628,2.628,0,0,1-2.86-2.656,2.574,2.574,0,0,1,2.676-2.646,2.524,2.524,0,0,1,2.617,2.676C-972.744,156.557-972.753,156.7-972.763,156.82Zm-4.072-.805h2.938a1.41,1.41,0,0,0-1.464-1.261A1.431,1.431,0,0,0-976.835,156.015Z" transform="translate(978.037 -151.826)" fill="#1a2e35"/>
          <path id="Trazado_191684" data-name="Trazado 191684" d="M-969.485,151.189h1.212v7.195h-1.212Z" transform="translate(975.939 -151.189)" fill="#1a2e35"/>
          <path id="Trazado_191685" data-name="Trazado 191685" d="M-966.558,158.507l.466-.921a3.474,3.474,0,0,0,1.8.514c.766,0,1.086-.213,1.086-.572,0-.989-3.2-.058-3.2-2.124,0-.979.882-1.619,2.278-1.619a4.117,4.117,0,0,1,1.939.446l-.466.921a2.836,2.836,0,0,0-1.483-.388c-.737,0-1.086.243-1.086.582,0,1.047,3.2.116,3.2,2.142,0,.97-.893,1.6-2.347,1.6A4.119,4.119,0,0,1-966.558,158.507Z" transform="translate(975.22 -151.826)" fill="#1a2e35"/>
          <path id="Trazado_191686" data-name="Trazado 191686" d="M-954.452,156.82h-4.063a1.567,1.567,0,0,0,1.678,1.241,1.853,1.853,0,0,0,1.406-.563l.65.747a2.625,2.625,0,0,1-2.085.843,2.629,2.629,0,0,1-2.86-2.656,2.574,2.574,0,0,1,2.676-2.646,2.524,2.524,0,0,1,2.618,2.676C-954.433,156.557-954.443,156.7-954.452,156.82Zm-4.072-.805h2.937a1.409,1.409,0,0,0-1.464-1.261A1.43,1.43,0,0,0-958.524,156.015Z" transform="translate(973.544 -151.826)" fill="#1a2e35"/>
        </g>
      </g>
      <g id="Grupo_131772" data-name="Grupo 131772" transform="translate(124.548 11.951)">
        <g id="Grupo_131770" data-name="Grupo 131770">
          <g id="Grupo_131769" data-name="Grupo 131769">
            <path id="Trazado_191687" data-name="Trazado 191687" d="M-898.519,145.288h-15.92a3.742,3.742,0,0,0-3.742,3.742v7.745a3.742,3.742,0,0,0,3.742,3.742h4.161l3.153,7.146,4.445-7.146h4.161a3.742,3.742,0,0,0,3.742-3.742V149.03A3.742,3.742,0,0,0-898.519,145.288Z" transform="translate(918.181 -145.288)" fill="#fff" stroke="#1a2e35" stroke-linecap="round" stroke-linejoin="round" stroke-width="1"/>
          </g>
        </g>
        <g id="Grupo_131771" data-name="Grupo 131771" transform="translate(5.368 3.926)">
          <path id="Trazado_191688" data-name="Trazado 191688" d="M-909.042,152.3v.31h1.426v.97H-909v4.169h-1.213v-4.169h-.852v-.97h.852v-.33a1.674,1.674,0,0,1,1.853-1.794,1.941,1.941,0,0,1,1.1.281l-.34.911a1.192,1.192,0,0,0-.669-.213C-908.78,151.471-909.042,151.752-909.042,152.3Z" transform="translate(911.068 -150.491)" fill="#1a2e35"/>
          <path id="Trazado_191689" data-name="Trazado 191689" d="M-906.086,155.823a2.606,2.606,0,0,1,2.753-2.647,2.6,2.6,0,0,1,2.764,2.647,2.612,2.612,0,0,1-2.764,2.656A2.614,2.614,0,0,1-906.086,155.823Zm4.295,0a1.508,1.508,0,0,0-1.542-1.619,1.506,1.506,0,0,0-1.531,1.619,1.505,1.505,0,0,0,1.531,1.619A1.507,1.507,0,0,0-901.791,155.823Z" transform="translate(909.846 -151.15)" fill="#1a2e35"/>
          <path id="Trazado_191690" data-name="Trazado 191690" d="M-894.244,153.176v1.154a1.574,1.574,0,0,0-.281-.029,1.412,1.412,0,0,0-1.5,1.6v2.511h-1.211v-5.178h1.153v.757A2.038,2.038,0,0,1-894.244,153.176Z" transform="translate(907.675 -151.15)" fill="#1a2e35"/>
        </g>
      </g>
      <g id="Grupo_131776" data-name="Grupo 131776" transform="translate(170.853 11.326)">
        <g id="Grupo_131774" data-name="Grupo 131774">
          <g id="Grupo_131773" data-name="Grupo 131773">
            <path id="Trazado_191691" data-name="Trazado 191691" d="M-837.159,144.459h-15.92a3.742,3.742,0,0,0-3.742,3.742v7.746a3.742,3.742,0,0,0,3.742,3.742h4.161l3.153,7.146,4.445-7.146h4.161a3.742,3.742,0,0,0,3.742-3.742V148.2A3.742,3.742,0,0,0-837.159,144.459Z" transform="translate(856.821 -144.459)" fill="#fff" stroke="#1a2e35" stroke-linecap="round" stroke-linejoin="round" stroke-width="1"/>
          </g>
        </g>
        <g id="Grupo_131775" data-name="Grupo 131775" transform="translate(9.634 5.756)">
          <path id="Trazado_191692" data-name="Trazado 191692" d="M-844.055,152.086h4.47v.97h-4.47Zm0,2.347h4.47v.969h-4.47Z" transform="translate(844.055 -152.086)" fill="#1a2e35"/>
        </g>
      </g>
      <g id="Grupo_131780" data-name="Grupo 131780" transform="translate(53.371 2.362)">
        <g id="Grupo_131778" data-name="Grupo 131778">
          <g id="Grupo_131777" data-name="Grupo 131777">
            <path id="Trazado_191693" data-name="Trazado 191693" d="M-992.839,132.581h-15.92a3.742,3.742,0,0,0-3.742,3.742v7.746a3.742,3.742,0,0,0,3.742,3.742h4.161l3.153,7.146,4.445-7.146h4.16a3.742,3.742,0,0,0,3.742-3.742v-7.746A3.742,3.742,0,0,0-992.839,132.581Z" transform="translate(1012.501 -132.581)" fill="#fff" stroke="#1a2e35" stroke-linecap="round" stroke-linejoin="round" stroke-width="1"/>
          </g>
        </g>
        <g id="Grupo_131779" data-name="Grupo 131779" transform="translate(7.957 3.219)">
          <path id="Trazado_191694" data-name="Trazado 191694" d="M-1001.957,136.847h2.317v.969h-1.106v7.136h1.106v.97h-2.317Z" transform="translate(1001.957 -136.847)" fill="#1a2e35"/>
          <path id="Trazado_191695" data-name="Trazado 191695" d="M-994.908,145.922v-.97h1.1v-7.136h-1.1v-.969h2.308v9.075Z" transform="translate(1000.227 -136.847)" fill="#1a2e35"/>
        </g>
      </g>
      <g id="Grupo_131784" data-name="Grupo 131784" transform="translate(100.703 1.57)">
        <g id="Grupo_131782" data-name="Grupo 131782">
          <g id="Grupo_131781" data-name="Grupo 131781">
            <path id="Trazado_191696" data-name="Trazado 191696" d="M-930.118,131.532h-15.92a3.742,3.742,0,0,0-3.742,3.742v7.746a3.743,3.743,0,0,0,3.742,3.742h4.161l3.153,7.146,4.445-7.146h4.161a3.742,3.742,0,0,0,3.742-3.742v-7.746A3.742,3.742,0,0,0-930.118,131.532Z" transform="translate(949.78 -131.532)" fill="#fff" stroke="#1a2e35" stroke-linecap="round" stroke-linejoin="round" stroke-width="1"/>
          </g>
        </g>
        <g id="Grupo_131783" data-name="Grupo 131783" transform="translate(7.066 3.187)">
          <path id="Trazado_191697" data-name="Trazado 191697" d="M-939.02,140.293c.387.126.571.388.571.989v1.843a.651.651,0,0,0,.718.737h.2v.97h-.485a1.439,1.439,0,0,1-1.647-1.581v-2c0-.32-.165-.466-.436-.466h-.321V139.8h.321c.271,0,.436-.145.436-.465v-2a1.439,1.439,0,0,1,1.647-1.58h.485v.97h-.2a.651.651,0,0,0-.718.737V139.3C-938.449,139.9-938.633,140.167-939.02,140.293Z" transform="translate(940.417 -135.755)" fill="#1a2e35"/>
          <path id="Trazado_191698" data-name="Trazado 191698" d="M-929.711,139.8v.989h-.329c-.262,0-.427.146-.427.466v2a1.447,1.447,0,0,1-1.658,1.581h-.484v-.97h.2a.654.654,0,0,0,.727-.737v-1.843c0-.6.174-.863.562-.989-.389-.126-.562-.388-.562-.989v-1.842a.653.653,0,0,0-.727-.737h-.2v-.97h.484a1.446,1.446,0,0,1,1.658,1.58v2c0,.32.165.465.427.465Z" transform="translate(938.501 -135.755)" fill="#1a2e35"/>
        </g>
      </g>
      <g id="Grupo_131788" data-name="Grupo 131788" transform="translate(147.532)">
        <g id="Grupo_131786" data-name="Grupo 131786">
          <g id="Grupo_131785" data-name="Grupo 131785">
            <path id="Trazado_191699" data-name="Trazado 191699" d="M-868.062,129.451h-15.92a3.742,3.742,0,0,0-3.742,3.742v7.746a3.742,3.742,0,0,0,3.742,3.742h4.161l3.153,7.146,4.445-7.146h4.161a3.742,3.742,0,0,0,3.742-3.742v-7.746A3.742,3.742,0,0,0-868.062,129.451Z" transform="translate(887.724 -129.451)" fill="#fff" stroke="#1a2e35" stroke-linecap="round" stroke-linejoin="round" stroke-width="1"/>
          </g>
        </g>
        <g id="Grupo_131787" data-name="Grupo 131787" transform="translate(11.069 4.929)">
          <path id="Trazado_191700" data-name="Trazado 191700" d="M-873.056,136.786a.777.777,0,0,1,.8-.8.777.777,0,0,1,.8.8.789.789,0,0,1-.8.805A.789.789,0,0,1-873.056,136.786Zm1.591,3.694a2.191,2.191,0,0,1-.223.834l-.494,1.367h-.785l.387-1.484a.746.746,0,0,1-.455-.718.763.763,0,0,1,.785-.8A.764.764,0,0,1-871.465,140.48Z" transform="translate(873.056 -135.982)" fill="#1a2e35"/>
        </g>
      </g>
      <g id="Grupo_131792" data-name="Grupo 131792" transform="translate(101.211 113.036)">
        <g id="Grupo_131790" data-name="Grupo 131790">
          <g id="Grupo_131789" data-name="Grupo 131789">
            <path id="Trazado_191701" data-name="Trazado 191701" d="M-945.365,301.616h15.921a3.743,3.743,0,0,0,3.742-3.742v-7.745a3.743,3.743,0,0,0-3.742-3.742h-4.161l-1.215-7.146-6.383,7.146h-4.161a3.742,3.742,0,0,0-3.742,3.742v7.745A3.742,3.742,0,0,0-945.365,301.616Z" transform="translate(949.107 -279.24)" fill="#fff" stroke="#1a2e35" stroke-linecap="round" stroke-linejoin="round" stroke-width="1"/>
          </g>
        </g>
        <g id="Grupo_131791" data-name="Grupo 131791" transform="translate(4.87 9.65)">
          <path id="Trazado_191702" data-name="Trazado 191702" d="M-938.184,296.363l-3.345,1.251,3.345,1.25v1.009l-4.47-1.736v-1.047l4.47-1.736Z" transform="translate(942.654 -292.844)" fill="#1a2e35"/>
          <path id="Trazado_191703" data-name="Trazado 191703" d="M-933.1,292.027h1.086l-3.2,9.134H-936.3Z" transform="translate(941.095 -292.027)" fill="#1a2e35"/>
          <path id="Trazado_191704" data-name="Trazado 191704" d="M-925.845,297.091v1.047l-4.469,1.736v-1.009l3.344-1.25-3.344-1.251v-1.008Z" transform="translate(939.626 -292.844)" fill="#1a2e35"/>
        </g>
      </g>
      <g id="Grupo_131797" data-name="Grupo 131797" transform="translate(0 56.631)">
        <g id="Grupo_131795" data-name="Grupo 131795">
          <g id="Grupo_131794" data-name="Grupo 131794">
            <g id="Grupo_131793" data-name="Grupo 131793">
              <path id="Trazado_191705" data-name="Trazado 191705" d="M-1079.484,226.871h15.92a3.742,3.742,0,0,0,3.742-3.742v-7.746a3.742,3.742,0,0,0-3.742-3.742h-4.161l.906-7.146-8.5,7.146h-4.161a3.742,3.742,0,0,0-3.742,3.742v7.746A3.742,3.742,0,0,0-1079.484,226.871Z" transform="translate(1083.226 -204.495)" fill="#fff" stroke="#1a2e35" stroke-linecap="round" stroke-linejoin="round" stroke-width="1"/>
            </g>
          </g>
        </g>
        <g id="Grupo_131796" data-name="Grupo 131796" transform="translate(8.462 11.366)">
          <path id="Trazado_191706" data-name="Trazado 191706" d="M-1072.013,225.655a.751.751,0,0,1,.786-.747.739.739,0,0,1,.765.747.747.747,0,0,1-.765.756A.758.758,0,0,1-1072.013,225.655Zm.068-6.1h1.434l-.242,4.537h-.96Z" transform="translate(1072.013 -219.557)" fill="#1a2e35"/>
          <path id="Trazado_191707" data-name="Trazado 191707" d="M-1068.366,221.856h4.47v.97h-4.47Zm0,2.346h4.47v.97h-4.47Z" transform="translate(1071.118 -220.121)" fill="#1a2e35"/>
        </g>
      </g>
    </g>
    <g id="Grupo_131803" data-name="Grupo 131803" transform="translate(233.532 147.463)">
      <g id="Grupo_131801" data-name="Grupo 131801" transform="translate(0.002)">
        <path id="Trazado_191708" data-name="Trazado 191708" d="M-752.115,214.843a54.222,54.222,0,0,1-.735,8.955c-2.188,13.057-9.052,22.585-17.175,22.585a10.656,10.656,0,0,1-2.156-.226c-8.866-1.881-15.746-15.181-15.746-31.314,0-17.418,8.019-23.579,17.9-23.579S-752.115,197.426-752.115,214.843Z" transform="translate(787.928 -191.264)" fill="#fff"/>
        <g id="Grupo_131800" data-name="Grupo 131800" clip-path="url(#clip-path-3)">
          <g id="Grupo_131799" data-name="Grupo 131799" transform="translate(20.422 -5.434)" opacity="0.53">
            <path id="Trazado_191709" data-name="Trazado 191709" d="M-751.966,213.275c.666,9.34-.94,18.731-3.631,27.7,6.746-5.536,9.849-14.244,12.653-22.507,2.036-6,4.1-12.187,3.732-18.513s-3.757-12.907-9.693-15.124a12.9,12.9,0,0,0-9.149.148c-4.974,2-2.25,3.616-.163,7.188A48.78,48.78,0,0,1-751.966,213.275Z" transform="translate(760.865 -184.063)" fill="#fcc82e"/>
            <path id="Trazado_191710" data-name="Trazado 191710" d="M-751.966,213.275c.666,9.34-.94,18.731-3.631,27.7,6.746-5.536,9.849-14.244,12.653-22.507,2.036-6,4.1-12.187,3.732-18.513s-3.757-12.907-9.693-15.124a12.9,12.9,0,0,0-9.149.148c-4.974,2-2.25,3.616-.163,7.188A48.78,48.78,0,0,1-751.966,213.275Z" transform="translate(760.865 -184.063)" fill="#fcc82e" opacity="0.5"/>
          </g>
        </g>
        <path id="Trazado_191712" data-name="Trazado 191712" d="M-752.115,214.843a54.222,54.222,0,0,1-.735,8.955c-2.188,13.057-9.052,22.585-17.175,22.585a10.656,10.656,0,0,1-2.156-.226c-8.866-1.881-15.746-15.181-15.746-31.314,0-17.418,8.019-23.579,17.9-23.579S-752.115,197.426-752.115,214.843Z" transform="translate(787.928 -191.264)" fill="none" stroke="#1a2e35" stroke-miterlimit="10" stroke-width="1"/>
      </g>
      <g id="Grupo_131802" data-name="Grupo 131802" transform="translate(21.65 23.538)">
        <path id="Trazado_191713" data-name="Trazado 191713" d="M-753.367,243.746a30.908,30.908,0,0,1-5.873,11.017" transform="translate(759.24 -227.679)" fill="#fff" stroke="#1a2e35" stroke-miterlimit="10" stroke-width="1"/>
        <path id="Trazado_191714" data-name="Trazado 191714" d="M-750.8,240.838q-.141.638-.31,1.272" transform="translate(757.246 -226.966)" fill="none" stroke="#1a2e35" stroke-miterlimit="10" stroke-width="1"/>
        <path id="Trazado_191715" data-name="Trazado 191715" d="M-750.763,222.455a30.882,30.882,0,0,1,.357,12.287" transform="translate(757.16 -222.455)" fill="#fff" stroke="#1a2e35" stroke-miterlimit="10" stroke-width="1"/>
      </g>
      <path id="Trazado_191716" data-name="Trazado 191716" d="M-787.93,221.349s20.352-8.047,35.81,0" transform="translate(787.93 -197.768)" fill="none" stroke="#1a2e35" stroke-miterlimit="10" stroke-width="1"/>
      <path id="Trazado_191717" data-name="Trazado 191717" d="M-764.2,191.264a90.216,90.216,0,0,1,2.274,19.82" transform="translate(782.108 -191.264)" fill="#fff" stroke="#1a2e35" stroke-miterlimit="10" stroke-width="1"/>
      <path id="Trazado_191718" data-name="Trazado 191718" d="M-761.363,202.118c.261,2.345-.145,4.344-.907,4.465s-1.593-1.683-1.854-4.029.145-4.344.907-4.465S-761.624,199.773-761.363,202.118Z" transform="translate(782.108 -192.937)" fill="#bfbfbf" stroke="#1a2e35" stroke-linecap="round" stroke-linejoin="round" stroke-width="1"/>
    </g>
    <path id="Trazado_191719" data-name="Trazado 191719" d="M-784.511,250.183h-23.861a5.85,5.85,0,0,1-5.8-5.064,4.024,4.024,0,0,1-.068-.807V188.024a4.247,4.247,0,0,1,.068-.815,5.843,5.843,0,0,1,5.8-5.056h67.706a5.783,5.783,0,0,1,2.815.724" transform="translate(1027.919 -41.566)" fill="none" stroke="#1a2e35" stroke-miterlimit="10" stroke-width="1"/>
  </g>
</svg>
