<svg xmlns="http://www.w3.org/2000/svg" xmlns:xlink="http://www.w3.org/1999/xlink" width="510.038" height="453.311" viewBox="0 0 510.038 453.311">
  <defs>
    <linearGradient id="linear-gradient" x1="29.303" y1="0.5" x2="30.303" y2="0.5" gradientUnits="objectBoundingBox">
      <stop offset="0" stop-color="#ffcfa6"/>
      <stop offset="0.691" stop-color="#ffb88c"/>
    </linearGradient>
    <linearGradient id="linear-gradient-2" x1="19.064" y1="0.161" x2="17.932" y2="0.614" gradientUnits="objectBoundingBox">
      <stop offset="0" stop-color="#7fe4ff"/>
      <stop offset="0.505" stop-color="#1579ff"/>
      <stop offset="1" stop-color="#4743b8"/>
    </linearGradient>
    <linearGradient id="linear-gradient-3" x1="1" y1="0.5" x2="0" y2="0.5" xlink:href="#linear-gradient"/>
    <linearGradient id="linear-gradient-4" x1="62.314" y1="0.5" x2="63.314" y2="0.5" xlink:href="#linear-gradient"/>
    <linearGradient id="linear-gradient-5" x1="41.782" y1="-0.309" x2="40.494" y2="1.014" xlink:href="#linear-gradient-2"/>
    <linearGradient id="linear-gradient-6" x1="0.866" y1="0.159" x2="-0.162" y2="0.91" gradientUnits="objectBoundingBox">
      <stop offset="0.376" stop-color="#ea8e67"/>
      <stop offset="0.766" stop-color="#f6b188"/>
      <stop offset="1" stop-color="#ffc99f"/>
    </linearGradient>
    <linearGradient id="linear-gradient-7" x1="-511.259" y1="-233.127" x2="-511.758" y2="-232.444" gradientUnits="objectBoundingBox">
      <stop offset="0.255" stop-color="#25254e"/>
      <stop offset="1"/>
    </linearGradient>
    <linearGradient id="linear-gradient-8" x1="1" y1="0.5" x2="0" y2="0.5" xlink:href="#linear-gradient-7"/>
    <linearGradient id="linear-gradient-9" x1="1.546" y1="0.22" x2="-0.502" y2="0.786" xlink:href="#linear-gradient"/>
    <linearGradient id="linear-gradient-10" x1="-1.421" y1="1.44" x2="1.313" y2="0.049" xlink:href="#linear-gradient-6"/>
    <linearGradient id="linear-gradient-11" x1="236.058" y1="-11.312" x2="-134.485" y2="7.282" gradientUnits="objectBoundingBox">
      <stop offset="0" stop-color="#9c4fde"/>
      <stop offset="0.831" stop-color="#5c24b5"/>
      <stop offset="0.908" stop-color="#2f0d8e"/>
    </linearGradient>
    <linearGradient id="linear-gradient-12" x1="1037.526" y1="-87.492" x2="-621.984" y2="53.284" xlink:href="#linear-gradient-11"/>
    <linearGradient id="linear-gradient-13" x1="-344.09" y1="-59.34" x2="-345.848" y2="-58.39" xlink:href="#linear-gradient-6"/>
    <linearGradient id="linear-gradient-14" x1="23.807" y1="-205.587" x2="25.292" y2="-207.412" gradientUnits="objectBoundingBox">
      <stop offset="0.019" stop-color="#d65764"/>
      <stop offset="0.63" stop-color="#ffc6a6"/>
    </linearGradient>
    <linearGradient id="linear-gradient-15" x1="0" y1="0.5" x2="1" y2="0.5" xlink:href="#linear-gradient"/>
    <linearGradient id="linear-gradient-16" x1="0" y1="0.5" x2="1" y2="0.5" xlink:href="#linear-gradient-7"/>
  </defs>
  <g id="Grupo_131702" data-name="Grupo 131702" transform="translate(-2280.978 472.975)">
    <g id="Grupo_131684" data-name="Grupo 131684" transform="translate(177.565 285.357)">
      <path id="Trazado_191423" data-name="Trazado 191423" d="M2545.574-521.05a6.713,6.713,0,0,1-1.27-.121,6.541,6.541,0,0,1-1.24-.372,8.019,8.019,0,0,1-2.816-2.018,10.409,10.409,0,0,1-1.987-3.223c-.062-.161-.124-.324-.184-.49s-.121-.333-.181-.5a13.578,13.578,0,0,0-.817-1.969,2.921,2.921,0,0,0-1.272-1.3,3.047,3.047,0,0,0-1.922-.133,14.038,14.038,0,0,0-2.11.677l-.208.079-.207.078a12.391,12.391,0,0,1-2.82.734,7.18,7.18,0,0,1-2.41-.087,5.262,5.262,0,0,1-2.616-1.433,4.142,4.142,0,0,1-1.2-2.467,4.832,4.832,0,0,1,.118-1.56,12.164,12.164,0,0,1,.418-1.372l.723-2.1.724-2.1a10.356,10.356,0,0,0,.573-2.267,2.679,2.679,0,0,0-.392-1.887,2.556,2.556,0,0,0-1.365-.914,12.015,12.015,0,0,0-1.936-.378c-.365-.052-.738-.1-1.107-.172a9.017,9.017,0,0,1-1.092-.264,6.325,6.325,0,0,1-2.862-1.928,6.3,6.3,0,0,1-1.45-3.123,6.288,6.288,0,0,1,.461-3.415,6.305,6.305,0,0,1,2.163-2.683,7.988,7.988,0,0,1,1.46-.79c.5-.214,1.017-.39,1.521-.563.247-.083.494-.168.738-.257s.486-.182.724-.283a6.3,6.3,0,0,0,1.441-.862,2.775,2.775,0,0,0,1.119-1.843,2.8,2.8,0,0,0-.3-1.427,11.625,11.625,0,0,0-.84-1.43c-.2-.315-.413-.634-.6-.965a7.41,7.41,0,0,1-.507-1.031,5.3,5.3,0,0,1-.355-2.2,6.193,6.193,0,0,1,.565-2.279,6.829,6.829,0,0,1,1.531-2.144,6.316,6.316,0,0,1,2.17-1.357,6.979,6.979,0,0,1,3.722-.264,9.567,9.567,0,0,1,3.786,1.692c.1.073.205.15.308.227l.308.233c.338.26.667.511.984.71a2.573,2.573,0,0,0,.909.39,1.013,1.013,0,0,0,.59-.064,2.869,2.869,0,0,0,1.123-.983,5.77,5.77,0,0,0,.769-1.427c.2-.518.363-1.071.528-1.641q.12-.409.247-.818c.087-.271.176-.54.274-.8a9.547,9.547,0,0,1,1.756-2.98,7.251,7.251,0,0,1,2.522-1.883,5.884,5.884,0,0,1,3.512-.379,4.989,4.989,0,0,1,2.888,1.669,5.956,5.956,0,0,1,1.021,1.9,18.08,18.08,0,0,1,.537,2.1,14.391,14.391,0,0,0,.56,2.1,3.374,3.374,0,0,0,1.1,1.561,3.368,3.368,0,0,0,2.438.528,16.945,16.945,0,0,0,2.961-.7,16.078,16.078,0,0,1,3.5-.779,4.461,4.461,0,0,1,3.206.911,4.457,4.457,0,0,1,1.567,2.825,8.013,8.013,0,0,1-.169,3.243c-.09.351-.2.7-.308,1.043s-.233.688-.353,1.031c-.2.569-.4,1.123-.551,1.673a8.31,8.31,0,0,0-.311,1.657,4.1,4.1,0,0,0,.018.836,2.46,2.46,0,0,0,.183.677,2.536,2.536,0,0,0,1.33,1.228,12.462,12.462,0,0,0,2.115.67c.421.108.851.218,1.273.348a8.94,8.94,0,0,1,1.232.469h0a6.174,6.174,0,0,1,2.406,2.075,6.212,6.212,0,0,1,1.085,2.988,6.193,6.193,0,0,1-.581,3.126,6.189,6.189,0,0,1-2.039,2.441,7.889,7.889,0,0,1-1.277.713c-.438.2-.884.366-1.322.532-.221.082-.44.164-.656.25s-.431.176-.641.273a5.817,5.817,0,0,0-1.308.813,2.6,2.6,0,0,0-.976,1.566,2.744,2.744,0,0,0,.206,1.415,11.72,11.72,0,0,0,.735,1.463l.115.207.116.208a11.383,11.383,0,0,1,1.379,4.594,6.129,6.129,0,0,1-1.419,4.579,5.973,5.973,0,0,1-4.752,1.86,10.36,10.36,0,0,1-5.2-1.634l-.148-.094-.148-.094c-.26-.17-.513-.336-.766-.47a2.7,2.7,0,0,0-.761-.289,2.31,2.31,0,0,0-2.01.766,5.546,5.546,0,0,0-1.321,2.2c-.085.259-.16.523-.231.79s-.137.535-.2.8a19.168,19.168,0,0,1-.629,2.16,6.522,6.522,0,0,1-1.129,1.975,5.313,5.313,0,0,1-1.985,1.432A6.4,6.4,0,0,1,2545.574-521.05Zm-10.844-11.682a4.094,4.094,0,0,1,.853.086,3.744,3.744,0,0,1,.845.285,4.212,4.212,0,0,1,1.833,1.757,13.383,13.383,0,0,1,1,2.34c.057.161.115.321.173.479s.117.314.177.467a9.026,9.026,0,0,0,1.672,2.738,6.578,6.578,0,0,0,2.335,1.7,5.154,5.154,0,0,0,2.937.295,4.193,4.193,0,0,0,2.393-1.33,5.254,5.254,0,0,0,.9-1.622,18.549,18.549,0,0,0,.547-1.921c.072-.286.144-.571.219-.854s.156-.564.247-.839a6.855,6.855,0,0,1,1.921-2.983,3.6,3.6,0,0,1,3.052-.956,4.043,4.043,0,0,1,1.113.395c.341.175.655.38.951.571l.14.092.14.091a8.98,8.98,0,0,0,4.267,1.416,4.64,4.64,0,0,0,3.817-1.383,4.792,4.792,0,0,0,1.047-3.692,10.051,10.051,0,0,0-1.2-3.818l-.113-.2-.113-.2a12.177,12.177,0,0,1-.868-1.784,4.125,4.125,0,0,1-.244-2.015,3.9,3.9,0,0,1,1.273-2.285,7.049,7.049,0,0,1,1.847-1.2c.226-.1.456-.2.689-.293s.466-.182.7-.271c.416-.155.82-.306,1.2-.477a6.444,6.444,0,0,0,1.08-.6,4.729,4.729,0,0,0,1.557-1.866,4.736,4.736,0,0,0,.441-2.389,4.72,4.72,0,0,0-.833-2.28,4.739,4.739,0,0,0-1.836-1.591h0a7.694,7.694,0,0,0-1.072-.4c-.38-.116-.774-.217-1.162-.317a12.5,12.5,0,0,1-2.534-.848,3.846,3.846,0,0,1-1.873-1.86,3.721,3.721,0,0,1-.295-1.019,5.436,5.436,0,0,1-.036-1.2,9.64,9.64,0,0,1,.351-1.9c.171-.616.383-1.215.59-1.8.113-.323.227-.646.333-.97s.206-.651.288-.98a6.6,6.6,0,0,0,.181-2.491,3.116,3.116,0,0,0-1.067-2.08,3.228,3.228,0,0,0-2.433-.581,16.37,16.37,0,0,0-2.956.7,16.793,16.793,0,0,1-3.468.782,4.581,4.581,0,0,1-3.209-.837,4.655,4.655,0,0,1-1.525-2.039,14.371,14.371,0,0,1-.688-2.481,18.61,18.61,0,0,0-.466-1.846,4.686,4.686,0,0,0-.8-1.533,3.555,3.555,0,0,0-2.1-1.173,4.5,4.5,0,0,0-2.6.29,5.8,5.8,0,0,0-2.049,1.551,8.16,8.16,0,0,0-1.448,2.488c-.092.249-.176.5-.255.757s-.155.511-.23.768c-.178.607-.36,1.225-.6,1.824a7.14,7.14,0,0,1-.944,1.714,4.658,4.658,0,0,1-1.484,1.347,2.466,2.466,0,0,1-1.616.254,3.814,3.814,0,0,1-1.322-.521,13.183,13.183,0,0,1-1.217-.859l-.293-.221c-.1-.073-.2-.146-.294-.217a8.594,8.594,0,0,0-2.551-1.29,5.719,5.719,0,0,0-3.614.053,4.827,4.827,0,0,0-1.677,1.055,5.419,5.419,0,0,0-1.193,1.679,4.8,4.8,0,0,0-.434,1.716,3.855,3.855,0,0,0,.254,1.63,6.371,6.371,0,0,0,.43.864c.167.287.354.575.547.871a12,12,0,0,1,1.012,1.766,4.079,4.079,0,0,1,.36,2.013,3.907,3.907,0,0,1-1.011,2.232,6.737,6.737,0,0,1-2.43,1.68c-.253.109-.511.208-.772.3s-.525.185-.791.275c-.478.164-.943.324-1.383.509a6.623,6.623,0,0,0-1.236.661,4.841,4.841,0,0,0-1.665,2.062,4.834,4.834,0,0,0-.354,2.626,4.861,4.861,0,0,0,1.115,2.4,4.848,4.848,0,0,0,2.2,1.479,7.459,7.459,0,0,0,.942.227c.329.06.671.108,1.021.157a12.115,12.115,0,0,1,2.33.491,3.908,3.908,0,0,1,1.948,1.392,4.2,4.2,0,0,1,.645,2.966,11.408,11.408,0,0,1-.635,2.513l-.724,2.1-.724,2.1c-.127.366-.263.755-.357,1.148a3.54,3.54,0,0,0-.108,1.166,2.705,2.705,0,0,0,.935,1.719,3.977,3.977,0,0,0,1.754.906,5.725,5.725,0,0,0,2,.057,11.285,11.285,0,0,0,2.407-.646l.2-.077.205-.078c.546-.208,1.117-.425,1.7-.591A6.539,6.539,0,0,1,2534.73-532.732Zm11.294-5.011a14.377,14.377,0,0,1-10.194-4.23,14.379,14.379,0,0,1-4.23-10.2,14.377,14.377,0,0,1,4.23-10.194,14.377,14.377,0,0,1,10.194-4.23,14.38,14.38,0,0,1,10.2,4.23,14.377,14.377,0,0,1,4.23,10.194,14.379,14.379,0,0,1-4.23,10.2A14.38,14.38,0,0,1,2546.024-537.743Zm0-27.4a12.932,12.932,0,0,0-9.168,3.8,12.932,12.932,0,0,0-3.8,9.168,12.932,12.932,0,0,0,3.8,9.168,12.932,12.932,0,0,0,9.168,3.8,12.931,12.931,0,0,0,9.168-3.8,12.927,12.927,0,0,0,3.8-9.168,12.927,12.927,0,0,0-3.8-9.168A12.931,12.931,0,0,0,2546.024-565.14Z" fill="#0b1d49"/>
      <path id="Trazado_191424" data-name="Trazado 191424" d="M2510.674-430.811a9.369,9.369,0,0,1-1.792-.173,9.207,9.207,0,0,1-1.754-.528,11.393,11.393,0,0,1-4.011-2.877,14.935,14.935,0,0,1-2.836-4.609q-.135-.345-.266-.7t-.259-.723a19.5,19.5,0,0,0-1.247-2.991,4.568,4.568,0,0,0-1.994-2.005,4.666,4.666,0,0,0-2.96-.238,20.3,20.3,0,0,0-3.19,1.019l-.309.118-.307.118a18.105,18.105,0,0,1-4.046,1.058,9.859,9.859,0,0,1-3.422-.129,7.371,7.371,0,0,1-3.654-1.987,5.736,5.736,0,0,1-1.685-3.42,6.721,6.721,0,0,1,.165-2.162,18.568,18.568,0,0,1,.6-1.987l1.065-3.073,1.064-3.073a15.179,15.179,0,0,0,.855-3.457,4.23,4.23,0,0,0-.64-2.934,4.085,4.085,0,0,0-2.15-1.448,17.409,17.409,0,0,0-2.913-.578c-.529-.075-1.065-.151-1.6-.249a12.839,12.839,0,0,1-1.565-.377,8.889,8.889,0,0,1-4.033-2.717,8.888,8.888,0,0,1-2.047-4.407,8.874,8.874,0,0,1,.648-4.816,8.892,8.892,0,0,1,3.053-3.787,11.426,11.426,0,0,1,2.085-1.124c.722-.306,1.461-.56,2.187-.809.366-.126.732-.252,1.094-.384s.722-.271,1.075-.422a9.486,9.486,0,0,0,2.223-1.337,4.373,4.373,0,0,0,1.734-2.9,4.37,4.37,0,0,0-.45-2.222,17.349,17.349,0,0,0-1.273-2.176c-.3-.453-.595-.913-.871-1.388a10.815,10.815,0,0,1-.727-1.474,7.494,7.494,0,0,1-.494-3.087,8.754,8.754,0,0,1,.795-3.2,9.719,9.719,0,0,1,2.168-3.033,8.853,8.853,0,0,1,3.066-1.918,9.979,9.979,0,0,1,5.286-.365,13.647,13.647,0,0,1,5.392,2.411q.225.164.45.332c.149.112.3.225.446.339.514.392,1.013.773,1.5,1.075a4,4,0,0,0,1.42.6,1.918,1.918,0,0,0,1.156-.159,4.7,4.7,0,0,0,1.674-1.5,8.8,8.8,0,0,0,1.16-2.145c.3-.773.543-1.6.788-2.441.118-.4.236-.8.36-1.2s.256-.789.4-1.175a13.744,13.744,0,0,1,2.5-4.248,10.255,10.255,0,0,1,3.577-2.679,8.361,8.361,0,0,1,4.945-.537,6.966,6.966,0,0,1,4.04,2.33,8.449,8.449,0,0,1,1.443,2.7,26.366,26.366,0,0,1,.766,3,20.669,20.669,0,0,0,.851,3.171,5.238,5.238,0,0,0,1.708,2.393,5.221,5.221,0,0,0,3.755.853,24.32,24.32,0,0,0,4.439-1.051,24.153,24.153,0,0,1,4.992-1.119,6.226,6.226,0,0,1,4.529,1.255,6.213,6.213,0,0,1,2.173,3.961,11.391,11.391,0,0,1-.249,4.576c-.133.512-.287,1.019-.451,1.52s-.338.995-.511,1.482c-.3.846-.583,1.667-.812,2.487a12.461,12.461,0,0,0-.46,2.482,6.264,6.264,0,0,0,.023,1.31,3.684,3.684,0,0,0,.3,1.061,4.042,4.042,0,0,0,2.092,1.955,17.992,17.992,0,0,0,3.181,1.02c.609.157,1.228.316,1.834.5a12.894,12.894,0,0,1,1.763.669h0a8.718,8.718,0,0,1,3.392,2.926,8.735,8.735,0,0,1,1.526,4.214,8.693,8.693,0,0,1-.819,4.406,8.714,8.714,0,0,1-2.878,3.44,11.233,11.233,0,0,1-1.828,1.016c-.631.285-1.274.528-1.908.767-.323.121-.646.243-.966.37s-.637.26-.947.4a8.766,8.766,0,0,0-2.018,1.266,4.159,4.159,0,0,0-1.523,2.48,4.371,4.371,0,0,0,.325,2.226,17.561,17.561,0,0,0,1.1,2.207l.162.3.163.3a16.323,16.323,0,0,1,1.985,6.549,8.647,8.647,0,0,1-1.99,6.493,8.413,8.413,0,0,1-6.726,2.653,14.9,14.9,0,0,1-7.413-2.378l-.21-.136-.211-.136c-.4-.261-.781-.514-1.171-.721a4.163,4.163,0,0,0-1.193-.444,3.72,3.72,0,0,0-3.194,1.181,8.362,8.362,0,0,0-2.06,3.384c-.125.385-.237.776-.344,1.171s-.2.793-.3,1.191a28.1,28.1,0,0,1-.9,3.1,9.324,9.324,0,0,1-1.6,2.815,7.448,7.448,0,0,1-2.79,2.01A9.063,9.063,0,0,1,2510.674-430.811Zm-15.877-16.43a5.8,5.8,0,0,1,1.181.116,5.1,5.1,0,0,1,1.158.389,5.923,5.923,0,0,1,2.563,2.487,19.652,19.652,0,0,1,1.429,3.338c.083.234.165.468.249.7s.169.46.257.684a13.525,13.525,0,0,0,2.518,4.121,9.941,9.941,0,0,0,3.532,2.552,7.9,7.9,0,0,0,4.508.45,6.435,6.435,0,0,0,3.681-2.055,7.993,7.993,0,0,0,1.367-2.45,28.1,28.1,0,0,0,.827-2.871c.1-.415.207-.83.317-1.241s.229-.819.359-1.218a9.706,9.706,0,0,1,2.667-4.2,4.917,4.917,0,0,1,4.229-1.344,5.5,5.5,0,0,1,1.539.548,15.2,15.2,0,0,1,1.362.827l.2.133.2.133a13.551,13.551,0,0,0,6.467,2.117,7.1,7.1,0,0,0,5.809-2.135,7.311,7.311,0,0,0,1.619-5.606,15.011,15.011,0,0,0-1.8-5.773l-.163-.292-.163-.292a17.689,17.689,0,0,1-1.24-2.535,5.723,5.723,0,0,1-.357-2.821,5.429,5.429,0,0,1,1.79-3.174,10.033,10.033,0,0,1,2.587-1.679c.326-.151.659-.29,1-.423s.675-.261,1.013-.389c.619-.233,1.22-.459,1.793-.717a9.8,9.8,0,0,0,1.623-.9,7.261,7.261,0,0,0,2.4-2.866,7.23,7.23,0,0,0,.679-3.668,7.249,7.249,0,0,0-1.269-3.51,7.25,7.25,0,0,0-2.828-2.437h0a11.459,11.459,0,0,0-1.607-.6c-.565-.173-1.15-.323-1.723-.471a18.312,18.312,0,0,1-3.644-1.209,5.3,5.3,0,0,1-2.592-2.572,5.1,5.1,0,0,1-.407-1.41,7.587,7.587,0,0,1-.043-1.673,13.938,13.938,0,0,1,.5-2.735c.248-.889.553-1.756.854-2.609.165-.471.333-.95.49-1.432s.3-.967.426-1.448a9.99,9.99,0,0,0,.261-3.823,4.864,4.864,0,0,0-1.673-3.216,5.007,5.007,0,0,0-3.73-.925,23.82,23.82,0,0,0-4.474,1.047,24.366,24.366,0,0,1-4.946,1.122,6.438,6.438,0,0,1-4.525-1.152,6.536,6.536,0,0,1-2.143-2.884,20.9,20.9,0,0,1-.977-3.542,25.94,25.94,0,0,0-.694-2.761,7.084,7.084,0,0,0-1.215-2.322,5.551,5.551,0,0,0-3.269-1.829,6.918,6.918,0,0,0-4.013.441,8.838,8.838,0,0,0-3.1,2.347,12.326,12.326,0,0,0-2.192,3.759c-.14.369-.265.745-.384,1.125s-.23.763-.343,1.146c-.255.872-.514,1.758-.854,2.615a10.061,10.061,0,0,1-1.339,2.441,6.317,6.317,0,0,1-2.056,1.842,3.506,3.506,0,0,1-2.161.374,5.254,5.254,0,0,1-1.842-.733,19.367,19.367,0,0,1-1.724-1.222c-.143-.109-.287-.219-.432-.327s-.29-.217-.435-.322a13.139,13.139,0,0,0-3.869-1.947,8.646,8.646,0,0,0-5.467.091,7.437,7.437,0,0,0-2.573,1.618,8.275,8.275,0,0,0-1.829,2.567,7.313,7.313,0,0,0-.663,2.641,6.036,6.036,0,0,0,.392,2.518,9.4,9.4,0,0,0,.657,1.315c.254.433.533.862.806,1.284a17.592,17.592,0,0,1,1.441,2.5,5.686,5.686,0,0,1,.517,2.818,5.624,5.624,0,0,1-2.017,3.7,10.626,10.626,0,0,1-2.821,1.748c-.368.158-.744.3-1.123.442s-.763.27-1.146.4c-.709.244-1.4.481-2.055.758a10.04,10.04,0,0,0-1.857.992,7.457,7.457,0,0,0-2.552,3.166,7.406,7.406,0,0,0-.543,4.027,7.443,7.443,0,0,0,1.712,3.685,7.422,7.422,0,0,0,3.372,2.27,11.456,11.456,0,0,0,1.425.34c.495.09,1,.162,1.5.233a17.619,17.619,0,0,1,3.345.7,5.356,5.356,0,0,1,2.695,1.924,5.461,5.461,0,0,1,.929,3.657,15.878,15.878,0,0,1-.954,4.056l-1.064,3.072-1.065,3.071c-.2.581-.4,1.173-.539,1.764a5.392,5.392,0,0,0-.157,1.764,4.309,4.309,0,0,0,1.467,2.717,6.133,6.133,0,0,0,2.74,1.42,8.591,8.591,0,0,0,3.017.092,16.845,16.845,0,0,0,3.63-.965l.3-.116.306-.115c.781-.3,1.6-.609,2.431-.846A9.285,9.285,0,0,1,2494.8-447.241Zm16.538-8.014a20.728,20.728,0,0,1-14.69-6.093,20.714,20.714,0,0,1-6.095-14.688,20.721,20.721,0,0,1,6.095-14.691,20.725,20.725,0,0,1,14.69-6.094,20.717,20.717,0,0,1,14.688,6.094,20.722,20.722,0,0,1,6.092,14.691,20.715,20.715,0,0,1-6.092,14.688A20.72,20.72,0,0,1,2511.335-455.255Zm0-40.113a19.275,19.275,0,0,0-13.663,5.668,19.272,19.272,0,0,0-5.67,13.664,19.264,19.264,0,0,0,5.67,13.661,19.274,19.274,0,0,0,13.663,5.667A19.268,19.268,0,0,0,2525-462.375a19.266,19.266,0,0,0,5.667-13.661A19.275,19.275,0,0,0,2525-489.7,19.269,19.269,0,0,0,2511.335-495.368Z" fill="#0b1d49"/>
    </g>
    <path id="Trazado_191427" data-name="Trazado 191427" d="M2530.124-472.975a47.432,47.432,0,0,0,3.07,6.4c1.151,2.1,2.338,4.176,3.29,6.319,1.067,2.4,2.21,4.775,3.334,7.148s2.229,4.751,3.22,7.169c.442,1.079.875,2.155,1.329,3.218s.931,2.113,1.461,3.138c0,0-6.595-6.063-13.075-12.368s-12.845-12.854-12.386-13.825c.468-.99,2.657-2.273,4.874-3.506s4.463-2.418,5.043-3.212l-.08-.24Z" fill="#bbdbfa" opacity="0.74"/>
    <g id="Grupo_131703" data-name="Grupo 131703" transform="translate(85.281 20.045)">
      <path id="Trazado_191426" data-name="Trazado 191426" d="M2425.344-492.608l50.468-.109,50.468-.108a18.082,18.082,0,0,1,13.81,6.32,18.083,18.083,0,0,1,4.183,14.6l-.017.109-.016.108a18.126,18.126,0,0,1-6.125,11.028,18.122,18.122,0,0,1-11.83,4.381h-100.9a18.078,18.078,0,0,1-13.863-6.428,18.078,18.078,0,0,1-4.052-14.734h0a18.126,18.126,0,0,1,6.164-10.853A18.122,18.122,0,0,1,2425.344-492.608Z" fill="#bbdbfa" opacity="0.74"/>
      <g id="Grupo_131685" data-name="Grupo 131685">
        <path id="Trazado_191428" data-name="Trazado 191428" d="M2430.535-474.5a6.5,6.5,0,0,1-1.908,4.607,6.5,6.5,0,0,1-4.608,1.909,6.5,6.5,0,0,1-4.607-1.909,6.494,6.494,0,0,1-1.908-4.607,6.494,6.494,0,0,1,1.908-4.607,6.5,6.5,0,0,1,4.607-1.909,6.5,6.5,0,0,1,4.608,1.909A6.5,6.5,0,0,1,2430.535-474.5Z" fill="#fff"/>
      </g>
      <path id="Trazado_191429" data-name="Trazado 191429" d="M2525.092-477.63h-84.943V-480.2h84.943v2.572Z" fill="#fff"/>
      <path id="Trazado_191430" data-name="Trazado 191430" d="M2525.092-469.7h-84.943v-2.572h84.943v2.572Z" fill="#fff"/>
    </g>
    <g id="Grupo_131687" data-name="Grupo 131687">
      <path id="Trazado_191431" data-name="Trazado 191431" d="M2667.71-247.089c0,.344-.009.679-.031,1.009s-.059.657-.114.983h-28c-.054-.326-.091-.652-.113-.983s-.032-.665-.032-1.009a14.066,14.066,0,0,1,4.148-9.984,14.131,14.131,0,0,1,10.015-4.143,14.083,14.083,0,0,1,9.984,4.143A14.079,14.079,0,0,1,2667.71-247.089Z" fill="#0f2771"/>
      <g id="Grupo_131686" data-name="Grupo 131686">
        <path id="Trazado_191432" data-name="Trazado 191432" d="M2654.333-261.18c0,1.032.009,2.074.018,3.115s.018,2.083.018,3.115a.353.353,0,0,1-.38.353.353.353,0,0,1-.38-.353v-2.934c-.018-.561-.027-1.114-.032-1.666s0-1.105,0-1.666c.126,0,.253,0,.38,0A3.741,3.741,0,0,1,2654.333-261.18Z" fill="#0f2771"/>
      </g>
      <path id="Trazado_191433" data-name="Trazado 191433" d="M2597.258-250.705H2510.8v5.75h86.458v-5.75Z" fill="#0f2771"/>
    </g>
    <g id="Grupo_131688" data-name="Grupo 131688">
      <path id="Trazado_191434" data-name="Trazado 191434" d="M2721.6-243.3H2375.112v-3.3H2721.6v3.3Z" fill="#a4a4a5"/>
      <path id="Trazado_191435" data-name="Trazado 191435" d="M2660.253-30.165h-3.3V-245.111h3.3V-30.165Z" fill="#a4a4a5"/>
    </g>
    <path id="Trazado_191436" data-name="Trazado 191436" d="M2624.177-279.848V-245.8h-4.455v-34.049h4.455Z" fill="#fff"/>
    <path id="Trazado_191437" data-name="Trazado 191437" d="M2556.429-413.065l-6.073,66.6-6.073,66.6h147.022l6.392-67.014,6.392-67.014-73.831.412Z" fill="#fcc82e"/>
    <path id="Trazado_191438" data-name="Trazado 191438" d="M2698.922-403.7l-.308,2.936-.308,2.935-5.144,48.3-5.143,48.3a5.292,5.292,0,0,1-1.852,3.48,5.892,5.892,0,0,1-3.835,1.395H2555.117a5.835,5.835,0,0,1-4.229-1.773,5.216,5.216,0,0,1-1.458-4.166l4.854-47.771,4.853-47.771.326-3.21.326-3.21a5.253,5.253,0,0,1,1.839-3.364,5.975,5.975,0,0,1,3.74-1.408l63.951-.326,63.952-.326a5.8,5.8,0,0,1,4.225,1.789A5.2,5.2,0,0,1,2698.922-403.7Z" fill="#fff"/>
    <path id="Trazado_191439" data-name="Trazado 191439" d="M2698.922-403.535l-.308,3.015-.308,3.015H2559.137l.326-3.3.326-3.3a5.439,5.439,0,0,1,1.839-3.456,5.885,5.885,0,0,1,3.74-1.446l63.951-.335,63.952-.335a5.73,5.73,0,0,1,4.225,1.838A5.434,5.434,0,0,1,2698.922-403.535Z" fill="#0f2771"/>
    <path id="Trazado_191440" data-name="Trazado 191440" d="M2691.306-279.861l2.664.959,2.663.959,6.179-65.148,6.179-65.148-2.45-2.825-2.45-2.825-6.392,67.014Z" fill="#0f2771"/>
    <path id="Trazado_191441" data-name="Trazado 191441" d="M2697.908-407.689a5.638,5.638,0,0,0-1.671-.959,5.793,5.793,0,0,0-2-.35l-64.1.319-64.1.318a6.01,6.01,0,0,0-3.749,1.406,5.248,5.248,0,0,0-1.842,3.37l-.327,3.219-.327,3.219-4.865,47.933-4.866,47.933a5.022,5.022,0,0,0,.191,1.99,5.329,5.329,0,0,0,.9,1.724,5.426,5.426,0,0,1-1.634-2.065,5.28,5.28,0,0,1-.436-2.675l4.865-47.915,4.866-47.916.327-3.219.326-3.219a5.318,5.318,0,0,1,1.843-3.387,5.974,5.974,0,0,1,3.749-1.424l64.1-.318,64.1-.319a5.831,5.831,0,0,1,2.664.637A5.578,5.578,0,0,1,2697.908-407.689Z" fill="#db7519"/>
    <path id="Trazado_191442" data-name="Trazado 191442" d="M2679.307-288.542a2.608,2.608,0,0,0-.765-1.847,2.608,2.608,0,0,0-1.847-.765,2.609,2.609,0,0,0-1.847.765,2.608,2.608,0,0,0-.765,1.847,2.608,2.608,0,0,0,.765,1.847,2.608,2.608,0,0,0,1.847.765,2.607,2.607,0,0,0,1.847-.765A2.608,2.608,0,0,0,2679.307-288.542Z" fill="#fff"/>
    <g id="Grupo_131689" data-name="Grupo 131689">
      <path id="Trazado_191443" data-name="Trazado 191443" d="M2684.58-403.237a1.48,1.48,0,0,0,.453,1.065,1.563,1.563,0,0,0,1.094.442,1.561,1.561,0,0,0,1.094-.442,1.481,1.481,0,0,0,.454-1.065,1.483,1.483,0,0,0-.454-1.065,1.56,1.56,0,0,0-1.094-.441,1.562,1.562,0,0,0-1.094.441A1.482,1.482,0,0,0,2684.58-403.237Z" fill="#fff"/>
      <path id="Trazado_191444" data-name="Trazado 191444" d="M2679.032-403.237a1.48,1.48,0,0,0,.453,1.065,1.562,1.562,0,0,0,1.094.442,1.564,1.564,0,0,0,1.095-.442,1.48,1.48,0,0,0,.453-1.065,1.482,1.482,0,0,0-.453-1.065,1.563,1.563,0,0,0-1.095-.441,1.562,1.562,0,0,0-1.094.441A1.482,1.482,0,0,0,2679.032-403.237Z" fill="#fff"/>
      <path id="Trazado_191445" data-name="Trazado 191445" d="M2673.6-403.237a1.48,1.48,0,0,0,.453,1.065,1.563,1.563,0,0,0,1.094.442,1.564,1.564,0,0,0,1.095-.442,1.48,1.48,0,0,0,.453-1.065,1.482,1.482,0,0,0-.453-1.065,1.563,1.563,0,0,0-1.095-.441,1.562,1.562,0,0,0-1.094.441A1.482,1.482,0,0,0,2673.6-403.237Z" fill="#fff"/>
    </g>
    <path id="Trazado_191446" data-name="Trazado 191446" d="M2624.44-279.848l-.131,6.9-.132,6.9c-.707.561-1.431,1.105-2.174,1.625s-1.5,1.019-2.282,1.49l-.177-8.458-.177-8.458h5.073Z" fill="#e4daf4"/>
    <path id="Trazado_191447" data-name="Trazado 191447" d="M2544.284-279.861h147.022l2.664.959,2.663.959H2547.284l-1.5-.959Z" fill="#0f2771"/>
    <g id="Grupo_131692" data-name="Grupo 131692">
      <g id="Grupo_131691" data-name="Grupo 131691">
        <path id="Trazado_191448" data-name="Trazado 191448" d="M2583.543-383.683v2.644h-8.223l.127-1.322.127-1.322h7.969Z" fill="#87bef5"/>
        <path id="Trazado_191449" data-name="Trazado 191449" d="M2657.655-377.779l-.109,1.322-.109,1.322h-82.661l.127-1.322.127-1.322h82.625Z" fill="#87bef5"/>
        <path id="Trazado_191450" data-name="Trazado 191450" d="M2657.184-371.911l-.109,1.34-.109,1.34H2574.2l.127-1.34.127-1.34h82.733Z" fill="#87bef5"/>
        <path id="Trazado_191451" data-name="Trazado 191451" d="M2593.215-366.007v2.68h-19.56l.127-1.34.127-1.34h19.307Z" fill="#87bef5"/>
        <path id="Trazado_191452" data-name="Trazado 191452" d="M2656.242-360.1l-.109,1.34-.109,1.34h-82.914l.127-1.34.127-1.34h82.878Z" fill="#87bef5"/>
        <path id="Trazado_191453" data-name="Trazado 191453" d="M2651.389-354.2v2.681h-78.858l.127-1.34.127-1.34h78.6Z" fill="#87bef5"/>
        <g id="Grupo_131690" data-name="Grupo 131690">
          <path id="Trazado_191454" data-name="Trazado 191454" d="M2583.543-348.149v2.644h-11.555l.109-1.322.109-1.322h11.338Z" fill="#87bef5"/>
          <path id="Trazado_191455" data-name="Trazado 191455" d="M2654.83-342.244l-.109,1.322-.109,1.322h-83.2l.127-1.322.127-1.322h83.168Z" fill="#87bef5"/>
          <path id="Trazado_191456" data-name="Trazado 191456" d="M2654.359-336.376l-.109,1.34-.109,1.34h-83.277l.127-1.34.127-1.34h83.24Z" fill="#87bef5"/>
          <path id="Trazado_191457" data-name="Trazado 191457" d="M2593.215-330.472v2.68h-22.929l.127-1.34.127-1.34h22.676Z" fill="#87bef5"/>
          <path id="Trazado_191458" data-name="Trazado 191458" d="M2653.417-324.567l-.109,1.34-.109,1.34h-83.458l.127-1.34.127-1.34h83.422Z" fill="#87bef5"/>
          <path id="Trazado_191459" data-name="Trazado 191459" d="M2651.389-318.663v2.681H2569.2l.127-1.34.127-1.34h81.937Z" fill="#87bef5"/>
        </g>
      </g>
    </g>
    <path id="Trazado_191460" data-name="Trazado 191460" d="M2640.074-243.886h-34.991c0-1.358,1.956-2.581,5.121-3.464a48.185,48.185,0,0,1,12.375-1.426,48.182,48.182,0,0,1,12.374,1.426C2638.118-246.467,2640.074-245.244,2640.074-243.886Z" fill="#fff"/>
    <path id="Trazado_191461" data-name="Trazado 191461" d="M2790.977-436.657l-.217,2.174-.217,2.173v.036l-2.427,25.266-2.427,25.265a5.172,5.172,0,0,1-1.657,3.328,5.1,5.1,0,0,1-3.451,1.345H2666.225c-3.586,3.55-7.507,7.281-10.531,10.125s-5.153,4.8-5.153,4.8c.525-1.014,1-2.065,1.449-3.129s.887-2.141,1.34-3.21c1-2.427,2.1-4.809,3.224-7.186s2.264-4.75,3.332-7.158c.055-.127.109-.245.163-.363s.109-.235.163-.362l2.771-24.36,2.771-24.36.308-2.735.308-2.734a5.135,5.135,0,0,1,1.666-3.26,5.073,5.073,0,0,1,3.405-1.3H2785.87a5.1,5.1,0,0,1,3.8,1.684A5.156,5.156,0,0,1,2790.977-436.657Z" fill="#bbdbfa" opacity="0.74"/>
    <g id="Grupo_131693" data-name="Grupo 131693">
      <path id="Trazado_191462" data-name="Trazado 191462" d="M2772.65-402.287,2772.54-401l-.111,1.286h-71.67l.111-1.286.111-1.286h71.67Z" fill="#fff"/>
      <path id="Trazado_191463" data-name="Trazado 191463" d="M2773.811-416.632l-.1,1.286-.1,1.286h-71.67l.111-1.286.11-1.286h71.642Z" fill="#fff"/>
      <path id="Trazado_191464" data-name="Trazado 191464" d="M2773.2-409.134l-.1,1.286-.1,1.286h-71.67l.1-1.286.1-1.286h71.67Z" fill="#fff"/>
    </g>
    <path id="Trazado_191465" data-name="Trazado 191465" d="M2790.557-432.271v-.036l.217-2.173.218-2.174a5.159,5.159,0,0,0-1.3-3.966,5.093,5.093,0,0,0-3.8-1.685H2671.456a5.072,5.072,0,0,0-3.405,1.3,5.126,5.126,0,0,0-1.666,3.261l-.308,2.734-.308,2.735h124.788Z" fill="#0f2771"/>
    <g id="Grupo_131694" data-name="Grupo 131694">
      <path id="Trazado_191466" data-name="Trazado 191466" d="M2781.023-437.288a1.484,1.484,0,0,0,.453,1.066,1.567,1.567,0,0,0,1.094.441,1.567,1.567,0,0,0,1.094-.441,1.484,1.484,0,0,0,.453-1.066,1.482,1.482,0,0,0-.453-1.065,1.566,1.566,0,0,0-1.094-.441,1.566,1.566,0,0,0-1.094.441A1.482,1.482,0,0,0,2781.023-437.288Z" fill="#fff"/>
      <path id="Trazado_191467" data-name="Trazado 191467" d="M2775.475-437.288a1.484,1.484,0,0,0,.453,1.066,1.567,1.567,0,0,0,1.094.441,1.565,1.565,0,0,0,1.094-.441,1.481,1.481,0,0,0,.454-1.066,1.479,1.479,0,0,0-.454-1.065,1.565,1.565,0,0,0-1.094-.441,1.566,1.566,0,0,0-1.094.441A1.482,1.482,0,0,0,2775.475-437.288Z" fill="#fff"/>
      <path id="Trazado_191468" data-name="Trazado 191468" d="M2770.043-437.288a1.484,1.484,0,0,0,.453,1.066,1.566,1.566,0,0,0,1.094.441,1.565,1.565,0,0,0,1.094-.441,1.481,1.481,0,0,0,.454-1.066,1.479,1.479,0,0,0-.454-1.065,1.565,1.565,0,0,0-1.094-.441,1.566,1.566,0,0,0-1.094.441A1.482,1.482,0,0,0,2770.043-437.288Z" fill="#fff"/>
    </g>
    <path id="Trazado_191469" data-name="Trazado 191469" d="M2694.445-409.134a11.6,11.6,0,0,1-3.409,8.23,11.6,11.6,0,0,1-8.23,3.409,11.6,11.6,0,0,1-8.23-3.409,11.6,11.6,0,0,1-3.409-8.23,11.6,11.6,0,0,1,3.409-8.229,11.6,11.6,0,0,1,8.23-3.409,11.6,11.6,0,0,1,8.23,3.409A11.6,11.6,0,0,1,2694.445-409.134Z" fill="#fff"/>
    <path id="Trazado_191470" data-name="Trazado 191470" d="M2487.818-69.839a4.016,4.016,0,0,1-.4,2,6.809,6.809,0,0,1-1.191,1.73,22.149,22.149,0,0,1-2.608,2.359c-.933.738-1.9,1.444-2.825,2.168-.163.109-.317.227-.467.349s-.294.249-.439.376q-1.738,1.521-3.532,2.966t-3.64,2.83a30.71,30.71,0,0,1-4.754,3.314c-1.712.8-3.45.869-4.918-1.032a9.2,9.2,0,0,1-.575-.847,2.438,2.438,0,0,1-.33-.928,2.47,2.47,0,0,1,.2-1.25,6.96,6.96,0,0,1,.634-1.141q.951-1.6,1.843-3.233t1.707-3.287c.507-1.069,1.14-2.135,1.751-3.21a23.584,23.584,0,0,0,1.615-3.264,27.863,27.863,0,0,1,1.274-3.021,7.368,7.368,0,0,1,1.952-2.422,10.672,10.672,0,0,1,1.771-1.155,10.279,10.279,0,0,1,2.069-.8,9.149,9.149,0,0,1,3.559-.231,7.664,7.664,0,0,1,3.287,1.209c.181.127.353.254.521.39s.33.28.494.443a8.988,8.988,0,0,1,1.109,1.386c.33.5.629,1.023.919,1.548a12.681,12.681,0,0,1,.652,1.336A4.285,4.285,0,0,1,2487.818-69.839Z" fill="url(#linear-gradient)"/>
    <path id="Trazado_191471" data-name="Trazado 191471" d="M2574.823-178.756a172.334,172.334,0,0,1-25.727,57.423,174.659,174.659,0,0,1-44.255,44.762c-.145.109-.29.218-.435.322s-.29.2-.435.294c-1.141.8-2.264,1.621-3.4,2.441s-2.273,1.634-3.45,2.413a59.959,59.959,0,0,1-6.594,3.746c-2.289,1.128-4.639,2.142-6.96,3.059a7.963,7.963,0,0,1-.82.287,2.814,2.814,0,0,1-.85.111,2.856,2.856,0,0,1-.742-.142c-.241-.077-.478-.176-.712-.273a41.775,41.775,0,0,1-4.666-2.2,13.636,13.636,0,0,1-3.911-3.2,1.9,1.9,0,0,1-.2-.287.711.711,0,0,1-.092-.325.728.728,0,0,1,.042-.24,2.323,2.323,0,0,1,.1-.228q2.778-5.909,5.362-11.907t4.966-12.078c1.512-3.855,3.042-7.721,4.517-11.606s2.9-7.789,4.184-11.721a104.626,104.626,0,0,0,3.206-12,75,75,0,0,0,1.471-12.321,16.606,16.606,0,0,0-.073-2.418,5.648,5.648,0,0,0-.724-2.255,5.692,5.692,0,0,0-2.658-2.187,14.818,14.818,0,0,0-3.5-.964,47.626,47.626,0,0,0-5.166-.58c-1.726-.117-3.455-.2-5.194-.362-.235-.018-.462-.045-.688-.081s-.453-.082-.688-.136c-1.051-.163-2.1-.4-3.147-.67s-2.088-.58-3.12-.888c-.217-.054-.435-.109-.652-.167s-.435-.123-.652-.195c-.743-.2-1.485-.4-2.223-.6s-1.472-.412-2.2-.63c-.308-.09-.625-.19-.942-.289s-.634-.2-.942-.29c-1.829-.6-3.64-1.25-5.456-1.988s-3.636-1.562-5.483-2.5c-.381-.2-.761-.4-1.137-.6s-.747-.4-1.109-.6c-1.177-.652-2.327-1.331-3.414-2.083a20.744,20.744,0,0,1-3.034-2.518,45.726,45.726,0,0,0,5.977-2.132c1.956-.847,3.876-1.816,5.76-2.866,2.264-1.25,4.491-2.626,6.674-4.053s4.319-2.9,6.4-4.351c2.047-1.413,3.957-2.807,5.814-4.27s3.658-2.993,5.488-4.677c.76-.707,1.575-1.349,2.4-1.983s1.657-1.259,2.454-1.929c.4-.344.8-.688,1.2-1.028s.811-.675,1.227-1c.181-.126.372-.262.566-.4s.394-.272.594-.4a4.66,4.66,0,0,1,.751-.425,3.833,3.833,0,0,1,.806-.263c1.214-.2,2.418-.48,3.618-.783s2.4-.629,3.591-.919c.851-.218-3.582-.133-8.014-.054s-8.865.155-8.014-.081c1.159-.326,7.221-2.013,14.783-3.939s16.625-4.089,23.786-5.368c5.819-1.039,14.066-4.32,22.185-6.214s16.11-2.4,21.417,2.108a38.125,38.125,0,0,1,10.685,14.313A28.2,28.2,0,0,1,2574.823-178.756Z" fill="#61a0e0"/>
    <path id="Trazado_191472" data-name="Trazado 191472" d="M2546.207-171.257a45.121,45.121,0,0,1-1.7,8.435c-.81,2.767-1.815,5.492-2.866,8.191a189.728,189.728,0,0,1-15.349,30.894,201.9,201.9,0,0,1-20.62,27.715,63.318,63.318,0,0,0-5.017,6.112,17.728,17.728,0,0,0-3.061,7.037,8.194,8.194,0,0,0-.131,1.607,5.048,5.048,0,0,0,.276,1.58,4.669,4.669,0,0,0,2.884,2.658,9.2,9.2,0,0,0,4.216.457c-.145.109-.29.218-.435.322s-.29.2-.435.294c-1.141.8-2.264,1.621-3.4,2.441s-2.273,1.634-3.45,2.413c-2.481,1.648-5.127,3.285-7.817,4.839s-5.427,3.029-8.09,4.351c0,0-.5-.242-1.107-.547s-1.333-.674-1.786-.927c-.561-.29-1.122-.6-1.684-.911s-1.123-.629-1.684-.937c-.254-.145-.516-.29-.779-.439s-.525-.3-.779-.466a13.472,13.472,0,0,1-2.765-2.312c-.783-.817-1.326-1.5-1.326-1.5s.206-.475.528-1.171.759-1.612,1.221-2.5c2.508-4.791,4.959-9.751,7.313-14.753s4.61-10.047,6.729-15.01a162.928,162.928,0,0,0,7-19.116,82.118,82.118,0,0,0,3.328-19.932,16.606,16.606,0,0,0-.073-2.418,5.648,5.648,0,0,0-.724-2.255,3.987,3.987,0,0,0-2.541-1.782c-1.033-.282-2.206-.36-3.384-.559-1.72-.308-3.5-.665-5.283-.985s-3.571-.6-5.31-.767c-.235-.018-.462-.045-.688-.081s-.453-.082-.688-.136q-1.6-.381-3.175-.765c-1.046-.259-2.078-.521-3.092-.793-.217-.054-.435-.109-.652-.167s-.435-.123-.652-.195c-.743-.181-1.485-.38-2.223-.589s-1.472-.425-2.2-.643c-.308-.09-.625-.19-.942-.289s-.634-.2-.942-.29c-1.829-.6-3.64-1.25-5.456-1.988s-3.636-1.562-5.483-2.5c-.381-.2-.761-.4-1.137-.6s-.747-.4-1.109-.6c.235-.489-.847-1.858-1.925-3.227s-2.151-2.737-1.9-3.226c.6-1.141,2.541-1.384,4.5-1.614s3.939-.446,4.61-1.532a16.892,16.892,0,0,0,5.375-5.177,64.62,64.62,0,0,0,3.9-6.576c.345-.636.354-4.455.3-8.113s-.162-7.154-.056-7.144c4.014.367,9.91-.129,17.837-1.416s17.884-3.365,30.02-6.162c0,0-.113,2.525-.644,6.2a67.683,67.683,0,0,1-3.161,13.12,73.938,73.938,0,0,1-3.493,7.336,69.282,69.282,0,0,1-6.763,10.574c-.491.606.65.705,1.946.649s2.745-.269,2.872-.287q2.418-.271,4.836-.548t4.836-.575c4.545-.543,9.028-1.231,13.492-2.033s8.911-1.716,13.385-2.712a29.8,29.8,0,0,1,3.581-.756c1.372-.149,2.631,0,2.9,1.01a3.945,3.945,0,0,1,.1.887C2546.244-171.846,2546.225-171.547,2546.207-171.257Z" fill="#87bef5" opacity="0.74"/>
    <path id="Trazado_191473" data-name="Trazado 191473" d="M2495.712-31c0,.036,0,.081,0,.127a.4.4,0,0,1-.032.127,13.935,13.935,0,0,1-.561,3.355,5.649,5.649,0,0,1-1.757,2.73A55.281,55.281,0,0,1,2484.424-29c-2.875-1.662-5.7-3.428-8.634-4.967-1.811-.924-3.659-1.766-5.5-2.608s-3.681-1.685-5.474-2.608a42.633,42.633,0,0,1-5.2-3.175,25.1,25.1,0,0,1-4.469-4.07,13.477,13.477,0,0,1-1.155-1.608,7.47,7.47,0,0,1-.8-1.8,1.672,1.672,0,0,1-.086-.362.648.648,0,0,1,.049-.362s.082-.073.2-.163a3.15,3.15,0,0,1,.385-.272,24.11,24.11,0,0,0,3.658-2.481,32.07,32.07,0,0,0,3.224-3.025c.417-.471.761-1.223,1.2-1.788a1.449,1.449,0,0,1,1.738-.675,3.685,3.685,0,0,1,1.069.634c.362.28.725.6,1.069.851.09.072.181.136.267.195s.167.113.24.167a25.941,25.941,0,0,0,7.131,2.635,48.909,48.909,0,0,1,7.322,2.147,33.262,33.262,0,0,1,6.158,3.359,26.155,26.155,0,0,1,5.179,4.718,20.618,20.618,0,0,1,1.911,2.749,13.822,13.822,0,0,1,1.313,3.047,15.406,15.406,0,0,1,.593,3.7A31.457,31.457,0,0,1,2495.712-31Z" fill="url(#linear-gradient-2)"/>
    <path id="Trazado_191474" data-name="Trazado 191474" d="M2495.169-27.525c-.054.435-.109.879-.181,1.318a10.112,10.112,0,0,1-.29,1.29,5.212,5.212,0,0,1-.517,1.349,1.831,1.831,0,0,1-1.081.846,3.91,3.91,0,0,1-1.586.086,11.637,11.637,0,0,1-1.566-.335c-1.155-.309-2.313-.619-3.452-.982a25.423,25.423,0,0,1-3.333-1.3c-.693-.335-1.364-.711-2.023-1.107s-1.308-.812-1.955-1.228c-3.944-2.536-7.906-5.086-11.7-7.838a84.194,84.194,0,0,1-10.719-9.049,15.892,15.892,0,0,1-1.543-1.765,6.244,6.244,0,0,1-1.036-2.084c-.071-.276-.2-.543-.225-.747s.038-.344.35-.367c0,0,.42.181.889.393a12.508,12.508,0,0,1,1.177.582c.96.6,1.965,1.231,2.758,1.734s1.372.874,1.48.946q2.256,1.413,4.578,2.767c1.544.9,3.1,1.779,4.659,2.63,2.047,1.1,4.112,2.173,6.149,3.283s4.048,2.259,5.986,3.527c1.884,1.232,3.749,2.6,5.7,3.745a17.665,17.665,0,0,0,6.216,2.413,3.181,3.181,0,0,0,.648.054A1.384,1.384,0,0,0,2495.169-27.525Z" fill="#fff"/>
    <path id="Trazado_191475" data-name="Trazado 191475" d="M2546.639-390.5a48.734,48.734,0,0,1-.951,10.183,27.459,27.459,0,0,1-3.939,9.993,19.837,19.837,0,0,1-2.364,2.884c-.887.938-2.073,2.169-4.156,4.65a20.659,20.659,0,0,0-3.527,5.66,8.54,8.54,0,0,1-1.87,3.324c-.6.6-1.178,1.159-1.748,1.689s-1.132,1.027-1.694,1.5a51.136,51.136,0,0,1-9.178,6.471,27.247,27.247,0,0,1-6.434,2.585,3.624,3.624,0,0,1-2.547-.541,22.372,22.372,0,0,1-2.248-1.546c-5.27-3.84-7.92-2.5-9.7-.156s-2.678,5.7-4.453,5.9c-2.7.271-5.28.561-7.87.661a36.433,36.433,0,0,1-7.924-.48,35.959,35.959,0,0,1-7.656-2.142,11.531,11.531,0,0,1-5.891-4.994,10.045,10.045,0,0,1-1.023-3.129,18.52,18.52,0,0,1-.209-3.319,17.72,17.72,0,0,1,.123-2.631,2.537,2.537,0,0,1,1.507-1.9c.8-.38,1.576-.788,2.341-1.213s1.517-.87,2.26-1.322a55.52,55.52,0,0,0,8.381-6.294,55.474,55.474,0,0,0,7.05-7.761,46.221,46.221,0,0,0,2.744-4.338,36.152,36.152,0,0,1,2.8-4.283,54.739,54.739,0,0,1,3.917-4.347,54.034,54.034,0,0,1,4.378-3.912c.091-.072.19-.145.29-.217s.2-.145.29-.218a60.081,60.081,0,0,1,14.434-7.353,81.073,81.073,0,0,1,15.739-3.876,19.724,19.724,0,0,1,5.4-.172,7.588,7.588,0,0,1,4.668,2.273,20.266,20.266,0,0,1,1.436,2.187c.529.82,1.118,1.562,1.788,1.725.978.254,1.63-.679,2.2-1.512s1.046-1.567,1.68-.914a6.2,6.2,0,0,1,1.435,2.454,11.057,11.057,0,0,1,.485,3.051c.018.218.027.444.031.675S2546.639-390.732,2546.639-390.5Z" fill="url(#linear-gradient-3)"/>
    <g id="Grupo_131695" data-name="Grupo 131695">
      <path id="Trazado_191476" data-name="Trazado 191476" d="M2483.164-50.555c-.527.7-1.052,1.4-1.568,2.114s-1.025,1.424-1.521,2.148a.454.454,0,0,0-.052.387.536.536,0,0,0,.236.315.487.487,0,0,0,.387.05.578.578,0,0,0,.315-.234q.744-1.086,1.521-2.148t1.569-2.114a.432.432,0,0,0,.053-.386.559.559,0,0,0-.237-.316.474.474,0,0,0-.387-.049.646.646,0,0,0-.316.233Z" fill="#fff"/>
      <path id="Trazado_191477" data-name="Trazado 191477" d="M2487.568-47.628q-.792,1.052-1.569,2.113t-1.521,2.148a.459.459,0,0,0-.052.387.541.541,0,0,0,.236.316.489.489,0,0,0,.388.049.586.586,0,0,0,.315-.234q.744-1.084,1.521-2.147c.516-.71,1.041-1.413,1.568-2.114a.426.426,0,0,0,.053-.386.557.557,0,0,0-.237-.317.473.473,0,0,0-.387-.048.627.627,0,0,0-.315.233Z" fill="#fff"/>
      <path id="Trazado_191478" data-name="Trazado 191478" d="M2491.085-44.257q-.79,1.052-1.568,2.114T2488-39.995a.455.455,0,0,0-.052.387.534.534,0,0,0,.236.315.485.485,0,0,0,.388.05.581.581,0,0,0,.314-.234q.744-1.086,1.522-2.148c.516-.709,1.041-1.412,1.568-2.113a.434.434,0,0,0,.053-.387.558.558,0,0,0-.237-.316.474.474,0,0,0-.387-.049.647.647,0,0,0-.316.233Z" fill="#fff"/>
    </g>
    <path id="Trazado_191479" data-name="Trazado 191479" d="M2494.7-24.917a5.6,5.6,0,0,1-.19.575c-.072.186-.154.367-.245.548a4.4,4.4,0,0,1-1.227,1.476,3.032,3.032,0,0,1-1.743.661,4.16,4.16,0,0,1-1-.135c-.326-.082-.643-.191-.951-.3q-3.042-1.088-5.954-2.441t-5.71-2.956c-1.34-.779-2.653-1.6-3.957-2.45s-2.6-1.716-3.9-2.586q-3.1-2.091-6.2-4.165t-6.226-4.166a19.372,19.372,0,0,1-3.173-2.513,6.055,6.055,0,0,1-1.789-3.355,6.173,6.173,0,0,1,.009-1.92,5.681,5.681,0,0,1,.715-1.919c0,.018.39.271.987.656s1.4.9,2.237,1.445c.091.235.2.47.317.7s.245.458.372.675a23.3,23.3,0,0,0,3.694,4.609,41.611,41.611,0,0,0,4.564,3.8,94.891,94.891,0,0,0,8.889,5.718c3.056,1.753,6.18,3.374,9.295,4.931A33.325,33.325,0,0,0,2488.373-26a24.881,24.881,0,0,0,5.166,1.082,4.021,4.021,0,0,0,.512.028C2494.245-24.889,2494.463-24.9,2494.7-24.917Z" fill="#caced8"/>
    <path id="Trazado_191480" data-name="Trazado 191480" d="M2441.593-49.476v.036c-.181.87-.462,2.282-.765,3.686s-.63,2.8-.9,3.632c-.109.307-.218.833-.344,1.335a3.568,3.568,0,0,1-.453,1.2,1.277,1.277,0,0,1-.856.367c-.34.041-.7.032-.992.068a19.008,19.008,0,0,1-2.658.181,7.968,7.968,0,0,1-2.63-.471c-.507-.181-.77-.353-.91-.652a3.855,3.855,0,0,1-.177-1.413c-.018-.525-.036-1.041-.054-1.562s-.037-1.046-.055-1.589v-.254c-.072-1.847-.3-3.694-.511-5.537a52.683,52.683,0,0,1-.43-5.511,1.562,1.562,0,0,1,.063-.348c.036-.141.082-.3.118-.485.054-.163.108-.353.154-.557a4.834,4.834,0,0,0,.1-.638,7.689,7.689,0,0,1,.163-1.422,2.148,2.148,0,0,1,.815-1.041,4.866,4.866,0,0,1,3.754-1.128,6.565,6.565,0,0,1,3.672,1.78l.109.108.108.109a9.151,9.151,0,0,1,2.767,4.523A12.9,12.9,0,0,1,2441.593-49.476Z" fill="url(#linear-gradient-4)"/>
    <path id="Trazado_191481" data-name="Trazado 191481" d="M2444.672-65.812a65.151,65.151,0,0,1-1.249,6.846,31.352,31.352,0,0,1-2.423,6.55,4.359,4.359,0,0,1-.319.556,1.51,1.51,0,0,1-.447.437,1.5,1.5,0,0,1-.7.2,4.515,4.515,0,0,1-.753-.032q-1.577-.167-3.144-.412t-3.118-.573a4.529,4.529,0,0,1-.55-.143,1.526,1.526,0,0,1-.488-.266,1.516,1.516,0,0,1-.4-.567,4.7,4.7,0,0,1-.221-.679c-3.387-12.739-7.469-25.267-11.857-37.7s-9.083-24.763-13.7-37.11c-.708-1.894-1.416-3.793-2.057-5.711a60,60,0,0,1-1.663-5.829c-.24-1.063.473-1.35,1.408-1.373s2.09.216,2.738.205q1.25-.027,2.5-.027t2.5.027c4.636.055,9.282.317,13.923.639s9.278.7,13.9.991a6.269,6.269,0,0,1,1.046.123,2.069,2.069,0,0,1,.91.421,2.154,2.154,0,0,1,.557.783,7.416,7.416,0,0,1,.313.919,156.528,156.528,0,0,1,5.275,35.521A204.494,204.494,0,0,1,2444.672-65.812Z" fill="#61a0e0"/>
    <path id="Trazado_191482" data-name="Trazado 191482" d="M2444-28.674l-.177.072-.177.068a16.725,16.725,0,0,1-5.911.954,37.593,37.593,0,0,1-6.06-.6,10.382,10.382,0,0,1-2.243-.581,3.542,3.542,0,0,1-1.721-1.36,3.528,3.528,0,0,1-.463-1.314,8.76,8.76,0,0,1-.089-1.422c0-.684.026-1.369.073-2.051s.118-1.365.211-2.043a10.084,10.084,0,0,1,.4-1.665c.166-.528.348-1.05.5-1.621a3.067,3.067,0,0,0,.123-.625c.031-.253.058-.534.095-.788a4.16,4.16,0,0,1,.135-.552,1.29,1.29,0,0,1,.191-.389.841.841,0,0,1,.167-.172,1.1,1.1,0,0,1,.2-.118,1.552,1.552,0,0,1,.557-.163c.2-.027.421-.036.638-.055.67-.09,1.331-.181,1.992-.262s1.323-.154,1.993-.208a27.673,27.673,0,0,1,4.487-.123,4.8,4.8,0,0,1,3.7,1.861,16.913,16.913,0,0,1,1.988,3.958,19.676,19.676,0,0,1,.982,4.337.131.131,0,0,1,.032.073.385.385,0,0,1,.005.072c.036.254.063.5.081.738s.027.476.027.711a8.919,8.919,0,0,1,.023,1.312,1.881,1.881,0,0,1-.518,1.171,2.883,2.883,0,0,1-.572.454A4.772,4.772,0,0,1,2444-28.674Z" fill="url(#linear-gradient-5)"/>
    <path id="Trazado_191483" data-name="Trazado 191483" d="M2444.672-65.812q-.57,4.156-1.3,8.254t-1.6,8.118s-2.164-.108-4.523-.253-4.913-.326-5.692-.471c-.38-.072-.743-.118-1.01-.145s-.439-.036-.439-.036-.425-1.322-.9-2.8-.987-3.119-1.168-3.754c-.616-2.028-1.368-4.4-2.1-6.719s-1.449-4.582-1.993-6.393c-3.187-10.614-6.873-21.933-10.921-33.529s-8.458-23.468-13.094-35.186c-.689-1.739.2-2.4,1.539-2.631a28.691,28.691,0,0,1,4.256-.05q1.25-.027,2.5-.027t2.5.027a7.359,7.359,0,0,1,1.168,1.236,8.961,8.961,0,0,1,.9,1.481,16.174,16.174,0,0,1,1.2,3.93c.254,1.353.4,2.733.562,4.086a36.119,36.119,0,0,0,.728,3.956c.3,1.305.652,2.6.978,3.911.679,2.718,1.375,5.433,2.114,8.136s1.519,5.394,2.365,8.065a106.231,106.231,0,0,0,9.609,21.781A105.284,105.284,0,0,0,2444.672-65.812Z" fill="#87bef5" opacity="0.74"/>
    <path id="Trazado_191484" data-name="Trazado 191484" d="M2444.382-27.778a7.088,7.088,0,0,1-2.685.747,20.737,20.737,0,0,1-2.821.122c-1.612-.018-4.582.209-7.272-.045s-5.1-.987-5.587-2.925a6.518,6.518,0,0,1-.168-2,9.823,9.823,0,0,1,.349-2.024,7.437,7.437,0,0,0,3.6,1.318,38.081,38.081,0,0,0,3.9.2c1.449.054,2.907.045,4.365-.028s2.916-.208,4.365-.407c.525-.073,1.06-.154,1.594-.249s1.068-.2,1.594-.331c.036.254.063.5.081.738s.027.476.027.711a8.94,8.94,0,0,1-.113,2.355A2.715,2.715,0,0,1,2444.382-27.778Z" fill="#caced8"/>
    <path id="Trazado_191485" data-name="Trazado 191485" d="M2542.794-209.862a31.981,31.981,0,0,1,4.981-1.264,14.754,14.754,0,0,1,5.061.012,15.04,15.04,0,0,1,5.992,2.765,38.4,38.4,0,0,1,5.017,4.558c.749.781,1.5,1.58,2.167,2.43a13.3,13.3,0,0,1,1.712,2.738,8.39,8.39,0,0,1,.755,3.161,5.937,5.937,0,0,1-.7,3.1,6.844,6.844,0,0,1-2.381,2.4,19.91,19.91,0,0,1-3.139,1.544q-7.323,3.018-14.867,5.455t-15.248,4.274a7.093,7.093,0,0,1-1.11.2,2.344,2.344,0,0,1-1.083-.146,2.217,2.217,0,0,1-1.1-1.1,5.37,5.37,0,0,1-.47-1.6,32.987,32.987,0,0,1-.183-9.431,39.61,39.61,0,0,1,2.635-9.53,13.362,13.362,0,0,1,4.649-6.2A25.982,25.982,0,0,1,2542.794-209.862Z" fill="#87bef5" opacity="0.74"/>
    <path id="Trazado_191486" data-name="Trazado 191486" d="M2538.248-160.007a73.315,73.315,0,0,1-15.9,10.071,73.335,73.335,0,0,1-17.929,5.712,45.909,45.909,0,0,1-4.728.634,26.1,26.1,0,0,1-4.752-.047,7.01,7.01,0,0,1-1.106-.19,2.975,2.975,0,0,1-1-.462c-1.876-1.385-1.363-2.644-.131-3.592a10.428,10.428,0,0,1,4.18-1.726c2.336-.331,4.666-.719,6.988-1.15s4.636-.9,6.941-1.4q3.488-.758,6.949-1.627t6.894-1.851q1.716-.49,3.423-1.009t3.407-1.064c.9-.29,2.23-.563,3.514-.913A9.208,9.208,0,0,0,2538.248-160.007Z" fill="#61a0e0"/>
    <path id="Trazado_191487" data-name="Trazado 191487" d="M2546.639-390.5a48.734,48.734,0,0,1-.951,10.183,27.459,27.459,0,0,1-3.939,9.993,19.837,19.837,0,0,1-2.364,2.884c-.887.938-2.073,2.169-4.156,4.65a20.659,20.659,0,0,0-3.527,5.66,8.54,8.54,0,0,1-1.87,3.324c-.6.6-1.178,1.159-1.748,1.689s-1.132,1.027-1.694,1.5a39.213,39.213,0,0,1-.979-5.59,27.138,27.138,0,0,1-.171-4.554c.162-1.954.345-3.873.469-5.425a20.607,20.607,0,0,0,.116-3.229c-.054-.38-.02-.406.014-.436s.069-.064.015-.463c-.073-.8,0-.744.164-.678s.427.145.735-.6a25.216,25.216,0,0,1,2.494-4.645c.974-1.467,2.052-2.871,3.12-4.266,1.051-1.376,2.11-2.762,3.233-4.088a34.74,34.74,0,0,1,3.613-3.736,15.882,15.882,0,0,1,2.024-1.508,8.07,8.07,0,0,1,2.323-.991,4.865,4.865,0,0,1,1.051-.159,4.343,4.343,0,0,1,1.05.086,4.576,4.576,0,0,1,.543.186A3.853,3.853,0,0,1,2546.639-390.5Z" opacity="0.57" fill="url(#linear-gradient-6)"/>
    <path id="Trazado_191488" data-name="Trazado 191488" d="M2533.767-369.985a7.459,7.459,0,0,1,1.829.97,15.26,15.26,0,0,1,1.6,1.33c.156.147.389.4.643.63a1.55,1.55,0,0,0,.762.442,1.453,1.453,0,0,0,.839-.325,3.872,3.872,0,0,0,.693-.611c.28-.329.456-.539.61-.755a6.946,6.946,0,0,0,.473-.789,1.642,1.642,0,0,0,.184-.524,1.621,1.621,0,0,1,.052-.3c-.239-.181-.447-.347-.667-.522s-.452-.358-.741-.573a4.659,4.659,0,0,0-1.256-.7,4.19,4.19,0,0,0-1.442-.211,3.325,3.325,0,0,0-1.47.415c-.467.238-.916.542-1.355.81a3.2,3.2,0,0,0-.431.306A1.25,1.25,0,0,0,2533.767-369.985Z" fill="url(#linear-gradient-7)"/>
    <path id="Trazado_191489" data-name="Trazado 191489" d="M2481.879-372.955a17.033,17.033,0,0,0,2.8,3.725,20.987,20.987,0,0,0,9.346,5.62s.96-.906,2.13-2.015,2.554-2.421,3.4-3.231c2.038-1.95,3.229-3.084,4.176-3.9a22.376,22.376,0,0,1,2.706-2.011c1.114-.726,2.468-1.519,3.773-2.235s2.56-1.355,3.478-1.774c.4-.184.64.579.872,1.335s.461,1.505.85,1.292a3.738,3.738,0,0,1,2.182-.37,7.325,7.325,0,0,1,2.213.624,1.58,1.58,0,0,1,1,1c.133.406.164.906.384,1.563a2.833,2.833,0,0,1-.226,2.437c-.384.714-.975,1.41-1.473,2.329q-.7,1.291-1.478,2.541t-1.628,2.448a6.387,6.387,0,0,0,1.319,1.55,6.684,6.684,0,0,0,1.88.787,53.954,53.954,0,0,0,10.141-12.383c2.295-3.756,3.5-6.547,3.628-6.594a8.519,8.519,0,0,1,2.145.348c.941.21,1.844.407,1.909.273.4-.839,1.084-2.09,1.745-3.352a27.379,27.379,0,0,0,1.588-3.416s.526,0,1.178.046a8.5,8.5,0,0,1,1.938.308,21.337,21.337,0,0,1,4.421,2.068,11.1,11.1,0,0,1,3.889,3.925,15.014,15.014,0,0,0-1.344-5.724,12.987,12.987,0,0,0-3.649-4.848,13.811,13.811,0,0,1,5,.078,13.806,13.806,0,0,1,4.652,1.838c-1.988-4.25-5.5-8.3-9.5-11.892a84.929,84.929,0,0,0-12.466-9.117,54.943,54.943,0,0,0-7.333-3.891,22.921,22.921,0,0,0-8.024-1.844c-1.483-.055-2.61.253-3.483.17s-1.49-.559-1.951-2.181a11.793,11.793,0,0,0-3.924-5.85,11.8,11.8,0,0,0-6.52-2.667,28.174,28.174,0,0,1,3.243,4.741,28.234,28.234,0,0,1,2.221,5.3,11.764,11.764,0,0,0-5.528-2.989,11.76,11.76,0,0,0-6.28.219,32.483,32.483,0,0,1,3.068,4.164,10.579,10.579,0,0,1,1.579,4.75,10.428,10.428,0,0,1-.557,3.788,27.014,27.014,0,0,1-1.52,3.594c-1.915,3.9-4.06,7.806-6.333,11.623s-4.673,7.55-7.1,11.122l-2.819,4.148Z" fill="url(#linear-gradient-8)"/>
    <path id="Trazado_191490" data-name="Trazado 191490" d="M2567.431-266.215a38.578,38.578,0,0,1-.892,7.525,45.141,45.141,0,0,1-2.223,7.254,24.44,24.44,0,0,1-1.671,3.468,5.463,5.463,0,0,1-2.567,2.545,6.868,6.868,0,0,1-3.364-.534,35.393,35.393,0,0,1-3.337-1.35,25.178,25.178,0,0,1-8.4-11.722c-1.748-4.56-2.735-9.6-3.84-14.576a82.872,82.872,0,0,1-1.761-13.532c-.231-4.5-.159-9.022.059-13.694.217-4.365.721-8.717,1.171-13.078a127.866,127.866,0,0,0,.846-13.131c0-1.956-.1-4.136-.275-6.307s-.438-4.333-.764-6.253a9.142,9.142,0,0,0-2.14-4.614c-1-1.227-2.194-2.341-3.281-3.935a57.931,57.931,0,0,1-4.607-8.83c-1.506-3.524-2.687-7.111-2.65-9.212.108-.054.208-.108.3-.153a1.168,1.168,0,0,1,.276-.1c1.594-.544,2.617,1.1,3.55,3.192s1.775,4.65,3.007,5.936c.887-2.97-.643-8.014-1.726-12.492s-1.716-8.391.965-9.1c.489,1.232,1.014,3.233,1.7,5.33a23.38,23.38,0,0,0,2.649,5.9,2.281,2.281,0,0,0,.086-.607,5.551,5.551,0,0,0-.05-.769,35.148,35.148,0,0,0-1.417-5.352,32.852,32.852,0,0,1-1.445-5.95,8.091,8.091,0,0,1,.408-3.174c.38-1.109,1.023-2.024,1.983-2.006,0,0,.3,1.042.67,2.255s.815,2.6,1.1,3.287a.114.114,0,0,1,.031.055.193.193,0,0,1,.005.054.631.631,0,0,1,.05.054.1.1,0,0,1,.023.055,6.138,6.138,0,0,1-.082-1.019,6.634,6.634,0,0,1,.082-1.046,5.839,5.839,0,0,1,.421-1.893c.222-.489.52-.787.883-.751,0,0,.326.589.719,1.322s.856,1.612,1.128,2.192c.688,1.575,1.232,2.644,1.816,3.712s1.209,2.138,2.06,3.713a51.94,51.94,0,0,1,2.585,5.656,20.351,20.351,0,0,1,1.254,4.269c.091.8.182,1.612.25,2.454s.113,1.712.113,2.618c0,2.445-.018,4.853.013,7.258s.113,4.8.313,7.231a45.6,45.6,0,0,0,1.331,7.339c.607,2.432,1.295,4.85,1.82,7.259,1.232,5.524,2.662,10.948,4.1,16.368s2.889,10.835,4.157,16.341c.96,4.093,1.893,8.041,2.658,11.994a99.793,99.793,0,0,1,1.653,12.022c.09,1.068.162,2.137.208,3.219S2567.449-267.338,2567.431-266.215Z" fill="url(#linear-gradient-9)"/>
    <path id="Trazado_191491" data-name="Trazado 191491" d="M2567.585-266.214q-.011,1.285-.1,2.568t-.252,2.557a43.053,43.053,0,0,1-1.218,6.022,42.12,42.12,0,0,1-2.071,5.785,14.767,14.767,0,0,1-.749,1.505,6.456,6.456,0,0,1-1,1.331,4.4,4.4,0,0,1-4.354.9,23.91,23.91,0,0,1-4.463-1.765,25.178,25.178,0,0,1-8.4-11.722c-1.748-4.56-2.735-9.6-3.84-14.576-1-4.564-1.865-9.155-2.431-13.773a82.831,82.831,0,0,1-.612-13.937c.218-4.365.68-8.694,1.087-13.031s.761-8.685.761-13.086c0-1.956.081-3.975.081-5.986a35.616,35.616,0,0,0-.407-5.931,9.383,9.383,0,0,0-2.128-4.65c-1-1.246-2.183-2.377-3.27-3.971a46.234,46.234,0,0,1-4.219-8.92c-1.314-3.568-2.3-7.2-2.264-9.3.108-.054.208-.108.3-.153a1.168,1.168,0,0,1,.276-.1c.073.163.154.326.236.5s.163.353.235.552c.543,1.322.978,2.681,1.431,4.035a36.367,36.367,0,0,0,1.539,4.007,42.488,42.488,0,0,0,5.035,7.552,42.466,42.466,0,0,1,5.035,7.553,26.253,26.253,0,0,1,1.925,6.008,59.759,59.759,0,0,1,.864,6.308c.816,9.092.662,18.365,1.046,27.525s1.309,18.206,4.279,26.845a20.227,20.227,0,0,0,1.386,3.288,8.68,8.68,0,0,0,2.2,2.689,7.446,7.446,0,0,0,3.84,1.508,9.276,9.276,0,0,0,4.166-.53,11.938,11.938,0,0,0,3.083-1.684,15.524,15.524,0,0,0,2.568-2.445,2.423,2.423,0,0,0,.028,1.185c.084.534.2,1.08.214,1.257q.069.766.109,1.534t.052,1.536c0,.168,0,.336,0,.505S2567.586-266.382,2567.585-266.214Z" opacity="0.57" fill="url(#linear-gradient-10)"/>
    <g id="Grupo_131696" data-name="Grupo 131696">
      <path id="Trazado_191492" data-name="Trazado 191492" d="M2545.154-363.619a.249.249,0,0,1-.073.181.249.249,0,0,1-.181.073.252.252,0,0,1-.181-.073.252.252,0,0,1-.072-.181,16.821,16.821,0,0,0-.77-4.881c-.48-1.648-1.132-3.323-1.8-5.044-.4-1.014-.806-2.046-1.191-3.1s-.747-2.133-1.055-3.238a.631.631,0,0,1,.05.054.1.1,0,0,1,.023.055,6.138,6.138,0,0,1-.082-1.019,6.634,6.634,0,0,1,.082-1.046,36.989,36.989,0,0,0,1.172,4.152c.458,1.345.965,2.658,1.472,3.962.688,1.739,1.349,3.441,1.834,5.121A17.353,17.353,0,0,1,2545.154-363.619Z" fill="#e58066"/>
      <path id="Trazado_191493" data-name="Trazado 191493" d="M2540.409-362.1a.381.381,0,0,1-.055.2.263.263,0,0,1-.163.123h-.036a.283.283,0,0,1-.181-.055.2.2,0,0,1-.072-.163q-.354-1.657-.711-3.074t-.738-2.613a2.281,2.281,0,0,0,.086-.607,5.551,5.551,0,0,0-.05-.769c.344.924.67,1.956.987,3.111S2540.1-363.51,2540.409-362.1Z" fill="#e58066"/>
    </g>
    <path id="Trazado_191494" data-name="Trazado 191494" d="M2554.029-243.177c-.489.507-.979,1.005-1.477,1.5s-1,.983-1.53,1.472c-.181.163-.362.326-.548.489s-.376.326-.575.489a12.582,12.582,0,0,1-2.119,1.53,5.312,5.312,0,0,1-2.445.716,5.525,5.525,0,0,1-2.2-.5,13.417,13.417,0,0,1-2.006-1.127,129.312,129.312,0,0,1-19.755-15.2,128.913,128.913,0,0,1-16.468-18.705,5.354,5.354,0,0,1-.28,2.531c-.3,1.209-.734,2.631-1.1,3.808-.145.507-.272.969-.372,1.349s-.172.68-.208.861q-.326,1.711-.593,3.445t-.457,3.473c-.091.526-.163,1.06-.227,1.594s-.117,1.069-.172,1.594q-.462,4.917-.516,9.871c-.036,3.3.063,6.592.3,9.87.217,3.279.579,6.557,1.077,9.812s1.132,6.489,1.893,9.676a28.871,28.871,0,0,0,2.98,6.783c1.15,2.011,2.164,3.469,2.164,3.469a12.958,12.958,0,0,1-.213,2.06,10.762,10.762,0,0,1-1.49,3.989c-.471.706-.914,1.358-1.281,1.874a10.383,10.383,0,0,1-.82,1.06c-.4.362-.806.724-1.222,1.082s-.842.711-1.277,1.055a174.515,174.515,0,0,1-28.5,17.414,176.081,176.081,0,0,1-31.3,11.709c-2.21.6-4.646,1.476-7.045,1.956a10.719,10.719,0,0,1-6.829-.434,27.926,27.926,0,0,1-6.348-4.515,71.981,71.981,0,0,1-5.424-5.628,83.306,83.306,0,0,1-9.033-12.492,151.521,151.521,0,0,1-7.159-13.661,170.069,170.069,0,0,1-10.853-30.472,148.671,148.671,0,0,1-4.469-32.049c-.561-21.407,6.149-45.74,19.176-64.35s32.369-31.5,57.073-30.011a38.071,38.071,0,0,0,2.921,10.483c1.544,3.183,3.8,5.727,7.186,6.651a12.038,12.038,0,0,0,4.22.263,31.516,31.516,0,0,0,4.22-.77c3.187-.761,6.357-1.639,9.49-2.631s6.23-2.1,9.273-3.31a22.436,22.436,0,0,0,1.947,2.486,27.211,27.211,0,0,0,2.219,2.187,43.4,43.4,0,0,0,5.61,4.211c1.987,1.286,4.061,2.49,6.126,3.722.308.181.607.353.905.525s.6.344.906.525c1.322.815,2.626,1.649,3.885,2.527a42.089,42.089,0,0,1,3.613,2.8A51.514,51.514,0,0,1,2534.6-313.7c2.74,4.569,5.23,9.359,8.2,13.76a68.063,68.063,0,0,0,9.509,11.225,67.886,67.886,0,0,0,11.682,8.915c.525.326,1.059.643,1.6.951s1.082.607,1.626.9a41.782,41.782,0,0,1-2.952,19.057A50.484,50.484,0,0,1,2554.029-243.177Z" fill="#0b1d49"/>
    <g id="Grupo_131697" data-name="Grupo 131697">
      <path id="Trazado_191495" data-name="Trazado 191495" d="M2517.407-331.453a22.185,22.185,0,0,0-5.9.132,19.953,19.953,0,0,0-5.407,1.68,30.146,30.146,0,0,0-8.073,5.65,26.064,26.064,0,0,0-5.438,7.607c-2.481,5.4-3.015,11.3-2.571,17.233a99.7,99.7,0,0,0,3.3,17.4l-.507.091-.507.09a97.682,97.682,0,0,1-3.328-17.658c-.431-6.031.14-12.045,2.676-17.55a26.529,26.529,0,0,1,5.619-7.879,30.937,30.937,0,0,1,8.362-5.814,20.793,20.793,0,0,1,4.777-1.6,22.38,22.38,0,0,1,5.185-.43c.308.181.607.353.905.525S2517.1-331.634,2517.407-331.453Z" fill="#0f2771"/>
    </g>
    <path id="Trazado_191496" data-name="Trazado 191496" d="M2511.143-327.9a8.444,8.444,0,0,1,6.7-1.164,13.213,13.213,0,0,1,6.078,3.433,29.612,29.612,0,0,1,4.527,5.788c1.294,2.072,2.458,4.241,3.747,6.371,1.866,3.083,3.787,6.089,5.808,9.019s4.143,5.782,6.409,8.56q2.02,2.475,4.149,4.858t4.4,4.628c1.4,1.382,2.939,3,4.572,4.49a23.673,23.673,0,0,0,5.139,3.75,5.652,5.652,0,0,1,.493.381,1.783,1.783,0,0,1,.39.474,1.7,1.7,0,0,1,.181.6,3.523,3.523,0,0,1,.013.636,8.04,8.04,0,0,1-1.674,4.388,9.689,9.689,0,0,1-3.72,2.967,11.786,11.786,0,0,1-4.607.995,15.819,15.819,0,0,1-4.716-.65,23.474,23.474,0,0,1-4.385-1.813,47.221,47.221,0,0,1-4.085-2.468,84.258,84.258,0,0,1-19.827-18.266,69.975,69.975,0,0,1-12.333-23.989,18.886,18.886,0,0,1-.867-7.064A7.826,7.826,0,0,1,2511.143-327.9Z" fill="#87bef5" opacity="0.74"/>
    <path id="Trazado_191497" data-name="Trazado 191497" d="M2520.879-303.014c.8-2.824-1.353-6.3-3.32-9.685s-3.746-6.659-2.2-9.079c1.092-1.708,2.921-1.147,4.647.073a20.082,20.082,0,0,1,4.033,4.031,24.835,24.835,0,0,1,3.085,5.676,12.846,12.846,0,0,1,.982,5.961c-.336,2.579-1.76,3.929-3.292,4.338A3.588,3.588,0,0,1,2520.879-303.014Z" fill="#87bef5" opacity="0.74"/>
    <path id="Trazado_191498" data-name="Trazado 191498" d="M2551.022-240.207c-.181.163-.362.326-.548.489s-.376.326-.575.489a12.582,12.582,0,0,1-2.119,1.53,5.312,5.312,0,0,1-2.445.716,5.525,5.525,0,0,1-2.2-.5,13.417,13.417,0,0,1-2.006-1.127,129.312,129.312,0,0,1-19.755-15.2,128.913,128.913,0,0,1-16.468-18.705,2.061,2.061,0,0,1,.014,1.132,19.093,19.093,0,0,1-.448,1.947c-.091.362-.191.743-.3,1.123s-.213.761-.321,1.123c-.055.181-.109.353-.163.521l-.163.493c-.145.507-.272.969-.372,1.349s-.172.68-.208.861q-.326,1.711-.593,3.445t-.457,3.473c-.363-.652-.7-1.3-1.019-1.96s-.629-1.318-.937-1.988c-2.083-4.474-3.94-8.1-5.515-11.777a60.155,60.155,0,0,1-3.831-12.13c-.561-2.789-1.023-5.714-1.34-8.626a75.192,75.192,0,0,1-.471-8.544c0-.761.018-1.512.054-2.246s.091-1.449.163-2.137a.9.9,0,0,1,.023-.2c.014-.063.032-.127.05-.2.054-.29.117-.58.181-.87s.127-.579.181-.869a23.4,23.4,0,0,1,1-2.875,9.791,9.791,0,0,0,.779-2.957A66.728,66.728,0,0,0,2495-300.4a89.034,89.034,0,0,0,6.393,13.1,138.325,138.325,0,0,0,8.16,12.243c2.916,3.949,5.986,7.788,9.083,11.592,1.539,1.865,7.616,6.864,14.317,11.8S2546.983-241.837,2551.022-240.207Z" fill="#0f2771"/>
    <path id="Trazado_191499" data-name="Trazado 191499" d="M2489.008-306.459c-.072.688-.126,1.4-.163,2.137s-.054,1.485-.054,2.246a.716.716,0,0,0-.018-.145.7.7,0,0,1-.018-.145,9.648,9.648,0,0,1-.037-2.046A19.311,19.311,0,0,1,2489.008-306.459Z" fill="url(#linear-gradient-11)"/>
    <path id="Trazado_191500" data-name="Trazado 191500" d="M2489.045-307.038a.574.574,0,0,0,0,.077.365.365,0,0,0,.032.1c-.018.072-.036.136-.05.2a.9.9,0,0,0-.023.2c0-.109,0-.208,0-.3A1.677,1.677,0,0,1,2489.045-307.038Z" fill="url(#linear-gradient-12)"/>
    <path id="Trazado_191501" data-name="Trazado 191501" d="M2505.6-195.4c-.4.362-.806.724-1.222,1.082s-.842.711-1.277,1.055a174.515,174.515,0,0,1-28.5,17.414,176.081,176.081,0,0,1-31.3,11.709c-2.21.6-4.646,1.476-7.045,1.956a10.719,10.719,0,0,1-6.829-.434,27.926,27.926,0,0,1-6.348-4.515,71.981,71.981,0,0,1-5.424-5.628,83.306,83.306,0,0,1-9.033-12.492,151.521,151.521,0,0,1-7.159-13.661,170.069,170.069,0,0,1-10.853-30.472,148.671,148.671,0,0,1-4.469-32.049c-.561-21.407,6.149-45.74,19.176-64.35s32.369-31.5,57.073-30.011a38.071,38.071,0,0,0,2.921,10.483c1.544,3.183,3.8,5.727,7.186,6.651a12.038,12.038,0,0,0,4.22.263,31.516,31.516,0,0,0,4.22-.77c3.187-.761,6.357-1.639,9.49-2.631s6.23-2.1,9.273-3.31a22.436,22.436,0,0,0,1.947,2.486,27.211,27.211,0,0,0,2.219,2.187,9.519,9.519,0,0,1-.874.969,6.929,6.929,0,0,1-1.01.806c-1.286.8-2.608,1.53-3.953,2.219s-2.712,1.331-4.088,1.946a74.587,74.587,0,0,1-17.51,5.194,75.254,75.254,0,0,1-18.243.82c-.833-.073-5.714-.924-10.386-1.87s-9.138-1.988-9.138-2.441c-4.292,10.124-6.383,36.985-.632,64.719s19.343,56.341,46.418,69.958a26.68,26.68,0,0,0,10.308,2.467C2498.355-195.4,2502.049-195.526,2505.6-195.4Z" fill="#0b2463"/>
    <path id="Trazado_191502" data-name="Trazado 191502" d="M2502.23-341.994l-.295.245c-.185.154-.448.371-.756.625-.453.326-1,.724-1.575,1.1a15,15,0,0,1-1.685,1c-.6.271-1.476.688-2.585,1.127a29.142,29.142,0,0,1-3.971,1.263,48.417,48.417,0,0,1-6.442,1.072,45.5,45.5,0,0,1-6.541.184,22.05,22.05,0,0,1-4.88-.753,15.594,15.594,0,0,1-4.468-2.006,16.693,16.693,0,0,1-4.445-4.514,31.629,31.629,0,0,1-3.018-5.7,22.983,22.983,0,0,1-.992-2.755,10.552,10.552,0,0,1-.417-2.869,2.674,2.674,0,0,1,.028-.41,1.088,1.088,0,0,1,.133-.38,1.116,1.116,0,0,1,.244-.274,3.273,3.273,0,0,1,.3-.217l2.263-1.493,2.264-1.494c.061,1.056.087,2.162.193,3.255a12.31,12.31,0,0,0,.671,3.172,11.762,11.762,0,0,0,1.508,2.821,11.475,11.475,0,0,0,2.4,2.467,12.29,12.29,0,0,0,5.307,1.979,36.022,36.022,0,0,0,5.741.376,23.546,23.546,0,0,0,5.207-.525c1.549-.335,3.07-.815,5.044-1.4.87-.271,2.555-.908,4.023-1.477s2.718-1.069,2.718-1.069a14.347,14.347,0,0,1,1.914,1.975A8.818,8.818,0,0,1,2502.23-341.994Z" fill="#bbdbfa" opacity="0.74"/>
    <path id="Trazado_191503" data-name="Trazado 191503" d="M2521.979-370.766c0-.04-.011-.08-.017-.12s-.011-.08-.018-.12a10.979,10.979,0,0,0-.234-1.083c-.093-.358-.2-.714-.295-1.069s-.2-.679-.311-1.014-.239-.665-.38-.99a8.837,8.837,0,0,0-1.078-1.849,7.509,7.509,0,0,0-1.526-1.5,3.969,3.969,0,0,0-3.948-.488,6.773,6.773,0,0,0-3.14,2.728,8.275,8.275,0,0,0-1.132,4.562,11.772,11.772,0,0,0,1.081,4.622,8.882,8.882,0,0,0,1.787,2.586,6,6,0,0,0,2.688,1.578.653.653,0,0,0,.414.028,1.088,1.088,0,0,0,.322-.3q.2-.222.394-.445l.392-.447.818-.93.816-.932q.816-.932,1.629-1.866t1.623-1.87a.717.717,0,0,0,.193-.516C2522.054-370.37,2522.006-370.553,2521.979-370.766Z" fill="url(#linear-gradient-13)"/>
    <path id="Trazado_191504" data-name="Trazado 191504" d="M2514.427-376.943a2.088,2.088,0,0,1,2.568-1.136,4.128,4.128,0,0,1,2.5,1.825c.139.244.288.494.414.754a3.048,3.048,0,0,1,.277.811,1.587,1.587,0,0,1-.057.8.576.576,0,0,1-.608.4,1.724,1.724,0,0,1-.756-.3,5.783,5.783,0,0,0-.727-.424,7.466,7.466,0,0,0-.889-.3c-.3-.083-.611-.151-.911-.208a3.18,3.18,0,0,1-.806-.243,1.98,1.98,0,0,1-.656-.518,2.221,2.221,0,0,1-.409-.732A.787.787,0,0,1,2514.427-376.943Z" fill="url(#linear-gradient-14)"/>
    <path id="Trazado_191505" data-name="Trazado 191505" d="M2519.9-369.144a3.606,3.606,0,0,0-.579-1.178,2.171,2.171,0,0,0-.98-.757,1.14,1.14,0,0,0-1.039-.254,3.071,3.071,0,0,0-1.077.4,3.357,3.357,0,0,0-.87.8,3.09,3.09,0,0,0-.545,1.064,5.377,5.377,0,0,0-.21,1.123,1.471,1.471,0,0,0,.254,1.093,4.059,4.059,0,0,1-1.02-1.426,5.651,5.651,0,0,1-.46-1.7,3.407,3.407,0,0,1,.152-1.343,3.783,3.783,0,0,1,.649-1.2,2.221,2.221,0,0,1,1.241-.851,2.735,2.735,0,0,1,1.53.075,3.871,3.871,0,0,1,1.859,1.278,5.29,5.29,0,0,1,1,2.049.585.585,0,0,1,.029.122.577.577,0,0,1,0,.133c.015.1.023.191.032.285S2519.886-369.241,2519.9-369.144Z" fill="url(#linear-gradient-15)"/>
    <path id="Trazado_191506" data-name="Trazado 191506" d="M2501.179-341.124c-.453.326-1,.724-1.575,1.1a15,15,0,0,1-1.685,1c-.6.271-1.476.688-2.585,1.127a29.142,29.142,0,0,1-3.971,1.263c-2.029.508-3.568.834-5.062,1.078s-2.943.407-4.791.589a33.914,33.914,0,0,1-5.8.04,35.551,35.551,0,0,1-5.719-.91,13.313,13.313,0,0,1-5.782-2.988,16.616,16.616,0,0,1-3.853-5.379,23.063,23.063,0,0,1-1.82-5.728,20.819,20.819,0,0,1-.245-5.972,11.379,11.379,0,0,1,1.116-.894,13.2,13.2,0,0,1,2.869-1.569,29.394,29.394,0,0,1,3.011-.978c.762-.2,1.227-.29,1.227-.29-.055.235-.236,1.159-.412,2.169s-.349,2.105-.385,2.685a6.534,6.534,0,0,0,.109,1.43,8.743,8.743,0,0,0,.434,1.54v.072a13.056,13.056,0,0,0,1.263,5.384,13.694,13.694,0,0,0,3.3,4.433,18.073,18.073,0,0,0,7,3.726,26.963,26.963,0,0,0,8,.983,33.688,33.688,0,0,0,7.9-1.06A35.156,35.156,0,0,0,2501.179-341.124Z" fill="#0f2771"/>
    <path id="Trazado_191507" data-name="Trazado 191507" d="M2492.787-343.593a5.725,5.725,0,0,0,3.143-.944,4.135,4.135,0,0,1,3.033-.675c.713.22.686.652.414,1.073a4.021,4.021,0,0,1-1.057,1,7.646,7.646,0,0,1-1.734.816,6.06,6.06,0,0,1-2.034.337,2.513,2.513,0,0,1-1.861-.679A.569.569,0,0,1,2492.787-343.593Z" fill="#87bef5" opacity="0.74"/>
    <g id="Grupo_131698" data-name="Grupo 131698">
      <path id="Trazado_191508" data-name="Trazado 191508" d="M2525.137-409.689a.471.471,0,0,0-.192.265,1.119,1.119,0,0,0-.021.453c.04.332.08.667.145.995a4.05,4.05,0,0,0,.3.955,10.668,10.668,0,0,0,.952,1.6c.356.5.743.984,1.139,1.471a8.232,8.232,0,0,0,.572.654,2.65,2.65,0,0,0,.7.512,2.283,2.283,0,0,0,.707.194c.243.034.49.051.733.093,1.087.189,2.175.379,3.254.607a30.6,30.6,0,0,1,3.2.835,18.665,18.665,0,0,1,3.05,1.285,13.249,13.249,0,0,1,2.695,1.892,16.457,16.457,0,0,0-4.665-2.073,16.49,16.49,0,0,0-5.075-.558,2.513,2.513,0,0,0-.4.044.887.887,0,0,0-.356.154c-.527.4-.126.982.473,1.485a8.085,8.085,0,0,0,1.659,1.044,13.387,13.387,0,0,0,1.916.616c.651.165,1.309.307,1.959.474,1.856.472,3.677.992,5.451,1.632a32.7,32.7,0,0,1,5.169,2.357,1.285,1.285,0,0,1-.329-.384c-.108-.167-.21-.343-.286-.44q-.2-.255-.41-.506t-.42-.5q-.415-.483-.85-.947t-.887-.912c-1.04-.951-2.086-1.889-3.16-2.792s-2.178-1.773-3.332-2.586a19.334,19.334,0,0,1,2.5,1.2c.8.455,1.58.959,2.336,1.489q.578.4,1.141.826t1.12.854c.1.073.189.147.284.221l.283.221c.062.048.15.138.24.22a.738.738,0,0,0,.259.175c.165.04.2-.037.177-.146a1.468,1.468,0,0,0-.142-.343c-.1-.2-.212-.4-.327-.59s-.236-.383-.362-.569c-.253-.376-.527-.737-.815-1.086s-.592-.686-.905-1.012c-.36-.376-.733-.738-1.113-1.092s-.77-.7-1.162-1.041a41.87,41.87,0,0,0-3.7-2.931,22.659,22.659,0,0,0-4.111-2.285,29.156,29.156,0,0,0-4.227-1.412,27.22,27.22,0,0,0-4.4-.727,2.133,2.133,0,0,0-.447,0A.742.742,0,0,0,2525.137-409.689Z" fill="#97aad3"/>
    </g>
    <path id="Trazado_191509" data-name="Trazado 191509" d="M2515.678-417.627a6.932,6.932,0,0,0,.926-2.416,6.927,6.927,0,0,0-.017-2.588,7.5,7.5,0,0,0-.916-2.352,4.887,4.887,0,0,0-1.744-1.786,36.091,36.091,0,0,1,1.67,4.415A9.29,9.29,0,0,1,2515.678-417.627Z" fill="url(#linear-gradient-16)"/>
    <g id="Grupo_131699" data-name="Grupo 131699">
      <path id="Trazado_191510" data-name="Trazado 191510" d="M2433.626-128.007v95.7h-3.333v-95.7h3.333Z" fill="#fff"/>
    </g>
    <path id="Trazado_191511" data-name="Trazado 191511" d="M2455.344-32.2h-46.773v-1.231h46.773V-32.2Z" fill="#a4a4a5"/>
    <path id="Trazado_191512" data-name="Trazado 191512" d="M2517.99-135c-.308.308-.625.6-.956.869a11.51,11.51,0,0,1-1.037.761,17.524,17.524,0,0,1-4.446,2.249c-1.6.58-3.263,1.03-4.8,1.473-1.62.466-3.254.878-4.9,1.252s-3.294.711-4.948,1.028q-1.5.286-3.007.556c-1,.181-2.006.357-3.01.535-.957.168-1.9.372-2.854.53a16.242,16.242,0,0,1-2.873.259c-2.1-.026-4.192-.116-6.285-.256s-4.181-.329-6.266-.553c-3.913-.419-7.807-.971-11.7-1.555s-7.775-1.2-11.671-1.743c-7.624-1.068-15.25-2.135-22.864-3.272s-15.218-2.342-22.8-3.685c-7.957-1.411-15.93-2.987-23.738-5.08a132.476,132.476,0,0,1-22.747-8.174,118.452,118.452,0,0,1-25.049-16.286,160.489,160.489,0,0,1-21-21.448,160.9,160.9,0,0,1-14-19.851,119.66,119.66,0,0,1-10.271-21.934,104.593,104.593,0,0,1-5.653-26.928c-.579-9.535.657-18.986,5.233-26.428a27.414,27.414,0,0,1,3.015-4.13,14.837,14.837,0,0,1,3.505-2.934c1.739-1.014,4.292-1.258,6.918-1.254s5.325.258,7.354.24q3.857-.054,7.715-.005t7.716.186q15.458.516,30.825,2.346,15.349,1.833,30.5,5.007c1.721.345,3.432.652,5.126,1.019a41.524,41.524,0,0,1,5.016,1.372c.326.127.662.254,1,.385s.67.267,1,.412a15.082,15.082,0,0,1,2.146,1.123,7.3,7.3,0,0,1,1.766,1.557,7.223,7.223,0,0,1,.924,1.608,13.333,13.333,0,0,1,.6,1.8,23.436,23.436,0,0,1,.539,3.409c.1,1.146.149,2.3.186,3.437a176.01,176.01,0,0,0,7.335,44.558,120.152,120.152,0,0,0,20.7,39.913c.2.236.39.471.58.707s.38.471.579.706a92.084,92.084,0,0,0,17.659,16.292,86.834,86.834,0,0,0,21.245,11.02,75.353,75.353,0,0,0,16.93,3.836,66.037,66.037,0,0,0,17.337-.431,45.347,45.347,0,0,1,7.9-.824,9.638,9.638,0,0,1,6.842,2.491,8.117,8.117,0,0,1,2.091,6.932A12.1,12.1,0,0,1,2517.99-135Z" fill="#d7e6f2"/>
    <path id="Trazado_191513" data-name="Trazado 191513" d="M2517.99-135c-.308.308-.625.6-.956.869a11.51,11.51,0,0,1-1.037.761,48.889,48.889,0,0,1-10.685,2.332,76.443,76.443,0,0,1-11.012.348,107.716,107.716,0,0,1-51.147-15.191,107.75,107.75,0,0,1-37.889-37.549,130.206,130.206,0,0,1-8.309-16.971c-2.386-5.841-4.442-11.827-6.325-17.84a150.257,150.257,0,0,1-5.9-24.907,68.741,68.741,0,0,1,.865-25.153,24.686,24.686,0,0,1,2.916-7.285,13.835,13.835,0,0,1,5.523-5.248c.326.127.662.254,1,.385s.67.267,1,.412a15.082,15.082,0,0,1,2.146,1.123,7.3,7.3,0,0,1,1.766,1.557,7.223,7.223,0,0,1,.924,1.608,13.333,13.333,0,0,1,.6,1.8,23.436,23.436,0,0,1,.539,3.409c.1,1.146.149,2.3.186,3.437a176.01,176.01,0,0,0,7.335,44.558,120.152,120.152,0,0,0,20.7,39.913c.2.236.39.471.58.707s.38.471.579.706a90.924,90.924,0,0,0,32.959,24.962c12.664,5.565,26.538,7.929,40.212,5.755a45.347,45.347,0,0,1,7.9-.824,9.638,9.638,0,0,1,6.842,2.491,8.117,8.117,0,0,1,2.091,6.932A12.1,12.1,0,0,1,2517.99-135Z" fill="#fff"/>
    <path id="Trazado_191514" data-name="Trazado 191514" d="M2381.306-279.964a8.566,8.566,0,0,1,1.125.376,2.817,2.817,0,0,1,.959.648,2.513,2.513,0,0,1,.385,2.654,6.077,6.077,0,0,1-1.791,2.521,16.928,16.928,0,0,1-8.486,3.569,43.842,43.842,0,0,1-9.588.2q-6.292-.428-12.543-1.328t-12.409-2.26c-3.565-.787-8.051-1.54-12.388-2.652s-8.526-2.583-11.5-4.808c-4.549-3.4-2.753-5.14.666-6.029a49.306,49.306,0,0,1,10.405-.952q6.505-.064,13,.408t12.932,1.393q7.4,1.059,14.717,2.654T2381.306-279.964Z" fill="#fff"/>
    <g id="Grupo_131700" data-name="Grupo 131700">
      <path id="Trazado_191515" data-name="Trazado 191515" d="M2456.266-24.917a5.269,5.269,0,0,1-.431,2.092,5.485,5.485,0,0,1-1.163,1.712,5.541,5.541,0,0,1-1.653,1.05,5.29,5.29,0,0,1-2.006.4,5.236,5.236,0,0,1-3.713-1.54,5.24,5.24,0,0,1-1.539-3.713,5.248,5.248,0,0,1,1.2-3.346,5.2,5.2,0,0,1,3-1.8,4.511,4.511,0,0,1,.511-.082,5.338,5.338,0,0,1,.539-.027,5.237,5.237,0,0,1,3.713,1.54A5.234,5.234,0,0,1,2456.266-24.917Z" fill="#acafb5"/>
      <path id="Trazado_191516" data-name="Trazado 191516" d="M2437.466-24.917a5.29,5.29,0,0,1-.435,2.106,5.075,5.075,0,0,1-1.2,1.7,5.162,5.162,0,0,1-1.635,1.064,5.25,5.25,0,0,1-1.988.385,5.235,5.235,0,0,1-3.712-1.54,5.237,5.237,0,0,1-1.54-3.713,5.23,5.23,0,0,1,1.187-3.332,5.252,5.252,0,0,1,2.979-1.811.1.1,0,0,1,.018-.014c.009,0,.018,0,.018.014a4.48,4.48,0,0,1,.512-.082,5.308,5.308,0,0,1,.538-.027,5.234,5.234,0,0,1,3.713,1.54A5.234,5.234,0,0,1,2437.466-24.917Z" fill="#acafb5"/>
      <path id="Trazado_191517" data-name="Trazado 191517" d="M2419.064-24.917a5.29,5.29,0,0,1-.434,2.106,5.075,5.075,0,0,1-1.195,1.7,5.176,5.176,0,0,1-1.635,1.064,5.251,5.251,0,0,1-1.988.385,5.236,5.236,0,0,1-3.713-1.54,5.239,5.239,0,0,1-1.539-3.713,5.233,5.233,0,0,1,1.186-3.332,5.258,5.258,0,0,1,2.979-1.811.133.133,0,0,1,.019-.014c.009,0,.018,0,.018.014a4.506,4.506,0,0,1,.511-.082,5.347,5.347,0,0,1,.539-.027,5.236,5.236,0,0,1,3.713,1.54A5.232,5.232,0,0,1,2419.064-24.917Z" fill="#acafb5"/>
    </g>
    <g id="Grupo_131701" data-name="Grupo 131701">
      <path id="Trazado_191518" data-name="Trazado 191518" d="M2456.266-24.917a5.269,5.269,0,0,1-.431,2.092,5.485,5.485,0,0,1-1.163,1.712,4.022,4.022,0,0,1-.6.113,5.608,5.608,0,0,1-.63.032,5.252,5.252,0,0,1-3.713-1.535,5.186,5.186,0,0,1-1.539-3.681,5.168,5.168,0,0,1,.48-2.183,4.886,4.886,0,0,1,1.295-1.693,4.511,4.511,0,0,1,.511-.082,5.338,5.338,0,0,1,.539-.027,5.237,5.237,0,0,1,3.713,1.54A5.234,5.234,0,0,1,2456.266-24.917Z" fill="#caced8"/>
      <path id="Trazado_191519" data-name="Trazado 191519" d="M2437.466-24.917a5.29,5.29,0,0,1-.435,2.106,5.075,5.075,0,0,1-1.2,1.7,3.408,3.408,0,0,1-.584.113,5.5,5.5,0,0,1-.611.032,5.251,5.251,0,0,1-3.713-1.535,5.188,5.188,0,0,1-1.54-3.681,5.144,5.144,0,0,1,.476-2.169,5.254,5.254,0,0,1,1.263-1.707.1.1,0,0,1,.018-.014c.009,0,.018,0,.018.014a4.48,4.48,0,0,1,.512-.082,5.308,5.308,0,0,1,.538-.027,5.234,5.234,0,0,1,3.713,1.54A5.234,5.234,0,0,1,2437.466-24.917Z" fill="#caced8"/>
      <path id="Trazado_191520" data-name="Trazado 191520" d="M2419.064-24.917a5.29,5.29,0,0,1-.434,2.106,5.075,5.075,0,0,1-1.195,1.7,3.429,3.429,0,0,1-.585.113,5.49,5.49,0,0,1-.611.032,5.254,5.254,0,0,1-3.713-1.535,5.187,5.187,0,0,1-1.539-3.681,5.158,5.158,0,0,1,.475-2.169,5.269,5.269,0,0,1,1.263-1.707.133.133,0,0,1,.019-.014c.009,0,.018,0,.018.014a4.506,4.506,0,0,1,.511-.082,5.347,5.347,0,0,1,.539-.027,5.236,5.236,0,0,1,3.713,1.54A5.232,5.232,0,0,1,2419.064-24.917Z" fill="#caced8"/>
    </g>
  </g>
</svg>
