<svg xmlns="http://www.w3.org/2000/svg" width="170" height="170.841" viewBox="0 0 170 170.841">
  <g id="programacion-web" transform="translate(-1.125 -1.002)">
    <g id="Grupo_133314" data-name="Grupo 133314" transform="translate(43.321 91.489)">
      <g id="Grupo_133310" data-name="Grupo 133310">
        <path id="Trazado_192190" data-name="Trazado 192190" d="M82.924,75.213a32.13,32.13,0,0,1-2.537,6.09L84.6,87.672,73.662,98.608,67.318,94.4A31.684,31.684,0,0,1,61.2,96.933l-1.523,7.485h-15.5l-1.522-7.485a34.02,34.02,0,0,1-6.115-2.512l-6.318,4.187L19.259,87.672,23.5,81.3a32.132,32.132,0,0,1-2.537-6.09L13.474,73.69v-15.5l7.485-1.523A32.884,32.884,0,0,1,23.5,50.6L19.259,44.23,30.221,33.268l6.318,4.212a34.031,34.031,0,0,1,6.115-2.512l1.522-7.486h15.5L61.2,34.968a33.287,33.287,0,0,1,6.115,2.512l6.344-4.212L84.6,44.23l-4.212,6.344a33.877,33.877,0,0,1,2.537,6.09l7.485,1.523v15.5Z" transform="translate(-13.474 -27.483)" fill="#feca2e"/>
      </g>
      <g id="Grupo_133311" data-name="Grupo 133311" transform="translate(25.426 25.457)" opacity="0.05">
        <path id="Trazado_192191" data-name="Trazado 192191" d="M64.944,57.212A32.817,32.817,0,0,1,62.4,63.3l4.215,6.363L55.68,80.6l-6.347-4.215a32.081,32.081,0,0,1-6.107,2.548L41.7,86.416H26.188l-1.523-7.485a30.945,30.945,0,0,1-3.751-1.394,49.036,49.036,0,0,0,42.619-42.6,32.3,32.3,0,0,1,1.41,3.719l7.485,1.523V55.69Z" transform="translate(-20.914 -34.933)"/>
      </g>
      <g id="Grupo_133312" data-name="Grupo 133312" transform="translate(21.269 21.272)">
        <circle id="Elipse_4942" data-name="Elipse 4942" cx="17.198" cy="17.198" r="17.198" fill="#fff"/>
      </g>
      <g id="Grupo_133313" data-name="Grupo 133313" transform="translate(24.87 24.892)" opacity="0.05">
        <path id="Trazado_192192" data-name="Trazado 192192" d="M51.554,48.347a17.193,17.193,0,0,1-30.8,10.514A17.026,17.026,0,0,0,31.312,62.5,17.186,17.186,0,0,0,44.892,34.768a17.1,17.1,0,0,1,6.662,13.579Z" transform="translate(-20.752 -34.768)"/>
      </g>
    </g>
    <g id="Grupo_133331" data-name="Grupo 133331" transform="translate(4.542 4.41)">
      <g id="Grupo_133330" data-name="Grupo 133330">
        <g id="Grupo_133315" data-name="Grupo 133315" transform="translate(0 0.007)">
          <path id="Trazado_192193" data-name="Trazado 192193" d="M139.849,10.663V118.995a8.669,8.669,0,0,1-8.662,8.662H10.787a8.669,8.669,0,0,1-8.662-8.662V10.663A8.669,8.669,0,0,1,10.787,2h120.4a8.669,8.669,0,0,1,8.662,8.662Z" transform="translate(-2.125 -2.002)" fill="#e0ecf6"/>
        </g>
        <g id="Grupo_133316" data-name="Grupo 133316" transform="translate(0.004)" opacity="0.05">
          <path id="Trazado_192194" data-name="Trazado 192194" d="M139.85,10.661V118.993a8.669,8.669,0,0,1-8.662,8.662H10.788a8.669,8.669,0,0,1-8.662-8.662v-3.725H68.938a58.506,58.506,0,0,0,58.526-58.526V2h3.725a8.669,8.669,0,0,1,8.662,8.662Z" transform="translate(-2.126 -1.999)"/>
        </g>
        <path id="Trazado_192195" data-name="Trazado 192195" d="M139.849,10.663V30.73H2.125V10.663A8.669,8.669,0,0,1,10.787,2h120.4a8.669,8.669,0,0,1,8.662,8.662Z" transform="translate(-2.125 -1.994)" fill="#4dd0e1"/>
        <g id="Grupo_133329" data-name="Grupo 133329" transform="translate(9.445 10.06)">
          <g id="Grupo_133324" data-name="Grupo 133324" transform="translate(0 0.014)">
            <g id="Grupo_133317" data-name="Grupo 133317" transform="translate(24.131)">
              <path id="Trazado_192196" data-name="Trazado 192196" d="M20.559,9.252a4.3,4.3,0,1,1-4.3-4.3A4.317,4.317,0,0,1,20.559,9.252Z" transform="translate(-11.951 -4.948)" fill="#fff"/>
            </g>
            <g id="Grupo_133318" data-name="Grupo 133318">
              <path id="Trazado_192197" data-name="Trazado 192197" d="M13.5,9.252a4.3,4.3,0,1,1-4.3-4.3A4.317,4.317,0,0,1,13.5,9.252Z" transform="translate(-4.889 -4.948)" fill="#fff"/>
            </g>
            <g id="Grupo_133320" data-name="Grupo 133320" transform="translate(0.717 0.746)" opacity="0.05">
              <g id="Grupo_133319" data-name="Grupo 133319">
                <path id="Trazado_192198" data-name="Trazado 192198" d="M12.989,8.724A4.318,4.318,0,0,1,5.1,11.134a4.17,4.17,0,0,0,2.382.717,4.335,4.335,0,0,0,4.3-4.3,4.236,4.236,0,0,0-.717-2.382,4.327,4.327,0,0,1,1.922,3.558Z" transform="translate(-5.099 -5.166)"/>
              </g>
            </g>
            <g id="Grupo_133321" data-name="Grupo 133321" transform="translate(12.066)">
              <path id="Trazado_192199" data-name="Trazado 192199" d="M17.028,9.252a4.3,4.3,0,1,1-4.3-4.3A4.317,4.317,0,0,1,17.028,9.252Z" transform="translate(-8.42 -4.948)" fill="#fff"/>
            </g>
            <g id="Grupo_133323" data-name="Grupo 133323" transform="translate(12.783 0.746)" opacity="0.05">
              <g id="Grupo_133322" data-name="Grupo 133322">
                <path id="Trazado_192200" data-name="Trazado 192200" d="M16.52,8.724a4.318,4.318,0,0,1-7.891,2.41,4.17,4.17,0,0,0,2.382.717,4.335,4.335,0,0,0,4.3-4.3A4.236,4.236,0,0,0,14.6,5.166,4.327,4.327,0,0,1,16.52,8.724Z" transform="translate(-8.63 -5.166)"/>
              </g>
            </g>
          </g>
          <g id="Grupo_133326" data-name="Grupo 133326" transform="translate(24.863 0.746)" opacity="0.05">
            <g id="Grupo_133325" data-name="Grupo 133325">
              <path id="Trazado_192201" data-name="Trazado 192201" d="M20.056,8.72a4.318,4.318,0,0,1-7.891,2.41,4.17,4.17,0,0,0,2.382.717,4.335,4.335,0,0,0,4.3-4.3,4.236,4.236,0,0,0-.717-2.382A4.327,4.327,0,0,1,20.056,8.72Z" transform="translate(-12.165 -5.162)"/>
            </g>
          </g>
          <g id="Grupo_133327" data-name="Grupo 133327" transform="translate(41.42)">
            <path id="Trazado_192202" data-name="Trazado 192202" d="M94.426,6.235v6.054a1.262,1.262,0,0,1-1.291,1.263H18.273a1.255,1.255,0,0,1-1.263-1.263V6.235a1.28,1.28,0,0,1,1.263-1.291H93.135A1.286,1.286,0,0,1,94.426,6.235Z" transform="translate(-17.01 -4.943)" fill="#fff"/>
          </g>
          <g id="Grupo_133328" data-name="Grupo 133328" transform="translate(41.42 0)" opacity="0.05">
            <path id="Trazado_192203" data-name="Trazado 192203" d="M94.426,6.235v6.054a1.262,1.262,0,0,1-1.291,1.263H18.273a1.255,1.255,0,0,1-1.263-1.263v-.4H85.531a7.316,7.316,0,0,0,7.317-6.944h.287a1.286,1.286,0,0,1,1.291,1.291Z" transform="translate(-17.01 -4.943)"/>
          </g>
        </g>
      </g>
    </g>
    <g id="Grupo_133334" data-name="Grupo 133334" transform="translate(1.125 1.002)">
      <g id="Grupo_133332" data-name="Grupo 133332" transform="translate(101.406 78.862)">
        <path id="Trazado_192204" data-name="Trazado 192204" d="M69.464,34.063a20.842,20.842,0,0,0-19.39-9.924l9.471,15.53-5.438,9.276-10.736.588L33.9,34A20.849,20.849,0,0,0,52.727,65.76l25.689,42.123a9.933,9.933,0,0,0,13.652,3.309h0a9.933,9.933,0,0,0,3.309-13.652L69.688,55.416a20.855,20.855,0,0,0-.224-21.352Z" transform="translate(-30.801 -24.081)" fill="#ddd"/>
      </g>
      <g id="Grupo_133333" data-name="Grupo 133333">
        <path id="Trazado_192205" data-name="Trazado 192205" d="M22.2,56.021H16.975a1.664,1.664,0,0,1-1.682-1.682V42.955A6.777,6.777,0,0,0,13.8,38.71a6.777,6.777,0,0,0,1.488-4.245V23.082A1.664,1.664,0,0,1,16.975,21.4h5.2a2.563,2.563,0,1,0,0-5.126h-5.2a6.815,6.815,0,0,0-6.807,6.807V34.466a1.705,1.705,0,0,1-1.682,1.682,2.563,2.563,0,0,0,0,5.126,1.705,1.705,0,0,1,1.682,1.682V54.339a6.815,6.815,0,0,0,6.807,6.807H22.2a2.563,2.563,0,0,0,0-5.126Z" transform="translate(10.472 35.912)" fill="#293c66"/>
        <path id="Trazado_192206" data-name="Trazado 192206" d="M40.489,43.017a1.705,1.705,0,0,1,1.682-1.682,2.563,2.563,0,0,0,0-5.126,1.705,1.705,0,0,1-1.682-1.682V23.143c0-8.833-11.006-6.553-12.006-6.807a2.563,2.563,0,1,0,0,5.126h5.2a1.664,1.664,0,0,1,1.682,1.682V34.527a6.777,6.777,0,0,0,1.488,4.245,6.777,6.777,0,0,0-1.488,4.245V54.4a1.664,1.664,0,0,1-1.682,1.682H28.46a2.563,2.563,0,1,0,0,5.126h5.221A6.815,6.815,0,0,0,40.489,54.4Z" transform="translate(58.753 35.85)" fill="#293c66"/>
        <path id="Trazado_192207" data-name="Trazado 192207" d="M27.724,39.091l-11.037-7.85,10.97-7.285a2.563,2.563,0,0,0-2.836-4.27L10.746,29.035a2.562,2.562,0,0,0-.067,4.223L24.754,43.269a2.563,2.563,0,0,0,2.97-4.178Z" transform="translate(19.362 43.123)" fill="#293c66"/>
        <path id="Trazado_192208" data-name="Trazado 192208" d="M41.315,31.126a2.566,2.566,0,0,0-1.145-2.094L26.094,19.683a2.564,2.564,0,0,0-2.836,4.271l10.972,7.285L23.191,39.09a2.563,2.563,0,1,0,2.97,4.178L40.238,33.257a2.566,2.566,0,0,0,1.078-2.131Z" transform="translate(49.604 43.124)" fill="#293c66"/>
        <path id="Trazado_192209" data-name="Trazado 192209" d="M35.081,17.7,15.289,57.447a2.563,2.563,0,0,0,4.588,2.286L39.669,19.986C41.18,16.949,36.6,14.671,35.081,17.7Z" transform="translate(32.461 35.906)" fill="#293c66"/>
        <path id="Trazado_192210" data-name="Trazado 192210" d="M169.293,151.988l-23.609-38.713V107.78a23.386,23.386,0,0,0,0-14.175V13.08A12.092,12.092,0,0,0,133.6,1H13.2A12.091,12.091,0,0,0,1.125,13.08V121.411A12.092,12.092,0,0,0,13.2,133.491H39.9V137.7a3.417,3.417,0,0,0,2.736,3.349l5.549,1.128q.533,1.457,1.208,2.9l-3.135,4.715a3.415,3.415,0,0,0,.432,4.311l10.96,10.937a3.411,3.411,0,0,0,4.3.429l4.68-3.1q1.447.668,2.911,1.2l1.128,5.546a3.417,3.417,0,0,0,3.349,2.736h15.5a3.417,3.417,0,0,0,3.349-2.736L94,163.564q1.472-.536,2.925-1.216l4.69,3.113a3.414,3.414,0,0,0,4.306-.43l10.937-10.937a3.416,3.416,0,0,0,.434-4.3l-3.12-4.715q.678-1.439,1.213-2.9l5.549-1.128a3.417,3.417,0,0,0,2.736-3.349v-4.206h5.067L147.958,165a12.5,12.5,0,1,0,21.335-13.014ZM7.959,13.08A5.25,5.25,0,0,1,13.2,7.836H133.6a5.25,5.25,0,0,1,5.246,5.244v16.65H7.959ZM116.841,134.9l-4.75.966a3.42,3.42,0,0,0-2.594,2.374,28.8,28.8,0,0,1-2.269,5.441,3.416,3.416,0,0,0,.157,3.509l2.673,4.041-6.986,6.986-4.014-2.665a3.425,3.425,0,0,0-3.512-.162,28.124,28.124,0,0,1-5.456,2.266,3.418,3.418,0,0,0-2.386,2.6l-.966,4.75H76.817l-.966-4.75a3.42,3.42,0,0,0-2.374-2.595,30.532,30.532,0,0,1-5.5-2.261,3.417,3.417,0,0,0-3.477.177l-3.991,2.645-7-6.988,2.685-4.036a3.418,3.418,0,0,0,.164-3.514,28.793,28.793,0,0,1-2.269-5.443,3.42,3.42,0,0,0-2.595-2.374l-4.75-.966v-1.413H61.5a20.591,20.591,0,0,0,40.579,0h14.761Zm-48.315-1.413H95.054a13.708,13.708,0,0,1-26.528,0ZM13.2,126.657a5.25,5.25,0,0,1-5.244-5.246V36.564H138.85V83.149a23.349,23.349,0,0,0-17.239-5.783,2.563,2.563,0,0,0-2,3.891l8.673,14.222-3.966,6.766-7.832.429-8.673-14.222a2.564,2.564,0,0,0-2.184-1.228h0a2.562,2.562,0,0,0-2.184,1.221,23.41,23.41,0,0,0,19.586,35.684l1.541,2.528H13.2Zm149.259,38.132a7.372,7.372,0,0,1-10.129-2.456l-25.688-42.124a2.562,2.562,0,0,0-2.187-1.228c-.043,0-.087,0-.13,0a18.288,18.288,0,0,1-18.387-23.766l6.973,11.434a2.631,2.631,0,0,0,2.328,1.225l10.737-.587a2.564,2.564,0,0,0,2.071-1.263l5.438-9.277a2.562,2.562,0,0,0-.023-2.631l-6.971-11.431a18.289,18.289,0,0,1,12.71,27.226,2.56,2.56,0,0,0,.028,2.621l25.688,42.123a7.367,7.367,0,0,1-2.456,10.131Z" transform="translate(-1.125 -1.002)" fill="#293c66"/>
        <path id="Trazado_192211" data-name="Trazado 192211" d="M48.135,46.574a4.409,4.409,0,1,0,6.038,1.463A4.4,4.4,0,0,0,48.135,46.574Z" transform="translate(107.35 107.597)" fill="#293c66"/>
      </g>
    </g>
  </g>
</svg>
