<svg xmlns="http://www.w3.org/2000/svg" xmlns:xlink="http://www.w3.org/1999/xlink" width="475.007" height="509.703" viewBox="0 0 475.007 509.703">
  <defs>
    <linearGradient id="linear-gradient" x1="3.827" y1="0.5" x2="4.827" y2="0.5" gradientUnits="objectBoundingBox">
      <stop offset="0" stop-color="#ffcfa6"/>
      <stop offset="0.691" stop-color="#ffb88c"/>
    </linearGradient>
    <linearGradient id="linear-gradient-2" x1="25.125" y1="-0.145" x2="23.803" y2="1.048" gradientUnits="objectBoundingBox">
      <stop offset="0.376" stop-color="#ea8e67"/>
      <stop offset="0.766" stop-color="#f6b188"/>
      <stop offset="1" stop-color="#ffc99f"/>
    </linearGradient>
    <linearGradient id="linear-gradient-3" x1="2.928" y1="0.5" x2="3.928" y2="0.5" gradientUnits="objectBoundingBox">
      <stop offset="0.255" stop-color="#25254e"/>
      <stop offset="1"/>
    </linearGradient>
    <linearGradient id="linear-gradient-4" x1="-102.959" y1="0.5" x2="-101.959" y2="0.5" xlink:href="#linear-gradient"/>
    <linearGradient id="linear-gradient-5" x1="-30.669" y1="0.5" x2="-29.669" y2="0.5" xlink:href="#linear-gradient"/>
    <linearGradient id="linear-gradient-6" x1="-39.031" y1="0.942" x2="-37.12" y2="0.256" xlink:href="#linear-gradient-2"/>
    <linearGradient id="linear-gradient-7" x1="-60.513" y1="0.161" x2="-61.645" y2="0.614" gradientUnits="objectBoundingBox">
      <stop offset="0" stop-color="#7fe4ff"/>
      <stop offset="0.505" stop-color="#1579ff"/>
      <stop offset="1" stop-color="#4743b8"/>
    </linearGradient>
    <linearGradient id="linear-gradient-8" x1="-218.936" y1="0.5" x2="-217.936" y2="0.5" xlink:href="#linear-gradient"/>
    <linearGradient id="linear-gradient-9" x1="-140.946" y1="-0.309" x2="-142.234" y2="1.014" xlink:href="#linear-gradient-7"/>
    <linearGradient id="linear-gradient-10" x1="-242.54" y1="-0.077" x2="-245.866" y2="1.425" gradientUnits="objectBoundingBox">
      <stop offset="0.138" stop-color="#fff0fa"/>
      <stop offset="0.239" stop-color="#fee9f9"/>
      <stop offset="0.376" stop-color="#fdd8f7"/>
      <stop offset="0.531" stop-color="#fcbcf5"/>
      <stop offset="0.684" stop-color="#fa9af2"/>
      <stop offset="0.791" stop-color="#ea8bef"/>
      <stop offset="0.888" stop-color="#d87aec"/>
    </linearGradient>
    <linearGradient id="linear-gradient-11" x1="17.387" y1="0.031" x2="15.702" y2="1.046" xlink:href="#linear-gradient-2"/>
    <linearGradient id="linear-gradient-12" x1="27.674" y1="0.5" x2="28.674" y2="0.5" xlink:href="#linear-gradient"/>
    <linearGradient id="linear-gradient-13" x1="-314.562" y1="29.361" x2="-313.201" y2="26.926" gradientUnits="objectBoundingBox">
      <stop offset="0.019" stop-color="#d65764"/>
      <stop offset="0.63" stop-color="#ffc6a6"/>
    </linearGradient>
    <linearGradient id="linear-gradient-14" x1="22.397" y1="0.055" x2="21.859" y2="0.774" xlink:href="#linear-gradient-3"/>
    <linearGradient id="linear-gradient-15" x1="43.505" y1="0.5" x2="44.505" y2="0.5" xlink:href="#linear-gradient-3"/>
  </defs>
  <g id="Group_129986" data-name="Group 129986" transform="translate(-1677.144 553.418)">
    <path id="Path_190770" data-name="Path 190770" d="M1782.895-273.644h373.528v-3.562H1782.895v3.562Z" transform="translate(-4.273 -11.16)" fill="#e8e8e8"/>
    <path id="Path_190771" data-name="Path 190771" d="M2099.517-43.8h3.566v-231.72h-3.566V-43.8Z" transform="translate(-17.065 -11.228)" fill="#e8e8e8"/>
    <path id="Path_190772" data-name="Path 190772" d="M2140.507-145.755h.352V-182.2h-18.641v-92.979h-.353v94.085h18.642v35.335Z" transform="translate(-17.968 -11.242)" fill="#fff"/>
    <path id="Path_190778" data-name="Path 190778" d="M2063.537-314.551v36.707h-4.8v-36.707h4.8Z" transform="translate(-15.417 -9.651)" fill="#e8e8e8"/>
    <path id="Path_190779" data-name="Path 190779" d="M1987.079-464.247l-6.546,71.8-6.547,71.8h158.5l6.891-72.244,6.891-72.244-79.592.445Z" transform="translate(-11.993 -3.567)" fill="#fcc82e"/>
    <path id="Path_190780" data-name="Path 190780" d="M2140.923-453.957l-.332,3.164-.332,3.165-5.544,52.073-5.546,52.072a5.705,5.705,0,0,1-2,3.752,6.351,6.351,0,0,1-4.134,1.5H1985.9a6.294,6.294,0,0,1-4.559-1.91,5.629,5.629,0,0,1-1.572-4.493l5.233-51.5,5.233-51.5.351-3.461.351-3.459a5.666,5.666,0,0,1,1.981-3.627,6.442,6.442,0,0,1,4.032-1.517l68.942-.352,68.942-.351a6.251,6.251,0,0,1,4.554,1.929A5.607,5.607,0,0,1,2140.923-453.957Z" transform="translate(-12.226 -3.758)" fill="#fff"/>
    <path id="Path_190781" data-name="Path 190781" d="M2141.365-453.783l-.332,3.25-.332,3.251H1990.673l.351-3.555.351-3.554a5.86,5.86,0,0,1,1.981-3.725,6.343,6.343,0,0,1,4.032-1.558l68.942-.362,68.942-.361a6.171,6.171,0,0,1,4.554,1.982A5.855,5.855,0,0,1,2141.365-453.783Z" transform="translate(-12.668 -3.758)" fill="#0f2771"/>
    <path id="Path_190782" data-name="Path 190782" d="M2139.155-320.648l2.871,1.034,2.871,1.034,6.662-70.232,6.661-70.232-2.642-3.045-2.642-3.045-6.891,72.244Z" transform="translate(-18.667 -3.567)" fill="#0f2771"/>
    <path id="Path_190783" data-name="Path 190783" d="M2139.814-458.276a6.063,6.063,0,0,0-1.8-1.034,6.24,6.24,0,0,0-2.153-.377l-69.107.344-69.105.344a6.473,6.473,0,0,0-4.042,1.515,5.656,5.656,0,0,0-1.986,3.633l-.352,3.47-.352,3.471-5.245,51.672-5.245,51.674a5.4,5.4,0,0,0,.205,2.145,5.763,5.763,0,0,0,.968,1.86,5.855,5.855,0,0,1-1.761-2.226,5.685,5.685,0,0,1-.469-2.885l5.244-51.654,5.245-51.654.352-3.47.353-3.471a5.72,5.72,0,0,1,1.986-3.651,6.439,6.439,0,0,1,4.041-1.535l69.106-.344,69.107-.343a6.287,6.287,0,0,1,2.872.686A6,6,0,0,1,2139.814-458.276Z" transform="translate(-12.21 -3.742)" fill="#db7519"/>
    <path id="Path_190784" data-name="Path 190784" d="M1990.088-324.437a2.8,2.8,0,0,0-.825-1.99,2.8,2.8,0,0,0-1.99-.825,2.806,2.806,0,0,0-1.991.825,2.8,2.8,0,0,0-.824,1.99,2.806,2.806,0,0,0,.824,1.991,2.806,2.806,0,0,0,1.991.824,2.8,2.8,0,0,0,1.99-.824A2.806,2.806,0,0,0,1990.088-324.437Z" transform="translate(-12.417 -9.138)" fill="#fff"/>
    <g id="Group_129966" data-name="Group 129966" transform="translate(1984.155 -458.843)">
      <path id="Path_190785" data-name="Path 190785" d="M2009.416-453.237a1.6,1.6,0,0,0,.488,1.149,1.685,1.685,0,0,0,1.179.476,1.686,1.686,0,0,0,1.179-.476,1.6,1.6,0,0,0,.489-1.149,1.6,1.6,0,0,0-.489-1.148,1.682,1.682,0,0,0-1.179-.476,1.681,1.681,0,0,0-1.179.476A1.594,1.594,0,0,0,2009.416-453.237Z" transform="translate(-1997.58 454.861)" fill="#fff"/>
      <path id="Path_190786" data-name="Path 190786" d="M2003.183-453.237a1.6,1.6,0,0,0,.488,1.149,1.688,1.688,0,0,0,1.18.476,1.687,1.687,0,0,0,1.179-.476,1.6,1.6,0,0,0,.489-1.149,1.6,1.6,0,0,0-.489-1.148,1.683,1.683,0,0,0-1.179-.476,1.684,1.684,0,0,0-1.18.476A1.6,1.6,0,0,0,2003.183-453.237Z" transform="translate(-1997.328 454.861)" fill="#fff"/>
      <path id="Path_190787" data-name="Path 190787" d="M1997.081-453.237a1.6,1.6,0,0,0,.488,1.149,1.686,1.686,0,0,0,1.179.476,1.686,1.686,0,0,0,1.179-.476,1.6,1.6,0,0,0,.489-1.149,1.6,1.6,0,0,0-.489-1.148,1.682,1.682,0,0,0-1.179-.476,1.682,1.682,0,0,0-1.179.476A1.6,1.6,0,0,0,1997.081-453.237Z" transform="translate(-1997.081 454.861)" fill="#fff"/>
    </g>
    <g id="Group_129968" data-name="Group 129968" transform="translate(2029.206 -438.112)" opacity="0.74">
      <g id="Group_129967" data-name="Group 129967">
        <path id="Path_190788" data-name="Path 190788" d="M2051.883-429.313h70.445l.234-1.972.234-1.972h-70.484l-.215,1.972Z" transform="translate(-2044.346 433.257)" fill="#87bef5"/>
        <path id="Path_190789" data-name="Path 190789" d="M2050.824-420.118h70.485l.215-1.992.215-1.992h-70.446l-.234,1.992Z" transform="translate(-2044.304 432.887)" fill="#87bef5"/>
        <path id="Path_190790" data-name="Path 190790" d="M2049.645-409.619h70.485l.234-1.992.234-1.992h-70.524l-.215,1.992Z" transform="translate(-2044.256 432.463)" fill="#87bef5"/>
        <path id="Path_190791" data-name="Path 190791" d="M2048.587-400.422h70.524l.214-1.991.215-1.992h-70.484l-.234,1.992Z" transform="translate(-2044.213 432.091)" fill="#87bef5"/>
        <path id="Path_190792" data-name="Path 190792" d="M2047.325-389.191h70.524l.215-1.992.215-1.991h-70.524l-.214,1.991Z" transform="translate(-2044.162 431.637)" fill="#87bef5"/>
        <path id="Path_190793" data-name="Path 190793" d="M2046.267-380.034h70.563l.215-1.992.214-1.991h-70.524l-.234,1.991Z" transform="translate(-2044.12 431.268)" fill="#87bef5"/>
        <path id="Path_190794" data-name="Path 190794" d="M2045.087-369.578h70.563l.215-2.011.215-2.011h-70.563l-.215,2.011Z" transform="translate(-2044.072 430.847)" fill="#87bef5"/>
        <path id="Path_190795" data-name="Path 190795" d="M2044.029-360.42h70.6l.215-1.991.215-1.992H2044.5l-.234,1.992Z" transform="translate(-2044.029 430.475)" fill="#87bef5"/>
      </g>
    </g>
    <path id="Path_190796" data-name="Path 190796" d="M2063.806-314.551l-.142,7.439-.143,7.44q-1.141.907-2.342,1.752t-2.461,1.605l-.191-9.118-.192-9.118h5.471Z" transform="translate(-15.401 -9.651)" fill="#e4daf4"/>
    <path id="Path_190797" data-name="Path 190797" d="M1973.986-314.565h158.5l2.871,1.034,2.871,1.034h-161l-1.617-1.034Z" transform="translate(-11.993 -9.65)" fill="#0f2771"/>
    <path id="Path_190798" data-name="Path 190798" d="M2041.53-273.7h37.723c0-1.464-2.109-2.782-5.521-3.734a51.938,51.938,0,0,0-13.339-1.537,51.953,51.953,0,0,0-13.341,1.537C2043.639-276.48,2041.53-275.162,2041.53-273.7Z" transform="translate(-14.722 -11.089)" fill="#e8e8e8"/>
    <path id="Path_190799" data-name="Path 190799" d="M1882.975-330.78h124.373a5.494,5.494,0,0,0,3.719-1.45,5.579,5.579,0,0,0,1.787-3.588l2.616-27.237,2.617-27.237v-.038l.234-2.343.234-2.343a5.559,5.559,0,0,0-1.406-4.276,5.5,5.5,0,0,0-4.1-1.816H1889.693a5.474,5.474,0,0,0-3.672,1.406,5.538,5.538,0,0,0-1.8,3.515l-.331,2.948-.332,2.948-3.027,26.671-3.026,26.671a5.5,5.5,0,0,0,1.357,4.315A5.483,5.483,0,0,0,1882.975-330.78Z" transform="translate(-8.094 -6.154)" fill="#bbdbfa" opacity="0.74"/>
    <g id="Group_129970" data-name="Group 129970" transform="translate(1833.685 -553.418)">
      <path id="Path_190800" data-name="Path 190800" d="M1845.811-553.418h111.773a5.525,5.525,0,0,1,3.656,1.379,5.525,5.525,0,0,1,1.834,3.45l1.339,10.411,1.339,10.411a5.513,5.513,0,0,1-1.334,4.361,5.51,5.51,0,0,1-4.156,1.879H1847.819a5.522,5.522,0,0,1-3.721-1.437,5.519,5.519,0,0,1-1.788-3.565l-1-10.411-1-10.412a5.509,5.509,0,0,1,1.412-4.252A5.512,5.512,0,0,1,1845.811-553.418Z" transform="translate(-1840.276 553.418)" fill="#bddcf6" opacity="0.41"/>
      <path id="Path_190801" data-name="Path 190801" d="M1872.109-537.057a11.049,11.049,0,0,1-3.245,7.836,11.05,11.05,0,0,1-7.837,3.246,11.047,11.047,0,0,1-7.836-3.246,11.049,11.049,0,0,1-3.245-7.836,11.051,11.051,0,0,1,3.245-7.836,11.046,11.046,0,0,1,7.836-3.245,11.049,11.049,0,0,1,7.837,3.245A11.05,11.05,0,0,1,1872.109-537.057Z" transform="translate(-1840.666 553.205)" fill="#87bef5" opacity="0.74"/>
      <g id="Group_129969" data-name="Group 129969" transform="translate(41.315 10.515)" opacity="0.74">
        <path id="Path_190802" data-name="Path 190802" d="M1959.868-539.688h-76.186l-.176-1.386-.176-1.386h75.952l.293,1.386Z" transform="translate(-1883.331 542.461)" fill="#87bef5"/>
        <path id="Path_190803" data-name="Path 190803" d="M1908.248-531.264h-23.507l-.176-1.386-.176-1.386h23.664l.1,1.386Z" transform="translate(-1883.373 542.12)" fill="#87bef5"/>
      </g>
    </g>
    <path id="Path_190804" data-name="Path 190804" d="M1878.987-471.834H1991.45a5.522,5.522,0,0,0,3.719-1.43,5.5,5.5,0,0,0,1.787-3.569l.859-8.9.859-8.9.137-1.5.136-1.5a5.5,5.5,0,0,0-1.406-4.242,5.511,5.511,0,0,0-4.1-1.811h-111.76a5.522,5.522,0,0,0-3.646,1.377,5.6,5.6,0,0,0-1.86,3.426l-.273,2.128-.273,2.128-1.055,8.278-1.055,8.278a5.522,5.522,0,0,0,1.327,4.369A5.485,5.485,0,0,0,1878.987-471.834Z" transform="translate(-7.932 -2.009)" fill="#bbdbfa" opacity="0.74"/>
    <path id="Path_190805" data-name="Path 190805" d="M1875.72-494.638h123.044l.137-1.5.136-1.5a5.5,5.5,0,0,0-1.406-4.242,5.511,5.511,0,0,0-4.1-1.811h-111.76a5.522,5.522,0,0,0-3.646,1.377,5.6,5.6,0,0,0-1.86,3.426l-.273,2.128Z" transform="translate(-8.023 -2.009)" fill="#0f2771"/>
    <g id="Group_129971" data-name="Group 129971" transform="translate(1967.225 -528.574)">
      <path id="Path_190806" data-name="Path 190806" d="M2014.357-502.124a16.078,16.078,0,0,1-8.4,9.051,16.074,16.074,0,0,1-12.336.464,16.081,16.081,0,0,1-9.051-8.4,16.077,16.077,0,0,1-.465-12.337,16.078,16.078,0,0,1,8.4-9.051,16.077,16.077,0,0,1,12.337-.463,16.073,16.073,0,0,1,9.051,8.395A16.081,16.081,0,0,1,2014.357-502.124Z" transform="translate(-1979.587 527.38)" fill="#fcc82e"/>
      <path id="Path_190807" data-name="Path 190807" d="M1998.165-498.23a1.95,1.95,0,0,1-.865-.2,1.957,1.957,0,0,1-.69-.568l-3.205-4.21-3.205-4.211,1.555-1.183,1.554-1.184,2.292,3.012,2.292,3.012,3.7-6.789,3.7-6.79,1.715.934,1.714.935-4.419,8.113-4.419,8.113a1.962,1.962,0,0,1-.653.7,1.969,1.969,0,0,1-.912.31l-.075,0Z" transform="translate(-1979.874 527.117)" fill="#fff"/>
      <path id="Path_190808" data-name="Path 190808" d="M1999.086-488.231a19.579,19.579,0,0,1-13.886-5.763,19.59,19.59,0,0,1-5.761-13.887,19.586,19.586,0,0,1,5.761-13.886,19.585,19.585,0,0,1,13.886-5.76,19.587,19.587,0,0,1,13.886,5.76,19.58,19.58,0,0,1,5.762,13.886,19.584,19.584,0,0,1-5.762,13.887A19.581,19.581,0,0,1,1999.086-488.231Zm0-38.741a19.038,19.038,0,0,0-13.5,5.6,19.029,19.029,0,0,0-5.6,13.494,19.033,19.033,0,0,0,5.6,13.495,19.036,19.036,0,0,0,13.5,5.6,19.036,19.036,0,0,0,13.5-5.6,19.031,19.031,0,0,0,5.6-13.495,19.027,19.027,0,0,0-5.6-13.494A19.038,19.038,0,0,0,1999.086-526.971Z" transform="translate(-1979.439 527.528)" fill="#fcc82e"/>
    </g>
    <g id="Group_129974" data-name="Group 129974" transform="translate(2008.348 -502.274)">
      <path id="Path_190809" data-name="Path 190809" d="M2027.828-500.121h118.5a5.522,5.522,0,0,1,3.7,1.423,5.52,5.52,0,0,1,1.8,3.535l1.793,17.1,1.793,17.1a5.508,5.508,0,0,1-1.391,4.281,5.515,5.515,0,0,1-4.113,1.831H2031.249a5.519,5.519,0,0,1-3.714-1.432,5.515,5.515,0,0,1-1.793-3.552l-1.711-17.1-1.71-17.1a5.513,5.513,0,0,1,1.4-4.264A5.514,5.514,0,0,1,2027.828-500.121Z" transform="translate(-2022.293 500.121)" fill="#87bef5" opacity="0.74"/>
      <path id="Path_190810" data-name="Path 190810" d="M2062.193-480.486a4.151,4.151,0,0,0-.563-.212c-.2-.061-.409-.115-.618-.17a6.68,6.68,0,0,1-1.291-.434,1.838,1.838,0,0,1-.909-.912,1.615,1.615,0,0,1-.15-.49,2.619,2.619,0,0,1-.014-.6,5.378,5.378,0,0,1,.182-.965c.086-.316.191-.625.291-.925.064-.163.123-.331.178-.5s.1-.343.15-.515a3.534,3.534,0,0,0,.095-1.355,1.7,1.7,0,0,0-.585-1.135,1.765,1.765,0,0,0-1.332-.337,8.464,8.464,0,0,0-1.576.372,8.881,8.881,0,0,1-1.757.393,2.293,2.293,0,0,1-1.606-.411,2.283,2.283,0,0,1-.758-1.013,7.2,7.2,0,0,1-.35-1.259,9.449,9.449,0,0,0-.248-.975,2.6,2.6,0,0,0-.425-.824,2,2,0,0,0-1.161-.649,2.426,2.426,0,0,0-1.42.157,3.019,3.019,0,0,0-1.1.829,4.457,4.457,0,0,0-.772,1.334,3.88,3.88,0,0,0-.141.393c-.041.133-.077.27-.113.406-.091.31-.186.623-.309.928a3.979,3.979,0,0,1-.473.872,2.273,2.273,0,0,1-.724.656,1.174,1.174,0,0,1-.766.125,1.893,1.893,0,0,1-.656-.256,5.984,5.984,0,0,1-.616-.435c-.045-.035-.095-.077-.148-.117s-.106-.083-.161-.119a4.667,4.667,0,0,0-1.367-.681,3.118,3.118,0,0,0-1.94.028,2.631,2.631,0,0,0-.912.575,2.908,2.908,0,0,0-.653.915,2.657,2.657,0,0,0-.229.929,2.147,2.147,0,0,0,.139.889,3.249,3.249,0,0,0,.236.477c.091.155.191.3.291.45a6.263,6.263,0,0,1,.5.884,2.111,2.111,0,0,1,.189,1.007,2.011,2.011,0,0,1-.721,1.311,3.622,3.622,0,0,1-1.007.616c-.128.055-.259.1-.392.153s-.271.093-.407.138c-.246.091-.491.178-.725.275a3.638,3.638,0,0,0-.656.343,2.684,2.684,0,0,0-.907,1.131,2.568,2.568,0,0,0-.184,1.432,2.643,2.643,0,0,0,.607,1.307,2.613,2.613,0,0,0,1.193.8,4.938,4.938,0,0,0,.5.113c.176.032.357.059.539.086a5.9,5.9,0,0,1,1.178.246,1.888,1.888,0,0,1,.948.681,1.942,1.942,0,0,1,.334,1.3,5.578,5.578,0,0,1-.334,1.424l-.382,1.091-.382,1.09c-.063.2-.131.409-.179.621a2.069,2.069,0,0,0-.057.634,1.5,1.5,0,0,0,.513.961,2.255,2.255,0,0,0,.977.511,3,3,0,0,0,1.063.03,6.219,6.219,0,0,0,1.282-.339l.108-.045.109-.046c.282-.1.573-.209.868-.293a3.275,3.275,0,0,1,.9-.144,2.033,2.033,0,0,1,.418.044,1.9,1.9,0,0,1,.417.138,2.1,2.1,0,0,1,.9.877,6.624,6.624,0,0,1,.5,1.177c.028.09.059.177.091.258s.064.159.091.232a4.692,4.692,0,0,0,.889,1.461,3.517,3.517,0,0,0,1.256.9,2.768,2.768,0,0,0,1.6.168,2.284,2.284,0,0,0,1.311-.731,2.8,2.8,0,0,0,.487-.87c.118-.32.2-.665.3-1.02.035-.146.073-.291.111-.437s.079-.29.125-.436a3.43,3.43,0,0,1,.938-1.486,1.734,1.734,0,0,1,1.5-.477,1.967,1.967,0,0,1,.553.2c.17.088.329.193.484.294l.073.045.073.045a4.745,4.745,0,0,0,2.281.75,2.537,2.537,0,0,0,2.063-.75,2.569,2.569,0,0,0,.577-1.984,5.259,5.259,0,0,0-.649-2.052l-.055-.1-.054-.1a6.438,6.438,0,0,1-.438-.9,2.01,2.01,0,0,1-.126-1.009,1.921,1.921,0,0,1,.636-1.121,3.614,3.614,0,0,1,.909-.588c.118-.055.236-.1.357-.152s.243-.094.37-.139c.218-.082.427-.163.626-.257a3.761,3.761,0,0,0,.573-.324,2.515,2.515,0,0,0,.852-1.011,2.584,2.584,0,0,0,.239-1.3,2.589,2.589,0,0,0-.448-1.245A2.51,2.51,0,0,0,2062.193-480.486Zm-12.96,9.924a7.333,7.333,0,0,1-5.2-2.163,7.364,7.364,0,0,1-2.161-5.216,7.338,7.338,0,0,1,2.161-5.2,7.339,7.339,0,0,1,5.2-2.161,7.334,7.334,0,0,1,5.208,2.161,7.34,7.34,0,0,1,2.154,5.2,7.366,7.366,0,0,1-2.154,5.216A7.328,7.328,0,0,1,2049.233-470.562Z" transform="translate(-2022.748 499.851)" fill="#fff"/>
      <g id="Group_129972" data-name="Group 129972" transform="translate(49.027 26.554)">
        <path id="Path_190811" data-name="Path 190811" d="M2146.516-469.676h-72.795l-.169-1.386-.169-1.386h72.858l.137,1.386Z" transform="translate(-2073.384 472.449)" fill="#fff"/>
        <path id="Path_190812" data-name="Path 190812" d="M2097.286-461.253h-22.551l-.169-1.386-.169-1.386h22.7l.094,1.386Z" transform="translate(-2073.425 472.108)" fill="#fff"/>
      </g>
      <g id="Group_129973" data-name="Group 129973" transform="translate(47.804 11.063)">
        <path id="Path_190813" data-name="Path 190813" d="M2145.242-485.819h-72.794l-.169-1.386-.169-1.386h72.858l.137,1.386Z" transform="translate(-2072.11 488.592)" fill="#fff"/>
        <path id="Path_190814" data-name="Path 190814" d="M2096.012-477.4h-22.55l-.169-1.386-.169-1.386h22.7l.094,1.386Z" transform="translate(-2072.151 488.252)" fill="#fff"/>
      </g>
    </g>
    <g id="Group_129975" data-name="Group 129975" transform="translate(1912.523 -366.4)">
      <path id="Path_190815" data-name="Path 190815" d="M1922.434-355.754h72.795l.169-1.386.169-1.386h-72.858l-.137,1.386Z" transform="translate(-1922.434 358.526)" fill="#fff"/>
      <path id="Path_190816" data-name="Path 190816" d="M1973.779-347.33h22.55l.169-1.386.169-1.386h-22.7l-.094,1.386Z" transform="translate(-1924.509 358.186)" fill="#fff"/>
    </g>
    <g id="Group_129976" data-name="Group 129976" transform="translate(1913.746 -381.892)">
      <path id="Path_190817" data-name="Path 190817" d="M1923.708-371.9H1996.5l.169-1.386.169-1.386h-72.858l-.137,1.386Z" transform="translate(-1923.708 374.67)" fill="#fff"/>
      <path id="Path_190818" data-name="Path 190818" d="M1975.053-363.474h22.55l.169-1.386.169-1.386h-22.7l-.094,1.386Z" transform="translate(-1925.783 374.329)" fill="#fff"/>
    </g>
    <path id="Path_190819" data-name="Path 190819" d="M2018.344-390.292v-.038l.234-2.343.234-2.343a5.559,5.559,0,0,0-1.406-4.276,5.5,5.5,0,0,0-4.1-1.816H1889.949a5.474,5.474,0,0,0-3.672,1.406,5.538,5.538,0,0,0-1.8,3.515l-.331,2.948-.332,2.948h134.526Z" transform="translate(-8.35 -6.154)" fill="#0f2771"/>
    <g id="Group_129977" data-name="Group 129977" transform="translate(1883.181 -403.478)">
      <path id="Path_190820" data-name="Path 190820" d="M1904.191-395.541a1.6,1.6,0,0,0,.488,1.149,1.687,1.687,0,0,0,1.179.476,1.685,1.685,0,0,0,1.179-.476,1.6,1.6,0,0,0,.489-1.149,1.6,1.6,0,0,0-.489-1.149,1.685,1.685,0,0,0-1.179-.475,1.687,1.687,0,0,0-1.179.475A1.6,1.6,0,0,0,1904.191-395.541Z" transform="translate(-1892.354 397.165)" fill="#fff"/>
      <path id="Path_190821" data-name="Path 190821" d="M1897.958-395.541a1.6,1.6,0,0,0,.489,1.149,1.689,1.689,0,0,0,1.18.476,1.686,1.686,0,0,0,1.179-.476,1.6,1.6,0,0,0,.488-1.149,1.6,1.6,0,0,0-.488-1.149,1.685,1.685,0,0,0-1.179-.475,1.689,1.689,0,0,0-1.18.475A1.6,1.6,0,0,0,1897.958-395.541Z" transform="translate(-1892.103 397.165)" fill="#fff"/>
      <path id="Path_190822" data-name="Path 190822" d="M1891.856-395.541a1.6,1.6,0,0,0,.488,1.149,1.688,1.688,0,0,0,1.179.476,1.689,1.689,0,0,0,1.18-.476,1.6,1.6,0,0,0,.489-1.149,1.6,1.6,0,0,0-.489-1.149,1.689,1.689,0,0,0-1.18-.475,1.687,1.687,0,0,0-1.179.475A1.6,1.6,0,0,0,1891.856-395.541Z" transform="translate(-1891.856 397.165)" fill="#fff"/>
    </g>
    <g id="Group_129978" data-name="Group 129978" transform="translate(1897.252 -490.497)">
      <path id="Path_190823" data-name="Path 190823" d="M1907.24-485.075H1983.1l.176-1.386.176-1.386h-75.952l-.132,1.386Z" transform="translate(-1906.549 487.848)" fill="#fff"/>
      <path id="Path_190824" data-name="Path 190824" d="M1906.519-476.652h75.544l.174-1.386.175-1.386h-75.568l-.162,1.386Z" transform="translate(-1906.519 487.507)" fill="#fff"/>
    </g>
    <path id="Path_190825" data-name="Path 190825" d="M1773.232-442.836a128.279,128.279,0,0,1-.133,24.212,96.443,96.443,0,0,1-5.375,23.507,5.16,5.16,0,0,0-.317,1.187,1.694,1.694,0,0,0,.239,1.156,1.674,1.674,0,0,0,.449.4,6.1,6.1,0,0,0,.566.307,116.446,116.446,0,0,0,11.457,4.73,113.457,113.457,0,0,0,11.9,3.471,66.107,66.107,0,0,0,9.513,1.567,36.108,36.108,0,0,0,9.543-.4,29.738,29.738,0,0,0,4.1-1.055,21.032,21.032,0,0,0,3.9-1.757,5.983,5.983,0,0,0,.678-.342c.22-.127.435-.264.65-.4a15.054,15.054,0,0,0,1.893-1.489,9.04,9.04,0,0,0,1.543-1.869,18.446,18.446,0,0,0,1.112-2.216,4.882,4.882,0,0,0,.528-2.275,1.631,1.631,0,0,0-.132-.478,4.149,4.149,0,0,0-.22-.42c-1.191-2.167-2.177-3.758-3.036-5.125s-1.591-2.508-2.274-3.778c-.468-.878-.868-1.659-1.219-2.358s-.655-1.313-.928-1.86c-.351-.781-.644-1.455-.908-2.089s-.5-1.23-.732-1.855a.565.565,0,0,1-.04-.117.546.546,0,0,0-.038-.117,32.542,32.542,0,0,1-1.45-5.935c-.278-1.747-.386-3.007-.425-3.007a36.305,36.305,0,0,0,6.507-.727,45.931,45.931,0,0,0,6.419-1.694c.117-.039.244-.078.366-.117s.24-.078.337-.117c.566-.215,1.064-.43,1.489-.64a7.642,7.642,0,0,0,1.049-.609,7,7,0,0,0,2.07-2.631c.517-1.03.918-2.152,1.366-3.188.508-1.191,1-2.391,1.464-3.592s.918-2.4,1.347-3.593c.039-.117.078-.225.117-.332s.079-.215.118-.332c1.014-2.87,1.9-5.77,2.635-8.728a78.706,78.706,0,0,0,1.7-9.079,4.007,4.007,0,0,0-.015-1.221,4.41,4.41,0,0,0-.337-1.045c-.078-.176-.166-.361-.258-.561s-.191-.415-.288-.649a19.185,19.185,0,0,1-1.484-6.712,18.929,18.929,0,0,1,.977-6.8c.176-.547.38-1.083.585-1.621s.41-1.074.585-1.621a2.436,2.436,0,0,1,.078-.234,2,2,0,0,0,.079-.234,8.475,8.475,0,0,0,.274-1.04c.068-.346.117-.7.156-1.069.019-.195.029-.38.029-.566s-.01-.37-.029-.566a7.1,7.1,0,0,0-.074-.957c-.043-.321-.1-.644-.16-.957a29.409,29.409,0,0,0-2.719-7.209,41.309,41.309,0,0,0-4.271-6.419v-.039q-.995-1.288-2.075-2.518t-2.22-2.4a22.953,22.953,0,0,0-3.906-3.348,12.411,12.411,0,0,0-4.724-1.885c-.84-.156-1.63-.361-2.431-.532a13.131,13.131,0,0,0-2.49-.327c-.976-.02-1.953.029-2.929.073s-1.953.083-2.929.044c-1.113-.059-2.226-.147-3.338-.244s-2.225-.205-3.339-.3c-1.113-.117-2.226-.225-3.344-.293s-2.24-.1-3.373-.059a61.768,61.768,0,0,0-17.435,2.87,37.131,37.131,0,0,0-14.859,8.845,8.262,8.262,0,0,0-.927,1.006,3.931,3.931,0,0,0-.634,1.181,4.5,4.5,0,0,0-.122,1.933,13.475,13.475,0,0,0,.434,1.934c1.973,6.852,3.836,13.764,5.413,20.73a199.778,199.778,0,0,1,3.686,21.053c.117.917.225,1.845.323,2.772S1773.153-443.753,1773.232-442.836Z" transform="translate(-3.471 -1.837)" fill="url(#linear-gradient)"/>
    <path id="Path_190826" data-name="Path 190826" d="M1835.68-467.53a19.127,19.127,0,0,0,2.48,4.661,19.148,19.148,0,0,0,3.65,3.813c.235.177.508.391.81.615s.635.46.986.674c-.078-.176-.166-.361-.258-.561s-.191-.415-.288-.649a19.185,19.185,0,0,1-1.484-6.712,18.932,18.932,0,0,1,.977-6.8c.176-.547.38-1.083.585-1.621s.41-1.074.585-1.621c.02-.078.049-.156.078-.234a2,2,0,0,0,.079-.234,8.473,8.473,0,0,0,.274-1.04c.068-.346.117-.7.156-1.069.019-.195.029-.38.029-.566s-.01-.37-.029-.566c-.078-.059-.156-.117-.234-.171a1.918,1.918,0,0,0-.235-.141,5.332,5.332,0,0,0-4.5-.107,6.905,6.905,0,0,0-3.5,3.114,9.182,9.182,0,0,0-1.059,4.535A14.069,14.069,0,0,0,1835.68-467.53Z" transform="translate(-6.369 -2.954)" opacity="0.57" fill="url(#linear-gradient-2)"/>
    <path id="Path_190827" data-name="Path 190827" d="M1774.046-433.95c-.08-.015-.289-.024-.5-.032a4.7,4.7,0,0,1-.5-.032s-.164-1.4-.351-2.967-.4-3.312-.484-4c-.2-1.578-.439-3.15-.692-4.72s-.525-3.137-.795-4.7c-.433-2.515-.883-4.643-1.36-6.766s-.978-4.24-1.515-6.735-1.12-4.979-1.748-7.452-1.305-4.934-2.027-7.382c-.881-2.986-1.712-6.135-2.775-9.183a35.072,35.072,0,0,0-4.16-8.585,20.855,20.855,0,0,0-2.178-2.641,18.233,18.233,0,0,0-2.607-2.216,32.612,32.612,0,0,0-2.971-1.8c-1.3-.685-2.608-1.2-2.99-.757a17.758,17.758,0,0,1,7.74-4.973,12.952,12.952,0,0,1,8.9-.013,73.935,73.935,0,0,0-6.74-5.934,26.443,26.443,0,0,0-9.454-4.185,17.089,17.089,0,0,1,11.519-1.559,32.325,32.325,0,0,1,11.05,4.833s.224-.127.627-.414a19.925,19.925,0,0,0,1.708-1.375c.63-.561,1.3-1.088,1.985-1.6s1.388-.994,2.079-1.473q2.145-1.487,4.406-2.791t4.62-2.421a63.365,63.365,0,0,1,9.638-3.636,61.542,61.542,0,0,1,10.1-2.008,62.716,62.716,0,0,1,21.137,1.259,62.738,62.738,0,0,1,19.533,8.174,69.62,69.62,0,0,0-8.912,5.425,69.535,69.535,0,0,0-8,6.7,72.871,72.871,0,0,1,12.736,4.62,23.342,23.342,0,0,1,9.788,8.483,95.1,95.1,0,0,0-9.255-3.59,94.99,94.99,0,0,0-9.58-2.607,20.9,20.9,0,0,0-5.168-.579,7.719,7.719,0,0,0-4.659,1.571,36.064,36.064,0,0,0,.974,4.291,35.982,35.982,0,0,0,1.49,4.142,18,18,0,0,0-2.093.514c-1.058.29-2.161.6-2.351.652a8.83,8.83,0,0,0-1.985.563c-.4.257-.536.707-.4,1.72.216,1.558.433,3.116.632,4.676s.383,3.121.531,4.688a91,91,0,0,1,.524,10.323,32.033,32.033,0,0,1-1.627,10.144c-.9-.288-2.434-.734-3.809-1.276s-2.6-1.177-2.877-1.842a6.342,6.342,0,0,1-.317-2.08,9.443,9.443,0,0,0-.245-2.19,13.667,13.667,0,0,0-.861-2.171,13.155,13.155,0,0,0-1.224-1.987,9.221,9.221,0,0,0-3.41-2.823,5.194,5.194,0,0,0-4.137-.257,5.656,5.656,0,0,0-2.755,2.551,15.312,15.312,0,0,0-1.438,3.723,80.563,80.563,0,0,0-1.877,9.367,83.127,83.127,0,0,0-.814,9.518c-.046,1.917-.034,3.533.006,5.165s.106,3.28.167,5.259c.029.932.128,2.148.22,3.131s.177,1.733.177,1.733a10.163,10.163,0,0,1-1.339.42c-.455.112-.916.2-1.377.283a48.8,48.8,0,0,1-8.977.747A48.861,48.861,0,0,1,1774.046-433.95Z" transform="translate(-2.798 -0.871)" fill="url(#linear-gradient-3)"/>
    <path id="Path_190828" data-name="Path 190828" d="M1908.346-78.975a4.331,4.331,0,0,1-.434,2.158,7.357,7.357,0,0,1-1.284,1.865,23.85,23.85,0,0,1-2.812,2.543c-1.006.8-2.051,1.557-3.046,2.338-.177.118-.342.245-.5.376s-.318.269-.474.4q-1.874,1.641-3.807,3.2t-3.925,3.051a33.064,33.064,0,0,1-5.125,3.574c-1.845.859-3.719.937-5.3-1.113a9.655,9.655,0,0,1-.62-.913,2.623,2.623,0,0,1-.356-1,2.659,2.659,0,0,1,.214-1.347,7.606,7.606,0,0,1,.683-1.23q1.025-1.727,1.987-3.485t1.84-3.544c.547-1.152,1.23-2.3,1.888-3.46a25.527,25.527,0,0,0,1.742-3.519,29.886,29.886,0,0,1,1.372-3.256,7.955,7.955,0,0,1,2.1-2.612,11.559,11.559,0,0,1,1.91-1.245,11.049,11.049,0,0,1,2.23-.864,9.856,9.856,0,0,1,3.837-.249,8.255,8.255,0,0,1,3.543,1.3c.2.137.381.273.561.42a6.555,6.555,0,0,1,.533.478,9.568,9.568,0,0,1,1.2,1.494c.356.536.678,1.1.991,1.67a13.457,13.457,0,0,1,.7,1.439A4.616,4.616,0,0,1,1908.346-78.975Z" transform="translate(-8.222 -18.829)" fill="url(#linear-gradient-4)"/>
    <path id="Path_190829" data-name="Path 190829" d="M2032.42-276.305a1.178,1.178,0,0,0,.26-.019.387.387,0,0,0,.216-.117.389.389,0,0,0,.082-.173,1.055,1.055,0,0,0,.019-.2,5.935,5.935,0,0,0-1.088-3.47,7.831,7.831,0,0,0-2.785-2.478,10.782,10.782,0,0,0-3.531-1.107,18.375,18.375,0,0,0-3.746-.119,27.878,27.878,0,0,0-7.818,1.626,27.89,27.89,0,0,0-7.044,3.764c-1.582,1.167-1.475,1.713-.723,1.968a12.469,12.469,0,0,0,3.154.225l3.834.016,3.833.016,7.668.034Z" transform="translate(-13.276 -10.884)" fill="#0f2771"/>
    <path id="Path_190830" data-name="Path 190830" d="M2039.723-278.3a2.147,2.147,0,0,1-.438.186c-.156.049-.322.087-.5.127a.511.511,0,0,1-.18.073c-.063.014-.132.025-.21.044a13.931,13.931,0,0,1-1.83.229c-.64.044-1.293.063-1.918.083h-.43c-.273,0-.537,0-.791,0s-.5.014-.732.034c-1.914.117-3.28-.81-4.861-1.762a10.937,10.937,0,0,0-6.151-1.909.616.616,0,0,0-.146.025l-.205.053c-.84.2-2.616.9-4.769,1.7a69.1,69.1,0,0,1-7.024,2.284,22.907,22.907,0,0,1-4.783.669,22.045,22.045,0,0,1-4.785-.356,53.728,53.728,0,0,0-8.752-.742c-2.924-.049-5.853.019-8.781-.039-3.026-.039-6.063-.107-9.1-.147s-6.072-.049-9.1.03c-.762.019-5.115.049-9.284.127s-8.152.205-8.171.419a63.046,63.046,0,0,1,2.333-9.488c1.015-3.153,2.216-6.248,3.446-9.137.7-1.66,1.474-3.251,2.269-4.828s1.616-3.139,2.416-4.739c.273-.547.743-1.426,1.094-2.226s.585-1.523.39-1.757a13.918,13.918,0,0,0,3.29,2c1.221.566,2.509,1.064,3.7,1.592.2.1.391.185.585.273s.391.177.586.273c4.7,2.324,9.811,4.579,14.946,6.776s10.3,4.335,15.122,6.424c.82.351,1.65.7,2.494.985a11.322,11.322,0,0,0,2.582.577c3.125.214,6.961-1.387,10.489-3.012s6.752-3.275,8.645-3.158a41.006,41.006,0,0,1,5.726,1.425,32.36,32.36,0,0,1,7.747,3.3,5.217,5.217,0,0,1,1.781,2.421c.386.938.62,1.913.873,2.655.137.391.909,2.44,1.563,4.432S2040.056-278.459,2039.723-278.3Z" transform="translate(-10.894 -9.861)" fill="url(#linear-gradient-5)"/>
    <path id="Path_190831" data-name="Path 190831" d="M2021.331-281.115c-.84.2-2.616.9-4.769,1.7a69.1,69.1,0,0,1-7.024,2.284,22.907,22.907,0,0,1-4.783.669,22.045,22.045,0,0,1-4.785-.356,53.728,53.728,0,0,0-8.752-.742c-2.924-.049-5.853.019-8.781-.039-3.026-.039-6.063-.107-9.1-.147s-6.072-.049-9.1.03c-.762.019-5.115.049-9.284.127s-8.152.205-8.171.419a63.046,63.046,0,0,1,2.333-9.488c1.015-3.153,2.216-6.248,3.446-9.137.7-1.66,1.474-3.251,2.269-4.828s1.616-3.139,2.416-4.739c.273-.547.743-1.426,1.094-2.226s.585-1.523.39-1.757a13.918,13.918,0,0,0,3.29,2c1.221.566,2.509,1.064,3.7,1.592a45.576,45.576,0,0,1-.489,15.018,58.583,58.583,0,0,1-1.767,7.257c5.721.664,12.094,1.323,18.476,1.9s12.774,1.056,18.535,1.368c2.363.117,4.735.225,7.1.205a45.146,45.146,0,0,0,7.072-.557c.957-.156,1.923-.351,2.9-.492a14.291,14.291,0,0,1,2.923-.172,3.175,3.175,0,0,1,.43.03A3.062,3.062,0,0,1,2021.331-281.115Z" transform="translate(-10.894 -9.861)" opacity="0.57" fill="url(#linear-gradient-6)"/>
    <g id="Group_129979" data-name="Group 129979" transform="translate(2011.403 -300.623)">
      <path id="Path_190832" data-name="Path 190832" d="M2037.827-276.564h-.43c-.176-.294-.361-.586-.547-.879s-.37-.586-.547-.879a19.505,19.505,0,0,0-1.079-1.64c-.385-.527-.8-1.034-1.224-1.523-.2-.234-.391-.468-.6-.688a5,5,0,0,0-.654-.6,4.02,4.02,0,0,0-.835-.483,8.316,8.316,0,0,0-.922-.337,15.066,15.066,0,0,0-2.641-.5c-.893-.1-1.792-.147-2.67-.205a.228.228,0,0,1-.205-.225.164.164,0,0,1,.205-.166q.732.03,1.464.088t1.464.146a18.142,18.142,0,0,1,1.845.322,8.783,8.783,0,0,1,1.786.615,3.651,3.651,0,0,1,.84.517,6.8,6.8,0,0,1,.723.694c.254.273.5.556.732.839s.459.567.674.84c.449.586.849,1.181,1.235,1.787s.756,1.221,1.147,1.845a2.336,2.336,0,0,0,.132.215A.726.726,0,0,1,2037.827-276.564Z" transform="translate(-2025.477 289.766)" fill="#ea8e67"/>
      <path id="Path_190833" data-name="Path 190833" d="M2042-277.208a.511.511,0,0,1-.18.073c-.063.014-.132.025-.21.044-.078-.215-.166-.43-.253-.644s-.176-.43-.254-.645c-.312-.761-.625-1.513-.937-2.269s-.626-1.518-.937-2.3c-.137-.332-.264-.683-.391-1.039s-.254-.718-.391-1.07a4.606,4.606,0,0,0-.625-1.044,5.629,5.629,0,0,0-.859-.869,6.417,6.417,0,0,0-2.285-1.166,23.291,23.291,0,0,0-2.519-.552c-.468-.117-.927-.225-1.391-.313a13.451,13.451,0,0,0-1.42-.195c-.468-.059-.937-.1-1.4-.152a9.961,9.961,0,0,1-1.371-.239.171.171,0,0,1-.152-.225.208.208,0,0,1,.23-.166,12.753,12.753,0,0,0,1.664.278c.561.063,1.128.112,1.694.19.508.059,1.015.156,1.523.264s1.015.225,1.523.322c.449.1.9.195,1.343.312a10.539,10.539,0,0,1,1.313.43,6.18,6.18,0,0,1,1.05.561,5.152,5.152,0,0,1,.9.767,4.342,4.342,0,0,1,.742.908,5.474,5.474,0,0,1,.508,1.083c.137.351.273.713.411,1.074s.272.723.41,1.074c.371.917.751,1.836,1.132,2.753S2041.633-278.125,2042-277.208Z" transform="translate(-2025.515 289.98)" fill="#ea8e67"/>
    </g>
    <path id="Path_190834" data-name="Path 190834" d="M2001.283-202.578a185.77,185.77,0,0,1-27.734,61.9,188.278,188.278,0,0,1-47.709,48.255c-.156.117-.312.234-.468.346s-.313.22-.469.318c-1.229.859-2.44,1.747-3.661,2.631s-2.45,1.762-3.719,2.6a64.6,64.6,0,0,1-7.109,4.038c-2.467,1.217-5,2.31-7.5,3.3a8.538,8.538,0,0,1-.885.31,3.026,3.026,0,0,1-.916.12,3.085,3.085,0,0,1-.8-.154c-.261-.083-.515-.189-.768-.295a44.842,44.842,0,0,1-5.031-2.368,14.672,14.672,0,0,1-4.216-3.453,1.921,1.921,0,0,1-.215-.309.764.764,0,0,1-.1-.351.791.791,0,0,1,.047-.258,2.4,2.4,0,0,1,.1-.246q3-6.369,5.781-12.837t5.354-13.02c1.629-4.156,3.28-8.324,4.87-12.511s3.12-8.4,4.51-12.637a112.6,112.6,0,0,0,3.456-12.933,80.814,80.814,0,0,0,1.586-13.283,17.917,17.917,0,0,0-.079-2.606,6.091,6.091,0,0,0-.781-2.432,6.134,6.134,0,0,0-2.865-2.358,15.971,15.971,0,0,0-3.772-1.039,51.191,51.191,0,0,0-5.571-.625c-1.859-.127-3.724-.215-5.6-.391-.253-.019-.5-.049-.742-.087s-.489-.088-.742-.147c-1.132-.176-2.265-.43-3.393-.723s-2.25-.625-3.364-.957c-.234-.059-.468-.117-.7-.18s-.469-.131-.7-.21c-.8-.215-1.6-.429-2.4-.65s-1.586-.443-2.367-.677c-.332-.1-.674-.205-1.015-.313s-.683-.215-1.015-.313c-1.972-.644-3.925-1.346-5.882-2.143s-3.919-1.683-5.911-2.7c-.41-.214-.819-.429-1.224-.644s-.806-.43-1.2-.644c-1.269-.7-2.508-1.436-3.68-2.245a22.4,22.4,0,0,1-3.27-2.715,49.2,49.2,0,0,0,6.443-2.3,69.224,69.224,0,0,0,6.209-3.089c2.44-1.347,4.842-2.832,7.2-4.369s4.656-3.129,6.9-4.691c2.206-1.523,4.266-3.027,6.268-4.6s3.943-3.226,5.916-5.043c.82-.761,1.7-1.454,2.587-2.138s1.786-1.357,2.646-2.079c.429-.37.859-.742,1.292-1.107s.874-.727,1.323-1.079c.195-.137.4-.283.61-.43s.425-.293.639-.43a5.1,5.1,0,0,1,.811-.459,4.117,4.117,0,0,1,.868-.283c1.308-.215,2.606-.517,3.9-.844s2.582-.678,3.871-.99c.918-.235-3.861-.144-8.639-.059s-9.557.167-8.639-.086c1.249-.352,7.784-2.172,15.937-4.247s17.923-4.408,25.643-5.786c6.273-1.12,15.164-4.658,23.916-6.7s17.368-2.588,23.088,2.273a41.113,41.113,0,0,1,11.52,15.429A30.4,30.4,0,0,1,2001.283-202.578Z" transform="translate(-7.364 -12.642)" fill="#61a0e0"/>
    <path id="Path_190835" data-name="Path 190835" d="M1970.726-194.06a48.775,48.775,0,0,1-1.83,9.093c-.874,2.982-1.958,5.921-3.09,8.83a204.564,204.564,0,0,1-16.547,33.3,217.566,217.566,0,0,1-22.229,29.878,68.267,68.267,0,0,0-5.408,6.59,19.106,19.106,0,0,0-3.3,7.586,9.008,9.008,0,0,0-.141,1.732,5.466,5.466,0,0,0,.3,1.7,5.032,5.032,0,0,0,3.109,2.864,9.917,9.917,0,0,0,4.545.493c-.156.117-.312.234-.468.346s-.313.22-.469.318c-1.229.859-2.44,1.747-3.661,2.631s-2.45,1.762-3.719,2.6c-2.674,1.777-5.526,3.541-8.427,5.217s-5.851,3.265-8.721,4.69c0,0-.535-.261-1.193-.589s-1.437-.726-1.926-1c-.6-.313-1.21-.645-1.816-.982s-1.21-.678-1.816-1.01c-.273-.155-.557-.312-.84-.473s-.567-.327-.84-.5a14.507,14.507,0,0,1-2.981-2.492c-.844-.88-1.429-1.614-1.429-1.614s.23-.572.556-1.355.746-1.777,1.126-2.62c2.4-5.314,5.091-10.654,7.755-16s5.3-10.708,7.586-16.058a175.645,175.645,0,0,0,7.542-20.608,88.478,88.478,0,0,0,3.588-21.487,17.917,17.917,0,0,0-.079-2.606,6.089,6.089,0,0,0-.781-2.432,3.987,3.987,0,0,0-2.885-1.776c-1.185-.231-2.523-.244-3.792-.459-1.855-.332-3.7-.788-5.55-1.205a44.158,44.158,0,0,0-5.579-.972c-.253-.019-.5-.049-.742-.087s-.488-.088-.742-.147q-1.729-.41-3.422-.825t-3.335-.854c-.234-.059-.468-.117-.7-.18s-.468-.131-.7-.21c-.8-.195-1.6-.41-2.4-.634s-1.586-.459-2.367-.693c-.332-.1-.674-.205-1.015-.313s-.683-.215-1.015-.313c-1.972-.644-3.925-1.346-5.882-2.143s-3.919-1.683-5.911-2.7c-.41-.214-.819-.429-1.224-.644s-.806-.43-1.2-.644c.254-.528.518-1.045.786-1.562s.542-1.035.816-1.562q.966-1.845,1.991-3.656t2.109-3.568a18.221,18.221,0,0,0,5.794-5.58,69.725,69.725,0,0,0,4.209-7.09c.372-.685.382-4.8.327-8.746s-.175-7.712-.06-7.7c4.327.4,9.891.035,17.642-1.179s17.694-3.281,30.776-6.3c0,0-.273,1.944-.574,4.1s-.633,4.517-.75,5.356a80.55,80.55,0,0,1-1.6,8.258,70.139,70.139,0,0,1-2.5,8.025q-.586,1.552-1.205,3.1t-1.293,3.1c-.586,1.328-1.24,2.577-1.929,3.808s-1.411,2.44-2.132,3.69c-.43.723.8.83,2.172.752s2.885-.342,3.021-.362q2.608-.292,5.214-.59t5.214-.62c4.9-.586,9.733-1.328,14.547-2.192s9.606-1.85,14.429-2.924a32.259,32.259,0,0,1,3.86-.816c1.48-.16,2.837,0,3.129,1.089a4.209,4.209,0,0,1,.112.957C1970.766-194.7,1970.747-194.373,1970.726-194.06Z" transform="translate(-7.657 -13.077)" fill="#87bef5" opacity="0.74"/>
    <path id="Path_190836" data-name="Path 190836" d="M1916.447-36.264c0,.039,0,.088,0,.137a.412.412,0,0,1-.034.136,15.087,15.087,0,0,1-.605,3.617,6.093,6.093,0,0,1-1.894,2.944,59.494,59.494,0,0,1-9.63-4.682c-3.1-1.791-6.145-3.694-9.308-5.355-1.953-1-3.944-1.9-5.931-2.812s-3.968-1.816-5.9-2.812a45.977,45.977,0,0,1-5.608-3.422,27.066,27.066,0,0,1-4.818-4.387,14.629,14.629,0,0,1-1.245-1.733,8.119,8.119,0,0,1-.864-1.938,1.856,1.856,0,0,1-.093-.391.708.708,0,0,1,.054-.391s.088-.078.21-.176a3.6,3.6,0,0,1,.415-.293,25.976,25.976,0,0,0,3.944-2.674,34.657,34.657,0,0,0,3.476-3.261c.449-.508.82-1.318,1.289-1.928a1.562,1.562,0,0,1,1.874-.727,3.994,3.994,0,0,1,1.152.683c.391.3.781.644,1.151.917.1.078.2.147.288.21s.18.122.258.18a28.007,28.007,0,0,0,7.688,2.84,52.8,52.8,0,0,1,7.893,2.314,35.884,35.884,0,0,1,6.639,3.622,28.18,28.18,0,0,1,5.583,5.086,22.22,22.22,0,0,1,2.06,2.963,14.931,14.931,0,0,1,1.416,3.285,16.616,16.616,0,0,1,.639,3.993A33.961,33.961,0,0,1,1916.447-36.264Z" transform="translate(-7.812 -19.673)" fill="url(#linear-gradient-7)"/>
    <path id="Path_190837" data-name="Path 190837" d="M1915.9-32.079c-.058.468-.116.947-.195,1.42a10.728,10.728,0,0,1-.313,1.391,5.574,5.574,0,0,1-.557,1.453,1.976,1.976,0,0,1-1.166.913,4.206,4.206,0,0,1-1.709.093,12.7,12.7,0,0,1-1.689-.362c-1.245-.333-2.493-.668-3.72-1.058a27.257,27.257,0,0,1-3.594-1.4c-.748-.361-1.47-.766-2.181-1.193s-1.41-.876-2.107-1.325c-4.252-2.733-8.523-5.482-12.618-8.448A90.742,90.742,0,0,1,1874.5-50.35a16.97,16.97,0,0,1-1.664-1.9,6.725,6.725,0,0,1-1.117-2.247c-.077-.3-.211-.585-.242-.805s.04-.371.377-.4c0,0,.453.195.957.423a13.531,13.531,0,0,1,1.271.628c1.034.644,2.118,1.327,2.972,1.869s1.48.942,1.6,1.02c1.621,1.015,3.27,2.011,4.935,2.982s3.343,1.918,5.023,2.836c2.206,1.192,4.432,2.343,6.629,3.539s4.363,2.436,6.452,3.8c2.031,1.327,4.042,2.8,6.145,4.036a19.032,19.032,0,0,0,6.7,2.6,3.385,3.385,0,0,0,.7.059A1.494,1.494,0,0,0,1915.9-32.079Z" transform="translate(-7.851 -20.109)" fill="#fff"/>
    <g id="Group_129980" data-name="Group 129980" transform="translate(1891.698 -77.288)">
      <path id="Path_190838" data-name="Path 190838" d="M1905.1-56.41q-.852,1.134-1.691,2.279t-1.64,2.316a.627.627,0,0,1-.34.25.529.529,0,0,1-.417-.052.582.582,0,0,1-.254-.34.493.493,0,0,1,.056-.417q.8-1.17,1.64-2.316c.557-.764,1.123-1.523,1.691-2.278a.685.685,0,0,1,.342-.249.508.508,0,0,1,.416.051.6.6,0,0,1,.255.34.463.463,0,0,1-.057.417Z" transform="translate(-1900.732 57.241)" fill="#fff"/>
      <path id="Path_190839" data-name="Path 190839" d="M1910.043-53.122c-.568.755-1.134,1.514-1.691,2.278s-1.105,1.535-1.64,2.316a.626.626,0,0,1-.341.251.524.524,0,0,1-.417-.053.58.58,0,0,1-.254-.339.5.5,0,0,1,.056-.418c.534-.78,1.083-1.551,1.64-2.316s1.122-1.523,1.691-2.278a.689.689,0,0,1,.342-.25.505.505,0,0,1,.416.052.6.6,0,0,1,.255.34.46.46,0,0,1-.057.417Z" transform="translate(-1900.932 57.108)" fill="#fff"/>
      <path id="Path_190840" data-name="Path 190840" d="M1914-49.334q-.853,1.133-1.691,2.278c-.557.765-1.105,1.535-1.64,2.316a.624.624,0,0,1-.34.251.526.526,0,0,1-.417-.053.579.579,0,0,1-.254-.34.493.493,0,0,1,.056-.417c.534-.78,1.083-1.551,1.64-2.316s1.123-1.523,1.691-2.279a.691.691,0,0,1,.342-.249.51.51,0,0,1,.416.052.594.594,0,0,1,.255.34.464.464,0,0,1-.057.417Z" transform="translate(-1901.091 56.955)" fill="#fff"/>
    </g>
    <path id="Path_190841" data-name="Path 190841" d="M1915.319-29.318a5.742,5.742,0,0,1-.2.619c-.078.2-.166.4-.264.591a4.756,4.756,0,0,1-1.322,1.591,3.272,3.272,0,0,1-1.88.713,4.443,4.443,0,0,1-1.083-.147c-.351-.087-.693-.2-1.025-.321q-3.281-1.172-6.419-2.631t-6.155-3.188c-1.445-.84-2.861-1.727-4.266-2.641s-2.8-1.849-4.208-2.787q-3.338-2.256-6.683-4.491T1875.1-46.5a20.906,20.906,0,0,1-3.422-2.709,6.54,6.54,0,0,1-1.928-3.617,6.715,6.715,0,0,1,.01-2.07,6.132,6.132,0,0,1,.772-2.07c0,.02.42.294,1.064.708s1.513.971,2.411,1.557a8.134,8.134,0,0,0,.342.756c.127.249.264.493.4.727a25.123,25.123,0,0,0,3.983,4.969,44.773,44.773,0,0,0,4.92,4.091,102.133,102.133,0,0,0,9.582,6.164c3.3,1.889,6.663,3.637,10.022,5.316a35.786,35.786,0,0,0,5.247,2.192,26.892,26.892,0,0,0,5.569,1.167,4.6,4.6,0,0,0,.551.029C1914.832-29.289,1915.066-29.3,1915.319-29.318Z" transform="translate(-7.779 -20.058)" fill="#caced8"/>
    <path id="Path_190842" data-name="Path 190842" d="M1857.049-56.3v.039c-.2.938-.5,2.46-.825,3.974s-.678,3.016-.971,3.914c-.117.332-.234.9-.371,1.44a3.855,3.855,0,0,1-.488,1.294,1.378,1.378,0,0,1-.923.4c-.365.043-.756.034-1.069.073a20.445,20.445,0,0,1-2.865.195,8.569,8.569,0,0,1-2.837-.508c-.547-.195-.83-.38-.981-.7a4.181,4.181,0,0,1-.191-1.523c-.019-.566-.038-1.123-.059-1.684s-.038-1.128-.058-1.713v-.273c-.078-1.992-.323-3.983-.552-5.971a56.8,56.8,0,0,1-.464-5.94,1.713,1.713,0,0,1,.068-.376c.04-.151.088-.326.128-.522a6.105,6.105,0,0,0,.166-.6,5.248,5.248,0,0,0,.106-.688,8.114,8.114,0,0,1,.177-1.532,2.318,2.318,0,0,1,.878-1.123,5.248,5.248,0,0,1,4.047-1.216,7.068,7.068,0,0,1,3.958,1.919l.118.117.117.117a9.861,9.861,0,0,1,2.981,4.876A13.892,13.892,0,0,1,1857.049-56.3Z" transform="translate(-6.758 -19.557)" fill="url(#linear-gradient-8)"/>
    <path id="Path_190843" data-name="Path 190843" d="M1859.083-77.539a69.953,69.953,0,0,1-1.347,7.381,33.726,33.726,0,0,1-2.611,7.061,4.763,4.763,0,0,1-.344.6,1.645,1.645,0,0,1-.482.471,1.635,1.635,0,0,1-.756.216,4.785,4.785,0,0,1-.812-.034q-1.7-.18-3.389-.445t-3.362-.617a4.975,4.975,0,0,1-.592-.154,1.63,1.63,0,0,1-.527-.288,1.628,1.628,0,0,1-.431-.61,5.154,5.154,0,0,1-.237-.733c-3.652-13.732-8.052-27.238-12.783-40.639s-9.792-26.7-14.766-40.006c-.763-2.043-1.526-4.09-2.218-6.158a64.707,64.707,0,0,1-1.793-6.283c-.258-1.146.51-1.455,1.518-1.481s2.253.233,2.952.222q1.347-.029,2.695-.029t2.694.029c5,.059,10.007.343,15.009.688s10,.757,14.981,1.07a6.789,6.789,0,0,1,1.128.131,2.241,2.241,0,0,1,.981.454,2.331,2.331,0,0,1,.6.844,8.071,8.071,0,0,1,.337.991,168.73,168.73,0,0,1,5.687,38.293A220.364,220.364,0,0,1,1859.083-77.539Z" transform="translate(-5.472 -15.925)" fill="#61a0e0"/>
    <path id="Path_190844" data-name="Path 190844" d="M1859.519-33.06c-.063.027-.127.053-.191.078l-.191.073a18,18,0,0,1-6.373,1.029,40.348,40.348,0,0,1-6.532-.649,11.2,11.2,0,0,1-2.418-.626,3.814,3.814,0,0,1-1.855-1.466,3.8,3.8,0,0,1-.5-1.417,9.381,9.381,0,0,1-.1-1.532q0-1.108.08-2.213t.226-2.2a10.859,10.859,0,0,1,.429-1.8c.18-.569.375-1.131.536-1.747a3.36,3.36,0,0,0,.133-.674c.033-.273.062-.576.1-.849a4.464,4.464,0,0,1,.147-.595,1.406,1.406,0,0,1,.2-.42.979.979,0,0,1,.18-.185,1.265,1.265,0,0,1,.21-.127,1.692,1.692,0,0,1,.6-.177c.22-.029.454-.038.688-.059.723-.1,1.436-.195,2.148-.283s1.426-.166,2.149-.225a29.893,29.893,0,0,1,4.836-.131,5.166,5.166,0,0,1,3.988,2.007,18.227,18.227,0,0,1,2.144,4.265,21.2,21.2,0,0,1,1.058,4.677.135.135,0,0,1,.035.078.47.47,0,0,1,0,.078c.039.273.068.537.088.8s.029.513.029.767a9.709,9.709,0,0,1,.025,1.414,2.034,2.034,0,0,1-.559,1.263,3.153,3.153,0,0,1-.616.489A5.276,5.276,0,0,1,1859.519-33.06Z" transform="translate(-6.635 -20.367)" fill="url(#linear-gradient-9)"/>
    <path id="Path_190845" data-name="Path 190845" d="M1859-77.532q-.615,4.481-1.4,8.9t-1.723,8.752s-2.333-.117-4.876-.273-5.3-.351-6.135-.508c-.411-.078-.8-.127-1.089-.156s-.473-.038-.473-.038-.459-1.426-.966-3.022-1.064-3.363-1.26-4.047c-.663-2.187-1.474-4.744-2.265-7.244s-1.562-4.939-2.147-6.892c-3.436-11.441-7.41-23.644-11.773-36.145s-9.118-25.3-14.117-37.932c-.742-1.875.215-2.587,1.66-2.837a31.1,31.1,0,0,1,4.588-.054q1.347-.029,2.695-.029t2.694.029a7.931,7.931,0,0,1,1.259,1.333,9.5,9.5,0,0,1,.966,1.6,17.413,17.413,0,0,1,1.3,4.237c.274,1.46.433,2.947.607,4.406a38.764,38.764,0,0,0,.784,4.264c.329,1.408.7,2.807,1.055,4.216.732,2.931,1.482,5.857,2.279,8.772s1.637,5.814,2.55,8.695a114.522,114.522,0,0,0,10.359,23.48A113.555,113.555,0,0,0,1859-77.532Z" transform="translate(-5.389 -15.932)" fill="#87bef5" opacity="0.74"/>
    <path id="Path_190846" data-name="Path 190846" d="M1859.873-31.647a7.619,7.619,0,0,1-2.894.805,22.259,22.259,0,0,1-3.041.132c-1.738-.02-4.94.225-7.839-.049s-5.5-1.064-6.023-3.153a6.979,6.979,0,0,1-.18-2.153,10.544,10.544,0,0,1,.375-2.181,8.022,8.022,0,0,0,3.881,1.42,40.83,40.83,0,0,0,4.2.22c1.561.059,3.133.049,4.7-.03s3.144-.225,4.706-.439c.566-.078,1.142-.166,1.718-.269s1.152-.219,1.719-.356c.039.273.068.537.088.8s.029.513.029.767a9.7,9.7,0,0,1-.122,2.538A2.923,2.923,0,0,1,1859.873-31.647Z" transform="translate(-6.575 -20.815)" fill="#caced8"/>
    <path id="Path_190847" data-name="Path 190847" d="M1970.6-235.994a34.444,34.444,0,0,1,5.37-1.362,15.875,15.875,0,0,1,5.455.012,16.2,16.2,0,0,1,6.46,2.98,41.443,41.443,0,0,1,5.408,4.913c.808.843,1.613,1.7,2.336,2.621a14.3,14.3,0,0,1,1.846,2.952,9.033,9.033,0,0,1,.814,3.407,6.413,6.413,0,0,1-.757,3.341,7.379,7.379,0,0,1-2.568,2.583,21.437,21.437,0,0,1-3.384,1.664q-7.893,3.253-16.027,5.88t-16.438,4.608a7.569,7.569,0,0,1-1.2.213,2.534,2.534,0,0,1-1.167-.157,2.393,2.393,0,0,1-1.192-1.191,5.826,5.826,0,0,1-.508-1.724,35.614,35.614,0,0,1-.2-10.168,42.691,42.691,0,0,1,2.841-10.273,14.406,14.406,0,0,1,5.011-6.683A28.05,28.05,0,0,1,1970.6-235.994Z" transform="translate(-11.209 -12.761)" fill="#87bef5" opacity="0.74"/>
    <path id="Path_190848" data-name="Path 190848" d="M1964.05-179.918a79.072,79.072,0,0,1-17.135,10.856,79.073,79.073,0,0,1-19.328,6.159,49.545,49.545,0,0,1-5.1.683,28.188,28.188,0,0,1-5.122-.05,7.683,7.683,0,0,1-1.192-.205,3.211,3.211,0,0,1-1.078-.5c-2.023-1.493-1.469-2.851-.141-3.873a11.238,11.238,0,0,1,4.506-1.861c2.518-.356,5.029-.775,7.533-1.24s5-.975,7.483-1.514q3.76-.816,7.492-1.754t7.431-2q1.85-.528,3.691-1.087t3.672-1.147c.972-.313,2.4-.606,3.789-.985A9.931,9.931,0,0,0,1964.05-179.918Z" transform="translate(-9.56 -15.091)" fill="#61a0e0"/>
    <path id="Path_190849" data-name="Path 190849" d="M1958.035-309.28c-.254,2.133-.547,4.071-.879,5.995s-.7,3.835-1.113,5.914a47.26,47.26,0,0,1-1.708,6.341,53.668,53.668,0,0,1-2.587,6.208c-.7,1.439-1.484,2.862-2.339,4.248a47.751,47.751,0,0,1-2.777,4.034c-.508.693-1.044,1.378-1.606,2.049s-1.147,1.328-1.752,1.968a9.186,9.186,0,0,1-4.691,3.062,13.158,13.158,0,0,1-5.657-.432c-1.913-.426-3.866-.879-5.8-1.377s-3.847-1.04-5.682-1.644c-7.729-2.571-15.49-5.122-23.076-8.08a146.737,146.737,0,0,1-22.03-10.516,95.575,95.575,0,0,0,7.51,30.26,95.585,95.585,0,0,0,16.79,26.27,10.1,10.1,0,0,1,.8.964,3.119,3.119,0,0,1,.518,1.11,3.016,3.016,0,0,1,.021,1.075,7.694,7.694,0,0,1-.247,1.065,37.817,37.817,0,0,1-2.151,5.612,57.464,57.464,0,0,1-2.878,5.292,64.971,64.971,0,0,1-20,20.468,80.581,80.581,0,0,1-26.689,11.136c-4,.871-7.781,2.123-11.571,3.294a72.1,72.1,0,0,1-11.629,2.814c-4,.552-7.962,1.029-11.94,1.367s-7.978.54-12.058.54c-1.387,0-2.792.01-4.193.054s-2.8.124-4.164.267a8.618,8.618,0,0,1-3.577-.489,18.006,18.006,0,0,1-3.256-1.5,20.715,20.715,0,0,1-5.389-4.385,36.1,36.1,0,0,1-3.983-5.532,132.734,132.734,0,0,1-6.892-13.006c-2.07-4.456-3.925-9-5.6-13.513-6.306-16.938-12.026-34.312-15.708-51.975s-5.321-35.615-3.466-53.709a136.769,136.769,0,0,1,3.652-20.68,93.446,93.446,0,0,1,7.517-19.773q.82-1.547,1.674-3.111c.571-1.039,1.156-2.079,1.762-3.11,1.9-3.2,3.422-5.913,5.468-7.735s4.62-2.755,8.639-2.389c5.4.49,10.84.842,16.278.914a127.164,127.164,0,0,0,16.276-.757c2.6-.3,5.2-.7,7.766-1.207s5.118-1.137,7.626-1.9a22.789,22.789,0,0,0,2.619-1.008c.855-.378,1.7-.776,2.569-1.131a4.6,4.6,0,0,1,2.3-.389,15.365,15.365,0,0,1,2.376.541q2.824.753,5.632,1.561t5.594,1.694c3.648,1.156,7.267,2.414,10.835,3.8s7.083,2.907,10.523,4.586c.371.178.732.356,1.089.538s.707.368,1.059.564a1,1,0,0,1,.176.076c.059.031.117.066.176.1a120.456,120.456,0,0,1,15.2,10.1c4.867,3.7,9.592,7.581,14.356,11.224,5,3.839,10.027,7.66,15.146,11.375s10.334,7.323,15.7,10.736q1.113.72,2.249,1.417t2.28,1.39c2.948,1.778,6.014,3.52,9.2,5.039a55.461,55.461,0,0,0,9.9,3.706c.274.071.557.143.844.209s.582.129.874.182c.761.178,1.5.365,2.113.568a3.463,3.463,0,0,1,1.323.676c.7.5.927,1.733.947,3.093A30.23,30.23,0,0,1,1958.035-309.28Z" transform="translate(-2.775 -6.751)" fill="#0b2463"/>
    <path id="Path_190850" data-name="Path 190850" d="M1840.541-345.91c.527,2.4,1.083,4.793,1.694,7.175s1.274,4.755,2.016,7.117q.235.761.5,1.523t.556,1.523a123.73,123.73,0,0,0,5.277,13.028,136.406,136.406,0,0,0,6.711,12.471,124.458,124.458,0,0,0,9,12.789,111.822,111.822,0,0,0,10.758,11.618q1.435,1.347,2.929,2.655c1,.868,2.011,1.718,3.047,2.538q-1.114-4.158-1.845-8.4t-1.083-8.513a143.148,143.148,0,0,0,20.134,9.781c6.926,2.783,14.014,5.194,21.1,7.557.2.078.4.146.61.209s.425.122.639.18c1.543.509,3.095.986,4.652,1.445s3.119.9,4.681,1.328c.8.195,1.592.391,2.383.581s1.581.376,2.382.552a13.347,13.347,0,0,0,5.657.434,9.1,9.1,0,0,0,4.691-3.051c.371-.41.743-.82,1.1-1.234s.713-.835,1.045-1.265q1.347-1.611,2.524-3.31t2.2-3.485c.274-.487.548-.986.816-1.488s.533-1.01.786-1.518c-.253.527-4.48-.42-8.854-1.553s-8.894-2.45-9.733-2.665q-5.446-1.376-10.832-2.924t-10.684-3.246c-5.506-1.776-10.9-3.651-16.128-5.853a98.436,98.436,0,0,1-15.073-7.815,113.03,113.03,0,0,1-14.2-10.748,109.443,109.443,0,0,1-12.154-12.681q-2.548-3.1-4.852-6.4t-4.325-6.756c-.683-1.132-1.289-2.293-1.9-3.456s-1.226-2.323-1.928-3.456c-.234-.391-1.445-1.943-2.6-3.476a17.7,17.7,0,0,1-2.245-3.359,10.152,10.152,0,0,0-.737,6.044A61.57,61.57,0,0,0,1840.541-345.91Z" transform="translate(-6.544 -7.893)" fill="#0f2771"/>
    <g id="Group_129981" data-name="Group 129981" transform="translate(1834.804 -380.871)" opacity="0.74">
      <path id="Path_190851" data-name="Path 190851" d="M1871.693-372.5a29.753,29.753,0,0,0-10.065.951,21.672,21.672,0,0,0-8.015,4.2,32.832,32.832,0,0,0-6.931,8.061,27.878,27.878,0,0,0-3.651,9.393c-1.153,6.292-.135,12.6,1.911,18.677a107.318,107.318,0,0,0,8.09,17.29l-.513.235-.513.235a106.732,106.732,0,0,1-8.168-17.556c-2.057-6.181-3.071-12.606-1.9-19.023a28.875,28.875,0,0,1,3.768-9.736,33.575,33.575,0,0,1,7.166-8.322,22.5,22.5,0,0,1,7.458-4.128,29.23,29.23,0,0,1,9.215-1.383c.371.178.732.356,1.089.538S1871.341-372.7,1871.693-372.5Z" transform="translate(-1841.442 373.606)" fill="#87bef5"/>
    </g>
    <path id="Path_190852" data-name="Path 190852" d="M1861.9-366.088a12.169,12.169,0,0,1,5.34-2.631,12.9,12.9,0,0,1,6.071.089,15.97,15.97,0,0,1,4.571,2.105,42.547,42.547,0,0,1,4,3.033c10.833,8.975,21.242,18.639,32.268,27.453s22.671,16.781,35.974,22.363a8.566,8.566,0,0,1,.819.376,2.6,2.6,0,0,1,.693.525,2.159,2.159,0,0,1,.424.736,4.415,4.415,0,0,1,.193.828,9.779,9.779,0,0,1-1.239,6.142,13.4,13.4,0,0,1-4.592,4.788,18.484,18.484,0,0,1-6.413,2.425,25.924,25.924,0,0,1-7.017.3,38.052,38.052,0,0,1-6.851-1.3c-2.239-.624-4.435-1.4-6.593-2.227a127.047,127.047,0,0,1-33.708-19.031,95.064,95.064,0,0,1-24.391-28.34,23.412,23.412,0,0,1-3.172-9.021A9.85,9.85,0,0,1,1861.9-366.088Z" transform="translate(-7.317 -7.45)" fill="#87bef5" opacity="0.74"/>
    <path id="Path_190853" data-name="Path 190853" d="M1883.393-344.637c.083-3.163-3.095-6.225-6.05-9.23s-5.69-5.956-4.72-8.9c.684-2.076,2.744-1.978,4.873-1.164a21.627,21.627,0,0,1,5.287,3.135,26.8,26.8,0,0,1,4.738,5.105,13.847,13.847,0,0,1,2.616,5.964c.337,2.784-.791,4.574-2.282,5.41A3.87,3.87,0,0,1,1883.393-344.637Z" transform="translate(-7.89 -7.634)" fill="#87bef5" opacity="0.74"/>
    <path id="Path_190854" data-name="Path 190854" d="M1966.49-306.38c-.254,2.133-.547,4.071-.879,5.995s-.7,3.835-1.113,5.914a47.26,47.26,0,0,1-1.708,6.341,53.668,53.668,0,0,1-2.587,6.208c-.7,1.439-1.484,2.862-2.339,4.248a47.751,47.751,0,0,1-2.777,4.034q1.406-2.613,2.577-5.309t2.108-5.5a64.821,64.821,0,0,0,2.533-10.064,62.4,62.4,0,0,0,.864-10.305c0-1.581,0-3.243-.1-4.9a26.232,26.232,0,0,0-.683-4.843c.761.178,1.5.365,2.113.568a3.463,3.463,0,0,1,1.323.676c.7.5.927,1.733.947,3.093A30.23,30.23,0,0,1,1966.49-306.38Z" transform="translate(-11.23 -9.651)" fill="url(#linear-gradient-10)"/>
    <path id="Path_190855" data-name="Path 190855" d="M1738.679-323.306c-.442-4.553-.735-9.1-.854-13.622s-.064-9.024.191-13.487a83.234,83.234,0,0,1,2.1-14.166c1.109-4.561,2.585-8.468,4.309-10.249a35.186,35.186,0,0,1,8.032-5.849c3.016-1.694,6.194-3.163,9-4.493a13.738,13.738,0,0,1,1.475-.627,4.518,4.518,0,0,1,1.552-.266,4.626,4.626,0,0,1,1.76.44c.563.248,1.106.567,1.642.868,5.743,3.233,12.482,4.615,19.37,5a119.844,119.844,0,0,0,20.262-.941c2.6-.3,5.2-.7,7.766-1.207s5.118-1.137,7.626-1.9a9.944,9.944,0,0,0,3.893-2.369c.86-.664,1.7-.94,3.766-.035.621.1,1.237.236,1.852.384s1.229.3,1.844.427c-2.285,2.012-4.937,4.125-7.509,6.085s-5.065,3.767-7.031,5.167a76.442,76.442,0,0,1-10.694,6.118c-3.736,1.8-7.327,3.291-9.825,4.215-5.023,1.856-8.814,3.191-12.211,4.08a40.554,40.554,0,0,1-9.852,1.4,32.1,32.1,0,0,0,.932,5.243,33.325,33.325,0,0,1,1.123,3.436q.982,3.653,2.172,7.245t2.6,7.1a123.791,123.791,0,0,0,6.911,14.42,135.665,135.665,0,0,0,8.637,13.461,143.785,143.785,0,0,0,39.174,36.279,166.294,166.294,0,0,0,50.769,21.322c1.575,2.631,3.26,5.2,5.066,7.672a87.971,87.971,0,0,0,5.785,7.141,10.231,10.231,0,0,1,.8.964,3.119,3.119,0,0,1,.518,1.11,3.016,3.016,0,0,1,.021,1.075,7.819,7.819,0,0,1-.247,1.065,37.817,37.817,0,0,1-2.151,5.612,57.464,57.464,0,0,1-2.878,5.292,76.512,76.512,0,0,1-19.43,21.49,68.628,68.628,0,0,1-26.117,12.159c-4.442.966-8.852,1.926-13.274,2.807s-8.853,1.68-13.337,2.327c-2.407.348-4.816.682-7.231.971s-4.835.531-7.262.694c-2.326.156-4.71.321-7.094.4a63.438,63.438,0,0,1-7.094-.107,23.815,23.815,0,0,1-4.191-.689,16.9,16.9,0,0,1-3.931-1.556,19.783,19.783,0,0,1-5.406-4.607,46.2,46.2,0,0,1-4.085-5.861,132.734,132.734,0,0,1-6.892-13.006c-2.07-4.456-3.925-9-5.6-13.513-2.251-6.052-4.345-12.155-6.333-18.292s-3.873-12.306-5.7-18.492c-3.2-10.822-6.319-22.073-8.917-33.512A278.64,278.64,0,0,1,1738.679-323.306Z" transform="translate(-2.449 -6.733)" fill="#0b1d49"/>
    <path id="Path_190856" data-name="Path 190856" d="M1847.765-319.905a110.911,110.911,0,0,0,4.715,11.128,101.749,101.749,0,0,0,6.187,10.5,87.116,87.116,0,0,0,8.586,11.1c3,3.3,6.262,6.422,10.148,10.054q1.435,1.347,2.929,2.655c1,.868,2.011,1.718,3.047,2.538a75.2,75.2,0,0,1-1.64-7.844c-.424-2.66-.79-5.522-1.279-9.051-.9-.526-3.121-2.095-5.351-3.7s-4.468-3.236-5.4-3.893c-1.6-1.132-3.191-2.284-4.742-3.475s-3.064-2.42-4.513-3.711a43.417,43.417,0,0,1-4.516-4.707c-1.195-1.44-2.078-2.672-2.65-3.451-1.493-2.034-2.678-3.719-3.588-5.071S1848.156-319.2,1847.765-319.905Z" transform="translate(-6.894 -9.435)" fill="#0f2771"/>
    <path id="Path_190857" data-name="Path 190857" d="M1833.486-386.008a.455.455,0,0,1-.088.131,1.149,1.149,0,0,1-.16.139c-1.352.989-2.791,1.924-4.247,2.843s-2.929,1.824-4.35,2.754a36.6,36.6,0,0,1-8.662,4,59.762,59.762,0,0,1-9.575,2.215,62.279,62.279,0,0,1-16.44.1,106.685,106.685,0,0,1-16.136-3.3,33.267,33.267,0,0,1-4.884-1.68,10.9,10.9,0,0,1-3.9-2.778,6.631,6.631,0,0,1-1.467-2.922,3.776,3.776,0,0,1,.613-3.021c.582-.8,1.085-1.515,1.7-2.228a15.7,15.7,0,0,1,2.4-2.221c1.2,1,2.294,1.883,3.5,2.771s2.532,1.783,4.189,2.813a22.7,22.7,0,0,0,5.585,2.549,38.9,38.9,0,0,0,6.233,1.216,56.5,56.5,0,0,0,6.393.55,46.5,46.5,0,0,0,6.41-.273,50.378,50.378,0,0,0,7-1.358,56.918,56.918,0,0,0,6.65-2.229c1.1-.448,2.19-.913,3.259-1.411s2.112-1.033,3.117-1.616c.5-.292.992-.6,1.468-.914s.939-.653,1.383-1a8.327,8.327,0,0,0,.664-.581c.151-.147.227-.235.227-.235a4.537,4.537,0,0,1,1.231,0,13.623,13.623,0,0,1,1.416.242,10.866,10.866,0,0,1,2.542,1.178,14.218,14.218,0,0,1,2.576,1.865,7.929,7.929,0,0,1,.844,1.246A3.046,3.046,0,0,1,1833.486-386.008Z" transform="translate(-3.489 -6.523)" fill="#23479e"/>
    <path id="Path_190858" data-name="Path 190858" d="M1833.089-385.689a5.669,5.669,0,0,1-1.488,1.5c-.577.423-1.208.808-1.817,1.261a58.582,58.582,0,0,1-9.3,5.55,53,53,0,0,1-10.5,3.708,60.316,60.316,0,0,1-11.5,1.6,62.808,62.808,0,0,1-11.624-.571c-2.107-.292-4.207-.686-6.28-1.18s-4.118-1.087-6.117-1.776a43.934,43.934,0,0,1-7.731-3.572,43.471,43.471,0,0,1-6.905-4.984s.371-.493.889-1.149,1.182-1.472,1.767-2.118a18.149,18.149,0,0,1,2.693-2.292c.883-.634,1.581-1.065,1.581-1.065.344.681.6,1.343.875,2a14.814,14.814,0,0,0,.961,1.992,20.179,20.179,0,0,0,3.247,4.011,23.583,23.583,0,0,0,4.292,3.257,23.392,23.392,0,0,0,2.812,1.536,25.7,25.7,0,0,0,3.046,1.176,41.431,41.431,0,0,0,12.579,1.989,67,67,0,0,0,12.921-1.18,81,81,0,0,0,13.438-3.691A63.959,63.959,0,0,0,1833.089-385.689Z" transform="translate(-3.341 -6.571)" fill="#0f2771"/>
    <path id="Path_190859" data-name="Path 190859" d="M1802.652-380.609a90.269,90.269,0,0,0,10.522-2.749,36.9,36.9,0,0,0,9.462-4.623c.374-.268.777-.509,1.182-.749s.812-.48,1.192-.746c.176-.123.349-.249.529-.37a5.309,5.309,0,0,1,.565-.341,3.414,3.414,0,0,1,.649-.252,2.566,2.566,0,0,1,.713-.091,2.7,2.7,0,0,1,.8.147,4.992,4.992,0,0,1,.718.313,5.293,5.293,0,0,1,.688.413,2.137,2.137,0,0,1,.523.515,1.481,1.481,0,0,1,.251.85,2.5,2.5,0,0,1-.181.883,7.246,7.246,0,0,1-2.11,2.8,23.516,23.516,0,0,1-3.183,2.234,30.152,30.152,0,0,1-7.943,3.313,45.761,45.761,0,0,1-8.74,1.394q-2.228.15-4.465.133t-4.464-.166c-.949-.063-2.934-.417-4.683-.755s-3.259-.66-3.259-.66.891-.043,1.863-.1,2.023-.118,2.343-.159c1.137-.147,2.271-.324,3.4-.524s2.253-.419,3.369-.652l.132-.028Z" transform="translate(-4.617 -6.581)" fill="#bbdbfa" opacity="0.74"/>
    <path id="Path_190860" data-name="Path 190860" d="M1815.429-466.578l-.1-.145c-.032-.048-.065-.1-.1-.144-.3-.436-.63-.85-.973-1.256s-.7-.8-1.044-1.2c-.333-.382-.675-.757-1.03-1.12s-.721-.713-1.1-1.045a12.613,12.613,0,0,0-2.54-1.724,10.753,10.753,0,0,0-2.9-.994,5.693,5.693,0,0,0-5.41,1.812,9.731,9.731,0,0,0-2.373,5.473,11.874,11.874,0,0,0,1.361,6.6,16.9,16.9,0,0,0,4.259,5.309,12.768,12.768,0,0,0,3.913,2.239,8.624,8.624,0,0,0,4.453.377.934.934,0,0,0,.553-.221,1.559,1.559,0,0,0,.233-.582c.08-.273.157-.545.234-.819l.23-.82c.161-.569.323-1.14.482-1.709s.321-1.14.48-1.71q.478-1.711.952-3.423t.942-3.425a1.035,1.035,0,0,0-.07-.787C1815.771-466.112,1815.6-466.319,1815.429-466.578Z" transform="translate(-4.875 -3.196)" fill="url(#linear-gradient-11)"/>
    <path id="Path_190861" data-name="Path 190861" d="M1811.021-455.587a3.263,3.263,0,0,1-1.538-.048,8.608,8.608,0,0,1-1.478-.485,7.634,7.634,0,0,1-1.367-.715,6.366,6.366,0,0,1-1.171-1,7.178,7.178,0,0,1-1.468-2.3,7.043,7.043,0,0,1-.549-2.82,4.655,4.655,0,0,1,.193-1.244,3.731,3.731,0,0,1,.566-1.128,4.682,4.682,0,0,1,1.311-1.124,5.673,5.673,0,0,1,1.6-.662,4.733,4.733,0,0,1,2.81.208,5.873,5.873,0,0,1,2.258,1.725,9.428,9.428,0,0,1,.675.876,8.061,8.061,0,0,1,.528.894.8.8,0,0,1,.1.15.761.761,0,0,1,.071.177c.069.122.129.244.188.366s.12.244.189.367a5.2,5.2,0,0,0-1.38-1.28,3.1,3.1,0,0,0-1.7-.51,2.751,2.751,0,0,0-.88.191,2.409,2.409,0,0,0-.818.547,3.52,3.52,0,0,0-1,2.669,6.279,6.279,0,0,0,.756,2.8,5.806,5.806,0,0,0,.909,1.309A8.642,8.642,0,0,0,1811.021-455.587Z" transform="translate(-5.103 -3.482)" fill="url(#linear-gradient-12)"/>
    <path id="Path_190862" data-name="Path 190862" d="M1802.57-470.214a2.992,2.992,0,0,1,2.855-2.839,5.921,5.921,0,0,1,4.287,1.158c.312.255.64.514.942.8a4.343,4.343,0,0,1,.787.943,2.283,2.283,0,0,1,.334,1.095.83.83,0,0,1-.608.85,2.485,2.485,0,0,1-1.17-.02,8.205,8.205,0,0,0-1.191-.195,10.9,10.9,0,0,0-1.342.059c-.449.045-.9.112-1.327.19a4.583,4.583,0,0,1-1.2.088,2.834,2.834,0,0,1-1.144-.357,3.156,3.156,0,0,1-.924-.771A1.123,1.123,0,0,1,1802.57-470.214Z" transform="translate(-5.066 -3.245)" fill="url(#linear-gradient-13)"/>
    <path id="Path_190863" data-name="Path 190863" d="M1833.52-474.713c.019.273.332.146.659-.059s.668-.488.746-.528a8.2,8.2,0,0,1,2.739-.82c.961-.137,1.947-.176,2.885-.235.547-.019,1.093-.019,1.64,0s1.094.043,1.64.083a8.474,8.474,0,0,0,.274-1.04c.068-.346.117-.7.156-1.069a7.55,7.55,0,0,0,.014-1.523,11.049,11.049,0,0,0-.248-1.523c-.02-.1-.039-.185-.059-.273s-.039-.176-.059-.273c-.391-.02-.791-.049-1.211-.079s-.859-.059-1.328-.078c-.449-.02-.869-.059-1.283-.059a4.022,4.022,0,0,0-1.255.176,7.307,7.307,0,0,0-.893.419c-.288.156-.571.322-.864.479a7.408,7.408,0,0,0-.922.781c-.288.283-.561.585-.835.9a7.052,7.052,0,0,0-1.338,2.187A6.687,6.687,0,0,0,1833.52-474.713Z" transform="translate(-6.318 -2.878)" fill="url(#linear-gradient-14)"/>
    <g id="Group_129982" data-name="Group 129982" transform="translate(1798.443 -529.507)" opacity="0.37">
      <path id="Path_190864" data-name="Path 190864" d="M1803.593-523.224a.62.62,0,0,0-.011.427,1.462,1.462,0,0,0,.31.5c.287.329.576.66.887.964a5.31,5.31,0,0,0,1.029.806,14.117,14.117,0,0,0,2.2,1.019c.753.279,1.523.513,2.308.747a11.016,11.016,0,0,0,1.1.283,3.455,3.455,0,0,0,1.125.04,3,3,0,0,0,.9-.31c.287-.142.566-.306.858-.439,1.309-.595,2.62-1.191,3.949-1.739a40.2,40.2,0,0,1,4.054-1.451,24.339,24.339,0,0,1,4.227-.858,17.218,17.218,0,0,1,4.291.056,21.525,21.525,0,0,0-6.545,1.2,21.484,21.484,0,0,0-5.872,3.13,3.157,3.157,0,0,0-.394.338,1.156,1.156,0,0,0-.271.428c-.27.823.586,1.149,1.6,1.25a10.549,10.549,0,0,0,2.552-.095,17.375,17.375,0,0,0,2.515-.746c.821-.3,1.633-.631,2.457-.93,2.344-.856,4.687-1.634,7.066-2.248a42.638,42.638,0,0,1,7.3-1.263,1.66,1.66,0,0,1-.637-.172c-.24-.1-.478-.215-.632-.263-.271-.083-.541-.165-.813-.243s-.544-.154-.818-.227q-.8-.213-1.61-.393t-1.625-.329c-1.817-.26-3.632-.5-5.453-.683s-3.647-.308-5.486-.335a25.036,25.036,0,0,1,3.567-.545c1.2-.1,2.406-.13,3.609-.115.612.007,1.224.025,1.835.051s1.223.059,1.834.1l.467.029.467.031c.1.006.263.038.42.06a.951.951,0,0,0,.407,0c.207-.079.185-.185.083-.288a1.953,1.953,0,0,0-.4-.264q-.386-.21-.786-.394t-.808-.347c-.548-.218-1.108-.406-1.674-.569s-1.141-.3-1.719-.425c-.663-.14-1.331-.256-2-.357s-1.343-.187-2.015-.267a54.447,54.447,0,0,0-6.139-.433,29.546,29.546,0,0,0-6.1.561,37.959,37.959,0,0,0-5.587,1.587,35.437,35.437,0,0,0-5.265,2.447,2.846,2.846,0,0,0-.48.331A.969.969,0,0,0,1803.593-523.224Z" transform="translate(-1803.55 528.5)" fill="#97aad3"/>
    </g>
    <path id="Path_190865" data-name="Path 190865" d="M1758.115-530.44A15.5,15.5,0,0,1,1762-529.1a12.545,12.545,0,0,1,2.956,2.26,13.393,13.393,0,0,1,2.469,3.239,8.422,8.422,0,0,1,1.041,3.875,4.956,4.956,0,0,0-.9-1.823c-.419-.591-.9-1.157-1.245-1.67a18.6,18.6,0,0,0-1.208-1.571c-.422-.5-.861-.98-1.3-1.475a17.333,17.333,0,0,0-2.643-2.442A14.949,14.949,0,0,0,1758.115-530.44Z" transform="translate(-3.272 -0.928)" fill="#020102"/>
    <path id="Path_190866" data-name="Path 190866" d="M1838.782-464.793a5.39,5.39,0,0,0,2.844-.5,9.888,9.888,0,0,0,2.391-1.782,3.309,3.309,0,0,1-1.132-.184c-.289-.11-.563-.276-1.047-.518a6.632,6.632,0,0,1-.759,1.3,6.366,6.366,0,0,1-1.079,1.026l-.609.33Z" transform="translate(-6.531 -3.46)" fill="url(#linear-gradient-15)"/>
    <g id="Group_129983" data-name="Group 129983" transform="translate(1838.111 -164.864)">
      <path id="Path_190867" data-name="Path 190867" d="M1848.481-148.5V-40.983h-3.593V-148.5h3.593Z" transform="translate(-1844.888 148.504)" fill="#fff"/>
    </g>
    <path id="Path_190868" data-name="Path 190868" d="M1820.485-36.386h50.423v-1.327h-50.423v1.327Z" transform="translate(-5.791 -20.836)" fill="#caced8"/>
    <path id="Path_190869" data-name="Path 190869" d="M1932.65-158.9c-.332.332-.674.645-1.031.938a12.139,12.139,0,0,1-1.118.819,18.807,18.807,0,0,1-4.792,2.425c-1.726.625-3.518,1.11-5.178,1.588-1.747.5-3.507.946-5.279,1.35s-3.551.767-5.335,1.107c-1.079.207-2.159.4-3.241.6s-2.163.386-3.245.577c-1.031.181-2.053.4-3.076.571a17.509,17.509,0,0,1-3.1.28c-2.261-.028-4.52-.126-6.775-.276s-4.508-.355-6.755-.6c-4.218-.452-8.416-1.047-12.609-1.676s-8.381-1.292-12.581-1.88c-8.219-1.151-16.44-2.3-24.648-3.527s-16.406-2.525-24.578-3.974c-8.578-1.52-17.173-3.219-25.59-5.475a142.735,142.735,0,0,1-24.522-8.812,127.654,127.654,0,0,1-27-17.557,173.112,173.112,0,0,1-22.645-23.121,173.5,173.5,0,0,1-15.1-21.4,129.069,129.069,0,0,1-11.073-23.646,112.754,112.754,0,0,1-6.093-29.03c-.624-10.278.708-20.467,5.641-28.489a29.549,29.549,0,0,1,3.251-4.452,15.955,15.955,0,0,1,3.778-3.164c1.874-1.093,4.627-1.357,7.459-1.351s5.74.277,7.926.258q4.16-.059,8.318,0t8.318.2q16.664.557,33.231,2.529,16.547,1.978,32.881,5.4c1.855.371,3.7.7,5.525,1.1a44.85,44.85,0,0,1,5.408,1.479c.351.136.712.273,1.074.415s.723.289,1.074.444a16.285,16.285,0,0,1,2.314,1.211,7.823,7.823,0,0,1,1.9,1.679,7.725,7.725,0,0,1,1,1.732,14.375,14.375,0,0,1,.644,1.938,25.359,25.359,0,0,1,.581,3.675c.112,1.235.161,2.475.2,3.7a189.775,189.775,0,0,0,7.907,48.035,129.534,129.534,0,0,0,22.317,43.028c.214.253.419.508.625.761s.41.508.625.762a99.214,99.214,0,0,0,19.036,17.563,93.567,93.567,0,0,0,22.9,11.881,81.155,81.155,0,0,0,18.251,4.134,71.169,71.169,0,0,0,18.691-.463,48.786,48.786,0,0,1,8.517-.888,10.389,10.389,0,0,1,7.375,2.684,8.755,8.755,0,0,1,2.255,7.473A13.039,13.039,0,0,1,1932.65-158.9Z" transform="translate(0 -9.145)" fill="#d7e6f2"/>
    <path id="Path_190870" data-name="Path 190870" d="M1937.325-158.442c-.332.332-.674.645-1.031.938a12.139,12.139,0,0,1-1.118.819,52.672,52.672,0,0,1-11.519,2.514,82.463,82.463,0,0,1-11.871.376,116.135,116.135,0,0,1-55.137-16.376,116.158,116.158,0,0,1-40.846-40.48,140.231,140.231,0,0,1-8.957-18.295c-2.573-6.3-4.789-12.75-6.819-19.232a162.1,162.1,0,0,1-6.361-26.851,74.134,74.134,0,0,1,.933-27.115,26.676,26.676,0,0,1,3.144-7.854,14.914,14.914,0,0,1,5.955-5.657c.351.136.712.273,1.074.415s.723.289,1.074.444a16.285,16.285,0,0,1,2.314,1.211,7.823,7.823,0,0,1,1.9,1.679,7.725,7.725,0,0,1,1,1.732,14.375,14.375,0,0,1,.644,1.938,25.359,25.359,0,0,1,.581,3.675c.112,1.235.161,2.475.2,3.7a189.775,189.775,0,0,0,7.907,48.035,129.534,129.534,0,0,0,22.317,43.028c.214.253.419.508.625.761s.41.508.625.762a98.032,98.032,0,0,0,35.53,26.91c13.653,6,28.609,8.547,43.351,6.2a48.786,48.786,0,0,1,8.517-.888,10.389,10.389,0,0,1,7.375,2.684,8.755,8.755,0,0,1,2.255,7.473A13.039,13.039,0,0,1,1937.325-158.442Z" transform="translate(-4.675 -9.606)" fill="#fff"/>
    <path id="Path_190871" data-name="Path 190871" d="M1786.724-315.047a9.276,9.276,0,0,1,1.213.4,3.049,3.049,0,0,1,1.033.7,2.708,2.708,0,0,1,.416,2.862,6.565,6.565,0,0,1-1.931,2.719,18.257,18.257,0,0,1-9.149,3.847,47.283,47.283,0,0,1-10.335.214q-6.785-.461-13.523-1.431t-13.378-2.436c-3.843-.849-8.679-1.66-13.355-2.86s-9.191-2.785-12.4-5.183c-4.9-3.67-2.968-5.542.718-6.5s9.122-1,11.218-1.026c4.675-.047,9.35.108,14.013.44s9.314.84,13.941,1.5c5.321.761,10.612,1.725,15.866,2.862S1781.548-316.492,1786.724-315.047Z" transform="translate(-1.424 -9.279)" fill="#fff"/>
    <g id="Group_129984" data-name="Group 129984" transform="translate(1814.681 -55.039)">
      <path id="Path_190872" data-name="Path 190872" d="M1873.589-28.392a5.691,5.691,0,0,1-.465,2.255,5.908,5.908,0,0,1-1.254,1.845,5.967,5.967,0,0,1-1.782,1.132,5.7,5.7,0,0,1-2.162.429,5.643,5.643,0,0,1-4-1.659,5.645,5.645,0,0,1-1.659-4,5.65,5.65,0,0,1,1.3-3.608,5.6,5.6,0,0,1,3.231-1.937,4.657,4.657,0,0,1,.552-.087,5.532,5.532,0,0,1,.581-.03,5.641,5.641,0,0,1,4,1.66A5.641,5.641,0,0,1,1873.589-28.392Z" transform="translate(-1822.161 34.055)" fill="#acafb5"/>
      <path id="Path_190873" data-name="Path 190873" d="M1852.469-28.392a5.693,5.693,0,0,1-.469,2.269,5.47,5.47,0,0,1-1.289,1.831,5.586,5.586,0,0,1-1.762,1.147,5.659,5.659,0,0,1-2.143.415,5.644,5.644,0,0,1-4-1.659,5.646,5.646,0,0,1-1.66-4,5.64,5.64,0,0,1,1.279-3.593,5.669,5.669,0,0,1,3.212-1.953.08.08,0,0,1,.02-.014c.01,0,.019,0,.019.014a4.661,4.661,0,0,1,.552-.087,5.534,5.534,0,0,1,.581-.03,5.641,5.641,0,0,1,4,1.66A5.645,5.645,0,0,1,1852.469-28.392Z" transform="translate(-1821.307 34.055)" fill="#acafb5"/>
      <path id="Path_190874" data-name="Path 190874" d="M1831.8-28.392a5.709,5.709,0,0,1-.468,2.269,5.47,5.47,0,0,1-1.289,1.831,5.6,5.6,0,0,1-1.762,1.147,5.659,5.659,0,0,1-2.143.415,5.644,5.644,0,0,1-4-1.659,5.643,5.643,0,0,1-1.66-4,5.64,5.64,0,0,1,1.279-3.593,5.67,5.67,0,0,1,3.211-1.953.108.108,0,0,1,.02-.014c.01,0,.019,0,.019.014a4.73,4.73,0,0,1,.552-.087,5.551,5.551,0,0,1,.582-.03,5.642,5.642,0,0,1,4,1.66A5.644,5.644,0,0,1,1831.8-28.392Z" transform="translate(-1820.472 34.055)" fill="#acafb5"/>
    </g>
    <g id="Group_129985" data-name="Group 129985" transform="translate(1817.298 -55.039)">
      <path id="Path_190875" data-name="Path 190875" d="M1873.7-28.392a5.691,5.691,0,0,1-.464,2.255,5.913,5.913,0,0,1-1.254,1.845,4.172,4.172,0,0,1-.649.121,6,6,0,0,1-.678.035,5.66,5.66,0,0,1-4-1.654,5.588,5.588,0,0,1-1.66-3.969,5.561,5.561,0,0,1,.517-2.352,5.28,5.28,0,0,1,1.4-1.826,4.661,4.661,0,0,1,.552-.087,5.534,5.534,0,0,1,.581-.03,5.641,5.641,0,0,1,4,1.66A5.641,5.641,0,0,1,1873.7-28.392Z" transform="translate(-1824.888 34.055)" fill="#caced8"/>
      <path id="Path_190876" data-name="Path 190876" d="M1852.579-28.392a5.693,5.693,0,0,1-.469,2.269,5.47,5.47,0,0,1-1.289,1.831,3.552,3.552,0,0,1-.63.121,5.89,5.89,0,0,1-.658.035,5.664,5.664,0,0,1-4-1.654,5.59,5.59,0,0,1-1.659-3.969,5.548,5.548,0,0,1,.512-2.338,5.669,5.669,0,0,1,1.362-1.841.08.08,0,0,1,.02-.014c.01,0,.019,0,.019.014a4.661,4.661,0,0,1,.552-.087,5.534,5.534,0,0,1,.581-.03,5.641,5.641,0,0,1,4,1.66A5.645,5.645,0,0,1,1852.579-28.392Z" transform="translate(-1824.034 34.055)" fill="#caced8"/>
      <path id="Path_190877" data-name="Path 190877" d="M1831.906-28.392a5.709,5.709,0,0,1-.468,2.269,5.47,5.47,0,0,1-1.289,1.831,3.552,3.552,0,0,1-.63.121,5.9,5.9,0,0,1-.659.035,5.66,5.66,0,0,1-4-1.654,5.59,5.59,0,0,1-1.659-3.969,5.561,5.561,0,0,1,.512-2.338,5.668,5.668,0,0,1,1.362-1.841.108.108,0,0,1,.02-.014c.01,0,.019,0,.019.014a4.73,4.73,0,0,1,.552-.087,5.551,5.551,0,0,1,.582-.03,5.642,5.642,0,0,1,4,1.66A5.644,5.644,0,0,1,1831.906-28.392Z" transform="translate(-1823.199 34.055)" fill="#caced8"/>
    </g>
  </g>
</svg>
