<svg id="Grupo_109190" data-name="Grupo 109190" xmlns="http://www.w3.org/2000/svg" width="102.742" height="102.742" viewBox="0 0 102.742 102.742">
  <circle id="Elipse_4809" data-name="Elipse 4809" cx="51.371" cy="51.371" r="51.371" fill="#0f2771"/>
  <g id="Grupo_109193" data-name="Grupo 109193" transform="translate(14.01 24.473)">
    <path id="Trazado_115583" data-name="Trazado 115583" d="M-952.674,2338.867h-64.456a4.967,4.967,0,0,0-4.961,4.961V2387.7a4.967,4.967,0,0,0,4.961,4.961h64.456a4.967,4.967,0,0,0,4.961-4.961v-43.874A4.967,4.967,0,0,0-952.674,2338.867Zm2.622,48.835a2.625,2.625,0,0,1-2.622,2.622h-64.456a2.625,2.625,0,0,1-2.622-2.622v-43.874a2.625,2.625,0,0,1,2.622-2.622h64.456a2.625,2.625,0,0,1,2.622,2.622Z" transform="translate(1022.092 -2338.867)" fill="#fff"/>
    <path id="Trazado_115584" data-name="Trazado 115584" d="M-945.438,2362.068h-63.17a1.17,1.17,0,0,0-1.17,1.17,1.17,1.17,0,0,0,1.17,1.17h63.17a1.17,1.17,0,0,0,1.17-1.17A1.17,1.17,0,0,0-945.438,2362.068Z" transform="translate(1014.334 -2353.485)" fill="#fff"/>
    <ellipse id="Elipse_4808" data-name="Elipse 4808" cx="0.98" cy="0.98" rx="0.98" ry="0.98" transform="translate(5.678 5)" fill="#fff"/>
    <path id="Trazado_115585" data-name="Trazado 115585" d="M-995.743,2354.34a.979.979,0,0,0,.979-.979.98.98,0,0,0-.979-.98.98.98,0,0,0-.98.98A.979.979,0,0,0-995.743,2354.34Z" transform="translate(1006.109 -2347.381)" fill="#fff"/>
    <path id="Trazado_115586" data-name="Trazado 115586" d="M-985.723,2354.34a.979.979,0,0,0,.98-.979.98.98,0,0,0-.98-.98.98.98,0,0,0-.979.98A.979.979,0,0,0-985.723,2354.34Z" transform="translate(999.795 -2347.381)" fill="#fff"/>
    <path id="Trazado_115587" data-name="Trazado 115587" d="M-930.493,2386.283a1.217,1.217,0,0,0-.031-.185s0-.008,0-.011a1.177,1.177,0,0,0-.07-.186c-.008-.016-.016-.032-.024-.048a1.163,1.163,0,0,0-.088-.143c-.007-.01-.013-.021-.021-.031a1.175,1.175,0,0,0-.135-.145c-.013-.012-.027-.023-.041-.035a1.148,1.148,0,0,0-.15-.107l-.018-.013-12.233-7.028a1.169,1.169,0,0,0-1.166,0l-12.233,7.028-.018.013a1.2,1.2,0,0,0-.149.107l-.04.034a1.14,1.14,0,0,0-.135.146c-.008.01-.014.02-.021.03a1.134,1.134,0,0,0-.088.143c-.009.016-.017.031-.024.048a1.142,1.142,0,0,0-.07.187l0,.01a1.178,1.178,0,0,0-.032.186c0,.019,0,.038,0,.057s0,.036,0,.054v15.021a1.171,1.171,0,0,0,.548.991l12.233,7.685.027.014c.01.006.019.013.029.019s.016.006.024.01a1.166,1.166,0,0,0,.242.1l.032.007a1.167,1.167,0,0,0,.267.034h0a1.164,1.164,0,0,0,.267-.034l.032-.007a1.138,1.138,0,0,0,.242-.1c.008,0,.016-.005.024-.01l.03-.019.027-.014,12.233-7.685a1.171,1.171,0,0,0,.547-.991v-15.021c0-.018,0-.036,0-.054S-930.491,2386.3-930.493,2386.283Zm-13.4-5.568,9.962,5.724-9.962,6.259-9.963-6.259Zm-11.063,7.8,9.893,6.215v12.258l-9.893-6.215Zm22.126,12.259-9.893,6.215v-12.258l9.893-6.215Z" transform="translate(981.265 -2363.645)" fill="#fff"/>
  </g>
</svg>
