<svg id="Grupo_109189" data-name="Grupo 109189" xmlns="http://www.w3.org/2000/svg" width="102.742" height="102.742" viewBox="0 0 102.742 102.742">
  <circle id="Elipse_4809" data-name="Elipse 4809" cx="51.371" cy="51.371" r="51.371" fill="#0f2771"/>
  <g id="Grupo_109188" data-name="Grupo 109188" transform="translate(16.573 9.048)">
    <path id="Trazado_115591" data-name="Trazado 115591" d="M-1260.637,2389.531a1.17,1.17,0,0,0,1.17-1.17,1.17,1.17,0,0,0-1.17-1.17h-.929a1.17,1.17,0,0,0-1.17,1.17,1.17,1.17,0,0,0,1.17,1.17Z" transform="translate(1316.771 -2352.996)" fill="#fff"/>
    <path id="Trazado_115592" data-name="Trazado 115592" d="M-1339.3,2380.007l-6.385-3.659a8.669,8.669,0,0,0,.24-2.024v-3.163h1.853a2.588,2.588,0,0,0,2.527-2.638,2.683,2.683,0,0,0-2.4-2.721v-2.131a6.946,6.946,0,0,0-1.906-4.777c-.165-4.915-3.354-5.664-5.276-5.664h-2.4a4.086,4.086,0,0,0-3.871,2.794,8.5,8.5,0,0,0-7.545,7.417,1.169,1.169,0,0,0,1.02,1.3,1.171,1.171,0,0,0,.142.009,1.17,1.17,0,0,0,1.16-1.029,6.159,6.159,0,0,1,5.01-5.309v5.278a1.17,1.17,0,0,0,1.17,1.17,1.17,1.17,0,0,0,1.17-1.17v-6.379a1.744,1.744,0,0,1,1.743-1.742h2.4a2.452,2.452,0,0,1,2.614,1.561,6.934,6.934,0,0,0-2.41-.437h-.98a1.9,1.9,0,0,0-1.9,1.9v2.977a1.169,1.169,0,0,0,1.17,1.17,1.17,1.17,0,0,0,1.17-1.17v-2.533h.536a4.644,4.644,0,0,1,4.639,4.638v2.124h-.678a1.17,1.17,0,0,0-1.17,1.17,1.17,1.17,0,0,0,1.17,1.17h2.877a.464.464,0,0,1,.2.39c0,.182-.111.3-.188.3h-20.777c-.077,0-.187-.116-.187-.3v-.142c0-.148.075-.247.188-.247h8.415a1.17,1.17,0,0,0,1.17-1.17,1.17,1.17,0,0,0-1.17-1.17h-8.415a2.531,2.531,0,0,0-2.527,2.587v.142a2.588,2.588,0,0,0,2.527,2.638h1.554v3.163a8.666,8.666,0,0,0,.319,2.326l-3.847,1.923a5.688,5.688,0,0,0-3.161,5.115v9.645l-5.557,1.543-3.442-10.759a1.17,1.17,0,0,0-1.114-.814h-23.407a1.171,1.171,0,0,0-.956.5,1.17,1.17,0,0,0-.147,1.066l7.8,22.027a1.17,1.17,0,0,0,1.1.779h52.981a5.921,5.921,0,0,0,5.914-5.914v-16.619A5.928,5.928,0,0,0-1339.3,2380.007Zm-8.484-8.845v3.163a6.352,6.352,0,0,1-6.345,6.345,6.352,6.352,0,0,1-6.346-6.345v-3.163Zm-46.611,34.17-6.974-19.687h20.9l6.3,19.687Zm55.729-3.575a3.579,3.579,0,0,1-3.575,3.575h-21.776a2.667,2.667,0,0,1-2.664-2.664,2.667,2.667,0,0,1,2.664-2.664h17.592a1.169,1.169,0,0,0,1.17-1.17v-8.358a1.17,1.17,0,0,0-1.17-1.17,1.17,1.17,0,0,0-1.17,1.17v7.188h-13.336V2388.9a1.17,1.17,0,0,0-1.17-1.17,1.169,1.169,0,0,0-1.17,1.17v8.763h-.747a5.009,5.009,0,0,0-5,5,4.967,4.967,0,0,0,.776,2.664h-3.472l-2.631-8.224,6.326-1.756a1.171,1.171,0,0,0,.857-1.127v-10.535a3.362,3.362,0,0,1,1.869-3.023l3.728-1.864a8.688,8.688,0,0,0,7.438,4.206,8.689,8.689,0,0,0,7.583-4.458l6.083,3.486a3.583,3.583,0,0,1,1.8,3.1Z" transform="translate(1405.898 -2331.599)" fill="#fff"/>
    <path id="Trazado_115593" data-name="Trazado 115593" d="M-1400.951,2337.746h19a3.123,3.123,0,0,0,1.968-.7,3.12,3.12,0,0,0,1.967.7h5.046a1.169,1.169,0,0,0,1.17-1.17,1.17,1.17,0,0,0-1.17-1.17h-5.046a.8.8,0,0,1-.8-.8v-13.673a1.17,1.17,0,0,0-1.17-1.17,1.17,1.17,0,0,0-1.17,1.17v13.673a.8.8,0,0,1-.8.8h-4.668a2.256,2.256,0,0,1-2.254-2.253,2.257,2.257,0,0,1,2.254-2.253,1.17,1.17,0,0,0,1.17-1.17,1.17,1.17,0,0,0-1.17-1.17,4.6,4.6,0,0,0-4.594,4.593,4.56,4.56,0,0,0,.6,2.253h-10.329a5.474,5.474,0,0,1-5.5-5.3,5.358,5.358,0,0,1,1.547-3.875,5.356,5.356,0,0,1,3.8-1.61,3.823,3.823,0,0,1,2.851,2.013,4.562,4.562,0,0,0-.991,4.2,1.17,1.17,0,0,0,1.131.873,1.159,1.159,0,0,0,.3-.039,1.17,1.17,0,0,0,.833-1.429,2.242,2.242,0,0,1,.849-2.393,2.267,2.267,0,0,1,2.4-.168,1.17,1.17,0,0,0,1.583-.48,1.17,1.17,0,0,0-.48-1.583,4.619,4.619,0,0,0-3.659-.29,5.984,5.984,0,0,0-3.512-2.791,5.4,5.4,0,0,1,5.311-4.479,5.41,5.41,0,0,1,1.224.142,4.892,4.892,0,0,1,2.37,1.752,4.593,4.593,0,0,0-1.083,1.961,1.17,1.17,0,0,0,.831,1.43,1.153,1.153,0,0,0,.3.04,1.171,1.171,0,0,0,1.13-.871,2.243,2.243,0,0,1,1.92-1.662,2.267,2.267,0,0,1,2.167,1.037,1.17,1.17,0,0,0,1.614.364,1.169,1.169,0,0,0,.365-1.613,4.623,4.623,0,0,0-4.414-2.112,4.659,4.659,0,0,0-.849.183,7.079,7.079,0,0,0-2.4-2.186,4.724,4.724,0,0,1,3.387-3.352,4.783,4.783,0,0,1,4.83,1.527,1.17,1.17,0,0,0,1.649.135,1.17,1.17,0,0,0,.135-1.649,7.039,7.039,0,0,0-1.833-1.53,3.72,3.72,0,0,1,1.8-3.536,3.7,3.7,0,0,1,2.823-.415,3.7,3.7,0,0,1,2.289,1.7,3.731,3.731,0,0,1,.348,3.054,1.17,1.17,0,0,0,.756,1.472,1.161,1.161,0,0,0,.358.057,1.171,1.171,0,0,0,1.113-.813,6.07,6.07,0,0,0-.567-4.969,6.028,6.028,0,0,0-3.726-2.772,6.029,6.029,0,0,0-4.595.674,6.058,6.058,0,0,0-2.935,4.686,7.061,7.061,0,0,0-3.037.112,7.089,7.089,0,0,0-3.263,1.879h-1.219a1.285,1.285,0,0,1-1.282-1.284,1.285,1.285,0,0,1,1.283-1.283h1.274a3.567,3.567,0,0,0,3.346-2.235,3.567,3.567,0,0,0-.784-3.949l-.9-.9a1.285,1.285,0,0,1,0-1.815,1.285,1.285,0,0,1,1.815,0l.9.9a3.566,3.566,0,0,0,3.948.787,3.566,3.566,0,0,0,2.238-3.346v-1.272a1.274,1.274,0,0,1,.376-.907,1.274,1.274,0,0,1,.907-.375h0a1.274,1.274,0,0,1,.907.376,1.276,1.276,0,0,1,.376.908v1.272a3.568,3.568,0,0,0,2.235,3.349,3.567,3.567,0,0,0,3.949-.784l.9-.9a1.275,1.275,0,0,1,.907-.375h0a1.273,1.273,0,0,1,.907.376,1.284,1.284,0,0,1,0,1.815l-.9.9a3.566,3.566,0,0,0-.787,3.948,3.566,3.566,0,0,0,3.346,2.238h1.272a1.285,1.285,0,0,1,1.283,1.284,1.275,1.275,0,0,1-.376.907,1.275,1.275,0,0,1-.907.375h-1.274a3.762,3.762,0,0,0-3.46,2.409,4.542,4.542,0,0,0-1-.113h0a4.568,4.568,0,0,0-4.275,2.917,1.17,1.17,0,0,0,.662,1.516,1.163,1.163,0,0,0,.427.081,1.17,1.17,0,0,0,1.089-.743,2.243,2.243,0,0,1,2.1-1.432h0a2.267,2.267,0,0,1,2.032,1.278,1.17,1.17,0,0,0,1.562.547,1.17,1.17,0,0,0,.546-1.562,4.571,4.571,0,0,0-1.066-1.414c.484-1,.952-1.145,1.387-1.145h1.275a3.6,3.6,0,0,0,2.561-1.06,3.6,3.6,0,0,0,1.062-2.562,3.627,3.627,0,0,0-3.621-3.625h-1.272a1.259,1.259,0,0,1-1.185-.792,1.26,1.26,0,0,1,.279-1.4l.9-.9a3.6,3.6,0,0,0,1.063-2.561,3.6,3.6,0,0,0-1.06-2.562,3.6,3.6,0,0,0-2.562-1.062h0a3.6,3.6,0,0,0-2.561,1.06l-.9.9a1.259,1.259,0,0,1-1.4.278,1.259,1.259,0,0,1-.792-1.186v-1.272a3.628,3.628,0,0,0-3.622-3.625h0a3.627,3.627,0,0,0-3.623,3.622v1.272a1.26,1.26,0,0,1-.793,1.186,1.26,1.26,0,0,1-1.4-.279l-.9-.9a3.628,3.628,0,0,0-5.124,0,3.628,3.628,0,0,0,0,5.124l.9.9a1.258,1.258,0,0,1,.277,1.4,1.259,1.259,0,0,1-1.185.792H-1393a3.627,3.627,0,0,0-3.623,3.622,3.626,3.626,0,0,0,3.321,3.609c-.088.218-.167.441-.233.669a7.712,7.712,0,0,0-.954-.061,7.745,7.745,0,0,0-7.657,6.64,7.67,7.67,0,0,0-4.422,2.235,7.683,7.683,0,0,0-2.219,5.555A7.825,7.825,0,0,0-1400.951,2337.746Z" transform="translate(1408.793 -2294.762)" fill="#fff"/>
    <path id="Trazado_115594" data-name="Trazado 115594" d="M-1318.659,2370.974a1.17,1.17,0,0,0,.461-1.589,1.17,1.17,0,0,0-1.589-.461,4.569,4.569,0,0,0-2.344,4.614,1.17,1.17,0,0,0,1.159,1.02,1.215,1.215,0,0,0,.151-.009,1.17,1.17,0,0,0,1.011-1.31A2.242,2.242,0,0,1-1318.659,2370.974Z" transform="translate(1354.216 -2341.396)" fill="#fff"/>
  </g>
</svg>
