<svg id="Grupo_109191" data-name="Grupo 109191" xmlns="http://www.w3.org/2000/svg" width="102.742" height="102.742" viewBox="0 0 102.742 102.742">
  <circle id="Elipse_4809" data-name="Elipse 4809" cx="51.371" cy="51.371" r="51.371" fill="#0f2771"/>
  <g id="Grupo_109194" data-name="Grupo 109194" transform="translate(31.952 13.32)">
    <path id="Trazado_115588" data-name="Trazado 115588" d="M-629.487,2306.331v.5a3.93,3.93,0,0,0,2.766,3.749l2.9,7.562c0,.01.01.02.014.03s.019.041.03.062a1.079,1.079,0,0,0,.077.135c.007.011.011.023.019.034l2.8,3.933.977,3.132a1.17,1.17,0,0,0,1.117.821h.42v9.863l-.125-.041a3.86,3.86,0,0,0-4.867,2.461,3.831,3.831,0,0,0,.223,2.943,3.829,3.829,0,0,0,2.238,1.923l6.836,2.244a1.185,1.185,0,0,0,.365.058,1.171,1.171,0,0,0,.528-.125,1.172,1.172,0,0,0,.583-.68l1.675-5.1a1.17,1.17,0,0,0-.747-1.476l-4.391-1.441a1.132,1.132,0,0,0,.02-.192v-10.432h.551a1.169,1.169,0,0,0,1.117-.821l.977-3.132,2.8-3.933c.007-.011.012-.023.019-.034a1.063,1.063,0,0,0,.077-.135c.01-.021.021-.041.029-.062s.01-.02.014-.03l2.9-7.562a3.93,3.93,0,0,0,2.766-3.749v-.5a4.212,4.212,0,0,0,3.51-4.146v-1.122a4.213,4.213,0,0,0-3.51-4.146v-1.017a1.169,1.169,0,0,0-1.17-1.169,1.17,1.17,0,0,0-1.17,1.169v10.935a1.585,1.585,0,0,1-1.584,1.583h-16.862a1.585,1.585,0,0,1-1.583-1.583v-10.935a1.17,1.17,0,0,0-1.17-1.169,1.169,1.169,0,0,0-1.17,1.169v1.01a4.212,4.212,0,0,0-3.555,4.153v1.122A4.213,4.213,0,0,0-629.487,2306.331Zm15.043,36.759-5.725-1.879a1.508,1.508,0,0,1-.88-.757,1.507,1.507,0,0,1-.088-1.157,1.519,1.519,0,0,1,1.442-1.043,1.514,1.514,0,0,1,.472.076l5.725,1.879Zm10.836-42.034v1.122a1.871,1.871,0,0,1-1.17,1.731v-4.584A1.872,1.872,0,0,1-603.609,2301.056Zm-8.731,15.494h-9.586l-2.223-5.8h14.031Zm-3.058,4.576a1.173,1.173,0,0,0-.164.331l-.776,2.489h-1.589l-.776-2.489a1.162,1.162,0,0,0-.164-.331l-1.593-2.236h6.656Zm-15.3-20.07a1.867,1.867,0,0,1,1.215-1.745v4.612a1.868,1.868,0,0,1-1.215-1.745Z" transform="translate(633.045 -2294.723)" fill="#fff"/>
    <path id="Trazado_115589" data-name="Trazado 115589" d="M-564.953,2429.018a1.17,1.17,0,0,0-1.442.811,1.17,1.17,0,0,0,.811,1.442.6.6,0,0,1,.281.169c1.923,2.143,4.968,5.6,5.477,6.338.013.02.027.039.042.058a3.4,3.4,0,0,0,2.679,1.328h.025l14.876-.284a1.17,1.17,0,0,0,1.147-1.192,1.168,1.168,0,0,0-1.192-1.147l-14.861.283a1.052,1.052,0,0,1-.526-.151l-.085-.083,0,0-.247-.239c-.931-1.272-5.1-5.93-5.593-6.476A2.944,2.944,0,0,0-564.953,2429.018Z" transform="translate(591.082 -2379.306)" fill="#fff"/>
    <path id="Trazado_115590" data-name="Trazado 115590" d="M-584.184,2454.76l-14.486-.123h-.007a3.291,3.291,0,0,0-2.869,1.68,5.2,5.2,0,0,1-3.479,2.142h0l-17.784-.035a.968.968,0,0,1-.66-.252,1.2,1.2,0,0,1-.315-.906,1.132,1.132,0,0,1,.358-.885,1.074,1.074,0,0,1,.655-.273l8.128.016h0a1.17,1.17,0,0,0,1.17-1.167v0a1.17,1.17,0,0,0-1.167-1.171l-8.12-.016h-.02l-4.248-.008a1.286,1.286,0,0,1-1.442-1.263,1.338,1.338,0,0,1,1.441-1.308l12.393.024h0a1.17,1.17,0,0,0,1.17-1.167v0a1.17,1.17,0,0,0-1.167-1.17l-12.388-.024h-.009l-2.493-.005a1.246,1.246,0,0,1-.8-.346,1.18,1.18,0,0,1-.388-.883,1.181,1.181,0,0,1,.391-.881,1.246,1.246,0,0,1,.8-.343h0l14.889.029h0a1.17,1.17,0,0,0,1.17-1.167v0a1.17,1.17,0,0,0-1.168-1.17l-12.483-.024a1.765,1.765,0,0,1-1-.291.858.858,0,0,1-.361-.769c0-.943,1.034-1.018,1.357-1.018h0l16.059.031c.178,2.634.91,8.756,3.9,10.748a1.164,1.164,0,0,0,.648.2,1.169,1.169,0,0,0,.974-.521,1.17,1.17,0,0,0-.324-1.622c-1.03-.687-1.888-2.636-2.418-5.488a32.381,32.381,0,0,1-.493-4.51c0-.012,0-.023,0-.035,0-.031-.007-.061-.011-.092a1.184,1.184,0,0,0-.033-.163c0-.015,0-.03-.009-.044l-.518-1.592a2.1,2.1,0,0,0-1.095-1.242,1.171,1.171,0,0,0-1.557.559,1.171,1.171,0,0,0,.4,1.465l-15.508-.031h-.009a3.438,3.438,0,0,0-3.7,3.354,3.432,3.432,0,0,0,.22,1.238,3.693,3.693,0,0,0-1.325.787,3.51,3.51,0,0,0-1.142,2.594,3.51,3.51,0,0,0,1.132,2.6,3.687,3.687,0,0,0,1.4.817,3.715,3.715,0,0,0-.29,1.466,3.584,3.584,0,0,0,3.777,3.607l1.089,0a3.749,3.749,0,0,0-.182,1.16,3.456,3.456,0,0,0,1.046,2.61,3.289,3.289,0,0,0,2.265.893l17.784.035h.007a7.4,7.4,0,0,0,5.52-3.338.947.947,0,0,1,.82-.484h0l14.478.122h.01a1.17,1.17,0,0,0,1.169-1.16A1.169,1.169,0,0,0-584.184,2454.76Z" transform="translate(633.049 -2384.698)" fill="#fff"/>
  </g>
</svg>
