<svg xmlns="http://www.w3.org/2000/svg" xmlns:xlink="http://www.w3.org/1999/xlink" width="288" height="288" viewBox="0 0 288 288">
  <defs>
    <linearGradient id="linear-gradient" y1="0.5" x2="1" y2="0.5" gradientUnits="objectBoundingBox">
      <stop offset="0" stop-color="#09005d"/>
      <stop offset="1" stop-color="#1a0f91"/>
    </linearGradient>
  </defs>
  <g id="Grupo_109763" data-name="Grupo 109763" transform="translate(-265 -9901)">
    <circle id="Elipse_4882" data-name="Elipse 4882" cx="144" cy="144" r="144" transform="translate(265 9901)" fill="#bddcf6" opacity="0.74"/>
    <g id="Grupo_109762" data-name="Grupo 109762" transform="translate(-6789.479 5733.092)">
      <g id="Grupo_109676" data-name="Grupo 109676" transform="translate(7074.478 4171.991)">
        <path id="Trazado_116122" data-name="Trazado 116122" d="M7193.035,4175.655v38.092h71.352v29.281h-39.433" transform="translate(-7048.496 -4171.188)" fill="none" stroke="#fff" stroke-linecap="round" stroke-miterlimit="10" stroke-width="2"/>
        <line id="Línea_181" data-name="Línea 181" y2="73.68" transform="translate(162.17 32.99)" fill="none" stroke="#fff" stroke-linecap="round" stroke-miterlimit="10" stroke-width="2"/>
        <path id="Trazado_116123" data-name="Trazado 116123" d="M7198.281,4277.858v-48.291H7229.8v-53.912" transform="translate(-7047.346 -4171.188)" fill="none" stroke="#fff" stroke-linecap="round" stroke-miterlimit="10" stroke-width="2"/>
        <line id="Línea_182" data-name="Línea 182" y1="35.413" transform="translate(217.669 4.467)" fill="none" stroke="#fff" stroke-linecap="round" stroke-miterlimit="10" stroke-width="2"/>
        <path id="Trazado_116124" data-name="Trazado 116124" d="M7286.141,4174.406v86.322h-62.006v26.207" transform="translate(-7041.68 -4171.462)" fill="none" stroke="#fff" stroke-linecap="round" stroke-miterlimit="10" stroke-width="2"/>
        <path id="Trazado_116125" data-name="Trazado 116125" d="M7260.652,4277.659v-45.543h32.413" transform="translate(-7033.677 -4158.814)" fill="none" stroke="#fff" stroke-linecap="round" stroke-miterlimit="10" stroke-width="2"/>
        <path id="Trazado_116126" data-name="Trazado 116126" d="M7266.368,4365.3V4348.08h26.7v-61.464h-32.413" transform="translate(-7033.677 -4146.87)" fill="none" stroke="#fff" stroke-linecap="round" stroke-miterlimit="10" stroke-width="2"/>
        <path id="Trazado_116127" data-name="Trazado 116127" d="M7076.893,4382.617V4338.6h24.879" transform="translate(-7073.948 -4135.478)" fill="none" stroke="#fff" stroke-linecap="round" stroke-miterlimit="10" stroke-width="2"/>
        <path id="Trazado_116128" data-name="Trazado 116128" d="M7111.025,4321.165v-37.248h-34.132v-64.3h30.238" transform="translate(-7073.948 -4161.554)" fill="none" stroke="#fff" stroke-linecap="round" stroke-miterlimit="10" stroke-width="2"/>
        <line id="Línea_183" data-name="Línea 183" y2="81.938" transform="translate(18.605 92.388)" fill="none" stroke="#fff" stroke-linecap="round" stroke-miterlimit="10" stroke-width="2"/>
        <path id="Trazado_116129" data-name="Trazado 116129" d="M7076.893,4174.406v24.975h128.743v85.9" transform="translate(-7073.948 -4171.462)" fill="none" stroke="#fff" stroke-linecap="round" stroke-miterlimit="10" stroke-width="2"/>
        <line id="Línea_184" data-name="Línea 184" y1="56.388" transform="translate(94.401 1.672)" fill="none" stroke="#fff" stroke-linecap="round" stroke-miterlimit="10" stroke-width="2"/>
        <path id="Trazado_116130" data-name="Trazado 116130" d="M7093.021,4247.449a2.945,2.945,0,1,1-2.944-2.945A2.945,2.945,0,0,1,7093.021,4247.449Z" transform="translate(-7071.705 -4156.1)" fill="#fff"/>
        <path id="Trazado_116131" data-name="Trazado 116131" d="M7080.368,4174.935a2.945,2.945,0,1,1-2.944-2.944A2.944,2.944,0,0,1,7080.368,4174.935Z" transform="translate(-7074.478 -4171.991)" fill="#fff"/>
        <path id="Trazado_116132" data-name="Trazado 116132" d="M7155.384,4174.935a2.945,2.945,0,1,1-2.944-2.944A2.944,2.944,0,0,1,7155.384,4174.935Z" transform="translate(-7058.038 -4171.991)" fill="#fff"/>
        <path id="Trazado_116133" data-name="Trazado 116133" d="M7196.51,4174.935a2.945,2.945,0,1,1-2.945-2.944A2.945,2.945,0,0,1,7196.51,4174.935Z" transform="translate(-7049.025 -4171.991)" fill="#fff"/>
        <path id="Trazado_116134" data-name="Trazado 116134" d="M7227.609,4174.935a2.944,2.944,0,1,1-2.945-2.944A2.944,2.944,0,0,1,7227.609,4174.935Z" transform="translate(-7042.209 -4171.991)" fill="#fff"/>
        <path id="Trazado_116135" data-name="Trazado 116135" d="M7256.493,4174.935a2.945,2.945,0,1,1-2.944-2.944A2.944,2.944,0,0,1,7256.493,4174.935Z" transform="translate(-7035.88 -4171.991)" fill="#fff"/>
        <path id="Trazado_116136" data-name="Trazado 116136" d="M7278.47,4174.935a2.945,2.945,0,1,1-2.945-2.944A2.945,2.945,0,0,1,7278.47,4174.935Z" transform="translate(-7031.063 -4171.991)" fill="#fff"/>
        <path id="Trazado_116137" data-name="Trazado 116137" d="M7222.523,4231.446a2.945,2.945,0,1,1-2.944-2.945A2.945,2.945,0,0,1,7222.523,4231.446Z" transform="translate(-7043.324 -4159.607)" fill="#fff"/>
        <path id="Trazado_116138" data-name="Trazado 116138" d="M7290.713,4287.146a2.945,2.945,0,1,1-2.945-2.945A2.946,2.946,0,0,1,7290.713,4287.146Z" transform="translate(-7028.38 -4147.4)" fill="#fff"/>
        <path id="Trazado_116139" data-name="Trazado 116139" d="M7290.713,4337.77a2.945,2.945,0,1,1-2.945-2.946A2.945,2.945,0,0,1,7290.713,4337.77Z" transform="translate(-7028.38 -4136.306)" fill="#fff"/>
        <path id="Trazado_116140" data-name="Trazado 116140" d="M7290.713,4232.187a2.945,2.945,0,1,1-2.945-2.946A2.944,2.944,0,0,1,7290.713,4232.187Z" transform="translate(-7028.38 -4159.444)" fill="#fff"/>
        <path id="Trazado_116141" data-name="Trazado 116141" d="M7186.274,4195.422a2.945,2.945,0,1,1-2.944-2.946A2.944,2.944,0,0,1,7186.274,4195.422Z" transform="translate(-7051.268 -4167.501)" fill="#fff"/>
        <path id="Trazado_116142" data-name="Trazado 116142" d="M7196.51,4207.429a2.945,2.945,0,1,1-2.945-2.945A2.946,2.946,0,0,1,7196.51,4207.429Z" transform="translate(-7049.025 -4164.87)" fill="#fff"/>
        <path id="Trazado_116143" data-name="Trazado 116143" d="M7210.971,4199.58a2.945,2.945,0,1,1-2.945-2.944A2.944,2.944,0,0,1,7210.971,4199.58Z" transform="translate(-7045.856 -4166.59)" fill="#fff"/>
        <path id="Trazado_116144" data-name="Trazado 116144" d="M7201.863,4220.405a2.945,2.945,0,1,1-2.944-2.944A2.944,2.944,0,0,1,7201.863,4220.405Z" transform="translate(-7047.852 -4162.026)" fill="#fff"/>
        <path id="Trazado_116145" data-name="Trazado 116145" d="M7108.363,4272.244a2.945,2.945,0,1,1-2.944-2.944A2.944,2.944,0,0,1,7108.363,4272.244Z" transform="translate(-7068.342 -4150.666)" fill="#fff"/>
        <path id="Trazado_116146" data-name="Trazado 116146" d="M7080.368,4339.13a2.945,2.945,0,1,1-2.944-2.944A2.945,2.945,0,0,1,7080.368,4339.13Z" transform="translate(-7074.478 -4136.007)" fill="#fff"/>
        <path id="Trazado_116147" data-name="Trazado 116147" d="M7080.368,4374.667a2.945,2.945,0,1,1-2.944-2.945A2.944,2.944,0,0,1,7080.368,4374.667Z" transform="translate(-7074.478 -4128.219)" fill="#fff"/>
        <path id="Trazado_116148" data-name="Trazado 116148" d="M7095.792,4374.667a2.945,2.945,0,1,1-2.945-2.945A2.945,2.945,0,0,1,7095.792,4374.667Z" transform="translate(-7071.098 -4128.219)" fill="#fff"/>
        <path id="Trazado_116149" data-name="Trazado 116149" d="M7105.948,4220.145A2.945,2.945,0,1,1,7103,4217.2,2.945,2.945,0,0,1,7105.948,4220.145Z" transform="translate(-7068.872 -4162.083)" fill="#fff"/>
        <path id="Trazado_116150" data-name="Trazado 116150" d="M7080.368,4220.145a2.945,2.945,0,1,1-2.944-2.945A2.945,2.945,0,0,1,7080.368,4220.145Z" transform="translate(-7074.478 -4162.083)" fill="#fff"/>
        <path id="Trazado_116151" data-name="Trazado 116151" d="M7080.368,4272.244a2.945,2.945,0,1,1-2.944-2.944A2.944,2.944,0,0,1,7080.368,4272.244Z" transform="translate(-7074.478 -4150.666)" fill="#fff"/>
        <line id="Línea_185" data-name="Línea 185" x2="18.372" transform="translate(2.945 246.448)" fill="none" stroke="#fff" stroke-linecap="round" stroke-miterlimit="10" stroke-width="2"/>
        <g id="Grupo_109673" data-name="Grupo 109673" transform="translate(25.059 9.988)">
          <rect id="Rectángulo_40988" data-name="Rectángulo 40988" width="37.187" height="26.774" rx="7.599" transform="translate(0 3.198)" fill="#a5abeb" opacity="0.5" style="mix-blend-mode: multiply;isolation: isolate"/>
          <rect id="Rectángulo_40989" data-name="Rectángulo 40989" width="37.187" height="26.774" rx="8.314" transform="translate(4.278)" fill="#fff"/>
          <g id="Grupo_109672" data-name="Grupo 109672" transform="translate(4.279 0.001)">
            <path id="Trazado_116152" data-name="Trazado 116152" d="M7135.728,4185.171a4.988,4.988,0,0,0-4.988-4.987h-27.211a4.987,4.987,0,0,0-4.987,4.987v.25h37.187Z" transform="translate(-7098.542 -4180.184)" fill="#a5abeb"/>
          </g>
        </g>
        <g id="Grupo_109675" data-name="Grupo 109675" transform="translate(211.713 216.33)">
          <rect id="Rectángulo_40990" data-name="Rectángulo 40990" width="37.187" height="26.774" rx="7.599" transform="translate(0 3.198)" fill="#a5abeb" opacity="0.5" style="mix-blend-mode: multiply;isolation: isolate"/>
          <rect id="Rectángulo_40991" data-name="Rectángulo 40991" width="37.187" height="26.774" rx="8.314" transform="translate(4.278)" fill="#fff"/>
          <g id="Grupo_109674" data-name="Grupo 109674" transform="translate(4.278)">
            <path id="Trazado_116153" data-name="Trazado 116153" d="M7288.829,4354.422a4.989,4.989,0,0,0-4.987-4.989H7256.63a4.989,4.989,0,0,0-4.987,4.989v.25h37.187Z" transform="translate(-7251.643 -4349.434)" fill="#a5abeb"/>
          </g>
        </g>
      </g>
      <g id="Grupo_109677" data-name="Grupo 109677" transform="translate(7174.167 4266.773)">
        <path id="Trazado_116154" data-name="Trazado 116154" d="M7276.283,4345.732l33.991-70.355a5.131,5.131,0,0,0-3.959-7.32l-117.941-15.292a5.13,5.13,0,0,0-5.486,3.347l-25.33,70.216a5.13,5.13,0,0,0,4.108,6.821l109.279,15.431A5.131,5.131,0,0,0,7276.283,4345.732Z" transform="translate(-7156.026 -4249.08)" fill="#414141"/>
        <path id="Trazado_116155" data-name="Trazado 116155" d="M7275.278,4342.745l33.992-70.355a5.13,5.13,0,0,0-3.96-7.32l-117.94-15.293a5.131,5.131,0,0,0-5.485,3.348l-25.33,70.216a5.13,5.13,0,0,0,4.108,6.821l109.278,15.431A5.128,5.128,0,0,0,7275.278,4342.745Z" transform="translate(-7156.247 -4249.735)" fill="#727272"/>
        <path id="Trazado_116156" data-name="Trazado 116156" d="M7268.21,4339.935l34.467-71.339-116.067-14.9-25.7,71.249Z" transform="translate(-7155.226 -4248.867)" fill="#fff"/>
      </g>
      <g id="Grupo_109682" data-name="Grupo 109682" transform="translate(7175.359 4289.776)">
        <path id="Trazado_116157" data-name="Trazado 116157" d="M7179.046,4304.374a2.09,2.09,0,0,0,1.17.817,1.554,1.554,0,0,0,1.5-.835,4.214,4.214,0,0,0,.438-1.759,37.982,37.982,0,0,0-.24-8.958c-.22-1.508-.739-3.254-2.18-3.748a2.908,2.908,0,0,0-3.193,1.32,6.392,6.392,0,0,0-.828,3.569A14.883,14.883,0,0,0,7179.046,4304.374Z" transform="translate(-7153.172 -4263.963)" fill="#f2ab88"/>
        <path id="Trazado_116158" data-name="Trazado 116158" d="M7184.787,4283.339a2.544,2.544,0,0,1,2.377-.028,2.443,2.443,0,0,1,.779,1.319,19.312,19.312,0,0,1,.421,7,104.191,104.191,0,0,1-1.348,10.735c-.22,1.233-.856,2.785-2.105,2.68-.966-.08-1.5-1.142-1.785-2.067a24.8,24.8,0,0,1-1.112-7.422,2.1,2.1,0,0,0-.442-1.635c-.645-.576-1.646-.119-2.391.319-3.873,2.283-2.267-3.788-1.312-5.514C7179.224,4286.27,7182.258,4284.322,7184.787,4283.339Z" transform="translate(-7152.954 -4265.443)" fill="#f2ab88"/>
        <path id="Trazado_116159" data-name="Trazado 116159" d="M7162.271,4297a59.008,59.008,0,0,1,5.367-10.2,3.971,3.971,0,0,1,2.254-1.971,9,9,0,0,1,1.5-2.775,3.4,3.4,0,0,1,2.866-1.169c.931-1.295,2.725-1.512,4.319-1.552a3.688,3.688,0,0,1,1.7.227c.556.269.993.824,1.608.883a186.762,186.762,0,0,1,23.743-11.692,1.087,1.087,0,0,1,.786-.1c.487.193.433.9.248,1.392a14.291,14.291,0,0,1-5.3,6.259c-2.252,1.622-4.727,2.918-6.952,4.575a26.528,26.528,0,0,0-9.533,13.683,53.919,53.919,0,0,0,6.385-4.527,33.109,33.109,0,0,1,4.431-3.612,8.1,8.1,0,0,1,5.441-1.333c.553-.328,1.1-.737,1.655-1.067.838.432.467,1.7-.031,2.5A128.947,128.947,0,0,1,7191,4301.748a39.16,39.16,0,0,1-2.984,3.235c-3.276,3.06-7.481,4.888-11.6,6.661-2.641,1.137-5.365,2.293-8.24,2.347a20.913,20.913,0,0,1-7.7-1.785,5.133,5.133,0,0,1-2.919-2.016c-.715-1.332-.147-2.966.463-4.349C7159.414,4302.689,7160.971,4300.192,7162.271,4297Z" transform="translate(-7157.224 -4268.604)" fill="#ffc59a"/>
        <g id="Grupo_109678" data-name="Grupo 109678" transform="translate(34.51 6.093)">
          <path id="Trazado_116160" data-name="Trazado 116160" d="M7185.53,4274.128a3.816,3.816,0,0,0,2.142,1.472" transform="translate(-7185.53 -4273.485)" fill="none" stroke="#ce7b5b" stroke-linecap="round" stroke-linejoin="round" stroke-width="1"/>
          <path id="Trazado_116161" data-name="Trazado 116161" d="M7187.1,4273.6a10.207,10.207,0,0,0,2.408,1.3" transform="translate(-7185.187 -4273.601)" fill="none" stroke="#ce7b5b" stroke-linecap="round" stroke-linejoin="round" stroke-width="1"/>
          <path id="Trazado_116162" data-name="Trazado 116162" d="M7187.816,4288.171a22.389,22.389,0,0,1,2.433,1.386" transform="translate(-7185.029 -4270.408)" fill="none" stroke="#ce7b5b" stroke-linecap="round" stroke-linejoin="round" stroke-width="1"/>
          <path id="Trazado_116163" data-name="Trazado 116163" d="M7189.691,4287.336l1.174,1.122" transform="translate(-7184.618 -4270.59)" fill="none" stroke="#ce7b5b" stroke-linecap="round" stroke-linejoin="round" stroke-width="1"/>
        </g>
        <g id="Grupo_109679" data-name="Grupo 109679" transform="translate(42.116)">
          <path id="Trazado_116164" data-name="Trazado 116164" d="M7191.833,4285.15a2.35,2.35,0,0,0,.842,2.342c.874-1.226,1.718-2.473,2.516-3.751.5-.8.869-2.066.031-2.5-.553.33-1.1.739-1.655,1.067-.021,0-.043,0-.064-.006q-.5.776-1.011,1.551A4.569,4.569,0,0,0,7191.833,4285.15Z" transform="translate(-7191.77 -4265.833)" fill="#fc87bb"/>
          <path id="Trazado_116165" data-name="Trazado 116165" d="M7195.205,4271.344a2.953,2.953,0,0,0,1.989-.6q.747-.439,1.492-.881c.135-.473.131-1.05-.3-1.222a1.087,1.087,0,0,0-.786.1c-1.233.494-2.465,1.014-3.7,1.544A2.054,2.054,0,0,0,7195.205,4271.344Z" transform="translate(-7191.302 -4268.604)" fill="#fc87bb"/>
        </g>
        <g id="Grupo_109680" data-name="Grupo 109680" transform="translate(21.271 10.841)">
          <path id="Trazado_116166" data-name="Trazado 116166" d="M7179.206,4277.843c-.378.217-.76.429-1.137.646-.615-.058-1.053-.614-1.608-.883a1.953,1.953,0,0,0-.318-.111,30.349,30.349,0,0,0-1.471,5.949Q7176.939,4280.645,7179.206,4277.843Z" transform="translate(-7174.672 -4277.495)" fill="#f2ab88"/>
        </g>
        <g id="Grupo_109681" data-name="Grupo 109681" transform="translate(0 23.147)">
          <path id="Trazado_116167" data-name="Trazado 116167" d="M7178.678,4295.9a40.709,40.709,0,0,0-13.965-8.312q-1.348,2.563-2.442,5.25c-1.3,3.193-2.856,5.69-4.25,8.843-.61,1.383-1.178,3.016-.463,4.349a5.136,5.136,0,0,0,2.919,2.016,20.913,20.913,0,0,0,7.7,1.785c2.875-.054,5.6-1.21,8.24-2.347a52.685,52.685,0,0,0,8.974-4.572A62.961,62.961,0,0,0,7178.678,4295.9Z" transform="translate(-7157.224 -4287.589)" fill="#f2ab88"/>
        </g>
      </g>
      <path id="Trazado_116168" data-name="Trazado 116168" d="M7280.235,4320.832c-.216-.854-.667-1.641-.812-2.509-.3-1.777.716-3.668.087-5.357-.736-1.98-3.413-2.792-3.947-4.835-.144-.547-.108-1.129-.237-1.68a5.893,5.893,0,0,0-2.562-3.053c-1.494-1.112-3.168-2.28-5.024-2.135a7.825,7.825,0,0,0-2.761.943c-1.156.567-2.454,1.407-3.614,1.968a26.027,26.027,0,0,0-12.437,12.94c-.812,1.871-1.4,3.83-2.095,5.749a54.354,54.354,0,0,1-7.414,13.8l-.024-.018-6.467,3.837a65.355,65.355,0,0,1,12.209,14.012l.6-.539c2.168-1.94,6.8-7.37,9.1-9.151,4.116-3.28,8.963-5.485,13.479-8.187s8.877-6.113,11.123-10.873A7.46,7.46,0,0,0,7280.235,4320.832Z" transform="translate(34.725 28.328)" fill="#ffc59a"/>
      <g id="Grupo_109685" data-name="Grupo 109685" transform="translate(7267.651 4319.054)">
        <g id="Grupo_109683" data-name="Grupo 109683" transform="translate(0 10.525)" opacity="0.5">
          <path id="Trazado_116169" data-name="Trazado 116169" d="M7252.718,4314.632c.7,1.4,1.635,2.966,3.184,3.17a4.285,4.285,0,0,0,3.249-1.439,33.622,33.622,0,0,0,2.7-2.9,52.325,52.325,0,0,0,7.1-9.668c-.174-.136-.349-.27-.522-.4-1.494-1.112-3.168-2.28-5.024-2.135a7.825,7.825,0,0,0-2.761.943c-.814.4-1.7.93-2.552,1.407-.794,1.045-1.562,2.113-2.291,3.2A17.738,17.738,0,0,0,7252.718,4314.632Z" transform="translate(-7228.589 -4301.251)" fill="#d89174"/>
          <path id="Trazado_116170" data-name="Trazado 116170" d="M7258.283,4333.127a9.954,9.954,0,0,1-3.278.436c-2.388-.189-4.358-1.842-6.323-3.214a32.327,32.327,0,0,0-5.651-3.151,54.415,54.415,0,0,1-3.612,5.571l-.024-.018-6.467,3.837a65.355,65.355,0,0,1,12.209,14.012l.6-.539c2.168-1.94,6.8-7.37,9.1-9.151,4.116-3.28,8.963-5.485,13.479-8.187s8.877-6.113,11.123-10.873a9.768,9.768,0,0,0,.885-2.812A43.349,43.349,0,0,1,7258.283,4333.127Z" transform="translate(-7232.926 -4297.353)" fill="#d89174"/>
        </g>
        <path id="Trazado_116171" data-name="Trazado 116171" d="M7261.046,4311.424a63.257,63.257,0,0,0,4.867-6.081,20.912,20.912,0,0,0,2.687-10.815c0-.778-.2-1.777-.969-1.9a1.587,1.587,0,0,0-1.137.425,22.457,22.457,0,0,0-4.065,4.424q-3.584,4.629-7.462,9.018a20.287,20.287,0,0,0-3.918,5.517c-.855,2.1-.861,4.707.6,6.443,1.352,1.61,4.587,2.083,5.978.219.622-.834.6-2.158.956-3.115A15.375,15.375,0,0,1,7261.046,4311.424Z" transform="translate(-7229.083 -4292.618)" fill="#ffc59a"/>
        <path id="Trazado_116172" data-name="Trazado 116172" d="M7257.324,4301.952a10.043,10.043,0,0,0,2.408,1.169" transform="translate(-7227.58 -4290.573)" fill="none" stroke="#ce7b5b" stroke-linecap="round" stroke-linejoin="round" stroke-width="1"/>
        <path id="Trazado_116173" data-name="Trazado 116173" d="M7258.987,4300.712a10.752,10.752,0,0,0,2.029,1.046" transform="translate(-7227.215 -4290.844)" fill="none" stroke="#ce7b5b" stroke-linecap="round" stroke-linejoin="round" stroke-width="1"/>
        <g id="Grupo_109684" data-name="Grupo 109684" transform="translate(32.519)">
          <path id="Trazado_116174" data-name="Trazado 116174" d="M7264.008,4297.19a32.423,32.423,0,0,0,2.345-3.958.977.977,0,0,0-.724-.6,1.587,1.587,0,0,0-1.137.425,22.457,22.457,0,0,0-4.065,4.424c-.272.353-.552.7-.827,1.051a2.483,2.483,0,0,0,1.365.681C7262.238,4299.357,7263.276,4298.241,7264.008,4297.19Z" transform="translate(-7259.6 -4292.618)" fill="#fc87bb"/>
        </g>
      </g>
      <path id="Trazado_116175" data-name="Trazado 116175" d="M7182.652,4418.574h-70.87c.766-23.123-10.388-44.7-17.4-66.74-3.38-10.618-5.845-21.873-4.021-32.865a26.038,26.038,0,0,1,4.012-10.742,37.019,37.019,0,0,1,7.612-7.363l28.58-22.781c6.449.555,13.039.772,19.489,1.327,7,.6,14.564,1.445,19.7,6.242,7.32,6.841,17.449,10.024,24.453,17.188a29.067,29.067,0,0,1,5.045,6.447,26.881,26.881,0,0,1,2.474,7.547c2.216,11.261.94,23.035-2.531,33.973-1.4,4.42-3.156,8.721-4.908,13.015C7187.069,4381.506,7184.694,4400.856,7182.652,4418.574Z" transform="translate(3.344 23.251)" fill="url(#linear-gradient)"/>
      <g id="Grupo_109686" data-name="Grupo 109686" transform="translate(7131.588 4301.334)" opacity="0.5" style="mix-blend-mode: multiply;isolation: isolate">
        <path id="Trazado_116176" data-name="Trazado 116176" d="M7142.789,4288.479c8.561.746,17.313-.022,25.715,1.57a43.376,43.376,0,0,1-5.677-4.4c-5.134-4.8-12.7-5.64-19.7-6.242-6.45-.555-13.04-.772-19.489-1.327q-1.16.923-2.318,1.847C7126.674,4285.364,7134.976,4287.8,7142.789,4288.479Z" transform="translate(-7121.321 -4278.084)" fill="#fc87bb"/>
        <path id="Trazado_116177" data-name="Trazado 116177" d="M7185.084,4303.847c-1.292-2.414-6.132,4.585-8.047,2.627-1.168-1.193-.923-2.557-2.235-3.563-6.642,5.891-10.745,4.167-14.861,12.036a45.8,45.8,0,0,0-5.416,16.771,66.256,66.256,0,0,0,.441,12.706q.889,8.974,1.777,17.947c1.676,16.907,3.3,34.3-.38,50.763h12.126c2.042-17.718,4.417-37.068,11.629-54.752,1.752-4.294,3.5-8.594,4.908-13.015,3.472-10.938,4.747-22.712,2.531-33.973A26.881,26.881,0,0,0,7185.084,4303.847Z" transform="translate(-7114.08 -4272.643)" fill="#fc87bb"/>
      </g>
      <g id="Grupo_109687" data-name="Grupo 109687" transform="translate(7093.083 4328.597)" opacity="0.5" style="mix-blend-mode: multiply;isolation: isolate">
        <path id="Trazado_116178" data-name="Trazado 116178" d="M7112.9,4382.12c-4.437-14.844-10.711-29.122-14.482-44.149-3.07-12.241-4.379-25.329-1.614-37.525a22.352,22.352,0,0,0-2.435,2.881,26.038,26.038,0,0,0-4.012,10.742c-1.824,10.992.641,22.248,4.021,32.865,7.017,22.044,18.17,43.617,17.4,66.74h7.691c-.182-1.247-.346-2.5-.518-3.729A187.167,187.167,0,0,0,7112.9,4382.12Z" transform="translate(-7089.738 -4300.446)" fill="#fc87bb"/>
      </g>
      <g id="Grupo_109689" data-name="Grupo 109689" transform="translate(7196.469 4364.977)">
        <path id="Trazado_116179" data-name="Trazado 116179" d="M7266.623,4340.423c-3.569-4.4-10.068-6.519-14.434-10.137l-28.127,16.691c-4.068,2.414-8.5,5.2-11.69,8.691-5.917-4.729-10.277-10.4-14.331-16.8-1.526,2.871-5.563,3.241-7.875,5.528-1.3,1.284-1.95,3.075-3.055,4.528a17.675,17.675,0,0,1-3.632,3.283c-3.162,2.364-5.779,4.509-8.939,6.875a142.077,142.077,0,0,0,19.674,24.784c3.665,3.685,7.782,7.3,12.856,8.426,5.912,1.309,10.931-4.525,15.516-8.483a195.585,195.585,0,0,0,19.14-18.971c2.452-2.792,4.825-5.654,7.388-8.345,2.978-3.13,6.2-6.016,9.417-8.9C7260.7,4345.656,7264.324,4342.205,7266.623,4340.423Z" transform="translate(-7174.54 -4330.286)" fill="#fff"/>
        <g id="Grupo_109688" data-name="Grupo 109688" opacity="0.2" style="mix-blend-mode: multiply;isolation: isolate">
          <path id="Trazado_116180" data-name="Trazado 116180" d="M7252.189,4330.286l-28.128,16.691c-4.067,2.414-8.5,5.2-11.689,8.691-5.917-4.729-10.277-10.4-14.331-16.8-1.526,2.871-5.563,3.241-7.875,5.528-1.3,1.284-1.95,3.075-3.055,4.528a17.675,17.675,0,0,1-3.632,3.283c-3.162,2.364-5.779,4.509-8.939,6.875,2.4,3.838,5,7.551,7.757,11.142a217.924,217.924,0,0,0,19.227-14.966,20.824,20.824,0,0,1,8.885,19.965c2.371-7.483,7.193-14.012,12.914-19.387s12.342-9.691,19.014-13.827a4.376,4.376,0,0,1,1.684-.738,3.97,3.97,0,0,1,2.294.608,19.262,19.262,0,0,1,6.8,6.006,23.529,23.529,0,0,1,1.762,3.015q1.816-1.663,3.652-3.305c2.168-1.94,5.794-5.391,8.093-7.173C7263.053,4336.019,7256.554,4333.9,7252.189,4330.286Z" transform="translate(-7174.54 -4330.286)" fill="#d6dcfe"/>
        </g>
      </g>
      <path id="Trazado_116181" data-name="Trazado 116181" d="M7207.731,4347.667a201.933,201.933,0,0,0-19.14-38.756c-2.951-4.646-7.028-9.68-12.53-9.552a13.075,13.075,0,0,0-5.983,1.936,29.741,29.741,0,0,0-14.779,22.649c-.662,6.8,1.088,13.659,3.928,19.872s6.738,11.871,10.616,17.492l9.718,14.086A121.013,121.013,0,0,0,7207.731,4347.667Z" transform="translate(17.683 27.913)" fill="url(#linear-gradient)"/>
      <g id="Grupo_109695" data-name="Grupo 109695" transform="translate(7110.077 4216.668)">
        <path id="Trazado_116182" data-name="Trazado 116182" d="M7175.16,4255.3a1.076,1.076,0,0,1,.261.6,1,1,0,0,1-.24.548,11.141,11.141,0,0,1-5.07,3.853,1.244,1.244,0,0,1-.672.111c-.519-.1-.711-.732-.79-1.254-.783-5.136-.564-11.471,1.753-16.221,1.075,1.379.99,4.271,1.57,6.021A24.373,24.373,0,0,0,7175.16,4255.3Z" transform="translate(-7089.529 -4201.118)" fill="#d89174"/>
        <path id="Trazado_116183" data-name="Trazado 116183" d="M7156.479,4242.533l23.061,4.306a8.864,8.864,0,0,1-3.018,7.481,5.15,5.15,0,0,1-3.967,1.311" transform="translate(-7092.105 -4201.208)" fill="none" stroke="#414141" stroke-linecap="round" stroke-linejoin="round" stroke-width="2"/>
        <path id="Trazado_116184" data-name="Trazado 116184" d="M7177.621,4242.028a59.006,59.006,0,0,0-.869,7.066c.021,2.519.767,4.973,1.061,7.475.847,7.219-2.073,14.288-4.932,20.972-1.14,2.664-2.395,5.473-4.789,7.106a9.436,9.436,0,0,1-7.328,1.176,16.511,16.511,0,0,1-6.7-3.513c-7.611-6.223-11.27-16.56-10.45-26.357s5.756-18.976,12.626-26.009c2.656-2.72,5.729-5.223,9.4-6.216,3.274-.887,8.731-.4,10.4,3.1C7177.945,4230.834,7178.107,4237.7,7177.621,4242.028Z" transform="translate(-7094.951 -4205.414)" fill="#ffc59a"/>
        <g id="Grupo_109690" data-name="Grupo 109690" transform="translate(49.501 61.11)">
          <path id="Trazado_116185" data-name="Trazado 116185" d="M7144.28,4258.761a29.2,29.2,0,0,0,9.61,15.787,16.5,16.5,0,0,0,6.7,3.512,9.432,9.432,0,0,0,7.328-1.175c.116-.078.217-.172.327-.256a31.232,31.232,0,0,1-9.288-5.02A108.889,108.889,0,0,1,7144.28,4258.761Z" transform="translate(-7144.28 -4258.761)" fill="#d89174"/>
        </g>
        <line id="Línea_186" data-name="Línea 186" x2="23.061" y2="4.306" transform="translate(64.374 41.325)" fill="none" stroke="#414141" stroke-linecap="round" stroke-linejoin="round" stroke-width="2"/>
        <path id="Trazado_116186" data-name="Trazado 116186" d="M7163.121,4291.711c-2.046-13.358-1.167-26.21,3.823-38.768a99.038,99.038,0,0,0-32.03-.106,19.13,19.13,0,0,0-5.854,1.757c2.3,10.72-.853,22.333-7.612,30.967C7134.709,4288.207,7150.063,4287.636,7163.121,4291.711Z" transform="translate(-7099.783 -4199.225)" fill="#f2ab88"/>
        <g id="Grupo_109692" data-name="Grupo 109692">
          <path id="Trazado_116187" data-name="Trazado 116187" d="M7184.683,4227.561a6.781,6.781,0,0,1,1.131,5.01,84.319,84.319,0,0,1-4.158,15.292,19.271,19.271,0,0,1-4.26,7.344,10.953,10.953,0,0,1-7.99,2.995,15.245,15.245,0,0,0,6.749-4.136,16.625,16.625,0,0,0,3.893-8.557,49.554,49.554,0,0,0,.4-9.509c-15.914,26.355-26.534,58.111-22.147,88.584,1.51,10.475,4.675,20.711,5.37,31.271.9,13.586-2.376,27.249-8.105,39.6s-13.853,23.469-22.865,33.673a62.14,62.14,0,0,0-4.958-15.06c-1.848-3.576-4.421-6.8-5.705-10.619a69.54,69.54,0,0,0,5.657,15.552,75.852,75.852,0,0,1-23.988-53.571,125.046,125.046,0,0,1,4.977-37.682c6.147-20.552,10.423-42.011,8.646-63.389-.639-7.679-2.056-15.308-2.063-23.014s1.542-15.707,6.206-21.842c6.84-9,19.4-12.285,30.532-10.316a60.712,60.712,0,0,1,29.642,14.366A22.012,22.012,0,0,1,7184.683,4227.561Z" transform="translate(-7103.678 -4208.637)" fill="#5a2a1a"/>
          <g id="Grupo_109691" data-name="Grupo 109691" transform="translate(61.455 18.063)" opacity="0.5" style="mix-blend-mode: multiply;isolation: isolate">
            <path id="Trazado_116188" data-name="Trazado 116188" d="M7173.056,4223.453A59.627,59.627,0,0,0,7155,4255.745a53.351,53.351,0,0,0-.918,9.022,177.267,177.267,0,0,1,15.311-32.015,49.554,49.554,0,0,1-.4,9.509,16.625,16.625,0,0,1-3.893,8.557,15.245,15.245,0,0,1-6.749,4.136,10.953,10.953,0,0,0,7.99-2.995,19.271,19.271,0,0,0,4.26-7.344,84.319,84.319,0,0,0,4.158-15.292,6.781,6.781,0,0,0-1.131-5.01C7173.441,4224.032,7173.249,4223.743,7173.056,4223.453Z" transform="translate(-7154.085 -4223.453)" fill="#5a2a1a"/>
          </g>
          <path id="Trazado_116189" data-name="Trazado 116189" d="M7145.013,4292.6a94.933,94.933,0,0,0-4.078,17.7c-1.567,13.481,1.119,27.054,1.73,40.612s-1.293,28.2-10.34,38.314c2.387-3.976,3.073-8.717,3.561-13.328a216.276,216.276,0,0,0,.937-33.4c-.435-8.812-1.409-17.652-.557-26.434,1.3-13.454,6.82-26.109,12.718-38.271,4.037-8.328,9.312-16.443,12.811-24.96-2.043,1.208-3.394,6.376-4.411,8.619-1.552,3.427-3.078,6.867-4.547,10.329C7149.94,4278.608,7147.256,4285.528,7145.013,4292.6Z" transform="translate(-7097.399 -4198.951)" fill="#5a2a1a" opacity="0.5" style="mix-blend-mode: multiply;isolation: isolate"/>
          <path id="Trazado_116190" data-name="Trazado 116190" d="M7117.028,4303.208c-3.9,17.917-7.635,36.757-2.448,54.345,1.923,6.517,5.014,12.62,8.09,18.68a58.194,58.194,0,0,1,1.844-52.1c-1.748,9.039.391,18.305,1.6,27.432,1.764,13.275,1.558,26.724,1.348,40.113a183.733,183.733,0,0,0,2.108-51.583c-1.418-14.087-4.426-28.626-.206-42.141a351.457,351.457,0,0,1-13.851,33.129c8.845-18.447,10.411-42.425,8.383-62.448a125.759,125.759,0,0,0-2.956-17.468c1,8.445,1.77,16.382.913,24.917C7120.938,4285.231,7118.979,4294.236,7117.028,4303.208Z" transform="translate(-7101.845 -4199.317)" fill="#5a2a1a" opacity="0.5" style="mix-blend-mode: multiply;isolation: isolate"/>
          <path id="Trazado_116191" data-name="Trazado 116191" d="M7133.643,4247.888c3.183,10.228,3.424,21.156,2.6,31.836s-2.684,21.257-3.613,31.93c-.688,7.92-.841,16.054,1.516,23.646-2.235-7.8-4.48-15.646-5.493-23.7-1.254-9.978.619-18.892,2.588-28.549a133.316,133.316,0,0,0,2.374-17.784C7133.948,4260.216,7135.164,4252.774,7133.643,4247.888Z" transform="translate(-7098.293 -4200.035)" fill="#5a2a1a" opacity="0.5" style="mix-blend-mode: multiply;isolation: isolate"/>
          <path id="Trazado_116192" data-name="Trazado 116192" d="M7133.3,4211.465c-7.118,2.675-12.115,9.538-13.974,16.912s-.932,15.2,1.051,22.542c-1.324-7.656,2.117-15.243,5.469-22.252-4.787,12.341-2.612,26.325,1.626,38.865a58.849,58.849,0,0,1-2.086-24.218,38.88,38.88,0,0,1,10.256-21.781,39.076,39.076,0,0,0-1.125,21.474,21.026,21.026,0,0,1,5.463-15.285c-1.991,4.533-1.048,9.744-.216,14.625a247,247,0,0,1,3.368,33.344l-.035-26.138a56.931,56.931,0,0,1,.37-8.071,28.609,28.609,0,0,1,4.588-11.936c-2,4.311-.6,9.331.441,13.965a85.132,85.132,0,0,1,1.466,28.6,197.261,197.261,0,0,0,2.2-28.837c.014-4.995-.151-10.075,1.179-14.891s4.459-9.436,9.152-11.145a31.082,31.082,0,0,0-19.833,16.808,26.957,26.957,0,0,1,9.718-17.806c-6.506,3.013-13.645,6.7-15.936,13.5a22.854,22.854,0,0,1,7.184-14.99,27.324,27.324,0,0,0-17.666,15.792,26.771,26.771,0,0,1,6.973-13.368A31.142,31.142,0,0,0,7121,4232.577C7123.078,4224.249,7126.434,4216.613,7133.3,4211.465Z" transform="translate(-7100.467 -4208.017)" fill="#fff" opacity="0.2"/>
          <path id="Trazado_116193" data-name="Trazado 116193" d="M7150.43,4246.117c.1-4.909-.05-9.911,1.33-14.625s4.637-9.207,9.354-10.573c-2.949,2.111-4.732,5.531-5.661,9.037a67.468,67.468,0,0,0-1.45,10.771,105.772,105.772,0,0,1-1.77,11.537c-.58,2.76-.97,7.81-2.991,9.828C7149.708,4256.762,7150.323,4251.48,7150.43,4246.117Z" transform="translate(-7093.692 -4205.945)" fill="#fff" opacity="0.2"/>
          <path id="Trazado_116194" data-name="Trazado 116194" d="M7118.362,4381.748c-7.058-10.039-10.8-22.172-11.906-34.393s.323-24.562,2.923-36.556a359.312,359.312,0,0,0,2.354,44.278C7112.837,4364.065,7114.611,4373.5,7118.362,4381.748Z" transform="translate(-7103.152 -4186.247)" fill="#fff" opacity="0.2"/>
          <path id="Trazado_116195" data-name="Trazado 116195" d="M7130.386,4317.4c5.771,13.131,4.438,28.247,1.623,42.311a78.573,78.573,0,0,1-6.015,19.047C7130.53,4358.5,7132.5,4338.134,7130.386,4317.4Z" transform="translate(-7098.786 -4184.801)" fill="#fff" opacity="0.2"/>
          <path id="Trazado_116196" data-name="Trazado 116196" d="M7132.541,4390.075a128.968,128.968,0,0,0,12.989-32.094,60.689,60.689,0,0,0,2.155-13.895c.124-7.215-1.717-14.3-2.771-21.439s-1.257-14.749,1.912-21.231c-3.549,11.672,1.021,24.262,2.139,36.411C7150.71,4356.821,7145.4,4375.985,7132.541,4390.075Z" transform="translate(-7097.352 -4188.304)" fill="#fff" opacity="0.2"/>
        </g>
        <g id="Grupo_109694" data-name="Grupo 109694" transform="translate(58.802 39.445)">
          <path id="Trazado_116197" data-name="Trazado 116197" d="M7158.912,4243.1c-.606-1.033-1.51-2.089-2.707-2.109-1.515-.028-2.5,1.563-3.017,2.985a19.243,19.243,0,0,0,.2,14.314,6.217,6.217,0,0,0,1.634,2.344,2.8,2.8,0,0,0,2.7.556,3.962,3.962,0,0,0,1.97-2.566C7161.443,4253.7,7161.617,4247.7,7158.912,4243.1Z" transform="translate(-7151.909 -4240.991)" fill="#ffc59a"/>
          <g id="Grupo_109693" data-name="Grupo 109693" transform="translate(3.453 5.145)">
            <path id="Trazado_116198" data-name="Trazado 116198" d="M7160.355,4250.771l-1.487-3.349a5.242,5.242,0,0,0-.955-1.6,1.782,1.782,0,0,0-1.7-.559c-.933.27-1.258,1.41-1.361,2.374a20.5,20.5,0,0,0,.735,7.995c.405,1.362,1.223,2.893,2.64,3a2.037,2.037,0,0,0,.454-.021,8.5,8.5,0,0,0,.384-.913A22.18,22.18,0,0,0,7160.355,4250.771Z" transform="translate(-7154.741 -4245.211)" fill="#d89174"/>
          </g>
        </g>
      </g>
      <g id="Grupo_109755" data-name="Grupo 109755" transform="translate(7202.992 4194.207)">
        <g id="Grupo_109753" data-name="Grupo 109753" transform="translate(0.165 0.167)">
          <rect id="Rectángulo_40992" data-name="Rectángulo 40992" width="114.278" height="72.693" transform="translate(0 9.912)" fill="#fff"/>
          <g id="Grupo_109696" data-name="Grupo 109696" transform="translate(0 9.912)">
            <rect id="Rectángulo_40993" data-name="Rectángulo 40993" width="20.582" height="72.693" fill="#ececec"/>
          </g>
          <g id="Grupo_109703" data-name="Grupo 109703" transform="translate(8.068 17.258)">
            <g id="Grupo_109702" data-name="Grupo 109702">
              <g id="Grupo_109701" data-name="Grupo 109701">
                <g id="Grupo_109700" data-name="Grupo 109700">
                  <g id="Grupo_109699" data-name="Grupo 109699">
                    <g id="Grupo_109698" data-name="Grupo 109698">
                      <g id="Grupo_109697" data-name="Grupo 109697">
                        <path id="Trazado_116199" data-name="Trazado 116199" d="M7187.621,4205a1.377,1.377,0,0,1,.343-.149l.071-.338.572-.011.084.337a1.475,1.475,0,0,1,.347.136l.29-.189.412.4-.179.3a1.463,1.463,0,0,1,.148.342l.339.071.01.573-.337.083a1.411,1.411,0,0,1-.136.348l.189.29-.4.412-.3-.179a1.437,1.437,0,0,1-.343.148l-.07.339-.573.01-.083-.337a1.368,1.368,0,0,1-.348-.136l-.289.19-.412-.4.18-.3a1.309,1.309,0,0,1-.148-.342l-.341-.071-.01-.573.337-.082a1.4,1.4,0,0,1,.137-.349l-.189-.289.4-.412.3.179Zm.306.763a.615.615,0,1,0,.87-.015A.614.614,0,0,0,7187.927,4205.768Z" transform="translate(-7186.644 -4204.506)" fill="#e1e1e1"/>
                      </g>
                    </g>
                  </g>
                </g>
              </g>
            </g>
          </g>
          <g id="Grupo_109704" data-name="Grupo 109704" transform="translate(3.907 31.972)">
            <path id="Trazado_116200" data-name="Trazado 116200" d="M7193.124,4218.418h-8.972a.921.921,0,0,1-.922-.921h0a.921.921,0,0,1,.922-.921h8.972a.921.921,0,0,1,.922.921h0A.921.921,0,0,1,7193.124,4218.418Z" transform="translate(-7183.23 -4216.575)" fill="#e1e1e1"/>
          </g>
          <g id="Grupo_109705" data-name="Grupo 109705" transform="translate(3.907 27.275)">
            <path id="Trazado_116201" data-name="Trazado 116201" d="M7193.124,4214.565h-8.972a.921.921,0,0,1-.922-.922h0a.921.921,0,0,1,.922-.922h8.972a.921.921,0,0,1,.922.922h0A.921.921,0,0,1,7193.124,4214.565Z" transform="translate(-7183.23 -4212.722)" fill="#e1e1e1"/>
          </g>
          <g id="Grupo_109706" data-name="Grupo 109706" transform="translate(3.907 22.977)">
            <path id="Trazado_116202" data-name="Trazado 116202" d="M7193.124,4211.042h-8.972a.922.922,0,0,1-.922-.923h0a.922.922,0,0,1,.922-.922h8.972a.922.922,0,0,1,.922.922h0A.922.922,0,0,1,7193.124,4211.042Z" transform="translate(-7183.23 -4209.197)" fill="#e1e1e1"/>
          </g>
          <g id="Grupo_109707" data-name="Grupo 109707" transform="translate(28.486 18.806)">
            <path id="Trazado_116203" data-name="Trazado 116203" d="M7212.812,4207.621h-8.5a.923.923,0,0,1-.923-.923h0a.923.923,0,0,1,.923-.922h8.5a.923.923,0,0,1,.923.922h0A.923.923,0,0,1,7212.812,4207.621Z" transform="translate(-7203.392 -4205.776)" fill="#1a2e35"/>
          </g>
          <g id="Grupo_109708" data-name="Grupo 109708" transform="translate(28.486 23.633)">
            <path id="Trazado_116204" data-name="Trazado 116204" d="M7212.812,4211.58h-8.5a.923.923,0,0,1-.923-.923h0a.923.923,0,0,1,.923-.922h8.5a.923.923,0,0,1,.923.922h0A.923.923,0,0,1,7212.812,4211.58Z" transform="translate(-7203.392 -4209.734)" fill="#e1e1e1"/>
          </g>
          <g id="Grupo_109709" data-name="Grupo 109709" transform="translate(28.486 28.621)">
            <path id="Trazado_116205" data-name="Trazado 116205" d="M7212.812,4215.67h-8.5a.923.923,0,0,1-.923-.922h0a.923.923,0,0,1,.923-.922h8.5a.923.923,0,0,1,.923.922h0A.923.923,0,0,1,7212.812,4215.67Z" transform="translate(-7203.392 -4213.826)" fill="#ff735d"/>
          </g>
          <g id="Grupo_109710" data-name="Grupo 109710" transform="translate(28.486 38.264)">
            <path id="Trazado_116206" data-name="Trazado 116206" d="M7209.188,4223.581h-4.873a.922.922,0,0,1-.923-.921h0a.923.923,0,0,1,.923-.923h4.873a.922.922,0,0,1,.921.923h0A.921.921,0,0,1,7209.188,4223.581Z" transform="translate(-7203.392 -4221.736)" fill="#1a2e35"/>
          </g>
          <g id="Grupo_109711" data-name="Grupo 109711" transform="translate(28.486 43.263)">
            <path id="Trazado_116207" data-name="Trazado 116207" d="M7209.188,4227.681h-4.873a.923.923,0,0,1-.923-.922h0a.923.923,0,0,1,.923-.923h4.873a.922.922,0,0,1,.921.923h0A.922.922,0,0,1,7209.188,4227.681Z" transform="translate(-7203.392 -4225.836)" fill="#1a2e35"/>
          </g>
          <g id="Grupo_109712" data-name="Grupo 109712" transform="translate(38.908 43.263)">
            <path id="Trazado_116208" data-name="Trazado 116208" d="M7221.8,4227.681h-8.935a.922.922,0,0,1-.922-.922h0a.922.922,0,0,1,.922-.923h8.935a.924.924,0,0,1,.924.923h0A.924.924,0,0,1,7221.8,4227.681Z" transform="translate(-7211.939 -4225.836)" fill="#e1e1e1"/>
          </g>
          <g id="Grupo_109713" data-name="Grupo 109713" transform="translate(33.853 47.709)">
            <path id="Trazado_116209" data-name="Trazado 116209" d="M7217.652,4231.327h-8.937a.922.922,0,0,1-.922-.922h0a.922.922,0,0,1,.922-.921h8.937a.922.922,0,0,1,.922.921h0A.922.922,0,0,1,7217.652,4231.327Z" transform="translate(-7207.793 -4229.483)" fill="#ff735d"/>
          </g>
          <g id="Grupo_109714" data-name="Grupo 109714" transform="translate(38.924 52.779)">
            <rect id="Rectángulo_40994" data-name="Rectángulo 40994" width="7.397" height="1.844" rx="0.756" fill="#ff735d"/>
          </g>
          <g id="Grupo_109715" data-name="Grupo 109715" transform="translate(38.924 62.716)">
            <path id="Trazado_116210" data-name="Trazado 116210" d="M7218.428,4243.637h-5.554a.924.924,0,0,1-.922-.923h0a.923.923,0,0,1,.922-.921h5.554a.922.922,0,0,1,.921.921h0A.923.923,0,0,1,7218.428,4243.637Z" transform="translate(-7211.952 -4241.792)" fill="#ff735d"/>
          </g>
          <g id="Grupo_109716" data-name="Grupo 109716" transform="translate(38.924 73.211)">
            <path id="Trazado_116211" data-name="Trazado 116211" d="M7218.428,4252.246h-5.554a.923.923,0,0,1-.922-.923h0a.923.923,0,0,1,.922-.922h5.554a.922.922,0,0,1,.921.922h0A.922.922,0,0,1,7218.428,4252.246Z" transform="translate(-7211.952 -4250.401)" fill="#ff735d"/>
          </g>
          <g id="Grupo_109717" data-name="Grupo 109717" transform="translate(48.392 73.211)">
            <path id="Trazado_116212" data-name="Trazado 116212" d="M7230.375,4252.246h-9.734a.922.922,0,0,1-.921-.923h0a.922.922,0,0,1,.921-.922h9.734a.922.922,0,0,1,.921.922h0A.922.922,0,0,1,7230.375,4252.246Z" transform="translate(-7219.719 -4250.401)" fill="#375a64"/>
          </g>
          <g id="Grupo_109718" data-name="Grupo 109718" transform="translate(63.536 73.211)">
            <path id="Trazado_116213" data-name="Trazado 116213" d="M7234.466,4252.246h-1.4a.923.923,0,0,1-.923-.923h0a.923.923,0,0,1,.923-.922h1.4a.923.923,0,0,1,.922.922h0A.923.923,0,0,1,7234.466,4252.246Z" transform="translate(-7232.141 -4250.401)" fill="#e1e1e1"/>
          </g>
          <g id="Grupo_109719" data-name="Grupo 109719" transform="translate(49.316 62.716)">
            <path id="Trazado_116214" data-name="Trazado 116214" d="M7229.625,4243.637H7221.4a.923.923,0,0,1-.921-.923h0a.922.922,0,0,1,.921-.921h8.228a.922.922,0,0,1,.921.921h0A.923.923,0,0,1,7229.625,4243.637Z" transform="translate(-7220.477 -4241.792)" fill="#e1e1e1"/>
          </g>
          <g id="Grupo_109720" data-name="Grupo 109720" transform="translate(49.316 67.323)">
            <path id="Trazado_116215" data-name="Trazado 116215" d="M7247.664,4247.416H7221.4a.922.922,0,0,1-.921-.923h0a.922.922,0,0,1,.921-.922h26.266a.923.923,0,0,1,.922.922h0A.923.923,0,0,1,7247.664,4247.416Z" transform="translate(-7220.477 -4245.571)" fill="#e1e1e1"/>
          </g>
          <g id="Grupo_109721" data-name="Grupo 109721" transform="translate(61.846 62.716)">
            <path id="Trazado_116216" data-name="Trazado 116216" d="M7248.445,4243.637h-16.769a.923.923,0,0,1-.922-.923h0a.922.922,0,0,1,.922-.921h16.769a.922.922,0,0,1,.922.921h0A.923.923,0,0,1,7248.445,4243.637Z" transform="translate(-7230.755 -4241.792)" fill="#375a64"/>
          </g>
          <g id="Grupo_109722" data-name="Grupo 109722" transform="translate(48.735 52.779)">
            <rect id="Rectángulo_40995" data-name="Rectángulo 40995" width="8.791" height="1.844" rx="0.756" fill="#375a64"/>
          </g>
          <g id="Grupo_109723" data-name="Grupo 109723" transform="translate(59.969 52.779)">
            <rect id="Rectángulo_40996" data-name="Rectángulo 40996" width="3.57" height="1.844" rx="0.756" fill="#e1e1e1"/>
          </g>
          <g id="Grupo_109724" data-name="Grupo 109724" transform="translate(66.255 52.779)">
            <rect id="Rectángulo_40997" data-name="Rectángulo 40997" width="10.531" height="1.844" rx="0.756" fill="#e1e1e1"/>
          </g>
          <g id="Grupo_109725" data-name="Grupo 109725" transform="translate(46.851 47.709)">
            <path id="Trazado_116217" data-name="Trazado 116217" d="M7221.367,4231.327h-1.99a.922.922,0,0,1-.922-.922h0a.922.922,0,0,1,.922-.921h1.99a.922.922,0,0,1,.923.921h0A.922.922,0,0,1,7221.367,4231.327Z" transform="translate(-7218.455 -4229.483)" fill="#1a2e35"/>
          </g>
          <g id="Grupo_109726" data-name="Grupo 109726" transform="translate(53.033 47.709)">
            <path id="Trazado_116218" data-name="Trazado 116218" d="M7237.125,4231.327h-12.678a.922.922,0,0,1-.922-.922h0a.922.922,0,0,1,.922-.921h12.678a.922.922,0,0,1,.923.921h0A.922.922,0,0,1,7237.125,4231.327Z" transform="translate(-7223.525 -4229.483)" fill="#e1e1e1"/>
          </g>
          <g id="Grupo_109727" data-name="Grupo 109727" transform="translate(42.102 18.806)">
            <path id="Trazado_116219" data-name="Trazado 116219" d="M7223.98,4207.621h-8.5a.923.923,0,0,1-.922-.923h0a.923.923,0,0,1,.922-.922h8.5a.922.922,0,0,1,.921.922h0A.922.922,0,0,1,7223.98,4207.621Z" transform="translate(-7214.56 -4205.776)" fill="#375a64"/>
          </g>
          <g id="Grupo_109728" data-name="Grupo 109728" transform="translate(42.102 23.633)">
            <path id="Trazado_116220" data-name="Trazado 116220" d="M7234.931,4211.58h-19.449a.923.923,0,0,1-.922-.923h0a.923.923,0,0,1,.922-.922h19.449a.923.923,0,0,1,.921.922h0A.922.922,0,0,1,7234.931,4211.58Z" transform="translate(-7214.56 -4209.734)" fill="#1a2e35"/>
          </g>
          <g id="Grupo_109729" data-name="Grupo 109729" transform="translate(42.102 28.621)">
            <path id="Trazado_116221" data-name="Trazado 116221" d="M7255.868,4215.67h-40.387a.922.922,0,0,1-.922-.922h0a.922.922,0,0,1,.922-.922h40.387a.923.923,0,0,1,.923.922h0A.923.923,0,0,1,7255.868,4215.67Z" transform="translate(-7214.56 -4213.826)" fill="#e1e1e1"/>
          </g>
          <g id="Grupo_109730" data-name="Grupo 109730" transform="translate(42.102 32.134)">
            <path id="Trazado_116222" data-name="Trazado 116222" d="M7234.524,4218.553h-19.043a.923.923,0,0,1-.922-.924h0a.922.922,0,0,1,.922-.921h19.043a.922.922,0,0,1,.923.921h0A.924.924,0,0,1,7234.524,4218.553Z" transform="translate(-7214.56 -4216.708)" fill="#e1e1e1"/>
          </g>
          <g id="Grupo_109731" data-name="Grupo 109731" transform="translate(38.207 38.264)">
            <path id="Trazado_116223" data-name="Trazado 116223" d="M7231.33,4223.581h-19.044a.921.921,0,0,1-.921-.921h0a.921.921,0,0,1,.921-.923h19.044a.922.922,0,0,1,.921.923h0A.921.921,0,0,1,7231.33,4223.581Z" transform="translate(-7211.365 -4221.736)" fill="#375a64"/>
          </g>
          <g id="Grupo_109732" data-name="Grupo 109732" transform="translate(61.527 38.264)">
            <path id="Trazado_116224" data-name="Trazado 116224" d="M7237.8,4223.581h-6.382a.922.922,0,0,1-.923-.921h0a.923.923,0,0,1,.923-.923h6.382a.924.924,0,0,1,.924.923h0A.923.923,0,0,1,7237.8,4223.581Z" transform="translate(-7230.493 -4221.736)" fill="#ff735d"/>
          </g>
          <g id="Grupo_109733" data-name="Grupo 109733" transform="translate(72.172 38.235)">
            <path id="Trazado_116225" data-name="Trazado 116225" d="M7252.2,4223.556h-12.058a.922.922,0,0,1-.922-.922h0a.922.922,0,0,1,.922-.921H7252.2a.922.922,0,0,1,.923.921h0A.922.922,0,0,1,7252.2,4223.556Z" transform="translate(-7239.225 -4221.712)" fill="#1a2e35"/>
          </g>
          <g id="Grupo_109734" data-name="Grupo 109734" transform="translate(88.581 38.235)">
            <path id="Trazado_116226" data-name="Trazado 116226" d="M7265.664,4223.556h-12.058a.922.922,0,0,1-.922-.922h0a.922.922,0,0,1,.922-.921h12.058a.922.922,0,0,1,.922.921h0A.922.922,0,0,1,7265.664,4223.556Z" transform="translate(-7252.685 -4221.712)" fill="#e1e1e1"/>
          </g>
          <g id="Grupo_109735" data-name="Grupo 109735" transform="translate(3.907 36.944)">
            <path id="Trazado_116227" data-name="Trazado 116227" d="M7189.239,4222.5h-5.087a.922.922,0,0,1-.922-.921h0a.922.922,0,0,1,.922-.923h5.087a.921.921,0,0,1,.921.923h0A.921.921,0,0,1,7189.239,4222.5Z" transform="translate(-7183.23 -4220.653)" fill="#e1e1e1"/>
          </g>
          <g id="Grupo_109736" data-name="Grupo 109736" transform="translate(3.907 51.862)">
            <path id="Trazado_116228" data-name="Trazado 116228" d="M7187.716,4234.733h-3.563a.922.922,0,0,1-.922-.923h0a.922.922,0,0,1,.922-.921h3.563a.922.922,0,0,1,.923.921h0A.923.923,0,0,1,7187.716,4234.733Z" transform="translate(-7183.23 -4232.889)" fill="#e1e1e1"/>
          </g>
          <g id="Grupo_109737" data-name="Grupo 109737" transform="translate(3.907 41.917)">
            <path id="Trazado_116229" data-name="Trazado 116229" d="M7194.046,4226.575h-9.894a.921.921,0,0,1-.922-.922h0a.922.922,0,0,1,.922-.921h9.894a.922.922,0,0,1,.923.921h0A.922.922,0,0,1,7194.046,4226.575Z" transform="translate(-7183.23 -4224.732)" fill="#e1e1e1"/>
          </g>
          <g id="Grupo_109738" data-name="Grupo 109738" transform="translate(3.907 46.89)">
            <path id="Trazado_116230" data-name="Trazado 116230" d="M7192.312,4230.654h-8.159a.921.921,0,0,1-.922-.922h0a.921.921,0,0,1,.922-.922h8.159a.921.921,0,0,1,.921.922h0A.922.922,0,0,1,7192.312,4230.654Z" transform="translate(-7183.23 -4228.811)" fill="#e1e1e1"/>
          </g>
          <g id="Grupo_109739" data-name="Grupo 109739" transform="translate(23.369 18.792)">
            <path id="Trazado_116231" data-name="Trazado 116231" d="M7201.069,4206.7a.937.937,0,1,1-.937-.937A.936.936,0,0,1,7201.069,4206.7Z" transform="translate(-7199.195 -4205.764)" fill="#375a64"/>
          </g>
          <g id="Grupo_109740" data-name="Grupo 109740" transform="translate(23.37 13.873)">
            <circle id="Elipse_4873" data-name="Elipse 4873" cx="0.937" cy="0.937" r="0.937" fill="#375a64"/>
          </g>
          <g id="Grupo_109741" data-name="Grupo 109741" transform="translate(23.37 23.604)">
            <circle id="Elipse_4874" data-name="Elipse 4874" cx="0.937" cy="0.937" r="0.937" fill="#375a64"/>
          </g>
          <g id="Grupo_109742" data-name="Grupo 109742" transform="translate(23.37 28.607)">
            <circle id="Elipse_4875" data-name="Elipse 4875" cx="0.937" cy="0.937" r="0.937" fill="#375a64"/>
          </g>
          <g id="Grupo_109743" data-name="Grupo 109743" transform="translate(23.37 33.609)">
            <circle id="Elipse_4876" data-name="Elipse 4876" cx="0.937" cy="0.937" r="0.937" fill="#375a64"/>
          </g>
          <g id="Grupo_109744" data-name="Grupo 109744" transform="translate(23.369 38.612)">
            <path id="Trazado_116232" data-name="Trazado 116232" d="M7201.069,4222.958a.937.937,0,1,1-.937-.937A.936.936,0,0,1,7201.069,4222.958Z" transform="translate(-7199.195 -4222.021)" fill="#375a64"/>
          </g>
          <g id="Grupo_109745" data-name="Grupo 109745" transform="translate(23.37 43.614)">
            <circle id="Elipse_4877" data-name="Elipse 4877" cx="0.937" cy="0.937" r="0.937" fill="#375a64"/>
          </g>
          <g id="Grupo_109746" data-name="Grupo 109746" transform="translate(23.37 48.616)">
            <circle id="Elipse_4878" data-name="Elipse 4878" cx="0.937" cy="0.937" r="0.937" fill="#375a64"/>
          </g>
          <g id="Grupo_109747" data-name="Grupo 109747" transform="translate(23.369 53.618)">
            <path id="Trazado_116233" data-name="Trazado 116233" d="M7201.069,4235.266a.937.937,0,1,1-.937-.937A.937.937,0,0,1,7201.069,4235.266Z" transform="translate(-7199.195 -4234.33)" fill="#375a64"/>
          </g>
          <g id="Grupo_109748" data-name="Grupo 109748" transform="translate(23.369 58.621)">
            <path id="Trazado_116234" data-name="Trazado 116234" d="M7201.069,4239.37a.937.937,0,1,1-.937-.937A.937.937,0,0,1,7201.069,4239.37Z" transform="translate(-7199.195 -4238.433)" fill="#375a64"/>
          </g>
          <g id="Grupo_109749" data-name="Grupo 109749" transform="translate(23.37 63.623)">
            <circle id="Elipse_4879" data-name="Elipse 4879" cx="0.937" cy="0.937" r="0.937" fill="#375a64"/>
          </g>
          <g id="Grupo_109750" data-name="Grupo 109750" transform="translate(23.369 68.625)">
            <path id="Trazado_116235" data-name="Trazado 116235" d="M7201.069,4247.576a.937.937,0,1,1-.937-.937A.936.936,0,0,1,7201.069,4247.576Z" transform="translate(-7199.195 -4246.639)" fill="#375a64"/>
          </g>
          <g id="Grupo_109751" data-name="Grupo 109751" transform="translate(23.37 73.628)">
            <circle id="Elipse_4880" data-name="Elipse 4880" cx="0.937" cy="0.937" r="0.937" fill="#375a64"/>
          </g>
          <path id="Rectángulo_40998" data-name="Rectángulo 40998" d="M5.4,0h105.04a3.835,3.835,0,0,1,3.835,3.835V9.911a0,0,0,0,1,0,0H0a0,0,0,0,1,0,0V5.4A5.4,5.4,0,0,1,5.4,0Z" fill="#e1e1e1"/>
          <g id="Grupo_109752" data-name="Grupo 109752" transform="translate(4.544 3.894)">
            <circle id="Elipse_4881" data-name="Elipse 4881" cx="1.361" cy="1.361" r="1.361" transform="translate(0 0.001)" fill="#fff"/>
            <path id="Trazado_116236" data-name="Trazado 116236" d="M7189.912,4194.906a1.361,1.361,0,1,1-1.361-1.362A1.361,1.361,0,0,1,7189.912,4194.906Z" transform="translate(-7183.001 -4193.544)" fill="#fff"/>
            <path id="Trazado_116237" data-name="Trazado 116237" d="M7193.348,4194.906a1.362,1.362,0,1,1-1.361-1.362A1.361,1.361,0,0,1,7193.348,4194.906Z" transform="translate(-7182.248 -4193.544)" fill="#fff"/>
          </g>
        </g>
        <path id="Trazado_116238" data-name="Trazado 116238" d="M7199.963,4257.175l9.659,10.442,8.769-10.442Z" transform="translate(-7175.491 -4175.539)" fill="#fff"/>
        <g id="Grupo_109754" data-name="Grupo 109754">
          <path id="Trazado_116239" data-name="Trazado 116239" d="M7291.235,4272.985a3.658,3.658,0,0,0,1-.187,3.1,3.1,0,0,0,1.953-2.1,3.41,3.41,0,0,0,.109-1.031l0-1.166q0-1.223-.007-2.674c-.006-1.932-.011-4.162-.015-6.67-.014-10.044-.031-24.568-.053-42.516q-.006-6.732-.011-14.089,0-3.674-.006-7.494c-.008-.63.018-1.291-.019-1.9a2.973,2.973,0,0,0-2.337-2.579,13.3,13.3,0,0,0-1.937-.064l-33.7.016-37.235.01-19.7,0h-15.161c-.418.007-.868-.015-1.26.016a2.9,2.9,0,0,0-1.146.365,2.953,2.953,0,0,0-1.413,1.887,8.9,8.9,0,0,0-.079,1.746v12.417q0,7.038,0,13.932c0,9.188,0,18.169,0,26.894q0,6.541,0,12.885,0,3.171,0,6.287c0,1.034-.009,2.083.009,3.093a2.939,2.939,0,0,0,2.864,2.765l1.514,0h3.017l5.941,0,11.5.005h.06l.042.042q4.557,4.8,8.846,9.313l-.2.006q4.068-4.839,7.822-9.3l.038-.045h.058l50.8.055,13.866.034,3.612.018c.814.005,1.231.019,1.231.019s-.417.012-1.231.019l-3.612.018-13.866.033-50.8.055.1-.044-7.811,9.313-.1.113-.1-.107-8.856-9.3.1.044-11.5,0-5.941,0H7184.6l-1.522,0a3.242,3.242,0,0,1-3.158-3.048c-.021-1.047-.007-2.069-.012-3.112q0-3.116,0-6.287,0-6.341,0-12.885c0-8.725,0-17.705,0-26.894q0-6.891,0-13.932,0-3.518,0-7.071v-6.24a3.85,3.85,0,0,1,.087-.926,3.287,3.287,0,0,1,1.573-2.1,3.231,3.231,0,0,1,1.273-.407c.459-.033.861-.008,1.294-.016h15.161l19.7,0,37.235.01,33.7.016a13.2,13.2,0,0,1,1.993.071,3.249,3.249,0,0,1,2.547,2.816c.038.67.01,1.29.019,1.932q0,3.818,0,7.494-.006,7.348-.012,14.089c-.021,17.947-.04,32.472-.052,42.516-.006,2.509-.011,4.738-.017,6.67q0,1.452-.007,2.674l0,1.166a3.385,3.385,0,0,1-.121,1.048,3.081,3.081,0,0,1-.916,1.475,3.032,3.032,0,0,1-1.089.635,3.065,3.065,0,0,1-.752.15C7291.322,4272.986,7291.235,4272.985,7291.235,4272.985Z" transform="translate(-7179.891 -4190.213)" fill="#1a2e35"/>
        </g>
      </g>
      <g id="Grupo_109757" data-name="Grupo 109757" transform="translate(7211.743 4311.974)">
        <rect id="Rectángulo_40999" data-name="Rectángulo 40999" width="59.056" height="26.774" rx="7.599" transform="translate(3.293 2.647) rotate(7.065)" fill="#a5abeb" opacity="0.5" style="mix-blend-mode: multiply;isolation: isolate"/>
        <rect id="Rectángulo_41000" data-name="Rectángulo 41000" width="59.056" height="26.774" rx="8.314" transform="translate(7.933 0) rotate(7.065)" fill="#fff"/>
        <g id="Grupo_109756" data-name="Grupo 109756" transform="translate(7.288 0.575)">
          <path id="Trazado_116240" data-name="Trazado 116240" d="M7251.685,4298.921a4.987,4.987,0,0,0-4.337-5.562l-48.708-6.038a4.988,4.988,0,0,0-5.562,4.337l-.032.249,58.608,7.264Z" transform="translate(-7193.045 -4287.282)" fill="#a5abeb"/>
        </g>
      </g>
      <g id="Grupo_109759" data-name="Grupo 109759" transform="translate(7223.586 4289.425)">
        <rect id="Rectángulo_41001" data-name="Rectángulo 41001" width="33.43" height="15.156" rx="6.216" transform="translate(1.864 1.499) rotate(7.065)" fill="#a5abeb" opacity="0.5" style="mix-blend-mode: multiply;isolation: isolate"/>
        <rect id="Rectángulo_41002" data-name="Rectángulo 41002" width="33.43" height="15.156" rx="6.216" transform="translate(4.491) rotate(7.065)" fill="#fff"/>
        <g id="Grupo_109758" data-name="Grupo 109758" transform="translate(4.127 0.326)">
          <path id="Trazado_116241" data-name="Trazado 116241" d="M7233.359,4275.17a2.824,2.824,0,0,0-2.456-3.149l-27.57-3.417a2.824,2.824,0,0,0-3.149,2.454l-.018.142,33.176,4.111Z" transform="translate(-7200.166 -4268.582)" fill="#a5abeb"/>
        </g>
      </g>
      <g id="Grupo_109761" data-name="Grupo 109761" transform="translate(7261.124 4296.257)">
        <rect id="Rectángulo_41003" data-name="Rectángulo 41003" width="33.43" height="15.156" rx="6.216" transform="translate(1.864 1.499) rotate(7.065)" fill="#a5abeb" opacity="0.5" style="mix-blend-mode: multiply;isolation: isolate"/>
        <rect id="Rectángulo_41004" data-name="Rectángulo 41004" width="33.43" height="15.156" rx="6.216" transform="translate(4.491 0) rotate(7.065)" fill="#fff"/>
        <g id="Grupo_109760" data-name="Grupo 109760" transform="translate(4.126 0.326)">
          <path id="Trazado_116242" data-name="Trazado 116242" d="M7264.15,4280.774a2.823,2.823,0,0,0-2.455-3.149l-27.57-3.417a2.823,2.823,0,0,0-3.15,2.454l-.018.142,33.176,4.111Z" transform="translate(-7230.957 -4274.186)" fill="#a5abeb"/>
        </g>
      </g>
    </g>
  </g>
</svg>
