<svg xmlns="http://www.w3.org/2000/svg" xmlns:xlink="http://www.w3.org/1999/xlink" width="394.182" height="381.205" viewBox="0 0 394.182 381.205">
  <defs>
    <linearGradient id="linear-gradient" x1="-44.878" y1="7.083" x2="-44.836" y2="7.083" gradientUnits="objectBoundingBox">
      <stop offset="0" stop-color="#9e8cef"/>
      <stop offset="1" stop-color="#caafee"/>
    </linearGradient>
    <linearGradient id="linear-gradient-2" x1="-44.088" y1="7.083" x2="-44.046" y2="7.083" xlink:href="#linear-gradient"/>
    <linearGradient id="linear-gradient-3" x1="-28.078" y1="17.942" x2="-28.078" y2="17.97" gradientUnits="objectBoundingBox">
      <stop offset="0" stop-color="#d5cdf8"/>
      <stop offset="1" stop-color="#f3edfb"/>
    </linearGradient>
    <linearGradient id="linear-gradient-4" x1="-28.012" y1="17.992" x2="-27.985" y2="17.992" gradientUnits="objectBoundingBox">
      <stop offset="0" stop-color="#ccf"/>
      <stop offset="1" stop-color="#755cbb"/>
    </linearGradient>
    <linearGradient id="linear-gradient-5" x1="-24.97" y1="7.162" x2="-24.947" y2="7.162" xlink:href="#linear-gradient-4"/>
    <linearGradient id="linear-gradient-6" x1="-16.546" y1="9.456" x2="-16.528" y2="9.456" gradientUnits="objectBoundingBox">
      <stop offset="0" stop-color="#a999f1"/>
      <stop offset="1" stop-color="#dac7f3"/>
    </linearGradient>
    <linearGradient id="linear-gradient-7" x1="-62.737" y1="28.851" x2="-62.737" y2="28.896" gradientUnits="objectBoundingBox">
      <stop offset="0.016" stop-color="#ffc2a9"/>
      <stop offset="1" stop-color="#ff9595"/>
    </linearGradient>
    <linearGradient id="linear-gradient-8" x1="-67.932" y1="17.89" x2="-67.932" y2="17.917" gradientUnits="objectBoundingBox">
      <stop offset="0" stop-color="#ffeadb"/>
      <stop offset="0.994" stop-color="#c27cb6"/>
    </linearGradient>
    <linearGradient id="linear-gradient-9" x1="-33.464" y1="11.533" x2="-33.464" y2="11.55" xlink:href="#linear-gradient-7"/>
    <linearGradient id="linear-gradient-10" x1="-63.607" y1="34.537" x2="-63.55" y2="34.537" gradientUnits="objectBoundingBox">
      <stop offset="0.016" stop-color="#d1a1d6"/>
      <stop offset="0.994" stop-color="#bd89c4"/>
    </linearGradient>
    <linearGradient id="linear-gradient-11" x1="-15.423" y1="8.428" x2="-15.423" y2="8.441" xlink:href="#linear-gradient-7"/>
    <linearGradient id="linear-gradient-12" x1="-24.985" y1="16.556" x2="-24.985" y2="16.583" xlink:href="#linear-gradient-8"/>
    <linearGradient id="linear-gradient-13" x1="-50.492" y1="36.261" x2="-50.492" y2="36.32" gradientUnits="objectBoundingBox">
      <stop offset="0" stop-color="#ffb0b0"/>
      <stop offset="0.984" stop-color="#ffc2a9"/>
    </linearGradient>
    <linearGradient id="linear-gradient-14" x1="-103.143" y1="64.446" x2="-103.143" y2="64.554" xlink:href="#linear-gradient-13"/>
    <linearGradient id="linear-gradient-15" x1="-52.568" y1="32.676" x2="-52.51" y2="32.676" xlink:href="#linear-gradient-10"/>
    <linearGradient id="linear-gradient-16" x1="-36.853" y1="45.944" x2="-36.816" y2="45.944" gradientUnits="objectBoundingBox">
      <stop offset="0" stop-color="#ccedff"/>
      <stop offset="1" stop-color="#755cbb"/>
    </linearGradient>
    <linearGradient id="linear-gradient-17" x1="-25.528" y1="29.805" x2="-25.502" y2="29.805" xlink:href="#linear-gradient-16"/>
    <linearGradient id="linear-gradient-18" x1="-23.798" y1="32.099" x2="-23.774" y2="32.099" xlink:href="#linear-gradient-16"/>
    <linearGradient id="linear-gradient-19" x1="-19.069" y1="12.272" x2="-19.069" y2="12.293" xlink:href="#linear-gradient-16"/>
    <linearGradient id="linear-gradient-20" x1="-43.755" y1="15.739" x2="-43.755" y2="15.767" xlink:href="#linear-gradient-16"/>
    <linearGradient id="linear-gradient-21" x1="-51.32" y1="22.165" x2="-51.32" y2="22.201" xlink:href="#linear-gradient-16"/>
    <linearGradient id="linear-gradient-22" x1="-130.369" y1="11.621" x2="-130.369" y2="11.641" xlink:href="#linear-gradient-4"/>
    <linearGradient id="linear-gradient-23" x1="-97.116" y1="21.663" x2="-97.116" y2="21.701" xlink:href="#linear-gradient-4"/>
    <linearGradient id="linear-gradient-24" x1="-47.543" y1="28.025" x2="-47.543" y2="28.075" xlink:href="#linear-gradient-4"/>
    <linearGradient id="linear-gradient-25" x1="-81.58" y1="14.494" x2="-81.58" y2="14.518" xlink:href="#linear-gradient-4"/>
    <linearGradient id="linear-gradient-26" x1="-46.225" y1="19.868" x2="-46.225" y2="19.9" xlink:href="#linear-gradient-16"/>
    <linearGradient id="linear-gradient-27" x1="-32.168" y1="14.791" x2="-32.168" y2="14.814" xlink:href="#linear-gradient-16"/>
    <linearGradient id="linear-gradient-28" x1="-22.175" y1="15.426" x2="-22.154" y2="15.426" xlink:href="#linear-gradient-4"/>
    <linearGradient id="linear-gradient-29" x1="-111.619" y1="21.498" x2="-111.619" y2="21.536" xlink:href="#linear-gradient-4"/>
    <linearGradient id="linear-gradient-30" x1="-33.895" y1="7.43" x2="-33.895" y2="7.442" xlink:href="#linear-gradient-4"/>
    <linearGradient id="linear-gradient-31" x1="-29.238" y1="21.649" x2="-29.238" y2="21.692" xlink:href="#linear-gradient-4"/>
    <linearGradient id="linear-gradient-32" x1="-24.775" y1="43.65" x2="-24.775" y2="43.739" xlink:href="#linear-gradient-4"/>
    <linearGradient id="linear-gradient-33" x1="-19.129" y1="9.22" x2="-19.129" y2="9.232" xlink:href="#linear-gradient-7"/>
    <linearGradient id="linear-gradient-34" x1="-78.963" y1="30.101" x2="-78.963" y2="30.145" xlink:href="#linear-gradient-7"/>
    <linearGradient id="linear-gradient-35" x1="-48.831" y1="106.545" x2="-48.828" y2="106.68" gradientUnits="objectBoundingBox">
      <stop offset="0" stop-color="#e1616a"/>
      <stop offset="1" stop-color="#ff8883"/>
    </linearGradient>
    <linearGradient id="linear-gradient-36" x1="-17.544" y1="7.77" x2="-17.544" y2="7.78" gradientUnits="objectBoundingBox">
      <stop offset="0" stop-color="#2e33a0"/>
      <stop offset="1" stop-color="#0665a5"/>
    </linearGradient>
    <linearGradient id="linear-gradient-37" x1="-119.412" y1="32.897" x2="-119.412" y2="32.943" gradientUnits="objectBoundingBox">
      <stop offset="0" stop-color="#ffeadb"/>
      <stop offset="0.994" stop-color="#8860c7"/>
    </linearGradient>
    <linearGradient id="linear-gradient-38" x1="-46.659" y1="151.384" x2="-46.659" y2="151.631" gradientUnits="objectBoundingBox">
      <stop offset="0" stop-color="#776d7e"/>
      <stop offset="1" stop-color="#9d68c2"/>
    </linearGradient>
    <linearGradient id="linear-gradient-39" x1="-61.147" y1="230.503" x2="-61.147" y2="230.838" gradientUnits="objectBoundingBox">
      <stop offset="0" stop-color="#1f77d1"/>
      <stop offset="1" stop-color="#0686c9"/>
    </linearGradient>
    <linearGradient id="linear-gradient-40" x1="-41.345" y1="80.201" x2="-41.345" y2="80.315" xlink:href="#linear-gradient-39"/>
    <linearGradient id="linear-gradient-41" x1="-197.815" y1="88.084" x2="-197.815" y2="88.21" xlink:href="#linear-gradient-39"/>
    <linearGradient id="linear-gradient-42" x1="-95.659" y1="39.092" x2="-95.746" y2="39.133" gradientUnits="objectBoundingBox">
      <stop offset="0" stop-color="#ffeadb"/>
      <stop offset="0.994" stop-color="#b060f4"/>
    </linearGradient>
    <linearGradient id="linear-gradient-43" x1="-192.216" y1="62.991" x2="-192.401" y2="63.046" xlink:href="#linear-gradient-42"/>
    <linearGradient id="linear-gradient-44" x1="-58.254" y1="219.731" x2="-58.196" y2="219.731" xlink:href="#linear-gradient-39"/>
    <linearGradient id="linear-gradient-45" x1="-177.923" y1="67.328" x2="-177.732" y2="67.328" xlink:href="#linear-gradient-39"/>
    <linearGradient id="linear-gradient-46" x1="-167.572" y1="174.879" x2="-167.395" y2="174.879" xlink:href="#linear-gradient-39"/>
    <linearGradient id="linear-gradient-47" x1="-4.561" y1="50.773" x2="-4.555" y2="50.773" gradientUnits="objectBoundingBox">
      <stop offset="0" stop-color="#9d68c2"/>
      <stop offset="1" stop-color="#aec2ff"/>
    </linearGradient>
    <linearGradient id="linear-gradient-48" x1="-17.012" y1="11.808" x2="-17.012" y2="11.827" gradientUnits="objectBoundingBox">
      <stop offset="0" stop-color="#ccedff"/>
      <stop offset="1" stop-color="#9d68c2"/>
    </linearGradient>
    <linearGradient id="linear-gradient-49" x1="-36.593" y1="26.934" x2="-36.593" y2="26.976" xlink:href="#linear-gradient-48"/>
    <linearGradient id="linear-gradient-50" x1="-35.413" y1="26.934" x2="-35.413" y2="26.976" xlink:href="#linear-gradient-48"/>
    <linearGradient id="linear-gradient-51" x1="-37.792" y1="26.934" x2="-37.792" y2="26.976" xlink:href="#linear-gradient-48"/>
  </defs>
  <g id="Group_108299" data-name="Group 108299" transform="translate(-152.334 -4.441)">
    <circle id="Ellipse_4711" data-name="Ellipse 4711" cx="178.742" cy="178.742" r="178.742" transform="translate(178.709 4.441)" fill="#0f2771"/>
    <g id="Group_108299-2" data-name="Group 108299">
      <path id="Trazado_113615" data-name="Trazado 113615" d="M496.861,49.327V72.95l-28.256.241-.381-24.622Z" fill="#4dd0e1"/>
      <path id="Trazado_113616" data-name="Trazado 113616" d="M468.224,48.569l-1.844,3.1.922,21.5,1.3.022Z" fill="#e0f3ff"/>
      <path id="Trazado_113617" data-name="Trazado 113617" d="M491.815,57.3l-2.61-3.788L475.1,65.354l2.164,2.887Z" fill="#fff"/>
      <path id="Trazado_113618" data-name="Trazado 113618" d="M474.732,57.3l2.61-3.788,14.11,11.842-2.164,2.887Z" fill="#fff"/>
    </g>
    <g id="Group_108300" data-name="Group 108300">
      <g id="Grupo_108301" data-name="Grupo 108301">
        <path id="Trazado_113525" data-name="Trazado 113525" d="M333.979,357.2h47c4.92-27.32,16.36-62.87,16.36-62.87,2.78-1.65,8.21.38,8.21.38l17.18,62.49h42.94c2.28-38.56-18.82-82.33-18.82-82.33l.01-.01a4.726,4.726,0,0,0,.56-2.39,5.681,5.681,0,0,0-1.6-1.86c-1.16-1.06-2.54-2.12-2.54-2.12l-80.11-.5s-.81.41-1.84,1.03h-.01c-1.75,1.06-4.12,2.7-4.12,3.9a5.468,5.468,0,0,0,.81,2.96l.04.05C340.874,308.351,333.979,357.2,333.979,357.2Z" fill="#0f2771"/>
        <g id="Grupo_108299" data-name="Grupo 108299">
          <path id="Trazado_113526" data-name="Trazado 113526" d="M428.29,357.246l.493-.084c-5.465-32.2-19.338-59.2-19.477-59.474l-.057-.073-3.534-3.09-.329.377,3.5,3.058C409.507,299.184,422.938,325.717,428.29,357.246Z" fill="url(#linear-gradient)"/>
        </g>
        <g id="Grupo_108300" data-name="Grupo 108300">
          <path id="Trazado_113527" data-name="Trazado 113527" d="M374.6,357.246c5.357-31.552,19.159-58.347,19.779-59.538l3.128-2.808-.334-.373-3.215,2.908c-.144.272-14.385,27.527-19.85,59.727Z" fill="url(#linear-gradient-2)"/>
        </g>
        <path id="Trazado_113528" data-name="Trazado 113528" d="M397.34,294.334l-9.351-6.067,2.221,6.067,1.628,18.265Z" fill="#0f2771"/>
        <path id="Trazado_113529" data-name="Trazado 113529" d="M405.55,294.714l9.74-5.51,20.854-9.391-26.555,17.549-1.582,6.29Z" fill="#0f2771"/>
      </g>
      <path id="Trazado_113530" data-name="Trazado 113530" d="M378.75,106.854c-.06.43-.11.66-.11.66a57.392,57.392,0,0,0,1.66,5.66,45.979,45.979,0,0,0,6.23,12.12,23.838,23.838,0,0,0,2.72,3.18c14.59-4.58,21.78-18.85,24.54-25.95a.354.354,0,0,0,.04-.11c.53-1.34.88-2.42,1.1-3.12v-.01c.17-.56.25-.87.25-.87-.06-.12-.12-.25-.18-.37l-.03-.05c-.24-.5-.48-1.01-.7-1.5a71.175,71.175,0,0,1-4-11.17c-.71-2.62-1.09-4.64-1.27-5.71-.09-.55-.13-.85-.13-.85l-6.8,3.59-23.43,12.4a38.5,38.5,0,0,1,.5,5.94c.02,1.25-.02,2.37-.09,3.32-.07,1.16-.19,2.08-.28,2.68v.01A.693.693,0,0,1,378.75,106.854Z" fill="#ecbc96"/>
      <path id="Trazado_113531" data-name="Trazado 113531" d="M385.25,130.044a20.1,20.1,0,0,0,4.84,3.54.8.8,0,0,0,.12.07s.05-.03.14-.08l.01-.01c.51-.31,2.25-1.38,4.59-3.14,6.12-4.61,16.34-13.93,19.26-26.49.01-.02.01-.03.02-.05a31.217,31.217,0,0,0,.7-4.59v-.01c.03-.41.06-.82.07-1.24a64.391,64.391,0,0,1-5.55,9.92c-4.14,6.06-10.35,12.67-17.77,12.71-6.42.04-9.71-4.35-11.38-8.4a22.968,22.968,0,0,1-1.35-4.6.03.03,0,0,1-.01-.02c-.07-.36-.12-.68-.17-.95v-.01c-.02-.14-.04-.26-.05-.37-.06-.45-.08-.71-.08-.71S376.18,120.974,385.25,130.044Z" fill="url(#linear-gradient-3)"/>
      <path id="Trazado_113532" data-name="Trazado 113532" d="M385.25,130.044a20.1,20.1,0,0,0,4.84,3.54h.12l.14-.01.01-.01c.51-.31,2.25-1.38,4.59-3.14,6.12-4.61,16.34-13.93,19.26-26.49.01-.02.01-.03.02-.05a31.217,31.217,0,0,0,.7-4.59v-.01c.03-.41.06-.82.07-1.24a64.391,64.391,0,0,1-5.55,9.92s-4.04,11.1-12.78,16.6c-4.38,2.75-7.7,2.35-10.14.73a15.088,15.088,0,0,1-4.95-6.54,15.391,15.391,0,0,1-1.28-5.58q-.015-.5,0-.9a22.9,22.9,0,0,1-1.35-4.6.03.03,0,0,1-.01-.02c-.07-.36-.12-.68-.17-.95v-.01c-.02-.14-.04-.26-.05-.37-.06-.45-.08-.71-.08-.71S376.18,120.974,385.25,130.044Z" opacity="0.5" fill="url(#linear-gradient-4)" style="isolation: isolate"/>
      <path id="Trazado_113533" data-name="Trazado 113533" d="M329.09,221.637c.055.024.108.051.16.08.82.1,3.37-.46,6.71-3.35l.01-.01q0-.015.03-.03c.01-.01.02-.03.04-.04,2.8-2.45,6.16-6.54,9.51-13.24,6.7-13.39,8.62-22.33,8.93-23.89l.04-.24,3.91,6.2c2.65,7.97,7.67,40.95,7.58,42.37s-4.45,8.34-4.36,9.19a.03.03,0,0,0,.01.02c.12.86,2.08,2.75,2.64,4.81.38,1.37-2.28,5.69-4.15,8.92v.01a13.153,13.153,0,0,0-1.72,3.58c0,1.51,4.74,8.9,4.74,8.9v3.98l.07.07.22.2.18.15c1.8,1.42,9.43,6.07,33.27,7.35,28.25,1.51,47.07-7.58,47.07-7.58l-1.42-3.89s1.32-1.13,1.42-1.7-1.04-1.9-1.04-1.9,2.84-1.51,2.84-3.41-5.69-7.76-5.5-12.79,4.55-9.47,5.12-12.31-7.39-9.85-7.39-9.85c6.82-21.6,8.15-50.59,8.15-50.59l1.32-1.52s8.15,18.57,15.54,27.66c.88,1.08,1.81,2.15,2.77,3.18a81.145,81.145,0,0,0,6.36,6.15c5.12,4.46,9.77,7.39,10.95,7.16,1.9-.38,9.48-15.35,9.13-30.7-.16-7.3-4.56-15.47-9.13-22.02-.49-.7-.98-1.39-1.48-2.06a104.931,104.931,0,0,0-7.84-9.45c-.58-.62-.91-.95-.91-.95s1.04-3.35,1.75-6.26a1.681,1.681,0,0,1,.05-.21.377.377,0,0,1,.02-.1.331.331,0,0,1,.02-.07c.42-1.79.68-3.34.44-3.72-.63-1.01-4.3-2.15-4.93-2.9s-3.28-13.52-5.3-14.91c-1.94-1.33-5.35-2.3-16.72-6.77-.56-.22-1.13-.44-1.73-.68-12.75-5.05-25.26-11.18-25.26-11.18l-4.8-5.9h-2.14l.7,1.5.03.05c-.34,1.52-.73,2.98-1.17,4.37a.354.354,0,0,1-.04.11c-6.6,20.82-23.58,27.53-23.58,27.53-11.8-8.71-11.57-22.54-11.57-22.54v-1.9l-2.21.66-1.51,3.6s-2.56,3.98-12.7,8.44a60.2,60.2,0,0,0-5.57,2.85c-9.28,5.27-19.6,13.42-20.39,15.15a5.609,5.609,0,0,0-.27.86v.01c-1.09,4.28-3.33,20.31-5.41,26.03a13.1,13.1,0,0,1-4.86,6.56c-.01.01-.01.01-.02.01a7.641,7.641,0,0,1-1.94,1.01q-.24,1.32-.45,2.61C318.96,201.727,327.232,220.337,329.09,221.637Z" fill="#e0f3ff"/>
      <path id="Trazado_113534" data-name="Trazado 113534" d="M437.92,169.877l8.24,2.77,1.32-1.52s8.15,18.57,15.54,27.66c.88,1.08,1.81,2.15,2.77,3.18a81.145,81.145,0,0,0,6.36,6.15l6.28-27.07,3.19-20.55a104.931,104.931,0,0,0-7.84-9.45c-.58-.62-.91-.95-.91-.95s1.04-3.35,1.75-6.26a1.681,1.681,0,0,1,.05-.21.377.377,0,0,1,.02-.1.331.331,0,0,1,.02-.07c.42-1.79.68-3.34.44-3.72-.63-1.01-4.3-2.15-4.93-2.9s-3.28-13.52-5.3-14.91c0,0,1.32,12.25-5.69,27.79l-3.41,4.8-9.98,8.02S442.05,167.567,437.92,169.877Z" opacity="0.5" fill="url(#linear-gradient-5)" style="isolation: isolate"/>
      <path id="Trazado_113535" data-name="Trazado 113535" d="M461.76,192.037c1.77,13.13,21.34,23.24,21.34,23.24,4.36,0,9.23-7.58,13.65-16.93s4.69-36.21,4.92-37.87,2.7-4.98,2.85-6.4-3.98-4.36-3.98-4.36l.03-.07.03-.07c.43-.92,2.85-6.11,2.68-7.06-.19-1.04-4.82-3.31-4.82-3.31l-.29,5.11s-10.78-2.04-14.43-10.39l-.64-2.56-1.8,1.2v10.99s-.37,1.71-.94,1.71-4.77-2.1-5.65-1.81-1.76,6.17-2.94,6.92-4.3,2.94-4.77,3.98a19.1,19.1,0,0,0-.25,4.15,42.393,42.393,0,0,1-.41,6.94C465.67,168.377,459.99,178.9,461.76,192.037Z" fill="#e0f3ff"/>
      <path id="Trazado_113536" data-name="Trazado 113536" d="M282.77,179.884c.88,1.39,5.3,4.3,6.44,5.44s0,4.87,0,4.87a153.334,153.334,0,0,0,39.88,30.54c.055.024.108.051.16.08,11.66-7.84,10.66-20.75,6.79-31.63a82.118,82.118,0,0,0-10.32-19.38l-.01-.01-.01-.01a24.381,24.381,0,0,0-5.92-1.64,3.6,3.6,0,0,0-2.19.68c-1.42.88-2.62,2.27-3.78,1.69-1.71-.86-5.53-9.89-8.12-10.14-1.81-.17-4.32,1.67-5.99,2.72-.73.46-1.3.77-1.58.69-.95-.25-4.17-4.11-4.43-4.21s-1.72.97-1.72.97l1.03,1.28a34.977,34.977,0,0,1-6.76,15.22l-3.47-5.08S281.88,178.494,282.77,179.884Z" fill="url(#linear-gradient-6)"/>
      <g id="Grupo_108302" data-name="Grupo 108302">
        <path id="Trazado_113537" data-name="Trazado 113537" d="M478.432,101.572s1.831-10.1,1.01-17.557a80.7,80.7,0,0,1,.212-15.916,4.058,4.058,0,0,1,3.135,0c1.327.758,4.421,8.463,3.032,14.652s-.316,21.032-.316,21.032h2.084l4.548-6.253,2.21-.631s12.727,12,12.537,19.137l-1.663,6.347-15.674-.537-10.231-11.684Z" fill="#ffcaa1"/>
        <path id="Trazado_113538" data-name="Trazado 113538" d="M494.347,96.9a81.431,81.431,0,0,1-2.115,14.779,3.537,3.537,0,0,0,3.567,2.984l.8-.9s.569,3.174,3.458,3.41l2.747-2.747-.71,2.274a3.891,3.891,0,0,0,3.6,2.321s4.358-3.411,4.642-7.863l-4.308-3.648v-2.794l-5.118-3.6-.1-2.037A12.02,12.02,0,0,0,494.347,96.9Z" fill="url(#linear-gradient-7)"/>
        <path id="Trazado_113539" data-name="Trazado 113539" d="M479.259,81.876a7.138,7.138,0,0,0,1.857,2.707,16.023,16.023,0,0,0,4.246,1.338l.143,17.862h2.084l4.548-6.253s-2.3,3.569-2.448,6.253l1.8.884,1.564-5.352.74,3.852-.736,4.793a12.582,12.582,0,0,0-7.576-2.415l-.734,1.333s8.827,7.31,10.863,11.621c0,0-4.357-5.542-14.3-11.653l-.947-2.937L479.105,96.9S480.292,86.794,479.259,81.876Z" opacity="0.6" fill="url(#linear-gradient-8)" style="isolation: isolate"/>
        <path id="Trazado_113540" data-name="Trazado 113540" d="M471.86,113c.82,2.46,9.41,12.69,10.36,14.91a30.032,30.032,0,0,1,1.52,5.11c4.22,9.13,14.43,10.39,14.43,10.39l.47-8.24s5.49-3.16,6.42-4.89l.01-.03.11-.29a68.694,68.694,0,0,0,.04-7.58l-9.61-3.89c-4.17-5.4-14.31-11.65-14.31-11.65l-.47-2.83c7.28-3.58,6.06-14.41,4.83-15.74a5.4,5.4,0,0,0-3.5-1.32s-2.66,8.71-4.36,12.79S471.04,110.544,471.86,113Z" fill="url(#linear-gradient-9)"/>
        <path id="Trazado_113541" data-name="Trazado 113541" d="M500.821,99.078s-1.074,9.947-4.216,14.684a23.17,23.17,0,0,0,4.311-12.647Z" fill="#e28183"/>
        <path id="Trazado_113542" data-name="Trazado 113542" d="M506.032,104.715s-1.045,8-5.971,12.457c0,0,4.362-2.178,5.971-9.663Z" fill="#e28183"/>
        <path id="Trazado_113543" data-name="Trazado 113543" d="M480.888,125.793s10.835,10.519,17.752,9.381l-.47,8.24a18.281,18.281,0,0,1-15.065-12.954A30.945,30.945,0,0,0,480.888,125.793Z" opacity="0.91" fill="url(#linear-gradient-10)" style="isolation: isolate"/>
      </g>
      <g id="Grupo_108303" data-name="Grupo 108303">
        <path id="Trazado_113544" data-name="Trazado 113544" d="M251.85,140.094s9.95,18.19,21.6,23.78h3.98l9.19,13.93s5.94-3.73,6.38-15.98a11.18,11.18,0,0,1-2.59-4.62s3.28-2.58,4.17-4.47,1.2-7.58,1.83-9.92,6-7.2,7.2-7.83,6.63-.95,6.63-.95.76-1.96,0-2.9-9.22-4.24-13.83-1.08a20.758,20.758,0,0,1-.82,3.67c-.51,1.26-4.55,5.74-5.18,5.74s-3.35-2.27-4.55-4.04a178.676,178.676,0,0,1-8.74-19.32.489.489,0,0,0-.04-.13c-.02-.07-.05-.14-.06-.2a.974.974,0,0,1-.04-.13c-.01-.02-.02-.03-.02-.05-1.14-3.85-7.77-11.24-11.31-13.26a2.085,2.085,0,0,0-2.33,1.51s2.84,8.09,5.81,12.89c.5.81,1.04,1.76,1.6,2.78h.01c2.53,4.65,5.38,10.74,5.79,11.63l.05.11-1.58.81-4.27-4.05-4.38-4.15-10.05,10.61.99,1.26,3.14,4.03-1.59.29-3.7-4.09Z" fill="url(#linear-gradient-11)"/>
        <path id="Trazado_113545" data-name="Trazado 113545" d="M254.179,143.961l3.179,4.672s17.452-13.459,21.242-14.6,5.18-.38,5.18-.38l3.91,4.99s-7.2,6.38-7.83,14.97c0,0,2.4-10.86,10.55-14.15-.63,0-3.35-2.27-4.55-4.04a178.676,178.676,0,0,1-8.74-19.32,4.96,4.96,0,0,1-.16,3.41c-.86,1.59-5.92.09-6.22,0h-.01l5.8,11.63.05.11-1.58.81-4.27-4.05,2.14,4.97-15.58,2.75,3.14,4.03-1.59.29Z" opacity="0.6" fill="url(#linear-gradient-12)" style="isolation: isolate"/>
        <path id="Trazado_113546" data-name="Trazado 113546" d="M266.347,123.867s-3.031-.442-4.989,3.474l.442,1.263s-2.955.579-5.811,5.368a16.194,16.194,0,0,0,8.779,6.7s2.906-.821,3.411-3.284l-.569-1.579,2.274,1.7s2.716.821,3.916-3.221Z" fill="url(#linear-gradient-13)"/>
        <path id="Trazado_113547" data-name="Trazado 113547" d="M250.937,138.836a4.685,4.685,0,0,1,2.463-4.8l6,6.631a3.1,3.1,0,0,1-2.779,2.59S252.516,141.867,250.937,138.836Z" fill="url(#linear-gradient-14)"/>
        <path id="Trazado_113548" data-name="Trazado 113548" d="M294.58,152.734a44.506,44.506,0,0,1-17.15,11.14l4.4,6.662L291,158.889l-.588-1.685S294.077,154.446,294.58,152.734Z" opacity="0.91" fill="url(#linear-gradient-15)" style="isolation: isolate"/>
        <path id="Trazado_113549" data-name="Trazado 113549" d="M261.8,128.6s2.9,4.8,5.81,7.2l.569,1.579s-5.639-3.806-7.715-8.2A3.606,3.606,0,0,1,261.8,128.6Z" fill="#e28183"/>
      </g>
      <path id="Trazado_113550" data-name="Trazado 113550" d="M282.77,179.884c.88,1.39,5.3,4.3,6.44,5.44s0,4.87,0,4.87a153.334,153.334,0,0,0,39.88,30.54c.055.024.108.051.16.08,1.52.19,8.91-1.89,16.3-16.67,6.7-13.39,8.62-22.33,8.93-23.89l.04-.24-1.63-2.21-2.42-27.28-1.7,5.49c-6.44-7.77-12.51-19.7-12.51-19.7l-.27.86v.01c-1.09,4.28-3.33,20.31-5.41,26.03a13.1,13.1,0,0,1-4.86,6.56l-.01.02.01.01c5.93,5.41,8.87,13.19,10.32,19.38a53.7,53.7,0,0,1,1.42,10.03,67.405,67.405,0,0,0-6.82-16.96,36.5,36.5,0,0,0-7.33-8.85,58.825,58.825,0,0,0-5.72-4.58c-1.42.88-2.62,2.27-3.78,1.69,7.8,11.71,7.61,34.89.28,30.47s-8.995-13.8-8.995-13.8c1.73-11.43,1.213-24.322-.177-26.772-1.686.056-6.518,3.453-6.8,3.373a39.6,39.6,0,0,1-5.88,22.43l-4.17-6.45a40.008,40.008,0,0,0,5.62-20.19c-.25-.11-1.72.97-1.72.97l1.03,1.28a34.978,34.978,0,0,1-6.76,15.22l-3.47-5.08S281.88,178.494,282.77,179.884Z" fill="#e0f3ff"/>
      <path id="Trazado_113551" data-name="Trazado 113551" d="M379.9,174.078s-16.267.884-27.018,3.726l5.545,8.409A73.75,73.75,0,0,1,379.9,174.078Z" opacity="0.5" fill="url(#linear-gradient-16)" style="isolation: isolate"/>
      <path id="Trazado_113552" data-name="Trazado 113552" d="M364.7,218.917s10.149,8.466,20.128,12.382a67.346,67.346,0,0,0,19.578,4.295s-5.737,1.705-19.853-.569-18.945-9.919-18.945-9.919Z" opacity="0.5" fill="url(#linear-gradient-17)" style="isolation: isolate"/>
      <path id="Trazado_113553" data-name="Trazado 113553" d="M360.15,251.524v.01c18.78,4.85,42.62-2.11,42.42-2.96s-6.53.38-21.21-2.56c-14.23-2.85-19.39-7.91-19.7-8.22.12.86,2.08,2.75,2.64,4.81C364.68,243.974,362.02,248.294,360.15,251.524Z" opacity="0.5" fill="url(#linear-gradient-18)" style="isolation: isolate"/>
      <path id="Trazado_113554" data-name="Trazado 113554" d="M411.16,176.624c16.04,1.63,20.36,6.1,20.36,6.1,4.51.57,14.64-10.98,14.64-10.98l1.32-1.52s8.15,18.57,15.54,27.66c.88,1.08,1.81,2.15,2.77,3.18l-1.05-2.36s-1.72-.82-2.22-9.85,3.79-22.48,3.82-24.31.66-11.09.66-11.09l-13.71,8.18,2.53-8.02-9.98,8.02s-3.91,5.88-13.78,10.78C422.75,177.044,412.31,176.674,411.16,176.624Z" opacity="0.5" fill="url(#linear-gradient-19)" style="isolation: isolate"/>
      <path id="Trazado_113555" data-name="Trazado 113555" d="M447.48,170.224l-9.555-1.248a71.8,71.8,0,0,1-11.488,5.651l6.393,9.427s-2.536,13.439-9.815,21.012c0,0,19.32-10.731,22.037-19.755Z" opacity="0.5" fill="url(#linear-gradient-20)" style="isolation: isolate"/>
      <path id="Trazado_113556" data-name="Trazado 113556" d="M503.27,141.624l-2.73,7.19s-2.784,9.7-8.31,10.11-10.93-16.27-10.93-16.27v-10.99s5.879,12.6,12.226,14.024S503.27,141.624,503.27,141.624Z" opacity="0.5" fill="url(#linear-gradient-21)" style="isolation: isolate"/>
      <path id="Trazado_113557" data-name="Trazado 113557" d="M350.47,150.524l-1.7,5.49-1.724,45.05a108.622,108.622,0,0,0,7.434-20.81l-1.593-2.45S350.215,160.823,350.47,150.524Z" opacity="0.76" fill="url(#linear-gradient-22)" style="isolation: isolate"/>
      <path id="Trazado_113558" data-name="Trazado 113558" d="M298.12,163.784s.962,22.131-8.442,24.044l-.468,2.366S301.378,189.743,298.12,163.784Z" opacity="0.5" fill="url(#linear-gradient-23)" style="isolation: isolate"/>
      <path id="Trazado_113559" data-name="Trazado 113559" d="M313.81,170.514s.36.793,3.78-1.69c0,0,11.831,8.379,16.389,20.19,0,0-7.292-10.851-11.172-12.025s-4.817,3.157-4.817,3.157S316.455,174.045,313.81,170.514Z" opacity="0.3" fill="url(#linear-gradient-24)" style="isolation: isolate"/>
      <path id="Trazado_113560" data-name="Trazado 113560" d="M474.71,143.457s-6.258,23.4,10.069,40.977a27.124,27.124,0,0,1-13.008-18.043A38.74,38.74,0,0,1,474.71,143.457Z" opacity="0.5" fill="url(#linear-gradient-25)" style="isolation: isolate"/>
      <path id="Trazado_113561" data-name="Trazado 113561" d="M362.57,123.852s.7,10.563,5.768,18.142,15.1,12.694,15.1,12.694-12.6-4.642-18.379-11.179S362.57,123.852,362.57,123.852Z" opacity="0.5" fill="url(#linear-gradient-26)" style="isolation: isolate"/>
      <path id="Trazado_113562" data-name="Trazado 113562" d="M427.021,107.96a66.815,66.815,0,0,1-2.842,17.833c-2.842,9-27.512,24.727-27.512,24.727s25.428-10.563,30.354-20.06S427.021,107.96,427.021,107.96Z" opacity="0.5" fill="url(#linear-gradient-27)" style="isolation: isolate"/>
      <path id="Trazado_113563" data-name="Trazado 113563" d="M374.92,109.874c.78,9.3,3.61,15.78,6.63,20.15,4.16,6,8.66,8.05,8.66,8.05a51.987,51.987,0,0,0,11.76-7.09,59.961,59.961,0,0,0,19.21-28.5c-6.02,14.54-14.86,23.35-21.56,28.31a43.265,43.265,0,0,1-9.41,5.52v-4.65a30.808,30.808,0,0,0,3.1-1.36c11.8-5.95,18-18.35,20.9-26.37.01-.02.01-.03.02-.05a56.871,56.871,0,0,0,2.18-7.39h-2.14l.7,1.5.03.05c-.34,1.52-.73,2.98-1.17,4.37a.354.354,0,0,1-.04.11c-6.6,20.82-23.58,27.53-23.58,27.53-11.8-8.71-11.57-22.54-11.57-22.54v-1.9l-2.21.66Z" opacity="0.5" fill="url(#linear-gradient-28)" style="isolation: isolate"/>
      <path id="Trazado_113564" data-name="Trazado 113564" d="M304.918,160.411s3.208,10.477.177,26.772c0,0-1.516-20.653-2.653-22.453s-4.322-.946-4.322-.946A74.446,74.446,0,0,1,304.918,160.411Z" opacity="0.3" fill="url(#linear-gradient-29)" style="isolation: isolate"/>
      <path id="Trazado_113565" data-name="Trazado 113565" d="M336.04,217.384c2.8-2.45,6.16-6.54,9.51-13.24,6.7-13.39,8.62-22.33,8.93-23.89l-1.59-2.45-2.13-20.6-1.99-1.19a84.286,84.286,0,0,1-12.51-19.7,5.609,5.609,0,0,0-.27.86v.01c-1.09,4.28-3.33,20.31-5.41,26.03a13.1,13.1,0,0,1-4.86,6.56s12.31,18.26,12.91,31.29C339.16,212.924,336.52,216.784,336.04,217.384Z" opacity="0.5" fill="url(#linear-gradient-30)" style="isolation: isolate"/>
      <path id="Trazado_113566" data-name="Trazado 113566" d="M409.132,255.464s22.19-3.64,31.25-9.48a.01.01,0,0,0,.01-.01h0a6.737,6.737,0,0,1-.11-1.48c.19-5,4.51-9.43,5.11-12.27-.1.27-.75,1.77-3.9,4.47a66.9,66.9,0,0,1-9.52,6.58c-.12.07-.24.14-.35.2-6.4,3.78-11.91,6.34-15.89,8.22a.477.477,0,0,0-.07.03c-3.58,1.68-5.9,2.79-6.52,3.73a.01.01,0,0,0-.01.01Z" opacity="0.5" fill="url(#linear-gradient-31)" style="isolation: isolate"/>
      <path id="Trazado_113567" data-name="Trazado 113567" d="M361.66,237.794c.12.86,2.08,2.75,2.64,4.81,0,0,8.14,8.62,38.27,5.97-.2-.85-6.53.38-21.21-2.56C367.132,243.164,361.97,238.1,361.66,237.794Z" opacity="0.5" fill="url(#linear-gradient-32)" style="isolation: isolate"/>
      <path id="Trazado_113568" data-name="Trazado 113568" d="M371.32,103.594a31.367,31.367,0,0,0,18.89-2.78c9.91-4.8,18.24-18.95,18.75-22.48s-3.79-12.76-3.79-19.96,3.53-19.58-2.4-26.28-33.22-7.7-42.07.89c0,0-2.74,6.88-2.74,10.77a28.358,28.358,0,0,0,.42,3.91c.08.59.19,1.22.29,1.87.79,4.71,1.88,10.46,1.37,12.98a12.645,12.645,0,0,1-.79,2.46v.01c-1.09,2.52-2.71,4.53-3,6.71C355.87,74.544,359.69,94.754,371.32,103.594Z" fill="url(#linear-gradient-33)"/>
      <path id="Trazado_113569" data-name="Trazado 113569" d="M405.244,56.341s2.451-6.147,8.609-6.242c0,0,3.6,1.421,4.168,4.168,0,0-1.326,9.948-2.842,14.59s-7.075,3.97-7.075,3.97A23.561,23.561,0,0,1,405.244,56.341Z" fill="url(#linear-gradient-34)"/>
      <path id="Trazado_113570" data-name="Trazado 113570" d="M381.577,76.6a5.607,5.607,0,0,0-2.935.5c-.884.663-4.105,3.789-8.179,4.642s-6.806-2.616-7.674-2.794-1.821,1.049-1.821,1.049a3.417,3.417,0,0,1,2.5-2.062s.859,3.267,6.763,2.149,8.416-3.742,8.416-3.742l.3-.537A15.619,15.619,0,0,1,381.577,76.6Z" fill="url(#linear-gradient-35)"/>
      <path id="Trazado_113571" data-name="Trazado 113571" d="M390.812,46.768s-.568-3.723-6.854-5.213c-7-1.659-12.686-3.062-12.686-3.062s1.24,4.083,3.573,5.614c0,0,7.406-.269,11.155.583S390.812,46.768,390.812,46.768Z" fill="#38368e"/>
      <path id="Trazado_113572" data-name="Trazado 113572" d="M358.383,41.77s3.554,2.739,5.97,9.276c0,0-2.321-3.031-4.453-2.984a1.218,1.218,0,0,0-1.227,1.475A13.653,13.653,0,0,1,358.383,41.77Z" fill="#38368e"/>
      <path id="Trazado_113575" data-name="Trazado 113575" d="M388.463,57.3s-2.5,3.063-9.474,3.663a10.913,10.913,0,0,1-1.2-5.986S384.2,54.362,388.463,57.3Z" fill="#ffebed"/>
      <path id="Trazado_113576" data-name="Trazado 113576" d="M366.484,60.425v.916s-1.074,2.242-4.926,2.621a10.749,10.749,0,0,1-1.347-5.072S362.663,58.278,366.484,60.425Z" fill="#ffebed"/>
      <path id="Trazado_113577" data-name="Trazado 113577" d="M381,54.814a8.645,8.645,0,0,1,1.61,5.547,26.44,26.44,0,0,1-3.624.6,9.414,9.414,0,0,1-1.2-5.986A9.671,9.671,0,0,1,381,54.814Z" fill="#7f9ec9"/>
      <path id="Trazado_113578" data-name="Trazado 113578" d="M362.832,59s1,1.073,1.193,4.365a7.564,7.564,0,0,1-2.463.6,9.146,9.146,0,0,1-1.347-5.072A4.41,4.41,0,0,1,362.832,59Z" fill="#7f9ec9"/>
      <path id="Trazado_113579" data-name="Trazado 113579" d="M381.577,60.6s.633-4.249-1.8-5.873l-1.991.252a8.563,8.563,0,0,0,1.2,5.986S380.968,60.737,381.577,60.6Z" fill="#38368e"/>
      <path id="Trazado_113580" data-name="Trazado 113580" d="M361.948,58.809a18.248,18.248,0,0,1,1.321,4.83,5.552,5.552,0,0,1-1.711.323,8.293,8.293,0,0,1-1.347-5.072A4.091,4.091,0,0,1,361.948,58.809Z" fill="#38368e"/>
      <path id="Trazado_113581" data-name="Trazado 113581" d="M388.463,57.3s-4.642-2.7-12.553-1.161l1.469-1.113A13.224,13.224,0,0,1,388.463,57.3Z" fill="#131163"/>
      <path id="Trazado_113582" data-name="Trazado 113582" d="M366.484,60.425a12.531,12.531,0,0,0-8.063-.93l1.789-1.325S363.121,57.725,366.484,60.425Z" fill="#131163"/>
      <path id="Trazado_113583" data-name="Trazado 113583" d="M383.442,57.3a2.746,2.746,0,0,0-2.4.871A2.188,2.188,0,0,0,383.442,57.3Z" fill="#fff"/>
      <path id="Trazado_113584" data-name="Trazado 113584" d="M364.779,60.962s-1.98-.385-2.664.518C362.115,61.484,363.174,62.208,364.779,60.962Z" fill="#fff"/>
      <path id="Trazado_113585" data-name="Trazado 113585" d="M388,57.758a18.2,18.2,0,0,1-9.386,4.42l-.148-2.1.527.889S384.545,60.633,388,57.758Z" fill="#c6659c"/>
      <path id="Trazado_113586" data-name="Trazado 113586" d="M366.484,61.341s-.642,2.305-5.342,3.347l.151-1.128.265.4S364.9,63.536,366.484,61.341Z" fill="#c6659c"/>
      <path id="Trazado_113588" data-name="Trazado 113588" d="M374.063,72.016a2.412,2.412,0,0,0-1.453-.38c-.663.126-1.338,1.092-1.338,1.092A6.6,6.6,0,0,1,374.063,72.016Z" fill="#9f4a8b"/>
      <path id="Trazado_113589" data-name="Trazado 113589" d="M362.115,70.562c-.841-.821,3.517-8.583,5.6-8.871s4.042,8.7,4.042,8.7-2.9.406-5.71.782S362.115,70.562,362.115,70.562Z" fill="#ffbcaf"/>
      <path id="Trazado_113591" data-name="Trazado 113591" d="M356.94,77.254c.14.94,3.35,21.16,12.72,27.27l.01.01s8.47,2.09,21.35-2.71c0,0,14.48-8.29,17.98-22.21a10.909,10.909,0,0,0-.9-6.79s-2.43-1.04-3.54-7.41a16.126,16.126,0,0,1,2.52-11.97,23.747,23.747,0,0,1,.61-8.21c1.14-4.36,3.29-8.59,2.34-11.68s-8.87-5.06-12.47-7.99a15.662,15.662,0,0,1-1.59-1.49l-.03-.03a.341.341,0,0,1-.06-.06c-.47-.5-.86-.99-1.24-1.47l-.39-.47-.37-.44a13.868,13.868,0,0,0-5.13-3.72c-5.48-2.54-9.35-2.93-13.31-6.48l-.05-.05a17.231,17.231,0,0,0,1.14,6.72s-12.13-2.74-14.97-2.74-3.79,9.09-3.79,9.09l-.01.01a45.387,45.387,0,0,0-4.82,7.96c-.67,1.69,5.2,13.63,5.2,13.63a17.416,17.416,0,0,1,2.94-10.89l1.33,1.23s.05-.12.16-.32c.55-1.02,2.5-4.21,5.9-5.08,0,0,0,.66,10.71-.48s15.06-1.7,17.62.76,1.61,8.24-.76,10.23c0,0,6.54,6.92,6.35,16.68-.18,9.39-7.27,16.36-10.28,17.53a2.7,2.7,0,0,1-.33.12c-2.78.76-4.18-4.23-20.53-2.08-11.55,1.51-10.73,2.96-12.06,5.74C358.84,80.2,357.1,77.5,356.94,77.254Zm3.26,6.13c-.08-4.3,2.97-5.69,3.54-5.43s2.27,1.12,7.01.81a14.8,14.8,0,0,0,7.89-2.96s6.11.63,7.85,5.56-6.33,8.21-7.85,8.08-5.3-4.42-5.3-4.42-4.11-.31-4.87.44-1.23,6.51-3.5,6.89-4.72-5.98-4.77-8.97Z" fill="url(#linear-gradient-36)"/>
      <path id="Trazado_113592" data-name="Trazado 113592" d="M365.559,63.418s-4.083,5.069-3.693,6.976c.426,2.086,5.155,3.2,5.155,3.2s-3.789-1.31-4.568-3.2A25.157,25.157,0,0,1,365.559,63.418Z" fill="#d2726c"/>
      <path id="Trazado_113593" data-name="Trazado 113593" d="M358.14,46.024a17.416,17.416,0,0,1,2.94-10.89,29.1,29.1,0,0,1-3.31-10.71l-.01.01a36.672,36.672,0,0,0-1.54,7.1l-3.28.86C352.27,34.084,358.14,46.024,358.14,46.024Z" opacity="0.6" fill="url(#linear-gradient-37)" style="isolation: isolate"/>
      <path id="Trazado_113594" data-name="Trazado 113594" d="M391.02,101.824a48.114,48.114,0,0,0-11.874-.835c-7.142.288-11.247.317-9.476,3.545C369.67,104.534,378.641,106.56,391.02,101.824Z" opacity="0.5" fill="url(#linear-gradient-38)" style="isolation: isolate"/>
      <path id="Trazado_113595" data-name="Trazado 113595" d="M366.2,17.6s-4.342-1.694-6.055-1.415a3.347,3.347,0,0,1,1.389-1.1c.711-.19,15,2.98,15,2.98S367.622,17.036,366.2,17.6Z" fill="url(#linear-gradient-39)"/>
      <path id="Trazado_113596" data-name="Trazado 113596" d="M375.01,19.214s.341,4.728,1.85,6.44l17.69,2.26L399.743,27a13.06,13.06,0,0,1-4.217-3.435C393.318,20.984,381.784,18.456,375.01,19.214Z" fill="url(#linear-gradient-40)"/>
      <path id="Trazado_113597" data-name="Trazado 113597" d="M357.77,24.424a39.834,39.834,0,0,0-1.55,7.11l-3.28.86A23.593,23.593,0,0,1,357.77,24.424Z" fill="url(#linear-gradient-41)"/>
      <path id="Trazado_113598" data-name="Trazado 113598" d="M405.974,64.684s1.243-5.968,4.292-8.921a7.17,7.17,0,0,1,6.523-2s-.947,11.068-1.942,13.768-2.51,3.411-2.51,3.411a8.525,8.525,0,0,0,2.416-5.529c.284-3.661.379-8.824-.427-9.44s-4.06,1.786-4.06,1.786a10.793,10.793,0,0,1,1.644,4.521c.616,3.262-1.657,5.63-2.51,5.583s.047-3.774-.1-4.847S407.268,62.178,405.974,64.684Z" opacity="0.8" fill="url(#linear-gradient-42)" style="isolation: isolate"/>
      <path id="Trazado_113599" data-name="Trazado 113599" d="M409.016,57.269a7.457,7.457,0,0,1,2.97,6.675c-.36,4.486-2.924,4.29-2.932,3.348s.488-3.366.228-4.738-2.474-.751-2.474-.751A32.9,32.9,0,0,1,409.016,57.269Z" opacity="0.8" fill="url(#linear-gradient-43)" style="isolation: isolate"/>
      <path id="Trazado_113600" data-name="Trazado 113600" d="M356.94,77.254s4.138,18.873,12.73,27.28C369.67,104.534,359.87,100.684,356.94,77.254Z" fill="#4dd0e1"/>
      <path id="Trazado_113601" data-name="Trazado 113601" d="M361.532,15.094s-2.182,1.7-2.6,7.594,2.143,12.446,2.143,12.446a23.68,23.68,0,0,1-3.6-10.267C357.168,19.5,359.8,15.772,361.532,15.094Z" fill="#34c7ff"/>
      <path id="Trazado_113602" data-name="Trazado 113602" d="M387.967,27.444a51.038,51.038,0,0,1-10.588,2.211c-5.54.488-6.679.6-6.679.6s2.226-2.16,6.968-2.81A48.047,48.047,0,0,1,387.967,27.444Z" fill="url(#linear-gradient-44)"/>
      <path id="Trazado_113603" data-name="Trazado 113603" d="M363.566,77.667s-2.416,0-3.367,3.032a25.246,25.246,0,0,0-.967,4.5l-.856-3.323s1.116-4.209,2.277-5.156c.835-.682,2.275-1.375,2.96-1.208Z" fill="url(#linear-gradient-45)"/>
      <path id="Trazado_113604" data-name="Trazado 113604" d="M370.079,74.636l-.409,3.6a12.86,12.86,0,0,1-4.891-.569l-.347-2.183A27.223,27.223,0,0,1,370.079,74.636Z" fill="url(#linear-gradient-46)"/>
      <path id="Trazado_113605" data-name="Trazado 113605" d="M356.65,121.164s-17.225,12.583-19.462,16.91-3.141,17.9-6.165,23.776c0,0,2.067-9.608,3.517-17.142s1.1-7.641,1.907-9.488S350.12,124.445,356.65,121.164Z" fill="#4dd0e1"/>
      <path id="Trazado_113606" data-name="Trazado 113606" d="M359.737,191.207s8.3,35.542,7.926,37.944-5.752,7.3-6,8.643c0,0,4.108,5.5,3.919,6.72s-7.2,8.924-7.011,11.306c.055.692,4.6,8.194,4.6,8.194s-5.138-7.374-5.391-8.55,6.3-11.026,6.488-12.027c.5-2.591-3.267-4.5-3.393-6.2s5.094-5.872,5.136-8.652S359.737,191.207,359.737,191.207Z" fill="#4dd0e1"/>
      <path id="Trazado_113607" data-name="Trazado 113607" d="M358.05,275.934s-17.95,40.635-24.071,81.27C333.979,357.2,335,317.548,358.05,275.934Z" fill="#4dd0e1"/>
      <path id="Trazado_113608" data-name="Trazado 113608" d="M471.86,113s4.645-.993,6.572-5.044.668-9.916.668-9.916a102.194,102.194,0,0,1-5.447,9.357C471.842,109.784,471.355,112.5,471.86,113Z" fill="#ffbcaf"/>
    </g>
    <g id="Group_108303" data-name="Group 108303">
      <g id="Group_108302" data-name="Group 108302">
        <g id="Group_108301" data-name="Group 108301">
          <path id="Path_113525" data-name="Path 113525" d="M238.35,296.656a33.962,33.962,0,0,1,8.283-3.6l1.706-8.2,13.853-.242,1.994,8.133a33.877,33.877,0,0,1,8.4,3.307l7-4.59,9.967,9.624-4.339,7.157a33.916,33.916,0,0,1,3.6,8.285l8.2,1.706.244,13.852-8.134,1.994a33.928,33.928,0,0,1-3.306,8.4l4.588,7-9.622,9.968-7.157-4.34a33.954,33.954,0,0,1-8.285,3.6l-1.707,8.2-13.852.243-1.994-8.134a33.958,33.958,0,0,1-8.4-3.306l-7,4.589-9.968-9.624,4.34-7.157a33.879,33.879,0,0,1-3.6-8.284l-8.2-1.706-.243-13.852,8.134-1.995a33.958,33.958,0,0,1,3.306-8.4l-4.588-7,9.622-9.968,7.159,4.34Zm7.384,18.454a14.863,14.863,0,1,0,21.016-.369A14.863,14.863,0,0,0,245.734,315.11Z" fill="#4dd0e1"/>
        </g>
      </g>
    </g>
    <g id="Group_108306" data-name="Group 108306">
      <g id="Group_108305" data-name="Group 108305">
        <g id="Group_108304" data-name="Group 108304">
          <path id="Path_113526" data-name="Path 113526" d="M302.057,249.263a23.813,23.813,0,0,1,5.808-2.524l1.2-5.749,9.712-.17,1.4,5.7a23.8,23.8,0,0,1,5.894,2.319l4.908-3.218,6.988,6.748-3.042,5.017a23.82,23.82,0,0,1,2.524,5.809l5.748,1.2.17,9.712-5.7,1.4a23.826,23.826,0,0,1-2.318,5.892l3.216,4.909-6.746,6.989-5.018-3.043a23.8,23.8,0,0,1-5.809,2.524l-1.2,5.748-9.712.171-1.4-5.7a23.8,23.8,0,0,1-5.893-2.319l-4.909,3.218-6.988-6.747,3.043-5.018a23.807,23.807,0,0,1-2.525-5.809l-5.748-1.2-.17-9.712,5.7-1.4a23.836,23.836,0,0,1,2.319-5.893l-3.217-4.909,6.746-6.988,5.019,3.043Zm5.178,12.938a10.42,10.42,0,1,0,14.734-.259A10.42,10.42,0,0,0,307.235,262.2Z" fill="#e0f3ff"/>
        </g>
      </g>
    </g>
    <g id="Grupo_108306" data-name="Grupo 108306">
      <path id="Trazado_113609" data-name="Trazado 113609" d="M329.674,95.542l-3.22,91.8a6.763,6.763,0,0,1-6.76,6.526H161.562a6.762,6.762,0,0,1-6.762-6.6L152.587,94.4a6.764,6.764,0,0,1,6.6-6.923l.2,0,163.565,1.074a6.762,6.762,0,0,1,6.718,6.807C329.677,95.417,329.676,95.48,329.674,95.542Z" fill="#36d1f7" opacity="0.6" style="isolation: isolate"/>
      <g id="Grupo_108304" data-name="Grupo 108304">
        <path id="Trazado_113610" data-name="Trazado 113610" d="M154.55,187.267,152.337,94.4a6.954,6.954,0,0,1,2.01-5.083,7.062,7.062,0,0,1,5.048-2.1l163.566,1.074a7.016,7.016,0,0,1,6.967,7.063c0,.066,0,.132,0,.2l-3.22,91.8a6.99,6.99,0,0,1-7.01,6.769H161.562A6.973,6.973,0,0,1,154.55,187.267Zm.153-97.6a6.462,6.462,0,0,0-1.866,4.722l2.213,92.868a6.553,6.553,0,0,0,6.512,6.36H319.694a6.49,6.49,0,0,0,6.51-6.287l3.22-91.8a6.516,6.516,0,0,0-6.284-6.738l-.183,0L159.392,87.717h-.044a6.468,6.468,0,0,0-4.645,1.948Z" fill="#744ca2"/>
      </g>
      <path id="Trazado_113611" data-name="Trazado 113611" d="M329.438,100.217H152.774l-.283-4.841a7.411,7.411,0,0,1,6.965-7.833c.164-.01.328-.014.493-.013l163.5,1.292A6.134,6.134,0,0,1,329.533,95v.066Z" opacity="0.6" fill="url(#linear-gradient-47)" style="isolation: isolate"/>
      <path id="Trazado_113612" data-name="Trazado 113612" d="M320.556,107.623v53.124H266.48v-53.4Z" opacity="0.3" fill="url(#linear-gradient-48)" style="isolation: isolate"/>
      <rect id="Rectángulo_40152" data-name="Rectángulo 40152" width="23.523" height="23.523" transform="translate(190.697 111.188)" opacity="0.3" fill="url(#linear-gradient-49)" style="isolation: isolate"/>
      <rect id="Rectángulo_40153" data-name="Rectángulo 40153" width="23.523" height="23.523" transform="translate(162.944 111.188)" opacity="0.3" fill="url(#linear-gradient-50)" style="isolation: isolate"/>
      <rect id="Rectángulo_40154" data-name="Rectángulo 40154" width="23.523" height="23.523" transform="translate(218.915 111.188)" opacity="0.3" fill="url(#linear-gradient-51)" style="isolation: isolate"/>
      <rect id="Rectángulo_40155" data-name="Rectángulo 40155" width="60.153" height="5.635" transform="translate(162.945 148.425)" fill="#d1d4fb"/>
      <rect id="Rectángulo_40156" data-name="Rectángulo 40156" width="75.198" height="1.744" transform="translate(162.944 157)" fill="#d1d4fb"/>
      <rect id="Rectángulo_40157" data-name="Rectángulo 40157" width="14.386" height="1.744" transform="translate(223.048 137.71)" fill="#d1d4fb"/>
      <rect id="Rectángulo_40158" data-name="Rectángulo 40158" width="14.386" height="1.744" transform="translate(195.266 137.71)" fill="#d1d4fb"/>
      <rect id="Rectángulo_40159" data-name="Rectángulo 40159" width="14.386" height="1.744" transform="translate(167.513 137.71)" fill="#d1d4fb"/>
      <rect id="Rectángulo_40160" data-name="Rectángulo 40160" width="24.19" height="1.744" transform="translate(218.248 159.834)" fill="#d1d4fb"/>
      <rect id="Rectángulo_40161" data-name="Rectángulo 40161" width="75.198" height="1.744" transform="translate(162.944 162.635)" fill="#d1d4fb"/>
      <rect id="Rectángulo_40162" data-name="Rectángulo 40162" width="79.493" height="1.744" transform="translate(162.945 165.436)" fill="#d1d4fb"/>
      <rect id="Rectángulo_40163" data-name="Rectángulo 40163" width="79.493" height="1.744" transform="translate(162.945 168.237)" fill="#d1d4fb"/>
      <rect id="Rectángulo_40164" data-name="Rectángulo 40164" width="75.198" height="1.744" transform="translate(162.944 179.56)" fill="#d1d4fb"/>
      <rect id="Rectángulo_40165" data-name="Rectángulo 40165" width="79.493" height="1.744" transform="translate(162.945 182.361)" fill="#d1d4fb"/>
      <rect id="Rectángulo_40166" data-name="Rectángulo 40166" width="79.493" height="1.744" transform="translate(162.945 185.162)" fill="#d1d4fb"/>
      <rect id="Rectángulo_40167" data-name="Rectángulo 40167" width="76.295" height="1.744" transform="translate(166.143 171.038)" fill="#d1d4fb"/>
      <rect id="Rectángulo_40168" data-name="Rectángulo 40168" width="75.198" height="1.744" transform="translate(162.944 173.839)" fill="#d1d4fb"/>
      <rect id="Rectángulo_40169" data-name="Rectángulo 40169" width="64.406" height="1.744" transform="translate(178.032 176.64)" fill="#d1d4fb"/>
      <g id="Grupo_108305" data-name="Grupo 108305">
        <path id="Trazado_113613" data-name="Trazado 113613" d="M323.248,93.007l-1.124-1.7-6.078,5.328.932,1.3Z" fill="#fff"/>
        <path id="Trazado_113614" data-name="Trazado 113614" d="M315.89,93.007l1.123-1.7,6.078,5.328-.932,1.3Z" fill="#fff"/>
      </g>
      <rect id="Rectángulo_40170" data-name="Rectángulo 40170" width="54.442" height="2.729" transform="translate(157.048 92.461)" fill="#fff"/>
    </g>
    <g id="Grupo_78300" data-name="Grupo 78300" transform="translate(-5 -3)">
      <path id="Trazado_113504" data-name="Trazado 113504" d="M530.056,238.8A162.123,162.123,0,0,1,383.738,366.974a10.815,10.815,0,0,0-9.971,10.24v.008a10.823,10.823,0,0,0,11.542,11.4C466.767,382.627,534.712,322.8,551.3,243.2a10.822,10.822,0,0,0-10.081-12.939h0A10.807,10.807,0,0,0,530.056,238.8Z" fill="#4dd0e1"/>
    </g>
  </g>
</svg>
