<svg xmlns="http://www.w3.org/2000/svg" width="190" height="110" viewBox="0 0 190 110">
  <g id="Grupo_133335" data-name="Grupo 133335" transform="translate(-180 -2590)">
    <rect id="Rectángulo_41429" data-name="Rectángulo 41429" width="190" height="110" transform="translate(180 2590)" fill="none"/>
    <rect id="Rectángulo_41430" data-name="Rectángulo 41430" width="85" height="28" rx="14" transform="translate(285 2598)" fill="#feca2e" opacity="0.2"/>
    <rect id="Rectángulo_41431" data-name="Rectángulo 41431" width="85" height="28" rx="14" transform="translate(180 2659)" fill="#4dd0e1" opacity="0.2"/>
    <path id="Trazado_192212" data-name="Trazado 192212" d="M-68.476,3074.273a.515.515,0,0,1-.415.209.513.513,0,0,1-.306-.1,49.986,49.986,0,0,1-4.121-3.406.516.516,0,0,1-.03-.729.518.518,0,0,1,.729-.03,48.9,48.9,0,0,0,4.036,3.336A.516.516,0,0,1-68.476,3074.273Zm29.28,8.792H-39.2a48.46,48.46,0,0,1-5.231-.227.518.518,0,0,0-.563.464.515.515,0,0,0,.464.563c1.6.155,3.232.234,4.85.234l.491,0a.517.517,0,0,0,.51-.521A.516.516,0,0,0-39.2,3083.064Zm-10.414-1.012a48.614,48.614,0,0,1-5.062-1.339.515.515,0,0,0-.649.331.515.515,0,0,0,.332.649,49.421,49.421,0,0,0,5.17,1.369.52.52,0,0,0,.106.011.517.517,0,0,0,.5-.411A.516.516,0,0,0-49.61,3082.053Zm-9.949-3.22a48.472,48.472,0,0,1-4.655-2.4.518.518,0,0,0-.706.185.516.516,0,0,0,.185.706,49.676,49.676,0,0,0,4.754,2.448.513.513,0,0,0,.211.045.516.516,0,0,0,.471-.3A.516.516,0,0,0-59.559,3078.833Zm69.031-44.691h0a.516.516,0,0,0-.516.514,49.234,49.234,0,0,1-.361,5.734.516.516,0,0,0,.45.575.548.548,0,0,0,.063,0,.516.516,0,0,0,.511-.453,50.251,50.251,0,0,0,.368-5.855A.516.516,0,0,0,9.472,3034.142ZM.84,3007.524a.516.516,0,1,0,.859-.571,50.068,50.068,0,0,0-3.532-4.684.516.516,0,0,0-.727-.059.515.515,0,0,0-.059.727A49.1,49.1,0,0,1,.84,3007.524Zm5.181,10.231a.516.516,0,0,0,.485.339.522.522,0,0,0,.177-.031.516.516,0,0,0,.308-.661,49.541,49.541,0,0,0-2.335-5.381.516.516,0,1,0-.92.466A48.411,48.411,0,0,1,6.02,3017.756Zm2.625,11.16a.516.516,0,0,0,.512.458.582.582,0,0,0,.058,0,.516.516,0,0,0,.455-.571,49.636,49.636,0,0,0-1-5.778.516.516,0,1,0-1,.236A48.686,48.686,0,0,1,8.646,3028.916Zm-.462,16.747a.517.517,0,0,0-.623.378,48.353,48.353,0,0,1-1.7,5.489.516.516,0,0,0,.3.665.523.523,0,0,0,.181.033.516.516,0,0,0,.483-.334,49.455,49.455,0,0,0,1.733-5.606A.516.516,0,0,0,8.184,3045.663Zm-3.96,10.895a.518.518,0,0,0-.7.221,48.751,48.751,0,0,1-2.941,4.937.516.516,0,1,0,.853.579,49.927,49.927,0,0,0,3-5.041A.517.517,0,0,0,4.223,3056.557Zm-85.2-48.8a.516.516,0,0,0,.284.086.517.517,0,0,0,.43-.231,48.776,48.776,0,0,1,3.165-4.256.516.516,0,0,0-.067-.727.516.516,0,0,0-.726.067,50.023,50.023,0,0,0-3.232,4.346A.515.515,0,0,0-80.972,3007.753Zm-7.406,19.951a.5.5,0,0,0,.076.005.516.516,0,0,0,.51-.44,48.661,48.661,0,0,1,1.06-5.2.515.515,0,0,0-.368-.629.516.516,0,0,0-.629.368,49.665,49.665,0,0,0-1.083,5.308A.516.516,0,0,0-88.379,3027.7Zm.18,10.149c-.078-1.13-.118-2.281-.118-3.422,0-.624.012-1.257.036-1.881a.516.516,0,0,0-.5-.535.52.52,0,0,0-.535.5c-.024.637-.036,1.284-.036,1.92,0,1.165.041,2.34.121,3.495a.515.515,0,0,0,.513.479h.037A.516.516,0,0,0-88.2,3037.854Zm14.355-38.245a.515.515,0,0,0,.359-.145,48.971,48.971,0,0,1,4.007-3.474.516.516,0,0,0,.091-.724.515.515,0,0,0-.723-.091,50.148,50.148,0,0,0-4.092,3.548.516.516,0,0,0-.012.729A.514.514,0,0,0-73.843,2999.608Zm-9.32,11.88a.516.516,0,0,0-.695.222,49.506,49.506,0,0,0-2.214,4.944.515.515,0,0,0,.3.666.5.5,0,0,0,.185.034.514.514,0,0,0,.481-.331,48.481,48.481,0,0,1,2.168-4.84A.515.515,0,0,0-83.163,3011.488Zm-4.381,31.629a.518.518,0,0,0-.6-.416.516.516,0,0,0-.416.6,49.607,49.607,0,0,0,1.252,5.27.516.516,0,0,0,.494.369.531.531,0,0,0,.147-.021.515.515,0,0,0,.348-.641A48.451,48.451,0,0,1-87.544,3043.117Zm39.748,22.348H-81.882a1.944,1.944,0,0,1-1.942-1.941V3024.4a2.517,2.517,0,0,1,2.514-2.514h21l1.051-1.885a.516.516,0,0,1,.45-.265h6.085a.516.516,0,0,1,.45.265l3.042,5.455a.515.515,0,0,1,0,.5l-1.827,3.276v16.811h3.245a2.485,2.485,0,0,1,2.505,2.181l0,.016a.521.521,0,0,1,.016.123v14.593A2.51,2.51,0,0,1-47.8,3065.465Zm-34.087-1.032h4.912v-13.905a.516.516,0,0,1,.516-.516h24.364v-18.928l-.184.33a.515.515,0,0,1-.45.264H-58.81a.515.515,0,0,1-.45-.264l-3.042-5.456a.515.515,0,0,1,0-.5l1.416-2.539H-81.31a1.485,1.485,0,0,0-1.483,1.483v39.123A.911.911,0,0,0-81.882,3064.434Zm23.375-43.666-2.755,4.94,2.755,4.939h5.479l2.754-4.939-2.754-4.94Zm12.183,27.649a1.464,1.464,0,0,0-1.491-1.34h-3.245v2.936H-47.8a1.529,1.529,0,0,0,1.476-1.516h0s0-.01,0-.016C-46.32,3048.458-46.322,3048.438-46.324,3048.417Zm-1.472,16.017a1.477,1.477,0,0,0,1.476-1.475v-12.411c-.01.008-.021.013-.031.02a2.509,2.509,0,0,1-.284.181l-.047.023a2.577,2.577,0,0,1-.288.125c-.019.006-.037.015-.056.021a2.329,2.329,0,0,1-.334.084c-.024,0-.049.008-.074.012a2.4,2.4,0,0,1-.362.03H-75.939v13.39Zm-30.285-19.653a.516.516,0,0,1-.516-.516v-4.687a.515.515,0,0,1,.516-.515h8.654a.515.515,0,0,1,.516.515v4.688a.516.516,0,0,1-.516.516Zm.516-1.031h7.623v-3.657h-7.623Zm12.074.515v-4.687a.515.515,0,0,1,.516-.515h8.294a.515.515,0,0,1,.516.515v4.688a.516.516,0,0,1-.516.516h-8.294A.516.516,0,0,1-65.491,3044.265Zm1.031-.515H-57.2v-3.657H-64.46Zm-4.056,13.629,2.52-2.521a.516.516,0,0,0,.151-.365v-1.442a.516.516,0,0,0-.516-.516.516.516,0,0,0-.516.516v1.229l-2.369,2.369-2.369-2.369v-1.229a.516.516,0,0,0-.516-.516.516.516,0,0,0-.516.516v1.442a.517.517,0,0,0,.151.365l2.52,2.521-2.52,2.52a.517.517,0,0,0-.151.365v1.8a.516.516,0,0,0,.516.516.515.515,0,0,0,.516-.516v-1.589l2.369-2.369,2.369,2.369v1.589a.516.516,0,0,0,.516.516.516.516,0,0,0,.516-.516v-1.8A.516.516,0,0,0-66,3059.9Zm10.449,5.2a.515.515,0,0,0,.516-.516.515.515,0,0,0-.516-.515H-63.32v-8.5a.516.516,0,0,0-.516-.516.516.516,0,0,0-.516.516v9.015a.516.516,0,0,0,.516.516Zm1.288-8.1v2.186a1.588,1.588,0,0,0,1.586,1.586h3.629a.555.555,0,0,1,.555.555V3061a.556.556,0,0,1-.555.555h-3.629a.555.555,0,0,1-.555-.555.516.516,0,0,0-.516-.516.516.516,0,0,0-.516.516,1.587,1.587,0,0,0,1.586,1.586h3.629A1.588,1.588,0,0,0-49.978,3061v-2.186a1.588,1.588,0,0,0-1.586-1.586h-3.629a.555.555,0,0,1-.555-.555v-2.186a.555.555,0,0,1,.555-.555h3.629a.555.555,0,0,1,.555.555.516.516,0,0,0,.516.516.516.516,0,0,0,.516-.516,1.588,1.588,0,0,0-1.586-1.586h-3.629A1.588,1.588,0,0,0-56.779,3054.483Zm4.464-28.775a3.457,3.457,0,0,1-3.453,3.453,3.457,3.457,0,0,1-3.453-3.453,3.457,3.457,0,0,1,3.453-3.453A3.457,3.457,0,0,1-52.315,3025.708Zm-1.031,0a2.424,2.424,0,0,0-2.422-2.422,2.424,2.424,0,0,0-2.422,2.422,2.424,2.424,0,0,0,2.422,2.422A2.424,2.424,0,0,0-53.346,3025.708Zm-25.251,9.265v-4.688a.516.516,0,0,1,.516-.516h8.654a.516.516,0,0,1,.516.516v4.688a.516.516,0,0,1-.516.516h-8.654A.516.516,0,0,1-78.6,3034.973Zm1.031-.516h7.623V3030.8h-7.623Zm42.858-36.2h-7.622a.516.516,0,0,0-.516.516.516.516,0,0,0,.516.516h7.622a.516.516,0,0,0,.516-.516A.516.516,0,0,0-34.707,2998.257Zm0,4.135h-7.622a.516.516,0,0,0-.516.516.515.515,0,0,0,.516.516h7.622a.516.516,0,0,0,.516-.516A.516.516,0,0,0-34.707,3002.393Zm-12.81-3.536a.516.516,0,0,0-.516-.516h-4.653a.516.516,0,0,0-.516.516.515.515,0,0,0,.516.516h4.653A.516.516,0,0,0-47.518,2998.856Zm-.516,3.62h-4.653a.515.515,0,0,0-.516.515.516.516,0,0,0,.516.516h4.653a.516.516,0,0,0,.516-.516A.515.515,0,0,0-48.033,3002.477Zm18.845-3.273h4.653a.515.515,0,0,0,.516-.515.516.516,0,0,0-.516-.516h-4.653a.516.516,0,0,0-.516.516A.515.515,0,0,0-29.188,2999.2Zm4.653,3.1h-4.653a.516.516,0,0,0-.516.516.516.516,0,0,0,.516.516h4.653a.516.516,0,0,0,.516-.516A.516.516,0,0,0-24.535,3002.308ZM.4,3031.825l-.818.66a1.936,1.936,0,0,1-1.212.427H-28.569a1.936,1.936,0,0,1-1.212-.427l-.818-.66a4.609,4.609,0,0,1-1.426-5.21l3.192-8.545a5.779,5.779,0,0,1,2.441-2.922l-8.046.072H-50.546a15.389,15.389,0,0,1-13.258-7.625,15.477,15.477,0,0,1-2.144-7.877,15.47,15.47,0,0,1,15.4-15.5H-25.7a15.406,15.406,0,0,1,13.713,8.456,9.331,9.331,0,0,1,3.036.719.517.517,0,0,1,.3.454.516.516,0,0,1-.273.469l-1.111.59a5.67,5.67,0,0,1,2.314,1.231,7,7,0,0,1,1.932,4.148.517.517,0,0,1-.179.431.515.515,0,0,1-.453.111l-.9-.21a11.24,11.24,0,0,1,1.51,2.946.515.515,0,0,1-.063.435.513.513,0,0,1-.375.229c-.124.013-.246.022-.369.032a3.792,3.792,0,0,1,.073,2.964,2.424,2.424,0,0,1-1.812,1.644,6.638,6.638,0,0,1-.931,3.387l5.245,2.757a5.78,5.78,0,0,1,2.677,3.062l3.192,8.546A4.6,4.6,0,0,1,.4,3031.825Zm.46-4.85-3.192-8.545a4.746,4.746,0,0,0-2.2-2.513l-5.357-2.815a6.894,6.894,0,0,1-.573.625c-.088.085-.182.169-.281.253a6.734,6.734,0,0,1-4.364,1.6,6.738,6.738,0,0,1-4.369-1.605c-.1-.084-.193-.167-.283-.254a6.968,6.968,0,0,1-.566-.616l-5.353,2.813a4.744,4.744,0,0,0-2.191,2.511l-3.191,8.544a3.58,3.58,0,0,0,1.107,4.047l.818.659a.9.9,0,0,0,.565.2h1.9v-4.641l-1.779-1.078a.516.516,0,0,1-.174-.708.515.515,0,0,1,.708-.173l1.244.755v-6.321a1.934,1.934,0,0,1,1.932-1.931H-5.432a1.934,1.934,0,0,1,1.932,1.931v6.32l1.243-.754a.515.515,0,0,1,.708.173.516.516,0,0,1-.174.708l-1.778,1.077v4.642h1.866a.9.9,0,0,0,.565-.2l.818-.659A3.577,3.577,0,0,0,.856,3026.975Zm-5.388-7.261a.9.9,0,0,0-.9-.9H-24.737a.9.9,0,0,0-.9.9v12.167H-4.532Zm-46.014-5.527h16.1l10.017-.089,3.509-1.844a6.647,6.647,0,0,1-.8-2.1.511.511,0,0,1-.35.139h-33.3a.516.516,0,0,1-.516-.516v-19.7a.516.516,0,0,1,.516-.516h33.3a.516.516,0,0,1,.516.516v4.212a7.691,7.691,0,0,1,5.809-2.535.518.518,0,0,1,.386.2.519.519,0,0,1,.1.425l-.166.763a7.989,7.989,0,0,1,2.277-.472,14.364,14.364,0,0,0-12.545-7.423H-50.546a14.437,14.437,0,0,0-14.372,14.471A14.437,14.437,0,0,0-50.546,3014.187Zm40.074-20.222a7.622,7.622,0,0,0-5.439.518.514.514,0,0,1-.553-.044.516.516,0,0,1-.193-.521l.241-1.11a6.251,6.251,0,0,0-5.228,3.512,8.591,8.591,0,0,0-.5,6.8l2.954-4.107a.515.515,0,0,1,.361-.211l.057,0a.516.516,0,0,1,.341.129c.054.048,5.309,4.619,11.4,4.323a10.245,10.245,0,0,0-2.042-3.127.517.517,0,0,1-.082-.615.514.514,0,0,1,.567-.25l1.641.383a5.658,5.658,0,0,0-1.488-2.761,6.08,6.08,0,0,0-3.167-1.24.516.516,0,0,1-.463-.41.515.515,0,0,1,.263-.559Zm2.963,12.883a2.755,2.755,0,0,0-.021-2.116.885.885,0,0,0-.662-.449c-5-.209-9.155-3.166-10.484-4.22l-3.181,4.425c0,.005-.01.01-.015.016s-.02.022-.031.034a.5.5,0,0,1-.1.082c-.01.006-.018.014-.029.02a.509.509,0,0,1-.153.052l-.016.005a.819.819,0,0,0-.637.361,2.325,2.325,0,0,0,.131,1.789,1.371,1.371,0,0,0,1.337,1.029c.5,0,.522.433.546.934a5.69,5.69,0,0,0,1.779,4.168c.08.077.16.146.239.215a5.708,5.708,0,0,0,3.7,1.356,5.706,5.706,0,0,0,3.7-1.359c.083-.07.159-.137.233-.209a5.668,5.668,0,0,0,1.785-4.147c.022-.524.041-.958.544-.958A1.368,1.368,0,0,0-7.51,3006.848Zm-25.036,2.412v-13.484H-44.9v13.484Zm-13.389,0v-13.484H-54.86v13.484Zm-8.925-18.668h0v4.152h32.271v-4.152H-54.86Zm23.346,18.668h8.925v-.681a2.645,2.645,0,0,1-1.079-1.36,3.3,3.3,0,0,1-.06-2.68,1.679,1.679,0,0,1,.756-.681,9.5,9.5,0,0,1,.383-7.951v-.131h-8.925Zm26.5,29.536a1.706,1.706,0,0,1,1.1.408,1.673,1.673,0,0,1,.61,1.284v39.222a1.494,1.494,0,0,1-1.493,1.493H-35.41a1.41,1.41,0,0,1-1.416-1.4v-33.641a.514.514,0,0,1,.011-.106l0-.005a.512.512,0,0,1,.045-.122l.015-.028a.543.543,0,0,1,.082-.107l0,0,7.053-6.8a.511.511,0,0,1,.4-.191Zm.681,1.692a.671.671,0,0,0-.681-.661H-28.7v6.334a.516.516,0,0,1-.516.516h-6.577V3079.8a.378.378,0,0,0,.385.37H-4.791a.462.462,0,0,0,.462-.461Zm-30.7,5.158h5.3v-5.112Zm7.808,27.124v3.37a1.64,1.64,0,0,1-1.638,1.639h-3.464a1.641,1.641,0,0,1-1.638-1.639v-3.37a1.64,1.64,0,0,1,1.638-1.639h3.464A1.64,1.64,0,0,1-27.225,3072.77Zm-1.031,0a.608.608,0,0,0-.607-.607h-3.464a.608.608,0,0,0-.607.607v3.37a.608.608,0,0,0,.607.607h3.464a.608.608,0,0,0,.607-.607Zm4.479-18.9a.516.516,0,0,0,.516.516H-7.429a.516.516,0,0,0,.516-.516.515.515,0,0,0-.516-.515H-23.261A.515.515,0,0,0-23.777,3053.867Zm16.348,2.825H-23.261a.516.516,0,0,0-.516.516.516.516,0,0,0,.516.516H-7.429a.516.516,0,0,0,.516-.516A.516.516,0,0,0-7.429,3056.692Zm0,6.125H-23.261a.516.516,0,0,0-.516.516.516.516,0,0,0,.516.516H-7.429a.516.516,0,0,0,.516-.516A.516.516,0,0,0-7.429,3062.817Zm0,3.339H-23.261a.516.516,0,0,0-.516.516.515.515,0,0,0,.516.516H-7.429a.515.515,0,0,0,.516-.516A.516.516,0,0,0-7.429,3066.157Zm0,6.09H-23.261a.516.516,0,0,0-.516.516.516.516,0,0,0,.516.516H-7.429a.516.516,0,0,0,.516-.516A.516.516,0,0,0-7.429,3072.247Zm0,3.34H-23.261a.516.516,0,0,0-.516.516.516.516,0,0,0,.516.516H-7.429a.516.516,0,0,0,.516-.516A.516.516,0,0,0-7.429,3075.586Zm-23.6-18.083a.515.515,0,0,0,.422.219h.024a.516.516,0,0,0,.423-.26l3.035-5.318a.515.515,0,0,0-.192-.7.517.517,0,0,0-.7.192l-2.633,4.613-.918-1.3a.516.516,0,0,0-.718-.125.515.515,0,0,0-.125.718Zm0,9.875a.517.517,0,0,0,.422.219h.024a.514.514,0,0,0,.423-.259l3.035-5.318a.515.515,0,0,0-.192-.7.516.516,0,0,0-.7.192l-2.633,4.613-.918-1.3a.516.516,0,0,0-.718-.125.515.515,0,0,0-.125.718Z" transform="translate(314.681 -389.157)" fill="#0f2771" stroke="#0f2771" stroke-width="0.75"/>
  </g>
</svg>
