<svg xmlns="http://www.w3.org/2000/svg" xmlns:xlink="http://www.w3.org/1999/xlink" width="401.304" height="264.554" viewBox="0 0 401.304 264.554">
  <defs>
    <linearGradient id="linear-gradient" y1="0.5" x2="1" y2="0.5" gradientUnits="objectBoundingBox">
      <stop offset="0" stop-color="#4f52ff"/>
      <stop offset="1" stop-color="#4042e2"/>
    </linearGradient>
    <linearGradient id="linear-gradient-3" y1="0.5" x2="1" y2="0.5" gradientUnits="objectBoundingBox">
      <stop offset="0" stop-color="#09005d"/>
      <stop offset="1" stop-color="#1a0f91"/>
    </linearGradient>
  </defs>
  <g id="Grupo_109669" data-name="Grupo 109669" transform="translate(-7335.129 -4149.818)">
    <g id="Grupo_109611" data-name="Grupo 109611">
      <g id="Grupo_109602" data-name="Grupo 109602">
        <path id="Trazado_115977" data-name="Trazado 115977" d="M7427.436,4152.552v43.192h42.195v134.961" fill="none" stroke="#fff" stroke-linecap="round" stroke-miterlimit="10" stroke-width="2"/>
        <path id="Trazado_115978" data-name="Trazado 115978" d="M7369.607,4152.552v111.011h57.829v73.123" fill="none" stroke="#fff" stroke-linecap="round" stroke-miterlimit="10" stroke-width="2"/>
        <path id="Trazado_115979" data-name="Trazado 115979" d="M7416.208,4296.9v-81.71h105.545v-62.642h113.824v23.892h47.261" fill="none" stroke="#fff" stroke-linecap="round" stroke-miterlimit="10" stroke-width="2"/>
        <path id="Trazado_115980" data-name="Trazado 115980" d="M7372.522,4262.658a2.916,2.916,0,1,1-2.915-2.915A2.916,2.916,0,0,1,7372.522,4262.658Z" fill="#fff"/>
        <path id="Trazado_115981" data-name="Trazado 115981" d="M7432.06,4262.658a2.916,2.916,0,1,1-2.916-2.915A2.917,2.917,0,0,1,7432.06,4262.658Z" fill="#fff"/>
        <path id="Trazado_115982" data-name="Trazado 115982" d="M7430.14,4152.734a2.916,2.916,0,1,1-2.916-2.916A2.916,2.916,0,0,1,7430.14,4152.734Z" fill="#fff"/>
        <path id="Trazado_115983" data-name="Trazado 115983" d="M7372.522,4152.734a2.916,2.916,0,1,1-2.915-2.916A2.915,2.915,0,0,1,7372.522,4152.734Z" fill="#fff"/>
        <path id="Trazado_115984" data-name="Trazado 115984" d="M7524.747,4153.161a2.915,2.915,0,1,1-2.915-2.915A2.916,2.916,0,0,1,7524.747,4153.161Z" fill="#fff"/>
        <path id="Trazado_115985" data-name="Trazado 115985" d="M7638.493,4153.161a2.915,2.915,0,1,1-2.915-2.915A2.916,2.916,0,0,1,7638.493,4153.161Z" fill="#fff"/>
        <path id="Trazado_115986" data-name="Trazado 115986" d="M7638.493,4176.5a2.915,2.915,0,1,1-2.915-2.915A2.915,2.915,0,0,1,7638.493,4176.5Z" fill="#fff"/>
        <path id="Trazado_115987" data-name="Trazado 115987" d="M7700.25,4220.187a2.915,2.915,0,1,1-2.915-2.915A2.916,2.916,0,0,1,7700.25,4220.187Z" fill="#fff"/>
        <path id="Trazado_115988" data-name="Trazado 115988" d="M7635.578,4246.482a2.915,2.915,0,1,1-2.915-2.916A2.915,2.915,0,0,1,7635.578,4246.482Z" fill="#fff"/>
        <path id="Trazado_115989" data-name="Trazado 115989" d="M7719.573,4246.482a2.916,2.916,0,1,1-2.915-2.916A2.915,2.915,0,0,1,7719.573,4246.482Z" fill="#fff"/>
        <path id="Trazado_115990" data-name="Trazado 115990" d="M7689.891,4290.463a2.916,2.916,0,1,1-2.916-2.915A2.916,2.916,0,0,1,7689.891,4290.463Z" fill="#fff"/>
        <path id="Trazado_115991" data-name="Trazado 115991" d="M7689.891,4384.188a2.916,2.916,0,1,1-2.916-2.916A2.916,2.916,0,0,1,7689.891,4384.188Z" fill="#fff"/>
        <path id="Trazado_115992" data-name="Trazado 115992" d="M7719.573,4384.188a2.916,2.916,0,1,1-2.915-2.916A2.915,2.915,0,0,1,7719.573,4384.188Z" fill="#fff"/>
        <path id="Trazado_115993" data-name="Trazado 115993" d="M7653.27,4220.187a2.916,2.916,0,1,1-2.916-2.915A2.917,2.917,0,0,1,7653.27,4220.187Z" fill="#fff"/>
        <path id="Trazado_115994" data-name="Trazado 115994" d="M7430.14,4196.279a2.916,2.916,0,1,1-2.916-2.915A2.916,2.916,0,0,1,7430.14,4196.279Z" fill="#fff"/>
        <path id="Trazado_115995" data-name="Trazado 115995" d="M7472.545,4196.279a2.915,2.915,0,1,1-2.915-2.915A2.915,2.915,0,0,1,7472.545,4196.279Z" fill="#fff"/>
        <path id="Trazado_115996" data-name="Trazado 115996" d="M7524.747,4215.307a2.915,2.915,0,1,1-2.915-2.915A2.915,2.915,0,0,1,7524.747,4215.307Z" fill="#fff"/>
        <path id="Trazado_115997" data-name="Trazado 115997" d="M7419.124,4215.194a2.916,2.916,0,1,1-2.915-2.915A2.915,2.915,0,0,1,7419.124,4215.194Z" fill="#fff"/>
        <path id="Trazado_115998" data-name="Trazado 115998" d="M7632.547,4297.662v-51.18h84.11v84.224" fill="none" stroke="#fff" stroke-linecap="round" stroke-miterlimit="10" stroke-width="2"/>
        <path id="Trazado_115999" data-name="Trazado 115999" d="M7650.354,4285.21v-65.023h46.98v-46.04" fill="none" stroke="#fff" stroke-linecap="round" stroke-miterlimit="10" stroke-width="2"/>
        <path id="Trazado_116000" data-name="Trazado 116000" d="M7659.826,4290.463h27.149v93.724h29.683v29.185" fill="none" stroke="#fff" stroke-linecap="round" stroke-miterlimit="10" stroke-width="2"/>
      </g>
      <g id="Grupo_109604" data-name="Grupo 109604">
        <rect id="Rectángulo_40980" data-name="Rectángulo 40980" width="36.81" height="26.503" rx="7.599" transform="translate(7674.865 4164.776)" fill="#a5abeb" opacity="0.5" style="mix-blend-mode: multiply;isolation: isolate"/>
        <rect id="Rectángulo_40981" data-name="Rectángulo 40981" width="36.81" height="26.503" rx="8.314" transform="translate(7679.1 4161.61)" fill="#fff"/>
        <g id="Grupo_109603" data-name="Grupo 109603">
          <path id="Trazado_116001" data-name="Trazado 116001" d="M7715.91,4166.548a4.938,4.938,0,0,0-4.938-4.938h-26.935a4.937,4.937,0,0,0-4.937,4.938v.248h36.81Z" fill="#a5abeb"/>
        </g>
      </g>
      <g id="Grupo_109606" data-name="Grupo 109606">
        <rect id="Rectángulo_40982" data-name="Rectángulo 40982" width="36.81" height="26.503" rx="7.599" transform="translate(7348.777 4188.159)" fill="#a5abeb" opacity="0.5" style="mix-blend-mode: multiply;isolation: isolate"/>
        <rect id="Rectángulo_40983" data-name="Rectángulo 40983" width="36.81" height="26.503" rx="8.314" transform="translate(7353.012 4184.993)" fill="#fff"/>
        <g id="Grupo_109605" data-name="Grupo 109605">
          <path id="Trazado_116002" data-name="Trazado 116002" d="M7389.822,4189.931a4.937,4.937,0,0,0-4.937-4.938h-26.936a4.937,4.937,0,0,0-4.937,4.938v.248h36.81Z" fill="#a5abeb"/>
        </g>
      </g>
      <g id="Grupo_109608" data-name="Grupo 109608">
        <path id="Rectángulo_40984" data-name="Rectángulo 40984" d="M7.6,0H50.858a7.6,7.6,0,0,1,7.6,7.6V18.9a7.6,7.6,0,0,1-7.6,7.6H7.6A7.6,7.6,0,0,1,0,18.9V7.6A7.6,7.6,0,0,1,7.6,0Z" transform="translate(7448.378 4155.899)" fill="#a5abeb" opacity="0.5" style="mix-blend-mode: multiply;isolation: isolate"/>
        <rect id="Rectángulo_40985" data-name="Rectángulo 40985" width="58.458" height="26.503" rx="8.314" transform="translate(7452.613 4152.734)" fill="#fff"/>
        <g id="Grupo_109607" data-name="Grupo 109607">
          <path id="Trazado_116003" data-name="Trazado 116003" d="M7511.071,4157.671a4.937,4.937,0,0,0-4.938-4.937h-48.582a4.938,4.938,0,0,0-4.938,4.937v.248h58.458Z" fill="#a5abeb"/>
        </g>
      </g>
      <g id="Grupo_109610" data-name="Grupo 109610">
        <rect id="Rectángulo_40986" data-name="Rectángulo 40986" width="36.81" height="26.503" rx="7.599" transform="translate(7695.387 4333.286)" fill="#a5abeb" opacity="0.5" style="mix-blend-mode: multiply;isolation: isolate"/>
        <rect id="Rectángulo_40987" data-name="Rectángulo 40987" width="36.81" height="26.503" rx="8.314" transform="translate(7699.623 4330.12)" fill="#fff"/>
        <g id="Grupo_109609" data-name="Grupo 109609">
          <path id="Trazado_116004" data-name="Trazado 116004" d="M7736.433,4335.057a4.938,4.938,0,0,0-4.938-4.938H7704.56a4.938,4.938,0,0,0-4.938,4.938v.248h36.811Z" fill="#a5abeb"/>
        </g>
      </g>
    </g>
    <g id="Grupo_109612" data-name="Grupo 109612">
      <path id="Trazado_116005" data-name="Trazado 116005" d="M7546.82,4277.78a41.789,41.789,0,0,0-9.649,4.848,33.207,33.207,0,0,0-5.489,5.356c-9.812,11.575-15.793,25.854-21.116,40.064a61.2,61.2,0,0,0-2.959,9.52,86.59,86.59,0,0,0-1.051,10.394c-.511,6.857-1.584,13.819-.175,20.549s6.032,13.36,12.783,14.667a8.655,8.655,0,0,0,4.619-.239c4.4-1.627,5.656-7.115,6.532-11.728,1.848-9.737,4.861-19.208,7.867-28.651,3.807-11.957,7.617-23.924,12.158-35.622,2.841-7.318,5.965-14.522,9.222-21.663,1.613-3.537,5.6-10.454,7.259-13.968,2.563-5.418-4.165.358-7.533,1.643Q7553.042,4275.335,7546.82,4277.78Z" fill="url(#linear-gradient)"/>
      <path id="Trazado_116006" data-name="Trazado 116006" d="M7546.82,4277.78a41.789,41.789,0,0,0-9.649,4.848,33.207,33.207,0,0,0-5.489,5.356c-9.812,11.575-15.793,25.854-21.116,40.064a61.2,61.2,0,0,0-2.959,9.52,86.59,86.59,0,0,0-1.051,10.394c-.511,6.857-1.584,13.819-.175,20.549s6.032,13.36,12.783,14.667a8.655,8.655,0,0,0,4.619-.239c4.4-1.627,5.656-7.115,6.532-11.728,1.848-9.737,4.861-19.208,7.867-28.651,3.807-11.957,7.617-23.924,12.158-35.622,2.841-7.318,5.965-14.522,9.222-21.663,1.613-3.537,5.6-10.454,7.259-13.968,2.563-5.418-4.165.358-7.533,1.643Q7553.042,4275.335,7546.82,4277.78Z" opacity="0.5" fill="url(#linear-gradient)" style="mix-blend-mode: multiply;isolation: isolate"/>
    </g>
    <g id="Grupo_109616" data-name="Grupo 109616">
      <path id="Trazado_116007" data-name="Trazado 116007" d="M7607.724,4258.96c2.537-.675,4.893-2.071,7.508-2.31,4.02-.367,7.7,2.027,11.144,4.136q4.6,2.821,9.476,5.178c6.057,2.93,12.377,5.3,18.391,8.313s11.8,6.762,16.1,11.939,6.983,11.954,6.183,18.635c-.693,5.787-1.276,11.842-2.787,17.472-2.669,9.947-23.052,89.454-26.222,91.528,0,0-103.46-.57-122.922.125-5.967.213,2.082-50.9,2.341-53.917,1.652-19.193,7.813-37.7,14.721-55.682,5.229-13.612,11.733-28.01,24.418-35.2,8.889-5.04,19.5-5.738,29.705-6.319.419-.024.349-.809.679-1.069a5.947,5.947,0,0,1,3.039-.845A82.678,82.678,0,0,0,7607.724,4258.96Z" fill="url(#linear-gradient-3)"/>
      <g id="Grupo_109613" data-name="Grupo 109613" opacity="0.5" style="mix-blend-mode: multiply;isolation: isolate">
        <path id="Trazado_116008" data-name="Trazado 116008" d="M7614.521,4386.986c-30.069-2.756-60.742.015-90.468-4.367-1.081,9.683-1.958,20.193-1.547,26.564,8.577,1.909,17.693,1.207,26.434-.231,10.475-1.724,20.846-4.446,31.457-4.77,15.356-.47,30.426,4.1,45.766,4.942a94.8,94.8,0,0,0,24.3-1.834c1.456-4.42,3.282-10.577,5.27-17.584C7642.207,4390.589,7628.175,4388.238,7614.521,4386.986Z" fill="#fc87bb"/>
      </g>
      <g id="Grupo_109614" data-name="Grupo 109614" opacity="0.5" style="mix-blend-mode: multiply;isolation: isolate">
        <path id="Trazado_116009" data-name="Trazado 116009" d="M7666.256,4282.062c-20.019,8.774-36.495,25.721-44.074,46.273-4.264,11.562-5.827,23.914-7.361,36.141-11.118-3.5-22.884-4.451-34.136-7.49-11.1-3-21.675-8.021-33.027-9.88a101.208,101.208,0,0,0-18.774-.913,135.063,135.063,0,0,0-1.952,13.866c-.259,3.013-.36,6.24,1.18,8.842a11.8,11.8,0,0,0,4.966,4.238c5.317,2.717,11.425,3.336,17.375,3.843,16.789,1.429,33.619,2.328,50.446,3.227a205.163,205.163,0,0,0,24.36.336c4.439-.291,9.035-.933,12.758-3.368,3.17-2.073,5.416-5.256,7.585-8.362l13.565-19.431c5.9-8.445,11.9-17.114,14.568-27.061,1.511-5.63,2.094-11.685,2.787-17.472.8-6.681-1.886-13.457-6.183-18.635A36.173,36.173,0,0,0,7666.256,4282.062Z" fill="#fc87bb"/>
      </g>
      <g id="Grupo_109615" data-name="Grupo 109615" opacity="0.5" style="mix-blend-mode: multiply;isolation: isolate">
        <path id="Trazado_116010" data-name="Trazado 116010" d="M7573.843,4276.96a42.451,42.451,0,0,0,2.781,12.947,18.559,18.559,0,0,0,8.678,9.689c3.971,1.887,8.616,1.847,12.924.969a23.571,23.571,0,0,0,5.929-1.957,27.131,27.131,0,0,0,4.83-3.265,49.673,49.673,0,0,0,10.245-11.118c1.193-1.812,2.245-3.712,3.295-5.61l3.417-6.175a37.5,37.5,0,0,0,4.134-9.5c-1.246-.7-2.483-1.412-3.7-2.158-3.443-2.109-7.124-4.5-11.144-4.136-2.615.239-4.971,1.635-7.508,2.31a82.678,82.678,0,0,1-8.23,1.981,5.947,5.947,0,0,0-3.039.845c-.33.26-.26,1.045-.679,1.069-7.311.417-14.83.9-21.777,2.993A42.824,42.824,0,0,0,7573.843,4276.96Z" fill="#fc87bb"/>
      </g>
    </g>
    <path id="Trazado_116011" data-name="Trazado 116011" d="M7623.891,4370.332c-.473-12.587,5.978-24.417,7.3-36.944.348-3.3.339-6.637.935-9.9a50.257,50.257,0,0,1,4.4-12.175,89.575,89.575,0,0,1,5.312-10.027,51.437,51.437,0,0,1,18.662-17.454c2.336-1.276,5.126-2.385,7.592-1.382a8.564,8.564,0,0,1,3.388,2.965,30.778,30.778,0,0,1,6.184,17.317,60.727,60.727,0,0,1-.582,9.165c-1.521,13.255-3.517,26.809-5.19,40.046-.392,3.1-.785,6.215-1.479,9.266a88.782,88.782,0,0,1-5.543,15.518c-1.283,2.955-2.59,5.9-3.9,8.845a27.71,27.71,0,0,1-4.552,7.817c-3.935,4.251-10.454,5.616-16.008,3.976-3.723-1.1-6.976-3.359-10.157-5.582a17.9,17.9,0,0,1-4.882-4.4,16.612,16.612,0,0,1-2.055-5.417C7622.344,4377.925,7624.047,4374.485,7623.891,4370.332Z" fill="url(#linear-gradient)"/>
    <path id="Trazado_116012" data-name="Trazado 116012" d="M7639.622,4374.141c4.106,1.155,8.316,3.085,10.5,6.748,1.6,2.677,1.891,5.91,2.075,9.022.111,1.894-.086,4.264-1.842,4.983a4.645,4.645,0,0,1-3.45-.451,63.536,63.536,0,0,1-14.864-8.123,33.582,33.582,0,0,1-5.706-5.6c-1.135-1.431-4.22-5.068-4.009-7.019C7622.705,4370.218,7637.036,4373.413,7639.622,4374.141Z" fill="#fc87bb" opacity="0.5" style="mix-blend-mode: multiply;isolation: isolate"/>
    <g id="Grupo_109618" data-name="Grupo 109618">
      <path id="Trazado_116013" data-name="Trazado 116013" d="M7622.836,4264.4c-.731-3.086-3.58-5.155-6.341-6.717s-5.79-3.04-7.439-5.749a11.523,11.523,0,0,1-1.288-3.332c-1.425-5.962-.022-12.2,1.378-18.163a17.445,17.445,0,0,0-9.5,1.521,37.267,37.267,0,0,0-8.03,5.342,90.907,90.907,0,0,0-20.9,24.843c2.327,5.327,3.725,11.072,5.21,16.693,1.089,4.127,2.07,8.548,5.063,11.593a13.306,13.306,0,0,0,8.116,3.7,20.91,20.91,0,0,0,8.943-1.227,29.43,29.43,0,0,0,10.146-6.03,58.745,58.745,0,0,0,4.373-4.6q1.886-2.135,3.772-4.269a36.252,36.252,0,0,0,3.372-4.223C7621.562,4270.917,7623.62,4267.7,7622.836,4264.4Z" fill="#ffc59a"/>
      <g id="Grupo_109617" data-name="Grupo 109617">
        <path id="Trazado_116014" data-name="Trazado 116014" d="M7622.836,4264.4c-.731-3.086-3.58-5.155-6.341-6.717s-5.79-3.04-7.439-5.749a11.523,11.523,0,0,1-1.288-3.332c-1.425-5.962-.022-12.2,1.378-18.163a17.445,17.445,0,0,0-9.5,1.521,37.267,37.267,0,0,0-8.03,5.342,90.907,90.907,0,0,0-20.9,24.843,65.665,65.665,0,0,1,2.5,6.863,26.745,26.745,0,0,0,3.831-.823,39.821,39.821,0,0,0,6.677-2.881,67.871,67.871,0,0,0,7.623-4.414,81.659,81.659,0,0,0,11.863-10.658,76.671,76.671,0,0,0,1.411,7.757,57.923,57.923,0,0,0,5.585,15.909c-2.045,3.35-4.045,6.84-6.977,9.45a25.887,25.887,0,0,1-11.619,5.606,24.153,24.153,0,0,1-7.767.6,20.123,20.123,0,0,1-4.334-.96,12.165,12.165,0,0,0,1.479,1.838,13.306,13.306,0,0,0,8.116,3.7,20.91,20.91,0,0,0,8.943-1.227,29.43,29.43,0,0,0,10.146-6.03,58.745,58.745,0,0,0,4.373-4.6q1.886-2.135,3.772-4.269a36.252,36.252,0,0,0,3.372-4.223C7621.562,4270.917,7623.62,4267.7,7622.836,4264.4Z" fill="#f2ab88"/>
      </g>
      <path id="Trazado_116015" data-name="Trazado 116015" d="M7585.311,4273.221a5,5,0,0,1-5.424-.194,7.534,7.534,0,0,1-2.059-2.508c.347,1.568.483,3.009,1.7,4.06a4.294,4.294,0,0,0,3.39.988C7584.117,4275.39,7584.661,4274.247,7585.311,4273.221Z" fill="#f2ab88"/>
      <path id="Trazado_116016" data-name="Trazado 116016" d="M7612.338,4271.1a16.367,16.367,0,0,0,4.569-7.705,2.377,2.377,0,0,0,.074-1.249,2.5,2.5,0,0,0-.946-1.163c-1.387-1.088-3.017-1.873-4.5-2.843a19.89,19.89,0,0,1-7.237-8.611c.031,3.452,1.693,7.245,2.893,10.459A79.869,79.869,0,0,0,7612.338,4271.1Z" fill="#ffc59a"/>
    </g>
    <g id="Grupo_109634" data-name="Grupo 109634">
      <path id="Trazado_116017" data-name="Trazado 116017" d="M7572.47,4264.812c-2.84.71-5.849,1.418-8.652.573a10.774,10.774,0,0,1-5.692-4.593,27.594,27.594,0,0,1-2.942-6.837c-3.874-12.246-7.126-24.426-10.963-36.909-.993-3.231,2.645-6.349,5.047-8.728,8.407-8.328,19.161-15.312,30.994-15.393a16.344,16.344,0,0,1,8.668,2.007c4.122,2.515,6.144,7.373,7.393,12.037,1.048,3.911,1.737,7.909,2.424,11.9.938,5.452,1.877,10.907,2.517,16.4a21.548,21.548,0,0,1,0,6.949,17.542,17.542,0,0,1-4.4,7.812A48.563,48.563,0,0,1,7572.47,4264.812Z" fill="#ffc59a"/>
      <g id="Grupo_109619" data-name="Grupo 109619">
        <path id="Trazado_116018" data-name="Trazado 116018" d="M7548.182,4222.516c1.556,2.715,4.545,4.222,7.366,5.578a7.472,7.472,0,0,1-.857-6.678,10.451,10.451,0,0,1,4.844-5.219,56.494,56.494,0,0,1,6.671-2.876,16.432,16.432,0,0,0,6.092-3.857,28.564,28.564,0,0,1-6.257,8.6,13.168,13.168,0,0,0,12.557-7.21,12.739,12.739,0,0,0,6.934,10.338,21.461,21.461,0,0,1,.177-5.585,12.27,12.27,0,0,0,2.979,2.121,13.563,13.563,0,0,1,5.527,5.77,16.825,16.825,0,0,1,1.17,4.926c.235,1.971.381,3.951.527,5.93l.266,3.625a16.439,16.439,0,0,0,2.085-4.649,15.288,15.288,0,0,1,.586,5.268l-.015,2.593q1.212-4.094,2.128-8.268c-.617-4.7-1.41-9.383-2.215-14.059-.687-3.991-1.376-7.989-2.424-11.9-1.249-4.664-3.271-9.522-7.393-12.037a16.344,16.344,0,0,0-8.668-2.007c-11.833.081-22.587,7.065-30.994,15.393-2.4,2.379-6.04,5.5-5.047,8.728,1,3.259,1.963,6.5,2.907,9.722a13.864,13.864,0,0,0,4.188,1.156A15.391,15.391,0,0,1,7548.182,4222.516Z" fill="#f2ab88"/>
      </g>
      <g id="Grupo_109621" data-name="Grupo 109621">
        <path id="Trazado_116019" data-name="Trazado 116019" d="M7562.966,4242.555a14.6,14.6,0,0,1-8.3.548v.016a.927.927,0,0,0,.318.446l3.836,3.586A37.734,37.734,0,0,0,7562.966,4242.555Z" fill="#f2ab88"/>
        <g id="Grupo_109620" data-name="Grupo 109620">
          <path id="Trazado_116020" data-name="Trazado 116020" d="M7553.693,4240.967c.4-1.338-1.167-3.019-3.622-4.059q.8,2.752,1.606,5.5A2.441,2.441,0,0,0,7553.693,4240.967Z" fill="#fea087"/>
        </g>
        <path id="Trazado_116021" data-name="Trazado 116021" d="M7553.053,4227.427a17.108,17.108,0,0,1,1.708,15.161.958.958,0,0,0-.092.531.927.927,0,0,0,.318.446l4.563,4.265" fill="none" stroke="#371107" stroke-linecap="round" stroke-linejoin="round" stroke-width="1"/>
        <path id="Trazado_116022" data-name="Trazado 116022" d="M7558.138,4252.067a12.112,12.112,0,0,0,5.6.285,33.121,33.121,0,0,0,7.2-1.811" fill="none" stroke="#371107" stroke-linecap="round" stroke-linejoin="round" stroke-width="1"/>
        <path id="Trazado_116023" data-name="Trazado 116023" d="M7559.182,4250.411a6.364,6.364,0,0,1,3.16.032" fill="none" stroke="#ce7b5b" stroke-linecap="round" stroke-linejoin="round" stroke-width="1"/>
        <path id="Trazado_116024" data-name="Trazado 116024" d="M7559.54,4255.717a8.539,8.539,0,0,0,6.065-.943" fill="none" stroke="#ce7b5b" stroke-linecap="round" stroke-linejoin="round" stroke-width="1"/>
        <path id="Trazado_116025" data-name="Trazado 116025" d="M7566.674,4219.719a4.407,4.407,0,0,1,5.668.179" fill="none" stroke="#371107" stroke-linecap="round" stroke-linejoin="round" stroke-width="1.5"/>
        <path id="Trazado_116026" data-name="Trazado 116026" d="M7588.075,4234.991c.718,1.453-1.09,3.811-4.038,5.268s-5.92,1.46-6.638.007,1.09-3.811,4.038-5.268S7587.357,4233.538,7588.075,4234.991Z" fill="#fea087"/>
        <path id="Trazado_116027" data-name="Trazado 116027" d="M7571.316,4227.935c.162,1.833-.338,3.375-1.117,3.444s-1.541-1.362-1.7-3.2.339-3.376,1.117-3.444S7571.155,4226.1,7571.316,4227.935Z" fill="#371107"/>
        <path id="Trazado_116028" data-name="Trazado 116028" d="M7552.831,4231.257c.162,1.834-.339,3.376-1.117,3.445s-1.542-1.363-1.7-3.2.338-3.376,1.117-3.445S7552.669,4229.423,7552.831,4231.257Z" fill="#371107"/>
        <path id="Trazado_116029" data-name="Trazado 116029" d="M7548.376,4225.306a4.3,4.3,0,0,1,1.6-.55" fill="none" stroke="#371107" stroke-linecap="round" stroke-linejoin="round" stroke-width="1.5"/>
      </g>
      <g id="Grupo_109623" data-name="Grupo 109623">
        <path id="Trazado_116030" data-name="Trazado 116030" d="M7607.689,4237.423c.683-1.886-1.586-6.045,1.932-6.515,1.988-.265.184-4.075-.652-5.9-.888-1.936-3.006-3.578-5.044-2.961a4.2,4.2,0,0,0-2.436,2.307,12.45,12.45,0,0,0-.874,3.33l-1.351,8.161a23.757,23.757,0,0,0-.921-7.184,6.88,6.88,0,0,1-1.712,3.138,21.321,21.321,0,0,0-.212-6.326,13.14,13.14,0,0,0-2.872-6.425,31.966,31.966,0,0,0-4.615-3.7c-1.565-1.205-3.008-2.488-3.424-4.418a12.379,12.379,0,0,0-1.021,7.8,13.856,13.856,0,0,1-3.067-13.32,31.986,31.986,0,0,1-11.36,10.6,3.764,3.764,0,0,0,1.295-1.243c2.492-3.316,5.079-6.869,5.436-11-5.991,4.482-12.983,7.131-19.179,11.326a14.878,14.878,0,0,0-4.765,4.579,6.167,6.167,0,0,0-.175,6.328,14.339,14.339,0,0,1-5.552-7.559,3.382,3.382,0,0,1-.16-1.183,9.587,9.587,0,0,0,2.686,9.671,16.82,16.82,0,0,1-9.157-7.836,9.2,9.2,0,0,1-1.011-2.83,7.322,7.322,0,0,0-2.579,2.873c-1.142,2.218-2.216,4.636-1.924,7.113a19.341,19.341,0,0,1-.283-11.832c1.149-3.961,3.927-7.79,7.946-8.715a15.308,15.308,0,0,1-8.616-3.058,12.947,12.947,0,0,0,9.226-.927,23.689,23.689,0,0,1-7.58-3.624c4.028-.6,9.222-2.613,12.263-5.322s4.54-6.147,7.549-8.891a45,45,0,0,1,13.342-8.417,29.234,29.234,0,0,1,9.786-2.324c7.9-.311,15.585,3.147,22.165,7.537,8.663,5.781,11.742,13.156,20.534,16.642a14.649,14.649,0,0,1-6.329-.845,36.215,36.215,0,0,1,1.769,9.732c.207,2.5.171,5.063.94,7.452s2.571,4.652,5.044,5.087a8.286,8.286,0,0,1-4.05-.347,5.515,5.515,0,0,1-3.278-1.788A41.812,41.812,0,0,1,7607.689,4237.423Z" fill="#5a2a1a"/>
        <path id="Trazado_116031" data-name="Trazado 116031" d="M7612.4,4203.092a39.076,39.076,0,0,0-6.5-7.4,33.116,33.116,0,0,1,3.095,24.37,8.4,8.4,0,0,0-.122-2.391,73.523,73.523,0,0,0-3.132-13.655,34.2,34.2,0,0,0-7-12.044c2.366,3.572,3.415,7.832,4.424,12s2.028,8.469,1.415,12.718a41.642,41.642,0,0,0-5.509-15.316,51.278,51.278,0,0,1,2.529,15.368c.072,2.318.069,4.717,1.011,6.836a41.566,41.566,0,0,1-5.365-17.207,30.882,30.882,0,0,0,1.339,13.429c-1.349-6.022-6.351-10.507-8.906-16.125a21.116,21.116,0,0,1-1.8-6.835c3,4.136,6.054,8.371,7.546,13.259a64.75,64.75,0,0,0-1.708-12.115,30.643,30.643,0,0,1,6.039,12.259c-1.069-5.058-2.191-10.25-5.031-14.571,2.521,1.764,5.124,3.617,6.638,6.295q-.993-2.377-1.985-4.755c-1.264-3.028-2.564-6.115-4.728-8.582a31.158,31.158,0,0,1,7.372,4.8,21.43,21.43,0,0,1,5.033,8.269,72.093,72.093,0,0,0-6.114-11.3,50.467,50.467,0,0,1,7.242,5.665c-1.426-1.343-2.6-3.789-3.707-5.427A35.7,35.7,0,0,1,7612.4,4203.092Z" fill="#fff" opacity="0.2"/>
        <g id="Grupo_109622" data-name="Grupo 109622" opacity="0.5" style="mix-blend-mode: multiply;isolation: isolate">
          <path id="Trazado_116032" data-name="Trazado 116032" d="M7544.271,4221.215a19.719,19.719,0,0,1-2.094-3.978,12.2,12.2,0,0,1-.425-6.775,30.09,30.09,0,0,0-5.43,7.864,18.77,18.77,0,0,0-1.7,6.776c.108.386.219.771.352,1.153-.292-2.477.782-4.9,1.924-7.113a7.322,7.322,0,0,1,2.579-2.873,9.2,9.2,0,0,0,1.011,2.83,16.792,16.792,0,0,0,9,7.774A18.585,18.585,0,0,1,7544.271,4221.215Z" fill="#5a2a1a"/>
          <path id="Trazado_116033" data-name="Trazado 116033" d="M7607.689,4190.382a63.83,63.83,0,0,1,9.143,17.035c-.025-.4-.051-.805-.085-1.206a36.222,36.222,0,0,0-1.769-9.732,14.649,14.649,0,0,0,6.329.845l-.036-.015a19.751,19.751,0,0,1-6.588-2.239A55.55,55.55,0,0,1,7607.689,4190.382Z" fill="#5a2a1a"/>
          <path id="Trazado_116034" data-name="Trazado 116034" d="M7540.016,4204.108a12.572,12.572,0,0,1-5.448-1.33c-.182-.043-.367-.076-.546-.128a15.254,15.254,0,0,0,8.129,3.021,28.443,28.443,0,0,0,7.5-3.412A30.654,30.654,0,0,1,7540.016,4204.108Z" fill="#5a2a1a"/>
          <path id="Trazado_116035" data-name="Trazado 116035" d="M7552.977,4196.849a22.376,22.376,0,0,1-17.231,1.237l-.078.013a23.689,23.689,0,0,0,7.58,3.624c-.185.093-.38.17-.571.255a16.97,16.97,0,0,0,5.452-2.021A38.863,38.863,0,0,0,7552.977,4196.849Z" fill="#5a2a1a"/>
          <path id="Trazado_116036" data-name="Trazado 116036" d="M7594.7,4218.582c-1.025-1.18-1.935-2.458-3.008-3.6-1.243-1.317-2.691-2.431-3.9-3.78a7.673,7.673,0,0,1-2.218-4.831,16.746,16.746,0,0,0-1.092,12.341,12.4,12.4,0,0,1,1.024-7.781c.416,1.93,1.859,3.213,3.424,4.418a31.966,31.966,0,0,1,4.615,3.7,13.14,13.14,0,0,1,2.872,6.425,21.315,21.315,0,0,1,.212,6.325,6.872,6.872,0,0,0,1.712-3.137,23.757,23.757,0,0,1,.921,7.184l1.351-8.161a12.45,12.45,0,0,1,.874-3.33c.045-.1.1-.189.147-.282A24.343,24.343,0,0,1,7594.7,4218.582Z" fill="#5a2a1a"/>
          <path id="Trazado_116037" data-name="Trazado 116037" d="M7617.814,4215.885a40.011,40.011,0,0,1-5.332-8.594,42.628,42.628,0,0,1-3.317,18.147c.882,1.931,2.3,5.224.456,5.47-3.518.47-1.249,4.629-1.932,6.515a41.812,41.812,0,0,0,7.714-20.808,5.515,5.515,0,0,0,3.278,1.788,8.286,8.286,0,0,0,4.05.347,4.909,4.909,0,0,1-.841-.228c-.124-.02-.249-.036-.373-.067A7.632,7.632,0,0,1,7617.814,4215.885Z" fill="#5a2a1a"/>
          <path id="Trazado_116038" data-name="Trazado 116038" d="M7566.276,4206.912q-2.9,1.367-5.725,2.883a30.2,30.2,0,0,0-6.766,4.578,12.682,12.682,0,0,0-3.485,7.438,13.564,13.564,0,0,1-1.4-9.838,14.623,14.623,0,0,0-2.118,6.021c.049-.245.106-.489.174-.73a3.382,3.382,0,0,0,.16,1.183,14.339,14.339,0,0,0,5.552,7.559,6.167,6.167,0,0,1,.175-6.328,14.878,14.878,0,0,1,4.765-4.579c6.176-4.181,13.142-6.828,19.121-11.284a15.385,15.385,0,0,0,1.412-4.828C7575.332,4202.894,7570.631,4204.861,7566.276,4206.912Z" fill="#5a2a1a"/>
          <path id="Trazado_116039" data-name="Trazado 116039" d="M7576.117,4210.143a34.114,34.114,0,0,1-4.937,4.858,3.241,3.241,0,0,1-1.121,1.016,32.185,32.185,0,0,0,11-10.057,36.057,36.057,0,0,1,1.829-5.563A87.93,87.93,0,0,1,7576.117,4210.143Z" fill="#5a2a1a"/>
        </g>
        <path id="Trazado_116040" data-name="Trazado 116040" d="M7578.836,4202.246a12.754,12.754,0,0,1,2.744-5.552,41.215,41.215,0,0,1,17.435-13.292" fill="none" stroke="#5a2a1a" stroke-linecap="round" stroke-linejoin="round" stroke-width="1" opacity="0.5" style="mix-blend-mode: multiply;isolation: isolate"/>
        <path id="Trazado_116041" data-name="Trazado 116041" d="M7554.233,4208.615c2.654-2.376,5.843-4.135,8.292-6.722q-4.536,2.674-9.163,5.191a26.953,26.953,0,0,0-5.356,3.462,8.55,8.55,0,0,0-2.993,5.476,5.774,5.774,0,0,1,.645-5.263,13.608,13.608,0,0,1,3.975-3.77c3.63-2.5,7.607-4.439,11.4-6.676a34.413,34.413,0,0,0,10.154-8.331,59.576,59.576,0,0,1-9.335,11.894c-2.315,2.281-4.814,4.368-7.163,6.614a19.794,19.794,0,0,0-3.463,4.07,8.11,8.11,0,0,0-1.23,5.116,10.3,10.3,0,0,1,.515-6.047A14.037,14.037,0,0,1,7554.233,4208.615Z" fill="#fff" opacity="0.2"/>
        <path id="Trazado_116042" data-name="Trazado 116042" d="M7564.795,4186.261a28.345,28.345,0,0,1-16.414,14.9,15.319,15.319,0,0,0,10.884-4.638A26.575,26.575,0,0,0,7564.795,4186.261Z" fill="#fff" opacity="0.2"/>
        <path id="Trazado_116043" data-name="Trazado 116043" d="M7569.84,4179.148c-3.639.611-6.867,2.709-9.636,5.148s-5.187,5.254-7.952,7.7-5.987,4.549-9.623,5.176c4.1-.785,8.25-1.417,11.6-3.9,2.213-1.639,3.884-3.883,5.741-5.915A41.368,41.368,0,0,1,7569.84,4179.148Z" fill="#fff" opacity="0.2"/>
        <path id="Trazado_116044" data-name="Trazado 116044" d="M7570.57,4185.091a20.531,20.531,0,0,1,8.627-6.683c3.463-1.255,7.619-1,10.49,1.3a15.02,15.02,0,0,0-10.236,2.15,12.826,12.826,0,0,1,10.489.694c-5.441-.465-11.192,2.054-14.026,6.722a11.888,11.888,0,0,1,7.518-6.987,19.6,19.6,0,0,0-9.9,3.856c1.906-3.444,5.474-5.59,8.944-7.45a25.436,25.436,0,0,0-11.132,7.126c-3.537,3.9-6.036,9.04-10.751,11.377,1.937-.969,3.969-3.508,5.162-5.278C7567.317,4189.613,7568.814,4187.258,7570.57,4185.091Z" fill="#fff" opacity="0.2"/>
        <path id="Trazado_116045" data-name="Trazado 116045" d="M7572.651,4199.235c2.162-2.278,3.946-4.888,6.057-7.212a16.478,16.478,0,0,1,7.691-5.209c-2.981,2.109-5.013,5.264-7.311,8.1a48.531,48.531,0,0,1-20.647,14.85c1.111-.414,2.033-1.493,3.026-2.128,1.33-.851,2.686-1.659,4-2.539A42.072,42.072,0,0,0,7572.651,4199.235Z" fill="#fff" opacity="0.2"/>
      </g>
      <g id="Grupo_109632" data-name="Grupo 109632">
        <g id="Grupo_109625" data-name="Grupo 109625">
          <path id="Trazado_116046" data-name="Trazado 116046" d="M7574.326,4230.3s23.743-8.345,28.882-10.746,6.434,1.77,6.434,1.77,2.951,2.273,2.1-1.99a4.194,4.194,0,0,0-3.288-3.382,6.316,6.316,0,0,0-3.826.262l-31.062,11.845A1.738,1.738,0,0,0,7574.326,4230.3Z" fill="#636eb6"/>
          <g id="Grupo_109624" data-name="Grupo 109624" opacity="0.5" style="mix-blend-mode: multiply;isolation: isolate">
            <path id="Trazado_116047" data-name="Trazado 116047" d="M7610.8,4219.63a4.435,4.435,0,0,0-3.216-2.207,9.368,9.368,0,0,0-4,.315,43.314,43.314,0,0,0-5.4,1.925l-24.519,9.982a2.019,2.019,0,0,0,.66.651s23.743-8.345,28.882-10.746,6.434,1.77,6.434,1.77.94.723,1.606.588A5.072,5.072,0,0,0,7610.8,4219.63Z" fill="#636eb6"/>
          </g>
        </g>
        <g id="Grupo_109631" data-name="Grupo 109631">
          <g id="Grupo_109626" data-name="Grupo 109626">
            <path id="Trazado_116048" data-name="Trazado 116048" d="M7575.253,4235.435c-.113-1.986-.531-3.947-.661-5.923a1.742,1.742,0,0,0-.657-1.043c-.156-.161.359-1.713-5.007-1.713-1.571,0-3.142.038-4.713.057a24.738,24.738,0,0,0-4.492.331,2.71,2.71,0,0,0-1.807,1.2,3.145,3.145,0,0,1-1.015,1.012,2.277,2.277,0,0,1-1.1.346c-1.344.059-2.106-.975-2.773-1.935-3.576.311-7.369.535-10.94.9-.865.089-1.924.338-2.135,1.182a1.985,1.985,0,0,0,.067.954,22.348,22.348,0,0,0,1.464,4.179,42.223,42.223,0,0,0,2.468,4.485c1.581,2.495,6.587,1.883,8.254,1.248a4.112,4.112,0,0,0,3.372-4.927,34.484,34.484,0,0,0-.453-4.429c1.188-.418,1.972.056,2.934.87a11.992,11.992,0,0,1,2.277,3,9.3,9.3,0,0,0,2.407,2.878,8.613,8.613,0,0,0,4.383,1.228,32.621,32.621,0,0,0,3.828.052,7.3,7.3,0,0,0,2.219-.382,3.181,3.181,0,0,0,1.866-1.65A4.308,4.308,0,0,0,7575.253,4235.435Zm-21.126,2.516a1.406,1.406,0,0,1-.24.633,1.455,1.455,0,0,1-.727.409,13.261,13.261,0,0,1-6.05.448,4.055,4.055,0,0,1-2.082-.815,4.491,4.491,0,0,1-.975-1.421,38.893,38.893,0,0,1-1.78-4.119c-.278-.761-1.194-2.385-.355-3.037.91-.709,3.1-.645,4.21-.758a38.083,38.083,0,0,1,4.415-.191,2.6,2.6,0,0,1,2.918,2.451A13.57,13.57,0,0,1,7554.127,4237.951Zm18.955-.466a2.773,2.773,0,0,1-.986.291,19.737,19.737,0,0,1-4.177.351,7.452,7.452,0,0,1-3.952-1.248c-1.258-.9-5.415-7-3.919-7.736,2.059-1.014,4.479-.838,6.765-.639l3.273.284a3.371,3.371,0,0,1,2.081.664,3.127,3.127,0,0,1,.724,1.329,23.537,23.537,0,0,1,.944,3.86C7574,4235.672,7573.979,4236.951,7573.082,4237.485Z" fill="#636eb6"/>
            <path id="Trazado_116049" data-name="Trazado 116049" d="M7572.891,4230.781a3.127,3.127,0,0,0-.724-1.329,3.371,3.371,0,0,0-2.081-.664l-3.273-.284c-2.286-.2-4.706-.375-6.765.639-1.5.737,2.661,6.84,3.919,7.736a7.452,7.452,0,0,0,3.952,1.248,19.737,19.737,0,0,0,4.177-.351,2.773,2.773,0,0,0,.986-.291c.9-.534.915-1.813.753-2.844A23.537,23.537,0,0,0,7572.891,4230.781Z" fill="#fff" opacity="0.5"/>
            <path id="Trazado_116050" data-name="Trazado 116050" d="M7552.045,4229.364a3.377,3.377,0,0,0-1.5-.264,38.083,38.083,0,0,0-4.415.191c-1.112.113-3.3.049-4.21.758-.839.652.077,2.276.355,3.037a38.893,38.893,0,0,0,1.78,4.119,4.491,4.491,0,0,0,.975,1.421,4.055,4.055,0,0,0,2.082.815,13.261,13.261,0,0,0,6.05-.448,1.455,1.455,0,0,0,.727-.409,1.406,1.406,0,0,0,.24-.633,13.57,13.57,0,0,0-.666-6.4A3.4,3.4,0,0,0,7552.045,4229.364Z" fill="#fff" opacity="0.5"/>
          </g>
          <path id="Trazado_116051" data-name="Trazado 116051" d="M7546.623,4232.818c-.939-1.111-1.843-2.254-2.792-3.355a4.274,4.274,0,0,0-1.835.54c2.59,3.27,5.227,6.506,8.051,9.57a13.178,13.178,0,0,0,2.8-.492A55.412,55.412,0,0,1,7546.623,4232.818Z" fill="#fff" opacity="0.5"/>
          <path id="Trazado_116052" data-name="Trazado 116052" d="M7554.259,4235.542a17.656,17.656,0,0,0-.8-3.991,2.6,2.6,0,0,0-2.918-2.451c-.908-.013-1.816.017-2.723.069Q7550.966,4232.428,7554.259,4235.542Z" fill="#fff" opacity="0.5"/>
          <g id="Grupo_109627" data-name="Grupo 109627">
            <path id="Trazado_116053" data-name="Trazado 116053" d="M7561.032,4228.761a70.051,70.051,0,0,0,6.5,9.336c.128.012.256.024.384.03a14.6,14.6,0,0,0,2.429-.1,85.081,85.081,0,0,1-6.973-9.654A9.373,9.373,0,0,0,7561.032,4228.761Z" fill="#fff" opacity="0.5"/>
            <path id="Trazado_116054" data-name="Trazado 116054" d="M7573.835,4234.641c-.088-.564-.2-1.124-.33-1.68q-1.749-2.011-3.327-4.164l-.092-.009-2.968-.258a67.478,67.478,0,0,0,6.454,8.468A3.568,3.568,0,0,0,7573.835,4234.641Z" fill="#fff" opacity="0.5"/>
          </g>
          <g id="Grupo_109629" data-name="Grupo 109629">
            <g id="Grupo_109628" data-name="Grupo 109628" opacity="0.5" style="mix-blend-mode: multiply;isolation: isolate">
              <path id="Trazado_116055" data-name="Trazado 116055" d="M7552.493,4228.822a3.764,3.764,0,0,0-1.665-.293,42.349,42.349,0,0,0-4.9.212c-1.233.126-3.658.054-4.668.84-.929.723.086,2.524.394,3.367a43.365,43.365,0,0,0,1.974,4.568,4.987,4.987,0,0,0,1.08,1.575,4.518,4.518,0,0,0,2.309.9,14.711,14.711,0,0,0,6.708-.5,1.611,1.611,0,0,0,.806-.454,1.55,1.55,0,0,0,.266-.7,15.045,15.045,0,0,0-.738-7.1A3.768,3.768,0,0,0,7552.493,4228.822Zm1.634,9.129a1.406,1.406,0,0,1-.24.633,1.455,1.455,0,0,1-.727.409,13.261,13.261,0,0,1-6.05.448,4.055,4.055,0,0,1-2.082-.815,4.491,4.491,0,0,1-.975-1.421,38.893,38.893,0,0,1-1.78-4.119c-.278-.761-1.194-2.385-.355-3.037.91-.709,3.1-.645,4.21-.758a38.083,38.083,0,0,1,4.415-.191,2.6,2.6,0,0,1,2.918,2.451A13.57,13.57,0,0,1,7554.127,4237.951Z" fill="#636eb6"/>
              <path id="Trazado_116056" data-name="Trazado 116056" d="M7552.493,4228.822a3.764,3.764,0,0,0-1.665-.293,42.349,42.349,0,0,0-4.9.212c-1.233.126-3.658.054-4.668.84-.929.723.086,2.524.394,3.367a43.365,43.365,0,0,0,1.974,4.568,4.987,4.987,0,0,0,1.08,1.575,4.518,4.518,0,0,0,2.309.9,14.711,14.711,0,0,0,6.708-.5,1.611,1.611,0,0,0,.806-.454,1.55,1.55,0,0,0,.266-.7,15.045,15.045,0,0,0-.738-7.1A3.768,3.768,0,0,0,7552.493,4228.822Zm1.634,9.129a1.406,1.406,0,0,1-.24.633,1.455,1.455,0,0,1-.727.409,13.261,13.261,0,0,1-6.05.448,4.055,4.055,0,0,1-2.082-.815,4.491,4.491,0,0,1-.975-1.421,38.893,38.893,0,0,1-1.78-4.119c-.278-.761-1.194-2.385-.355-3.037.91-.709,3.1-.645,4.21-.758a38.083,38.083,0,0,1,4.415-.191,2.6,2.6,0,0,1,2.918,2.451A13.57,13.57,0,0,1,7554.127,4237.951Z" fill="#636eb6" opacity="0.25"/>
            </g>
          </g>
          <g id="Grupo_109630" data-name="Grupo 109630">
            <path id="Trazado_116057" data-name="Trazado 116057" d="M7573.794,4230.414a3.6,3.6,0,0,0-.832-1.527,3.872,3.872,0,0,0-2.39-.762l-3.76-.327c-2.626-.228-5.406-.43-7.772.735-1.718.846,3.057,7.856,4.5,8.886a8.564,8.564,0,0,0,4.54,1.434,22.661,22.661,0,0,0,4.8-.4,3.18,3.18,0,0,0,1.132-.334c1.031-.613,1.051-2.082.866-3.267A27.028,27.028,0,0,0,7573.794,4230.414Zm-.712,7.071a2.773,2.773,0,0,1-.986.291,19.737,19.737,0,0,1-4.177.351,7.452,7.452,0,0,1-3.952-1.248c-1.258-.9-5.415-7-3.919-7.736,2.059-1.014,4.479-.838,6.765-.639l3.273.284a3.371,3.371,0,0,1,2.081.664,3.127,3.127,0,0,1,.724,1.329,23.537,23.537,0,0,1,.944,3.86C7574,4235.672,7573.979,4236.951,7573.082,4237.485Z" fill="#636eb6" opacity="0.5" style="mix-blend-mode: multiply;isolation: isolate"/>
            <path id="Trazado_116058" data-name="Trazado 116058" d="M7573.794,4230.414a3.6,3.6,0,0,0-.832-1.527,3.872,3.872,0,0,0-2.39-.762l-3.76-.327c-2.626-.228-5.406-.43-7.772.735-1.718.846,3.057,7.856,4.5,8.886a8.564,8.564,0,0,0,4.54,1.434,22.661,22.661,0,0,0,4.8-.4,3.18,3.18,0,0,0,1.132-.334c1.031-.613,1.051-2.082.866-3.267A27.028,27.028,0,0,0,7573.794,4230.414Zm-.712,7.071a2.773,2.773,0,0,1-.986.291,19.737,19.737,0,0,1-4.177.351,7.452,7.452,0,0,1-3.952-1.248c-1.258-.9-5.415-7-3.919-7.736,2.059-1.014,4.479-.838,6.765-.639l3.273.284a3.371,3.371,0,0,1,2.081.664,3.127,3.127,0,0,1,.724,1.329,23.537,23.537,0,0,1,.944,3.86C7574,4235.672,7573.979,4236.951,7573.082,4237.485Z" fill="#fff" opacity="0.5" style="mix-blend-mode: multiply;isolation: isolate"/>
          </g>
        </g>
      </g>
      <g id="Grupo_109633" data-name="Grupo 109633">
        <path id="Trazado_116059" data-name="Trazado 116059" d="M7600.218,4224.29a6.257,6.257,0,0,1,1.086-3.308,5.746,5.746,0,0,1,1.9-1.432,6.619,6.619,0,0,1,4.3-.881,5.675,5.675,0,0,1,4,4.432,15.743,15.743,0,0,1-.221,6.258,10.1,10.1,0,0,1-1.116,3.565,6.142,6.142,0,0,1-4.027,2.681c-1.065.217-3.135.4-4.129-.21-.9-.552-.944-1.433-1.2-2.484A25.178,25.178,0,0,1,7600.218,4224.29Z" fill="#ffc59a"/>
        <path id="Trazado_116060" data-name="Trazado 116060" d="M7602.2,4227.85a9.092,9.092,0,0,1,.1-4.5,3.657,3.657,0,0,1,3.36-2.592,4.194,4.194,0,0,1,3.269,2.664,7.476,7.476,0,0,1,.622,2,9.941,9.941,0,0,1-.464,4.415,5.921,5.921,0,0,1-2.1,3.341C7603.312,4235.621,7602.57,4230.1,7602.2,4227.85Z" fill="#f2ab88"/>
      </g>
    </g>
    <g id="Grupo_109637" data-name="Grupo 109637">
      <path id="Trazado_116061" data-name="Trazado 116061" d="M7444.812,4243.673h99.241l14.307,87.975-95.55-8.6Z" fill="#f9fdf8" opacity="0.5"/>
      <g id="Grupo_109635" data-name="Grupo 109635">
        <path id="Trazado_116062" data-name="Trazado 116062" d="M7499.285,4298.257a51.368,51.368,0,0,0,11.813,9.617,27.794,27.794,0,0,0,14.6,3.844,13.9,13.9,0,0,0,4.447-.826,13.393,13.393,0,0,0,6.834-6.772,31.447,31.447,0,0,0,2.537-9.287c.824-5.229-1.806-10.453-5.316-14.415a27.635,27.635,0,0,0-16.516-9.323,23.912,23.912,0,0,0-17.8,4.466c-3.73,2.839-4.836,7.9-9.09,14.2s-11.846,9.059-19.179,4.912-5.716-19.885,5.379-17.882,15.02,12.064,15.02,12.064c.446-1.1,4.4-9.057,4.4-9.057-4.509-5.458-9.721-10.441-16.54-12.345s-14.717-.726-19.92,4.076a13.089,13.089,0,0,0-2.875,3.7c-1.663,3.322-1.442,7.3-.486,10.888a28.169,28.169,0,0,0,4.672,10.062,27.324,27.324,0,0,0,26.518,10.1,16.991,16.991,0,0,0,6.152-2.372,22.5,22.5,0,0,0,5.6-6.036q3.133-4.45,5.846-9.177c1.238-2.156,2.47-4.425,4.476-5.894a11.768,11.768,0,0,1,5.291-1.961c5.36-.783,11.521,1.146,14.012,5.957a12.752,12.752,0,0,1,1.074,9.48,8.836,8.836,0,0,1-6.8,6.165c-3.289.471-6.472-1.31-9.111-3.329a43.143,43.143,0,0,1-9.33-9.817A78.863,78.863,0,0,1,7499.285,4298.257Z" fill="#fff"/>
        <path id="Trazado_116063" data-name="Trazado 116063" d="M7490.794,4289.765c.341-.506.656-1,.96-1.49,2.021-3.254,3.284-6.133,4.653-8.487a13.755,13.755,0,0,1,3.477-4.227,23.555,23.555,0,0,1,14.316-4.707,53.286,53.286,0,0,1,6.128,10.066,16.471,16.471,0,0,0-5.171-.076,11.768,11.768,0,0,0-5.291,1.961c-2.006,1.469-3.238,3.738-4.476,5.894-.12.211-.247.417-.369.626q-.6,1.024-1.211,2.039-2.027,3.324-4.266,6.512a22.5,22.5,0,0,1-5.6,6.036,16.991,16.991,0,0,1-6.152,2.372,25.237,25.237,0,0,1-4.892.476,48.456,48.456,0,0,0-3.171-10.15A14.862,14.862,0,0,0,7490.794,4289.765Z" fill="#636eb6"/>
      </g>
      <g id="Grupo_109636" data-name="Grupo 109636">
        <path id="Trazado_116064" data-name="Trazado 116064" d="M7451.823,4247.051a1.326,1.326,0,1,1-1.326-1.326A1.326,1.326,0,0,1,7451.823,4247.051Z" fill="#fff"/>
        <circle id="Elipse_4870" data-name="Elipse 4870" cx="1.326" cy="1.326" r="1.326" transform="translate(7455.801 4245.725)" fill="#fff"/>
        <circle id="Elipse_4871" data-name="Elipse 4871" cx="1.326" cy="1.326" r="1.326" transform="translate(7462.917 4245.725)" fill="#fff"/>
      </g>
    </g>
    <g id="Grupo_109640" data-name="Grupo 109640">
      <path id="Trazado_116065" data-name="Trazado 116065" d="M7526.781,4406.211v7.749h78.3v-33.566Z" fill="#636eb6"/>
      <path id="Trazado_116066" data-name="Trazado 116066" d="M7526.781,4406.211v7.749h78.3v-33.566Z" fill="#636eb6" opacity="0.25" style="mix-blend-mode: multiply;isolation: isolate"/>
      <g id="Grupo_109638" data-name="Grupo 109638">
        <path id="Trazado_116067" data-name="Trazado 116067" d="M7605.083,4380.394l-77.632,25.6c.015.186.027.374.043.559q17.427-1.954,34.96-2.712c3.825-.165,7.76-.271,11.365,1.021a44.362,44.362,0,0,0,4.966,1.882c3.565.814,7.509-.541,10.852.94,3.82,1.691,5.273-1.034,5.515,3.137.06,1.045.069,2.094.052,3.144h9.879Z" fill="#636eb6" opacity="0.25" style="mix-blend-mode: multiply;isolation: isolate"/>
      </g>
      <path id="Trazado_116068" data-name="Trazado 116068" d="M7352.431,4384.757v29.2h174.35V4399.9Z" fill="#636eb6"/>
      <path id="Trazado_116069" data-name="Trazado 116069" d="M7352.431,4384.757v29.2h174.35V4399.9Z" fill="#636eb6" opacity="0.5" style="mix-blend-mode: multiply;isolation: isolate"/>
      <path id="Trazado_116070" data-name="Trazado 116070" d="M7335.129,4377.227l137.153-21.6,156.476,24.763L7526.781,4398.8Z" fill="#636eb6"/>
      <g id="Grupo_109639" data-name="Grupo 109639" opacity="0.5" style="mix-blend-mode: multiply;isolation: isolate">
        <path id="Trazado_116071" data-name="Trazado 116071" d="M7481.867,4357.147a25.65,25.65,0,0,1,3.439,10.157c.107,1.441.048,2.987.83,4.2s2.85,1.683,3.6.447c.316,2.149,2.4,3.709,4.544,4.05a12.428,12.428,0,0,0,6.348-1.075,41.271,41.271,0,0,0,9.247-5.027c1.148,3.146,5.268,4.544,8.38,3.307,1.794-.712,3.3-2.109,5.181-2.547,2.536-.589,5.082.679,7.48,1.691a41.8,41.8,0,0,0,16.881,3.271,15.514,15.514,0,0,1,5.144.382,13.1,13.1,0,0,1,3.812,2.325c4.288,3.343,8.646,6.761,11.721,11.246.341.5.66,1.008.972,1.523l59.314-10.705Z" fill="#636eb6"/>
      </g>
      <path id="Trazado_116072" data-name="Trazado 116072" d="M7526.781,4406.211V4398.8l-191.652-21.573v7.53Z" fill="#636eb6"/>
      <path id="Trazado_116073" data-name="Trazado 116073" d="M7526.781,4398.8l101.978-18.406v7.179l-101.978,18.639Z" fill="#636eb6"/>
      <path id="Trazado_116074" data-name="Trazado 116074" d="M7526.781,4406.211V4398.8l-191.652-21.573v7.53Z" fill="#fff" opacity="0.5"/>
      <path id="Trazado_116075" data-name="Trazado 116075" d="M7526.781,4398.8l101.978-18.406v7.179l-101.978,18.639Z" fill="#fff" opacity="0.2"/>
    </g>
    <path id="Trazado_116076" data-name="Trazado 116076" d="M7371.937,4375.943l129.814,16.144,69.058-13.379-118.021-21.871Z" fill="#636eb6" opacity="0.5" style="mix-blend-mode: multiply;isolation: isolate"/>
    <g id="Grupo_109648" data-name="Grupo 109648">
      <path id="Trazado_116077" data-name="Trazado 116077" d="M7497.782,4379.475l62.968-8.551-4.127,3.233a24.764,24.764,0,0,1-11.633,5l-47.054,6.976" fill="#727272"/>
      <path id="Trazado_116078" data-name="Trazado 116078" d="M7560.75,4370.924l-101.16-11.494-67.354,10.912,105.547,9.132Z" fill="#414141"/>
      <path id="Trazado_116079" data-name="Trazado 116079" d="M7560.75,4370.924l-101.16-11.494-67.354,10.912,105.547,9.132Z" fill="#414141" opacity="0.5" style="mix-blend-mode: multiply;isolation: isolate"/>
      <path id="Trazado_116080" data-name="Trazado 116080" d="M7497.76,4377.227l45.943-6.884-83.924-7.85-41.866,6.063Z" fill="#414141"/>
      <path id="Trazado_116081" data-name="Trazado 116081" d="M7497.76,4377.227l45.943-6.884-83.924-7.85-41.866,6.063Z" fill="#fff" opacity="0.5"/>
      <g id="Grupo_109646" data-name="Grupo 109646">
        <path id="Trazado_116082" data-name="Trazado 116082" d="M7489.494,4347.535c2.789-.912,5.8-1.107,8.482-2.3a10.888,10.888,0,0,1,2.757-1.063,7,7,0,0,1,4.524,1.426c2.26,1.408,4.538,3.236,5.159,5.825.558,2.327-.365,4.768-1.646,6.789a14.04,14.04,0,0,1-2.384,2.905,20.342,20.342,0,0,1-5.04,3.077c-1.935.92-4.031,1.822-6.148,1.491-2.982-.465-5.038-3.188-6.511-5.822-1.23-2.2-2.934-4.95-3.353-7.471C7484.92,4349.9,7487.452,4348.2,7489.494,4347.535Z" fill="#ffc59a"/>
        <g id="Grupo_109641" data-name="Grupo 109641">
          <path id="Trazado_116083" data-name="Trazado 116083" d="M7508.235,4347.855a8.154,8.154,0,0,0-.906.292,16.717,16.717,0,0,0-4.289,2.83l-13.119,10.75c-.017.014-.033.025-.05.038,1.344,1.922,3.07,3.568,5.327,3.92,2.117.331,4.213-.571,6.148-1.491a20.342,20.342,0,0,0,5.04-3.077,14.04,14.04,0,0,0,2.384-2.905c1.281-2.021,2.2-4.462,1.646-6.789A7.457,7.457,0,0,0,7508.235,4347.855Z" fill="#f2ab88"/>
        </g>
        <g id="Grupo_109642" data-name="Grupo 109642">
          <path id="Trazado_116084" data-name="Trazado 116084" d="M7501.308,4349.558q1.783,6.432,3.2,12.958a13.287,13.287,0,0,0,1.876-1.4c.048-.043.091-.091.138-.135a32.3,32.3,0,0,1-3.871-11.5C7502.445,4349.988,7501.692,4349.952,7501.308,4349.558Z" fill="#f2ab88"/>
          <path id="Trazado_116085" data-name="Trazado 116085" d="M7492.831,4352.839a59.113,59.113,0,0,1,4.658,12.774,12.192,12.192,0,0,0,2.26-.7c-2.165-4.15-3.246-8.851-4.28-13.451A2.273,2.273,0,0,1,7492.831,4352.839Z" fill="#f2ab88"/>
        </g>
        <g id="Grupo_109643" data-name="Grupo 109643">
          <path id="Trazado_116086" data-name="Trazado 116086" d="M7488.156,4348.1c-1.649.863-3.148,2.331-2.822,4.289.419,2.521,2.123,5.27,3.353,7.47,1.38,2.467,3.27,5.012,5.954,5.708a66.865,66.865,0,0,0-4.433-14.353A8.9,8.9,0,0,0,7488.156,4348.1Z" fill="#f2ab88"/>
        </g>
        <g id="Grupo_109645" data-name="Grupo 109645">
          <path id="Trazado_116087" data-name="Trazado 116087" d="M7491.547,4360.347a3.056,3.056,0,0,1,.256,2.165,2.066,2.066,0,0,1-2.572.939,5.576,5.576,0,0,1-2.321-1.873,31.6,31.6,0,0,1-5.645-9.244,5.762,5.762,0,0,1-.46-2.18,2.336,2.336,0,0,1,.989-1.914c1.942-1.2,5,1.655,6.131,3.1a14.629,14.629,0,0,1,1.662,3.846Z" fill="#ffc59a"/>
          <g id="Grupo_109644" data-name="Grupo 109644">
            <path id="Trazado_116088" data-name="Trazado 116088" d="M7490.729,4359.821a3.441,3.441,0,0,0-1.481-1.233,1.275,1.275,0,0,0-1.624.66,1.758,1.758,0,0,0,0,.794,13.623,13.623,0,0,0,.884,3.056,3.233,3.233,0,0,0,.723.353,1.829,1.829,0,0,0,2.622-2.133C7491.492,4360.809,7491.12,4360.308,7490.729,4359.821Z" fill="#f9fdf8"/>
          </g>
        </g>
      </g>
      <g id="Grupo_109647" data-name="Grupo 109647" opacity="0.5" style="mix-blend-mode: multiply;isolation: isolate">
        <path id="Trazado_116089" data-name="Trazado 116089" d="M7560.75,4370.924l-76.565-8.7a19.567,19.567,0,0,1,1.121,5.079c.107,1.441.048,2.987.83,4.2s2.85,1.683,3.6.447c.316,2.149,2.4,3.709,4.544,4.05a12.428,12.428,0,0,0,6.348-1.075,41.271,41.271,0,0,0,9.247-5.027c1.148,3.146,5.268,4.544,8.38,3.307,1.794-.712,3.3-2.109,5.181-2.547,2.536-.589,5.082.679,7.48,1.691a41.8,41.8,0,0,0,16.881,3.271,15.514,15.514,0,0,1,5.144.382c.194.064.383.138.57.218a24.854,24.854,0,0,0,3.114-2.066Z" fill="#414141" opacity="0.5"/>
      </g>
    </g>
    <g id="Grupo_109649" data-name="Grupo 109649">
      <path id="Trazado_116090" data-name="Trazado 116090" d="M7576.631,4392.081a10.651,10.651,0,0,1-1.114-3.8,45.875,45.875,0,0,1,2.687-23.309c.343-.874.833-1.846,1.784-2.1,1.2-.314,2.3.705,3.007,1.672,5.275,7.217,5.4,17.086,1.754,25.152C7583.264,4392.993,7579.306,4396.763,7576.631,4392.081Z" fill="url(#linear-gradient)"/>
      <path id="Trazado_116091" data-name="Trazado 116091" d="M7576.631,4392.081a10.651,10.651,0,0,1-1.114-3.8,45.875,45.875,0,0,1,2.687-23.309c.343-.874.833-1.846,1.784-2.1,1.2-.314,2.3.705,3.007,1.672,5.275,7.217,5.4,17.086,1.754,25.152C7583.264,4392.993,7579.306,4396.763,7576.631,4392.081Z" fill="url(#linear-gradient)" style="mix-blend-mode: multiply;isolation: isolate"/>
    </g>
    <path id="Trazado_116092" data-name="Trazado 116092" d="M7610.516,4369.9c2.557.27,5.128.384,7.68.7a49.9,49.9,0,0,1,31.281,16.659,19.555,19.555,0,0,1,3.868,6.091,2.736,2.736,0,0,1,.084,2.143,2.91,2.91,0,0,1-1.214,1.069c-8.444,4.881-18.639,5.563-28.388,5.3-9.989-.273-20.167-1.473-29.2-5.757a5.3,5.3,0,0,1-3.743-5.412c-.572-6.559-.19-14.8,2.753-20.838,1.268-2.6,2.966-2.464,5.556-1.939C7602.962,4368.675,7606.691,4369.5,7610.516,4369.9Z" fill="url(#linear-gradient)"/>
    <g id="Grupo_109666" data-name="Grupo 109666">
      <path id="Trazado_116093" data-name="Trazado 116093" d="M7589.378,4387.347a4.488,4.488,0,0,0,2.94-2.665,9.115,9.115,0,0,0,.578-4.039,23.469,23.469,0,0,0-2.3-8.823,19.025,19.025,0,0,0-3.831-5.648,22.009,22.009,0,0,0-7.214-4.34c-5.191-2.107-10.687-3.359-15.964-5.24-2.259-.8-4.483-1.727-6.809-2.314a49.309,49.309,0,0,0-6.65-1.044l-33.4-3.695c-.609.473-1.464.869-1.607,1.627a3.245,3.245,0,0,0,.746,2.245,48.57,48.57,0,0,0,6.3,8.375c3.332,3.308,7.542,5.576,11.777,7.6a29.648,29.648,0,0,0,4.81,1.934,32.708,32.708,0,0,0,8.922.774l9.481-.051c7.466,6.028,14.7,9.859,22.792,13.708C7582.679,4387.053,7586.432,4388.034,7589.378,4387.347Z" fill="#ffc59a"/>
      <g id="Grupo_109650" data-name="Grupo 109650">
        <path id="Trazado_116094" data-name="Trazado 116094" d="M7592.9,4380.643a23.469,23.469,0,0,0-2.3-8.823,19.025,19.025,0,0,0-3.831-5.648,22.009,22.009,0,0,0-7.214-4.34q-.966-.392-1.944-.747a17.43,17.43,0,0,1,1.852,4.625,24.427,24.427,0,0,1-1.1,14.585,29.034,29.034,0,0,1-1.817,3.81q1.679.83,3.4,1.648c2.732,1.3,6.485,2.281,9.431,1.594a4.488,4.488,0,0,0,2.94-2.665A9.115,9.115,0,0,0,7592.9,4380.643Z" fill="#f2ab88"/>
      </g>
      <g id="Grupo_109651" data-name="Grupo 109651">
        <path id="Trazado_116095" data-name="Trazado 116095" d="M7553.454,4370.025c-3.875-1.139-8.131-.813-11.843-2.406a38.885,38.885,0,0,1-5.156-3.084c-2.273-1.426-4.71-2.569-7.059-3.865a102.353,102.353,0,0,1-14.153-9.833,1.151,1.151,0,0,0-.121.329,3.245,3.245,0,0,0,.746,2.245,48.57,48.57,0,0,0,6.3,8.375c3.332,3.308,7.542,5.576,11.777,7.6a29.648,29.648,0,0,0,4.81,1.934,32.708,32.708,0,0,0,8.922.774l9.481-.051.051.041c-.145-.144-.285-.293-.443-.424A9.177,9.177,0,0,0,7553.454,4370.025Z" fill="#f2ab88"/>
      </g>
      <g id="Grupo_109665" data-name="Grupo 109665">
        <g id="Grupo_109653" data-name="Grupo 109653">
          <path id="Trazado_116096" data-name="Trazado 116096" d="M7510.488,4349.832a10.887,10.887,0,0,1-1.157-7.575c.166-.684.509-1.441,1.191-1.616a2.193,2.193,0,0,1,1.878.814c3.543,3.286,6.574,7.173,10.579,9.876,2.067,1.394,4.447,2.528,5.807,4.618a1.084,1.084,0,0,1,.216.54.966.966,0,0,1-.279.629,4.1,4.1,0,0,1-2.763,1.181C7519.9,4358.914,7513.312,4355.127,7510.488,4349.832Z" fill="#ffc59a"/>
          <g id="Grupo_109652" data-name="Grupo 109652">
            <path id="Trazado_116097" data-name="Trazado 116097" d="M7528.786,4355.949c-1.36-2.09-3.74-3.224-5.807-4.618a34.291,34.291,0,0,1-4.878-4.142,6.269,6.269,0,0,1-4.635.951,7.815,7.815,0,0,1-4.32-2.617,11.949,11.949,0,0,0,1.342,4.309c2.824,5.295,9.41,9.082,15.472,8.467a4.1,4.1,0,0,0,2.763-1.181.966.966,0,0,0,.279-.629A1.084,1.084,0,0,0,7528.786,4355.949Z" fill="#f2ab88"/>
          </g>
        </g>
        <g id="Grupo_109656" data-name="Grupo 109656">
          <path id="Trazado_116098" data-name="Trazado 116098" d="M7487.336,4367.9a2.775,2.775,0,0,0,2.788,1.816,6.567,6.567,0,0,0,3.312-1.257,73.369,73.369,0,0,0,7.705-6.4c2.572-2.209,5.331-4.187,8.051-6.21a3.872,3.872,0,0,0,1.125-1.107c1.066-1.865-1.039-3.646-2.77-3.734-1.64-.084-2.688,1.517-3.847,2.476-3.586,2.967-7.28,5.806-10.76,8.9A69.438,69.438,0,0,0,7487.336,4367.9Z" fill="#ffc59a"/>
          <g id="Grupo_109655" data-name="Grupo 109655">
            <path id="Trazado_116099" data-name="Trazado 116099" d="M7507.547,4351.013c-1.64-.084-2.688,1.517-3.847,2.476-1.78,1.473-3.588,2.915-5.382,4.372a35.052,35.052,0,0,0-3.634,5.1,14.172,14.172,0,0,0-1.863,5.876c.208-.12.414-.245.615-.374a73.369,73.369,0,0,0,7.705-6.4c2.572-2.209,5.331-4.187,8.051-6.21a3.872,3.872,0,0,0,1.125-1.107C7511.383,4352.882,7509.278,4351.1,7507.547,4351.013Z" fill="#f2ab88"/>
            <g id="Grupo_109654" data-name="Grupo 109654">
              <path id="Trazado_116100" data-name="Trazado 116100" d="M7491.594,4365.536a5.414,5.414,0,0,0-.39-1.55l0-.008c-1.34,1.256-2.639,2.556-3.865,3.923a2.355,2.355,0,0,0,1.246,1.447,7.384,7.384,0,0,0,1.546-.936A3.65,3.65,0,0,0,7491.594,4365.536Z" fill="#f9fdf8"/>
            </g>
          </g>
        </g>
        <g id="Grupo_109659" data-name="Grupo 109659">
          <path id="Trazado_116101" data-name="Trazado 116101" d="M7514.551,4356.35a82.04,82.04,0,0,0-10.341,6.834,13.606,13.606,0,0,0-2.863,2.753c-1.66,2.341-1.866,5.506-4.484,7.346a3.38,3.38,0,0,1-2.237.541.8.8,0,0,1-.546-.2.856.856,0,0,1-.089-.735l1.5-8.212a5.471,5.471,0,0,1,1.022-2.326c2.4-3.161,5.383-7.085,8.284-10.391a4.578,4.578,0,0,1,4.491-2.053c4.27.025,17.97,1.318,22.012,2.693.722.246-.256,4.2-.01,4.926.334.976-8.1-2.9-8.959-2.332A10.026,10.026,0,0,1,7514.551,4356.35Z" fill="#ffc59a"/>
          <g id="Grupo_109657" data-name="Grupo 109657">
            <path id="Trazado_116102" data-name="Trazado 116102" d="M7528.05,4353.211a34.633,34.633,0,0,0-7.057-1.69q-2.558-.414-5.123-.778c-1.307-.186-2.919-.434-4.038.268a40.312,40.312,0,0,0-7.8,6.767,31.383,31.383,0,0,0-3.158,3.8c-2.411,3.546-3.514,7.782-4.486,11.972a2.778,2.778,0,0,0,.475-.265c2.618-1.84,2.824-5.005,4.484-7.346a13.606,13.606,0,0,1,2.863-2.753,82.04,82.04,0,0,1,10.341-6.834,10.026,10.026,0,0,0,7.782-1.156c.864-.564,9.293,3.308,8.959,2.332a11.223,11.223,0,0,1,.179-2.6A22,22,0,0,0,7528.05,4353.211Z" fill="#f2ab88"/>
          </g>
          <g id="Grupo_109658" data-name="Grupo 109658">
            <path id="Trazado_116103" data-name="Trazado 116103" d="M7496.4,4368.939a1.4,1.4,0,0,0-.4-.935,1.214,1.214,0,0,0-1.093-.157l-.922,5.041a.858.858,0,0,0,.089.736.8.8,0,0,0,.546.2,3.985,3.985,0,0,0,.74-.014l.158-.431A9.82,9.82,0,0,0,7496.4,4368.939Z" fill="#f9fdf8"/>
          </g>
          <path id="Trazado_116104" data-name="Trazado 116104" d="M7501.161,4366.242a4.858,4.858,0,0,0-2.444-3.237" fill="none" stroke="#ce7b5b" stroke-linecap="round" stroke-linejoin="round" stroke-width="1"/>
        </g>
        <g id="Grupo_109662" data-name="Grupo 109662">
          <path id="Trazado_116105" data-name="Trazado 116105" d="M7540.344,4363.492a1.984,1.984,0,0,0,.6-2.425,9.764,9.764,0,0,0-4.153-4.187,26.928,26.928,0,0,0-7-2.337c-4.263-1-8.617-1.975-12.91-2.967a5.761,5.761,0,0,0-5.171,1.316c-.445.4-.875.825-1.3,1.245l-4.671,4.6a21.318,21.318,0,0,0-5.005,6.664q-1.488,2.738-2.977,5.477c.044.327.224.3.513.459a3.426,3.426,0,0,0,5-.782,24.806,24.806,0,0,0,3.788-4.147,5.021,5.021,0,0,1,1.473-1.428c2.756-1.746,5.491-3.279,8.311-4.912a2,2,0,0,1,1.1-.275c5.852.3,11.108,3.1,16.856,4.405a9.317,9.317,0,0,0,3.376.283A5.173,5.173,0,0,0,7540.344,4363.492Z" fill="#ffc59a"/>
          <g id="Grupo_109660" data-name="Grupo 109660">
            <path id="Trazado_116106" data-name="Trazado 116106" d="M7526.851,4355.874c-1.929.525-3.8,1.294-5.765,1.642-1.92.339-3.93.216-5.778.838a14.954,14.954,0,0,0-4.213,2.557,41.616,41.616,0,0,0-7.33,6.628c-1.242,1.547-2.339,3.322-3.9,4.483a2.652,2.652,0,0,0,.615.068,4.535,4.535,0,0,0,2.794-1.534,24.806,24.806,0,0,0,3.788-4.147,5.021,5.021,0,0,1,1.473-1.428c2.756-1.746,5.491-3.279,8.311-4.912a2,2,0,0,1,1.1-.275c5.852.3,11.108,3.1,16.856,4.405a9.317,9.317,0,0,0,3.376.283,5.173,5.173,0,0,0,2.171-.99,1.981,1.981,0,0,0,.686-2.19C7537.876,4358.478,7532.317,4354.387,7526.851,4355.874Z" fill="#f2ab88"/>
          </g>
          <path id="Trazado_116107" data-name="Trazado 116107" d="M7515.932,4360.357a2.7,2.7,0,0,0,1.207-2.472,12.354,12.354,0,0,0-.6-2.824" fill="none" stroke="#ce7b5b" stroke-linecap="round" stroke-linejoin="round" stroke-width="1"/>
          <path id="Trazado_116108" data-name="Trazado 116108" d="M7507.521,4365.764a5.184,5.184,0,0,0-1.28-4.41" fill="none" stroke="#ce7b5b" stroke-linecap="round" stroke-linejoin="round" stroke-width="1"/>
          <g id="Grupo_109661" data-name="Grupo 109661">
            <path id="Trazado_116109" data-name="Trazado 116109" d="M7501.706,4368.561a1.866,1.866,0,0,0-.618-1.9,1.589,1.589,0,0,0-.893-.266l-2.435,4.479c.044.327.224.3.513.459a6.726,6.726,0,0,0,1.48.655q.515-.776,1.028-1.551A5.479,5.479,0,0,0,7501.706,4368.561Z" fill="#f9fdf8"/>
          </g>
        </g>
        <g id="Grupo_109664" data-name="Grupo 109664">
          <path id="Trazado_116110" data-name="Trazado 116110" d="M7539.51,4367.075a42.706,42.706,0,0,1-9.055-3.892,55.152,55.152,0,0,1-5.714,2.445c-1.5.537-2.352,2.268-3.636,3.2a7.286,7.286,0,0,1-2.964,1.461,2.953,2.953,0,0,1-2.96-1.079c2.361-2.873,3.614-6.643,6.444-9.057a19.891,19.891,0,0,1,4.385-2.6,8.233,8.233,0,0,1,3.676-1.1c4.6.116,8.617,3.153,12.358,5.838a3.416,3.416,0,0,1,1.645,2.1,2.362,2.362,0,0,1-1.222,2.195A4.3,4.3,0,0,1,7539.51,4367.075Z" fill="#ffc59a"/>
          <path id="Trazado_116111" data-name="Trazado 116111" d="M7523.711,4366.116a5.236,5.236,0,0,0-.514-2.985" fill="none" stroke="#ce7b5b" stroke-linecap="round" stroke-linejoin="round" stroke-width="1"/>
          <path id="Trazado_116112" data-name="Trazado 116112" d="M7530.433,4363.173a3.522,3.522,0,0,0,.309-1.213,8.01,8.01,0,0,0-.269-2.361" fill="none" stroke="#ce7b5b" stroke-linecap="round" stroke-linejoin="round" stroke-width="1"/>
          <g id="Grupo_109663" data-name="Grupo 109663">
            <path id="Trazado_116113" data-name="Trazado 116113" d="M7518.236,4366.989a2.412,2.412,0,0,0-.356-1.891,32.172,32.172,0,0,1-2.7,4.116,2.332,2.332,0,0,0,.882.777c.229-.21.456-.422.674-.644A5.159,5.159,0,0,0,7518.236,4366.989Z" fill="#f9fdf8"/>
          </g>
        </g>
      </g>
    </g>
    <path id="Trazado_116114" data-name="Trazado 116114" d="M7577.511,4393.413a24.414,24.414,0,0,0,3.589-31.523,26.71,26.71,0,0,0,9.523,3.584c2.657.445,5.471.082,7.983,1.056a10.056,10.056,0,0,1,5.507,6.023,20.17,20.17,0,0,1,.9,8.3,41.386,41.386,0,0,1-3.813,14.8,4.35,4.35,0,0,1-.944,1.444,4.169,4.169,0,0,1-1.541.773A22.2,22.2,0,0,1,7577.511,4393.413Z" fill="#fc87bb"/>
    <path id="Trazado_116115" data-name="Trazado 116115" d="M7577.511,4393.413a24.414,24.414,0,0,0,3.589-31.523,26.71,26.71,0,0,0,9.523,3.584c2.657.445,5.471.082,7.983,1.056a10.056,10.056,0,0,1,5.507,6.023,20.17,20.17,0,0,1,.9,8.3,41.386,41.386,0,0,1-3.813,14.8,4.35,4.35,0,0,1-.944,1.444,4.169,4.169,0,0,1-1.541.773A22.2,22.2,0,0,1,7577.511,4393.413Z" fill="url(#linear-gradient)"/>
    <g id="Grupo_109668" data-name="Grupo 109668">
      <path id="Trazado_116116" data-name="Trazado 116116" d="M7367,4283.561l7.862-2.743a.282.282,0,0,1,.09-.015h90.552a6.6,6.6,0,0,1,6.484,5.346c3.5,18.071,16.632,77.19,17.474,80.514,1,3.942.5,14.528-7.934,14.475-7.208-.046-87.981-13.53-92.24-14.207a.273.273,0,0,1-.22-.2l-22.242-82.841A.274.274,0,0,1,7367,4283.561Z" fill="#414141"/>
      <path id="Trazado_116117" data-name="Trazado 116117" d="M7366.765,4283.645h93.67a8.5,8.5,0,0,1,8.275,6.559c4.743,20.253,18.732,80.643,17.7,83.97-1.244,4-2.2,5.177-6.552,4.589s-86.191-7.19-88.653-7.205-4.926-3.62-7.009-11.194S7366.765,4283.645,7366.765,4283.645Z" fill="#727272"/>
      <path id="Trazado_116118" data-name="Trazado 116118" d="M7392.235,4370.343s-1.6,1.759.673,4.8,3.978,2.279,3.978,2.279l101.05,8.714-.154-6.656Z" fill="#414141"/>
      <path id="Trazado_116119" data-name="Trazado 116119" d="M7401.786,4378.769a9.618,9.618,0,0,1-3.042-5.3c-.3-1.52-.111-3.335,1.141-4.247,1.2.217,2.233.488,3.428.705a6.769,6.769,0,0,0,2.808,8.674A5.878,5.878,0,0,1,7401.786,4378.769Z" fill="#727272"/>
      <path id="Trazado_116120" data-name="Trazado 116120" d="M7481.939,4376.844a5.6,5.6,0,0,0-1.678,4.764,7.5,7.5,0,0,0,2.423,4.532c-1.9-.109-4.075.646-5.641-.428a7.811,7.811,0,0,1-2.88-5.278c-.271-1.6-.1-3.6,1.34-4.349A34.142,34.142,0,0,0,7481.939,4376.844Z" fill="#727272"/>
      <path id="Trazado_116121" data-name="Trazado 116121" d="M7378.61,4288.149H7459.4a4.956,4.956,0,0,1,4.829,3.823c3.7,15.761,17.5,75.007,16.521,78.145-1.126,3.623-1.991,4.688-5.932,4.155s-78.041-6.51-80.271-6.523-4.46-3.278-6.346-10.136c-1.527-5.547-10.908-47.568-14.439-63.429A4.958,4.958,0,0,1,7378.61,4288.149Z" fill="#f9fdf8" opacity="0.2"/>
      <g id="Grupo_109667" data-name="Grupo 109667" opacity="0.5">
        <ellipse id="Elipse_4872" data-name="Elipse 4872" cx="6.661" cy="8.982" rx="6.661" ry="8.982" transform="translate(7413.125 4324.03) rotate(-11.027)" fill="none" stroke="#f9fdf8" stroke-linecap="round" stroke-linejoin="round" stroke-width="3"/>
      </g>
    </g>
  </g>
</svg>
