<svg xmlns="http://www.w3.org/2000/svg" width="190" height="110" viewBox="0 0 190 110">
  <g id="Group_133287" data-name="Group 133287" transform="translate(-180 -2590)">
    <rect id="Rectangle_41429" data-name="Rectangle 41429" width="190" height="110" transform="translate(180 2590)" fill="none"/>
    <rect id="Rectangle_41430" data-name="Rectangle 41430" width="85" height="28" rx="14" transform="translate(285 2598)" fill="#feca2e" opacity="0.2"/>
    <rect id="Rectangle_41431" data-name="Rectangle 41431" width="85" height="28" rx="14" transform="translate(180 2659)" fill="#4dd0e1" opacity="0.2"/>
    <path id="Path_191222" data-name="Path 191222" d="M-2251.21,2497.086a.473.473,0,0,1-.3.6.474.474,0,0,1-.151.025.472.472,0,0,1-.447-.321,45.135,45.135,0,0,1-1.41-5.152.472.472,0,0,1,.365-.559.473.473,0,0,1,.56.365A44.322,44.322,0,0,0-2251.21,2497.086Zm28.849,28.233a44.536,44.536,0,0,1-4.893-1.863.474.474,0,0,0-.625.237.473.473,0,0,0,.237.625,45.39,45.39,0,0,0,5,1.9.48.48,0,0,0,.142.022.473.473,0,0,0,.451-.331A.472.472,0,0,0-2222.361,2525.32Zm-9.531-4.288a44.647,44.647,0,0,1-4.322-2.953.473.473,0,0,0-.663.085.472.472,0,0,0,.085.663,45.769,45.769,0,0,0,4.413,3.015.471.471,0,0,0,.243.068.474.474,0,0,0,.406-.229A.473.473,0,0,0-2231.892,2521.031Zm19.8,6.224a44.656,44.656,0,0,1-5.19-.665.471.471,0,0,0-.552.377.472.472,0,0,0,.377.551,45.544,45.544,0,0,0,5.3.679h.033a.472.472,0,0,0,.471-.44A.472.472,0,0,0-2212.092,2527.256Zm-31.589-16.487a.473.473,0,0,0-.665-.071.473.473,0,0,0-.071.665,46.048,46.048,0,0,0,3.593,3.955.473.473,0,0,0,.331.135.472.472,0,0,0,.337-.142.472.472,0,0,0-.007-.668A45.112,45.112,0,0,1-2243.68,2510.769Zm-5.565-8.837a.473.473,0,0,0-.63-.224.472.472,0,0,0-.223.63,45.525,45.525,0,0,0,2.576,4.679.471.471,0,0,0,.4.221.476.476,0,0,0,.252-.072.473.473,0,0,0,.148-.652A44.564,44.564,0,0,1-2249.245,2501.931Zm85.216-22.013a.473.473,0,0,0-.447.5c.042.788.063,1.588.063,2.378,0,1.388-.065,2.789-.192,4.162a.472.472,0,0,0,.427.514.389.389,0,0,0,.044,0,.472.472,0,0,0,.47-.429c.13-1.4.2-2.833.2-4.25,0-.807-.021-1.624-.064-2.428A.47.47,0,0,0-2164.03,2479.918Zm-1.084,13.142a.472.472,0,0,0-.571.347,44.5,44.5,0,0,1-2.017,6.22.473.473,0,0,0,.259.616.474.474,0,0,0,.178.035.473.473,0,0,0,.438-.294,45.421,45.421,0,0,0,2.06-6.354A.472.472,0,0,0-2165.114,2493.06Zm-81.595-34.886a.473.473,0,0,0,.262.08.472.472,0,0,0,.393-.21,44.924,44.924,0,0,1,3.039-4.03.471.471,0,0,0-.055-.665.472.472,0,0,0-.666.055,45.923,45.923,0,0,0-3.1,4.115A.473.473,0,0,0-2246.709,2458.173Zm6.843-7.694a.474.474,0,0,0,.324-.128,44.9,44.9,0,0,1,3.861-3.249.473.473,0,0,0,.1-.662.474.474,0,0,0-.662-.095,45.993,45.993,0,0,0-3.943,3.317.472.472,0,0,0-.02.668A.471.471,0,0,0-2239.866,2450.48Zm17.464-10.222a.477.477,0,0,0,.14-.021,44.329,44.329,0,0,1,4.894-1.224.473.473,0,0,0,.376-.552.474.474,0,0,0-.553-.376,45.365,45.365,0,0,0-5,1.251.472.472,0,0,0-.31.591A.472.472,0,0,0-2222.4,2440.258Zm10-1.9h.036a45.431,45.431,0,0,1,5.046-.1h.018a.472.472,0,0,0,.472-.455.473.473,0,0,0-.454-.49,46.323,46.323,0,0,0-5.153.1.472.472,0,0,0-.436.507A.472.472,0,0,0-2212.4,2438.353Zm-19.313,6.021a.465.465,0,0,0,.238-.065,44.681,44.681,0,0,1,4.491-2.3.472.472,0,0,0,.241-.623.473.473,0,0,0-.623-.241,45.689,45.689,0,0,0-4.587,2.348.472.472,0,0,0-.169.646A.472.472,0,0,0-2231.715,2444.374Zm-4.213,56.191a5.142,5.142,0,0,1-.146,1.2,5.175,5.175,0,0,1-5.025,3.974,5.176,5.176,0,0,1-5.17-5.17,5.176,5.176,0,0,1,4.7-5.146v-8.99h-.282l-5.876-.029a.472.472,0,0,1-.414-.25.472.472,0,0,1,.022-.483l3.256-4.943-3.258-5.029a.473.473,0,0,1-.019-.483.473.473,0,0,1,.415-.246h8.814a.473.473,0,0,1,.4.216l3.426,5.288a.474.474,0,0,1,0,.514l-3.4,5.244a.473.473,0,0,1-.4.216h0l-1.739-.009v8.985a5.162,5.162,0,0,1,1.173.25A5.176,5.176,0,0,1-2235.928,2500.565Zm-10.925-15.107,7.712.038,3.09-4.771-3.12-4.816h-7.687l2.953,4.559a.472.472,0,0,1,0,.517Zm5.754,19.332a4.23,4.23,0,0,0,4.226-4.225,4.23,4.23,0,0,0-4.226-4.225,4.23,4.23,0,0,0-4.225,4.225A4.229,4.229,0,0,0-2241.1,2504.79Zm-11.393-18.348-8.842-.044a.472.472,0,0,1-.414-.25.473.473,0,0,1,.022-.483l3.256-4.943-3.258-5.029a.473.473,0,0,1-.019-.483.473.473,0,0,1,.415-.246h5.647V2466a5.175,5.175,0,0,1-4.7-5.146,5.176,5.176,0,0,1,5.17-5.17,5.176,5.176,0,0,1,5.17,5.17,5.175,5.175,0,0,1-4.7,5.146v8.962h2.221a.472.472,0,0,1,.4.216l3.426,5.288a.471.471,0,0,1,0,.514l-3.4,5.244a.473.473,0,0,1-.4.216Zm-6.945-25.586a4.229,4.229,0,0,0,4.225,4.224,4.23,4.23,0,0,0,4.225-4.224,4.23,4.23,0,0,0-4.225-4.226A4.23,4.23,0,0,0-2259.436,2460.857Zm-1.021,24.6,7.712.038,3.091-4.771-3.12-4.816h-7.687l2.954,4.559a.472.472,0,0,1,0,.517Zm22.9-16.566a12.327,12.327,0,0,1-.9-1.106,11.55,11.55,0,0,1-.644-.987,11.98,11.98,0,0,1-1.042-2.383.473.473,0,0,1,.153-.509l2.013-1.632a9.165,9.165,0,0,1-.116-1.43,9.212,9.212,0,0,1,.116-1.431l-2.013-1.631a.473.473,0,0,1-.153-.509,11.972,11.972,0,0,1,1.042-2.382,11.962,11.962,0,0,1,1.542-2.093.474.474,0,0,1,.518-.122l2.421.928a9.256,9.256,0,0,1,2.476-1.428l.407-2.562a.474.474,0,0,1,.365-.387,11.762,11.762,0,0,1,5.167,0,.474.474,0,0,1,.364.387l.407,2.562a9.293,9.293,0,0,1,1.824.952c.223.15.441.307.652.476l2.421-.928a.473.473,0,0,1,.518.122,11.938,11.938,0,0,1,1.542,2.093,11.964,11.964,0,0,1,1.042,2.382.472.472,0,0,1-.153.509l-2.013,1.631a9.239,9.239,0,0,1,.115,1.431,9.223,9.223,0,0,1-.115,1.43l2.013,1.632a.471.471,0,0,1,.153.509,11.96,11.96,0,0,1-1.042,2.383,11.949,11.949,0,0,1-1.542,2.093.472.472,0,0,1-.518.122l-2.421-.928a9.233,9.233,0,0,1-2.476,1.427l-.407,2.563a.474.474,0,0,1-.364.388,12.173,12.173,0,0,1-2.111.275v2.222h3.009a.473.473,0,0,1,.4.215l3.426,5.288a.473.473,0,0,1,0,.514l-3.4,5.244a.472.472,0,0,1-.4.216h0l-8.842-.044a.473.473,0,0,1-.414-.249.473.473,0,0,1,.022-.483l3.256-4.942-3.258-5.03a.471.471,0,0,1-.018-.482.472.472,0,0,1,.415-.247h4.859v-2.222a12.17,12.17,0,0,1-2.111-.275.474.474,0,0,1-.365-.388l-.407-2.562a9.243,9.243,0,0,1-2.476-1.427l-2.421.928A.471.471,0,0,1-2237.559,2468.893Zm12.023,16.6,3.09-4.771-3.119-4.816h-7.688l2.953,4.559a.473.473,0,0,1,0,.517l-2.946,4.472Zm-13.606-21.056a10.985,10.985,0,0,0,.858,1.89,10.963,10.963,0,0,0,1.208,1.688l2.374-.911a.472.472,0,0,1,.477.083,8.319,8.319,0,0,0,2.659,1.534.473.473,0,0,1,.31.372l.4,2.512a10.7,10.7,0,0,0,4.133,0l.4-2.512a.475.475,0,0,1,.31-.372,8.306,8.306,0,0,0,2.659-1.534.471.471,0,0,1,.477-.083l2.375.911a10.934,10.934,0,0,0,1.207-1.688,10.925,10.925,0,0,0,.858-1.89l-1.974-1.6a.472.472,0,0,1-.167-.453,8.318,8.318,0,0,0,.148-1.537,8.407,8.407,0,0,0-.148-1.537.473.473,0,0,1,.167-.454l1.974-1.6a10.9,10.9,0,0,0-.858-1.89,10.957,10.957,0,0,0-1.207-1.688l-2.375.911a.474.474,0,0,1-.477-.083,8.3,8.3,0,0,0-2.659-1.534.475.475,0,0,1-.31-.372l-.4-2.513a10.719,10.719,0,0,0-4.133,0l-.4,2.513a.473.473,0,0,1-.31.372,8.3,8.3,0,0,0-2.659,1.534.474.474,0,0,1-.477.083l-2.374-.911a10.963,10.963,0,0,0-1.208,1.688,10.985,10.985,0,0,0-.858,1.89l1.974,1.6a.472.472,0,0,1,.167.454,8.355,8.355,0,0,0-.147,1.537,8.358,8.358,0,0,0,.147,1.537.47.47,0,0,1-.167.453Zm5.058-3.591a5.3,5.3,0,0,1,5.293-5.294,5.3,5.3,0,0,1,5.294,5.294,5.3,5.3,0,0,1-5.294,5.294A5.3,5.3,0,0,1-2234.084,2460.846Zm.945,0a4.354,4.354,0,0,0,4.348,4.349,4.354,4.354,0,0,0,4.349-4.349,4.353,4.353,0,0,0-4.349-4.348A4.353,4.353,0,0,0-2233.139,2460.846Zm48.224,33.1h10.2a2.4,2.4,0,0,1,2.4,2.4v23.68a2.4,2.4,0,0,1-2.4,2.4h-12.974v4.048h5.1a.473.473,0,0,1,.472.473.472.472,0,0,1-.472.472h-23.252a.473.473,0,0,1-.472-.472.473.473,0,0,1,.472-.473h5.345v-4.048h-13.221a2.4,2.4,0,0,1-2.4-2.4v-23.68a2.4,2.4,0,0,1,2.4-2.4h4.427v-3.688a.773.773,0,0,1,.772-.772h22.831a.773.773,0,0,1,.772.772Zm10.2.945h-10.2v6.712a6.156,6.156,0,0,1,1.676.7l.35-.353a.866.866,0,0,1,1.21,0l.935.937a.86.86,0,0,1,0,1.208l-.353.353a6.161,6.161,0,0,1,.711,1.713h.5a.859.859,0,0,1,.858.858v1.316a.858.858,0,0,1-.858.854h-.5a6.205,6.205,0,0,1-.711,1.716l.353.351a.86.86,0,0,1,0,1.209l-.93.934a.865.865,0,0,1-1.209,0l-.354-.355a6.138,6.138,0,0,1-1.677.694v4.737a.773.773,0,0,1-.772.772h-22.831a.773.773,0,0,1-.772-.772v-23.579h-4.427a1.455,1.455,0,0,0-1.453,1.453v23.68a1.454,1.454,0,0,0,1.453,1.452h39a1.454,1.454,0,0,0,1.452-1.452v-23.68A1.454,1.454,0,0,0-2174.714,2494.888Zm-13.919,27.581h-10.919v4h10.919Zm-19.713-32.04v27.865h22.485v-27.865Zm24.9,12.862a5.242,5.242,0,0,0-1.472-.714v2.066a3.386,3.386,0,0,1,1.85,3.025,3.385,3.385,0,0,1-1.85,3.025v2.064a5.215,5.215,0,0,0,1.472-.712.473.473,0,0,1,.6.055l.557.56.8-.807-.558-.556a.473.473,0,0,1-.056-.6,5.282,5.282,0,0,0,.858-2.069.472.472,0,0,1,.464-.388h.791V2507.1h-.791a.473.473,0,0,1-.464-.388,5.257,5.257,0,0,0-.857-2.066.472.472,0,0,1,.054-.6l.56-.56-.8-.807-.556.562A.472.472,0,0,1-2183.443,2503.29Zm-1.472,6.281a2.445,2.445,0,0,0,.905-1.9,2.444,2.444,0,0,0-.905-1.9Zm-17.231-15.926a1.379,1.379,0,0,1,1.377-1.377h6.788a1.379,1.379,0,0,1,1.377,1.377v.3h3.206a1.214,1.214,0,0,1,1.213,1.212v7.269a1.215,1.215,0,0,1-1.213,1.213h-3.206v2.124a1.249,1.249,0,0,1-1.248,1.247h-7.047a1.249,1.249,0,0,1-1.248-1.247v-1.279h-3.1a.379.379,0,0,0-.378.379v7.047a.38.38,0,0,0,.378.379h3.1v-1.183a1.344,1.344,0,0,1,1.343-1.343h6.857a1.345,1.345,0,0,1,1.343,1.343v3.313a1.344,1.344,0,0,1-1.343,1.343h-6.857a1.344,1.344,0,0,1-1.343-1.343v-1.185h-3.1a1.325,1.325,0,0,1-1.323-1.324v-7.047a1.326,1.326,0,0,1,1.323-1.324h3.1v-1.278a1.249,1.249,0,0,1,1.248-1.248h7.047a1.25,1.25,0,0,1,1.248,1.248v.433h3.206a.268.268,0,0,0,.268-.268v-7.269a.268.268,0,0,0-.268-.268h-3.206v1.994a1.379,1.379,0,0,1-1.377,1.377h-6.788a1.379,1.379,0,0,1-1.377-1.377Zm1.343,17.068a.4.4,0,0,0-.4.4v1.637c0,.006,0,.012,0,.018s0,.012,0,.019v1.639a.4.4,0,0,0,.4.4h6.857a.4.4,0,0,0,.4-.4v-3.313a.4.4,0,0,0-.4-.4Zm6.952-4.642a.3.3,0,0,0,.3-.3v-3.5a.3.3,0,0,0-.3-.3h-7.047a.3.3,0,0,0-.3.3v3.5a.3.3,0,0,0,.3.3Zm-7.349-12.426v3.244a.432.432,0,0,0,.432.432h6.788a.432.432,0,0,0,.432-.432v-3.244a.432.432,0,0,0-.432-.432h-6.788A.433.433,0,0,0-2201.2,2493.646Zm25.2-13.333c-.1.008-.2.015-.3.015h-4.891a3.411,3.411,0,0,1-3.371,2.935h-10.961a3.41,3.41,0,0,1-3.371-2.935h-4.891a4,4,0,0,1-3.994-3.994v-.306h-5.542a1.653,1.653,0,0,1-1.651-1.651v-6.742a1.653,1.653,0,0,1,1.651-1.651h5.557a4,4,0,0,1,3.979-3.706h6.575a1.051,1.051,0,0,1,.335-.393l6.222-4.382a1.023,1.023,0,0,1,.138-.081v-3.7h-5.008a3.414,3.414,0,0,1-3.253-2.393,3.4,3.4,0,0,1-.154-1.015,3.411,3.411,0,0,1,3.407-3.407h5.008v-3.458h-9.213a1.942,1.942,0,0,1-1.94-1.94v-6.163a1.942,1.942,0,0,1,1.94-1.94h19.372a1.942,1.942,0,0,1,1.939,1.94v6.163a1.942,1.942,0,0,1-1.939,1.94h-9.213v3.458h5.007a3.412,3.412,0,0,1,3.407,3.407,3.412,3.412,0,0,1-3.407,3.408h-5.007v3.7a1.037,1.037,0,0,1,.137.081l5.882,4.143.34.239a1.057,1.057,0,0,1,.336.393h6.574a4,4,0,0,1,3.979,3.706h5.557a1.653,1.653,0,0,1,1.651,1.651v6.742a1.653,1.653,0,0,1-1.651,1.651h-5.542v.306A4,4,0,0,1-2176.005,2480.313Zm-23.732-37.809h19.372a1,1,0,0,0,.994-1v-6.163a1,1,0,0,0-.994-1h-19.372a1,1,0,0,0-.995,1v6.163A1,1,0,0,0-2199.737,2442.5Zm4.205,10.273h10.961a2.465,2.465,0,0,0,2.462-2.463,2.465,2.465,0,0,0-2.462-2.463h-10.961a2.466,2.466,0,0,0-2.462,2.463A2.465,2.465,0,0,0-2195.531,2452.776Zm28.758,14.153h-12.03a.707.707,0,0,0-.706.706v1.545h13.442v-1.545A.707.707,0,0,0-2166.773,2466.929Zm.706,7.447v-4.251h-13.442v4.251a.707.707,0,0,0,.706.706h12.03A.707.707,0,0,0-2166.067,2474.377Zm-30.319-11.626v0a.109.109,0,0,0,.048.091l6.221,4.382a.116.116,0,0,0,.132,0l6.221-4.382a.109.109,0,0,0,.048-.091v-.006a.109.109,0,0,0-.048-.091l-6.221-4.381a.115.115,0,0,0-.132,0l-6.222,4.381a.111.111,0,0,0-.047.091Zm-16.942,12.332h12.03a.707.707,0,0,0,.706-.706v-4.251h-13.442v4.251A.707.707,0,0,0-2213.329,2475.083Zm-.707-7.448v1.545h13.442v-1.545a.706.706,0,0,0-.706-.706h-12.03A.707.707,0,0,0-2214.035,2467.635Zm31.927,12.22a2.465,2.465,0,0,0-2.462-2.462h-10.961a2.465,2.465,0,0,0-2.462,2.462,2.465,2.465,0,0,0,2.462,2.462h10.961A2.465,2.465,0,0,0-2182.109,2479.855Zm8.848-3.521v-.306h-5.543a1.653,1.653,0,0,1-1.651-1.651v-4.711s0-.008,0-.013,0-.008,0-.012v-2.006a1.64,1.64,0,0,1,.336-.988,1.644,1.644,0,0,1,1.315-.663h5.528a3.053,3.053,0,0,0-3.034-2.762h-6.574a1.047,1.047,0,0,1-.336.395l-6.222,4.382a1.064,1.064,0,0,1-.611.193,1.056,1.056,0,0,1-.61-.193l-6.222-4.382a1.05,1.05,0,0,1-.336-.395h-6.574a3.053,3.053,0,0,0-3.034,2.762h5.529a1.653,1.653,0,0,1,1.651,1.651v2.006s0,.008,0,.012,0,.008,0,.013v4.711a1.653,1.653,0,0,1-1.651,1.651h-5.543v.306a3.053,3.053,0,0,0,3.049,3.049h4.891a3.41,3.41,0,0,1,3.371-2.936h10.961a3.41,3.41,0,0,1,3.371,2.936h4.891c.075,0,.148-.006.221-.012A3.051,3.051,0,0,0-2173.26,2476.334Z" transform="translate(2487.303 164.095)" fill="#0f2771" stroke="#0f2771" stroke-width="1"/>
  </g>
</svg>
