<svg xmlns="http://www.w3.org/2000/svg" width="610" height="613" viewBox="0 0 610 613">
  <g id="Group_132418" data-name="Group 132418" transform="translate(-495 -3614.563)">
    <rect id="Rectangle_40302" data-name="Rectangle 40302" width="610" height="613" transform="translate(495 3614.563)" fill="#f6f6f6"/>
    <g id="Group_108548" data-name="Group 108548" transform="translate(513 3641.522)">
      <g id="Rectangle_40297" data-name="Rectangle 40297" transform="translate(210.5 0.041)" fill="#bddcf6" stroke="#fff" stroke-width="2">
        <rect width="156" height="57" rx="28.5" stroke="none"/>
        <rect x="1" y="1" width="154" height="55" rx="27.5" fill="none"/>
      </g>
      <g id="Rectangle_40300" data-name="Rectangle 40300" transform="translate(210.5 500.041)" fill="#bddcf6" stroke="#fff" stroke-width="2">
        <rect width="156" height="58" rx="29" stroke="none"/>
        <rect x="1" y="1" width="154" height="56" rx="28" fill="none"/>
      </g>
      <g id="Rectangle_40299" data-name="Rectangle 40299" transform="translate(0.5 357.041)" fill="#bddcf6" stroke="#fff" stroke-width="2">
        <rect width="180" height="58" stroke="none"/>
        <rect x="1" y="1" width="178" height="56" fill="none"/>
      </g>
      <g id="Rectangle_40301" data-name="Rectangle 40301" transform="translate(392.5 357.041)" fill="#bddcf6" stroke="#fff" stroke-width="2">
        <rect width="181" height="58" stroke="none"/>
        <rect x="1" y="1" width="179" height="56" fill="none"/>
      </g>
      <path id="Path_114779" data-name="Path 114779" d="M-8377.507-3333l-76.159,39.653,76.159,40.283,75.215-40.283Z" transform="translate(8667.848 3561.436)" fill="#bddcf6" stroke="#fff" stroke-width="2"/>
      <path id="Path_114778" data-name="Path 114778" d="M-8307.589-3230.667h-109.626L-8444-3172.678h109.9Z" transform="translate(8662.87 3343.792)" fill="#bddcf6" stroke="#fff" stroke-width="2"/>
      <path id="Path_192160" data-name="Path 192160" d="M3.3,0H1.608V-12.8H3.3ZM7.664-9.51l.053,1.2a3.465,3.465,0,0,1,2.848-1.371q3.015,0,3.041,3.4V0H11.979V-6.293a2.189,2.189,0,0,0-.47-1.521,1.884,1.884,0,0,0-1.437-.492,2.347,2.347,0,0,0-1.389.422,2.865,2.865,0,0,0-.932,1.107V0H6.126V-9.51ZM17.824,0H16.2V-9.51h1.626ZM16.066-12.032a.971.971,0,0,1,.242-.668.907.907,0,0,1,.716-.272.922.922,0,0,1,.721.272.96.96,0,0,1,.246.668.929.929,0,0,1-.246.659.938.938,0,0,1-.721.264.924.924,0,0,1-.716-.264A.938.938,0,0,1,16.066-12.032ZM24.24-1.151a2.342,2.342,0,0,0,1.521-.527A1.855,1.855,0,0,0,26.481-3H28.02a2.949,2.949,0,0,1-.562,1.556A3.7,3.7,0,0,1,26.073-.264,3.994,3.994,0,0,1,24.24.176a3.918,3.918,0,0,1-3.089-1.3A5.163,5.163,0,0,1,20-4.667v-.272a5.725,5.725,0,0,1,.51-2.47,3.883,3.883,0,0,1,1.463-1.679,4.157,4.157,0,0,1,2.254-.6,3.814,3.814,0,0,1,2.659.958A3.424,3.424,0,0,1,28.02-6.24H26.481a2.241,2.241,0,0,0-.7-1.516,2.174,2.174,0,0,0-1.551-.593,2.276,2.276,0,0,0-1.92.892,4.19,4.19,0,0,0-.681,2.58v.308a4.106,4.106,0,0,0,.677,2.531A2.287,2.287,0,0,0,24.24-1.151ZM31.614,0H29.988V-9.51h1.626ZM29.856-12.032A.971.971,0,0,1,30.1-12.7a.907.907,0,0,1,.716-.272.922.922,0,0,1,.721.272.96.96,0,0,1,.246.668.929.929,0,0,1-.246.659.938.938,0,0,1-.721.264.924.924,0,0,1-.716-.264A.938.938,0,0,1,29.856-12.032Zm3.929,7.189a5.617,5.617,0,0,1,.549-2.514,4.1,4.1,0,0,1,1.529-1.723A4.163,4.163,0,0,1,38.1-9.686a4.01,4.01,0,0,1,3.142,1.345,5.174,5.174,0,0,1,1.2,3.577v.114a5.666,5.666,0,0,1-.532,2.492A4.038,4.038,0,0,1,40.39-.439a4.211,4.211,0,0,1-2.272.615,4,4,0,0,1-3.133-1.345,5.147,5.147,0,0,1-1.2-3.56Zm1.635.193a4.068,4.068,0,0,0,.734,2.54,2.349,2.349,0,0,0,1.964.958,2.335,2.335,0,0,0,1.969-.971,4.449,4.449,0,0,0,.729-2.72,4.061,4.061,0,0,0-.743-2.536A2.361,2.361,0,0,0,38.1-8.35a2.335,2.335,0,0,0-1.942.958A4.416,4.416,0,0,0,35.42-4.649Z" transform="translate(268.5 36.041)" fill="#12263f"/>
      <path id="Path_192163" data-name="Path 192163" d="M8.543-5.651H3.173V0H1.485V-12.8H9.413v1.38H3.173v4.386h5.37ZM12.946,0H11.32V-9.51h1.626ZM11.188-12.032a.971.971,0,0,1,.242-.668.907.907,0,0,1,.716-.272.922.922,0,0,1,.721.272.96.96,0,0,1,.246.668.929.929,0,0,1-.246.659.938.938,0,0,1-.721.264.924.924,0,0,1-.716-.264A.938.938,0,0,1,11.188-12.032Zm5.9,2.522.053,1.2a3.465,3.465,0,0,1,2.848-1.371q3.015,0,3.041,3.4V0H21.4V-6.293a2.189,2.189,0,0,0-.47-1.521,1.884,1.884,0,0,0-1.437-.492,2.347,2.347,0,0,0-1.389.422,2.865,2.865,0,0,0-.932,1.107V0H15.548V-9.51Z" transform="translate(278.5 536.041)" fill="#12263f"/>
      <path id="Path_192161" data-name="Path 192161" d="M-14.243-1.38h6.064V0h-7.761V-12.8h1.7ZM-2.562.176a4.155,4.155,0,0,1-3.146-1.27,4.714,4.714,0,0,1-1.213-3.4v-.3a5.707,5.707,0,0,1,.541-2.527,4.217,4.217,0,0,1,1.512-1.74,3.8,3.8,0,0,1,2.1-.628A3.562,3.562,0,0,1,.119-8.464a5.289,5.289,0,0,1,1.028,3.5v.677H-5.3a3.38,3.38,0,0,0,.822,2.272,2.583,2.583,0,0,0,2,.866A2.832,2.832,0,0,0-1.015-1.5,3.666,3.666,0,0,0,.031-2.435l.993.773A3.993,3.993,0,0,1-2.562.176Zm-.2-8.525a2.169,2.169,0,0,0-1.652.716,3.482,3.482,0,0,0-.826,2.008H-.479v-.123a3.1,3.1,0,0,0-.668-1.92A2.042,2.042,0,0,0-2.764-8.35ZM6.974.176a4.155,4.155,0,0,1-3.146-1.27,4.714,4.714,0,0,1-1.213-3.4v-.3a5.707,5.707,0,0,1,.541-2.527,4.217,4.217,0,0,1,1.512-1.74,3.8,3.8,0,0,1,2.1-.628A3.562,3.562,0,0,1,9.655-8.464a5.289,5.289,0,0,1,1.028,3.5v.677H4.241a3.38,3.38,0,0,0,.822,2.272,2.583,2.583,0,0,0,2,.866A2.832,2.832,0,0,0,8.521-1.5a3.666,3.666,0,0,0,1.046-.932l.993.773A3.993,3.993,0,0,1,6.974.176Zm-.2-8.525a2.169,2.169,0,0,0-1.652.716,3.482,3.482,0,0,0-.826,2.008H9.057v-.123a3.1,3.1,0,0,0-.668-1.92A2.042,2.042,0,0,0,6.772-8.35Zm10.389.3a4.873,4.873,0,0,0-.8-.062A2.143,2.143,0,0,0,14.19-6.75V0H12.564V-9.51h1.582l.026,1.1A2.532,2.532,0,0,1,16.44-9.686a1.661,1.661,0,0,1,.721.123ZM-27.905,8.49l.053,1.2A3.465,3.465,0,0,1-25,8.314q3.015,0,3.041,3.4V18H-23.59V11.707a2.189,2.189,0,0,0-.47-1.521A1.884,1.884,0,0,0-25.5,9.694a2.347,2.347,0,0,0-1.389.422,2.865,2.865,0,0,0-.932,1.107V18h-1.626V8.49Zm14.265,8.569a3.454,3.454,0,0,1-2.786,1.116,2.956,2.956,0,0,1-2.316-.883,3.823,3.823,0,0,1-.8-2.615V8.49h1.626v6.144q0,2.162,1.758,2.162a2.434,2.434,0,0,0,2.479-1.389V8.49h1.626V18h-1.547ZM-8.06,8.49l.044,1.055a3.512,3.512,0,0,1,2.821-1.23A2.719,2.719,0,0,1-2.479,9.844,3.6,3.6,0,0,1-1.244,8.736a3.647,3.647,0,0,1,1.8-.422q3.129,0,3.182,3.313V18H2.109V11.725A2.184,2.184,0,0,0,1.644,10.2,2.051,2.051,0,0,0,.079,9.694a2.156,2.156,0,0,0-1.5.541,2.193,2.193,0,0,0-.694,1.455V18H-3.753V11.769a1.814,1.814,0,0,0-2.03-2.074,2.175,2.175,0,0,0-2.188,1.362V18H-9.6V8.49Zm18.193,9.686a4.155,4.155,0,0,1-3.146-1.27,4.714,4.714,0,0,1-1.213-3.4v-.3a5.707,5.707,0,0,1,.541-2.527,4.217,4.217,0,0,1,1.512-1.74,3.8,3.8,0,0,1,2.1-.628,3.562,3.562,0,0,1,2.883,1.222,5.289,5.289,0,0,1,1.028,3.5v.677H7.4a3.38,3.38,0,0,0,.822,2.272,2.583,2.583,0,0,0,2,.866,2.832,2.832,0,0,0,1.459-.352,3.666,3.666,0,0,0,1.046-.932l.993.773A3.993,3.993,0,0,1,10.134,18.176Zm-.2-8.525a2.169,2.169,0,0,0-1.652.716,3.482,3.482,0,0,0-.826,2.008h4.764v-.123a3.1,3.1,0,0,0-.668-1.92A2.042,2.042,0,0,0,9.932,9.65Zm10.389.3a4.873,4.873,0,0,0-.8-.062A2.143,2.143,0,0,0,17.35,11.25V18H15.724V8.49h1.582l.026,1.1A2.532,2.532,0,0,1,19.6,8.314a1.661,1.661,0,0,1,.721.123Zm.888,3.208a5.617,5.617,0,0,1,.549-2.514,4.1,4.1,0,0,1,1.529-1.723,4.163,4.163,0,0,1,2.237-.606,4.01,4.01,0,0,1,3.142,1.345,5.174,5.174,0,0,1,1.2,3.577v.114a5.666,5.666,0,0,1-.532,2.492,4.038,4.038,0,0,1-1.521,1.718,4.211,4.211,0,0,1-2.272.615,4,4,0,0,1-3.133-1.345,5.147,5.147,0,0,1-1.2-3.56Zm1.635.193a4.068,4.068,0,0,0,.734,2.54,2.487,2.487,0,0,0,3.933-.013,4.449,4.449,0,0,0,.729-2.72,4.061,4.061,0,0,0-.743-2.536,2.361,2.361,0,0,0-1.973-.971,2.335,2.335,0,0,0-1.942.958A4.416,4.416,0,0,0,22.843,13.351Z" transform="translate(283.5 138.041)" fill="#12263f"/>
      <path id="Path_192162" data-name="Path 192162" d="M-31.482-5.915h-5.546V-1.38h6.442V0h-8.13V-12.8h8.042v1.38h-6.354v4.122h5.546ZM-26.974,0H-28.6V-13.5h1.626Zm8.6-9.51.053,1.2a3.465,3.465,0,0,1,2.848-1.371q3.015,0,3.041,3.4V0h-1.626V-6.293a2.189,2.189,0,0,0-.47-1.521,1.884,1.884,0,0,0-1.437-.492,2.347,2.347,0,0,0-1.389.422,2.865,2.865,0,0,0-.932,1.107V0h-1.626V-9.51ZM-4.113-.94A3.454,3.454,0,0,1-6.9.176,2.956,2.956,0,0,1-9.215-.708a3.823,3.823,0,0,1-.8-2.615V-9.51h1.626v6.144q0,2.162,1.758,2.162A2.434,2.434,0,0,0-4.157-2.593V-9.51h1.626V0H-4.078ZM1.468-9.51l.044,1.055a3.512,3.512,0,0,1,2.821-1.23A2.719,2.719,0,0,1,7.049-8.156,3.6,3.6,0,0,1,8.284-9.264a3.647,3.647,0,0,1,1.8-.422q3.129,0,3.182,3.313V0H11.637V-6.275A2.184,2.184,0,0,0,11.171-7.8a2.051,2.051,0,0,0-1.564-.505,2.156,2.156,0,0,0-1.5.541,2.193,2.193,0,0,0-.694,1.455V0H5.774V-6.231a1.814,1.814,0,0,0-2.03-2.074A2.175,2.175,0,0,0,1.556-6.943V0H-.07V-9.51ZM19.661.176a4.155,4.155,0,0,1-3.146-1.27,4.714,4.714,0,0,1-1.213-3.4v-.3a5.707,5.707,0,0,1,.541-2.527,4.217,4.217,0,0,1,1.512-1.74,3.8,3.8,0,0,1,2.1-.628,3.562,3.562,0,0,1,2.883,1.222,5.289,5.289,0,0,1,1.028,3.5v.677H16.928a3.38,3.38,0,0,0,.822,2.272,2.583,2.583,0,0,0,2,.866A2.832,2.832,0,0,0,21.208-1.5a3.666,3.666,0,0,0,1.046-.932l.993.773A3.993,3.993,0,0,1,19.661.176Zm-.2-8.525a2.169,2.169,0,0,0-1.652.716,3.482,3.482,0,0,0-.826,2.008h4.764v-.123a3.1,3.1,0,0,0-.668-1.92A2.042,2.042,0,0,0,19.459-8.35Zm10.389.3a4.873,4.873,0,0,0-.8-.062A2.143,2.143,0,0,0,26.877-6.75V0H25.251V-9.51h1.582l.026,1.1a2.532,2.532,0,0,1,2.268-1.274,1.661,1.661,0,0,1,.721.123Zm.888,3.208a5.617,5.617,0,0,1,.549-2.514,4.1,4.1,0,0,1,1.529-1.723,4.163,4.163,0,0,1,2.237-.606,4.01,4.01,0,0,1,3.142,1.345,5.174,5.174,0,0,1,1.2,3.577v.114a5.666,5.666,0,0,1-.532,2.492A4.038,4.038,0,0,1,37.34-.439a4.211,4.211,0,0,1-2.272.615,4,4,0,0,1-3.133-1.345,5.147,5.147,0,0,1-1.2-3.56Zm1.635.193a4.068,4.068,0,0,0,.734,2.54,2.349,2.349,0,0,0,1.964.958,2.335,2.335,0,0,0,1.969-.971,4.449,4.449,0,0,0,.729-2.72,4.061,4.061,0,0,0-.743-2.536,2.361,2.361,0,0,0-1.973-.971,2.335,2.335,0,0,0-1.942.958A4.416,4.416,0,0,0,32.37-4.649ZM-18.444,18.176a4.155,4.155,0,0,1-3.146-1.27,4.714,4.714,0,0,1-1.213-3.4v-.3a5.707,5.707,0,0,1,.541-2.527,4.217,4.217,0,0,1,1.512-1.74,3.8,3.8,0,0,1,2.1-.628,3.562,3.562,0,0,1,2.883,1.222,5.289,5.289,0,0,1,1.028,3.5v.677h-6.442a3.38,3.38,0,0,0,.822,2.272,2.583,2.583,0,0,0,2,.866A2.832,2.832,0,0,0-16.9,16.5a3.666,3.666,0,0,0,1.046-.932l.993.773A3.993,3.993,0,0,1-18.444,18.176Zm-.2-8.525a2.169,2.169,0,0,0-1.652.716,3.482,3.482,0,0,0-.826,2.008h4.764v-.123a3.1,3.1,0,0,0-.668-1.92A2.042,2.042,0,0,0-18.646,9.65Zm11.329,5.827a1.2,1.2,0,0,0-.5-1.024,4.78,4.78,0,0,0-1.731-.628,8.186,8.186,0,0,1-1.96-.633,2.788,2.788,0,0,1-1.072-.879,2.1,2.1,0,0,1-.347-1.213,2.467,2.467,0,0,1,.989-1.978,3.861,3.861,0,0,1,2.527-.809,3.974,3.974,0,0,1,2.624.835,2.652,2.652,0,0,1,1.006,2.136H-7.414a1.468,1.468,0,0,0-.567-1.151A2.124,2.124,0,0,0-9.409,9.65a2.223,2.223,0,0,0-1.389.387,1.217,1.217,0,0,0-.5,1.011.986.986,0,0,0,.466.888,5.731,5.731,0,0,0,1.683.571,8.77,8.77,0,0,1,1.973.65,2.878,2.878,0,0,1,1.121.91,2.237,2.237,0,0,1,.365,1.3,2.434,2.434,0,0,1-1.02,2.043,4.277,4.277,0,0,1-2.646.769,4.789,4.789,0,0,1-2.021-.4,3.288,3.288,0,0,1-1.375-1.129,2.722,2.722,0,0,1-.5-1.569h1.626a1.683,1.683,0,0,0,.655,1.3,2.54,2.54,0,0,0,1.613.479,2.622,2.622,0,0,0,1.481-.374A1.148,1.148,0,0,0-7.317,15.478ZM6.64,12.287.831,10.011V8.341l7.506,3.322v1.283L.831,16.277V14.59Zm15.961.255a7.436,7.436,0,0,1-.976,4.245,3.47,3.47,0,0,1-3.05,1.389,3.5,3.5,0,0,1-3.032-1.358,7.058,7.058,0,0,1-1.02-4.056V10.591A7.271,7.271,0,0,1,15.5,6.4a3.5,3.5,0,0,1,3.059-1.371A3.528,3.528,0,0,1,21.6,6.35a7.017,7.017,0,0,1,1,4.083Zm-1.626-2.224a5.958,5.958,0,0,0-.58-3.01,2,2,0,0,0-1.837-.945,1.97,1.97,0,0,0-1.819.94A5.817,5.817,0,0,0,16.15,10.2v2.6a6.053,6.053,0,0,0,.6,3.063,1.993,1.993,0,0,0,1.824.989,1.966,1.966,0,0,0,1.789-.932,5.834,5.834,0,0,0,.611-2.936Z" transform="translate(286.5 269.041)" fill="#12263f"/>
      <path id="Path_192166" data-name="Path 192166" d="M-1.283,0h-1.7L-9.422-9.861V0h-1.7V-12.8h1.7l6.46,9.905V-12.8h1.679ZM11.558-5.985A7.916,7.916,0,0,1,10.925-2.7,4.793,4.793,0,0,1,9.132-.562,4.933,4.933,0,0,1,6.425.176,4.891,4.891,0,0,1,3.744-.567,4.908,4.908,0,0,1,1.929-2.685a7.6,7.6,0,0,1-.664-3.186v-.923a7.822,7.822,0,0,1,.642-3.261,4.891,4.891,0,0,1,1.815-2.167,4.87,4.87,0,0,1,2.685-.751,4.961,4.961,0,0,1,2.711.743,4.784,4.784,0,0,1,1.806,2.153,7.955,7.955,0,0,1,.633,3.283ZM9.879-6.812a5.738,5.738,0,0,0-.914-3.494,3.015,3.015,0,0,0-2.558-1.217,2.982,2.982,0,0,0-2.518,1.217,5.62,5.62,0,0,0-.945,3.379v.94a5.746,5.746,0,0,0,.927,3.467A3,3,0,0,0,6.425-1.257,2.983,2.983,0,0,0,8.956-2.448a5.714,5.714,0,0,0,.923-3.415Z" transform="translate(129.5 263.041)" fill="#12263f"/>
      <path id="Path_192167" data-name="Path 192167" d="M-72.185,0h-1.687V-12.8h1.688Zm4.359-9.51.044,1.055a3.512,3.512,0,0,1,2.821-1.23,2.719,2.719,0,0,1,2.716,1.529,3.6,3.6,0,0,1,1.235-1.107,3.647,3.647,0,0,1,1.8-.422q3.129,0,3.182,3.313V0h-1.626V-6.275A2.184,2.184,0,0,0-58.122-7.8a2.051,2.051,0,0,0-1.564-.505,2.156,2.156,0,0,0-1.5.541,2.193,2.193,0,0,0-.694,1.455V0h-1.635V-6.231a1.814,1.814,0,0,0-2.03-2.074,2.175,2.175,0,0,0-2.188,1.362V0h-1.626V-9.51Zm22.28,4.86a5.694,5.694,0,0,1-.993,3.5A3.183,3.183,0,0,1-49.228.176a3.488,3.488,0,0,1-2.725-1.1V3.656h-1.626V-9.51h1.485l.079,1.055a3.35,3.35,0,0,1,2.76-1.23,3.243,3.243,0,0,1,2.711,1.292,5.756,5.756,0,0,1,1,3.595Zm-1.626-.185a4.2,4.2,0,0,0-.686-2.54,2.208,2.208,0,0,0-1.881-.932A2.39,2.39,0,0,0-51.952-7v4.544a2.4,2.4,0,0,0,2.232,1.3,2.2,2.2,0,0,0,1.859-.927A4.587,4.587,0,0,0-47.171-4.834Zm8.288-3.217a4.873,4.873,0,0,0-.8-.062A2.143,2.143,0,0,0-41.854-6.75V0h-1.626V-9.51H-41.9l.026,1.1A2.532,2.532,0,0,1-39.6-9.686a1.661,1.661,0,0,1,.721.123ZM-35.622,0h-1.626V-9.51h1.626ZM-37.38-12.032a.971.971,0,0,1,.242-.668.907.907,0,0,1,.716-.272.922.922,0,0,1,.721.272.96.96,0,0,1,.246.668.929.929,0,0,1-.246.659.938.938,0,0,1-.721.264.924.924,0,0,1-.716-.264A.938.938,0,0,1-37.38-12.032Zm5.889,2.522.044,1.055a3.512,3.512,0,0,1,2.821-1.23A2.719,2.719,0,0,1-25.91-8.156a3.6,3.6,0,0,1,1.235-1.107,3.647,3.647,0,0,1,1.8-.422q3.129,0,3.182,3.313V0h-1.626V-6.275A2.184,2.184,0,0,0-21.788-7.8a2.051,2.051,0,0,0-1.564-.505,2.156,2.156,0,0,0-1.5.541,2.193,2.193,0,0,0-.694,1.455V0h-1.635V-6.231a1.814,1.814,0,0,0-2.03-2.074A2.175,2.175,0,0,0-31.4-6.943V0h-1.626V-9.51ZM-11.373,0A3.416,3.416,0,0,1-11.6-1,3.628,3.628,0,0,1-14.309.176a3.357,3.357,0,0,1-2.307-.8,2.573,2.573,0,0,1-.9-2.017,2.688,2.688,0,0,1,1.129-2.307,5.325,5.325,0,0,1,3.177-.822h1.582v-.747a1.826,1.826,0,0,0-.51-1.358,2.049,2.049,0,0,0-1.5-.505,2.371,2.371,0,0,0-1.459.439,1.3,1.3,0,0,0-.589,1.063h-1.635a2.244,2.244,0,0,1,.505-1.375A3.449,3.449,0,0,1-15.447-9.3a4.613,4.613,0,0,1,1.9-.387,3.759,3.759,0,0,1,2.575.822A2.964,2.964,0,0,1-10-6.6v4.377A5.351,5.351,0,0,0-9.668-.141V0Zm-2.7-1.239a2.858,2.858,0,0,0,1.45-.4,2.392,2.392,0,0,0,.993-1.028V-4.614H-12.9q-2.988,0-2.988,1.749a1.48,1.48,0,0,0,.51,1.2A1.959,1.959,0,0,0-14.071-1.239ZM.949.176A4.155,4.155,0,0,1-2.2-1.094a4.714,4.714,0,0,1-1.213-3.4v-.3A5.707,5.707,0,0,1-2.87-7.317a4.217,4.217,0,0,1,1.512-1.74,3.8,3.8,0,0,1,2.1-.628A3.562,3.562,0,0,1,3.63-8.464a5.289,5.289,0,0,1,1.028,3.5v.677H-1.784A3.38,3.38,0,0,0-.962-2.017a2.583,2.583,0,0,0,2,.866A2.832,2.832,0,0,0,2.5-1.5a3.666,3.666,0,0,0,1.046-.932l.993.773A3.993,3.993,0,0,1,.949.176ZM.747-8.35a2.169,2.169,0,0,0-1.652.716,3.482,3.482,0,0,0-.826,2.008H3.032v-.123a3.1,3.1,0,0,0-.668-1.92A2.042,2.042,0,0,0,.747-8.35ZM8.306,0H6.68V-13.5H8.306Zm8.6-9.51.053,1.2A3.465,3.465,0,0,1,19.8-9.686q3.015,0,3.041,3.4V0H21.217V-6.293a2.189,2.189,0,0,0-.47-1.521,1.884,1.884,0,0,0-1.437-.492,2.347,2.347,0,0,0-1.389.422,2.865,2.865,0,0,0-.932,1.107V0H15.363V-9.51ZM31.166-.94A3.454,3.454,0,0,1,28.38.176a2.956,2.956,0,0,1-2.316-.883,3.823,3.823,0,0,1-.8-2.615V-9.51h1.626v6.144q0,2.162,1.758,2.162a2.434,2.434,0,0,0,2.479-1.389V-9.51h1.626V0H31.2ZM36.747-9.51l.044,1.055a3.512,3.512,0,0,1,2.821-1.23,2.719,2.719,0,0,1,2.716,1.529,3.6,3.6,0,0,1,1.235-1.107,3.647,3.647,0,0,1,1.8-.422q3.129,0,3.182,3.313V0H46.916V-6.275A2.184,2.184,0,0,0,46.45-7.8a2.051,2.051,0,0,0-1.564-.505,2.156,2.156,0,0,0-1.5.541,2.193,2.193,0,0,0-.694,1.455V0H41.054V-6.231a1.814,1.814,0,0,0-2.03-2.074,2.175,2.175,0,0,0-2.188,1.362V0H35.209V-9.51ZM54.94.176a4.155,4.155,0,0,1-3.146-1.27,4.714,4.714,0,0,1-1.213-3.4v-.3a5.707,5.707,0,0,1,.541-2.527,4.217,4.217,0,0,1,1.512-1.74,3.8,3.8,0,0,1,2.1-.628,3.562,3.562,0,0,1,2.883,1.222,5.289,5.289,0,0,1,1.028,3.5v.677H52.207a3.38,3.38,0,0,0,.822,2.272,2.583,2.583,0,0,0,2,.866A2.832,2.832,0,0,0,56.487-1.5a3.666,3.666,0,0,0,1.046-.932l.993.773A3.993,3.993,0,0,1,54.94.176Zm-.2-8.525a2.169,2.169,0,0,0-1.652.716,3.482,3.482,0,0,0-.826,2.008h4.764v-.123a3.1,3.1,0,0,0-.668-1.92A2.042,2.042,0,0,0,54.738-8.35Zm10.389.3a4.873,4.873,0,0,0-.8-.062A2.143,2.143,0,0,0,62.156-6.75V0H60.53V-9.51h1.582l.026,1.1a2.532,2.532,0,0,1,2.268-1.274,1.661,1.661,0,0,1,.721.123Zm.888,3.208a5.617,5.617,0,0,1,.549-2.514,4.1,4.1,0,0,1,1.529-1.723,4.163,4.163,0,0,1,2.237-.606,4.01,4.01,0,0,1,3.142,1.345,5.174,5.174,0,0,1,1.2,3.577v.114a5.666,5.666,0,0,1-.532,2.492A4.038,4.038,0,0,1,72.62-.439a4.211,4.211,0,0,1-2.272.615,4,4,0,0,1-3.133-1.345,5.147,5.147,0,0,1-1.2-3.56Zm1.635.193a4.068,4.068,0,0,0,.734,2.54,2.349,2.349,0,0,0,1.964.958,2.335,2.335,0,0,0,1.969-.971,4.449,4.449,0,0,0,.729-2.72A4.061,4.061,0,0,0,72.3-7.378,2.361,2.361,0,0,0,70.33-8.35a2.335,2.335,0,0,0-1.942.958A4.416,4.416,0,0,0,67.649-4.649ZM-48.331,5.7l-.264,3.146h-.976l.009-4.342h1.23Zm2.373,0-.264,3.146H-47.2l.009-4.342h1.23Zm5.607,12.48a4.155,4.155,0,0,1-3.146-1.27,4.714,4.714,0,0,1-1.213-3.4v-.3a5.707,5.707,0,0,1,.541-2.527,4.217,4.217,0,0,1,1.512-1.74,3.8,3.8,0,0,1,2.1-.628A3.562,3.562,0,0,1-37.67,9.536a5.289,5.289,0,0,1,1.028,3.5v.677h-6.442a3.38,3.38,0,0,0,.822,2.272,2.583,2.583,0,0,0,2,.866A2.832,2.832,0,0,0-38.8,16.5a3.666,3.666,0,0,0,1.046-.932l.993.773A3.993,3.993,0,0,1-40.351,18.176Zm-.2-8.525a2.169,2.169,0,0,0-1.652.716,3.482,3.482,0,0,0-.826,2.008h4.764v-.123a3.1,3.1,0,0,0-.668-1.92A2.042,2.042,0,0,0-40.553,9.65Zm11.329,5.827a1.2,1.2,0,0,0-.5-1.024,4.78,4.78,0,0,0-1.731-.628,8.186,8.186,0,0,1-1.96-.633,2.788,2.788,0,0,1-1.072-.879,2.1,2.1,0,0,1-.347-1.213,2.467,2.467,0,0,1,.989-1.978,3.861,3.861,0,0,1,2.527-.809,3.974,3.974,0,0,1,2.624.835,2.652,2.652,0,0,1,1.006,2.136H-29.32a1.468,1.468,0,0,0-.567-1.151,2.124,2.124,0,0,0-1.428-.483,2.223,2.223,0,0,0-1.389.387,1.217,1.217,0,0,0-.5,1.011.986.986,0,0,0,.466.888,5.731,5.731,0,0,0,1.683.571,8.77,8.77,0,0,1,1.973.65,2.878,2.878,0,0,1,1.121.91,2.237,2.237,0,0,1,.365,1.3,2.434,2.434,0,0,1-1.02,2.043,4.277,4.277,0,0,1-2.646.769,4.789,4.789,0,0,1-2.021-.4,3.288,3.288,0,0,1-1.375-1.129,2.722,2.722,0,0,1-.5-1.569h1.626a1.683,1.683,0,0,0,.655,1.3,2.54,2.54,0,0,0,1.613.479,2.622,2.622,0,0,0,1.481-.374A1.148,1.148,0,0,0-29.224,15.478Zm9.738-6.987.053,1.2a3.465,3.465,0,0,1,2.848-1.371q3.015,0,3.041,3.4V18H-15.17V11.707a2.189,2.189,0,0,0-.47-1.521,1.884,1.884,0,0,0-1.437-.492,2.347,2.347,0,0,0-1.389.422,2.865,2.865,0,0,0-.932,1.107V18h-1.626V8.49Zm12.34,9.686a4.155,4.155,0,0,1-3.146-1.27,4.714,4.714,0,0,1-1.213-3.4v-.3a5.707,5.707,0,0,1,.541-2.527,4.217,4.217,0,0,1,1.512-1.74,3.8,3.8,0,0,1,2.1-.628A3.562,3.562,0,0,1-4.465,9.536a5.289,5.289,0,0,1,1.028,3.5v.677H-9.879a3.38,3.38,0,0,0,.822,2.272,2.583,2.583,0,0,0,2,.866A2.832,2.832,0,0,0-5.6,16.5a3.666,3.666,0,0,0,1.046-.932l.993.773A3.993,3.993,0,0,1-7.146,18.176Zm-.2-8.525A2.169,2.169,0,0,0-9,10.367a3.482,3.482,0,0,0-.826,2.008h4.764v-.123a3.1,3.1,0,0,0-.668-1.92A2.042,2.042,0,0,0-7.348,9.65Zm5.405,3.516A5.589,5.589,0,0,1-.914,9.628,3.289,3.289,0,0,1,1.811,8.314a3.271,3.271,0,0,1,2.716,1.23L4.605,8.49H6.091v9.281A3.869,3.869,0,0,1,5,20.681a4.038,4.038,0,0,1-2.94,1.063A4.891,4.891,0,0,1,.044,21.3a3.465,3.465,0,0,1-1.5-1.2l.844-.976a3.18,3.18,0,0,0,2.558,1.292,2.491,2.491,0,0,0,1.85-.668,2.553,2.553,0,0,0,.664-1.881v-.817a3.342,3.342,0,0,1-2.663,1.125,3.248,3.248,0,0,1-2.7-1.345A5.876,5.876,0,0,1-1.942,13.166Zm1.635.185a4.264,4.264,0,0,0,.659,2.527A2.142,2.142,0,0,0,2.2,16.8a2.382,2.382,0,0,0,2.259-1.4V11.057A2.41,2.41,0,0,0,2.215,9.694a2.161,2.161,0,0,0-1.854.923A4.644,4.644,0,0,0-.308,13.351ZM14.414,18a3.416,3.416,0,0,1-.229-1,3.628,3.628,0,0,1-2.707,1.178,3.357,3.357,0,0,1-2.307-.8,2.573,2.573,0,0,1-.9-2.017A2.688,2.688,0,0,1,9.4,13.056a5.325,5.325,0,0,1,3.177-.822h1.582v-.747a1.826,1.826,0,0,0-.51-1.358,2.049,2.049,0,0,0-1.5-.505,2.371,2.371,0,0,0-1.459.439,1.3,1.3,0,0,0-.589,1.063H8.464a2.244,2.244,0,0,1,.505-1.375A3.449,3.449,0,0,1,10.34,8.7a4.613,4.613,0,0,1,1.9-.387,3.759,3.759,0,0,1,2.575.822,2.964,2.964,0,0,1,.967,2.263v4.377a5.351,5.351,0,0,0,.334,2.083V18Zm-2.7-1.239a2.858,2.858,0,0,0,1.45-.4,2.392,2.392,0,0,0,.993-1.028V13.386H12.885q-2.988,0-2.988,1.749a1.48,1.48,0,0,0,.51,1.2A1.959,1.959,0,0,0,11.716,16.761ZM20.54,6.188v2.3h1.775V9.747H20.54v5.9a1.32,1.32,0,0,0,.237.858,1,1,0,0,0,.809.286,3.937,3.937,0,0,0,.773-.105V18a4.742,4.742,0,0,1-1.248.175,2.025,2.025,0,0,1-1.644-.659,2.832,2.832,0,0,1-.554-1.872v-5.9H17.183V8.49h1.731v-2.3ZM25.98,18H24.354V8.49H25.98ZM24.223,5.968a.971.971,0,0,1,.242-.668.907.907,0,0,1,.716-.272A.922.922,0,0,1,25.9,5.3a.96.96,0,0,1,.246.668.929.929,0,0,1-.246.659.938.938,0,0,1-.721.264.924.924,0,0,1-.716-.264A.938.938,0,0,1,24.223,5.968Zm7.5,9.826,2.355-7.3h1.661L32.326,18H31.087L27.642,8.49H29.3Zm5.019-2.637a5.617,5.617,0,0,1,.549-2.514,4.1,4.1,0,0,1,1.529-1.723,4.163,4.163,0,0,1,2.237-.606A4.01,4.01,0,0,1,44.2,9.659a5.174,5.174,0,0,1,1.2,3.577v.114a5.666,5.666,0,0,1-.532,2.492,4.038,4.038,0,0,1-1.521,1.718,4.211,4.211,0,0,1-2.272.615,4,4,0,0,1-3.133-1.345,5.147,5.147,0,0,1-1.2-3.56Zm1.635.193a4.068,4.068,0,0,0,.734,2.54,2.487,2.487,0,0,0,3.933-.013,4.449,4.449,0,0,0,.729-2.72,4.061,4.061,0,0,0-.743-2.536,2.361,2.361,0,0,0-1.973-.971,2.335,2.335,0,0,0-1.942.958A4.416,4.416,0,0,0,38.373,13.351ZM47.443,5.7,47.18,8.842H46.2L46.213,4.5h1.23Zm2.373,0-.264,3.146h-.976L48.586,4.5h1.23Z" transform="translate(85.5 384.041)" fill="#12263f"/>
      <path id="Path_192164" data-name="Path 192164" d="M-72.185,0h-1.687V-12.8h1.688Zm4.359-9.51.044,1.055a3.512,3.512,0,0,1,2.821-1.23,2.719,2.719,0,0,1,2.716,1.529,3.6,3.6,0,0,1,1.235-1.107,3.647,3.647,0,0,1,1.8-.422q3.129,0,3.182,3.313V0h-1.626V-6.275A2.184,2.184,0,0,0-58.122-7.8a2.051,2.051,0,0,0-1.564-.505,2.156,2.156,0,0,0-1.5.541,2.193,2.193,0,0,0-.694,1.455V0h-1.635V-6.231a1.814,1.814,0,0,0-2.03-2.074,2.175,2.175,0,0,0-2.188,1.362V0h-1.626V-9.51Zm22.28,4.86a5.694,5.694,0,0,1-.993,3.5A3.183,3.183,0,0,1-49.228.176a3.488,3.488,0,0,1-2.725-1.1V3.656h-1.626V-9.51h1.485l.079,1.055a3.35,3.35,0,0,1,2.76-1.23,3.243,3.243,0,0,1,2.711,1.292,5.756,5.756,0,0,1,1,3.595Zm-1.626-.185a4.2,4.2,0,0,0-.686-2.54,2.208,2.208,0,0,0-1.881-.932A2.39,2.39,0,0,0-51.952-7v4.544a2.4,2.4,0,0,0,2.232,1.3,2.2,2.2,0,0,0,1.859-.927A4.587,4.587,0,0,0-47.171-4.834Zm8.288-3.217a4.873,4.873,0,0,0-.8-.062A2.143,2.143,0,0,0-41.854-6.75V0h-1.626V-9.51H-41.9l.026,1.1A2.532,2.532,0,0,1-39.6-9.686a1.661,1.661,0,0,1,.721.123ZM-35.622,0h-1.626V-9.51h1.626ZM-37.38-12.032a.971.971,0,0,1,.242-.668.907.907,0,0,1,.716-.272.922.922,0,0,1,.721.272.96.96,0,0,1,.246.668.929.929,0,0,1-.246.659.938.938,0,0,1-.721.264.924.924,0,0,1-.716-.264A.938.938,0,0,1-37.38-12.032Zm5.889,2.522.044,1.055a3.512,3.512,0,0,1,2.821-1.23A2.719,2.719,0,0,1-25.91-8.156a3.6,3.6,0,0,1,1.235-1.107,3.647,3.647,0,0,1,1.8-.422q3.129,0,3.182,3.313V0h-1.626V-6.275A2.184,2.184,0,0,0-21.788-7.8a2.051,2.051,0,0,0-1.564-.505,2.156,2.156,0,0,0-1.5.541,2.193,2.193,0,0,0-.694,1.455V0h-1.635V-6.231a1.814,1.814,0,0,0-2.03-2.074A2.175,2.175,0,0,0-31.4-6.943V0h-1.626V-9.51ZM-11.373,0A3.416,3.416,0,0,1-11.6-1,3.628,3.628,0,0,1-14.309.176a3.357,3.357,0,0,1-2.307-.8,2.573,2.573,0,0,1-.9-2.017,2.688,2.688,0,0,1,1.129-2.307,5.325,5.325,0,0,1,3.177-.822h1.582v-.747a1.826,1.826,0,0,0-.51-1.358,2.049,2.049,0,0,0-1.5-.505,2.371,2.371,0,0,0-1.459.439,1.3,1.3,0,0,0-.589,1.063h-1.635a2.244,2.244,0,0,1,.505-1.375A3.449,3.449,0,0,1-15.447-9.3a4.613,4.613,0,0,1,1.9-.387,3.759,3.759,0,0,1,2.575.822A2.964,2.964,0,0,1-10-6.6v4.377A5.351,5.351,0,0,0-9.668-.141V0Zm-2.7-1.239a2.858,2.858,0,0,0,1.45-.4,2.392,2.392,0,0,0,.993-1.028V-4.614H-12.9q-2.988,0-2.988,1.749a1.48,1.48,0,0,0,.51,1.2A1.959,1.959,0,0,0-14.071-1.239ZM.949.176A4.155,4.155,0,0,1-2.2-1.094a4.714,4.714,0,0,1-1.213-3.4v-.3A5.707,5.707,0,0,1-2.87-7.317a4.217,4.217,0,0,1,1.512-1.74,3.8,3.8,0,0,1,2.1-.628A3.562,3.562,0,0,1,3.63-8.464a5.289,5.289,0,0,1,1.028,3.5v.677H-1.784A3.38,3.38,0,0,0-.962-2.017a2.583,2.583,0,0,0,2,.866A2.832,2.832,0,0,0,2.5-1.5a3.666,3.666,0,0,0,1.046-.932l.993.773A3.993,3.993,0,0,1,.949.176ZM.747-8.35a2.169,2.169,0,0,0-1.652.716,3.482,3.482,0,0,0-.826,2.008H3.032v-.123a3.1,3.1,0,0,0-.668-1.92A2.042,2.042,0,0,0,.747-8.35ZM8.306,0H6.68V-13.5H8.306Zm8.6-9.51.053,1.2A3.465,3.465,0,0,1,19.8-9.686q3.015,0,3.041,3.4V0H21.217V-6.293a2.189,2.189,0,0,0-.47-1.521,1.884,1.884,0,0,0-1.437-.492,2.347,2.347,0,0,0-1.389.422,2.865,2.865,0,0,0-.932,1.107V0H15.363V-9.51ZM31.166-.94A3.454,3.454,0,0,1,28.38.176a2.956,2.956,0,0,1-2.316-.883,3.823,3.823,0,0,1-.8-2.615V-9.51h1.626v6.144q0,2.162,1.758,2.162a2.434,2.434,0,0,0,2.479-1.389V-9.51h1.626V0H31.2ZM36.747-9.51l.044,1.055a3.512,3.512,0,0,1,2.821-1.23,2.719,2.719,0,0,1,2.716,1.529,3.6,3.6,0,0,1,1.235-1.107,3.647,3.647,0,0,1,1.8-.422q3.129,0,3.182,3.313V0H46.916V-6.275A2.184,2.184,0,0,0,46.45-7.8a2.051,2.051,0,0,0-1.564-.505,2.156,2.156,0,0,0-1.5.541,2.193,2.193,0,0,0-.694,1.455V0H41.054V-6.231a1.814,1.814,0,0,0-2.03-2.074,2.175,2.175,0,0,0-2.188,1.362V0H35.209V-9.51ZM54.94.176a4.155,4.155,0,0,1-3.146-1.27,4.714,4.714,0,0,1-1.213-3.4v-.3a5.707,5.707,0,0,1,.541-2.527,4.217,4.217,0,0,1,1.512-1.74,3.8,3.8,0,0,1,2.1-.628,3.562,3.562,0,0,1,2.883,1.222,5.289,5.289,0,0,1,1.028,3.5v.677H52.207a3.38,3.38,0,0,0,.822,2.272,2.583,2.583,0,0,0,2,.866A2.832,2.832,0,0,0,56.487-1.5a3.666,3.666,0,0,0,1.046-.932l.993.773A3.993,3.993,0,0,1,54.94.176Zm-.2-8.525a2.169,2.169,0,0,0-1.652.716,3.482,3.482,0,0,0-.826,2.008h4.764v-.123a3.1,3.1,0,0,0-.668-1.92A2.042,2.042,0,0,0,54.738-8.35Zm10.389.3a4.873,4.873,0,0,0-.8-.062A2.143,2.143,0,0,0,62.156-6.75V0H60.53V-9.51h1.582l.026,1.1a2.532,2.532,0,0,1,2.268-1.274,1.661,1.661,0,0,1,.721.123Zm.888,3.208a5.617,5.617,0,0,1,.549-2.514,4.1,4.1,0,0,1,1.529-1.723,4.163,4.163,0,0,1,2.237-.606,4.01,4.01,0,0,1,3.142,1.345,5.174,5.174,0,0,1,1.2,3.577v.114a5.666,5.666,0,0,1-.532,2.492A4.038,4.038,0,0,1,72.62-.439a4.211,4.211,0,0,1-2.272.615,4,4,0,0,1-3.133-1.345,5.147,5.147,0,0,1-1.2-3.56Zm1.635.193a4.068,4.068,0,0,0,.734,2.54,2.349,2.349,0,0,0,1.964.958,2.335,2.335,0,0,0,1.969-.971,4.449,4.449,0,0,0,.729-2.72A4.061,4.061,0,0,0,72.3-7.378,2.361,2.361,0,0,0,70.33-8.35a2.335,2.335,0,0,0-1.942.958A4.416,4.416,0,0,0,67.649-4.649ZM-45.659,5.7l-.264,3.146H-46.9L-46.89,4.5h1.23Zm2.373,0-.264,3.146h-.976l.009-4.342h1.23Zm5.607,12.48a4.155,4.155,0,0,1-3.146-1.27,4.714,4.714,0,0,1-1.213-3.4v-.3a5.707,5.707,0,0,1,.541-2.527,4.217,4.217,0,0,1,1.512-1.74,3.8,3.8,0,0,1,2.1-.628A3.562,3.562,0,0,1-35,9.536a5.289,5.289,0,0,1,1.028,3.5v.677h-6.442a3.38,3.38,0,0,0,.822,2.272,2.583,2.583,0,0,0,2,.866,2.832,2.832,0,0,0,1.459-.352,3.666,3.666,0,0,0,1.046-.932l.993.773A3.993,3.993,0,0,1-37.679,18.176Zm-.2-8.525a2.169,2.169,0,0,0-1.652.716,3.482,3.482,0,0,0-.826,2.008H-35.6v-.123a3.1,3.1,0,0,0-.668-1.92A2.042,2.042,0,0,0-37.881,9.65Zm11.329,5.827a1.2,1.2,0,0,0-.5-1.024,4.78,4.78,0,0,0-1.731-.628,8.186,8.186,0,0,1-1.96-.633,2.788,2.788,0,0,1-1.072-.879,2.1,2.1,0,0,1-.347-1.213,2.467,2.467,0,0,1,.989-1.978,3.861,3.861,0,0,1,2.527-.809,3.974,3.974,0,0,1,2.624.835,2.652,2.652,0,0,1,1.006,2.136h-1.635a1.468,1.468,0,0,0-.567-1.151,2.124,2.124,0,0,0-1.428-.483,2.223,2.223,0,0,0-1.389.387,1.217,1.217,0,0,0-.5,1.011.986.986,0,0,0,.466.888,5.731,5.731,0,0,0,1.683.571,8.77,8.77,0,0,1,1.973.65,2.878,2.878,0,0,1,1.121.91,2.237,2.237,0,0,1,.365,1.3,2.434,2.434,0,0,1-1.02,2.043,4.277,4.277,0,0,1-2.646.769,4.789,4.789,0,0,1-2.021-.4,3.288,3.288,0,0,1-1.375-1.129,2.722,2.722,0,0,1-.5-1.569h1.626a1.683,1.683,0,0,0,.655,1.3,2.54,2.54,0,0,0,1.613.479,2.622,2.622,0,0,0,1.481-.374A1.148,1.148,0,0,0-26.552,15.478Zm16.233-2.127a5.694,5.694,0,0,1-.993,3.5A3.183,3.183,0,0,1-14,18.176a3.488,3.488,0,0,1-2.725-1.1v4.579h-1.626V8.49h1.485l.079,1.055a3.35,3.35,0,0,1,2.76-1.23,3.243,3.243,0,0,1,2.711,1.292,5.756,5.756,0,0,1,1,3.595Zm-1.626-.185a4.2,4.2,0,0,0-.686-2.54,2.208,2.208,0,0,0-1.881-.932A2.39,2.39,0,0,0-16.726,11v4.544a2.4,2.4,0,0,0,2.232,1.3,2.2,2.2,0,0,0,1.859-.927A4.587,4.587,0,0,0-11.944,13.166Zm3.261-.009a5.617,5.617,0,0,1,.549-2.514A4.1,4.1,0,0,1-6.6,8.921a4.163,4.163,0,0,1,2.237-.606A4.01,4.01,0,0,1-1.226,9.659a5.174,5.174,0,0,1,1.2,3.577v.114a5.666,5.666,0,0,1-.532,2.492,4.038,4.038,0,0,1-1.521,1.718,4.211,4.211,0,0,1-2.272.615,4,4,0,0,1-3.133-1.345,5.147,5.147,0,0,1-1.2-3.56Zm1.635.193a4.068,4.068,0,0,0,.734,2.54,2.349,2.349,0,0,0,1.964.958,2.335,2.335,0,0,0,1.969-.971,4.449,4.449,0,0,0,.729-2.72A4.061,4.061,0,0,0-2.4,10.622,2.361,2.361,0,0,0-4.368,9.65a2.335,2.335,0,0,0-1.942.958A4.416,4.416,0,0,0-7.049,13.351Zm14.6,2.127a1.2,1.2,0,0,0-.5-1.024,4.78,4.78,0,0,0-1.731-.628,8.186,8.186,0,0,1-1.96-.633,2.788,2.788,0,0,1-1.072-.879A2.1,2.1,0,0,1,1.942,11.1a2.467,2.467,0,0,1,.989-1.978,3.861,3.861,0,0,1,2.527-.809,3.974,3.974,0,0,1,2.624.835,2.652,2.652,0,0,1,1.006,2.136H7.453a1.468,1.468,0,0,0-.567-1.151A2.124,2.124,0,0,0,5.458,9.65a2.223,2.223,0,0,0-1.389.387,1.217,1.217,0,0,0-.5,1.011.986.986,0,0,0,.466.888,5.731,5.731,0,0,0,1.683.571,8.77,8.77,0,0,1,1.973.65,2.878,2.878,0,0,1,1.121.91,2.237,2.237,0,0,1,.365,1.3,2.434,2.434,0,0,1-1.02,2.043,4.277,4.277,0,0,1-2.646.769,4.789,4.789,0,0,1-2.021-.4,3.288,3.288,0,0,1-1.375-1.129,2.722,2.722,0,0,1-.5-1.569H3.243a1.683,1.683,0,0,0,.655,1.3,2.54,2.54,0,0,0,1.613.479,2.622,2.622,0,0,0,1.481-.374A1.148,1.148,0,0,0,7.55,15.478ZM13.061,18H11.435V8.49h1.626ZM11.3,5.968a.971.971,0,0,1,.242-.668.907.907,0,0,1,.716-.272.922.922,0,0,1,.721.272.96.96,0,0,1,.246.668.929.929,0,0,1-.246.659.938.938,0,0,1-.721.264.924.924,0,0,1-.716-.264A.938.938,0,0,1,11.3,5.968Zm6.565.22v2.3h1.775V9.747H17.868v5.9a1.32,1.32,0,0,0,.237.858,1,1,0,0,0,.809.286,3.937,3.937,0,0,0,.773-.105V18a4.742,4.742,0,0,1-1.248.175,2.025,2.025,0,0,1-1.644-.659,2.832,2.832,0,0,1-.554-1.872v-5.9H14.511V8.49h1.731v-2.3ZM23.309,18H21.683V8.49h1.626ZM21.551,5.968a.971.971,0,0,1,.242-.668.907.907,0,0,1,.716-.272.922.922,0,0,1,.721.272.96.96,0,0,1,.246.668.929.929,0,0,1-.246.659.938.938,0,0,1-.721.264.924.924,0,0,1-.716-.264A.938.938,0,0,1,21.551,5.968Zm7.5,9.826L31.4,8.49h1.661L29.654,18H28.415L24.97,8.49h1.661Zm5.019-2.637a5.617,5.617,0,0,1,.549-2.514,4.1,4.1,0,0,1,1.529-1.723,4.163,4.163,0,0,1,2.237-.606,4.01,4.01,0,0,1,3.142,1.345,5.174,5.174,0,0,1,1.2,3.577v.114a5.666,5.666,0,0,1-.532,2.492,4.038,4.038,0,0,1-1.521,1.718,4.211,4.211,0,0,1-2.272.615,4,4,0,0,1-3.133-1.345,5.147,5.147,0,0,1-1.2-3.56Zm1.635.193a4.068,4.068,0,0,0,.734,2.54,2.487,2.487,0,0,0,3.933-.013,4.449,4.449,0,0,0,.729-2.72,4.061,4.061,0,0,0-.743-2.536,2.361,2.361,0,0,0-1.973-.971,2.335,2.335,0,0,0-1.942.958A4.416,4.416,0,0,0,35.7,13.351ZM44.771,5.7l-.264,3.146h-.976L43.541,4.5h1.23Zm2.373,0-.264,3.146h-.976L45.914,4.5h1.23Z" transform="translate(478.5 384.041)" fill="#12263f"/>
      <path id="Path_192165" data-name="Path 192165" d="M-2.531-5.7a7.935,7.935,0,0,1-3.16-1.534A2.93,2.93,0,0,1-6.68-9.483a3.1,3.1,0,0,1,1.208-2.5,4.8,4.8,0,0,1,3.142-.989,5.243,5.243,0,0,1,2.351.51,3.866,3.866,0,0,1,1.6,1.406A3.6,3.6,0,0,1,2.188-9.1H.492a2.34,2.34,0,0,0-.738-1.83,3,3,0,0,0-2.083-.666,3.074,3.074,0,0,0-1.947.55,1.836,1.836,0,0,0-.7,1.528A1.652,1.652,0,0,0-4.311-8.19,6.509,6.509,0,0,0-2.052-7.2a10.481,10.481,0,0,1,2.5.99A3.788,3.788,0,0,1,1.78-4.948a3.219,3.219,0,0,1,.435,1.7A2.99,2.99,0,0,1,1-.76,5.171,5.171,0,0,1-2.241.176,6.015,6.015,0,0,1-4.7-.33,4.142,4.142,0,0,1-6.464-1.714a3.378,3.378,0,0,1-.62-2h1.7a2.2,2.2,0,0,0,.857,1.833,3.608,3.608,0,0,0,2.29.672A3.317,3.317,0,0,0-.193-1.749,1.77,1.77,0,0,0,.519-3.234,1.738,1.738,0,0,0-.141-4.689,7.6,7.6,0,0,0-2.531-5.7ZM6.188,0H4.5V-12.8H6.188Z" transform="translate(434.5 263.041)" fill="#12263f"/>
      <path id="Path_114780" data-name="Path 114780" d="M-8361.18-2355.5h-128.152v88.5" transform="translate(8582.713 2623.332)" fill="none" stroke="#0f2771" stroke-width="1.5"/>
      <path id="Path_114781" data-name="Path 114781" d="M-8489.334-2355.5h128.153v88.5" transform="translate(8853.477 2623.332)" fill="none" stroke="#0f2771" stroke-width="1.5"/>
      <path id="Path_114782" data-name="Path 114782" d="M-8492-2230v28.131h402.042V-2230" transform="translate(8582.255 2642.59)" fill="none" stroke="#0f2771" stroke-width="1.5"/>
      <g id="Group_108545" data-name="Group 108545" transform="translate(281.311 54.504)">
        <line id="Line_159" data-name="Line 159" y2="45.713" transform="translate(7.619)" fill="none" stroke="#0f2771" stroke-width="1.5"/>
        <path id="Polygon_6" data-name="Polygon 6" d="M8,0l8,14H0Z" transform="translate(16.188 59.537) rotate(180)" fill="#0f2771"/>
      </g>
      <g id="Group_108546" data-name="Group 108546" transform="translate(281.311 171.114)">
        <line id="Line_159-2" data-name="Line 159" y2="45.713" transform="translate(7.619 0)" fill="none" stroke="#0f2771" stroke-width="1.5"/>
        <path id="Polygon_6-2" data-name="Polygon 6" d="M8.2,0l8.2,14.066H0Z" transform="translate(16.41 59.193) rotate(180)" fill="#0f2771"/>
      </g>
      <g id="Group_108547" data-name="Group 108547" transform="translate(281.311 440.721)">
        <line id="Line_159-3" data-name="Line 159" y2="45.713" transform="translate(7.619)" fill="none" stroke="#0f2771" stroke-width="1.5"/>
        <path id="Polygon_6-3" data-name="Polygon 6" d="M8.2,0l8.2,14.066H0Z" transform="translate(16.41 59.193) rotate(180)" fill="#0f2771"/>
      </g>
      <path id="Polygon_6-4" data-name="Polygon 6" d="M8.2,0l8.2,14.066H0Z" transform="translate(101.586 357.5) rotate(180)" fill="#0f2771"/>
      <path id="Polygon_7" data-name="Polygon 7" d="M8,0l8,14H0Z" transform="translate(500.5 357.041) rotate(180)" fill="#0f2771"/>
    </g>
  </g>
</svg>
