<svg xmlns="http://www.w3.org/2000/svg" width="819" height="488" viewBox="0 0 819 488">
  <g id="Grupo_130039" data-name="Grupo 130039" transform="translate(-391 -1374)">
    <g id="Rectángulo_40197" data-name="Rectángulo 40197" transform="translate(391 1374)" fill="none" stroke="#dee9f0" stroke-width="3">
      <rect width="819" height="488" stroke="none"/>
      <rect x="1.5" y="1.5" width="816" height="485" fill="none"/>
    </g>
    <g id="Grupo_130035" data-name="Grupo 130035" transform="translate(-2387 11706)">
      <rect id="Rectángulo_41072" data-name="Rectángulo 41072" width="143" height="47" rx="23.5" transform="translate(2819 -10302)" fill="#feca2e"/>
      <rect id="Rectángulo_41235" data-name="Rectángulo 41235" width="143" height="47" rx="23.5" transform="translate(3125 -10302)" fill="#feca2e"/>
      <rect id="Rectángulo_41236" data-name="Rectángulo 41236" width="143" height="47" rx="23.5" transform="translate(3413 -10302)" fill="#feca2e"/>
      <path id="Trazado_192189" data-name="Trazado 192189" d="M8.408-3.779a1.408,1.408,0,0,0-.532-1.172,6.615,6.615,0,0,0-1.87-.869,17.941,17.941,0,0,1-2.187-.869Q1.055-8.047,1.055-10.42A3.345,3.345,0,0,1,1.743-12.5a4.453,4.453,0,0,1,1.948-1.406,7.582,7.582,0,0,1,2.832-.5,6.632,6.632,0,0,1,2.749.547,4.352,4.352,0,0,1,1.89,1.558A4.068,4.068,0,0,1,11.836-10H8.418a1.719,1.719,0,0,0-.532-1.348,2.075,2.075,0,0,0-1.44-.479A2.339,2.339,0,0,0,5-11.421a1.243,1.243,0,0,0-.532,1.03,1.252,1.252,0,0,0,.586.991,7.389,7.389,0,0,0,2.061.918A12.623,12.623,0,0,1,9.531-7.461a4.07,4.07,0,0,1,2.3,3.662A3.472,3.472,0,0,1,10.43-.869,6.255,6.255,0,0,1,6.572.2a7.653,7.653,0,0,1-3.13-.62,4.719,4.719,0,0,1-2.109-1.7A4.428,4.428,0,0,1,.625-4.609H4.063a2.181,2.181,0,0,0,.591,1.685,2.793,2.793,0,0,0,1.919.542,2.206,2.206,0,0,0,1.343-.366A1.209,1.209,0,0,0,8.408-3.779ZM18.555.2a5.432,5.432,0,0,1-3.936-1.45,5.008,5.008,0,0,1-1.5-3.774V-5.3a6.489,6.489,0,0,1,.6-2.861,4.395,4.395,0,0,1,1.753-1.919,5.292,5.292,0,0,1,2.734-.679A4.574,4.574,0,0,1,21.719-9.38a5.43,5.43,0,0,1,1.289,3.853v1.279H16.465a2.372,2.372,0,0,0,.771,1.4,2.3,2.3,0,0,0,1.543.508,2.958,2.958,0,0,0,2.441-1.094l1.5,1.777A4.2,4.2,0,0,1,20.981-.308,5.891,5.891,0,0,1,18.555.2Zm-.371-8.418q-1.445,0-1.719,1.914h3.32v-.254a1.63,1.63,0,0,0-.4-1.226A1.593,1.593,0,0,0,18.184-8.223ZM28.8-2.344a1.464,1.464,0,0,0,1.074-.376,1.379,1.379,0,0,0,.371-1.05H33.33A3.653,3.653,0,0,1,32.085-.918,4.631,4.631,0,0,1,28.877.2,4.689,4.689,0,0,1,25.244-1.25a5.7,5.7,0,0,1-1.328-4v-.137a6.436,6.436,0,0,1,.591-2.827,4.3,4.3,0,0,1,1.7-1.885,5.081,5.081,0,0,1,2.637-.659,4.573,4.573,0,0,1,3.271,1.143,4.053,4.053,0,0,1,1.211,3.1H30.244a1.807,1.807,0,0,0-.4-1.26,1.382,1.382,0,0,0-1.074-.439q-1.279,0-1.494,1.631a11.508,11.508,0,0,0-.068,1.426,4.52,4.52,0,0,0,.381,2.207A1.319,1.319,0,0,0,28.8-2.344Zm12.217,1.2A3.393,3.393,0,0,1,38.193.2,3.328,3.328,0,0,1,35.562-.815a4.251,4.251,0,0,1-.894-2.905v-6.846h3.291V-3.7a1.183,1.183,0,0,0,1.318,1.357,1.72,1.72,0,0,0,1.611-.811v-7.412H44.2V0H41.113ZM51.113.2a5.432,5.432,0,0,1-3.936-1.45,5.008,5.008,0,0,1-1.5-3.774V-5.3a6.489,6.489,0,0,1,.6-2.861,4.395,4.395,0,0,1,1.753-1.919,5.292,5.292,0,0,1,2.734-.679A4.574,4.574,0,0,1,54.277-9.38a5.43,5.43,0,0,1,1.289,3.853v1.279H49.023a2.372,2.372,0,0,0,.771,1.4,2.3,2.3,0,0,0,1.543.508,2.958,2.958,0,0,0,2.441-1.094l1.5,1.777A4.2,4.2,0,0,1,53.54-.308,5.891,5.891,0,0,1,51.113.2Zm-.371-8.418q-1.445,0-1.719,1.914h3.32v-.254a1.63,1.63,0,0,0-.4-1.226A1.593,1.593,0,0,0,50.742-8.223Zm9.17-2.344.107,1.24a3.583,3.583,0,0,1,3.018-1.436,3.015,3.015,0,0,1,2.466.986,4.7,4.7,0,0,1,.845,2.969V0h-3.3V-6.67a1.783,1.783,0,0,0-.322-1.177,1.491,1.491,0,0,0-1.172-.376,1.569,1.569,0,0,0-1.436.762V0H56.826V-10.566ZM72.637-2.344a1.464,1.464,0,0,0,1.074-.376,1.379,1.379,0,0,0,.371-1.05h3.086A3.653,3.653,0,0,1,75.923-.918,4.631,4.631,0,0,1,72.715.2,4.689,4.689,0,0,1,69.082-1.25a5.7,5.7,0,0,1-1.328-4v-.137a6.436,6.436,0,0,1,.591-2.827,4.3,4.3,0,0,1,1.7-1.885,5.081,5.081,0,0,1,2.637-.659,4.573,4.573,0,0,1,3.271,1.143,4.053,4.053,0,0,1,1.211,3.1H74.082a1.806,1.806,0,0,0-.4-1.26,1.382,1.382,0,0,0-1.074-.439q-1.279,0-1.494,1.631a11.508,11.508,0,0,0-.068,1.426,4.52,4.52,0,0,0,.381,2.207A1.319,1.319,0,0,0,72.637-2.344ZM82.031,0h-3.3V-10.566h3.3Zm-3.5-13.291a1.469,1.469,0,0,1,.508-1.152,1.916,1.916,0,0,1,1.318-.449,1.916,1.916,0,0,1,1.318.449,1.469,1.469,0,0,1,.508,1.152,1.469,1.469,0,0,1-.508,1.152,1.916,1.916,0,0,1-1.318.449,1.916,1.916,0,0,1-1.318-.449A1.469,1.469,0,0,1,78.535-13.291ZM90.01,0A3.716,3.716,0,0,1,89.7-.947,3.06,3.06,0,0,1,87.158.2a3.749,3.749,0,0,1-2.539-.9,2.875,2.875,0,0,1-1.045-2.271,2.955,2.955,0,0,1,1.27-2.6,6.468,6.468,0,0,1,3.691-.879h1.016v-.559q0-1.462-1.26-1.462a1.03,1.03,0,0,0-1.172,1.158H83.828a2.95,2.95,0,0,1,1.3-2.487,5.479,5.479,0,0,1,3.325-.956,4.8,4.8,0,0,1,3.193.986,3.429,3.429,0,0,1,1.2,2.705v4.678A4.79,4.79,0,0,0,93.3-.166V0ZM87.949-2.148a1.836,1.836,0,0,0,1.021-.264,1.653,1.653,0,0,0,.581-.6V-4.7h-.957q-1.719,0-1.719,1.543a.942.942,0,0,0,.3.728A1.1,1.1,0,0,0,87.949-2.148ZM98.145,0h-3.3V-15h3.3Z" transform="translate(2840 -10273)" fill="#12263f"/>
      <path id="Trazado_192188" data-name="Trazado 192188" d="M12.578-4.814a5.193,5.193,0,0,1-.8,2.622A4.833,4.833,0,0,1,9.722-.43,7,7,0,0,1,6.7.2,5.584,5.584,0,0,1,2.285-1.631,7.54,7.54,0,0,1,.674-6.787v-.7A8.607,8.607,0,0,1,1.4-11.147,5.513,5.513,0,0,1,3.5-13.569a5.844,5.844,0,0,1,3.164-.854,6.129,6.129,0,0,1,4.16,1.362,5.383,5.383,0,0,1,1.787,3.755H9.189a2.547,2.547,0,0,0-.654-1.865,2.691,2.691,0,0,0-1.875-.566,2.048,2.048,0,0,0-1.875.957A6.151,6.151,0,0,0,4.16-7.725v1.006a6.806,6.806,0,0,0,.571,3.252A2.091,2.091,0,0,0,6.7-2.49a2.632,2.632,0,0,0,1.807-.557A2.363,2.363,0,0,0,9.17-4.814Zm1.055-.566A6.236,6.236,0,0,1,14.248-8.2a4.4,4.4,0,0,1,1.768-1.9,5.323,5.323,0,0,1,2.705-.664,4.858,4.858,0,0,1,3.74,1.47,5.64,5.64,0,0,1,1.367,4v.117a5.472,5.472,0,0,1-1.372,3.921A4.871,4.871,0,0,1,18.74.2a4.927,4.927,0,0,1-3.623-1.353,5.29,5.29,0,0,1-1.475-3.667Zm3.291.205a3.932,3.932,0,0,0,.459,2.148,1.529,1.529,0,0,0,1.357.684q1.758,0,1.8-2.705v-.332q0-2.842-1.816-2.842-1.65,0-1.787,2.451ZM28.3-10.566l.107,1.24a3.583,3.583,0,0,1,3.018-1.436,3.015,3.015,0,0,1,2.466.986,4.7,4.7,0,0,1,.845,2.969V0h-3.3V-6.67a1.783,1.783,0,0,0-.322-1.177,1.491,1.491,0,0,0-1.172-.376,1.569,1.569,0,0,0-1.436.762V0H25.215V-10.566Zm7.842,5.205a6.455,6.455,0,0,1,1.084-3.955,3.568,3.568,0,0,1,3.027-1.445,3.035,3.035,0,0,1,2.383,1.113V-15h3.3V0H42.979l-.166-1.133A3.116,3.116,0,0,1,40.234.2,3.562,3.562,0,0,1,37.246-1.25,6.659,6.659,0,0,1,36.143-5.361Zm3.291.205q0,2.813,1.641,2.813a1.62,1.62,0,0,0,1.563-.918V-7.285a1.576,1.576,0,0,0-1.543-.937q-1.523,0-1.65,2.461ZM51.279,0h-3.3V-10.566h3.3Zm-3.5-13.291a1.469,1.469,0,0,1,.508-1.152,1.916,1.916,0,0,1,1.318-.449,1.916,1.916,0,0,1,1.318.449,1.469,1.469,0,0,1,.508,1.152,1.469,1.469,0,0,1-.508,1.152,1.916,1.916,0,0,1-1.318.449,1.916,1.916,0,0,1-1.318-.449A1.469,1.469,0,0,1,47.783-13.291Zm9.99,10.947a1.464,1.464,0,0,0,1.074-.376,1.379,1.379,0,0,0,.371-1.05H62.3A3.653,3.653,0,0,1,61.06-.918,4.631,4.631,0,0,1,57.852.2,4.689,4.689,0,0,1,54.219-1.25a5.7,5.7,0,0,1-1.328-4v-.137a6.436,6.436,0,0,1,.591-2.827,4.3,4.3,0,0,1,1.7-1.885,5.081,5.081,0,0,1,2.637-.659,4.573,4.573,0,0,1,3.271,1.143,4.053,4.053,0,0,1,1.211,3.1H59.219a1.807,1.807,0,0,0-.4-1.26,1.382,1.382,0,0,0-1.074-.439q-1.279,0-1.494,1.631a11.507,11.507,0,0,0-.068,1.426,4.52,4.52,0,0,0,.381,2.207A1.319,1.319,0,0,0,57.773-2.344ZM67.168,0h-3.3V-10.566h3.3Zm-3.5-13.291a1.469,1.469,0,0,1,.508-1.152,1.916,1.916,0,0,1,1.318-.449,1.916,1.916,0,0,1,1.318.449,1.469,1.469,0,0,1,.508,1.152,1.469,1.469,0,0,1-.508,1.152,1.916,1.916,0,0,1-1.318.449,1.916,1.916,0,0,1-1.318-.449A1.469,1.469,0,0,1,63.672-13.291Zm5.107,7.91A6.236,6.236,0,0,1,69.395-8.2a4.4,4.4,0,0,1,1.768-1.9,5.323,5.323,0,0,1,2.705-.664,4.858,4.858,0,0,1,3.74,1.47,5.64,5.64,0,0,1,1.367,4v.117A5.472,5.472,0,0,1,77.6-1.255,4.871,4.871,0,0,1,73.887.2a4.927,4.927,0,0,1-3.623-1.353,5.29,5.29,0,0,1-1.475-3.667Zm3.291.205a3.932,3.932,0,0,0,.459,2.148,1.529,1.529,0,0,0,1.357.684q1.758,0,1.8-2.705v-.332q0-2.842-1.816-2.842-1.65,0-1.787,2.451Zm11.377-5.391.107,1.24a3.583,3.583,0,0,1,3.018-1.436,3.015,3.015,0,0,1,2.466.986,4.7,4.7,0,0,1,.845,2.969V0h-3.3V-6.67a1.783,1.783,0,0,0-.322-1.177,1.491,1.491,0,0,0-1.172-.376,1.569,1.569,0,0,0-1.436.762V0H80.361V-10.566ZM97.656,0a3.716,3.716,0,0,1-.312-.947A3.06,3.06,0,0,1,94.8.2a3.749,3.749,0,0,1-2.539-.9,2.875,2.875,0,0,1-1.045-2.271,2.955,2.955,0,0,1,1.27-2.6,6.468,6.468,0,0,1,3.691-.879H97.2v-.559q0-1.462-1.26-1.462a1.03,1.03,0,0,0-1.172,1.158H91.475a2.95,2.95,0,0,1,1.3-2.487,5.479,5.479,0,0,1,3.325-.956,4.8,4.8,0,0,1,3.193.986,3.429,3.429,0,0,1,1.2,2.705v4.678a4.79,4.79,0,0,0,.449,2.227V0ZM95.6-2.148a1.836,1.836,0,0,0,1.021-.264,1.653,1.653,0,0,0,.581-.6V-4.7H96.24q-1.719,0-1.719,1.543a.942.942,0,0,0,.3.728A1.1,1.1,0,0,0,95.6-2.148ZM105.791,0h-3.3V-15h3.3Z" transform="translate(3145 -10270)" fill="#12263f"/>
      <path id="Trazado_192187" data-name="Trazado 192187" d="M-35.317,0h-3.418V-14.219h3.418Zm6.064-13.193v2.627h1.738v2.285h-1.738v4.834a1.234,1.234,0,0,0,.215.83,1.152,1.152,0,0,0,.85.234,4.828,4.828,0,0,0,.82-.059V-.088A6.074,6.074,0,0,1-29.224.2a3.448,3.448,0,0,1-2.51-.8,3.282,3.282,0,0,1-.811-2.432V-8.281h-1.348v-2.285h1.348v-2.627ZM-21.108.2a5.432,5.432,0,0,1-3.936-1.45,5.008,5.008,0,0,1-1.5-3.774V-5.3a6.489,6.489,0,0,1,.6-2.861,4.395,4.395,0,0,1,1.753-1.919,5.292,5.292,0,0,1,2.734-.679A4.574,4.574,0,0,1-17.944-9.38a5.43,5.43,0,0,1,1.289,3.853v1.279H-23.2a2.372,2.372,0,0,0,.771,1.4,2.3,2.3,0,0,0,1.543.508,2.958,2.958,0,0,0,2.441-1.094l1.5,1.777A4.2,4.2,0,0,1-18.682-.308,5.891,5.891,0,0,1-21.108.2Zm-.371-8.418q-1.445,0-1.719,1.914h3.32v-.254a1.63,1.63,0,0,0-.4-1.226A1.593,1.593,0,0,0-21.479-8.223Zm12.539.635-1.084-.078a1.947,1.947,0,0,0-1.992.977V0h-3.291V-10.566h3.086l.107,1.357A2.548,2.548,0,0,1-9.8-10.762a3.209,3.209,0,0,1,.918.117ZM-2.095,0a3.716,3.716,0,0,1-.312-.947A3.06,3.06,0,0,1-4.946.2a3.749,3.749,0,0,1-2.539-.9A2.875,2.875,0,0,1-8.53-2.979a2.955,2.955,0,0,1,1.27-2.6,6.468,6.468,0,0,1,3.691-.879h1.016v-.559q0-1.462-1.26-1.462A1.03,1.03,0,0,0-4.985-7.319H-8.276a2.95,2.95,0,0,1,1.3-2.487,5.479,5.479,0,0,1,3.325-.956,4.8,4.8,0,0,1,3.193.986A3.429,3.429,0,0,1,.747-7.07v4.678A4.79,4.79,0,0,0,1.2-.166V0ZM-4.155-2.148a1.836,1.836,0,0,0,1.021-.264,1.653,1.653,0,0,0,.581-.6V-4.7h-.957q-1.719,0-1.719,1.543a.942.942,0,0,0,.3.728A1.1,1.1,0,0,0-4.155-2.148Zm11.191-.2A1.464,1.464,0,0,0,8.11-2.72a1.379,1.379,0,0,0,.371-1.05h3.086A3.653,3.653,0,0,1,10.322-.918,4.631,4.631,0,0,1,7.114.2,4.689,4.689,0,0,1,3.481-1.25a5.7,5.7,0,0,1-1.328-4v-.137a6.436,6.436,0,0,1,.591-2.827,4.3,4.3,0,0,1,1.7-1.885,5.081,5.081,0,0,1,2.637-.659,4.573,4.573,0,0,1,3.271,1.143,4.053,4.053,0,0,1,1.211,3.1H8.481a1.807,1.807,0,0,0-.4-1.26,1.382,1.382,0,0,0-1.074-.439q-1.279,0-1.494,1.631a11.508,11.508,0,0,0-.068,1.426,4.52,4.52,0,0,0,.381,2.207A1.319,1.319,0,0,0,7.036-2.344ZM16.431,0h-3.3V-10.566h3.3Zm-3.5-13.291a1.469,1.469,0,0,1,.508-1.152,1.916,1.916,0,0,1,1.318-.449,1.916,1.916,0,0,1,1.318.449,1.469,1.469,0,0,1,.508,1.152,1.469,1.469,0,0,1-.508,1.152,1.916,1.916,0,0,1-1.318.449,1.916,1.916,0,0,1-1.318-.449A1.469,1.469,0,0,1,12.935-13.291Zm5.107,7.91A6.236,6.236,0,0,1,18.657-8.2a4.4,4.4,0,0,1,1.768-1.9,5.323,5.323,0,0,1,2.705-.664,4.858,4.858,0,0,1,3.74,1.47,5.64,5.64,0,0,1,1.367,4v.117a5.472,5.472,0,0,1-1.372,3.921A4.871,4.871,0,0,1,23.149.2a4.927,4.927,0,0,1-3.623-1.353,5.29,5.29,0,0,1-1.475-3.667Zm3.291.205a3.932,3.932,0,0,0,.459,2.148,1.529,1.529,0,0,0,1.357.684q1.758,0,1.8-2.705v-.332q0-2.842-1.816-2.842-1.65,0-1.787,2.451ZM23.579-15h3.477l-2.715,3.066-2.686,0Zm9.131,4.434.107,1.24a3.583,3.583,0,0,1,3.018-1.436,3.015,3.015,0,0,1,2.466.986,4.7,4.7,0,0,1,.845,2.969V0h-3.3V-6.67a1.783,1.783,0,0,0-.322-1.177,1.491,1.491,0,0,0-1.172-.376,1.569,1.569,0,0,0-1.436.762V0H29.624V-10.566Z" transform="translate(3484 -10273)" fill="#12263f"/>
      <g id="Grupo_109154" data-name="Grupo 109154" transform="translate(2352.436 -12013.498)">
        <rect id="Rectángulo_40196" data-name="Rectángulo 40196" width="43.381" height="91.128" transform="translate(586.128 1877.833) rotate(90)" fill="#bddcf6"/>
        <rect id="Rectángulo_40581" data-name="Rectángulo 40581" width="43.381" height="91.128" transform="translate(586.128 1973.833) rotate(90)" fill="#bddcf6"/>
        <g id="Grupo_108400" data-name="Grupo 108400" transform="translate(546.408 1832.33) rotate(90)">
          <line id="Línea_141" data-name="Línea 141" x2="33.814" transform="translate(0 5.844)" fill="none" stroke="#0f2771" stroke-miterlimit="10" stroke-width="1.5"/>
          <path id="Polígono_5" data-name="Polígono 5" d="M5.844,0l5.844,11.689H0Z" transform="translate(45.503 0) rotate(90)" fill="#0f2771"/>
        </g>
        <g id="Grupo_109145" data-name="Grupo 109145" transform="translate(546.408 1925.496) rotate(90)">
          <line id="Línea_141-2" data-name="Línea 141" x2="33.814" transform="translate(0 5.844)" fill="none" stroke="#0f2771" stroke-miterlimit="10" stroke-width="1.5"/>
          <path id="Polígono_5-2" data-name="Polígono 5" d="M5.844,0l5.844,11.689H0Z" transform="translate(45.503 0) rotate(90)" fill="#0f2771"/>
        </g>
        <g id="Grupo_109146" data-name="Grupo 109146" transform="translate(546.408 2017.215) rotate(90)">
          <line id="Línea_141-3" data-name="Línea 141" x2="33.814" transform="translate(0 5.844)" fill="none" stroke="#0f2771" stroke-miterlimit="10" stroke-width="1.5"/>
          <path id="Polígono_5-3" data-name="Polígono 5" d="M5.844,0l5.844,11.689H0Z" transform="translate(45.503 0) rotate(90)" fill="#0f2771"/>
        </g>
        <path id="Trazado_192176" data-name="Trazado 192176" d="M8.235-2.391H4.008L3.27,0h-3.3L4.667-12.8h2.9L12.3,0H8.982ZM4.746-4.772H7.5L6.117-9.211Z" transform="translate(534 1906)" fill="#12263f"/>
        <path id="Trazado_192177" data-name="Trazado 192177" d="M.967,0V-12.8h4.6a6.509,6.509,0,0,1,3.757.905,3.012,3.012,0,0,1,1.288,2.628,3.045,3.045,0,0,1-.457,1.7A2.663,2.663,0,0,1,8.807-6.53a2.7,2.7,0,0,1,1.538.984,2.862,2.862,0,0,1,.536,1.758A3.388,3.388,0,0,1,9.69-.962,5.667,5.667,0,0,1,6.161,0ZM4.052-5.44v3.067H6.073a1.923,1.923,0,0,0,1.283-.382A1.338,1.338,0,0,0,7.8-3.832,1.419,1.419,0,0,0,6.214-5.44Zm0-2.021H5.66A2.285,2.285,0,0,0,7.1-7.832,1.314,1.314,0,0,0,7.532-8.9a1.379,1.379,0,0,0-.466-1.168,2.493,2.493,0,0,0-1.5-.357H4.052Z" transform="translate(534 2002)" fill="#12263f"/>
      </g>
      <g id="Grupo_109153" data-name="Grupo 109153" transform="translate(2400 -12013.498)">
        <rect id="Rectángulo_40582" data-name="Rectángulo 40582" width="43.381" height="91.128" transform="translate(769.128 1921.214) rotate(90)" fill="#bddcf6"/>
        <rect id="Rectángulo_40583" data-name="Rectángulo 40583" width="43.381" height="91.128" transform="translate(919.128 1921.214) rotate(90)" fill="#bddcf6"/>
        <path id="Polígono_5-4" data-name="Polígono 5" d="M5.844,0l5.844,11.689H0Z" transform="translate(733.344 1921.214) rotate(180)" fill="#0f2771"/>
        <path id="Polígono_9" data-name="Polígono 9" d="M5.844,0l5.844,11.689H0Z" transform="translate(875.344 1921.214) rotate(180)" fill="#0f2771"/>
        <path id="Polígono_10" data-name="Polígono 10" d="M5.844,0l5.844,11.689H0Z" transform="translate(824.656 2027.345) rotate(-90)" fill="#0f2771"/>
        <path id="Polígono_11" data-name="Polígono 11" d="M5.844,0l5.844,11.689H0Z" transform="translate(776.344 2015.655) rotate(90)" fill="#0f2771"/>
        <g id="Grupo_109147" data-name="Grupo 109147" transform="translate(806.344 2044) rotate(90)">
          <line id="Línea_141-4" data-name="Línea 141" x2="33.814" transform="translate(0 5.844)" fill="none" stroke="#0f2771" stroke-miterlimit="10" stroke-width="1.5"/>
          <path id="Polígono_5-5" data-name="Polígono 5" d="M5.844,0l5.844,11.689H0Z" transform="translate(45.503 0) rotate(90)" fill="#0f2771"/>
        </g>
        <path id="Trazado_192181" data-name="Trazado 192181" d="M8.235-2.391H4.008L3.27,0h-3.3L4.667-12.8h2.9L12.3,0H8.982ZM4.746-4.772H7.5L6.117-9.211Z" transform="translate(717 1949.381)" fill="#12263f"/>
        <path id="Trazado_192180" data-name="Trazado 192180" d="M5.933-3.48,8.481-12.8h3.445L7.62,0H4.245L-.026-12.8H3.393Z" transform="translate(737.555 1852.086)" fill="#0f2771"/>
        <path id="Trazado_192179" data-name="Trazado 192179" d="M9.026-5.1H4.052V0H.967V-12.8H9.527v2.382H4.052v2.944H9.026Z" transform="translate(853.445 1852.086)" fill="#0f2771"/>
        <path id="Trazado_192182" data-name="Trazado 192182" d="M.967,0V-12.8h4.6a6.509,6.509,0,0,1,3.757.905,3.012,3.012,0,0,1,1.288,2.628,3.045,3.045,0,0,1-.457,1.7A2.663,2.663,0,0,1,8.807-6.53a2.7,2.7,0,0,1,1.538.984,2.862,2.862,0,0,1,.536,1.758A3.388,3.388,0,0,1,9.69-.962,5.667,5.667,0,0,1,6.161,0ZM4.052-5.44v3.067H6.073a1.923,1.923,0,0,0,1.283-.382A1.338,1.338,0,0,0,7.8-3.832,1.419,1.419,0,0,0,6.214-5.44Zm0-2.021H5.66A2.285,2.285,0,0,0,7.1-7.832,1.314,1.314,0,0,0,7.532-8.9a1.379,1.379,0,0,0-.466-1.168,2.493,2.493,0,0,0-1.5-.357H4.052Z" transform="translate(867 1949.381)" fill="#12263f"/>
        <rect id="Rectángulo_40584" data-name="Rectángulo 40584" width="55" height="55" transform="translate(798.5 1818.195) rotate(45)" fill="#bddcf6"/>
        <path id="Trazado_192178" data-name="Trazado 192178" d="M11.32-4.333a4.673,4.673,0,0,1-.721,2.36A4.35,4.35,0,0,1,8.75-.387a6.3,6.3,0,0,1-2.72.563A5.025,5.025,0,0,1,2.057-1.468,6.786,6.786,0,0,1,.606-6.108v-.633a7.746,7.746,0,0,1,.655-3.292,4.961,4.961,0,0,1,1.885-2.18,5.26,5.26,0,0,1,2.848-.769,5.516,5.516,0,0,1,3.744,1.226,4.844,4.844,0,0,1,1.608,3.379H8.271a2.292,2.292,0,0,0-.589-1.679,2.422,2.422,0,0,0-1.687-.51A1.843,1.843,0,0,0,4.307-9.7a5.536,5.536,0,0,0-.562,2.751v.905A6.125,6.125,0,0,0,4.258-3.12a1.882,1.882,0,0,0,1.771.879,2.369,2.369,0,0,0,1.626-.5,2.126,2.126,0,0,0,.6-1.591Z" transform="translate(792.5 1863.086)" fill="#12263f"/>
        <circle id="Elipse_4806" data-name="Elipse 4806" cx="22.5" cy="22.5" r="22.5" transform="translate(778 1999)" fill="#bddcf6"/>
        <path id="Trazado_115571" data-name="Trazado 115571" d="M-458.391-9842.914H-490.5V-9780" transform="translate(1218 11700)" fill="none" stroke="#0f2771" stroke-width="1.5"/>
        <path id="Trazado_115574" data-name="Trazado 115574" d="M-442.25-9786.01H-490.5v-56.905" transform="translate(1218 11807.51)" fill="none" stroke="#0f2771" stroke-width="1.5"/>
        <path id="Trazado_115572" data-name="Trazado 115572" d="M-490.5-9842.914h32.109V-9780" transform="translate(1327.891 11700)" fill="none" stroke="#0f2771" stroke-width="1.5"/>
        <path id="Trazado_115573" data-name="Trazado 115573" d="M-490.5-9786.01H-449v-56.905" transform="translate(1318.5 11807.51)" fill="none" stroke="#0f2771" stroke-width="1.5"/>
      </g>
      <g id="Grupo_109152" data-name="Grupo 109152" transform="translate(2436 -12013.498)">
        <rect id="Rectángulo_40585" data-name="Rectángulo 40585" width="43.381" height="91.128" transform="translate(1100.064 1922.214) rotate(90)" fill="#bddcf6"/>
        <path id="Polígono_12" data-name="Polígono 12" d="M5.844,0l5.844,11.689H0Z" transform="translate(1026.734 1848.656) rotate(90)" fill="#0f2771"/>
        <g id="Grupo_109148" data-name="Grupo 109148" transform="translate(1059.781 2088.881) rotate(90)">
          <line id="Línea_141-5" data-name="Línea 141" x2="33.814" transform="translate(0 5.844)" fill="none" stroke="#0f2771" stroke-miterlimit="10" stroke-width="1.5"/>
          <path id="Polígono_5-6" data-name="Polígono 5" d="M5.844,0l5.844,11.689H0Z" transform="translate(45.503 0) rotate(90)" fill="#0f2771"/>
        </g>
        <g id="Grupo_109149" data-name="Grupo 109149" transform="translate(1059.781 1965.596) rotate(90)">
          <line id="Línea_141-6" data-name="Línea 141" x2="33.814" transform="translate(0 5.844)" fill="none" stroke="#0f2771" stroke-miterlimit="10" stroke-width="1.5"/>
          <path id="Polígono_5-7" data-name="Polígono 5" d="M5.844,0l5.844,11.689H0Z" transform="translate(45.503 0) rotate(90)" fill="#0f2771"/>
        </g>
        <g id="Grupo_109150" data-name="Grupo 109150" transform="translate(1059.781 1876.662) rotate(90)">
          <line id="Línea_141-7" data-name="Línea 141" x2="33.814" transform="translate(0 5.844)" fill="none" stroke="#0f2771" stroke-miterlimit="10" stroke-width="1.5"/>
          <path id="Polígono_5-8" data-name="Polígono 5" d="M5.844,0l5.844,11.689H0Z" transform="translate(45.503 0) rotate(90)" fill="#0f2771"/>
        </g>
        <g id="Grupo_109151" data-name="Grupo 109151" transform="translate(1059.781 1786.498) rotate(90)">
          <line id="Línea_141-8" data-name="Línea 141" x2="33.814" transform="translate(0 5.844)" fill="none" stroke="#0f2771" stroke-miterlimit="10" stroke-width="1.5"/>
          <path id="Polígono_5-9" data-name="Polígono 5" d="M5.844,0l5.844,11.689H0Z" transform="translate(45.503 0) rotate(90)" fill="#0f2771"/>
        </g>
        <path id="Trazado_192186" data-name="Trazado 192186" d="M5.933-3.48,8.481-12.8h3.445L7.62,0H4.245L-.026-12.8H3.393Z" transform="translate(1000 2045.967)" fill="#0f2771"/>
        <path id="Trazado_192185" data-name="Trazado 192185" d="M9.026-5.1H4.052V0H.967V-12.8H9.527v2.382H4.052v2.944H9.026Z" transform="translate(1072 2112.086)" fill="#0f2771"/>
        <path id="Trazado_192183" data-name="Trazado 192183" d="M8.235-2.391H4.008L3.27,0h-3.3L4.667-12.8h2.9L12.3,0H8.982ZM4.746-4.772H7.5L6.117-9.211Z" transform="translate(1047.936 1950.381)" fill="#12263f"/>
        <rect id="Rectángulo_40586" data-name="Rectángulo 40586" width="55" height="55" transform="translate(1053.936 2011.099) rotate(45)" fill="#bddcf6"/>
        <path id="Trazado_192184" data-name="Trazado 192184" d="M11.32-4.333a4.673,4.673,0,0,1-.721,2.36A4.35,4.35,0,0,1,8.75-.387a6.3,6.3,0,0,1-2.72.563A5.025,5.025,0,0,1,2.057-1.468,6.786,6.786,0,0,1,.606-6.108v-.633a7.746,7.746,0,0,1,.655-3.292,4.961,4.961,0,0,1,1.885-2.18,5.26,5.26,0,0,1,2.848-.769,5.516,5.516,0,0,1,3.744,1.226,4.844,4.844,0,0,1,1.608,3.379H8.271a2.292,2.292,0,0,0-.589-1.679,2.422,2.422,0,0,0-1.687-.51A1.843,1.843,0,0,0,4.307-9.7a5.536,5.536,0,0,0-.562,2.751v.905A6.125,6.125,0,0,0,4.258-3.12a1.882,1.882,0,0,0,1.771.879,2.369,2.369,0,0,0,1.626-.5,2.126,2.126,0,0,0,.6-1.591Z" transform="translate(1047.936 2055.99)" fill="#12263f"/>
        <circle id="Elipse_4807" data-name="Elipse 4807" cx="22.5" cy="22.5" r="22.5" transform="translate(1032 1832)" fill="#bddcf6"/>
        <path id="Trazado_115575" data-name="Trazado 115575" d="M-198-9845.5h-29v195.49h23.5" transform="translate(1218 11700)" fill="none" stroke="#0f2771" stroke-width="1.5"/>
      </g>
      <g id="Grupo_130036" data-name="Grupo 130036">
        <circle id="Elipse_4883" data-name="Elipse 4883" cx="15" cy="15" r="15" transform="translate(2878 -10265)" fill="#4dd0e1"/>
        <path id="Trazado_190421" data-name="Trazado 190421" d="M9.93-6.288h4.926v4.175H9.93V3.535H5.38V-2.113H.439V-6.288H5.38v-5.489H9.93Z" transform="translate(2885.519 -10245.044)" fill="#12263f"/>
      </g>
      <g id="Grupo_130037" data-name="Grupo 130037" transform="translate(306)">
        <circle id="Elipse_4883-2" data-name="Elipse 4883" cx="15" cy="15" r="15" transform="translate(2878 -10265)" fill="#4dd0e1"/>
        <path id="Trazado_190421-2" data-name="Trazado 190421" d="M9.93-6.288h4.926v4.175H9.93V3.535H5.38V-2.113H.439V-6.288H5.38v-5.489H9.93Z" transform="translate(2885.519 -10245.044)" fill="#12263f"/>
      </g>
      <g id="Grupo_130038" data-name="Grupo 130038" transform="translate(594)">
        <circle id="Elipse_4883-3" data-name="Elipse 4883" cx="15" cy="15" r="15" transform="translate(2878 -10265)" fill="#4dd0e1"/>
        <path id="Trazado_190421-3" data-name="Trazado 190421" d="M9.93-6.288h4.926v4.175H9.93V3.535H5.38V-2.113H.439V-6.288H5.38v-5.489H9.93Z" transform="translate(2885.519 -10245.044)" fill="#12263f"/>
      </g>
    </g>
  </g>
</svg>
