<svg xmlns="http://www.w3.org/2000/svg" width="190" height="110" viewBox="0 0 190 110">
  <g id="Grupo_133304" data-name="Grupo 133304" transform="translate(-180 -2590)">
    <rect id="Rectángulo_41429" data-name="Rectángulo 41429" width="190" height="110" transform="translate(180 2590)" fill="none"/>
    <rect id="Rectángulo_41430" data-name="Rectángulo 41430" width="85" height="28" rx="14" transform="translate(285 2598)" fill="#feca2e" opacity="0.2"/>
    <rect id="Rectángulo_41431" data-name="Rectángulo 41431" width="85" height="28" rx="14" transform="translate(180 2659)" fill="#4dd0e1" opacity="0.2"/>
    <path id="Trazado_192174" data-name="Trazado 192174" d="M3970.037,4340.956a5.741,5.741,0,1,0-5.74,5.74A5.747,5.747,0,0,0,3970.037,4340.956Zm-5.74,4.433a4.433,4.433,0,1,1,4.433-4.433A4.438,4.438,0,0,1,3964.3,4345.389Zm68.237,45.015-3.06-.436a12.872,12.872,0,0,0-1.424-3.446l1.853-2.469a.654.654,0,0,0-.061-.855l-2.982-2.981a.651.651,0,0,0-.854-.062l-2.475,1.852a12.616,12.616,0,0,0-3.175-1.347v-38.184s0-.008,0-.012v-4.976a5.673,5.673,0,0,0-5.667-5.667h-37.375a.65.65,0,0,0-.074-.827l-2.984-2.984a.655.655,0,0,0-.854-.061l-2.467,1.852a12.707,12.707,0,0,0-3.447-1.426l-.437-3.057a.653.653,0,0,0-.647-.561h-4.22a.653.653,0,0,0-.647.561l-.437,3.061a12.616,12.616,0,0,0-3.444,1.424l-2.471-1.854a.656.656,0,0,0-.855.061l-2.984,2.984a.654.654,0,0,0-.061.855l1.853,2.47a12.669,12.669,0,0,0-1.422,3.443l-3.062.438a.654.654,0,0,0-.561.647v4.22a.653.653,0,0,0,.561.646l3.059.438a12.732,12.732,0,0,0,1.427,3.442l-1.854,2.472a.654.654,0,0,0,.061.854l2.984,2.985a.655.655,0,0,0,.855.061l2.471-1.854a12.751,12.751,0,0,0,3.444,1.427l.437,3.059a.653.653,0,0,0,.647.56h1.634v33.157a5.673,5.673,0,0,0,5.666,5.667h34.738a12.754,12.754,0,0,0,1.511,3.821l-1.85,2.467a.654.654,0,0,0,.06.854l2.982,2.989a.654.654,0,0,0,.856.061l2.466-1.856a12.829,12.829,0,0,0,3.449,1.426l.437,3.061a.654.654,0,0,0,.647.562h4.224a.655.655,0,0,0,.647-.562l.436-3.061a12.731,12.731,0,0,0,3.442-1.427l2.474,1.858a.653.653,0,0,0,.855-.062l2.982-2.989a.654.654,0,0,0,.06-.854l-1.851-2.467a12.831,12.831,0,0,0,1.421-3.443l3.063-.442a.654.654,0,0,0,.56-.646v-4.217A.654.654,0,0,0,4032.534,4390.4Zm-12.177-.09v-2.068a6.016,6.016,0,1,1-8.778,7.735h3.111A5.673,5.673,0,0,0,4020.357,4390.313Zm-1.305-52.827v3.277s0,.009,0,.012v1.033H3980.5v-2.963a.654.654,0,0,0-.562-.647l-3.057-.437a12.726,12.726,0,0,0-1.426-3.448l.891-1.187h38.349A4.364,4.364,0,0,1,4019.052,4337.486Zm-56.718,15.423a.653.653,0,0,0-.449-.531.58.58,0,0,0-.063-.017,11.489,11.489,0,0,1-3.819-1.577.654.654,0,0,0-.77.011l-2.376,1.782-2.182-2.183,1.781-2.377a.653.653,0,0,0,.026-.747,11.477,11.477,0,0,1-1.591-3.84.832.832,0,0,0-.028-.1.654.654,0,0,0-.52-.416l-2.939-.421v-3.086l2.944-.421a.652.652,0,0,0,.547-.511,11.375,11.375,0,0,1,1.587-3.841.653.653,0,0,0-.026-.748l-1.781-2.375,2.182-2.183,2.375,1.783a.656.656,0,0,0,.749.025,11.343,11.343,0,0,1,3.841-1.589.652.652,0,0,0,.511-.547l.421-2.943h3.086l.419,2.938a.655.655,0,0,0,.51.548,11.412,11.412,0,0,1,3.844,1.59.669.669,0,0,0,.419.1.646.646,0,0,0,.332-.128l2.373-1.779,2.182,2.183-1.779,2.372a.655.655,0,0,0-.1.6.687.687,0,0,0,.071.149,11.431,11.431,0,0,1,1.591,3.844.654.654,0,0,0,.546.51l2.938.419v3.085l-2.942.421a.653.653,0,0,0-.547.511,11.373,11.373,0,0,1-1.589,3.842.653.653,0,0,0,.026.748l1.782,2.375-2.183,2.183-2.375-1.781a.654.654,0,0,0-.748-.026,11.363,11.363,0,0,1-3.842,1.586.654.654,0,0,0-.512.547l-.421,2.944h-3.086Zm2.794,37.4v-33.157h1.278a.653.653,0,0,0,.647-.561l.438-3.062a12.663,12.663,0,0,0,3.443-1.422l2.47,1.854a.654.654,0,0,0,.854-.061l2.985-2.985a.654.654,0,0,0,.061-.854l-1.854-2.47a12.655,12.655,0,0,0,1.424-3.444l3.061-.438a.649.649,0,0,0,.552-.6h38.562v47.2a4.364,4.364,0,0,1-4.359,4.359h-45.2A4.365,4.365,0,0,1,3965.128,4390.313Zm66.661,4.389-2.944.426a.655.655,0,0,0-.546.509,11.523,11.523,0,0,1-1.585,3.843.651.651,0,0,0,.026.747l1.779,2.372-2.182,2.187-2.378-1.785a.653.653,0,0,0-.749-.026,11.464,11.464,0,0,1-3.842,1.593.657.657,0,0,0-.51.548l-.419,2.942h-3.09l-.418-2.942a.656.656,0,0,0-.51-.548,11.531,11.531,0,0,1-3.813-1.568.676.676,0,0,0-.785,0l-2.371,1.785-2.181-2.187,1.779-2.372a.652.652,0,0,0,.025-.749,11.439,11.439,0,0,1-1.5-3.5h4.564a7.323,7.323,0,1,0,10.273-9.248.519.519,0,0,0-.055-.018v-4.689a11.333,11.333,0,0,1,2.853,1.319.655.655,0,0,0,.747-.024l2.38-1.78,2.181,2.182-1.786,2.378a.652.652,0,0,0-.058.685.6.6,0,0,0,.07.11,11.517,11.517,0,0,1,1.548,3.752.653.653,0,0,0,.554.552l2.942.419Zm-17.937-54.854a2.317,2.317,0,1,0-2.317-2.316A2.319,2.319,0,0,0,4013.852,4339.848Zm0-3.326a1.01,1.01,0,1,1-1.01,1.01A1.01,1.01,0,0,1,4013.852,4336.522Zm-6.333,3.326a2.317,2.317,0,1,0-2.317-2.316A2.319,2.319,0,0,0,4007.519,4339.848Zm0-3.326a1.01,1.01,0,1,1-1.009,1.01A1.01,1.01,0,0,1,4007.519,4336.522Zm-6.333,3.326a2.317,2.317,0,1,0-2.316-2.316A2.319,2.319,0,0,0,4001.186,4339.848Zm0-3.326a1.01,1.01,0,1,1-1.009,1.01A1.01,1.01,0,0,1,4001.186,4336.522Zm-22,13.552a.654.654,0,0,1,.653-.654h17.327a.654.654,0,1,1,0,1.308h-17.327A.654.654,0,0,1,3979.19,4350.074Zm21.74,0a.654.654,0,0,1,.654-.654h3.606a.654.654,0,1,1,0,1.308h-3.606A.654.654,0,0,1,4000.93,4350.074Zm11.167,0a.654.654,0,0,1-.654.653h-2.091a.654.654,0,1,1,0-1.308h2.091A.654.654,0,0,1,4012.1,4350.074Zm0,25.9a.654.654,0,0,1-.654.653h-30.5a.654.654,0,1,1,0-1.308h30.5A.654.654,0,0,1,4012.1,4375.973Zm-39.823,0a.654.654,0,0,1,.653-.654h3.606a.654.654,0,0,1,0,1.308h-3.606A.653.653,0,0,1,3972.274,4375.973Zm0,6.9a.654.654,0,0,1,.653-.654h24.243a.654.654,0,0,1,0,1.308h-24.243A.653.653,0,0,1,3972.274,4382.875Zm29.309.654a.654.654,0,0,1,0-1.308h3.606a.654.654,0,0,1,0,1.308Zm10.514-.654a.654.654,0,0,1-.654.654h-2.091a.654.654,0,0,1,0-1.308h2.091A.654.654,0,0,1,4012.1,4382.875Zm0,6.9a.653.653,0,0,1-.654.653H3987.2a.654.654,0,1,1,0-1.307h24.242A.654.654,0,0,1,4012.1,4389.777Zm-28.656,0a.653.653,0,0,1-.653.653h-3.606a.654.654,0,0,1,0-1.307h3.606A.653.653,0,0,1,3983.441,4389.777Zm-7.768,0a.654.654,0,0,1-.654.653h-2.091a.654.654,0,0,1,0-1.307h2.091A.654.654,0,0,1,3975.673,4389.777Zm-3.187-26.108a.653.653,0,0,1-.011-.953l7.942-7.611a.654.654,0,0,1,.9.945l-7.438,7.126,7.428,6.81a.654.654,0,0,1-.884.964Zm30.377,6.317,7.428-6.81-7.438-7.126a.654.654,0,0,1,.9-.945l7.942,7.611a.653.653,0,0,1-.011.953l-7.942,7.281a.654.654,0,1,1-.883-.964Zm-7.537-16.486a.653.653,0,0,1,.408.83l-6.057,17.807a.653.653,0,0,1-.619.443.639.639,0,0,1-.211-.035.654.654,0,0,1-.408-.83l6.058-17.807A.654.654,0,0,1,3995.327,4353.5Zm30.3-22.918a4.031,4.031,0,1,0-4.032-4.032A4.036,4.036,0,0,0,4025.629,4330.582Zm0-6.756a2.724,2.724,0,1,1-2.725,2.724A2.728,2.728,0,0,1,4025.629,4323.826Zm-32.574,2.071h25.273a.654.654,0,1,1,0,1.307h-25.273a.654.654,0,1,1,0-1.307Zm-7.887,0a.654.654,0,1,1,0,1.307h-5.424a.654.654,0,1,1,0-1.307Zm41.115,31.267a.654.654,0,1,1-1.307,0v-23.312a.654.654,0,1,1,1.307,0Zm5.23,22.881v-25.488a.654.654,0,1,1,1.308,0v25.488a.654.654,0,0,1-1.308,0Zm0-32.082V4344a.654.654,0,1,1,1.308,0v3.961a.654.654,0,1,1-1.308,0Zm-64.791-27.95a.653.653,0,0,1,.653-.653h28.757a.654.654,0,1,1,0,1.307h-28.757A.653.653,0,0,1,3966.722,4320.013Zm35.351,0a.653.653,0,0,1,.653-.653h3.961a.654.654,0,1,1,0,1.307h-3.961A.653.653,0,0,1,4002.073,4320.013Zm24.209,45.038v7.386a.654.654,0,1,1-1.307,0v-7.386a.654.654,0,1,1,1.307,0Zm-67.73,32.161a4.032,4.032,0,1,0,4.031,4.032A4.036,4.036,0,0,0,3958.552,4397.211Zm0,6.756a2.724,2.724,0,1,1,2.724-2.724A2.728,2.728,0,0,1,3958.552,4403.967Zm29.305-2.07h-22.005a.654.654,0,0,1,0-1.308h22.005a.654.654,0,0,1,0,1.308Zm13.965-.654a.653.653,0,0,1-.653.654h-6.732a.654.654,0,0,1,0-1.308h6.732A.653.653,0,0,1,4001.822,4401.243Zm-43.924-29.958a.654.654,0,0,1,1.308,0v22.658a.654.654,0,1,1-1.308,0Zm-5.23-15.037v21.566a.654.654,0,0,1-1.308,0v-21.566a.654.654,0,0,1,1.308,0Zm0,28.159v3.961a.654.654,0,0,1-1.308,0v-3.961a.654.654,0,0,1,1.308,0Zm47.792,23.374a.653.653,0,0,1-.653.654h-14.375a.654.654,0,1,1,0-1.308h14.375A.654.654,0,0,1,4000.46,4407.781Zm-20.968,0a.654.654,0,0,1-.654.654h-3.961a.654.654,0,0,1,0-1.308h3.961A.655.655,0,0,1,3979.493,4407.781ZM3957.9,4363.4v-6.078a.654.654,0,0,1,1.308,0v6.078a.654.654,0,0,1-1.308,0Z" transform="translate(-3715.596 -1719.362)" fill="#0f2771" stroke="#0f2771" stroke-width="1"/>
  </g>
</svg>
