<svg xmlns="http://www.w3.org/2000/svg" xmlns:xlink="http://www.w3.org/1999/xlink" width="400" height="267" viewBox="0 0 400 267">
  <defs>
    <clipPath id="clip-path">
      <rect id="Rectángulo_40481" data-name="Rectángulo 40481" width="400" height="267" rx="17" transform="translate(400 266.666) rotate(-180)" fill="none"/>
    </clipPath>
  </defs>
  <g id="Grupo_133299" data-name="Grupo 133299" transform="translate(0 0.617)">
    <g id="Grupo_108935" data-name="Grupo 108935" transform="translate(0 -0.283)">
      <g id="Grupo_108934" data-name="Grupo 108934" transform="translate(0 0)" clip-path="url(#clip-path)">
        <g id="Grupo_108933" data-name="Grupo 108933" transform="translate(-6.255 20.987)">
          <g id="Grupo_108909" data-name="Grupo 108909" transform="translate(171.393 31.81)">
            <path id="Trazado_115313" data-name="Trazado 115313" d="M917.018,537.555c5.678-6.57,11.067-13.568,14.313-21.623s4.166-17.355.877-25.392c-.5-1.215-1.215-2.509-2.468-2.9-1.583-.491-3.172.684-4.319,1.88a44.551,44.551,0,0,0-6.12,8.539,112.986,112.986,0,0,0-12.847,33.253c-.607,2.85-1.312,8.049,1.818,9.842C911.532,543.024,915.06,539.822,917.018,537.555Z" transform="translate(-898.135 -336.527)" fill="#23276e"/>
            <g id="Grupo_108908" data-name="Grupo 108908">
              <path id="Trazado_115314" data-name="Trazado 115314" d="M893.232,428.009c11.1,17.088,27.793,29.058,46.343,37.977a8.258,8.258,0,0,0,7.171-.27c8.976-4.3,15.778-12.292,20.345-21.135s7.108-18.573,9.427-28.252a202.288,202.288,0,0,0,4.133-20.88c1.631-12.5,1.229-25.262,3.765-37.613,1.657-8.075,8.108-14.373,12.265-21.491,3.066-5.25,6.223-11.509,3.891-17.124a12.886,12.886,0,0,0-4.707-5.492,18.191,18.191,0,0,0-6.775-2.864,32.164,32.164,0,0,0-7.665-.346c-7.4.325-15.378,1.513-20.651,6.721a11.034,11.034,0,0,0-2.885,4.435c-.917,2.915-.135,6.057.552,9.034,1.766,7.643,2.885,15.659,1.1,23.3a75.394,75.394,0,0,1-3.934,11.012c-7.254,17.908-11.8,36.817-18.971,54.757-3.235-3.551-6.317-7.192-9.552-10.743a42.18,42.18,0,0,0-6.863-6.486,14.177,14.177,0,0,0-8.847-2.816c-4.016.268-7.49,2.766-10.72,5.169-2.693,2-5.464,4.1-7.11,7.022C890.932,416.568,890.329,423.54,893.232,428.009Z" transform="translate(-891.306 -253.826)" fill="#f0c49b"/>
              <g id="Grupo_108891" data-name="Grupo 108891" transform="translate(67.453 56.622)">
                <path id="Trazado_115315" data-name="Trazado 115315" d="M1050.868,325.594c-2.186,2.5-5.863,2.61-7.478,1.59a5.52,5.52,0,0,1-8.429,2.731c-.695,1.238-3.31,2.35-4.542,1.786a12.976,12.976,0,0,1-3.26-2.4,124.638,124.638,0,0,1-9.293-9.535,12.83,12.83,0,0,1,2.017-2.527c5.272-5.209,13.246-6.4,20.651-6.721a32.165,32.165,0,0,1,7.665.346,18.192,18.192,0,0,1,6.775,2.864,12.886,12.886,0,0,1,4.707,5.492,11.761,11.761,0,0,1,.525,6.911,8.242,8.242,0,0,1-4.2,1.953C1053.953,328.378,1051.484,327.573,1050.868,325.594Z" transform="translate(-1017.865 -310.448)" fill="#e0a988"/>
                <g id="Grupo_108890" data-name="Grupo 108890">
                  <path id="Trazado_115316" data-name="Trazado 115316" d="M1019.882,317.241c5.272-5.209,13.246-6.4,20.651-6.721a32.165,32.165,0,0,1,7.665.346,18.192,18.192,0,0,1,6.775,2.864,12.886,12.886,0,0,1,4.707,5.492,10.521,10.521,0,0,1,.768,3.269c-1.346,1.882-3.036,3.49-5.884,3.133a6.538,6.538,0,0,1-1.579-.411,3.34,3.34,0,0,1-2.137-1.838,6.391,6.391,0,0,1-3.126,1.58,3.509,3.509,0,0,1-3.169-1.216c-.529.92-1.2,1.776-1.727,2.7a5.765,5.765,0,0,1-1.976,2.336,3.711,3.711,0,0,1-2.33.349l-.028,0a3.514,3.514,0,0,1-2.865-2.87c-.366-1.986-.781-4-1.108-5.964a16.108,16.108,0,0,0-.1,9.607c0,.01-.527.021-.524.031-.7,1.236-2.243,2.346-3.474,1.782a12.976,12.976,0,0,1-3.26-2.4,124.638,124.638,0,0,1-9.293-9.535A12.83,12.83,0,0,1,1019.882,317.241Z" transform="translate(-1017.865 -310.448)" fill="#c69075"/>
                </g>
              </g>
              <g id="Grupo_108892" data-name="Grupo 108892" transform="translate(0 145.883)">
                <path id="Trazado_115317" data-name="Trazado 115317" d="M893.545,490.139c1.646-2.926,4.417-5.017,7.11-7.022,3.229-2.4,6.7-4.9,10.72-5.169a14.178,14.178,0,0,1,8.847,2.816,34.9,34.9,0,0,1,5.537,5.042c-8.063,11.717-12.112,25.817-15.09,40.055a90.763,90.763,0,0,1-17.437-19.636C890.329,501.756,890.932,494.784,893.545,490.139Z" transform="translate(-891.306 -477.924)" fill="#e0a988"/>
              </g>
              <g id="Grupo_108896" data-name="Grupo 108896" transform="translate(71.974)">
                <path id="Trazado_115318" data-name="Trazado 115318" d="M1044.621,217.867a49.434,49.434,0,0,0-.01-8.943,7.249,7.249,0,0,0-1.024-3.257,3.058,3.058,0,0,0-2.933-1.418c-1.751.328-2.479,2.4-2.826,4.148-2.957,14.888-2.015,30.624-7.4,44.814-1.426,3.755-3.295,7.4-3.9,11.371s.344,8.505,3.581,10.885c3.066,2.253,7.4,1.99,10.887.464a8.918,8.918,0,0,0,2.946-1.927c1.582-1.668,2.06-4.082,2.279-6.371a41.934,41.934,0,0,0-.788-12.947c-.705-3.213-2.547-5.979-2.44-9.284C1043.283,236.224,1044.077,227.033,1044.621,217.867Z" transform="translate(-1026.349 -204.209)" fill="#f0c49b"/>
                <g id="Grupo_108894" data-name="Grupo 108894" transform="translate(0 34.286)">
                  <path id="Trazado_115319" data-name="Trazado 115319" d="M1030.111,284.051a16.32,16.32,0,0,1,8.791-3.949,3.013,3.013,0,0,0,1.92-.573,2.677,2.677,0,0,0,.6-1.443q.937-4.773,1.873-9.546-.188,3.453-.3,6.905c-.107,3.306,1.735,6.071,2.44,9.284a41.934,41.934,0,0,1,.788,12.947c-.219,2.289-.7,4.7-2.279,6.371a8.919,8.919,0,0,1-2.946,1.927c-3.486,1.526-7.821,1.789-10.887-.465-3.237-2.379-4.189-6.914-3.581-10.884C1027.086,290.936,1028.736,287.527,1030.111,284.051Z" transform="translate(-1026.349 -268.54)" fill="#e0a988"/>
                  <g id="Grupo_108893" data-name="Grupo 108893" transform="translate(0 8.568)">
                    <path id="Trazado_115320" data-name="Trazado 115320" d="M1027.419,298.479c.507-.452,1.007-.911,1.519-1.357a17.456,17.456,0,0,1,3.2-2.365,13.247,13.247,0,0,1,8.814-.829c.349-2.171.7-4.345,1.188-6.488a11.377,11.377,0,0,1,.949-2.823c.391,2.607,1.751,4.961,2.334,7.621a41.934,41.934,0,0,1,.788,12.947c-.219,2.289-.7,4.7-2.279,6.371a8.918,8.918,0,0,1-2.946,1.927c-3.486,1.526-7.821,1.789-10.887-.465-3.237-2.379-4.189-6.914-3.581-10.884A23.458,23.458,0,0,1,1027.419,298.479Z" transform="translate(-1026.349 -284.616)" fill="#c69075"/>
                  </g>
                </g>
                <g id="Grupo_108895" data-name="Grupo 108895" transform="translate(10.181 14.582)">
                  <path id="Trazado_115321" data-name="Trazado 115321" d="M1052.156,231.608a7.391,7.391,0,0,0-3.721.585" transform="translate(-1046.845 -231.57)" fill="none" stroke="#ba7a5d" stroke-linecap="round" stroke-linejoin="round" stroke-width="1"/>
                  <path id="Trazado_115322" data-name="Trazado 115322" d="M1052.413,234.9a3.433,3.433,0,0,0-3.019.3" transform="translate(-1047.293 -233.026)" fill="none" stroke="#ba7a5d" stroke-linecap="round" stroke-linejoin="round" stroke-width="1"/>
                  <path id="Trazado_115323" data-name="Trazado 115323" d="M1051.894,256.315a7.825,7.825,0,0,0-2.49.113" transform="translate(-1047.297 -243.103)" fill="none" stroke="#ba7a5d" stroke-linecap="round" stroke-linejoin="round" stroke-width="1"/>
                  <path id="Trazado_115324" data-name="Trazado 115324" d="M1051.594,258.948l-2.831.23" transform="translate(-1046.998 -244.356)" fill="none" stroke="#ba7a5d" stroke-linecap="round" stroke-linejoin="round" stroke-width="1"/>
                  <path id="Trazado_115325" data-name="Trazado 115325" d="M1050.038,290.545a10.968,10.968,0,0,0-4.587.154" transform="translate(-1045.451 -259.033)" fill="none" stroke="#ba7a5d" stroke-linecap="round" stroke-linejoin="round" stroke-width="1"/>
                </g>
              </g>
              <g id="Grupo_108897" data-name="Grupo 108897" transform="translate(35.635 156.596)">
                <path id="Trazado_115326" data-name="Trazado 115326" d="M958.209,510.493a90.938,90.938,0,0,1,1.347-12.468c2.692,3,5.311,6.049,8.023,9.04a125.451,125.451,0,0,0-3.914,29.8C959.148,528.774,957.9,519.751,958.209,510.493Z" transform="translate(-958.166 -498.025)" fill="#e0a988"/>
              </g>
              <g id="Grupo_108898" data-name="Grupo 108898" transform="translate(76.159 94.541)">
                <path id="Trazado_115327" data-name="Trazado 115327" d="M1038.656,394.758c.235-4.845.091-10.729-4.1-13.165a52.5,52.5,0,0,0,19.28,2.46,25.329,25.329,0,0,0-2.68,7.01c-2.536,12.352-2.134,25.11-3.765,37.613a202.288,202.288,0,0,1-4.133,20.881c-2.254,9.408-4.723,18.859-9.053,27.5a149.027,149.027,0,0,0,3.334-22.108C1039.124,434.941,1037.682,414.807,1038.656,394.758Z" transform="translate(-1034.201 -381.593)" fill="#e0a988"/>
              </g>
              <g id="Grupo_108900" data-name="Grupo 108900" transform="translate(101.437 56.687)">
                <path id="Trazado_115328" data-name="Trazado 115328" d="M1091.279,311.175a4.045,4.045,0,0,1,1.606,4.329,10.214,10.214,0,0,1-2.4,4.255,19.224,19.224,0,0,1-3.744,3.624,5.47,5.47,0,0,1-2.122.971,2.648,2.648,0,0,1-2.209-.534c-1.15-1.025-.826-2.882-.3-4.33C1083.287,316.259,1086.327,308.328,1091.279,311.175Z" transform="translate(-1081.628 -310.569)" fill="#f0c49b"/>
                <g id="Grupo_108899" data-name="Grupo 108899" transform="translate(0.002 0.054)">
                  <path id="Trazado_115329" data-name="Trazado 115329" d="M1082.111,319.538c.951-2.608,3.115-8.273,6.517-8.868a30.028,30.028,0,0,1-6.967,11.683A6.305,6.305,0,0,1,1082.111,319.538Z" transform="translate(-1081.632 -310.67)" fill="#e0a988"/>
                </g>
              </g>
              <g id="Grupo_108902" data-name="Grupo 108902" transform="translate(93.917 48.724)">
                <path id="Trazado_115330" data-name="Trazado 115330" d="M1075.938,295.63a4.789,4.789,0,0,1,3.855,1.589,5.76,5.76,0,0,1,.837,4.3,23.625,23.625,0,0,1-3.877,9.487c-1.243,1.976-2.739,3.993-4.941,4.767a3.384,3.384,0,0,1-3.34-.4c-1.078-.962-1.039-2.637-.849-4.069a48.7,48.7,0,0,1,2.566-10.41C1071.418,297.549,1072,295.693,1075.938,295.63Z" transform="translate(-1067.519 -295.63)" fill="#f0c49b"/>
                <g id="Grupo_108901" data-name="Grupo 108901" transform="translate(0 0.356)">
                  <path id="Trazado_115331" data-name="Trazado 115331" d="M1068.472,315.686c-1.078-.962-1.039-2.637-.849-4.069a48.7,48.7,0,0,1,2.566-10.41c.933-2.541,1.494-4.22,3.435-4.91a57.392,57.392,0,0,1-5.046,19.465C1068.543,315.736,1068.505,315.715,1068.472,315.686Z" transform="translate(-1067.519 -296.298)" fill="#e0a988"/>
                </g>
              </g>
              <g id="Grupo_108904" data-name="Grupo 108904" transform="translate(85.918 43.309)">
                <path id="Trazado_115332" data-name="Trazado 115332" d="M1064.862,293.5a25.222,25.222,0,0,1-1.537,7.737c-1.416,4.545-2.89,9.155-5.561,13.1a5.413,5.413,0,0,1-1.706,1.774,2.152,2.152,0,0,1-2.34-.04,2.8,2.8,0,0,1-.841-1.541c-1.391-5.309,1.6-10.711,2.079-16.177.293-3.325-.349-6.712.254-9.995a4.07,4.07,0,0,1,.726-1.857,3.242,3.242,0,0,1,2.869-1C1062.8,285.913,1064.815,289.815,1064.862,293.5Z" transform="translate(-1052.512 -285.468)" fill="#f0c49b"/>
                <g id="Grupo_108903" data-name="Grupo 108903" transform="translate(0.415 23.56)">
                  <path id="Trazado_115333" data-name="Trazado 115333" d="M1054.158,333.259a7.148,7.148,0,0,1,1.863-2.961,2.452,2.452,0,0,1,3.214-.045,2.534,2.534,0,0,1,.558,1.894,27.691,27.691,0,0,1-1.666,2.83,5.4,5.4,0,0,1-1.705,1.774,2.151,2.151,0,0,1-2.34-.039,2.613,2.613,0,0,1-.791-1.376Z" transform="translate(-1053.291 -329.672)" fill="#fff"/>
                </g>
              </g>
              <g id="Grupo_108907" data-name="Grupo 108907" transform="translate(65.051 53.797)">
                <path id="Trazado_115334" data-name="Trazado 115334" d="M1013.807,322.1a6.31,6.31,0,0,1,.439-5.5,16.586,16.586,0,0,1,3.721-4.3q2.71-2.439,5.6-4.673a9.281,9.281,0,0,1,8.117-2.39,102.314,102.314,0,0,1,11.217,1.445,4.5,4.5,0,0,1,2.874,1.322,3.176,3.176,0,0,1,0,3.413c-1.208,2.153-3.8,3.062-6.19,3.666a68.555,68.555,0,0,1-8.235,1.548c-1.133,2.084-.657,4.569-.159,6.888l1.4,6.5a19.274,19.274,0,0,1,.63,5.235,6.5,6.5,0,0,1-2.144,4.673c-2.008,1.629-5.077,1.352-7.262-.03a15.353,15.353,0,0,1-4.89-5.908C1016.79,330.083,1015.66,326.139,1013.807,322.1Z" transform="translate(-1013.359 -305.147)" fill="#f0c49b"/>
                <g id="Grupo_108905" data-name="Grupo 108905" transform="translate(22.861 0.569)">
                  <path id="Trazado_115335" data-name="Trazado 115335" d="M1056.962,310.334a4.02,4.02,0,0,1-.5-3.627c.05-.167.109-.331.172-.492,2.107.256,4.207.571,6.294.958a4.5,4.5,0,0,1,2.874,1.322,2.972,2.972,0,0,1,.256,2.846c-1.373.179-2.753.313-4.136.391C1060.137,311.833,1058.078,311.731,1056.962,310.334Z" transform="translate(-1056.252 -306.215)" fill="#fff"/>
                </g>
                <g id="Grupo_108906" data-name="Grupo 108906" transform="translate(14.7 5.83)">
                  <path id="Trazado_115336" data-name="Trazado 115336" d="M1040.98,321.717a3.442,3.442,0,0,1,.8-1.982c.894-.96,2.365-1.023,3.677-1.076a46.059,46.059,0,0,0,13.4-2.575,4.063,4.063,0,0,1-.207.433c-1.208,2.153-3.8,3.062-6.19,3.666a68.575,68.575,0,0,1-8.235,1.548c-1.133,2.084-.657,4.569-.159,6.888l1.4,6.5c.149.7.3,1.395.415,2.1-1.127-3.558-2.688-7.018-3.971-10.535A11.1,11.1,0,0,1,1040.98,321.717Z" transform="translate(-1040.94 -316.085)" fill="#e0a988"/>
                </g>
              </g>
            </g>
          </g>
          <g id="Grupo_108912" data-name="Grupo 108912" transform="translate(0 114.07)">
            <path id="Trazado_115337" data-name="Trazado 115337" d="M575.982,511c-13.456-38.8-.157-79.59-5.636-120.291-.366-2.718-.69-5.65.623-8.058,1.789-3.281,5.877-4.378,9.508-5.264a195.836,195.836,0,0,0,44.441-16.3c10.017.768,19.934-2.9,29.973-2.5a62.153,62.153,0,0,1,17.169,3.521l51.273,17.26c1.888.636,3.956,1.421,4.865,3.194a7.547,7.547,0,0,1,.416,4.191c-.589,6.018-1.67,11.976-2.749,17.926q-5.695,31.383-11.388,62.767c-1.714,9.443-3.438,18.93-6.59,27.994-1.532,4.406-6.017,6.5-9.818,9.2-11.167,7.943-24.3,12.839-37.748,15.5C639.158,524.316,594.909,521.352,575.982,511Z" transform="translate(-569.727 -358.551)" fill="#4c55a5"/>
            <g id="Grupo_108910" data-name="Grupo 108910" transform="translate(113.664 23.44)">
              <path id="Trazado_115338" data-name="Trazado 115338" d="M802.98,477.411c-.252-5.677-1.808-11.2-2.864-16.785-1.776-9.39-2.125-19.175.2-28.445s7.476-18.007,15.221-23.606a49,49,0,0,1,11.908-6.044,4.092,4.092,0,0,1,.358.565,7.547,7.547,0,0,1,.416,4.191c-.589,6.018-1.67,11.976-2.749,17.926q-5.695,31.383-11.388,62.767c-1.713,9.443-3.438,18.93-6.59,27.994-1.532,4.406-6.017,6.5-9.818,9.2a84.813,84.813,0,0,1-14.679,8.309,113.365,113.365,0,0,0,18.4-41.5A56.765,56.765,0,0,0,802.98,477.411Z" transform="translate(-782.992 -402.53)" fill="#23276e" opacity="0.5" style="mix-blend-mode: multiply;isolation: isolate"/>
            </g>
            <g id="Grupo_108911" data-name="Grupo 108911" transform="translate(47.495)" opacity="0.5">
              <path id="Trazado_115339" data-name="Trazado 115339" d="M666.929,371.9a38.283,38.283,0,0,1-8.088-7.063q3.867-1.774,7.7-3.753c10.017.768,19.934-2.9,29.973-2.5A62.154,62.154,0,0,1,713.68,362.1l6.272,2.112c-8.767,8.089-20.1,13.789-32,13.85A38.518,38.518,0,0,1,666.929,371.9Z" transform="translate(-658.841 -358.551)" fill="#fff"/>
            </g>
            <path id="Trazado_115340" data-name="Trazado 115340" d="M603.853,478.332a116.479,116.479,0,0,0,74.35,49.185,73.546,73.546,0,0,1-74.35-49.185Z" transform="translate(-585.665 -414.492)" fill="#23276e" opacity="0.5" style="mix-blend-mode: multiply;isolation: isolate"/>
          </g>
          <g id="Grupo_108913" data-name="Grupo 108913" transform="translate(135.267 135.993)">
            <path id="Trazado_115341" data-name="Trazado 115341" d="M845.184,399.684q9.144,9.39,18.947,18.107c9.882,8.786,17.582,18.388,27.187,28.645-7.2,6.554-11.074,15.289-14.868,24.259-2.945,6.964-5.918,14.024-7,21.508-.393,2.722-.475,5.7,1.045,7.994-8.7-4.874-16.322-11.624-24.131-17.827-6.776-5.383-13.729-10.97-17.9-18.55a41.6,41.6,0,0,1-4.645-15.8,57.11,57.11,0,0,1,12.421-41.536C838.571,403.627,841.509,399.986,845.184,399.684Z" transform="translate(-823.525 -399.684)" fill="#4c55a5"/>
            <path id="Trazado_115342" data-name="Trazado 115342" d="M901.936,519.115a103.651,103.651,0,0,1,9.555-23.259c3.2-5.969,6.782-11.86,11.54-16.644,1.31,1.442,2.644,2.9,4.019,4.365-7.2,6.554-11.074,15.289-14.868,24.259-2.945,6.964-5.918,14.024-7,21.508-.393,2.722-.475,5.7,1.045,7.994-2.124-1.19-4.182-2.492-6.2-3.87A59.508,59.508,0,0,1,901.936,519.115Z" transform="translate(-859.256 -436.826)" fill="#fff" opacity="0.5"/>
          </g>
          <g id="Grupo_108932" data-name="Grupo 108932" transform="translate(37.496)">
            <g id="Grupo_108915" data-name="Grupo 108915" transform="translate(11.155 67.872)">
              <path id="Trazado_115343" data-name="Trazado 115343" d="M664.342,323.809a17.346,17.346,0,0,0,2.516-5.753c4.207-15.175,1-32-5.85-46.183q2.908.134,5.808.4a1.416,1.416,0,0,1,.687.185,1.487,1.487,0,0,1,.453.708,17.154,17.154,0,0,0,4.11,6.016,30.128,30.128,0,0,0,6.963,4.584,114.957,114.957,0,0,0,32.34,11.173,11.2,11.2,0,0,0,5.246.118,41.555,41.555,0,0,0,.113,29.032,59.3,59.3,0,0,1-13.621,7.4,43.309,43.309,0,0,1-10.143,2.713A33.957,33.957,0,0,1,664.342,323.809Z" transform="translate(-661.008 -271.872)" fill="#f0c49b"/>
              <g id="Grupo_108914" data-name="Grupo 108914">
                <path id="Trazado_115344" data-name="Trazado 115344" d="M693.614,309.79c-7.1-1.328-14.261-3.792-19.419-8.843a38.025,38.025,0,0,1-6.622-9.392,79.559,79.559,0,0,0-6.565-19.683q2.908.134,5.808.4a1.416,1.416,0,0,1,.687.185,1.487,1.487,0,0,1,.453.708,17.154,17.154,0,0,0,4.11,6.016,30.128,30.128,0,0,0,6.963,4.584,114.938,114.938,0,0,0,32.34,11.172,11.188,11.188,0,0,0,5.246.119,41.3,41.3,0,0,0-2.528,15.833A78.711,78.711,0,0,1,693.614,309.79Z" transform="translate(-661.008 -271.872)" fill="#e0a988"/>
              </g>
            </g>
            <g id="Grupo_108931" data-name="Grupo 108931">
              <g id="Grupo_108922" data-name="Grupo 108922">
                <g id="Grupo_108916" data-name="Grupo 108916">
                  <path id="Trazado_115345" data-name="Trazado 115345" d="M650.489,213.539a53.923,53.923,0,0,1-9.649-20.191c-2.259-10.182.754-19.571,5.882-28.6,2.243-3.949,4.882-7.787,8.523-10.433s8.312-4.139,12.539-2.66c3.344-3.986,9.408-6.314,14.51-6.939a32.268,32.268,0,0,1,15.126,2.157,55.261,55.261,0,0,1,13.624,7.392c5.657,4.221,10.24,10.315,11.483,17.357,1.6,9.088-2.4,18.082-4.584,27.044-6.148,1.786-12.518,2.142-18.871,2.852C682.622,203.358,666.134,208.033,650.489,213.539Z" transform="translate(-640.079 -144.525)" fill="#512e21"/>
                  <path id="Trazado_115346" data-name="Trazado 115346" d="M689.819,146.715a14.211,14.211,0,0,0-1.878,7.2,14.325,14.325,0,0,0-4.745-6.035" transform="translate(-660.216 -145.548)" fill="none" stroke="#512e21" stroke-linecap="round" stroke-linejoin="round" stroke-width="1.5"/>
                </g>
                <path id="Trazado_115347" data-name="Trazado 115347" d="M731.64,201.533c.012,1.952-.161,3.9-.082,5.854.088,2.158.484,4.293.623,6.449.458,7.125-1.9,14.1-4.233,20.846a44.563,44.563,0,0,1-3.635,8.55,14.961,14.961,0,0,1-6.694,6.248,17.988,17.988,0,0,1-6.179,1.188c-8.745.434-17.226-2.409-25.381-5.6-3.562-1.392-7.121-3.091-9.741-5.877-2.714-2.887-4.2-6.7-5.443-10.46-3.353-10.117-5.481-20.893-3.924-31.436.5-3.385,1.374-6.712,1.732-10.115.315-3,.23-6.066,1.023-8.976,1.485-5.451,5.987-9.744,11.174-11.985s11-2.643,16.637-2.28a38.263,38.263,0,0,1,14.292,3.364c7.351,3.567,12.728,10.327,16.387,17.633C728.068,185.29,731.608,196.351,731.64,201.533Z" transform="translate(-652.386 -153.538)" fill="#f0c49b"/>
                <path id="Trazado_115348" data-name="Trazado 115348" d="M723.976,229.155c0,1.827.82,3.308,1.832,3.308s1.831-1.481,1.831-3.308-.82-3.309-1.831-3.309S723.976,227.328,723.976,229.155Z" transform="translate(-679.261 -182.504)" fill="#331810"/>
                <path id="Trazado_115349" data-name="Trazado 115349" d="M762.359,223.25a14.862,14.862,0,0,0,.963,9.025,26.073,26.073,0,0,0,2.372,4.03q1.12,1.64,2.3,3.24a2.382,2.382,0,0,1-.514,3.876l-4.361,4.226a12.941,12.941,0,0,0,4.915-2.707c1.4-1.175,2.893-2.525,3.152-4.336.241-1.686-.654-3.3-1.518-4.771C767.154,231.564,764.873,227.52,762.359,223.25Z" transform="translate(-697.043 -181.292)" fill="#e0a988"/>
                <g id="Grupo_108917" data-name="Grupo 108917" transform="translate(73.203 57.379)">
                  <path id="Trazado_115350" data-name="Trazado 115350" d="M777.484,257.964c-.484-2.175,2.26-4.663,6.241-5.781.116.971.232,1.942.295,2.918a30.857,30.857,0,0,1-.182,5.636C780.536,260.883,777.9,259.82,777.484,257.964Z" transform="translate(-777.428 -252.183)" fill="#e89f87"/>
                </g>
                <path id="Trazado_115351" data-name="Trazado 115351" d="M725.928,217.808a8.872,8.872,0,0,0-9.219,1.653" transform="translate(-675.867 -178.455)" fill="none" stroke="#331810" stroke-linecap="round" stroke-linejoin="round" stroke-width="1.5"/>
                <g id="Grupo_108918" data-name="Grupo 108918" transform="translate(14.047 10.286)">
                  <path id="Trazado_115352" data-name="Trazado 115352" d="M666.952,197.3c.5-3.385,1.374-6.712,1.732-10.115.315-3,.23-6.066,1.023-8.976,1.485-5.451,5.987-9.744,11.174-11.985s11-2.643,16.637-2.28a38.263,38.263,0,0,1,14.292,3.364c7.351,3.567,12.729,10.327,16.387,17.633-.125.346,3.313,11.1,3.439,16.37a44.827,44.827,0,0,0-5.889-12.657,17.653,17.653,0,0,1,.115,8.581,60.824,60.824,0,0,0-12.311-15.327,25.194,25.194,0,0,1,1.811,10.05c-2.211-3.713-6.071-6.164-10.074-7.793s-8.254-2.565-12.308-4.06a94.591,94.591,0,0,1-11.133-5.245,42.323,42.323,0,0,1-.9,16.81,76.155,76.155,0,0,1-6.206,15.647,49.7,49.7,0,0,1-6.839,10.506A58.6,58.6,0,0,1,666.952,197.3Z" transform="translate(-666.434 -163.825)" fill="#e0a988"/>
                  <path id="Trazado_115353" data-name="Trazado 115353" d="M767.422,222.1a8.872,8.872,0,0,1,9.219,1.653" transform="translate(-713.598 -190.743)" fill="none" stroke="#331810" stroke-linecap="round" stroke-linejoin="round" stroke-width="1.5"/>
                </g>
                <path id="Trazado_115354" data-name="Trazado 115354" d="M754.965,287.187a25.376,25.376,0,0,0-11.671-1.754c-3.145.272-6.548,1.083-9.288-.484" transform="translate(-683.945 -210.107)" fill="none" stroke="#331810" stroke-linecap="round" stroke-linejoin="round" stroke-width="1.5"/>
                <path id="Trazado_115355" data-name="Trazado 115355" d="M762.21,280.029a3.279,3.279,0,0,0-2.354-.117" transform="translate(-696.018 -207.678)" fill="none" stroke="#ba7a5d" stroke-linecap="round" stroke-linejoin="round" stroke-width="1.5"/>
                <path id="Trazado_115356" data-name="Trazado 115356" d="M760.619,294.824a9.155,9.155,0,0,1-2.969-.636" transform="translate(-694.988 -214.422)" fill="none" stroke="#ba7a5d" stroke-linecap="round" stroke-linejoin="round" stroke-width="1.5"/>
                <path id="Trazado_115357" data-name="Trazado 115357" d="M771.218,232.453c0,1.827.82,3.308,1.831,3.308s1.831-1.481,1.831-3.308-.82-3.309-1.831-3.309S771.218,230.625,771.218,232.453Z" transform="translate(-701.325 -184.044)" fill="#331810"/>
                <ellipse id="Elipse_4737" data-name="Elipse 4737" cx="4.313" cy="8.212" rx="4.313" ry="8.212" transform="translate(29.323 63.805) rotate(-77.466)" fill="#e89f87"/>
                <g id="Grupo_108920" data-name="Grupo 108920" transform="translate(64.377 43.172)">
                  <path id="Trazado_115358" data-name="Trazado 115358" d="M771.456,225.95c5.418.58,9.757,1.541,9.693,2.146l.117.012-.6,5.639a9.925,9.925,0,1,1-19.738-2.114l.6-5.639C761.594,225.39,766.038,225.369,771.456,225.95Z" transform="translate(-760.868 -225.527)" fill="#fff" opacity="0.3"/>
                  <g id="Grupo_108919" data-name="Grupo 108919" transform="translate(0 0.05)" opacity="0.43">
                    <path id="Trazado_115359" data-name="Trazado 115359" d="M769.737,242.7a9.925,9.925,0,0,1-8.812-10.925l.6-5.639c.014-.131.246-.233.639-.309q5.321,8.275,10.262,16.787A9.917,9.917,0,0,1,769.737,242.7Z" transform="translate(-760.868 -225.715)" fill="#fff" opacity="0.5"/>
                    <path id="Trazado_115360" data-name="Trazado 115360" d="M776.539,225.994c.442.047.873.1,1.3.15q3.414,5.884,6.327,12.039a9.956,9.956,0,0,1-3.128,3.018q-4.443-7.907-9.287-15.579C773.173,225.684,774.8,225.808,776.539,225.994Z" transform="translate(-765.95 -225.621)" fill="#fff" opacity="0.5"/>
                  </g>
                </g>
                <path id="Trazado_115361" data-name="Trazado 115361" d="M771.456,225.95c5.418.58,9.757,1.541,9.693,2.146l.117.012-.6,5.639a9.925,9.925,0,1,1-19.738-2.114l.6-5.639C761.594,225.39,766.038,225.369,771.456,225.95Z" transform="translate(-696.491 -182.355)" fill="none" stroke="#23276e" stroke-linecap="round" stroke-linejoin="round" stroke-width="2"/>
                <g id="Grupo_108921" data-name="Grupo 108921" transform="translate(60.185 41.958)">
                  <path id="Trazado_115362" data-name="Trazado 115362" d="M760.544,247.647l4.361-4.226a2.382,2.382,0,0,0,.514-3.876q-1.178-1.6-2.3-3.24a26.079,26.079,0,0,1-2.372-4.03,14.863,14.863,0,0,1-.963-9.025,8.442,8.442,0,0,0-2.334,3.591,21.774,21.774,0,0,0-.462,10.739C757.638,241.143,759.274,244.256,760.544,247.647Z" transform="translate(-754.653 -223.25)" fill="#f0c49b"/>
                  <path id="Trazado_115363" data-name="Trazado 115363" d="M755.714,257.529c1.867-.569,3.886.341,5.82.074a7.6,7.6,0,0,0,2.969-1.23,1.654,1.654,0,0,1,.035.242,3.178,3.178,0,0,1-1.284,2.275l-3.966,3.844a3.366,3.366,0,0,0-4.664-2.166,5.367,5.367,0,0,1-1.62.7A3.937,3.937,0,0,1,755.714,257.529Z" transform="translate(-753.003 -238.719)" fill="#e0a988"/>
                  <path id="Trazado_115364" data-name="Trazado 115364" d="M762.359,223.25a14.862,14.862,0,0,0,.963,9.025,26.073,26.073,0,0,0,2.372,4.03q1.12,1.64,2.3,3.24a2.382,2.382,0,0,1-.514,3.876l-4.361,4.226" transform="translate(-757.228 -223.25)" fill="none" stroke="#331810" stroke-linecap="round" stroke-linejoin="round" stroke-width="1.5"/>
                </g>
              </g>
              <g id="Grupo_108925" data-name="Grupo 108925" transform="translate(3.625 3.805)">
                <path id="Trazado_115365" data-name="Trazado 115365" d="M666.063,168.255a19.375,19.375,0,0,1,11.829-9.16,51.975,51.975,0,0,1,8.7-2.689,35.856,35.856,0,0,1,6.707-.517,43.749,43.749,0,0,1,16.6,3.093,29.512,29.512,0,0,1,13.147,10.391c4.281,6.308,5.346,14.112,4.327,21.667a11.406,11.406,0,0,0-1.869-6.062,33.992,33.992,0,0,0-4.023-5c-2.054-2.249-4.2-4.4-6.258-6.645a35.465,35.465,0,0,1,7.888,18.462c-4.134-10.207-13.526-18.376-23.392-23.27a37.054,37.054,0,0,1,11.677,16.34,31.131,31.131,0,0,0-18.969-13.314,40.153,40.153,0,0,1,9.733,5.824c-8.211-3.173-17.472-4.01-24.681-9.062a60.521,60.521,0,0,1-4.132,24.3,22.844,22.844,0,0,0-.34-11.011c.714,6.448-.725,12.925-2.331,19.211-.77,3.014-1.622,6.106-3.517,8.574-.694.9-1.781,1.782-2.867,1.433a2.481,2.481,0,0,1-1.383-1.466,10.387,10.387,0,0,1-.637-3.711C661.732,193.135,658.811,178.455,666.063,168.255Z" transform="translate(-653.586 -153.638)" fill="#512e21"/>
                <g id="Grupo_108924" data-name="Grupo 108924">
                  <g id="Grupo_108923" data-name="Grupo 108923" transform="translate(8.633 11.289)">
                    <path id="Trazado_115366" data-name="Trazado 115366" d="M751.22,178.048a25.456,25.456,0,0,1,18.336,22.014c-.045.443-.1.886-.156,1.328a11.406,11.406,0,0,0-1.869-6.062,34,34,0,0,0-4.023-5c-2.054-2.249-4.2-4.4-6.258-6.645.416.5.811,1.008,1.2,1.527A39.306,39.306,0,0,0,751.22,178.048Z" transform="translate(-704.243 -175.275)" fill="#512e21" opacity="0.5" style="mix-blend-mode: multiply;isolation: isolate"/>
                    <path id="Trazado_115367" data-name="Trazado 115367" d="M728.648,175.253a34.685,34.685,0,0,1,4.535,1.27,24.45,24.45,0,0,1,7.341,4.172,44.225,44.225,0,0,1,4.43,3.738c4.246,4.189,7.04,9.556,9.346,15.1q.1.651.184,1.306c-3.948-9.749-12.694-17.636-22.067-22.588a47.447,47.447,0,0,0-4.01-2.97C728.368,175.278,728.687,175.253,728.648,175.253Z" transform="translate(-693.587 -173.97)" fill="#512e21" opacity="0.5" style="mix-blend-mode: multiply;isolation: isolate"/>
                    <path id="Trazado_115368" data-name="Trazado 115368" d="M726.7,187.661a41.012,41.012,0,0,1,3.817,5.5c.265.611.522,1.228.762,1.854A31.063,31.063,0,0,0,713.476,182c-3.235-1.423-6.592-2.622-9.665-4.358A28.875,28.875,0,0,1,726.7,187.661Z" transform="translate(-682.101 -175.075)" fill="#512e21" opacity="0.5" style="mix-blend-mode: multiply;isolation: isolate"/>
                    <path id="Trazado_115369" data-name="Trazado 115369" d="M666.532,219.659a27.588,27.588,0,0,0,4.8-11.144,82.508,82.508,0,0,0,1.338-12.148,30.375,30.375,0,0,1,1.235,4.476c.627,6.335-.784,12.694-2.362,18.869-.77,3.015-1.622,6.106-3.517,8.574-.694.9-1.781,1.782-2.867,1.433a2.481,2.481,0,0,1-1.383-1.466,10.387,10.387,0,0,1-.637-3.711q-.027-.6-.059-1.2A29.268,29.268,0,0,0,666.532,219.659Z" transform="translate(-663.078 -183.831)" fill="#512e21" opacity="0.5" style="mix-blend-mode: multiply;isolation: isolate"/>
                    <path id="Trazado_115370" data-name="Trazado 115370" d="M686.554,172.846c6.867,5.839,16.243,7.605,24.271,11.689-7.656-2.583-15.968-3.682-22.565-8.3a60.388,60.388,0,0,1-3.947,23.8A74.951,74.951,0,0,0,686.554,172.846Z" transform="translate(-672.995 -172.846)" fill="#512e21" opacity="0.5" style="mix-blend-mode: multiply;isolation: isolate"/>
                  </g>
                  <path id="Trazado_115371" data-name="Trazado 115371" d="M662.592,183.291a40.041,40.041,0,0,1-.414,14.874,22.8,22.8,0,0,1-7.635,12.556c3.277-3.352,3.884-8.414,4.318-13.081a24.517,24.517,0,0,1-3.636,9.175,13.283,13.283,0,0,1-7.943,5.572,26,26,0,0,0,11.2-21.3,16.625,16.625,0,0,1,.522,11.236A29.067,29.067,0,0,0,662.592,183.291Z" transform="translate(-647.068 -166.435)" fill="#fff" opacity="0.2"/>
                  <path id="Trazado_115372" data-name="Trazado 115372" d="M646.881,206.284a33.044,33.044,0,0,0,9.056-25.421C653.678,189.8,651.825,198.505,646.881,206.284Z" transform="translate(-646.881 -165.301)" fill="#fff" opacity="0.2"/>
                  <path id="Trazado_115373" data-name="Trazado 115373" d="M739.823,160.228c-6.179-4.259-13.43-6.68-20.694-8.563,3.408,1.423,6.938,2.929,9.4,5.686a32.889,32.889,0,0,0-19.505-5.561c9.478,2.647,19.054,5.571,27.256,11.009a39.668,39.668,0,0,0-8.354-7.732,50.385,50.385,0,0,1,15.561,9.959,33.877,33.877,0,0,1,9.442,15.73c-1.03-4.067-1.741-7.749-4.068-11.366A32.869,32.869,0,0,0,739.823,160.228Z" transform="translate(-675.902 -151.665)" fill="#fff" opacity="0.2"/>
                  <path id="Trazado_115374" data-name="Trazado 115374" d="M712.783,168.724q-5.847-2.014-11.539-4.444a10.272,10.272,0,0,1-3.665-2.242l9.78,3.888c-1.792-.713-4.073-3.537-5.176-5.068,1.122-.189,3.913,3,4.871,3.753Q709.826,166.793,712.783,168.724Z" transform="translate(-670.558 -155.955)" fill="#fff" opacity="0.2"/>
                  <path id="Trazado_115375" data-name="Trazado 115375" d="M724.389,162.509c3.762,2.03,7.43,4.558,9.654,8.208-.87-1.428-3.4-2.656-4.78-3.526-1.759-1.105-3.581-2.105-5.384-3.134A47.045,47.045,0,0,1,714.2,157C717.04,159.426,721.123,160.747,724.389,162.509Z" transform="translate(-678.322 -154.158)" fill="#fff" opacity="0.2"/>
                </g>
              </g>
              <g id="Grupo_108929" data-name="Grupo 108929" transform="translate(6.196 39.864)">
                <g id="Grupo_108928" data-name="Grupo 108928" transform="translate(30.553)">
                  <g id="Grupo_108927" data-name="Grupo 108927">
                    <path id="Trazado_115376" data-name="Trazado 115376" d="M719.618,219.743c5.418.58,9.757,1.541,9.693,2.145l.117.013-.6,5.639a9.925,9.925,0,0,1-19.738-2.114l.6-5.639C709.756,219.182,714.2,219.162,719.618,219.743Z" transform="translate(-709.03 -219.32)" fill="#fff" opacity="0.3"/>
                    <g id="Grupo_108926" data-name="Grupo 108926" transform="translate(0 0.109)" opacity="0.43">
                      <path id="Trazado_115377" data-name="Trazado 115377" d="M725.674,219.838l.35.039q3.592,6.4,6.536,13.143a9.98,9.98,0,0,1-2.206,1.917q-3.865-7.871-8.357-15.412C723.136,219.6,724.376,219.7,725.674,219.838Z" transform="translate(-715.086 -219.525)" fill="#fff" opacity="0.5"/>
                      <path id="Trazado_115378" data-name="Trazado 115378" d="M709.561,222.476q4.547,7.5,8.478,15.358c-.047,0-.093,0-.14-.008a9.925,9.925,0,0,1-8.812-10.925Z" transform="translate(-709.03 -220.903)" fill="#fff" opacity="0.5"/>
                    </g>
                    <path id="Trazado_115379" data-name="Trazado 115379" d="M719.618,219.743c5.418.58,9.757,1.541,9.693,2.145l.117.013-.6,5.639a9.925,9.925,0,0,1-19.738-2.114l.6-5.639C709.756,219.182,714.2,219.162,719.618,219.743Z" transform="translate(-709.03 -219.32)" fill="none" stroke="#23276e" stroke-linecap="round" stroke-linejoin="round" stroke-width="2"/>
                  </g>
                  <path id="Trazado_115380" data-name="Trazado 115380" d="M755.629,225.188a7.786,7.786,0,0,0-9.045-1.6" transform="translate(-726.569 -220.939)" fill="none" stroke="#23276e" stroke-linecap="round" stroke-linejoin="round" stroke-width="2"/>
                </g>
                <line id="Línea_163" data-name="Línea 163" x1="31.214" y2="14.551" transform="translate(0 0.467)" fill="none" stroke="#23276e" stroke-linecap="round" stroke-linejoin="round" stroke-width="2"/>
              </g>
              <g id="Grupo_108930" data-name="Grupo 108930" transform="translate(4.757 53.911)">
                <path id="Trazado_115381" data-name="Trazado 115381" d="M656.166,246.756a4.82,4.82,0,0,0-5.052-.605,4.621,4.621,0,0,0-2.1,3.821,10.532,10.532,0,0,0,.967,4.41,30.55,30.55,0,0,0,2.465,4.806,9.972,9.972,0,0,0,4.334,4.19c1.89.773,4.416.308,5.4-1.483a6.046,6.046,0,0,0,.142-4.263C661.365,253.58,659.679,249.295,656.166,246.756Z" transform="translate(-649.005 -245.676)" fill="#f0c49b"/>
                <path id="Trazado_115382" data-name="Trazado 115382" d="M658.232,252.581a3.051,3.051,0,0,0-3.2-.383,2.923,2.923,0,0,0-1.33,2.419,6.655,6.655,0,0,0,.612,2.791,19.26,19.26,0,0,0,1.56,3.041,6.315,6.315,0,0,0,2.742,2.652,2.756,2.756,0,0,0,3.416-.939,3.826,3.826,0,0,0,.09-2.7C661.522,256.9,660.455,254.187,658.232,252.581Z" transform="translate(-651.197 -248.582)" fill="#e0a988"/>
              </g>
            </g>
          </g>
        </g>
      </g>
    </g>
    <g id="Grupo_108972" data-name="Grupo 108972" transform="translate(124.935 9.167)">
      <g id="Grupo_108938" data-name="Grupo 108938" transform="translate(0 1.68)">
        <g id="Grupo_108936" data-name="Grupo 108936" transform="translate(1.827 1.827)" opacity="0.5">
          <path id="Trazado_115383" data-name="Trazado 115383" d="M819.3,177.693V145.538l29.651-16.078L878.6,145.538v32.155l-29.651,16.078Z" transform="translate(-819.302 -129.46)" fill="#fff"/>
        </g>
        <g id="Grupo_108937" data-name="Grupo 108937" transform="translate(6.979 7.414)">
          <path id="Trazado_115384" data-name="Trazado 115384" d="M828.969,179.8V153.227l24.5-13.284,24.5,13.284V179.8l-24.5,13.284Z" transform="translate(-828.969 -139.943)" fill="none" stroke="#fff" stroke-linecap="round" stroke-miterlimit="10" stroke-width="2"/>
        </g>
        <circle id="Elipse_4738" data-name="Elipse 4738" cx="1.827" cy="1.827" r="1.827" transform="translate(29.651)" fill="#fff"/>
        <circle id="Elipse_4739" data-name="Elipse 4739" cx="1.827" cy="1.827" r="1.827" transform="translate(29.651 64.497)" fill="#fff"/>
        <circle id="Elipse_4740" data-name="Elipse 4740" cx="1.827" cy="1.827" r="1.827" transform="translate(0 16.386)" fill="#fff"/>
        <circle id="Elipse_4741" data-name="Elipse 4741" cx="1.827" cy="1.827" r="1.827" transform="translate(0 48.214)" fill="#fff"/>
        <path id="Trazado_115385" data-name="Trazado 115385" d="M927.141,158.605a1.827,1.827,0,1,0,1.827-1.827A1.827,1.827,0,0,0,927.141,158.605Z" transform="translate(-867.839 -140.391)" fill="#fff"/>
        <path id="Trazado_115386" data-name="Trazado 115386" d="M927.141,218.322a1.827,1.827,0,1,0,1.827-1.827A1.827,1.827,0,0,0,927.141,218.322Z" transform="translate(-867.839 -168.281)" fill="#fff"/>
      </g>
      <g id="Grupo_108941" data-name="Grupo 108941" transform="translate(11.706 74.405)">
        <g id="Grupo_108939" data-name="Grupo 108939" transform="translate(1.827 1.827)" opacity="0.5">
          <path id="Trazado_115387" data-name="Trazado 115387" d="M841.266,314.144V281.989l29.651-16.078,29.651,16.078v32.155l-29.651,16.078Z" transform="translate(-841.266 -265.911)" fill="#fff"/>
        </g>
        <g id="Grupo_108940" data-name="Grupo 108940" transform="translate(6.979 7.414)">
          <path id="Trazado_115388" data-name="Trazado 115388" d="M850.933,316.246V289.678l24.5-13.284,24.5,13.284v26.568l-24.5,13.284Z" transform="translate(-850.933 -276.394)" fill="none" stroke="#fff" stroke-linecap="round" stroke-miterlimit="10" stroke-width="2"/>
        </g>
        <path id="Trazado_115389" data-name="Trazado 115389" d="M893.472,264.31a1.827,1.827,0,1,0,1.827-1.827A1.827,1.827,0,0,0,893.472,264.31Z" transform="translate(-863.821 -262.483)" fill="#fff"/>
        <path id="Trazado_115390" data-name="Trazado 115390" d="M893.472,385.324A1.827,1.827,0,1,0,895.3,383.5,1.827,1.827,0,0,0,893.472,385.324Z" transform="translate(-863.821 -319)" fill="#fff"/>
        <circle id="Elipse_4742" data-name="Elipse 4742" cx="1.827" cy="1.827" r="1.827" transform="translate(0 16.386)" fill="#fff"/>
        <path id="Trazado_115391" data-name="Trazado 115391" d="M837.838,354.773a1.827,1.827,0,1,0,1.827-1.827A1.827,1.827,0,0,0,837.838,354.773Z" transform="translate(-837.838 -304.732)" fill="#fff"/>
        <circle id="Elipse_4743" data-name="Elipse 4743" cx="1.827" cy="1.827" r="1.827" transform="translate(59.302 16.386)" fill="#fff"/>
        <path id="Trazado_115392" data-name="Trazado 115392" d="M949.1,354.773a1.827,1.827,0,1,0,1.827-1.827A1.827,1.827,0,0,0,949.1,354.773Z" transform="translate(-889.803 -304.732)" fill="#fff"/>
      </g>
      <g id="Grupo_108944" data-name="Grupo 108944" transform="translate(180.434)">
        <g id="Grupo_108942" data-name="Grupo 108942" transform="translate(2.425 2.425)" opacity="0.5">
          <path id="Trazado_115393" data-name="Trazado 115393" d="M1158.967,191.448V148.769l39.355-21.339,39.355,21.339v42.679l-39.355,21.339Z" transform="translate(-1158.967 -127.43)" fill="#fff"/>
        </g>
        <g id="Grupo_108943" data-name="Grupo 108943" transform="translate(9.263 9.84)">
          <path id="Trazado_115394" data-name="Trazado 115394" d="M1171.8,194.238V158.975l32.517-17.632,32.517,17.632v35.263l-32.517,17.632Z" transform="translate(-1171.797 -141.343)" fill="none" stroke="#fff" stroke-linecap="round" stroke-miterlimit="10" stroke-width="2"/>
        </g>
        <circle id="Elipse_4744" data-name="Elipse 4744" cx="2.425" cy="2.425" r="2.425" transform="translate(39.355)" fill="#fff"/>
        <circle id="Elipse_4745" data-name="Elipse 4745" cx="2.425" cy="2.425" r="2.425" transform="translate(39.355 85.605)" fill="#fff"/>
        <circle id="Elipse_4746" data-name="Elipse 4746" cx="2.425" cy="2.425" r="2.425" transform="translate(0 21.749)" fill="#fff"/>
        <circle id="Elipse_4747" data-name="Elipse 4747" cx="2.425" cy="2.425" r="2.425" transform="translate(0 63.993)" fill="#fff"/>
        <circle id="Elipse_4748" data-name="Elipse 4748" cx="2.425" cy="2.425" r="2.425" transform="translate(78.71 21.749)" fill="#fff"/>
        <circle id="Elipse_4749" data-name="Elipse 4749" cx="2.425" cy="2.425" r="2.425" transform="translate(78.71 63.993)" fill="#fff"/>
      </g>
      <g id="Grupo_108947" data-name="Grupo 108947" transform="translate(169.461 99.892)">
        <g id="Grupo_108945" data-name="Grupo 108945" transform="translate(2.425 2.425)" opacity="0.5">
          <path id="Trazado_115395" data-name="Trazado 115395" d="M1138.379,378.872V336.193l39.355-21.339,39.355,21.339v42.679l-39.355,21.339Z" transform="translate(-1138.379 -314.854)" fill="#fff"/>
        </g>
        <g id="Grupo_108946" data-name="Grupo 108946" transform="translate(9.263 9.84)">
          <path id="Trazado_115396" data-name="Trazado 115396" d="M1151.209,381.662V346.4l32.517-17.632,32.517,17.632v35.263l-32.517,17.632Z" transform="translate(-1151.209 -328.767)" fill="none" stroke="#fff" stroke-linecap="round" stroke-miterlimit="10" stroke-width="2"/>
        </g>
        <circle id="Elipse_4750" data-name="Elipse 4750" cx="2.425" cy="2.425" r="2.425" transform="translate(39.355)" fill="#fff"/>
        <circle id="Elipse_4751" data-name="Elipse 4751" cx="2.425" cy="2.425" r="2.425" transform="translate(39.355 85.605)" fill="#fff"/>
        <path id="Trazado_115397" data-name="Trazado 115397" d="M1133.83,353.536a2.425,2.425,0,1,0,2.425-2.425A2.425,2.425,0,0,0,1133.83,353.536Z" transform="translate(-1133.83 -329.362)" fill="#fff"/>
        <circle id="Elipse_4752" data-name="Elipse 4752" cx="2.425" cy="2.425" r="2.425" transform="translate(0 63.993)" fill="#fff"/>
        <path id="Trazado_115398" data-name="Trazado 115398" d="M1281.511,353.536a2.425,2.425,0,1,0,2.425-2.425A2.425,2.425,0,0,0,1281.511,353.536Z" transform="translate(-1202.801 -329.362)" fill="#fff"/>
        <circle id="Elipse_4753" data-name="Elipse 4753" cx="2.425" cy="2.425" r="2.425" transform="translate(78.71 63.993)" fill="#fff"/>
      </g>
      <g id="Grupo_108950" data-name="Grupo 108950" transform="translate(138.455 181.044)">
        <g id="Grupo_108948" data-name="Grupo 108948" transform="translate(1.941 1.94)" opacity="0.5">
          <path id="Trazado_115399" data-name="Trazado 115399" d="M1079.294,517.433v-34.15l31.491-17.075,31.491,17.075v34.15l-31.491,17.075Z" transform="translate(-1079.294 -466.208)" fill="#fff"/>
        </g>
        <g id="Grupo_108949" data-name="Grupo 108949" transform="translate(7.412 7.874)">
          <path id="Trazado_115400" data-name="Trazado 115400" d="M1089.56,519.666V491.449l26.02-14.108,26.019,14.108v28.217l-26.019,14.108Z" transform="translate(-1089.56 -477.341)" fill="none" stroke="#fff" stroke-linecap="round" stroke-miterlimit="10" stroke-width="2"/>
        </g>
        <circle id="Elipse_4754" data-name="Elipse 4754" cx="1.94" cy="1.94" r="1.94" transform="translate(31.491)" fill="#fff"/>
        <circle id="Elipse_4755" data-name="Elipse 4755" cx="1.94" cy="1.94" r="1.94" transform="translate(31.491 68.499)" fill="#fff"/>
        <path id="Trazado_115401" data-name="Trazado 115401" d="M1075.653,497.161a1.941,1.941,0,1,0,1.941-1.941A1.94,1.94,0,0,0,1075.653,497.161Z" transform="translate(-1075.653 -477.817)" fill="#fff"/>
        <path id="Trazado_115402" data-name="Trazado 115402" d="M1075.653,560.583a1.941,1.941,0,1,0,1.941-1.941A1.941,1.941,0,0,0,1075.653,560.583Z" transform="translate(-1075.653 -507.437)" fill="#fff"/>
        <path id="Trazado_115403" data-name="Trazado 115403" d="M1193.824,497.161a1.941,1.941,0,1,0,1.941-1.941A1.94,1.94,0,0,0,1193.824,497.161Z" transform="translate(-1130.842 -477.817)" fill="#fff"/>
        <path id="Trazado_115404" data-name="Trazado 115404" d="M1193.824,560.583a1.941,1.941,0,1,0,1.941-1.941A1.941,1.941,0,0,0,1193.824,560.583Z" transform="translate(-1130.842 -507.437)" fill="#fff"/>
      </g>
      <g id="Grupo_108951" data-name="Grupo 108951" transform="translate(121.522 131.809)">
        <path id="Trazado_115405" data-name="Trazado 115405" d="M1044.041,370.273c-.054-.016-.106-.042-.159-.059C1043.959,370.165,1044.124,370.189,1044.041,370.273Z" transform="translate(-1043.882 -370.189)" fill="#f0c49b"/>
      </g>
      <g id="Grupo_108952" data-name="Grupo 108952" transform="translate(187.571 126.984)" opacity="0.5" style="mix-blend-mode: multiply;isolation: isolate">
        <path id="Trazado_115406" data-name="Trazado 115406" d="M1172.175,377.543c-.274-2.7.176-5.63,1.971-7.668s5.434-3.017,7.557-1.323a10.957,10.957,0,0,1,8.921-7.311,13.36,13.36,0,0,1,11.055,3.981,17.2,17.2,0,0,1,4.689,10.962,6.927,6.927,0,0,1,6.384,1.962,8.945,8.945,0,0,1,2.4,6.234,6.962,6.962,0,0,1-1.074,3.979c-1.388,2.015-4.031,2.767-6.477,2.824l-31.753-.246c-3.351,0-6.721-1.565-7.767-4.749S1169.164,379.014,1172.175,377.543Z" transform="translate(-1167.808 -361.136)" fill="#c6c6c6"/>
      </g>
      <g id="Grupo_108954" data-name="Grupo 108954" transform="translate(29.651 95.086)">
        <g id="Grupo_108953" data-name="Grupo 108953">
          <path id="Trazado_115407" data-name="Trazado 115407" d="M910.423,318.01a14.5,14.5,0,0,0-2.081-7.506,14.556,14.556,0,0,0,2.729-1.677,13.024,13.024,0,0,1,3.773,9.183,13.231,13.231,0,0,1-.125,1.79,41.078,41.078,0,0,0-4.315-1.035Q910.423,318.39,910.423,318.01Z" transform="translate(-888.71 -304.808)" fill="none" stroke="#23276e" stroke-linecap="round" stroke-linejoin="round" stroke-width="2"/>
          <path id="Trazado_115408" data-name="Trazado 115408" d="M876.536,317.729c0,.231.006.462.017.69a41.091,41.091,0,0,0-4.911,1.171,13.174,13.174,0,0,1-.134-1.862,13.028,13.028,0,0,1,4.1-9.5,14.579,14.579,0,0,0,3.032,1.952A14.5,14.5,0,0,0,876.536,317.729Z" transform="translate(-871.508 -304.528)" fill="none" stroke="#23276e" stroke-linecap="round" stroke-linejoin="round" stroke-width="2"/>
          <path id="Trazado_115409" data-name="Trazado 115409" d="M896.71,313.357a14.506,14.506,0,0,0,6.2-1.384,14.5,14.5,0,0,1,2.081,7.506q0,.38-.02.756a46.869,46.869,0,0,0-8.261-.762Z" transform="translate(-883.278 -306.278)" fill="none" stroke="#23276e" stroke-linecap="round" stroke-linejoin="round" stroke-width="2"/>
          <path id="Trazado_115410" data-name="Trazado 115410" d="M889.1,319.433a47.121,47.121,0,0,0-8.143.7c-.011-.229-.017-.459-.017-.69a14.5,14.5,0,0,1,2.106-7.55,14.51,14.51,0,0,0,6.3,1.428v6.116Z" transform="translate(-875.914 -306.239)" fill="none" stroke="#23276e" stroke-linecap="round" stroke-linejoin="round" stroke-width="2"/>
          <path id="Trazado_115411" data-name="Trazado 115411" d="M896.656,301.287v.056l-.062-.028Z" transform="translate(-883.224 -301.287)" fill="none" stroke="#23276e" stroke-linecap="round" stroke-linejoin="round" stroke-width="2"/>
          <path id="Trazado_115412" data-name="Trazado 115412" d="M897.054,301.565a13.022,13.022,0,0,1,8.745,3.87,14.553,14.553,0,0,1-2.729,1.677A14.63,14.63,0,0,0,897.054,301.565Z" transform="translate(-883.439 -301.417)" fill="none" stroke="#23276e" stroke-linecap="round" stroke-linejoin="round" stroke-width="2"/>
          <path id="Trazado_115413" data-name="Trazado 115413" d="M882.237,307.056a14.582,14.582,0,0,1-3.032-1.952,13.019,13.019,0,0,1,8.965-3.565l.081,0A14.633,14.633,0,0,0,882.237,307.056Z" transform="translate(-875.103 -301.405)" fill="none" stroke="#23276e" stroke-linecap="round" stroke-linejoin="round" stroke-width="2"/>
          <path id="Trazado_115414" data-name="Trazado 115414" d="M896.71,301.392c.062.029.122.062.183.092-.061,0-.123,0-.183,0Z" transform="translate(-883.278 -301.336)" fill="none" stroke="#23276e" stroke-linecap="round" stroke-linejoin="round" stroke-width="2"/>
          <path id="Trazado_115415" data-name="Trazado 115415" d="M896.178,301.448c.074-.037.147-.073.222-.108l.062.028v.087C896.367,301.452,896.273,301.449,896.178,301.448Z" transform="translate(-883.03 -301.312)" fill="none" stroke="#23276e" stroke-linecap="round" stroke-linejoin="round" stroke-width="2"/>
          <path id="Trazado_115416" data-name="Trazado 115416" d="M902.909,307.108a14.506,14.506,0,0,1-6.2,1.384v-6.936c.061,0,.123,0,.183,0A14.629,14.629,0,0,1,902.909,307.108Z" transform="translate(-883.278 -301.413)" fill="none" stroke="#23276e" stroke-linecap="round" stroke-linejoin="round" stroke-width="2"/>
          <path id="Trazado_115417" data-name="Trazado 115417" d="M891.192,308.486a14.51,14.51,0,0,1-6.3-1.428,14.632,14.632,0,0,1,6.014-5.515c.095,0,.189,0,.284.007Z" transform="translate(-877.76 -301.407)" fill="none" stroke="#23276e" stroke-linecap="round" stroke-linejoin="round" stroke-width="2"/>
          <path id="Trazado_115418" data-name="Trazado 115418" d="M909.686,327.474A41.063,41.063,0,0,1,914,328.508a13.051,13.051,0,0,1-4.611,8.276,14.533,14.533,0,0,0-2.585-1.343A14.492,14.492,0,0,0,909.686,327.474Z" transform="translate(-887.993 -313.517)" fill="none" stroke="#23276e" stroke-linecap="round" stroke-linejoin="round" stroke-width="2"/>
          <path id="Trazado_115419" data-name="Trazado 115419" d="M879.582,335.422a14.523,14.523,0,0,0-2.884,1.572,13.052,13.052,0,0,1-4.939-8.471,41.083,41.083,0,0,1,4.911-1.172A14.5,14.5,0,0,0,879.582,335.422Z" transform="translate(-871.626 -313.46)" fill="none" stroke="#23276e" stroke-linecap="round" stroke-linejoin="round" stroke-width="2"/>
          <path id="Trazado_115420" data-name="Trazado 115420" d="M889.361,326.044v7.7a14.517,14.517,0,0,0-5.475,1.068,14.5,14.5,0,0,1-2.912-8.071,47.122,47.122,0,0,1,8.143-.7Z" transform="translate(-875.929 -312.848)" fill="none" stroke="#23276e" stroke-linecap="round" stroke-linejoin="round" stroke-width="2"/>
          <path id="Trazado_115421" data-name="Trazado 115421" d="M896.71,326.045a46.872,46.872,0,0,1,8.261.762,14.491,14.491,0,0,1-2.88,7.968,14.522,14.522,0,0,0-5.381-1.031Z" transform="translate(-883.278 -312.85)" fill="none" stroke="#23276e" stroke-linecap="round" stroke-linejoin="round" stroke-width="2"/>
          <path id="Trazado_115422" data-name="Trazado 115422" d="M896.656,350.775l-.062-.028.062-.028Z" transform="translate(-883.224 -324.374)" fill="none" stroke="#23276e" stroke-linecap="round" stroke-linejoin="round" stroke-width="2"/>
          <path id="Trazado_115423" data-name="Trazado 115423" d="M902.252,342.424a14.528,14.528,0,0,1,2.585,1.343,13.01,13.01,0,0,1-7.783,2.987A14.626,14.626,0,0,0,902.252,342.424Z" transform="translate(-883.439 -320.499)" fill="none" stroke="#23276e" stroke-linecap="round" stroke-linejoin="round" stroke-width="2"/>
          <path id="Trazado_115424" data-name="Trazado 115424" d="M889.1,346.8l-.082,0a13.005,13.005,0,0,1-7.994-2.734,14.527,14.527,0,0,1,2.884-1.572A14.628,14.628,0,0,0,889.1,346.8Z" transform="translate(-875.953 -320.532)" fill="none" stroke="#23276e" stroke-linecap="round" stroke-linejoin="round" stroke-width="2"/>
          <path id="Trazado_115425" data-name="Trazado 115425" d="M896.461,350.555v.088l-.062.028c-.075-.035-.148-.072-.222-.108C896.273,350.562,896.367,350.558,896.461,350.555Z" transform="translate(-883.03 -324.296)" fill="none" stroke="#23276e" stroke-linecap="round" stroke-linejoin="round" stroke-width="2"/>
          <path id="Trazado_115426" data-name="Trazado 115426" d="M896.71,350.639v-.088l.183,0C896.832,350.577,896.772,350.609,896.71,350.639Z" transform="translate(-883.278 -324.293)" fill="none" stroke="#23276e" stroke-linecap="round" stroke-linejoin="round" stroke-width="2"/>
          <path id="Trazado_115427" data-name="Trazado 115427" d="M902.091,341.521a14.627,14.627,0,0,1-5.2,4.329l-.183,0V340.49A14.522,14.522,0,0,1,902.091,341.521Z" transform="translate(-883.278 -319.596)" fill="none" stroke="#23276e" stroke-linecap="round" stroke-linejoin="round" stroke-width="2"/>
          <path id="Trazado_115428" data-name="Trazado 115428" d="M886.437,341.558a14.518,14.518,0,0,1,5.475-1.068v5.364c-.095,0-.189.007-.284.007A14.627,14.627,0,0,1,886.437,341.558Z" transform="translate(-878.48 -319.596)" fill="none" stroke="#23276e" stroke-linecap="round" stroke-linejoin="round" stroke-width="2"/>
        </g>
      </g>
      <rect id="Rectángulo_40482" data-name="Rectángulo 40482" width="34.537" height="24.866" rx="8.727" transform="translate(189.155 230.616) rotate(-180)" fill="#c6c6c6" opacity="0.5"/>
      <rect id="Rectángulo_40483" data-name="Rectángulo 40483" width="30.196" height="21.741" rx="7.599" transform="translate(186.985 229.053) rotate(-180)" fill="#fff"/>
      <text id="_" data-name="&lt; &gt;" transform="matrix(-1, 0, 0, 1, 185.817, 208.131)" fill="#23276e" font-size="28" font-family="SegoeUI, Segoe UI"><tspan x="4.353" y="30">&lt; </tspan></text>
      <path id="Trazado_115429" data-name="Trazado 115429" d="M1187.536,170.665a88.271,88.271,0,0,0,13.145-3.641,29.925,29.925,0,0,0,11.49-7.272l.005-.012,0,0,0,0,.006.012a29.923,29.923,0,0,0,11.49,7.272,88.256,88.256,0,0,0,13.146,3.641,47.23,47.23,0,0,1-5.866,24.647,35.292,35.292,0,0,1-18.126,15.636s-.486.282-.652.227c-.166.056-.652-.227-.652-.227a35.292,35.292,0,0,1-18.126-15.636A47.227,47.227,0,0,1,1187.536,170.665Z" transform="translate(-989.443 -140.095)" fill="#c6c6c6" opacity="0.5" style="mix-blend-mode: multiply;isolation: isolate"/>
      <path id="Trazado_115430" data-name="Trazado 115430" d="M1195.753,177.3a72.626,72.626,0,0,0,10.81-2.994,24.608,24.608,0,0,0,9.448-5.98l0-.01,0,0,0,0,0,.01a24.611,24.611,0,0,0,9.448,5.98,72.622,72.622,0,0,0,10.81,2.994,38.839,38.839,0,0,1-4.824,20.268,29.022,29.022,0,0,1-14.905,12.858s-.4.232-.536.186c-.136.046-.536-.186-.536-.186a29.024,29.024,0,0,1-14.906-12.858A38.845,38.845,0,0,1,1195.753,177.3Z" transform="translate(-993.283 -144.1)" fill="#fff"/>
      <g id="Grupo_108957" data-name="Grupo 108957" transform="translate(213.159 30.473)">
        <path id="Trazado_115431" data-name="Trazado 115431" d="M1215.818,201.008h18.573v14.559c0,.8-4.158,1.444-9.287,1.444s-9.286-.646-9.286-1.444V201.008Z" transform="translate(-1215.818 -189.841)" fill="#23276e"/>
        <path id="Trazado_115432" data-name="Trazado 115432" d="M1215.818,199.742c0,.8,4.158,1.444,9.286,1.444s9.287-.646,9.287-1.444-4.158-1.444-9.287-1.444S1215.818,198.944,1215.818,199.742Z" transform="translate(-1215.818 -188.576)" fill="#515aaf"/>
        <path id="Trazado_115433" data-name="Trazado 115433" d="M1239.089,200.523c0,.265.827.48,1.846.48s1.846-.215,1.846-.48-.827-.479-1.846-.479S1239.089,200.259,1239.089,200.523Z" transform="translate(-1226.686 -189.391)" fill="#23276e"/>
        <ellipse id="Elipse_4756" data-name="Elipse 4756" cx="1.846" cy="0.479" rx="1.846" ry="0.479" transform="translate(2.063 10.653)" fill="#23276e"/>
        <path id="Trazado_115434" data-name="Trazado 115434" d="M1230.729,212.474a1.707,1.707,0,1,1,2.036,0l.561,3.135a1.079,1.079,0,0,1-1.063,1.27h-1.032a1.079,1.079,0,0,1-1.063-1.27Z" transform="translate(-1222.46 -193.763)" fill="#b2713b" style="mix-blend-mode: multiply;isolation: isolate"/>
        <g id="Grupo_108955" data-name="Grupo 108955" transform="translate(8.422 16.484)" opacity="0.46" style="mix-blend-mode: multiply;isolation: isolate">
          <path id="Trazado_115435" data-name="Trazado 115435" d="M1231.619,211.849a.857.857,0,0,0,.351.689.841.841,0,0,1,.325.822l-.561,3.136a.238.238,0,0,0,.235.28H1233a.238.238,0,0,0,.234-.28l-.561-3.136a.84.84,0,0,1,.324-.822.857.857,0,0,0,.351-.689.865.865,0,1,0-1.73,0Z" transform="translate(-1231.619 -210.984)" fill="#b2713b"/>
        </g>
        <g id="Grupo_108956" data-name="Grupo 108956" transform="translate(2.715)">
          <path id="Trazado_115436" data-name="Trazado 115436" d="M1227.212,180.06v0l.086,0,.107,0v0a6.247,6.247,0,0,1,6.048,6.236v5.268a5.881,5.881,0,0,1-2.19,0V186.3a4.08,4.08,0,0,0-8.159,0v5.268a5.881,5.881,0,0,1-2.19,0V186.3C1220.913,182.907,1223.034,180.143,1227.212,180.06Z" transform="translate(-1220.913 -180.056)" fill="#c6c6c6"/>
          <path id="Trazado_115437" data-name="Trazado 115437" d="M1222.008,191.853V187.1a5.2,5.2,0,0,1,5.145-5.2v0l.029,0,.029,0v0a5.2,5.2,0,0,1,5.146,5.2v4.755c.376,0,.74.018,1.1,0v.571a5.881,5.881,0,0,1-2.19,0v-5.268a4.271,4.271,0,0,0-4.2-4.046,4.053,4.053,0,0,0-3.954,4.046v5.268a5.881,5.881,0,0,1-2.19,0v-.571C1221.268,191.87,1221.631,191.853,1222.008,191.853Z" transform="translate(-1220.913 -180.914)" fill="#c6c6c6" opacity="0.5" style="mix-blend-mode: multiply;isolation: isolate"/>
        </g>
      </g>
      <g id="Grupo_108960" data-name="Grupo 108960" transform="translate(82.468 18.025)">
        <g id="Grupo_108958" data-name="Grupo 108958" transform="translate(2.425 2.425)" opacity="0.5">
          <path id="Trazado_115438" data-name="Trazado 115438" d="M975.156,225.268V182.589l39.355-21.339,39.355,21.339v42.679l-39.355,21.339Z" transform="translate(-975.156 -161.25)" fill="#fff"/>
        </g>
        <g id="Grupo_108959" data-name="Grupo 108959" transform="translate(9.263 9.84)">
          <path id="Trazado_115439" data-name="Trazado 115439" d="M987.986,228.058V192.795l32.517-17.632,32.517,17.632v35.263L1020.5,245.69Z" transform="translate(-987.986 -175.163)" fill="none" stroke="#fff" stroke-linecap="round" stroke-miterlimit="10" stroke-width="2"/>
        </g>
        <circle id="Elipse_4757" data-name="Elipse 4757" cx="2.425" cy="2.425" r="2.425" transform="translate(39.355)" fill="#fff"/>
        <circle id="Elipse_4758" data-name="Elipse 4758" cx="2.425" cy="2.425" r="2.425" transform="translate(39.355 85.605)" fill="#fff"/>
        <circle id="Elipse_4759" data-name="Elipse 4759" cx="2.425" cy="2.425" r="2.425" transform="translate(0 21.749)" fill="#fff"/>
        <circle id="Elipse_4760" data-name="Elipse 4760" cx="2.425" cy="2.425" r="2.425" transform="translate(0 63.993)" fill="#fff"/>
        <circle id="Elipse_4761" data-name="Elipse 4761" cx="2.425" cy="2.425" r="2.425" transform="translate(78.71 21.749)" fill="#fff"/>
        <circle id="Elipse_4762" data-name="Elipse 4762" cx="2.425" cy="2.425" r="2.425" transform="translate(78.71 63.993)" fill="#fff"/>
      </g>
      <g id="Grupo_108963" data-name="Grupo 108963" transform="translate(88.792 118.566)">
        <g id="Grupo_108961" data-name="Grupo 108961" transform="translate(2.058 2.058)" opacity="0.5">
          <path id="Trazado_115440" data-name="Trazado 115440" d="M986.333,403.531V367.313l33.4-18.109,33.4,18.109v36.219l-33.4,18.109Z" transform="translate(-986.333 -349.204)" fill="#fff"/>
        </g>
        <g id="Grupo_108962" data-name="Grupo 108962" transform="translate(7.861 8.351)">
          <path id="Trazado_115441" data-name="Trazado 115441" d="M997.221,405.9V375.974l27.6-14.963,27.6,14.963V405.9l-27.6,14.963Z" transform="translate(-997.221 -361.011)" fill="none" stroke="#fff" stroke-linecap="round" stroke-miterlimit="10" stroke-width="2"/>
        </g>
        <circle id="Elipse_4763" data-name="Elipse 4763" cx="2.058" cy="2.058" r="2.058" transform="translate(33.398)" fill="#fff"/>
        <circle id="Elipse_4764" data-name="Elipse 4764" cx="2.058" cy="2.058" r="2.058" transform="translate(33.398 72.647)" fill="#fff"/>
        <circle id="Elipse_4765" data-name="Elipse 4765" cx="2.058" cy="2.058" r="2.058" transform="translate(0 18.457)" fill="#fff"/>
        <path id="Trazado_115442" data-name="Trazado 115442" d="M982.472,449.294a2.058,2.058,0,1,0,2.058-2.058A2.058,2.058,0,0,0,982.472,449.294Z" transform="translate(-982.472 -392.93)" fill="#fff"/>
        <circle id="Elipse_4766" data-name="Elipse 4766" cx="2.058" cy="2.058" r="2.058" transform="translate(66.796 18.457)" fill="#fff"/>
        <path id="Trazado_115443" data-name="Trazado 115443" d="M1107.8,449.294a2.058,2.058,0,1,0,2.058-2.058A2.058,2.058,0,0,0,1107.8,449.294Z" transform="translate(-1041.003 -392.93)" fill="#fff"/>
      </g>
      <path id="Trazado_115444" data-name="Trazado 115444" d="M1179.442,383.46a6.661,6.661,0,0,1,1.613-5.552c1.469-1.476,4.448-2.184,6.186-.958.974-2.811,4.009-4.9,7.3-5.293a11.594,11.594,0,0,1,12.887,10.818,6.161,6.161,0,0,1,5.226,1.421,6.079,6.079,0,0,1,1.961,4.513,4.606,4.606,0,0,1-.88,2.881c-1.136,1.459-3.3,2-5.3,2.045l-25.991-.178c-2.743,0-5.5-1.133-6.358-3.438S1176.978,384.525,1179.442,383.46Z" transform="translate(-984.001 -239.03)" fill="#fff"/>
      <path id="Trazado_115445" data-name="Trazado 115445" d="M1204.15,385.12h1.218v-5.805a1.243,1.243,0,0,1,1.243-1.243h2.191a1.243,1.243,0,0,1,1.243,1.243v5.805h1.218a1.452,1.452,0,0,1,1.257,2.177l-1.778,3.08-1.778,3.08a1.452,1.452,0,0,1-2.514,0l-1.778-3.08-1.778-3.08A1.451,1.451,0,0,1,1204.15,385.12Z" transform="translate(-996.531 -242.061)" fill="#23276e"/>
      <g id="Grupo_108965" data-name="Grupo 108965" transform="translate(156.788 207.313)">
        <g id="Grupo_108964" data-name="Grupo 108964">
          <path id="Trazado_115446" data-name="Trazado 115446" d="M1110.051,515.9a4.05,4.05,0,0,1,4.051-4.05h22.1a4.05,4.05,0,0,1,4.051,4.05v.2h-30.2Z" transform="translate(-1110.051 -511.854)" fill="#23276e"/>
        </g>
      </g>
      <g id="Grupo_108967" data-name="Grupo 108967" transform="translate(110.574 145.298)">
        <path id="Trazado_115447" data-name="Trazado 115447" d="M1023.347,406.643q-.011,2.266,0,4.533a.717.717,0,0,0,.757.77c.381.012.763-.012,1.142.014a.422.422,0,0,1,.306.208c.349.848.677,1.7,1.046,2.649-.241.228-.558.516-.861.819a.755.755,0,0,0-.013,1.217q1.544,1.557,3.1,3.1a.747.747,0,0,0,1.19,0c.312-.31.6-.641.834-.885.955.373,1.812.7,2.66,1.049a.426.426,0,0,1,.207.307c.026.38,0,.762.014,1.142a.713.713,0,0,0,.764.761q2.266.012,4.533,0a.712.712,0,0,0,.766-.759c.011-.381-.012-.763.013-1.142a.424.424,0,0,1,.205-.309c.848-.35,1.7-.678,2.657-1.051.223.237.508.557.811.86a.763.763,0,0,0,1.243,0q1.528-1.521,3.048-3.05a.768.768,0,0,0-.012-1.267c-.3-.293-.606-.571-.835-.785.372-.964.7-1.832,1.052-2.693a.4.4,0,0,1,.3-.176c.367-.022.737,0,1.1-.011a.731.731,0,0,0,.8-.806q.007-2.23,0-4.46a.724.724,0,0,0-.8-.8c-.368-.008-.738.011-1.105-.011a.4.4,0,0,1-.3-.179c-.35-.86-.678-1.729-1.052-2.7.238-.223.559-.507.862-.81a.753.753,0,0,0,0-1.215q-1.533-1.541-3.075-3.075a.761.761,0,0,0-1.242.012c-.293.295-.571.605-.791.84-.958-.37-1.826-.7-2.686-1.047a.4.4,0,0,1-.183-.293c-.022-.368,0-.737-.011-1.105a.726.726,0,0,0-.8-.8q-2.23-.008-4.459,0a.726.726,0,0,0-.805.8c-.008.368.011.738-.01,1.1a.4.4,0,0,1-.182.294c-.86.349-1.728.677-2.687,1.047-.228-.243-.514-.562-.817-.865a.742.742,0,0,0-1.188-.013q-1.572,1.556-3.129,3.126a.739.739,0,0,0,0,1.163c.309.314.64.605.888.838-.373.966-.7,1.834-1.051,2.694a.4.4,0,0,1-.3.18c-.379.022-.761,0-1.142.012A.71.71,0,0,0,1023.347,406.643Zm13.268,7.822a5.549,5.549,0,1,1,5.692-5.4A5.565,5.565,0,0,1,1036.615,414.466Z" transform="translate(-1023.341 -395.498)" fill="#23276e"/>
        <path id="Trazado_115448" data-name="Trazado 115448" d="M1023.347,406.643q-.011,2.266,0,4.533a.717.717,0,0,0,.757.77c.381.012.763-.012,1.142.014a.422.422,0,0,1,.306.208c.349.848.677,1.7,1.046,2.649-.241.228-.558.516-.861.819a.755.755,0,0,0-.013,1.217q1.544,1.557,3.1,3.1a.747.747,0,0,0,1.19,0c.312-.31.6-.641.834-.885.955.373,1.812.7,2.66,1.049a.426.426,0,0,1,.207.307c.026.38,0,.762.014,1.142a.713.713,0,0,0,.764.761q2.266.012,4.533,0a.712.712,0,0,0,.766-.759c.011-.381-.012-.763.013-1.142a.424.424,0,0,1,.205-.309c.848-.35,1.7-.678,2.657-1.051.223.237.508.557.811.86a.763.763,0,0,0,1.243,0q1.528-1.521,3.048-3.05a.768.768,0,0,0-.012-1.267c-.3-.293-.606-.571-.835-.785.372-.964.7-1.832,1.052-2.693a.4.4,0,0,1,.3-.176c.367-.022.737,0,1.1-.011a.731.731,0,0,0,.8-.806q.007-2.23,0-4.46a.724.724,0,0,0-.8-.8c-.368-.008-.738.011-1.105-.011a.4.4,0,0,1-.3-.179c-.35-.86-.678-1.729-1.052-2.7.238-.223.559-.507.862-.81a.753.753,0,0,0,0-1.215q-1.533-1.541-3.075-3.075a.761.761,0,0,0-1.242.012c-.293.295-.571.605-.791.84-.958-.37-1.826-.7-2.686-1.047a.4.4,0,0,1-.183-.293c-.022-.368,0-.737-.011-1.105a.726.726,0,0,0-.8-.8q-2.23-.008-4.459,0a.726.726,0,0,0-.805.8c-.008.368.011.738-.01,1.1a.4.4,0,0,1-.182.294c-.86.349-1.728.677-2.687,1.047-.228-.243-.514-.562-.817-.865a.742.742,0,0,0-1.188-.013q-1.572,1.556-3.129,3.126a.739.739,0,0,0,0,1.163c.309.314.64.605.888.838-.373.966-.7,1.834-1.051,2.694a.4.4,0,0,1-.3.18c-.379.022-.761,0-1.142.012A.71.71,0,0,0,1023.347,406.643Zm13.268,7.822a5.549,5.549,0,1,1,5.692-5.4A5.565,5.565,0,0,1,1036.615,414.466Z" transform="translate(-1023.341 -395.498)" fill="#fff" opacity="0.1"/>
        <g id="Grupo_108966" data-name="Grupo 108966" transform="translate(5.697 5.699)">
          <path id="Trazado_115449" data-name="Trazado 115449" d="M1034.031,413.913a7.721,7.721,0,1,0,7.721-7.721A7.721,7.721,0,0,0,1034.031,413.913Zm2.175-.146a5.549,5.549,0,1,1,5.4,5.693A5.565,5.565,0,0,1,1036.206,413.767Z" transform="translate(-1034.031 -406.192)" fill="#fff" opacity="0.5"/>
        </g>
      </g>
      <g id="Grupo_108968" data-name="Grupo 108968" transform="translate(18.503 19.566)">
        <circle id="Elipse_4767" data-name="Elipse 4767" cx="9.662" cy="9.662" r="9.662" transform="translate(4.358 18.343) rotate(-71.662)" fill="#23276e"/>
        <path id="Trazado_115450" data-name="Trazado 115450" d="M854.355,196.956,868.105,184.2a2.24,2.24,0,0,0,.118-3.165h0a2.239,2.239,0,0,0-3.165-.118l-13.75,12.759a2.239,2.239,0,0,0-.118,3.165h0A2.238,2.238,0,0,0,854.355,196.956Z" transform="translate(-850.592 -169.27)" fill="#23276e"/>
        <circle id="Elipse_4768" data-name="Elipse 4768" cx="7.454" cy="7.454" r="7.454" transform="translate(7.152 16.949) rotate(-71.705)" fill="#fff"/>
      </g>
      <path id="Trazado_115451" data-name="Trazado 115451" d="M1230.729,212.474a1.707,1.707,0,1,1,2.036,0l.561,3.135a1.079,1.079,0,0,1-1.063,1.27h-1.032a1.079,1.079,0,0,1-1.063-1.27Z" transform="translate(-1009.301 -163.29)" fill="#fff"/>
      <g id="Grupo_108969" data-name="Grupo 108969" transform="translate(61.129 63.044)">
        <path id="Trazado_115452" data-name="Trazado 115452" d="M930.569,249.974V244.1l5.414-2.936L941.4,244.1v5.872l-5.414,2.936Z" transform="translate(-930.569 -241.167)" fill="#fff"/>
      </g>
      <g id="Grupo_108970" data-name="Grupo 108970" transform="translate(97.188 5.665)">
        <path id="Trazado_115453" data-name="Trazado 115453" d="M998.226,142.316v-5.871l5.414-2.936,5.414,2.936v5.871l-5.414,2.936Z" transform="translate(-998.226 -133.508)" fill="#fff"/>
      </g>
      <g id="Grupo_108971" data-name="Grupo 108971" transform="translate(184.283 83.724)">
        <path id="Trazado_115454" data-name="Trazado 115454" d="M1161.639,288.775V282.9l5.414-2.936,5.414,2.936v5.871l-5.414,2.936Z" transform="translate(-1161.639 -279.968)" fill="#fff"/>
      </g>
      <path id="Trazado_115455" data-name="Trazado 115455" d="M1147.317,127.43h-97.563v18.025" transform="translate(-925.103 -125.005)" fill="none" stroke="#fff" stroke-linecap="round" stroke-linejoin="round" stroke-width="2" stroke-dasharray="12"/>
      <path id="Trazado_115456" data-name="Trazado 115456" d="M954.333,182.521V160.227H930.569" transform="translate(-869.44 -140.322)" fill="none" stroke="#fff" stroke-linecap="round" stroke-linejoin="round" stroke-width="2" stroke-dasharray="12"/>
      <path id="Trazado_115457" data-name="Trazado 115457" d="M1261.19,324.084V288.048h-28.382" transform="translate(-1010.594 -200.018)" fill="none" stroke="#fff" stroke-linecap="round" stroke-linejoin="round" stroke-width="2" stroke-dasharray="12"/>
      <path id="Trazado_115458" data-name="Trazado 115458" d="M1131.121,320.941V286.307l-8.284-4.989" transform="translate(-959.234 -196.875)" fill="none" stroke="#fff" stroke-linecap="round" stroke-linejoin="round" stroke-width="2" stroke-dasharray="12"/>
      <path id="Trazado_115459" data-name="Trazado 115459" d="M970.547,406.859H952.533V356.374" transform="translate(-879.698 -231.928)" fill="none" stroke="#fff" stroke-linecap="round" stroke-linejoin="round" stroke-width="2" stroke-dasharray="12"/>
      <path id="Trazado_115460" data-name="Trazado 115460" d="M860.66,244.433H819.3v-24.51" transform="translate(-817.476 -168.202)" fill="none" stroke="#fff" stroke-linecap="round" stroke-linejoin="round" stroke-width="2" stroke-dasharray="12"/>
      <path id="Trazado_115461" data-name="Trazado 115461" d="M1244.684,434.922V502.8h-47.219" transform="translate(-994.088 -268.612)" fill="none" stroke="#fff" stroke-linecap="round" stroke-linejoin="round" stroke-width="2" stroke-dasharray="12"/>
    </g>
  </g>
</svg>
