<svg xmlns="http://www.w3.org/2000/svg" width="415.288" height="306.538" viewBox="0 0 415.288 306.538">
  <g id="Group_129942" data-name="Group 129942" transform="translate(-933.926 593.187)">
    <g id="Group_129819" data-name="Group 129819" transform="translate(933.926 -298.675)">
      <ellipse id="Ellipse_4906" data-name="Ellipse 4906" cx="207.644" cy="6.013" rx="207.644" ry="6.013" fill="#d2dfee"/>
    </g>
    <g id="Group_129820" data-name="Group 129820" transform="translate(1276.124 -383.223)">
      <path id="Path_190561" data-name="Path 190561" d="M1453.748-281.218l-3.106,1.807a2.21,2.21,0,0,0-.8,3.009l.687,1.18c.807,1.39.455,2.018.205,2.242-.691.621-1.333,1.292-1.977,1.96-.188.2-.788.868-2.366-.05l-1.083-.629a2.208,2.208,0,0,0-3.009.8L1440.5-267.8a2.207,2.207,0,0,0,.8,3.009l1.071.623c1.482.861,1.444,1.3,1.257,1.93-.26.861-.536,1.725-.725,2.618-.167.793-.09,1.36-2.1,1.36h-1.235a2.207,2.207,0,0,0-2.2,2.2v3.592a2.206,2.206,0,0,0,2.2,2.2h1.235c2.013,0,1.937.568,2.1,1.36.189.893.466,1.757.725,2.616.187.629.224,1.071-1.257,1.932l-1.071.62a2.21,2.21,0,0,0-.8,3.012l1.807,3.106a2.209,2.209,0,0,0,3.009.8l1.083-.629c1.578-.918,2.178-.247,2.366-.05.644.669,1.285,1.341,1.977,1.96.25.224.6.853-.205,2.242l-.687,1.181a2.21,2.21,0,0,0,.8,3.009l3.106,1.8a2.207,2.207,0,0,0,3.01-.795l.685-1.176c.82-1.412,1.629-1.355,1.97-1.247.992.315,1.905.518,2.928.786.373.1,1.01.367,1.01,2.05v1.26a2.207,2.207,0,0,0,2.2,2.2h3.592a2.207,2.207,0,0,0,2.2-2.2v-1.26c0-1.683.637-1.954,1.01-2.05,1.023-.268,1.939-.471,2.93-.786.339-.109,1.149-.166,1.968,1.247l.685,1.176a2.207,2.207,0,0,0,3.01.795l3.106-1.8a2.209,2.209,0,0,0,.8-3.009l-.687-1.181c-.809-1.389-.457-2.018-.205-2.242.692-.619,1.333-1.291,1.977-1.96.186-.2.788-.867,2.366.05l1.083.629a2.212,2.212,0,0,0,3.012-.8l1.807-3.106a2.211,2.211,0,0,0-.8-3.012l-1.073-.62c-1.48-.862-1.442-1.3-1.255-1.932.26-.859.536-1.723.723-2.616.17-.792.092-1.36,2.107-1.36h1.234a2.206,2.206,0,0,0,2.2-2.2v-3.592a2.207,2.207,0,0,0-2.2-2.2h-1.234c-2.015,0-1.937-.568-2.107-1.36-.187-.892-.464-1.756-.723-2.618-.186-.627-.224-1.069,1.255-1.93l1.073-.623a2.208,2.208,0,0,0,.8-3.009L1492.4-270.9a2.211,2.211,0,0,0-3.012-.8l-1.083.629c-1.578.918-2.18.247-2.366.05-.644-.668-1.285-1.339-1.977-1.96-.251-.224-.6-.852.205-2.242l.687-1.18a2.209,2.209,0,0,0-.8-3.009l-3.106-1.807a2.21,2.21,0,0,0-3.01.8l-.685,1.176c-.819,1.413-1.629,1.356-1.968,1.247-.991-.315-1.907-.518-2.93-.786-.373-.1-1.01-.367-1.01-2.05v-1.26a2.206,2.206,0,0,0-2.2-2.2h-3.592a2.206,2.206,0,0,0-2.2,2.2v1.26c0,1.683-.637,1.954-1.01,2.05-1.023.268-1.937.471-2.928.786-.341.109-1.15.165-1.97-1.247l-.685-1.176a2.21,2.21,0,0,0-3.01-.8ZM1467.35-259a4.742,4.742,0,0,1,4.743,4.743,4.743,4.743,0,0,1-4.743,4.743,4.745,4.745,0,0,1-4.745-4.743A4.744,4.744,0,0,1,1467.35-259Zm-14.868,4.743a1.014,1.014,0,0,1,1.014-1.014,1.015,1.015,0,0,1,1.014,1.014,12.806,12.806,0,0,0,3.76,9.08,12.8,12.8,0,0,0,9.079,3.76,1.014,1.014,0,0,1,1.015,1.015,1.015,1.015,0,0,1-1.015,1.016,14.828,14.828,0,0,1-10.513-4.355,14.825,14.825,0,0,1-4.355-10.516Zm29.541-2.4a1.011,1.011,0,0,1-.841,1.159,1.013,1.013,0,0,1-1.157-.84,12.793,12.793,0,0,0-3.546-6.956,12.819,12.819,0,0,0-6.924-3.62,1.015,1.015,0,0,1-.83-1.17,1.014,1.014,0,0,1,1.169-.828,14.826,14.826,0,0,1,8.019,4.19,14.827,14.827,0,0,1,4.11,8.065Zm-14.673-15.223a17.617,17.617,0,0,1,17.618,17.618,17.619,17.619,0,0,1-17.618,17.62,17.62,17.62,0,0,1-17.618-17.62A17.618,17.618,0,0,1,1467.35-271.875Z" transform="translate(-1437.354 284.297)" fill="#fcc82e" fill-rule="evenodd"/>
    </g>
    <g id="Group_129821" data-name="Group 129821" transform="translate(959.334 -506.994)">
      <path id="Path_190562" data-name="Path 190562" d="M987.7-463.3l-3.1,1.807a2.209,2.209,0,0,0-.8,3.01l.687,1.18c.808,1.389.456,2.018.2,2.242-.69.621-1.33,1.292-1.974,1.96-.189.2-.788.868-2.368-.05l-1.082-.629a2.211,2.211,0,0,0-3.011.8l-1.805,3.106a2.208,2.208,0,0,0,.8,3.01l1.072.625c1.48.859,1.443,1.3,1.255,1.928-.258.863-.536,1.724-.723,2.616-.168.794-.092,1.362-2.105,1.362h-1.234a2.205,2.205,0,0,0-2.2,2.2v3.592a2.205,2.205,0,0,0,2.2,2.2h1.234c2.013,0,1.937.566,2.105,1.36.188.893.466,1.756.723,2.618.188.626.225,1.069-1.255,1.93l-1.072.623a2.207,2.207,0,0,0-.8,3.01l1.805,3.106a2.211,2.211,0,0,0,3.011.8l1.082-.629c1.58-.918,2.179-.247,2.368-.05.644.669,1.284,1.339,1.974,1.96.252.224.6.853-.2,2.242l-.687,1.18a2.209,2.209,0,0,0,.8,3.01l3.1,1.807a2.208,2.208,0,0,0,3.01-.8l.684-1.174c.821-1.413,1.629-1.356,1.971-1.247.99.314,1.9.519,2.926.786.373.1,1.012.367,1.012,2.049v1.26a2.207,2.207,0,0,0,2.2,2.2h3.593a2.206,2.206,0,0,0,2.2-2.2v-1.26c0-1.682.64-1.953,1.012-2.049,1.022-.266,1.937-.472,2.928-.786.341-.109,1.149-.166,1.969,1.247l.684,1.174a2.208,2.208,0,0,0,3.01.8l3.106-1.807a2.208,2.208,0,0,0,.8-3.01l-.685-1.18c-.809-1.389-.457-2.018-.205-2.242.691-.621,1.332-1.291,1.974-1.96.189-.2.789-.867,2.368.05l1.083.629a2.211,2.211,0,0,0,3.011-.8l1.805-3.106a2.207,2.207,0,0,0-.8-3.01l-1.073-.623c-1.479-.861-1.442-1.3-1.254-1.93.258-.862.534-1.725.722-2.618.169-.794.092-1.36,2.106-1.36h1.234a2.206,2.206,0,0,0,2.2-2.2v-3.592a2.206,2.206,0,0,0-2.2-2.2h-1.234c-2.014,0-1.937-.568-2.106-1.362-.188-.891-.464-1.752-.722-2.616-.188-.627-.225-1.069,1.254-1.928l1.073-.625a2.208,2.208,0,0,0,.8-3.01l-1.805-3.106a2.211,2.211,0,0,0-3.011-.8l-1.083.629c-1.578.918-2.179.247-2.368.05-.642-.668-1.283-1.339-1.974-1.96-.252-.224-.6-.853.205-2.242l.685-1.18a2.208,2.208,0,0,0-.8-3.01L1014.9-463.3a2.21,2.21,0,0,0-3.01.8l-.684,1.176c-.821,1.412-1.629,1.356-1.969,1.247-.992-.314-1.907-.519-2.928-.784-.373-.1-1.012-.368-1.012-2.051v-1.26a2.206,2.206,0,0,0-2.2-2.2H999.5a2.207,2.207,0,0,0-2.2,2.2v1.26c0,1.683-.639,1.953-1.012,2.051-1.022.264-1.935.47-2.926.784-.343.109-1.15.166-1.971-1.247l-.684-1.176a2.21,2.21,0,0,0-3.01-.8Zm13.6,22.219a4.742,4.742,0,0,1,4.742,4.743,4.742,4.742,0,0,1-4.742,4.743,4.744,4.744,0,0,1-4.745-4.743,4.744,4.744,0,0,1,4.745-4.743Zm-14.87,4.743a1.015,1.015,0,0,1,1.015-1.014,1.014,1.014,0,0,1,1.014,1.014,12.8,12.8,0,0,0,3.761,9.079,12.794,12.794,0,0,0,9.08,3.76,1.015,1.015,0,0,1,1.014,1.014,1.016,1.016,0,0,1-1.014,1.017,14.828,14.828,0,0,1-10.514-4.356,14.825,14.825,0,0,1-4.356-10.515Zm29.543-2.4a1.009,1.009,0,0,1-.839,1.157,1.01,1.01,0,0,1-1.158-.839,12.8,12.8,0,0,0-3.548-6.956A12.816,12.816,0,0,0,1003.5-449a1.015,1.015,0,0,1-.829-1.17,1.014,1.014,0,0,1,1.17-.828,14.822,14.822,0,0,1,8.019,4.19,14.833,14.833,0,0,1,4.11,8.065ZM1001.3-453.963a17.62,17.62,0,0,1,17.619,17.62,17.618,17.618,0,0,1-17.619,17.618,17.618,17.618,0,0,1-17.62-17.618A17.619,17.619,0,0,1,1001.3-453.963Z" transform="translate(-971.305 466.383)" fill="#fcc82e" fill-rule="evenodd"/>
    </g>
    <g id="Group_129822" data-name="Group 129822" transform="translate(1005.286 -506.994)">
      <path id="Path_190563" data-name="Path 190563" d="M1315.656-267.12l-266.813.4a9.657,9.657,0,0,1-9.669-9.639l-.267-179.955a9.653,9.653,0,0,1,9.639-9.669l266.812-.4a9.655,9.655,0,0,1,9.669,9.641l.268,179.955A9.653,9.653,0,0,1,1315.656-267.12Z" transform="translate(-1038.908 466.383)" fill="#0f2771" fill-rule="evenodd"/>
    </g>
    <g id="Group_129823" data-name="Group 129823" transform="translate(1015.174 -496.422)">
      <path id="Path_190564" data-name="Path 190564" d="M1311.273-272.682l-248.76.371a8.807,8.807,0,0,1-8.821-8.794l-.239-160.537a8.807,8.807,0,0,1,8.794-8.82l248.759-.368a8.8,8.8,0,0,1,8.819,8.792l.239,160.537A8.805,8.805,0,0,1,1311.273-272.682Z" transform="translate(-1053.454 450.83)" fill="#eff9fc" fill-rule="evenodd"/>
    </g>
    <g id="Group_129824" data-name="Group 129824" transform="translate(1014.851 -496.611)">
      <path id="Path_190565" data-name="Path 190565" d="M1319.676-441.465l0,4.554-266.694.4-.008-4.555c-.009-5.332,3.668-9.664,9.964-9.674l246.741-.365C1316.323-451.118,1319.666-447.788,1319.676-441.465Z" transform="translate(-1052.979 451.108)" fill="#bbdbfa" fill-rule="evenodd"/>
    </g>
    <g id="Group_129825" data-name="Group 129825" transform="translate(1244.755 -492.186)">
      <path id="Path_190566" data-name="Path 190566" d="M1396.581-441.885a2.683,2.683,0,0,1-2.683,2.691,2.688,2.688,0,0,1-2.693-2.685,2.687,2.687,0,0,1,2.684-2.691,2.685,2.685,0,0,1,2.692,2.685Zm19.311-.029a2.687,2.687,0,0,1-2.685,2.693,2.688,2.688,0,0,1-2.693-2.685,2.69,2.69,0,0,1,2.687-2.693,2.689,2.689,0,0,1,2.691,2.685Zm-9.654.014a2.691,2.691,0,0,1-2.687,2.694,2.687,2.687,0,0,1-2.691-2.687,2.686,2.686,0,0,1,2.683-2.691A2.691,2.691,0,0,1,1406.239-441.9Z" transform="translate(-1391.205 444.599)" fill="#fff" fill-rule="evenodd"/>
    </g>
    <g id="Group_129826" data-name="Group 129826" transform="translate(1081.436 -593.187)">
      <path id="Path_190567" data-name="Path 190567" d="M1151.667-593.187l14.522,25.136.053.2v61.233h-.784v-61.133l-13.739-23.778v84.911h-.784v-86.37Z" transform="translate(-1150.936 593.187)" fill="#1e77d1" fill-rule="evenodd"/>
    </g>
    <g id="Group_129827" data-name="Group 129827" transform="translate(1039.649 -552.047)">
      <rect id="Rectangle_41199" data-name="Rectangle 41199" width="147.073" height="0.784" transform="translate(0 0)" fill="#1e77d1"/>
    </g>
    <g id="Group_129828" data-name="Group 129828" transform="translate(1039.658 -562.166)">
      <path id="Path_190568" data-name="Path 190568" d="M1089.821-547.55h40.089v10.857h-40.436V-547.55Zm39.4.691h-39.051v9.473h39.051Z" transform="translate(-1089.474 547.55)" fill="#1e77d1" fill-rule="evenodd"/>
    </g>
    <g id="Group_129829" data-name="Group 129829" transform="translate(1079.402 -552.001)">
      <path id="Path_190569" data-name="Path 190569" d="M1148.29-532.6H1173.8v37.12h-25.857V-532.6Zm24.819.692h-24.473v35.737h24.473Z" transform="translate(-1147.944 532.596)" fill="#1e77d1" fill-rule="evenodd"/>
    </g>
    <g id="Group_129830" data-name="Group 129830" transform="translate(1086.927 -546.495)">
      <path id="Path_190570" data-name="Path 190570" d="M1176.655-523.8h-16.949v22.449h16.949V-523.8Zm-17.3-.692h17.987v23.832h-18.332V-524.5Z" transform="translate(-1159.015 524.496)" fill="#1e77d1" fill-rule="evenodd"/>
    </g>
    <g id="Group_129831" data-name="Group 129831" transform="translate(1103.841 -563.409)">
      <path id="Path_190571" data-name="Path 190571" d="M1184.243-549.379h67.865l.214.073,14.671,11.408-.214.619H1183.9v-12.1Zm67.747.692h-67.4v10.716h81.184Z" transform="translate(-1183.898 549.379)" fill="#1e77d1" fill-rule="evenodd"/>
    </g>
    <g id="Group_129832" data-name="Group 129832" transform="translate(1039.749 -562.076)">
      <path id="Path_190572" data-name="Path 190572" d="M1129.461-546.6l-10.506,9.853-.247.233-.236-.243-9.372-9.681-9.829,9.687-.256.251-.242-.266-9.166-10.06.51-.465,8.925,9.8,9.819-9.679.248-.245.241.251,9.378,9.685,10.258-9.62Z" transform="translate(-1089.608 547.417)" fill="#1e77d1" fill-rule="evenodd"/>
    </g>
    <g id="Group_129833" data-name="Group 129833" transform="translate(1104.117 -563.415)">
      <path id="Path_190573" data-name="Path 190573" d="M1184.815-549.279l10.128,11.117,11.143-10.982.248-.243.241.247,10.642,10.993,11.639-10.913.24-.226.237.23,11.277,10.947L1252-549.283l.484.493-11.628,11.41-.239.235-.243-.235-11.282-10.953-11.646,10.922-.248.233-.235-.245-10.635-10.985-11.153,10.991-.255.251-.242-.266-10.37-11.381Z" transform="translate(-1184.303 549.388)" fill="#1e77d1" fill-rule="evenodd"/>
    </g>
    <g id="Group_129834" data-name="Group 129834" transform="translate(1081.688 -515.491)">
      <path id="Path_190574" data-name="Path 190574" d="M1159.539-470.013l-8.231-8.386.493-.484,8.7,8.87Z" transform="translate(-1151.308 478.883)" fill="#1e77d1" fill-rule="evenodd"/>
    </g>
    <g id="Group_129835" data-name="Group 129835" transform="translate(1081.481 -567.987)">
      <path id="Path_190575" data-name="Path 190575" d="M1151.35-556.113h14.869v16.677H1151v-16.677Zm14.177.692H1151.7v15.293h13.831Z" transform="translate(-1151.003 556.113)" fill="#1e77d1" fill-rule="evenodd"/>
    </g>
    <g id="Group_129836" data-name="Group 129836" transform="translate(1079.748 -551.655)">
      <rect id="Rectangle_41200" data-name="Rectangle 41200" width="25.165" height="36.429" transform="translate(0 0)" fill="#61a0e0"/>
    </g>
    <g id="Group_129837" data-name="Group 129837" transform="translate(1136.607 -551.439)">
      <rect id="Rectangle_41201" data-name="Rectangle 41201" width="2.119" height="102.072" fill="#1e77d1"/>
    </g>
    <g id="Group_129838" data-name="Group 129838" transform="translate(1150.016 -551.439)">
      <rect id="Rectangle_41202" data-name="Rectangle 41202" width="2.119" height="102.072" transform="translate(0)" fill="#1e77d1"/>
    </g>
    <g id="Group_129839" data-name="Group 129839" transform="translate(1081.451 -580.652)">
      <path id="Path_190576" data-name="Path 190576" d="M1158.854-574.287l-6.74,7.531,11.094-.122.131.664-11.875,4.8-.256-.639,10.179-4.116-10.048.111-.353,0-.027-.444.121-.134,7.261-8.113Z" transform="translate(-1150.958 574.745)" fill="#1e77d1" fill-rule="evenodd"/>
    </g>
    <g id="Group_129840" data-name="Group 129840" transform="translate(1022.305 -564.977)">
      <path id="Path_190577" data-name="Path 190577" d="M1064.291-551.685h17.779v15.843h-4.359v5.965H1068.3v-5.965h-4.359v-15.843Zm17.086.692h-16.74v14.459h4.357v5.967h8.025v-5.967h4.358Z" transform="translate(-1063.945 551.685)" fill="#1e77d1" fill-rule="evenodd"/>
    </g>
    <g id="Group_129841" data-name="Group 129841" transform="translate(1132.956 -554.459)">
      <path id="Path_190578" data-name="Path 190578" d="M1226.731-435.26h22.829v6.434h-3.112l-8.3,3.735-6.952-3.735h-4.463v-6.434Zm.1-100.952h22.726v5.084h-22.726Z" transform="translate(-1226.731 536.212)" fill="#61a0e0" fill-rule="evenodd"/>
    </g>
    <g id="Group_129842" data-name="Group 129842" transform="translate(1087.618 -545.803)">
      <path id="Path_190579" data-name="Path 190579" d="M1169.155-501.029h7.825v-22.449h-16.949v22.449h9.124Z" transform="translate(-1160.031 523.478)" fill="#dfedfa" fill-rule="evenodd"/>
    </g>
    <g id="Group_129850" data-name="Group 129850" transform="translate(1015.771 -440.734)">
      <g id="Group_129843" data-name="Group 129843" transform="translate(0.19 0.191)">
        <path id="Path_190580" data-name="Path 190580" d="M1060.324-368.624h67.632c1.985,0,1.239,6.2,1.516,8.168L1145.9-243.917c.476,3.373-3.036,6.759-6.776,6.759h-67.631a4.132,4.132,0,0,1-4-3.611L1054.62-360.456C1054.407-362.441,1058.339-368.624,1060.324-368.624Z" transform="translate(-1054.612 368.624)" fill="#0f2771" fill-rule="evenodd"/>
      </g>
      <g id="Group_129844" data-name="Group 129844">
        <path id="Path_190581" data-name="Path 190581" d="M1060.251-368.9h67.631c1.619,0,1.617,3.376,1.615,6a19.947,19.947,0,0,0,.073,2.318l16.423,116.537a1.458,1.458,0,0,1,.007.327c-.09,1.046-.05,2.928-1.407,4.259s-4.1,2.119-5.177,2.358a1.943,1.943,0,0,1-.4.05h-67.631a4.176,4.176,0,0,1-2.781-1.107,4.228,4.228,0,0,1-1.391-2.658l-12.869-119.69a2.113,2.113,0,0,1,0-.383,12.2,12.2,0,0,1,2.132-4.68h0c1.138-1.671,2.515-3.113,3.536-3.306a1.216,1.216,0,0,1,.242-.025Zm67.6.381h-67.632a.763.763,0,0,0-.169.017c-.905.172-2.183,1.536-3.266,3.125h0a11.786,11.786,0,0,0-2.064,4.488,1.638,1.638,0,0,0,0,.312l12.869,119.69a3.89,3.89,0,0,0,1.281,2.44,3.828,3.828,0,0,0,2.546,1.015h67.631a1.5,1.5,0,0,0,.319-.038c1-.222,3.674-.97,4.974-2.247s1.2-3.056,1.281-4a1.063,1.063,0,0,0,0-.243L1129.193-360.5a20.04,20.04,0,0,1-.078-2.37C1129.118-365.344,1129.119-368.524,1127.85-368.524Z" transform="translate(-1054.332 368.905)" fill="#1e77d1" fill-rule="evenodd"/>
      </g>
      <g id="Group_129845" data-name="Group 129845" transform="translate(3.867 0.191)">
        <path id="Path_190582" data-name="Path 190582" d="M1063.265-368.624H1130.9a4.133,4.133,0,0,1,4,3.609l13.138,122.125a3.189,3.189,0,0,1-3.221,3.609h-67.632a4.134,4.134,0,0,1-4-3.609l-13.14-122.125A3.189,3.189,0,0,1,1063.265-368.624Z" transform="translate(-1060.021 368.624)" fill="#a4d0fc" fill-rule="evenodd"/>
      </g>
      <g id="Group_129846" data-name="Group 129846" transform="translate(3.677)">
        <path id="Path_190583" data-name="Path 190583" d="M1063.192-368.9h67.632a4.179,4.179,0,0,1,2.781,1.107,4.219,4.219,0,0,1,1.39,2.658l13.134,122.089a3.809,3.809,0,0,1,.01.719,3.414,3.414,0,0,1-.855,2,3.375,3.375,0,0,1-1.893,1.056,3.686,3.686,0,0,1-.689.065H1077.07a4.182,4.182,0,0,1-2.781-1.1,4.224,4.224,0,0,1-1.39-2.66l-13.136-122.089a3.807,3.807,0,0,1-.008-.719,3.4,3.4,0,0,1,.855-1.993,3.382,3.382,0,0,1,1.892-1.058,3.694,3.694,0,0,1,.689-.065Zm67.6.381h-67.632a3.488,3.488,0,0,0-.617.054,2.977,2.977,0,0,0-1.658.926,3,3,0,0,0-.748,1.754,3.32,3.32,0,0,0,.008.648l13.135,122.089a3.871,3.871,0,0,0,1.279,2.44,3.829,3.829,0,0,0,2.546,1.015h67.631a3.423,3.423,0,0,0,.617-.055,2.96,2.96,0,0,0,1.658-.926,2.986,2.986,0,0,0,.749-1.754,3.409,3.409,0,0,0-.008-.648l-13.135-122.089a3.88,3.88,0,0,0-1.28-2.44A3.827,3.827,0,0,0,1130.791-368.524Z" transform="translate(-1059.742 368.905)" fill="#1e77d1" fill-rule="evenodd"/>
      </g>
      <g id="Group_129847" data-name="Group 129847" transform="translate(9.474 7.797)">
        <path id="Path_190584" data-name="Path 190584" d="M1070.886-357.435h58.6a3.357,3.357,0,0,1,3.244,2.922l11.99,108.536a2.57,2.57,0,0,1-2.6,2.919h-58.6a3.354,3.354,0,0,1-3.243-2.919l-11.99-108.536A2.571,2.571,0,0,1,1070.886-357.435Z" transform="translate(-1068.271 357.435)" fill="#eff9fc" fill-rule="evenodd"/>
      </g>
      <g id="Group_129848" data-name="Group 129848" transform="translate(10.053 7.797)">
        <path id="Path_190585" data-name="Path 190585" d="M1127.634-356.5a3.356,3.356,0,0,1,3.244,2.919l11.99,108.535a2.646,2.646,0,0,1-.563,1.983h.089a2.57,2.57,0,0,0,2.6-2.919L1133-354.513a3.357,3.357,0,0,0-3.244-2.922h-58.6a2.6,2.6,0,0,0-2.037.939Z" transform="translate(-1069.122 357.435)" fill="#e1f4fa" fill-rule="evenodd"/>
      </g>
      <g id="Group_129849" data-name="Group 129849" transform="translate(38.94 2.188)">
        <path id="Path_190586" data-name="Path 190586" d="M1113.639-365.686a2.586,2.586,0,0,1,2.505,2.257,1.982,1.982,0,0,1-2.007,2.257,2.585,2.585,0,0,1-2.505-2.257A1.983,1.983,0,0,1,1113.639-365.686Z" transform="translate(-1111.619 365.686)" fill="#d2e5f7" fill-rule="evenodd"/>
      </g>
    </g>
    <g id="Group_129851" data-name="Group 129851" transform="translate(987.495 -311.573)">
      <path id="Path_190587" data-name="Path 190587" d="M1012.735-178.888h132.979a2.113,2.113,0,0,0,2.147,2.014h51.718a2.114,2.114,0,0,0,2.147-2.014H1334.7v8.509a8.694,8.694,0,0,1-8.822,8.51h-307.2a5.862,5.862,0,0,1-5.953-5.743Z" transform="translate(-1012.735 178.888)" fill="#0f2771" fill-rule="evenodd"/>
    </g>
    <g id="Group_129852" data-name="Group 129852" transform="translate(1034.046 -389.805)">
      <path id="Path_190588" data-name="Path 190588" d="M1101.541-267.418l-.588-3.708-15.291-6.562-.011-.069,13.2-6.6-.593-3.741-17.042,8.979.437,2.754,19.886,8.945Zm10.579-26.561h-3.4l-4.486,28.091h3.4l4.485-28.091Zm3.076,5.884.584,3.674,15.846,6.632.01.067-13.74,6.634.582,3.672,17.114-8.74-.507-3.2Z" transform="translate(-1081.218 293.979)" fill="#61a0e0" fill-rule="evenodd"/>
    </g>
    <g id="Group_129853" data-name="Group 129853" transform="translate(1115.103 -444.759)">
      <path id="Path_190589" data-name="Path 190589" d="M1230.329-323.019v-6.789L1205.81-342.32v-.126l24.457-12.447v-6.665l-29.8,16.157v6.162l29.864,16.22Zm31.812-45.9c.88-2.01,1.7-3.456,1.7-4.21,0-1.323-1.635-1.7-2.578-1.7-4.15,0-4.9.377-7.734,7.8L1238.5-327.861c-.5,1.258-2.011,5.031-2.011,6.225,0,.692.692,1.006,1.319,1.006,3.333,0,4.4-3.144,5.093-4.653l19.238-43.632Zm7.922,7.357v6.665l24.518,12.447v.189l-24.455,12.449v6.789l29.8-16.22V-345.4Z" transform="translate(-1200.466 374.825)" fill="#fcc82e" fill-rule="evenodd"/>
    </g>
    <g id="Group_129854" data-name="Group 129854" transform="translate(1138.358 -444.314)">
      <path id="Path_190590" data-name="Path 190590" d="M1245.469-358.3a.98.98,0,0,1,.98-.981.98.98,0,0,1,.981.981,6.358,6.358,0,0,1-1.867,4.508,6.363,6.363,0,0,1-4.509,1.868,6.358,6.358,0,0,1-4.507-1.87l0,0a6.358,6.358,0,0,1-1.867-4.508,6.389,6.389,0,0,1,4.94-6.214l.1-8.541a1.054,1.054,0,0,1,.988-1.113,1.064,1.064,0,0,1,.965,1.14l-.1,8.5c0,.784.155,1.993-.518,1.813a4.4,4.4,0,0,0-3.123,1.289l0,0a4.4,4.4,0,0,0-1.29,3.123,4.4,4.4,0,0,0,1.293,3.121l0,0,0,0a4.4,4.4,0,0,0,3.123,1.289,4.4,4.4,0,0,0,3.121-1.294A4.4,4.4,0,0,0,1245.469-358.3Z" transform="translate(-1234.678 374.171)" fill="#1e77d1" fill-rule="evenodd"/>
    </g>
    <g id="Group_129871" data-name="Group 129871" transform="translate(1193.969 -494.775)">
      <g id="Group_129855" data-name="Group 129855" transform="translate(0.172 0.185)">
        <path id="Path_190591" data-name="Path 190591" d="M1455.18-399.926v-45.523a2.7,2.7,0,0,0-2.685-2.686H1320.512c-1.476,0-3.768,1.211-3.768,2.686v47.958a2.7,2.7,0,0,0,2.687,2.687h129.557C1453.9-394.8,1455.18-398.446,1455.18-399.926Z" transform="translate(-1316.744 448.135)" fill="#61a0e0" fill-rule="evenodd"/>
      </g>
      <g id="Group_129856" data-name="Group 129856" transform="translate(2.285 0.172)">
        <path id="Rectangle_41203" data-name="Rectangle 41203" d="M3.95,0H132.37a3.953,3.953,0,0,1,3.953,3.953v43a3.953,3.953,0,0,1-3.953,3.953H3.953A3.953,3.953,0,0,1,0,46.956V3.95A3.95,3.95,0,0,1,3.95,0Z" fill="#0f2771"/>
      </g>
      <g id="Group_129857" data-name="Group 129857" transform="translate(4.263 2.151)">
        <path id="Path_190592" data-name="Path 190592" d="M1455.131-399v-45.535a.713.713,0,0,0-.708-.708H1323.471a.711.711,0,0,0-.708.708V-399a.709.709,0,0,0,.708.709h130.951a.711.711,0,0,0,.708-.709Zm-1.981-1.268H1324.74v-43h128.41Z" transform="translate(-1322.763 445.243)" fill="#a4d0fc" fill-rule="evenodd"/>
      </g>
      <g id="Group_129858" data-name="Group 129858" transform="translate(0)">
        <path id="Path_190593" data-name="Path 190593" d="M1455.271-400.013v-45.535a2.84,2.84,0,0,0-.841-2.018v0a2.848,2.848,0,0,0-2.016-.838H1321.463c-.093,0-.18,0-.273.013h-.759a5.073,5.073,0,0,0-2.72.945,2.5,2.5,0,0,0-1.22,1.913v47.958a2.859,2.859,0,0,0,.838,2.019,2.857,2.857,0,0,0,2.021.838h129.557a6.667,6.667,0,0,0,4.393-1.4,5.484,5.484,0,0,0,1.96-3.668.775.775,0,0,0,.009-.122v-.018l0-.08Zm-135.233-48.01a3.018,3.018,0,0,0-.595.455v0a2.838,2.838,0,0,0-.839,2.018v45.535a2.84,2.84,0,0,0,.839,2.019h0a2.849,2.849,0,0,0,2.02.842h130.951a2.835,2.835,0,0,0,1.9-.735,5.116,5.116,0,0,1-1.234,1.5,6.345,6.345,0,0,1-4.176,1.326H1319.35a2.493,2.493,0,0,1-1.776-.742,2.487,2.487,0,0,1-.74-1.773v-47.958a2.18,2.18,0,0,1,1.075-1.633,4.994,4.994,0,0,1,2.128-.855Zm1.17-.029h131.207a2.5,2.5,0,0,1,1.773.742,2.5,2.5,0,0,1,.742,1.775v45.523l0,.08v.052a2.518,2.518,0,0,1-.738,1.645,2.512,2.512,0,0,1-1.773.738H1321.463a2.512,2.512,0,0,1-1.778-.738,2.512,2.512,0,0,1-.738-1.778v-45.535a2.512,2.512,0,0,1,.738-1.778A2.509,2.509,0,0,1,1321.207-448.053Z" transform="translate(-1316.491 448.407)" fill="#1e77d1" fill-rule="evenodd"/>
      </g>
      <g id="Group_129859" data-name="Group 129859" transform="translate(2.285 0.172)" opacity="0.25">
        <path id="Path_190594" data-name="Path 190594" d="M1456.175-411.633c-17.734,6.47-38.556,7.26-51.691-1.689-25.941-17.674-17.832-.812-55.683-7.7-17.9-3.259-21.133-15.715-25.572-27.129h-.689a2.7,2.7,0,0,0-2.687,2.687v45.535a2.7,2.7,0,0,0,2.687,2.687H1453.49a2.693,2.693,0,0,0,2.685-2.687Z" transform="translate(-1319.852 448.154)" fill="#8bbae9" fill-rule="evenodd"/>
      </g>
      <g id="Group_129870" data-name="Group 129870" transform="translate(16.365 8.991)">
        <g id="Group_129860" data-name="Group 129860" transform="translate(0 11.921)">
          <rect id="Rectangle_41204" data-name="Rectangle 41204" width="7.726" height="21.931" fill="#a4d0fc"/>
        </g>
        <g id="Group_129861" data-name="Group 129861" transform="translate(11.159 15.667)">
          <rect id="Rectangle_41205" data-name="Rectangle 41205" width="7.725" height="18.186" fill="#a4d0fc"/>
        </g>
        <g id="Group_129862" data-name="Group 129862" transform="translate(22.319 4.686)">
          <rect id="Rectangle_41206" data-name="Rectangle 41206" width="7.727" height="29.166" fill="#a4d0fc"/>
        </g>
        <g id="Group_129863" data-name="Group 129863" transform="translate(33.48 11.819)">
          <rect id="Rectangle_41207" data-name="Rectangle 41207" width="7.725" height="22.034" fill="#a4d0fc"/>
        </g>
        <g id="Group_129864" data-name="Group 129864" transform="translate(44.638 22.822)">
          <rect id="Rectangle_41208" data-name="Rectangle 41208" width="7.725" height="11.031" fill="#a4d0fc"/>
        </g>
        <g id="Group_129865" data-name="Group 129865" transform="translate(55.797 18.442)">
          <rect id="Rectangle_41209" data-name="Rectangle 41209" width="7.728" height="15.411" fill="#a4d0fc"/>
        </g>
        <g id="Group_129866" data-name="Group 129866" transform="translate(66.957 12.94)">
          <rect id="Rectangle_41210" data-name="Rectangle 41210" width="7.728" height="20.913" fill="#a4d0fc"/>
        </g>
        <g id="Group_129867" data-name="Group 129867" transform="translate(78.118 2.549)">
          <rect id="Rectangle_41211" data-name="Rectangle 41211" width="7.726" height="31.304" fill="#a4d0fc"/>
        </g>
        <g id="Group_129868" data-name="Group 129868" transform="translate(89.277 5.198)">
          <rect id="Rectangle_41212" data-name="Rectangle 41212" width="7.726" height="28.655" fill="#a4d0fc"/>
        </g>
        <g id="Group_129869" data-name="Group 129869" transform="translate(100.435)">
          <rect id="Rectangle_41213" data-name="Rectangle 41213" width="7.726" height="33.853" fill="#a4d0fc"/>
        </g>
      </g>
    </g>
    <g id="Group_129872" data-name="Group 129872" transform="translate(1252.347 -440.655)">
      <path id="Path_190595" data-name="Path 190595" d="M1427.849-332.267c-.209.279.549.874.226.981-.088,2.3-5.6,5.33-6.6,4.312-1.389-1.419.432-9.042-2.175-9.86-5.292-1.655-9.128,6.827-11.418,5.88-4.662-1.918-8.728-11.9-1.795-17.369,3.377-4.138.017-17.6,7.541-20.09C1423.7-372.772,1432.124-337.87,1427.849-332.267Z" transform="translate(-1402.374 368.789)" fill="#12263f" fill-rule="evenodd"/>
    </g>
    <g id="Group_129873" data-name="Group 129873" transform="translate(1256.05 -381.999)">
      <path id="Path_190596" data-name="Path 190596" d="M1410.388-282.5a2.826,2.826,0,0,1-2.567.735A1.735,1.735,0,0,0,1410.388-282.5Z" transform="translate(-1407.821 282.496)" fill="#f58b67" fill-rule="evenodd"/>
    </g>
    <g id="Group_129874" data-name="Group 129874" transform="translate(1248.615 -322.146)">
      <path id="Path_190597" data-name="Path 190597" d="M1403.45-188.191c.145-1.031-.18-2.8-.985-5.573,1.6,0,2.941-.7,4.571-.677.447,2.607,1.139,6.885,1.139,6.885l.073,3.383-11.365.086a26.908,26.908,0,0,0,3.448-2.068C1400.577-186.314,1403.312-187.2,1403.45-188.191Z" transform="translate(-1396.884 194.442)" fill="#ffb27d" fill-rule="evenodd"/>
    </g>
    <g id="Group_129875" data-name="Group 129875" transform="translate(1247.849 -315.312)">
      <path id="Path_190598" data-name="Path 190598" d="M1407.939-180.086h-11.728c-.432-.037-.541-.392-.39-.61.313-.451,2.6-1.526,4.138-2.242,2.7.283,7.44-.828,7.866-1.451C1408.562-182.321,1408.182-180.139,1407.939-180.086Z" transform="translate(-1395.757 184.389)" fill="#284191" fill-rule="evenodd"/>
    </g>
    <g id="Group_129876" data-name="Group 129876" transform="translate(1262.769 -321.922)">
      <path id="Path_190599" data-name="Path 190599" d="M1424.273-188.086a19.356,19.356,0,0,0,.031-5.753c1.6,0,3.115-.3,4.747-.273,0,2.681-.054,6.661-.054,6.661l.071,3.383-11.362.086a26.9,26.9,0,0,0,3.446-2.068C1421.4-186.208,1424.136-187.092,1424.273-188.086Z" transform="translate(-1417.706 194.113)" fill="#ffb27d" fill-rule="evenodd"/>
    </g>
    <g id="Group_129877" data-name="Group 129877" transform="translate(1262.004 -315.312)">
      <path id="Path_190600" data-name="Path 190600" d="M1428.762-180.086h-11.728c-.434-.037-.539-.392-.387-.61.308-.451,2.6-1.526,4.137-2.242,2.7.283,7.436-.828,7.86-1.451C1429.384-182.321,1429.005-180.139,1428.762-180.086Z" transform="translate(-1416.581 184.389)" fill="#284191" fill-rule="evenodd"/>
    </g>
    <g id="Group_129878" data-name="Group 129878" transform="translate(1235.18 -434.587)">
      <path id="Path_190601" data-name="Path 190601" d="M1403.018-339.284l-4.276-4.506s-4.573,2.515-9.905,4.919c-1.467-2.551-3.858-10.947-3.987-11.345s2.8-5.443,2.146-5.568-1.509,2.691-2.2,2.4-2.475-6.825-2.892-6.466c-.782.667.939,4.066.526,4.314s-1.457-3.766-2.249-3.6,1.339,3.655,1.107,3.988-2.469-2.932-2.93-2.173c-.251.409,2.058,2.844,1.584,3.119s-2.557-1.262-2.8-.765,1.943,1.014,2.553,2.274,1.712,1.746,2.081,4.125,1.368,15.084,3.959,16.105C1388-331.566,1403.018-339.284,1403.018-339.284Z" transform="translate(-1377.118 359.861)" fill="#ffb27d" fill-rule="evenodd"/>
    </g>
    <g id="Group_129879" data-name="Group 129879" transform="translate(1248.321 -389.689)">
      <path id="Path_190602" data-name="Path 190602" d="M1406.447-293.809l3.467,1.935,7.044,10.768-12.6,29.655s1.421,4.46,1.882,6.688c.482,2.331,1.67,22.338,1.67,22.338l-5.375.09s-5.105-21.3-5.969-28.213c-1.047-8.4,5.345-28.386,5.345-28.386,1.19-4.079,3.76-12.47,3.76-12.47S1406.3-293.453,1406.447-293.809Z" transform="translate(-1396.451 293.809)" fill="#3b5bb3" fill-rule="evenodd"/>
    </g>
    <g id="Group_129880" data-name="Group 129880" transform="translate(1258.317 -393.734)">
      <path id="Path_190603" data-name="Path 190603" d="M1423.221-299.76a10.125,10.125,0,0,0,1.075,5.424c.874,1.76,2.383,3.144,3.464,5.3,2.045,4.087,3.156,9.886,2.389,13.614,0,0-4.23,16.149-4.062,22.049a76.283,76.283,0,0,0,1.285,8.751c.423,2.343.566,20.02.566,20.02l-6-.18-4.594-28.515-1.943-25.345-4.242-17.073Z" transform="translate(-1411.157 299.76)" fill="#4567c6" fill-rule="evenodd"/>
    </g>
    <g id="Group_129881" data-name="Group 129881" transform="translate(1249.062 -420.52)">
      <path id="Path_190604" data-name="Path 190604" d="M1404.89-329.82c-1.912.882-5.379,2.209-5.379,2.209l-1.97-6.231c11.14-6.338,10.263-5.313,18.624-5.189,6.678.094,9.48-1.182,15.229,14.346,0,0-4.376,1.966-5.944,2.6-.676-1.92-1.892-5.747-2.6-3.565a63.371,63.371,0,0,0-2.389,10.052c-.333,2.029-1.061,4.63-.679,6.7a62.03,62.03,0,0,1-8.024,1.09h-.029a27.328,27.328,0,0,1-4.93-.522s-.681-14.4-1.043-15a5.782,5.782,0,0,1-.658-6.032C1405.353-329.937,1405.283-330,1404.89-329.82Z" transform="translate(-1397.541 339.166)" fill="#61a0e0" fill-rule="evenodd"/>
    </g>
    <g id="Group_129882" data-name="Group 129882" transform="translate(1262.241 -427.482)">
      <path id="Path_190605" data-name="Path 190605" d="M1421.552-348.459s.512,4.114.809,5.539c.315,1.495.786,6.2-2.311,6.965s-2.14-5.118-2.191-6.638-.931-6.816-.931-6.816Z" transform="translate(-1416.929 349.409)" fill="#ffb27d" fill-rule="evenodd"/>
    </g>
    <g id="Group_129883" data-name="Group 129883" transform="translate(1262.509 -425.612)">
      <path id="Path_190606" data-name="Path 190606" d="M1422.115-344.394l-.094.056a3.874,3.874,0,0,1-4.32.063c-.2-1.315-.377-2.383-.377-2.383l4.624.95S1422.015-345.16,1422.115-344.394Z" transform="translate(-1417.324 346.658)" fill="#f37960" fill-rule="evenodd"/>
    </g>
    <g id="Group_129884" data-name="Group 129884" transform="translate(1260.269 -435.304)">
      <path id="Path_190607" data-name="Path 190607" d="M1419.178-360.9a5.291,5.291,0,0,1,3.1,1.981c1.241,1.674,2.335,6.761-1.249,9.387s-6.695-.591-6.946-3.892S1414.26-361.189,1419.178-360.9Z" transform="translate(-1414.028 360.916)" fill="#ffb27d" fill-rule="evenodd"/>
    </g>
    <g id="Group_129885" data-name="Group 129885" transform="translate(1261.225 -440.396)">
      <path id="Path_190608" data-name="Path 190608" d="M1424.444-355.134c2.211-2.6,2.323-1.241,2.662-4.911.079-10.11-11.8-10.2-11.219-4.785-.991,1.163-.166,1.716.7,2.459C1423.757-356.187,1423.9-363.636,1424.444-355.134Z" transform="translate(-1415.435 368.407)" fill="#12263f" fill-rule="evenodd"/>
    </g>
    <g id="Group_129886" data-name="Group 129886" transform="translate(1260.805 -440.098)">
      <path id="Path_190609" data-name="Path 190609" d="M1415.771-365.61q1.1.1,1.241-.656a3.227,3.227,0,0,0-2.194-1.7A4.138,4.138,0,0,1,1415.771-365.61Z" transform="translate(-1414.817 367.968)" fill="#12263f" fill-rule="evenodd"/>
    </g>
    <g id="Group_129887" data-name="Group 129887" transform="translate(1260.931 -440.269)">
      <path id="Path_190610" data-name="Path 190610" d="M1415.6-365.942q-.7.211-.578-.476a4.527,4.527,0,0,1,1.823-1.8A8.027,8.027,0,0,0,1415.6-365.942Z" transform="translate(-1415.002 368.22)" fill="#12263f" fill-rule="evenodd"/>
    </g>
    <g id="Group_129888" data-name="Group 129888" transform="translate(1259.886 -435.402)">
      <path id="Path_190611" data-name="Path 190611" d="M1413.615-354.052a13.639,13.639,0,0,1,.364-5.4c.539-2.674,2.44-1.49,1.584-.18C1413.887-357.076,1414.347-357.917,1413.615-354.052Z" transform="translate(-1413.465 361.06)" fill="#12263f" fill-rule="evenodd"/>
    </g>
    <g id="Group_129889" data-name="Group 129889" transform="translate(1259.845 -435.738)">
      <path id="Path_190612" data-name="Path 190612" d="M1414.922-361.492q-1.254-.264-1.517.589a3.742,3.742,0,0,0,2.295,2.255A4.8,4.8,0,0,1,1414.922-361.492Z" transform="translate(-1413.405 361.554)" fill="#12263f" fill-rule="evenodd"/>
    </g>
    <g id="Group_129890" data-name="Group 129890" transform="translate(1261.359 -434.973)">
      <path id="Path_190613" data-name="Path 190613" d="M1416.721-360.429c-.757.082-1.117.419-1.088,1.015a3.411,3.411,0,0,0,2.62,1.461A5.168,5.168,0,0,1,1416.721-360.429Z" transform="translate(-1415.632 360.429)" fill="#12263f" fill-rule="evenodd"/>
    </g>
    <g id="Group_129891" data-name="Group 129891" transform="translate(1259.818 -432.643)">
      <path id="Path_190614" data-name="Path 190614" d="M1413.367-355.745c-.035.712.271,1.312.685,1.331s.776-.538.811-1.255-.27-1.312-.681-1.331S1413.4-356.459,1413.367-355.745Z" transform="translate(-1413.364 357.001)" fill="#ffb27d" fill-rule="evenodd"/>
    </g>
    <g id="Group_129892" data-name="Group 129892" transform="translate(1269.187 -431.447)">
      <path id="Path_190615" data-name="Path 190615" d="M1427.152-353.976c-.046.731.315,1.35.8,1.383s.924-.532.968-1.264-.314-1.35-.8-1.383S1427.2-354.707,1427.152-353.976Z" transform="translate(-1427.148 355.241)" fill="#ffb27d" fill-rule="evenodd"/>
    </g>
    <g id="Group_129893" data-name="Group 129893" transform="translate(1262.733 -420.52)">
      <path id="Path_190616" data-name="Path 190616" d="M1417.654-339.166c-.006,3.557.224,5.213.985,6.152a2.053,2.053,0,0,0,.53.47.676.676,0,0,0-.025.182.747.747,0,0,0,.268.568.481.481,0,0,0-.075.26.526.526,0,0,0,.314.468.262.262,0,0,0-.052.157.314.314,0,0,0,.329.295.315.315,0,0,0,.332-.295.283.283,0,0,0-.053-.16.523.523,0,0,0,.313-.465.454.454,0,0,0-.029-.159.774.774,0,0,0,.411-.669.734.734,0,0,0-.042-.245,2.778,2.778,0,0,0,.515-.411,8.039,8.039,0,0,0,1.817-6.009l-.492,0a7.335,7.335,0,0,1-1.618,5.717,2.288,2.288,0,0,1-.465.367.938.938,0,0,0-.591-.205.925.925,0,0,0-.641.249,1.585,1.585,0,0,1-.424-.373c-.7-.864-.868-2.693-.868-5.885Z" transform="translate(-1417.654 339.166)" fill="#4f8ecc" fill-rule="evenodd"/>
    </g>
    <g id="Group_129894" data-name="Group 129894" transform="translate(1249.623 -415.678)">
      <path id="Path_190617" data-name="Path 190617" d="M1398.367-331.88c.549,1.748.986,3.119,1.325,4.178s.572,1.778.7,2.136l.3-.116c-.126-.356-.357-1.058-.7-2.117s-.784-2.492-1.335-4.244Z" transform="translate(-1398.367 332.043)" fill="#4f8ecc" fill-rule="evenodd"/>
    </g>
    <g id="Group_129895" data-name="Group 129895" transform="translate(1276.62 -406.79)">
      <path id="Path_190618" data-name="Path 190618" d="M1444.1-318.967q-2.318.83-3.844,1.425c-1.006.392-1.718.694-2.174.92l.105.3c.442-.222,1.184-.538,2.181-.928s2.268-.859,3.838-1.419Z" transform="translate(-1438.084 318.967)" fill="#4f8ecc" fill-rule="evenodd"/>
    </g>
    <g id="Group_129896" data-name="Group 129896" transform="translate(1276.438 -407.29)">
      <path id="Path_190619" data-name="Path 190619" d="M1443.823-319.7q-2.319.827-3.846,1.423c-1.008.392-1.708.687-2.161.916l.109.3c.442-.222,1.165-.535,2.165-.924s2.276-.857,3.846-1.419Z" transform="translate(-1437.816 319.703)" fill="#4f8ecc" fill-rule="evenodd"/>
    </g>
    <g id="Group_129897" data-name="Group 129897" transform="translate(1250.139 -415.965)">
      <path id="Path_190620" data-name="Path 190620" d="M1399.126-332.306c.549,1.748.977,3.1,1.316,4.156s.6,1.878.729,2.236l.3-.118c-.124-.356-.392-1.156-.729-2.215s-.782-2.469-1.331-4.219Z" transform="translate(-1399.126 332.465)" fill="#61a0e0" fill-rule="evenodd"/>
    </g>
    <g id="Group_129898" data-name="Group 129898" transform="translate(1243.189 -429.215)">
      <path id="Path_190621" data-name="Path 190621" d="M1404.109-320.212,1388.9-350.986c.336-.142.669-.3,1-.457s.654-.335.969-.515l15.208,30.776a1.1,1.1,0,0,1-.493,1.477l0,0A1.105,1.105,0,0,1,1404.109-320.212Z" transform="translate(-1388.901 351.958)" fill="#fcc82e" fill-rule="evenodd"/>
    </g>
    <g id="Group_129899" data-name="Group 129899" transform="translate(1216.603 -464.837)">
      <path id="Path_190622" data-name="Path 190622" d="M1351.782-376.614a19.228,19.228,0,0,0,24.761,9.18c.335-.142.667-.295,1-.457s.652-.335.968-.515a19.228,19.228,0,0,0,7.751-25.243,19.23,19.23,0,0,0-25.757-8.721,19.229,19.229,0,0,0-8.721,25.757Zm25.084,7.357a17.706,17.706,0,0,1-23.718-8.03,17.7,17.7,0,0,1,8.03-23.717,17.707,17.707,0,0,1,23.717,8.029A17.707,17.707,0,0,1,1376.865-369.258Z" transform="translate(-1349.788 404.364)" fill="#fcc82e" fill-rule="evenodd"/>
    </g>
    <g id="Group_129900" data-name="Group 129900" transform="translate(1217.595 -463.85)" opacity="0.46">
      <path id="Path_190623" data-name="Path 190623" d="M1353.866-376.569a17.706,17.706,0,0,0,23.718,8.03,17.707,17.707,0,0,0,8.029-23.717,17.707,17.707,0,0,0-23.717-8.029A17.7,17.7,0,0,0,1353.866-376.569Z" transform="translate(-1351.499 402.659)" fill="#e6e6e6" fill-rule="evenodd"/>
      <path id="Path_190624" data-name="Path 190624" d="M1369.5-366.42h0a18.143,18.143,0,0,1-16.369-10.165,18.266,18.266,0,0,1,8.274-24.436,18.076,18.076,0,0,1,8.067-1.891,18.138,18.138,0,0,1,16.367,10.165,18.261,18.261,0,0,1-8.272,24.434A18.057,18.057,0,0,1,1369.5-366.42Zm-.027-35.418a17,17,0,0,0-7.594,1.782,17.19,17.19,0,0,0-7.786,23,17.078,17.078,0,0,0,15.407,9.566,16.988,16.988,0,0,0,7.591-1.782,17.19,17.19,0,0,0,7.788-23A17.08,17.08,0,0,0,1369.475-401.839Z" transform="translate(-1351.248 402.912)" fill="#f5d8c1"/>
    </g>
    <g id="Group_129901" data-name="Group 129901" transform="translate(1221.958 -462.09)" opacity="0.35">
      <path id="Path_190625" data-name="Path 190625" d="M1365.078-376.6l-4.775,6.451c.187.153.378.3.566.447l4.309-5.823,14.873-20.1,1.886-2.548c-.194-.141-.394-.279-.591-.411l-.706.953-15.562,21.03Zm-6.462,4.871c-.328-.352-.645-.721-.949-1.1l7.849-10.605,12.49-16.883c.453.179.895.373,1.333.585l-14.168,19.143-6.554,8.862Zm6.554-8.862c.025-.289.054-.589.088-.895Z" transform="translate(-1357.667 400.322)" fill="#fff" fill-rule="evenodd"/>
    </g>
    <g id="Group_129902" data-name="Group 129902" transform="translate(1245.921 -423.51)">
      <path id="Path_190626" data-name="Path 190626" d="M1394.967-343.5l-1.664.822a.825.825,0,0,0-.281,1.117l25.629,52.926a.82.82,0,0,0,1.058.455l1.664-.824a.821.821,0,0,0,.279-1.115l-25.628-52.928A.818.818,0,0,0,1394.967-343.5Z" transform="translate(-1392.92 343.566)" fill="#fcc82e" fill-rule="evenodd"/>
    </g>
    <g id="Group_129903" data-name="Group 129903" transform="translate(1260.324 -405.764)">
      <path id="Path_190627" data-name="Path 190627" d="M1418.556-297.87c-.078.01-.434-.036-.723-.032a5.755,5.755,0,0,0-.754.069,2.037,2.037,0,0,0-.457-.275c-.126-.056-.331-.08-.47-.145s-.268-.19-.4-.249c-.354-.155-.681-.191-.788,0-.09.155,1.884,1.36,1.884,1.36,1.83.011,3.741.946,7.979-1.819,2.414-1.056,14.16-6.86,14.4-8.121.135-.712-1.67-6.2-3.144-10.372-1.134.507-3.55,1.58-4.9,2.146,1.241,2.628,2.7,6.112,2.549,6.537-.04.111-.189.312-8.128,5.512-.2.128-.406.262-.612.4l-1.794,1.168-2.264-.237s-3.584.247-3.694.656c-.046.189.254.281.618.336h.01l.164.018h0c.4.048.811.055.912.092a2.352,2.352,0,0,1,.54.262c-2.238.914-2.064.589-2.807.543-.186-.015-.383.039-.559.027-.3-.027-.54-.205-.771-.222a1.017,1.017,0,0,0-.679.205c-.08.08.069.2.354.323a9.678,9.678,0,0,0,3.618.574c.309.073-.256.191-1.134.1a4.873,4.873,0,0,1-.8-.011c-.193-.044-.369-.167-.558-.213s-.356-.042-.5-.069c-.192-.035-.461-.184-.616-.2a1.469,1.469,0,0,0-.918.088,15.374,15.374,0,0,0,2.474,1.117s1.8.258,2.2.258C1418.785-298.052,1419.026-297.941,1418.556-297.87Z" transform="translate(-1414.11 317.458)" fill="#ffb27d" fill-rule="evenodd"/>
    </g>
    <g id="Group_129904" data-name="Group 129904" transform="translate(1094.749 -358.693)">
      <path id="Path_190628" data-name="Path 190628" d="M1289-188.017v-57.892a2.3,2.3,0,0,0-2.3-2.3H1173.747c-1.264,0-3.225,1.035-3.225,2.3v59.976a2.307,2.307,0,0,0,2.3,2.3H1283.7C1287.9-183.635,1289-186.753,1289-188.017Z" transform="translate(-1170.522 248.209)" fill="#61a0e0" fill-rule="evenodd"/>
    </g>
    <g id="Group_129905" data-name="Group 129905" transform="translate(1096.558 -358.703)">
      <path id="Rectangle_41214" data-name="Rectangle 41214" d="M3.38,0H113.286a3.383,3.383,0,0,1,3.383,3.383V59.119a3.383,3.383,0,0,1-3.383,3.383H3.383A3.383,3.383,0,0,1,0,59.119V3.38A3.38,3.38,0,0,1,3.38,0Z" transform="translate(0 0)" fill="#dfedfa"/>
    </g>
    <g id="Group_129906" data-name="Group 129906" transform="translate(1098.25 -357.01)">
      <path id="Path_190629" data-name="Path 190629" d="M1288.958-187.224v-57.9a.607.607,0,0,0-.606-.606H1176.28a.608.608,0,0,0-.607.606v57.9a.608.608,0,0,0,.607.606h112.072a.607.607,0,0,0,.606-.606Zm-1.693-1.088h-109.9v-55.73h109.9Z" transform="translate(-1175.673 245.733)" fill="#a4d0fc" fill-rule="evenodd"/>
    </g>
    <g id="Group_129907" data-name="Group 129907" transform="translate(1094.602 -358.85)">
      <path id="Path_190630" data-name="Path 190630" d="M1289.079-188.091v-57.9a2.434,2.434,0,0,0-.719-1.727h0a2.441,2.441,0,0,0-1.727-.718H1174.561a2.168,2.168,0,0,0-.232.01h-.651a4.368,4.368,0,0,0-2.328.81,2.14,2.14,0,0,0-1.044,1.637v59.976a2.444,2.444,0,0,0,.719,1.729,2.441,2.441,0,0,0,1.728.717h110.879a5.706,5.706,0,0,0,3.76-1.2,4.712,4.712,0,0,0,1.681-3.14c0-.035,0-.069,0-.1v-.017l0-.067Zm-115.738-60.02a2.466,2.466,0,0,0-.509.389h0a2.436,2.436,0,0,0-.718,1.727v57.9a2.436,2.436,0,0,0,.718,1.727v0a2.448,2.448,0,0,0,1.729.716h112.072a2.432,2.432,0,0,0,1.631-.627,4.452,4.452,0,0,1-1.058,1.283,5.425,5.425,0,0,1-3.574,1.134H1172.753a2.149,2.149,0,0,1-1.521-.633,2.147,2.147,0,0,1-.631-1.519v-59.976a1.863,1.863,0,0,1,.92-1.4,4.224,4.224,0,0,1,1.82-.729Zm1-.025h112.29a2.152,2.152,0,0,1,1.519.633,2.145,2.145,0,0,1,.631,1.52v58h0a2.149,2.149,0,0,1-.631,1.408,2.146,2.146,0,0,1-1.519.634H1174.561a2.147,2.147,0,0,1-1.521-.634,2.144,2.144,0,0,1-.632-1.519v-57.9a2.153,2.153,0,0,1,.632-1.521A2.164,2.164,0,0,1,1174.343-248.136Z" transform="translate(-1170.306 248.44)" fill="#1e77d1" fill-rule="evenodd"/>
    </g>
    <g id="Group_129908" data-name="Group 129908" transform="translate(1096.558 -358.703)" opacity="0.25">
      <path id="Path_190631" data-name="Path 190631" d="M1289.852-198.038c-15.174,5.538-33,6.215-44.236-1.444-22.2-15.128-15.264-19.624-47.658-25.521-15.325-2.792-18.087-13.452-21.884-23.22h-.591a2.306,2.306,0,0,0-2.3,2.3v57.9a2.306,2.306,0,0,0,2.3,2.3h112.072a2.3,2.3,0,0,0,2.3-2.3Z" transform="translate(-1173.183 248.224)" fill="#fff" fill-rule="evenodd"/>
    </g>
    <g id="Group_129909" data-name="Group 129909" transform="translate(1119.987 -348.941)">
      <path id="Rectangle_41215" data-name="Rectangle 41215" d="M1.175,0H69.56a1.176,1.176,0,0,1,1.176,1.176v0A1.176,1.176,0,0,1,69.56,2.352H1.175A1.175,1.175,0,0,1,0,1.177v0A1.175,1.175,0,0,1,1.175,0Z" transform="translate(0 0)" fill="#a4d0fc"/>
    </g>
    <g id="Group_129910" data-name="Group 129910" transform="translate(1106.812 -343.506)">
      <path id="Rectangle_41216" data-name="Rectangle 41216" d="M1.175,0H95.91a1.176,1.176,0,0,1,1.176,1.176v0A1.176,1.176,0,0,1,95.91,2.352H1.175A1.175,1.175,0,0,1,0,1.177v0A1.175,1.175,0,0,1,1.175,0Z" transform="translate(0 0)" fill="#a4d0fc"/>
    </g>
    <g id="Group_129923" data-name="Group 129923" transform="translate(1127.571 -336.508)">
      <g id="Group_129911" data-name="Group 129911" transform="translate(0 0)">
        <path id="Path_190632" data-name="Path 190632" d="M1227.558-215.571a8.752,8.752,0,0,1,8.752,8.75,8.753,8.753,0,0,1-8.752,8.752,8.752,8.752,0,0,1-8.75-8.752A8.751,8.751,0,0,1,1227.558-215.571Z" transform="translate(-1218.808 215.571)" fill="#61a0e0" fill-rule="evenodd"/>
      </g>
      <g id="Group_129912" data-name="Group 129912" transform="translate(1.32 1.32)">
        <path id="Path_190633" data-name="Path 190633" d="M1228.18-199.611a.422.422,0,0,1,.422.421.422.422,0,0,1-.422.423,7.405,7.405,0,0,1-5.254-2.177,7.408,7.408,0,0,1-2.176-5.254,7.409,7.409,0,0,1,2.176-5.252,7.4,7.4,0,0,1,5.254-2.178,7.4,7.4,0,0,1,5.254,2.178,7.4,7.4,0,0,1,2.177,5.252.423.423,0,0,1-.422.423.423.423,0,0,1-.422-.423,6.568,6.568,0,0,0-1.928-4.657,6.574,6.574,0,0,0-4.658-1.928,6.569,6.569,0,0,0-4.657,1.928,6.569,6.569,0,0,0-1.929,4.657,6.571,6.571,0,0,0,1.929,4.659A6.56,6.56,0,0,0,1228.18-199.611Z" transform="translate(-1220.75 213.629)" fill="#fff" fill-rule="evenodd"/>
      </g>
      <g id="Group_129913" data-name="Group 129913" transform="translate(18.57 0)">
        <path id="Path_190634" data-name="Path 190634" d="M1254.88-215.571a8.75,8.75,0,0,1,8.75,8.75,8.75,8.75,0,0,1-8.75,8.752,8.753,8.753,0,0,1-8.752-8.752A8.752,8.752,0,0,1,1254.88-215.571Z" transform="translate(-1246.128 215.571)" fill="#61a0e0" fill-rule="evenodd"/>
      </g>
      <g id="Group_129914" data-name="Group 129914" transform="translate(19.891 1.879)">
        <path id="Path_190635" data-name="Path 190635" d="M1261.857-204.206a.424.424,0,0,1,.415-.336.423.423,0,0,1,.421.421h0a.423.423,0,0,1-.022.135,7.4,7.4,0,0,1-3.454,4.485,7.408,7.408,0,0,1-5.61.75.241.241,0,0,1-.052-.015,7.409,7.409,0,0,1-4.486-3.454,7.407,7.407,0,0,1-.749-5.611.463.463,0,0,1,.013-.052,7.428,7.428,0,0,1,1.562-2.924v0h0a7.424,7.424,0,0,1,2.705-1.964.418.418,0,0,1,.551.222.419.419,0,0,1-.222.551,6.592,6.592,0,0,0-2.4,1.744v0a6.607,6.607,0,0,0-1.389,2.612l0,.006a6.57,6.57,0,0,0,.657,5,6.566,6.566,0,0,0,3.99,3.066l.011,0a6.559,6.559,0,0,0,5-.656A6.572,6.572,0,0,0,1261.857-204.206Z" transform="translate(-1248.071 212.807)" fill="#fff" fill-rule="evenodd"/>
      </g>
      <g id="Group_129915" data-name="Group 129915" transform="translate(37.142 0)">
        <path id="Path_190636" data-name="Path 190636" d="M1282.2-215.571a8.753,8.753,0,0,1,8.753,8.75,8.753,8.753,0,0,1-8.753,8.752,8.752,8.752,0,0,1-8.75-8.752A8.751,8.751,0,0,1,1282.2-215.571Z" transform="translate(-1273.45 215.571)" fill="#61a0e0" fill-rule="evenodd"/>
      </g>
      <g id="Group_129916" data-name="Group 129916" transform="translate(38.462 2.368)">
        <path id="Path_190637" data-name="Path 190637" d="M1286.209-211.366a.426.426,0,0,1,0-.6.424.424,0,0,1,.553-.04,7.414,7.414,0,0,1,3.293,4.6,7.4,7.4,0,0,1-.914,5.609l-.011.015a7.4,7.4,0,0,1-4.6,3.312,7.419,7.419,0,0,1-5.613-.912l-.013-.01a7.4,7.4,0,0,1-3.311-4.6,7.4,7.4,0,0,1,.911-5.611.483.483,0,0,1,.061-.078h0a.42.42,0,0,1,.6,0,.419.419,0,0,1,.042.547,6.566,6.566,0,0,0-.788,4.948,6.558,6.558,0,0,0,2.915,4.072.368.368,0,0,1,.059.038,6.567,6.567,0,0,0,4.948.788,6.559,6.559,0,0,0,4.072-2.915.368.368,0,0,1,.036-.058,6.554,6.554,0,0,0,.79-4.948,6.563,6.563,0,0,0-2.915-4.072.439.439,0,0,1-.109-.077Z" transform="translate(-1275.392 212.087)" fill="#fff" fill-rule="evenodd"/>
      </g>
      <g id="Group_129917" data-name="Group 129917" transform="translate(3.348 20.169)">
        <path id="Rectangle_41217" data-name="Rectangle 41217" d="M1.2,0H9.6a1.2,1.2,0,0,1,1.2,1.2v0A1.208,1.208,0,0,1,9.6,2.412H1.2A1.2,1.2,0,0,1,0,1.207v0A1.2,1.2,0,0,1,1.2,0Z" fill="#61a0e0"/>
      </g>
      <g id="Group_129918" data-name="Group 129918" transform="translate(21.919 20.169)">
        <path id="Rectangle_41218" data-name="Rectangle 41218" d="M1.2,0H9.6a1.2,1.2,0,0,1,1.2,1.2v0A1.208,1.208,0,0,1,9.6,2.412H1.2A1.2,1.2,0,0,1,0,1.208v0A1.2,1.2,0,0,1,1.2,0Z" fill="#61a0e0"/>
      </g>
      <g id="Group_129919" data-name="Group 129919" transform="translate(40.49 20.169)">
        <path id="Rectangle_41219" data-name="Rectangle 41219" d="M1.2,0H9.6a1.2,1.2,0,0,1,1.2,1.2v0A1.208,1.208,0,0,1,9.6,2.412H1.2A1.2,1.2,0,0,1,0,1.208v0A1.2,1.2,0,0,1,1.2,0Z" fill="#61a0e0"/>
      </g>
      <g id="Group_129920" data-name="Group 129920" transform="translate(3.348 23.977)">
        <path id="Rectangle_41220" data-name="Rectangle 41220" d="M1.313,0H9.491A1.313,1.313,0,0,1,10.8,1.313V6.735A1.313,1.313,0,0,1,9.491,8.048H1.314A1.314,1.314,0,0,1,0,6.734V1.313A1.313,1.313,0,0,1,1.313,0Z" fill="#61a0e0"/>
      </g>
      <g id="Group_129921" data-name="Group 129921" transform="translate(21.919 23.977)">
        <path id="Rectangle_41221" data-name="Rectangle 41221" d="M1.313,0H9.489a1.317,1.317,0,0,1,1.317,1.317V6.735A1.313,1.313,0,0,1,9.492,8.048H1.314A1.314,1.314,0,0,1,0,6.734V1.313A1.313,1.313,0,0,1,1.313,0Z" fill="#61a0e0"/>
      </g>
      <g id="Group_129922" data-name="Group 129922" transform="translate(40.49 23.977)">
        <path id="Rectangle_41222" data-name="Rectangle 41222" d="M1.313,0H9.493a1.314,1.314,0,0,1,1.314,1.314V6.735A1.313,1.313,0,0,1,9.493,8.048H1.313A1.313,1.313,0,0,1,0,6.735V1.313A1.313,1.313,0,0,1,1.313,0Z" fill="#61a0e0"/>
      </g>
    </g>
    <g id="Group_129924" data-name="Group 129924" transform="translate(1178.791 -529.022)">
      <path id="Rectangle_41223" data-name="Rectangle 41223" d="M4.3,0H31.478a4.3,4.3,0,0,1,4.3,4.3V25.341a4.3,4.3,0,0,1-4.3,4.3H4.3a4.3,4.3,0,0,1-4.3-4.3V4.3A4.3,4.3,0,0,1,4.3,0Z" fill="#fff"/>
    </g>
    <g id="Group_129925" data-name="Group 129925" transform="translate(1178.605 -529.206)">
      <path id="Path_190638" data-name="Path 190638" d="M1296.995-499.061h8.166a.614.614,0,0,0-.112.371h-8.055a2.744,2.744,0,0,0-2.737,2.735v6.292a.612.612,0,0,0-.371-.1v-6.191a3.116,3.116,0,0,1,3.108-3.106Zm-2.737,15.853v11.045a2.746,2.746,0,0,0,2.737,2.737h20.366a1.863,1.863,0,0,0,.067.294l-.1.075h-20.33a3.114,3.114,0,0,1-3.108-3.106v-11.043a.645.645,0,0,0,.371,0Zm22.815,13.782a.633.633,0,0,1,.256.369h9.6a3.114,3.114,0,0,0,3.106-3.106v-16.7a.619.619,0,0,1-.371.188v16.511a2.746,2.746,0,0,1-2.735,2.737Zm12.561-26.918a2.746,2.746,0,0,0-2.708-2.347h-11.892a.628.628,0,0,0,.04-.371h11.852a3.114,3.114,0,0,1,3.079,2.71A2.5,2.5,0,0,0,1329.634-496.343Z" transform="translate(-1293.887 499.061)" fill="#fcc82e" fill-rule="evenodd"/>
    </g>
    <g id="Group_129926" data-name="Group 129926" transform="translate(1222.398 -556.461)">
      <path id="Rectangle_41224" data-name="Rectangle 41224" d="M5.862,0h37.06A5.858,5.858,0,0,1,48.78,5.858V34.549a5.862,5.862,0,0,1-5.862,5.862H5.859A5.859,5.859,0,0,1,0,34.552V5.862A5.862,5.862,0,0,1,5.862,0Z" transform="translate(0)" fill="#fff"/>
    </g>
    <g id="Group_129927" data-name="Group 129927" transform="translate(1222.146 -556.712)">
      <path id="Path_190639" data-name="Path 190639" d="M1362.178-539.527h11.138a.842.842,0,0,0-.153.505h-10.985a3.743,3.743,0,0,0-3.731,3.73v8.579a.856.856,0,0,0-.5-.139v-8.44a4.245,4.245,0,0,1,4.234-4.235Zm-3.731,21.619v15.059a3.743,3.743,0,0,0,3.731,3.731h27.773a2.578,2.578,0,0,0,.094.4l-.142.1h-27.724a4.246,4.246,0,0,1-4.234-4.236v-15.059a.858.858,0,0,0,.5,0Zm31.112,18.79a.86.86,0,0,1,.348.505h13.086a4.249,4.249,0,0,0,4.238-4.236v-22.772a.849.849,0,0,1-.507.258v22.514a3.742,3.742,0,0,1-3.731,3.731Zm17.127-36.7a3.745,3.745,0,0,0-3.693-3.2H1386.78a.87.87,0,0,0,.052-.505h16.161a4.248,4.248,0,0,1,4.2,3.7A3.426,3.426,0,0,0,1406.686-535.822Z" transform="translate(-1357.944 539.527)" fill="#fcc82e" fill-rule="evenodd"/>
    </g>
    <g id="Group_129930" data-name="Group 129930" transform="translate(1232.695 -549.507)">
      <g id="Group_129928" data-name="Group 129928" transform="translate(0 0.08)">
        <path id="Path_190640" data-name="Path 190640" d="M1376.137-523.991a2.294,2.294,0,0,1-2.643-1.882,2.3,2.3,0,0,1,1.882-2.643,22.037,22.037,0,0,1,9.953.646,21.822,21.822,0,0,1,8.607,4.966,21.792,21.792,0,0,1,5.527,8.257,21.974,21.974,0,0,1,1.306,9.889,2.293,2.293,0,0,1-2.51,2.054,2.3,2.3,0,0,1-2.052-2.511,17.366,17.366,0,0,0-1.033-7.813,17.213,17.213,0,0,0-4.376-6.521,17.21,17.21,0,0,0-6.8-3.932,17.34,17.34,0,0,0-7.866-.51Zm5.053,14.714a3.867,3.867,0,0,0-5.466.182,3.87,3.87,0,0,0,.18,5.466,3.869,3.869,0,0,0,5.466-.183,3.868,3.868,0,0,0-.181-5.466Zm-4.489-5.456a8.223,8.223,0,0,1,4.177-.094,8.121,8.121,0,0,1,3.653,1.979,8.131,8.131,0,0,1,2.218,3.512,8.256,8.256,0,0,1,.184,4.176,2.288,2.288,0,0,0,1.754,2.722,2.291,2.291,0,0,0,2.722-1.754,12.8,12.8,0,0,0-.287-6.508,12.687,12.687,0,0,0-3.452-5.506,12.679,12.679,0,0,0-5.722-3.076,12.77,12.77,0,0,0-6.514.147,2.289,2.289,0,0,0-1.569,2.833A2.293,2.293,0,0,0,1376.7-514.733Z" transform="translate(-1373.462 528.81)" fill="#fcc82e" fill-rule="evenodd"/>
      </g>
      <g id="Group_129929" data-name="Group 129929" transform="translate(0.776)">
        <path id="Path_190641" data-name="Path 190641" d="M1377.278-524.108a2.294,2.294,0,0,1-2.643-1.882,2.3,2.3,0,0,1,1.882-2.643,22.036,22.036,0,0,1,9.953.646,21.82,21.82,0,0,1,8.607,4.965,21.853,21.853,0,0,1,5.529,8.258,22.027,22.027,0,0,1,1.3,9.888,2.294,2.294,0,0,1-2.511,2.054,2.3,2.3,0,0,1-2.052-2.511,17.351,17.351,0,0,0-1.033-7.814,17.2,17.2,0,0,0-4.376-6.52,17.247,17.247,0,0,0-6.795-3.932,17.349,17.349,0,0,0-7.866-.509Zm5.053,14.714a3.867,3.867,0,0,0-5.466.182,3.866,3.866,0,0,0,.182,5.466,3.865,3.865,0,0,0,5.464-.182,3.867,3.867,0,0,0-.18-5.466Zm-4.491-5.456a8.232,8.232,0,0,1,4.179-.094,8.113,8.113,0,0,1,3.653,1.978,8.128,8.128,0,0,1,2.217,3.513,8.221,8.221,0,0,1,.182,4.175,2.292,2.292,0,0,0,1.754,2.723,2.293,2.293,0,0,0,2.725-1.754,12.8,12.8,0,0,0-.288-6.51,12.7,12.7,0,0,0-3.452-5.5,12.69,12.69,0,0,0-5.722-3.077,12.786,12.786,0,0,0-6.514.147,2.291,2.291,0,0,0-1.569,2.834A2.291,2.291,0,0,0,1377.84-514.85Z" transform="translate(-1374.603 528.927)" fill="#fcc82e" fill-rule="evenodd"/>
      </g>
    </g>
    <g id="Group_129935" data-name="Group 129935" transform="translate(1184.387 -521.52)">
      <g id="Group_129931" data-name="Group 129931">
        <path id="Rectangle_41225" data-name="Rectangle 41225" d="M1.474,0H23.11a1.471,1.471,0,0,1,1.471,1.471V13.163a1.471,1.471,0,0,1-1.471,1.471H1.471A1.471,1.471,0,0,1,0,13.163V1.474A1.474,1.474,0,0,1,1.474,0Z" fill="#fcc82e"/>
      </g>
      <g id="Group_129932" data-name="Group 129932" transform="translate(0.159 6.445)">
        <path id="Path_190642" data-name="Path 190642" d="M1315.425-478.01l7.353,4.791,4.11,2.68a1,1,0,0,1-.838.455h-22.581a1.01,1.01,0,0,1-.841-.455l4.112-2.68,7.344-4.787A.983.983,0,0,1,1315.425-478.01Z" transform="translate(-1302.628 478.273)" fill="#fcc82e" fill-rule="evenodd"/>
      </g>
      <g id="Group_129933" data-name="Group 129933" transform="translate(0.038)">
        <path id="Path_190643" data-name="Path 190643" d="M1315.368-479.478l7.353-4.791,4.233-2.76a1.006,1.006,0,0,0-.962-.725h-22.581a1.006,1.006,0,0,0-.962.725l4.233,2.76,7.344,4.787A.982.982,0,0,0,1315.368-479.478Z" transform="translate(-1302.45 487.754)" fill="#fcc82e" fill-rule="evenodd"/>
      </g>
      <g id="Group_129934" data-name="Group 129934" transform="translate(5.118)" opacity="0.1">
        <path id="Path_190644" data-name="Path 190644" d="M1309.924-487.754h18.462a1.006,1.006,0,0,1,.962.725.978.978,0,0,1,.038.277v12.632a.992.992,0,0,1-.162.545,1,1,0,0,1-.838.455h-2.039c-.578-1.289-1.691-2.786-2.871-3.089-2.675-.689-7.105.7-7.105-4.634C1316.371-483.09,1312.2-484.742,1309.924-487.754Z" transform="translate(-1309.924 487.754)" fill="#fcc82e" fill-rule="evenodd"/>
      </g>
    </g>
    <g id="Group_129936" data-name="Group 129936" transform="translate(1314.86 -425.889)">
      <ellipse id="Ellipse_4907" data-name="Ellipse 4907" cx="9.308" cy="9.635" rx="9.308" ry="9.635" transform="translate(0)" fill="#fff"/>
    </g>
    <g id="Group_129937" data-name="Group 129937" transform="translate(1202.123 -572.677)">
      <path id="Path_190645" data-name="Path 190645" d="M1337.794-563.013c-.576,7.933-1.748,9.027-9.308,9.637,7.559.61,8.731,1.7,9.308,9.635.577-7.931,1.748-9.026,9.308-9.635C1339.541-553.986,1338.37-555.08,1337.794-563.013Z" transform="translate(-1328.486 563.013)" fill="#fff" fill-rule="evenodd"/>
    </g>
    <g id="Group_129938" data-name="Group 129938" transform="translate(1056.398 -534.399)">
      <path id="Path_190646" data-name="Path 190646" d="M1123.409-506.7c-.577,7.93-1.747,9.025-9.308,9.637,7.561.61,8.731,1.7,9.308,9.635.578-7.93,1.748-9.025,9.31-9.635C1125.157-497.676,1123.987-498.771,1123.409-506.7Z" transform="translate(-1114.101 506.701)" fill="#fff" fill-rule="evenodd"/>
    </g>
    <g id="Group_130164" data-name="Group 130164" transform="translate(2433.925 -854.597) rotate(9)">
      <path id="Path_190982" data-name="Path 190982" d="M-1087.9,603.732c.1.583-.016,1.088-.256,1.129s-.515-.4-.614-.983.017-1.089.257-1.13S-1088,603.148-1087.9,603.732Z" transform="translate(-2.062 -2.018)" fill="#1a2e35"/>
      <path id="Path_190983" data-name="Path 190983" d="M-1078.578,603.754c-.006.591-.209,1.069-.453,1.066s-.436-.484-.429-1.075.209-1.069.453-1.066S-1078.571,603.163-1078.578,603.754Z" transform="translate(-7.1 -1.982)" fill="#1a2e35"/>
      <path id="Path_190984" data-name="Path 190984" d="M-1086.3,614.636s.91,1.215,3.517.009" transform="translate(-3.41 -8.429)" fill="none" stroke="#1a2e35" stroke-linecap="round" stroke-linejoin="round" stroke-width="0.3"/>
      <path id="Path_190987" data-name="Path 190987" d="M-1085.413,608.347a1.717,1.717,0,0,0-.128.658,1.067,1.067,0,0,0,1.175.835.984.984,0,0,0,.8-1.406" transform="translate(-3.818 -5.038)" fill="none" stroke="#1a2e35" stroke-linecap="round" stroke-linejoin="round" stroke-width="0.3"/>
    </g>
  </g>
</svg>
