<svg xmlns="http://www.w3.org/2000/svg" xmlns:xlink="http://www.w3.org/1999/xlink" width="334.664" height="239.692" viewBox="0 0 334.664 239.692">
  <defs>
    <clipPath id="clip-path">
      <path id="Trazado_190533" data-name="Trazado 190533" d="M504.619-340.047c7.675.032,20.723,3.991,23.947,13.816s-.768,32.082-23.947,33.157-29.013-24.254-25.635-32.85S489.23-340.11,504.619-340.047Z" transform="translate(-478.1 340.048)" fill="#e5f0f8"/>
    </clipPath>
    <clipPath id="clip-path-2">
      <path id="Trazado_190546" data-name="Trazado 190546" d="M612.36-340.047c-7.675.032-20.723,3.991-23.947,13.816s.768,32.082,23.947,33.157,29.013-24.254,25.635-32.85S627.749-340.11,612.36-340.047Z" transform="translate(-587.439 340.048)" fill="none"/>
    </clipPath>
  </defs>
  <g id="Grupo_129812" data-name="Grupo 129812" transform="translate(-285 -10496)">
    <circle id="Elipse_4882" data-name="Elipse 4882" cx="119.846" cy="119.846" r="119.846" transform="translate(285 10496)" fill="#bddcf6" opacity="0.74"/>
    <g id="Grupo_129811" data-name="Grupo 129811" transform="translate(303.09 10500.982)">
      <g id="Grupo_129792" data-name="Grupo 129792" transform="translate(208.869 0)">
        <path id="Trazado_190504" data-name="Trazado 190504" d="M735.5-586.153v-.911l5.257-2.845v1.391l-3.512,1.91,3.512,1.91v1.391Z" transform="translate(-735.497 589.909)" fill="#bbdbf3"/>
        <path id="Trazado_190505" data-name="Trazado 190505" d="M881.468-479.654v-1.391l3.512-1.91-3.512-1.91v-1.391l5.258,2.846v.91Z" transform="translate(-779.02 559.004)" fill="#bbdbf3"/>
        <rect id="Rectángulo_41099" data-name="Rectángulo 41099" width="20.91" height="2.148" transform="translate(7.208 2.226)" fill="#bbdbf3"/>
        <rect id="Rectángulo_41100" data-name="Rectángulo 41100" width="20.91" height="2.148" transform="translate(0 10.528)" fill="#bbdbf3"/>
        <rect id="Rectángulo_41101" data-name="Rectángulo 41101" width="20.91" height="2.148" transform="translate(4.454 16.311)" fill="#bbdbf3"/>
        <rect id="Rectángulo_41102" data-name="Rectángulo 41102" width="20.91" height="2.148" transform="translate(4.454 32.228)" fill="#bbdbf3"/>
        <rect id="Rectángulo_41103" data-name="Rectángulo 41103" width="20.91" height="2.148" transform="translate(4.454 37.151)" fill="#bbdbf3"/>
        <rect id="Rectángulo_41104" data-name="Rectángulo 41104" width="63.06" height="2.148" transform="translate(11.639 21.819)" fill="#bbdbf3"/>
        <rect id="Rectángulo_41105" data-name="Rectángulo 41105" width="84.243" height="2.148" transform="translate(11.639 42.382)" fill="#bbdbf3"/>
        <rect id="Rectángulo_41106" data-name="Rectángulo 41106" width="84.243" height="2.148" transform="translate(11.639 58.852)" fill="#bbdbf3"/>
        <rect id="Rectángulo_41107" data-name="Rectángulo 41107" width="80.708" height="2.148" transform="translate(19.562 74.975)" fill="#bbdbf3"/>
        <rect id="Rectángulo_41108" data-name="Rectángulo 41108" width="18.044" height="2.148" transform="translate(11.639 64.448)" fill="#bbdbf3"/>
        <rect id="Rectángulo_41109" data-name="Rectángulo 41109" width="18.044" height="2.148" transform="translate(11.639 69.771)" fill="#bbdbf3"/>
        <rect id="Rectángulo_41110" data-name="Rectángulo 41110" width="84.243" height="2.148" transform="translate(11.639 47.64)" fill="#bbdbf3"/>
        <rect id="Rectángulo_41111" data-name="Rectángulo 41111" width="45.579" height="2.148" transform="translate(11.639 52.897)" fill="#bbdbf3"/>
        <rect id="Rectángulo_41112" data-name="Rectángulo 41112" width="19.336" height="2.148" transform="translate(11.639 26.77)" fill="#bbdbf3"/>
      </g>
      <g id="Grupo_129796" data-name="Grupo 129796" transform="translate(22.36 34.198)">
        <rect id="Rectángulo_41113" data-name="Rectángulo 41113" width="38.35" height="51.839" transform="translate(99.775 132.901)" fill="#586773"/>
        <path id="Trazado_190506" data-name="Trazado 190506" d="M707.656-520.072v112.651a21.114,21.114,0,0,1-21.111,21.116H490.865a21.114,21.114,0,0,1-21.111-21.116V-520.072a21.109,21.109,0,0,1,21.111-21.111h195.68A21.109,21.109,0,0,1,707.656-520.072Z" transform="translate(-469.754 541.183)" fill="#586773"/>
        <rect id="Rectángulo_41114" data-name="Rectángulo 41114" width="78.648" height="10.17" rx="5.085" transform="translate(79.626 180.291)" fill="#586773"/>
        <rect id="Rectángulo_41115" data-name="Rectángulo 41115" width="38.35" height="51.839" transform="translate(104.918 132.901)" fill="#93acbf"/>
        <path id="Trazado_190507" data-name="Trazado 190507" d="M714.985-520.072v112.651a21.115,21.115,0,0,1-21.117,21.116H498.193a21.115,21.115,0,0,1-21.117-21.116V-520.072a21.11,21.11,0,0,1,21.117-21.111H693.868A21.11,21.11,0,0,1,714.985-520.072Z" transform="translate(-471.937 541.183)" fill="#93acbf"/>
        <rect id="Rectángulo_41116" data-name="Rectángulo 41116" width="139.047" height="222.072" rx="69.524" transform="translate(235.129 7.913) rotate(90)" fill="#e5f0f8"/>
        <path id="Trazado_190508" data-name="Trazado 190508" d="M705.875-513.348v7.276H499.634v-7.276a5.291,5.291,0,0,1,5.284-5.284H700.591A5.291,5.291,0,0,1,705.875-513.348Z" transform="translate(-478.663 534.459)" fill="#bbdbf3"/>
        <path id="Trazado_190509" data-name="Trazado 190509" d="M705.876-500.309v105.371a5.279,5.279,0,0,1-3.063,4.792,5.18,5.18,0,0,1-2.218.495H504.92a5.29,5.29,0,0,1-5.281-5.287V-500.309Z" transform="translate(-478.665 528.996)" fill="#fff"/>
        <circle id="Elipse_4900" data-name="Elipse 4900" cx="2.025" cy="2.025" r="2.025" transform="translate(30.212 20.481)" fill="#40a87b"/>
        <circle id="Elipse_4901" data-name="Elipse 4901" cx="2.025" cy="2.025" r="2.025" transform="translate(35.913 20.481)" fill="#fff"/>
        <circle id="Elipse_4902" data-name="Elipse 4902" cx="2.025" cy="2.025" r="2.025" transform="translate(41.614 20.481)" fill="#f74242"/>
        <rect id="Rectángulo_41117" data-name="Rectángulo 41117" width="78.648" height="10.17" rx="5.085" transform="translate(84.769 180.291)" fill="#93acbf"/>
        <rect id="Rectángulo_41118" data-name="Rectángulo 41118" width="206.241" height="16.765" transform="translate(20.971 28.387)" fill="#e5f0f8"/>
        <rect id="Rectángulo_41119" data-name="Rectángulo 41119" width="25.082" height="9.981" transform="translate(198.136 31.61)" fill="#fff"/>
        <rect id="Rectángulo_41120" data-name="Rectángulo 41120" width="25.082" height="9.981" transform="translate(168.109 31.61)" fill="#fff"/>
        <path id="Trazado_190510" data-name="Trazado 190510" d="M619.244-320.488h38.35l-38.35,9.68Z" transform="translate(-514.326 475.38)" fill="#586773"/>
        <g id="Grupo_129793" data-name="Grupo 129793" transform="translate(55.537 31.627)">
          <rect id="Rectángulo_41121" data-name="Rectángulo 41121" width="98.429" height="9.947" fill="#fff"/>
          <rect id="Rectángulo_41122" data-name="Rectángulo 41122" width="19.833" height="9.947" transform="translate(78.596)" fill="#bbdbf3"/>
          <path id="Trazado_190511" data-name="Trazado 190511" d="M676.6-489.12l-2.516-1.408a3.278,3.278,0,0,0-1.476-3.991,3.292,3.292,0,0,0-4.483,1.26,3.3,3.3,0,0,0,1.267,4.483,3.284,3.284,0,0,0,4.178-.837l3.031,1.7,2.267,1.266.514-.916Zm-3.353-1.277a2.575,2.575,0,0,1-3.5.995,2.572,2.572,0,0,1-.989-3.505,2.574,2.574,0,0,1,3.5-.99A2.583,2.583,0,0,1,673.252-490.4Z" transform="translate(-584.314 495.768)" fill="#fff"/>
        </g>
        <rect id="Rectángulo_41123" data-name="Rectángulo 41123" width="14.175" height="1.81" transform="translate(23.763 31.627)" fill="#fff"/>
        <rect id="Rectángulo_41124" data-name="Rectángulo 41124" width="14.175" height="1.81" transform="translate(23.763 35.696)" fill="#fff"/>
        <rect id="Rectángulo_41125" data-name="Rectángulo 41125" width="14.175" height="1.81" transform="translate(23.763 39.764)" fill="#fff"/>
        <g id="Grupo_129794" data-name="Grupo 129794" transform="translate(25.347 49.294)">
          <path id="Trazado_190512" data-name="Trazado 190512" d="M505.87-468.976v-.479l2.76-1.493v.73l-1.844,1,1.844,1v.731Z" transform="translate(-505.87 470.948)" fill="#fcc82e"/>
          <path id="Trazado_190513" data-name="Trazado 190513" d="M582.5-348.39v-.731l1.844-1-1.844-1v-.73l2.76,1.493v.478Z" transform="translate(-528.717 435.439)" fill="#fcc82e"/>
          <rect id="Rectángulo_41126" data-name="Rectángulo 41126" width="10.977" height="1.128" transform="translate(3.784 1.169)" fill="#fcc82e"/>
          <rect id="Rectángulo_41127" data-name="Rectángulo 41127" width="10.977" height="1.128" transform="translate(0 5.527)" fill="#fcc82e"/>
          <rect id="Rectángulo_41128" data-name="Rectángulo 41128" width="10.977" height="1.128" transform="translate(2.338 8.563)" fill="#fcc82e"/>
          <rect id="Rectángulo_41129" data-name="Rectángulo 41129" width="10.977" height="1.128" transform="translate(2.338 16.918)" fill="#fcc82e"/>
          <rect id="Rectángulo_41130" data-name="Rectángulo 41130" width="10.977" height="1.128" transform="translate(2.338 19.503)" fill="#fcc82e"/>
          <rect id="Rectángulo_41131" data-name="Rectángulo 41131" width="33.103" height="1.128" transform="translate(6.11 11.454)" fill="#fcc82e"/>
          <rect id="Rectángulo_41132" data-name="Rectángulo 41132" width="44.223" height="1.128" transform="translate(6.11 22.249)" fill="#fcc82e"/>
          <rect id="Rectángulo_41133" data-name="Rectángulo 41133" width="44.223" height="1.128" transform="translate(6.11 30.894)" fill="#fcc82e"/>
          <rect id="Rectángulo_41134" data-name="Rectángulo 41134" width="42.368" height="1.128" transform="translate(10.269 39.358)" fill="#fcc82e"/>
          <rect id="Rectángulo_41135" data-name="Rectángulo 41135" width="9.472" height="1.128" transform="translate(6.11 33.832)" fill="#fcc82e"/>
          <rect id="Rectángulo_41136" data-name="Rectángulo 41136" width="9.472" height="1.128" transform="translate(6.11 36.626)" fill="#fcc82e"/>
          <rect id="Rectángulo_41137" data-name="Rectángulo 41137" width="44.223" height="1.128" transform="translate(6.11 25.009)" fill="#fcc82e"/>
          <rect id="Rectángulo_41138" data-name="Rectángulo 41138" width="23.927" height="1.128" transform="translate(6.11 27.768)" fill="#fcc82e"/>
          <rect id="Rectángulo_41139" data-name="Rectángulo 41139" width="9.887" height="1.128" transform="translate(2.338 42.586)" fill="#fcc82e"/>
          <rect id="Rectángulo_41140" data-name="Rectángulo 41140" width="9.887" height="1.128" transform="translate(2.338 45.171)" fill="#fcc82e"/>
          <rect id="Rectángulo_41141" data-name="Rectángulo 41141" width="39.832" height="1.128" transform="translate(5.735 47.917)" fill="#fcc82e"/>
          <rect id="Rectángulo_41142" data-name="Rectángulo 41142" width="39.832" height="1.128" transform="translate(5.735 56.562)" fill="#fcc82e"/>
          <rect id="Rectángulo_41143" data-name="Rectángulo 41143" width="38.161" height="1.128" transform="translate(9.482 65.026)" fill="#fcc82e"/>
          <rect id="Rectángulo_41144" data-name="Rectángulo 41144" width="8.532" height="1.128" transform="translate(5.735 59.5)" fill="#fcc82e"/>
          <rect id="Rectángulo_41145" data-name="Rectángulo 41145" width="8.532" height="1.128" transform="translate(5.735 62.294)" fill="#fcc82e"/>
          <rect id="Rectángulo_41146" data-name="Rectángulo 41146" width="39.832" height="1.128" transform="translate(5.735 50.677)" fill="#fcc82e"/>
          <rect id="Rectángulo_41147" data-name="Rectángulo 41147" width="21.551" height="1.128" transform="translate(5.735 53.436)" fill="#fcc82e"/>
          <rect id="Rectángulo_41148" data-name="Rectángulo 41148" width="9.887" height="1.128" transform="translate(9.505 67.838)" fill="#fcc82e"/>
          <rect id="Rectángulo_41149" data-name="Rectángulo 41149" width="9.887" height="1.128" transform="translate(9.505 70.423)" fill="#fcc82e"/>
          <rect id="Rectángulo_41150" data-name="Rectángulo 41150" width="39.832" height="1.128" transform="translate(12.902 73.169)" fill="#fcc82e"/>
          <rect id="Rectángulo_41151" data-name="Rectángulo 41151" width="31.698" height="1.128" transform="translate(12.902 81.815)" fill="#fcc82e"/>
          <rect id="Rectángulo_41152" data-name="Rectángulo 41152" width="39.693" height="1.128" transform="translate(12.902 84.752)" fill="#fcc82e"/>
          <rect id="Rectángulo_41153" data-name="Rectángulo 41153" width="39.832" height="1.128" transform="translate(12.902 75.929)" fill="#fcc82e"/>
          <rect id="Rectángulo_41154" data-name="Rectángulo 41154" width="21.551" height="1.128" transform="translate(12.902 78.689)" fill="#fcc82e"/>
          <rect id="Rectángulo_41155" data-name="Rectángulo 41155" width="10.151" height="1.128" transform="translate(6.11 14.053)" fill="#fcc82e"/>
        </g>
        <g id="Grupo_129795" data-name="Grupo 129795" transform="translate(112.479 47.178)">
          <path id="Trazado_190514" data-name="Trazado 190514" d="M630.017-471.913v-.5l3.57-1.552v.759l-2.384,1.042,2.384,1.042v.759Z" transform="translate(-630.017 473.962)" fill="#bbdbf3"/>
          <path id="Trazado_190515" data-name="Trazado 190515" d="M778.52-346.569v-.759l2.385-1.042-2.385-1.042v-.759l3.57,1.553v.5Z" transform="translate(-674.295 437.053)" fill="#bbdbf3"/>
          <rect id="Rectángulo_41156" data-name="Rectángulo 41156" width="14.196" height="1.172" transform="translate(4.894 1.215)" fill="#bbdbf3"/>
          <rect id="Rectángulo_41157" data-name="Rectángulo 41157" width="14.196" height="1.172" transform="translate(0 5.745)" fill="#bbdbf3"/>
          <rect id="Rectángulo_41158" data-name="Rectángulo 41158" width="14.196" height="1.172" transform="translate(3.024 8.9)" fill="#bbdbf3"/>
          <rect id="Rectángulo_41159" data-name="Rectángulo 41159" width="14.196" height="1.172" transform="translate(3.024 17.586)" fill="#bbdbf3"/>
          <rect id="Rectángulo_41160" data-name="Rectángulo 41160" width="14.196" height="1.172" transform="translate(3.024 20.272)" fill="#bbdbf3"/>
          <rect id="Rectángulo_41161" data-name="Rectángulo 41161" width="42.812" height="1.172" transform="translate(7.902 11.906)" fill="#bbdbf3"/>
          <rect id="Rectángulo_41162" data-name="Rectángulo 41162" width="89.882" height="1.172" transform="translate(7.902 23.126)" fill="#bbdbf3"/>
          <rect id="Rectángulo_41163" data-name="Rectángulo 41163" width="89.882" height="1.172" transform="translate(7.902 32.113)" fill="#bbdbf3"/>
          <rect id="Rectángulo_41164" data-name="Rectángulo 41164" width="86.111" height="1.172" transform="translate(16.356 40.911)" fill="#bbdbf3"/>
          <rect id="Rectángulo_41165" data-name="Rectángulo 41165" width="12.25" height="1.172" transform="translate(7.902 35.167)" fill="#bbdbf3"/>
          <rect id="Rectángulo_41166" data-name="Rectángulo 41166" width="12.25" height="1.172" transform="translate(7.902 38.071)" fill="#bbdbf3"/>
          <rect id="Rectángulo_41167" data-name="Rectángulo 41167" width="89.882" height="1.172" transform="translate(7.902 25.995)" fill="#bbdbf3"/>
          <rect id="Rectángulo_41168" data-name="Rectángulo 41168" width="30.944" height="1.172" transform="translate(7.902 28.864)" fill="#bbdbf3"/>
          <rect id="Rectángulo_41169" data-name="Rectángulo 41169" width="12.787" height="1.172" transform="translate(3.024 44.266)" fill="#bbdbf3"/>
          <rect id="Rectángulo_41170" data-name="Rectángulo 41170" width="12.787" height="1.172" transform="translate(3.024 46.953)" fill="#bbdbf3"/>
          <rect id="Rectángulo_41171" data-name="Rectángulo 41171" width="51.515" height="1.172" transform="translate(7.418 49.807)" fill="#bbdbf3"/>
          <rect id="Rectángulo_41172" data-name="Rectángulo 41172" width="51.515" height="1.172" transform="translate(7.418 58.794)" fill="#bbdbf3"/>
          <rect id="Rectángulo_41173" data-name="Rectángulo 41173" width="77.562" height="1.172" transform="translate(14.755 67.591)" fill="#bbdbf3"/>
          <rect id="Rectángulo_41174" data-name="Rectángulo 41174" width="11.034" height="1.172" transform="translate(7.418 61.847)" fill="#bbdbf3"/>
          <rect id="Rectángulo_41175" data-name="Rectángulo 41175" width="11.034" height="1.172" transform="translate(7.418 64.752)" fill="#bbdbf3"/>
          <rect id="Rectángulo_41176" data-name="Rectángulo 41176" width="51.515" height="1.172" transform="translate(7.418 52.676)" fill="#bbdbf3"/>
          <rect id="Rectángulo_41177" data-name="Rectángulo 41177" width="27.872" height="1.172" transform="translate(7.418 55.545)" fill="#bbdbf3"/>
          <rect id="Rectángulo_41178" data-name="Rectángulo 41178" width="12.787" height="1.172" transform="translate(12.292 70.515)" fill="#bbdbf3"/>
          <rect id="Rectángulo_41179" data-name="Rectángulo 41179" width="12.787" height="1.172" transform="translate(12.292 73.201)" fill="#bbdbf3"/>
          <rect id="Rectángulo_41180" data-name="Rectángulo 41180" width="80.959" height="1.172" transform="translate(21.707 76.056)" fill="#bbdbf3"/>
          <rect id="Rectángulo_41181" data-name="Rectángulo 41181" width="40.995" height="1.172" transform="translate(16.686 85.042)" fill="#bbdbf3"/>
          <rect id="Rectángulo_41182" data-name="Rectángulo 41182" width="80.676" height="1.172" transform="translate(21.707 88.096)" fill="#bbdbf3"/>
          <rect id="Rectángulo_41183" data-name="Rectángulo 41183" width="80.959" height="1.172" transform="translate(21.707 78.924)" fill="#bbdbf3"/>
          <rect id="Rectángulo_41184" data-name="Rectángulo 41184" width="27.872" height="1.172" transform="translate(16.686 81.793)" fill="#bbdbf3"/>
          <rect id="Rectángulo_41185" data-name="Rectángulo 41185" width="13.128" height="1.172" transform="translate(7.902 14.607)" fill="#bbdbf3"/>
        </g>
        <rect id="Rectángulo_41186" data-name="Rectángulo 41186" width="2.455" height="94.193" transform="translate(103.524 45.152)" fill="#e5f0f8"/>
      </g>
      <g id="Grupo_129803" data-name="Grupo 129803" transform="translate(15.171 173.557)">
        <path id="Trazado_190516" data-name="Trazado 190516" d="M476.967-329.384l93.177,2.854a25.281,25.281,0,0,1,18.006,8.345l23.738,26.342a1.835,1.835,0,0,1-1.083,3.041l-1.5.232a4.573,4.573,0,0,1-4.252-1.643l-18.814-23.246a25.28,25.28,0,0,0-19.623-9.377l-94.888-.1Z" transform="translate(-463.152 338.674)" fill="#93acbf"/>
        <path id="Trazado_190517" data-name="Trazado 190517" d="M602.117-329.384,508.94-326.53a25.283,25.283,0,0,0-18.006,8.345L467.2-291.843a1.835,1.835,0,0,0,1.083,3.041l1.5.232a4.572,4.572,0,0,0,4.252-1.643l18.814-23.246a25.28,25.28,0,0,1,19.623-9.377l94.888-.1Z" transform="translate(-461.66 338.674)" fill="#93acbf"/>
        <path id="Trazado_190518" data-name="Trazado 190518" d="M612.566-332.01a32.8,32.8,0,0,1-10.987-3.8,52.961,52.961,0,0,0-26.365-6.793c-10.246.346-16.405,2.13-20.551,5.3s-5.123,3.454-8.635,2.878a75.485,75.485,0,0,0-9.383-.576,75.486,75.486,0,0,0-9.383.576c-3.511.576-4.49.288-8.635-2.878s-10.3-4.95-20.551-5.3a52.956,52.956,0,0,0-26.364,6.793,32.8,32.8,0,0,1-10.987,3.8,1.459,1.459,0,0,0-1.217,1.441v2.317a1.457,1.457,0,0,0,1.273,1.45c1.649.2,4.452.892,5.635,3.258,1.727,3.454,2.648,14.506,9.556,22.1s15.427,12.089,29.473,8.865,19.226-15.657,21.184-21.644a37.1,37.1,0,0,0,2.015-9.9s-2.015-1.9-.979-3.742,8.98-1.9,8.98-1.9,7.944.058,8.98,1.9-.978,3.742-.978,3.742a37.065,37.065,0,0,0,2.015,9.9c1.957,5.987,7.138,18.42,21.184,21.644s22.565-1.266,29.472-8.865,7.829-18.651,9.556-22.1c1.183-2.366,3.986-3.057,5.634-3.258a1.457,1.457,0,0,0,1.273-1.45v-2.317A1.459,1.459,0,0,0,612.566-332.01Z" transform="translate(-459.51 342.62)" fill="#586773"/>
        <g id="Grupo_129799" data-name="Grupo 129799" transform="translate(13.047 1.806)">
          <path id="Trazado_190519" data-name="Trazado 190519" d="M504.619-340.047c7.675.032,20.723,3.991,23.947,13.816s-.768,32.082-23.947,33.157-29.013-24.254-25.635-32.85S489.23-340.11,504.619-340.047Z" transform="translate(-478.1 340.048)" fill="#e5f0f8"/>
          <g id="Grupo_129798" data-name="Grupo 129798" clip-path="url(#clip-path)">
            <g id="Grupo_129797" data-name="Grupo 129797" transform="translate(-7.983 -12.88)">
              <path id="Trazado_190520" data-name="Trazado 190520" d="M495.959-328.8l-3.934,5.885-20.3-.02,5.239-6.444Z" transform="translate(-468.216 349.749)" fill="#93acbf"/>
              <path id="Trazado_190521" data-name="Trazado 190521" d="M518.407-328.133l-1.824,2.729-1.9,2.836h-3.775l.632-.945,3.162-4.733Z" transform="translate(-479.899 349.409)" fill="#93acbf"/>
              <path id="Trazado_190522" data-name="Trazado 190522" d="M468.677-278.954l2.463,1.644a4.637,4.637,0,0,1-1.358,0l-1.5-.233a1.835,1.835,0,0,1-1.079-3.042l9.946-11.038Z" transform="translate(-466.725 338.49)" fill="#6da8c6"/>
              <path id="Trazado_190523" data-name="Trazado 190523" d="M511.02-324.2l-1.9,2.836-2.769,4.141v.007a25.012,25.012,0,0,0-5.891,5.3l-8.209,10.139,13.095-19.586.632-.945A24.734,24.734,0,0,1,511.02-324.2Z" transform="translate(-474.336 348.202)" fill="#93acbf"/>
              <path id="Trazado_190524" data-name="Trazado 190524" d="M623.944-322.94l-26.416.027h-.013l-42.134.053H553.5l-24.445.027a24.911,24.911,0,0,0-6.717.919L523-322.9l2.423-3.621a.474.474,0,0,1,.1-.007l29.778-.912h.08l63.317-1.944Z" transform="translate(-483.307 349.749)" fill="#93acbf"/>
              <path id="Trazado_190525" data-name="Trazado 190525" d="M525.24-355.072l-11.923,17.835-7.063-.22,14-20.944Z" transform="translate(-478.511 358.4)" fill="#fff"/>
              <path id="Trazado_190526" data-name="Trazado 190526" d="M486.5-292.22,475.533-275.8l-2.516-1.684a4.579,4.579,0,0,0,2.9-1.644Z" transform="translate(-468.601 338.668)" fill="#f2fdff"/>
              <path id="Trazado_190527" data-name="Trazado 190527" d="M501.088-320.167a25.2,25.2,0,0,0-5.725,4.726l-13.781,15.3,13.381-20.032Z" transform="translate(-471.155 347.003)" fill="#fff"/>
              <path id="Trazado_190528" data-name="Trazado 190528" d="M535.412-348.048,526.4-334.567l-4.813-.146,10.432-15.6Z" transform="translate(-483.084 355.991)" fill="#fff"/>
              <path id="Trazado_190529" data-name="Trazado 190529" d="M523.648-327.938l-1.205,1.8-2.423,3.621-.659.985a25.23,25.23,0,0,0-7.017,3.148l2.769-4.141,1.9-2.836,1.824-2.729Z" transform="translate(-480.326 349.361)" fill="#bbdbf3"/>
              <path id="Trazado_190530" data-name="Trazado 190530" d="M509.642-318.741l-26.5,39.643-3.4-2.27,22.874-34.218v-.007A25.227,25.227,0,0,1,509.642-318.741Z" transform="translate(-470.609 346.575)" fill="#fff"/>
              <path id="Trazado_190531" data-name="Trazado 190531" d="M502.361-328.339l-3.163,4.733-.632.945-13.095,19.586-.013.02-10.591,13.088a4.579,4.579,0,0,1-2.9,1.644l-2.463-1.644,8.468-12.669.007-.006,13.781-15.3a25.2,25.2,0,0,1,5.725-4.726l-6.124-.007,3.934-5.885Z" transform="translate(-467.554 349.503)" fill="#bbdbf3"/>
              <path id="Trazado_190532" data-name="Trazado 190532" d="M626.174-288.352l-1.5.233a4.581,4.581,0,0,1-4.254-1.644L601.609-313.01a25.265,25.265,0,0,0-19.625-9.373l-26.323-.027h-1.877l-30.5-.04,2.423-3.621,1.205-1.8,28.672.886h.08l29.858.912a25.29,25.29,0,0,1,12.276,3.615h.013a25.641,25.641,0,0,1,5.712,4.726l23.74,26.343A1.834,1.834,0,0,1,626.174-288.352Z" transform="translate(-483.587 349.299)" fill="#93acbf"/>
            </g>
          </g>
        </g>
        <path id="Trazado_190534" data-name="Trazado 190534" d="M612.36-340.047c-7.675.032-20.723,3.991-23.947,13.816s.768,32.082,23.947,33.157,29.013-24.254,25.635-32.85S627.749-340.11,612.36-340.047Z" transform="translate(-497.654 341.853)" fill="#e5f0f8"/>
        <circle id="Elipse_4903" data-name="Elipse 4903" cx="1.075" cy="1.075" r="1.075" transform="translate(3.262 12.475)" fill="#93acbf"/>
        <g id="Grupo_129802" data-name="Grupo 129802" transform="translate(89.786 1.806)">
          <g id="Grupo_129801" data-name="Grupo 129801" clip-path="url(#clip-path-2)">
            <g id="Grupo_129800" data-name="Grupo 129800" transform="translate(-54.789 -7.901)">
              <path id="Trazado_190535" data-name="Trazado 190535" d="M656.976-285.9l-1.5.233a4.581,4.581,0,0,1-4.254-1.644l-18.813-23.247a25.355,25.355,0,0,0-5.825-5.259l2.576-3.842h.007a25.594,25.594,0,0,1,5.152,4.374l23.74,26.343A1.834,1.834,0,0,1,656.976-285.9Z" transform="translate(-544.322 341.87)" fill="#93acbf"/>
              <path id="Trazado_190536" data-name="Trazado 190536" d="M583.2-328l-1.285,1.9-2.43,3.615-27.974.034-42.14-.053a25.294,25.294,0,0,1,12.283-3.615l29.858-.912Z" transform="translate(-509.374 344.356)" fill="#93acbf"/>
              <path id="Trazado_190537" data-name="Trazado 190537" d="M626.713-328.493l-3.076,4.574-.859,1.278-1.7,2.53a25.556,25.556,0,0,0-3.082-1.225l.879-1.3,1.671-2.483,2.183-3.249Z" transform="translate(-541.76 344.503)" fill="#93acbf"/>
              <path id="Trazado_190538" data-name="Trazado 190538" d="M656.222-322.94l-25.624.027,4.021-5.972,16.357-.5Z" transform="translate(-545.518 344.769)" fill="#93acbf"/>
              <path id="Trazado_190539" data-name="Trazado 190539" d="M620.1-328.312l-2.183,3.249-1.671,2.483-.879,1.3a24.931,24.931,0,0,0-6.191-1.178l.073-.113,2.43-3.615,1.285-1.9Z" transform="translate(-539.13 344.449)" fill="#bbdbf3"/>
              <path id="Trazado_190540" data-name="Trazado 190540" d="M600.916-319.975a24.932,24.932,0,0,1,6.191,1.178L586.289-287.86l-4.806-3.235Z" transform="translate(-530.874 341.964)" fill="#fff"/>
              <path id="Trazado_190541" data-name="Trazado 190541" d="M630.386-348.07l-8.681,12.9-7.137.22,11-16.357Z" transform="translate(-540.739 351.305)" fill="#fff"/>
              <path id="Trazado_190542" data-name="Trazado 190542" d="M628.149-322.7h-.805c.186.119.379.233.566.352l-2.576,3.842a25.016,25.016,0,0,0-2.949-1.658l1.7-2.53.859-1.278,3.075-4.574,4.148-.126Z" transform="translate(-543.069 344.557)" fill="#bbdbf3"/>
              <path id="Trazado_190543" data-name="Trazado 190543" d="M613.815-316.55a25.005,25.005,0,0,1,2.949,1.658l-20.325,30.2-2.8-1.877Z" transform="translate(-534.5 340.942)" fill="#fff"/>
              <path id="Trazado_190544" data-name="Trazado 190544" d="M629.451-320.164h.805l-.232.352h-.007C629.83-319.931,629.637-320.045,629.451-320.164Z" transform="translate(-545.176 342.02)" fill="#deecff"/>
              <path id="Trazado_190545" data-name="Trazado 190545" d="M641.629-344.432l-7.063,10.5-4.147.126,8.415-12.509Z" transform="translate(-545.465 349.817)" fill="#fff"/>
            </g>
          </g>
        </g>
        <circle id="Elipse_4904" data-name="Elipse 4904" cx="1.075" cy="1.075" r="1.075" transform="translate(8.572 12.475)" fill="#93acbf"/>
        <circle id="Elipse_4905" data-name="Elipse 4905" cx="1.075" cy="1.075" r="1.075" transform="translate(148.861 12.475)" fill="#93acbf"/>
        <path id="Trazado_190547" data-name="Trazado 190547" d="M664.047-323.771a1.075,1.075,0,0,0,1.075,1.074,1.075,1.075,0,0,0,1.075-1.074,1.075,1.075,0,0,0-1.075-1.075A1.074,1.074,0,0,0,664.047-323.771Z" transform="translate(-520.495 337.321)" fill="#93acbf"/>
      </g>
      <rect id="Rectángulo_41187" data-name="Rectángulo 41187" width="286.118" height="7.156" rx="3.578" transform="translate(2.768 224.668)" fill="#0775ef"/>
      <g id="Grupo_129805" data-name="Grupo 129805" transform="translate(0 95.917)">
        <rect id="Rectángulo_41188" data-name="Rectángulo 41188" width="49.66" height="34.2" rx="16.237" fill="#0775ef"/>
        <rect id="Rectángulo_41189" data-name="Rectángulo 41189" width="49.66" height="34.2" rx="16.237" transform="translate(2.656)" fill="#088cfc"/>
        <g id="Grupo_129804" data-name="Grupo 129804" transform="translate(5.312 3.164)">
          <path id="Trazado_190548" data-name="Trazado 190548" d="M445.463-428.906V-431.4l14.376-7.78v3.8l-9.6,5.222,9.6,5.222v3.8Z" transform="translate(-445.463 445.886)" fill="#fff"/>
          <path id="Trazado_190549" data-name="Trazado 190549" d="M471.177-420.865l-2.358-1.037,8.864-26.834,2.358,1.107Z" transform="translate(-452.427 448.736)" fill="#fff"/>
          <path id="Trazado_190550" data-name="Trazado 190550" d="M502.544-431.4v2.491l-14.376,7.78v-3.8l9.6-5.222-9.6-5.222v-3.8Z" transform="translate(-458.196 445.886)" fill="#fff"/>
        </g>
      </g>
      <g id="Grupo_129807" data-name="Grupo 129807" transform="translate(211.114 37.946)">
        <rect id="Rectángulo_41190" data-name="Rectángulo 41190" width="40.273" height="34.2" rx="14.622" transform="translate(0 0)" fill="#0775ef"/>
        <rect id="Rectángulo_41191" data-name="Rectángulo 41191" width="40.273" height="34.2" rx="14.622" transform="translate(2.154 0)" fill="#088cfc"/>
        <g id="Grupo_129806" data-name="Grupo 129806" transform="translate(9.702 3.904)">
          <path id="Trazado_190551" data-name="Trazado 190551" d="M760.366-528.141h-1.337a1.139,1.139,0,0,0-.728.222,1.647,1.647,0,0,0-.461.6,3.023,3.023,0,0,0-.253.832,5.923,5.923,0,0,0-.074.936v4.488a4.45,4.45,0,0,1-.253,1.754,4.044,4.044,0,0,1-.7,1.189,3.21,3.21,0,0,1-.847.713,2.786,2.786,0,0,1-.7.3v.089a2.339,2.339,0,0,1,.7.238,2.935,2.935,0,0,1,.847.653,3.572,3.572,0,0,1,.7,1.2,5.085,5.085,0,0,1,.253,1.887v4.458a5.726,5.726,0,0,0,.074.906,3.021,3.021,0,0,0,.253.832,1.639,1.639,0,0,0,.461.594,1.135,1.135,0,0,0,.728.223h1.337v2.14h-2.228a2.512,2.512,0,0,1-1.115-.268,2.936,2.936,0,0,1-1-.817,4.384,4.384,0,0,1-.729-1.411,6.626,6.626,0,0,1-.282-2.051v-3.983a4.361,4.361,0,0,0-.773-2.556,2.121,2.121,0,0,0-1.724-.922v-2.318a2.119,2.119,0,0,0,1.724-.922,4.354,4.354,0,0,0,.773-2.555v-4.7a4.626,4.626,0,0,1,.282-1.679,3.859,3.859,0,0,1,.729-1.219,3.074,3.074,0,0,1,1-.743,2.643,2.643,0,0,1,1.115-.253h2.228Z" transform="translate(-752.52 530.281)" fill="#fff"/>
          <path id="Trazado_190552" data-name="Trazado 190552" d="M777.928-506.028h1.337a1.142,1.142,0,0,0,.729-.223,1.651,1.651,0,0,0,.46-.594,3.049,3.049,0,0,0,.253-.832,6,6,0,0,0,.074-.936V-513.1a4.422,4.422,0,0,1,.252-1.753,4.025,4.025,0,0,1,.7-1.189,3.227,3.227,0,0,1,.847-.714,2.848,2.848,0,0,1,.7-.3v-.089a2.3,2.3,0,0,1-.7-.238,2.914,2.914,0,0,1-.847-.654,3.555,3.555,0,0,1-.7-1.2,5.055,5.055,0,0,1-.252-1.887v-4.458a5.823,5.823,0,0,0-.074-.907,3.051,3.051,0,0,0-.253-.832,1.66,1.66,0,0,0-.46-.6,1.146,1.146,0,0,0-.729-.222h-1.337v-2.14h2.229a2.528,2.528,0,0,1,1.115.267,2.946,2.946,0,0,1,1,.818,4.413,4.413,0,0,1,.728,1.411,6.62,6.62,0,0,1,.282,2.051v3.983a3.962,3.962,0,0,0,.744,2.556,2.2,2.2,0,0,0,1.753.921v2.318a2.2,2.2,0,0,0-1.753.922,3.961,3.961,0,0,0-.744,2.555v4.7A4.629,4.629,0,0,1,783-506.1a3.889,3.889,0,0,1-.728,1.218,3.081,3.081,0,0,1-1,.743,2.658,2.658,0,0,1-1.115.253h-2.229Z" transform="translate(-760.096 530.281)" fill="#fff"/>
        </g>
      </g>
      <g id="Grupo_129809" data-name="Grupo 129809" transform="translate(237.77 194.331)">
        <rect id="Rectángulo_41192" data-name="Rectángulo 41192" width="42.772" height="24.745" rx="12.372" transform="translate(0 0)" fill="#f2bb16"/>
        <rect id="Rectángulo_41193" data-name="Rectángulo 41193" width="42.772" height="24.745" rx="12.372" transform="translate(2.212 0)" fill="#f9e181"/>
        <g id="Grupo_129808" data-name="Grupo 129808" transform="translate(5.944 5.542)">
          <path id="Trazado_190553" data-name="Trazado 190553" d="M795.005-301.985a3.637,3.637,0,0,0-1.4-1.1,4.159,4.159,0,0,0-1.743-.385,4.665,4.665,0,0,0-1.992.413,4.557,4.557,0,0,0-1.524,1.129,5.159,5.159,0,0,0-.983,1.68,6.049,6.049,0,0,0-.348,2.066,5.737,5.737,0,0,0,.33,1.946,4.875,4.875,0,0,0,.955,1.615,4.468,4.468,0,0,0,1.524,1.1,4.929,4.929,0,0,0,2.038.4,4.05,4.05,0,0,0,1.964-.46,4.228,4.228,0,0,0,1.432-1.285l1.488,1.12a6.131,6.131,0,0,1-.515.578,5.127,5.127,0,0,1-.973.753,6.9,6.9,0,0,1-1.46.66,6.246,6.246,0,0,1-1.974.284,6.415,6.415,0,0,1-2.781-.587,6.708,6.708,0,0,1-2.111-1.542,6.691,6.691,0,0,1-1.331-2.157,6.757,6.757,0,0,1-.459-2.433,7.615,7.615,0,0,1,.495-2.782,6.605,6.605,0,0,1,1.387-2.2,6.184,6.184,0,0,1,2.14-1.441,7.152,7.152,0,0,1,2.753-.514,6.754,6.754,0,0,1,2.524.5,4.724,4.724,0,0,1,2.03,1.524Z" transform="translate(-785.146 305.125)" fill="#fff"/>
          <path id="Trazado_190554" data-name="Trazado 190554" d="M804.061-296.857h4.186v-4.186h1.432v4.186h4.187v1.432h-4.187v4.186h-1.432v-4.186h-4.186Z" transform="translate(-790.786 303.908)" fill="#fff"/>
          <path id="Trazado_190555" data-name="Trazado 190555" d="M821.483-296.857h4.186v-4.186H827.1v4.186h4.187v1.432H827.1v4.186h-1.432v-4.186h-4.186Z" transform="translate(-795.98 303.908)" fill="#fff"/>
        </g>
      </g>
      <g id="Grupo_129810" data-name="Grupo 129810" transform="translate(244.527 3.219)">
        <path id="Trazado_190556" data-name="Trazado 190556" d="M786.985-576.134h24.549a.68.68,0,0,0,.681-.64c.074-1.357-.078-4.4-2.937-4.4-3.166,0-4.194,1.351-4.194,1.351s.277-5.507-5.144-5.5c-4.991.008-6.806,5.118-6.806,5.118s-4.778-2.249-6.786,3.144A.684.684,0,0,0,786.985-576.134Z" transform="translate(-786.303 585.322)" fill="#e5f0f8"/>
        <path id="Trazado_190557" data-name="Trazado 190557" d="M803.982-582.451l-1.86,2.56h.9v2.6h1.922v-2.6h.9Z" transform="translate(-791.02 584.466)" fill="#fff"/>
      </g>
      <path id="Trazado_190558" data-name="Trazado 190558" d="M864.063-453.612h0L866.828-455l-.285-.568-.809.4-.258-.514.809-.406-.408-.815-1.087.544-.258-.514,1.087-.544-.381-.761-1.519.761h0l-.34.17-1.195.6-.149.074h0l-4.517-9.024h0l1.786-.895a2.251,2.251,0,0,0,1-3.01l-1.03-2.06a2.252,2.252,0,0,0-3.01-1l-.025.012-.46.231-.015.008-3.685,1.847-.246.123-.765.382a2.2,2.2,0,0,0-1.021,1.053h0c-.009.025-.02.048-.029.072a2.263,2.263,0,0,0-.148,1.288,2.326,2.326,0,0,0,.2.6l.028.056h0l.437.875.072.143.489.981a2.216,2.216,0,0,0,.452.613,2.235,2.235,0,0,0,.343.269,2.259,2.259,0,0,0,1.5.337,2.147,2.147,0,0,0,.719-.217l1.492-.747.188-.1.062-.031h0l6.27,12.526a.376.376,0,0,0,.5.168l.494-.248h0l.495-.247a.376.376,0,0,0,.168-.5l-.164-.326.319-.16Zm-12.434-13.522-.237-.472,0,0a.747.747,0,0,1-.048-.129c0-.013-.006-.025-.009-.038a.767.767,0,0,1-.017-.1c0-.013,0-.025,0-.037a.727.727,0,0,1,0-.112l0-.027a.794.794,0,0,1,.171-.387l.019-.021a.749.749,0,0,1,.082-.081l.022-.018a.752.752,0,0,1,.119-.076l2.013-1.008.022-.01.694-.347,1.376-.689.268-.135.286-.142.538-.27a.734.734,0,0,1,.227-.067.784.784,0,0,1,.806.412l1.03,2.056a.741.741,0,0,1,.074.377.776.776,0,0,1-.42.659l-2.854,1.429-.2.1-1.713.858-.423.211a.762.762,0,0,1-.493.062.775.775,0,0,1-.545-.4l-.557-1.116-.093-.187Z" transform="translate(-560.72 554.99)" fill="#e5f0f8"/>
      <path id="Trazado_190559" data-name="Trazado 190559" d="M454.16-388.867l-5.529-3.382a4.182,4.182,0,0,1-1.782.4h0a4.183,4.183,0,0,1-1.783-.4l-5.529,3.382s-.752,11.239,7.312,14.628h0C454.912-377.628,454.16-388.867,454.16-388.867Z" transform="translate(-438.378 530.974)" fill="#fff"/>
      <path id="Trazado_190560" data-name="Trazado 190560" d="M451.79-485.243h-2.607v-3.6a3.481,3.481,0,0,0-3.478-3.478,3.481,3.481,0,0,0-3.478,3.478v3.6h-2.607a.312.312,0,0,0-.313.312v9.563a.312.312,0,0,0,.313.312H451.79a.312.312,0,0,0,.313-.312v-9.563A.312.312,0,0,0,451.79-485.243Zm-8.46-3.6a2.378,2.378,0,0,1,2.376-2.376,2.378,2.378,0,0,1,2.376,2.376v3.6H443.33Z" transform="translate(-438.316 560.812)" fill="#fff"/>
    </g>
  </g>
</svg>
