<svg xmlns="http://www.w3.org/2000/svg" xmlns:xlink="http://www.w3.org/1999/xlink" width="148" height="148" viewBox="0 0 148 148">
  <defs>
    <linearGradient id="linear-gradient" y1="0.5" x2="1" y2="0.5" gradientUnits="objectBoundingBox">
      <stop offset="0" stop-color="#4f52ff"/>
      <stop offset="1" stop-color="#4042e2"/>
    </linearGradient>
    <linearGradient id="linear-gradient-2" x1="0" y1="0.5" x2="1" y2="0.5" xlink:href="#linear-gradient"/>
  </defs>
  <g id="Grupo_109258" data-name="Grupo 109258" transform="translate(-6895.534 -3971.82)">
    <g id="Elipse_4811" data-name="Elipse 4811">
      <circle id="Elipse_4824" data-name="Elipse 4824" cx="74" cy="74" r="74" transform="translate(6895.534 3971.82)" fill="#4dcedf"/>
      <circle id="Elipse_4825" data-name="Elipse 4825" cx="73.5" cy="73.5" r="73.5" transform="translate(6896.034 3972.32)" fill="#4dcedf"/>
    </g>
    <g id="Grupo_109254" data-name="Grupo 109254">
      <path id="Rectángulo_40719" data-name="Rectángulo 40719" d="M3.169,0h55.68a3.169,3.169,0,0,1,3.169,3.169V29.043a3.789,3.789,0,0,1-3.789,3.789H3.169A3.169,3.169,0,0,1,0,29.663V3.169A3.169,3.169,0,0,1,3.169,0Z" transform="translate(6959.255 4001.595)" fill="#fff"/>
      <path id="Rectángulo_40720" data-name="Rectángulo 40720" d="M3.473,0H58.545a3.473,3.473,0,0,1,3.473,3.473V7.051a0,0,0,0,1,0,0H0a0,0,0,0,1,0,0V3.473A3.473,3.473,0,0,1,3.473,0Z" transform="translate(6959.255 4001.595)" fill="#e1e1e1"/>
      <g id="Grupo_109238" data-name="Grupo 109238">
        <path id="Trazado_115680" data-name="Trazado 115680" d="M7019.527,4034.428a2.606,2.606,0,0,0,.474-.079,1.748,1.748,0,0,0,1.052-.868,1.9,1.9,0,0,0,.191-1c0-.385,0-.8-.005-1.26,0-.911-.007-1.961-.011-3.143-.008-4.735-.021-11.578-.036-20.033q0-1.585,0-3.246,0-.829,0-1.678a1.325,1.325,0,0,0-.754-1.316,1.685,1.685,0,0,0-.814-.121h-.879l-1.782,0-3.665,0-15.877.011-36.38.008a2.418,2.418,0,0,0-.575.04,1.422,1.422,0,0,0-1.073,1.157,4.022,4.022,0,0,0-.02.582v1.8q0,2.39,0,4.748,0,4.715,0,9.282t0,8.959q0,2.2,0,4.344a1.65,1.65,0,0,0,1.024,1.585,2.422,2.422,0,0,0,1,.121h1.052l29.712.025,20.032.036,5.446.021,1.416.011c.319,0,.482.012.482.012s-.163.007-.482.011l-1.416.011-5.446.022-20.032.036-29.712.024h-1.052a2.585,2.585,0,0,1-1.081-.135,1.863,1.863,0,0,1-1.158-1.78q0-2.148,0-4.344,0-4.391,0-8.959t0-9.282v-6.545a4.182,4.182,0,0,1,.022-.618,1.65,1.65,0,0,1,.66-1.073,1.612,1.612,0,0,1,.585-.268,2.513,2.513,0,0,1,.627-.046l36.38.009,15.877.01,3.665,0,1.782,0h.879a1.856,1.856,0,0,1,.888.139,1.5,1.5,0,0,1,.851,1.474l0,1.678q0,1.66,0,3.246c-.015,8.455-.027,15.3-.036,20.033,0,1.182-.007,2.232-.01,3.143q0,.683-.005,1.26a2.781,2.781,0,0,1-.038.552,1.846,1.846,0,0,1-.17.47,1.753,1.753,0,0,1-1.086.869A1.427,1.427,0,0,1,7019.527,4034.428Z" fill="#1a2e35"/>
      </g>
      <g id="Grupo_109239" data-name="Grupo 109239">
        <circle id="Elipse_4826" data-name="Elipse 4826" cx="1.155" cy="1.155" r="1.155" transform="translate(6962.715 4004.515)" fill="#fff"/>
        <path id="Trazado_115681" data-name="Trazado 115681" d="M6968.579,4005.67a1.155,1.155,0,1,1-1.155-1.155A1.156,1.156,0,0,1,6968.579,4005.67Z" fill="#fff"/>
        <circle id="Elipse_4827" data-name="Elipse 4827" cx="1.155" cy="1.155" r="1.155" transform="translate(6969.822 4004.515)" fill="#fff"/>
      </g>
      <g id="Grupo_109253" data-name="Grupo 109253">
        <g id="Grupo_109240" data-name="Grupo 109240">
          <path id="Trazado_115682" data-name="Trazado 115682" d="M6977.125,4018.581h-7.21a.782.782,0,0,1-.782-.782h0a.782.782,0,0,1,.782-.782h7.21a.782.782,0,0,1,.782.782h0A.782.782,0,0,1,6977.125,4018.581Z" fill="#1a2e35"/>
        </g>
        <g id="Grupo_109241" data-name="Grupo 109241">
          <path id="Trazado_115683" data-name="Trazado 115683" d="M6977.125,4022.676h-7.21a.782.782,0,0,1-.782-.782h0a.782.782,0,0,1,.782-.782h7.21a.782.782,0,0,1,.782.782h0A.782.782,0,0,1,6977.125,4022.676Z" fill="#e1e1e1"/>
        </g>
        <g id="Grupo_109242" data-name="Grupo 109242">
          <path id="Trazado_115684" data-name="Trazado 115684" d="M7015.182,4018.581h-20.911a.782.782,0,0,1-.782-.782h0a.782.782,0,0,1,.782-.782h20.911a.782.782,0,0,1,.782.782h0A.782.782,0,0,1,7015.182,4018.581Z" fill="#e1e1e1"/>
        </g>
        <g id="Grupo_109243" data-name="Grupo 109243">
          <path id="Trazado_115685" data-name="Trazado 115685" d="M6977.125,4026.907h-7.21a.782.782,0,0,1-.782-.782h0a.782.782,0,0,1,.782-.782h7.21a.782.782,0,0,1,.782.782h0A.782.782,0,0,1,6977.125,4026.907Z" fill="#ff735d"/>
        </g>
        <g id="Grupo_109244" data-name="Grupo 109244">
          <path id="Trazado_115686" data-name="Trazado 115686" d="M7010.194,4022.676h-7.21a.782.782,0,0,1-.782-.782h0a.781.781,0,0,1,.782-.782h7.21a.782.782,0,0,1,.782.782h0A.782.782,0,0,1,7010.194,4022.676Z" fill="#ff735d"/>
        </g>
        <g id="Grupo_109245" data-name="Grupo 109245">
          <path id="Trazado_115687" data-name="Trazado 115687" d="M6988.675,4018.581h-7.21a.782.782,0,0,1-.782-.782h0a.782.782,0,0,1,.782-.782h7.21a.782.782,0,0,1,.782.782h0A.782.782,0,0,1,6988.675,4018.581Z" fill="#375a64"/>
        </g>
        <g id="Grupo_109246" data-name="Grupo 109246">
          <path id="Trazado_115688" data-name="Trazado 115688" d="M6997.964,4022.676h-16.5a.782.782,0,0,1-.782-.782h0a.782.782,0,0,1,.782-.782h16.5a.782.782,0,0,1,.782.782h0A.782.782,0,0,1,6997.964,4022.676Z" fill="#1a2e35"/>
        </g>
        <g id="Grupo_109247" data-name="Grupo 109247">
          <path id="Trazado_115689" data-name="Trazado 115689" d="M7014.147,4026.907H6981.43a.765.765,0,0,1-.747-.782h0a.765.765,0,0,1,.747-.782h32.717a.765.765,0,0,1,.747.782h0A.765.765,0,0,1,7014.147,4026.907Z" fill="#e1e1e1"/>
        </g>
        <g id="Grupo_109248" data-name="Grupo 109248">
          <path id="Trazado_115690" data-name="Trazado 115690" d="M6997.62,4029.888h-16.155a.782.782,0,0,1-.782-.782h0a.783.783,0,0,1,.782-.783h16.155a.784.784,0,0,1,.783.783h0A.783.783,0,0,1,6997.62,4029.888Z" fill="#e1e1e1"/>
        </g>
        <g id="Grupo_109249" data-name="Grupo 109249">
          <path id="Trazado_115691" data-name="Trazado 115691" d="M6966.381,4017.8a.794.794,0,1,1-.794-.794A.794.794,0,0,1,6966.381,4017.8Z" fill="#375a64"/>
        </g>
        <g id="Grupo_109250" data-name="Grupo 109250">
          <path id="Trazado_115692" data-name="Trazado 115692" d="M6966.381,4013.881a.794.794,0,1,1-.794-.8A.794.794,0,0,1,6966.381,4013.881Z" fill="#375a64"/>
        </g>
        <g id="Grupo_109251" data-name="Grupo 109251">
          <circle id="Elipse_4828" data-name="Elipse 4828" cx="0.795" cy="0.795" r="0.795" transform="translate(6964.792 4021.087)" fill="#375a64"/>
        </g>
        <g id="Grupo_109252" data-name="Grupo 109252">
          <circle id="Elipse_4829" data-name="Elipse 4829" cx="0.795" cy="0.795" r="0.795" transform="translate(6964.792 4025.331)" fill="#375a64"/>
        </g>
      </g>
      <rect id="Rectángulo_40721" data-name="Rectángulo 40721" width="5.273" height="1.509" rx="0.754" transform="translate(6969.297 4012.941)" fill="#375a64"/>
    </g>
    <g id="Grupo_109255" data-name="Grupo 109255">
      <path id="Trazado_115693" data-name="Trazado 115693" d="M6993.1,4086.674a7.454,7.454,0,1,0,9.056-5.428A7.521,7.521,0,0,0,6993.1,4086.674Zm1.84.218h0a5.612,5.612,0,0,1,7-3.792h0a5.671,5.671,0,0,1,3.761,7.055h0a5.611,5.611,0,0,1-7,3.792h0A5.671,5.671,0,0,1,6994.936,4086.892Z" fill="#dbd2d2"/>
      <path id="Trazado_115694" data-name="Trazado 115694" d="M6987.934,4086.686c.035.179.2.242.593.4.711.285,1.422.569,2.123.878a.5.5,0,0,1,.234.348c.081.75.117,1.5.205,2.254a.409.409,0,0,1-.2.487c-.827.524-1.64,1.071-2.449,1.6a10.84,10.84,0,0,0,1.766,3.39c.858-.364,1.741-.722,2.608-1.115a.467.467,0,0,1,.632.118,19.876,19.876,0,0,0,1.666,1.4c.232.179.356.319.281.642-.2.836-.341,1.683-.522,2.523-.049.226-.006.367.215.436l3.12.971c.255.08.295-.132.359-.284.323-.768.65-1.534.947-2.312a.536.536,0,0,1,.576-.4c.834-.026,1.665-.107,2.562-.171l1.717,2.628a11.123,11.123,0,0,0,3.326-1.8l-1.176-2.848c.617-.788,1.205-1.505,1.749-2.254a.419.419,0,0,1,.517-.2c.821.182,1.647.338,2.469.514.177.038.308.045.4-.151a10.842,10.842,0,0,0,.98-3.093.336.336,0,0,0-.252-.421c-.8-.333-1.592-.682-2.393-1.011a.394.394,0,0,1-.293-.4c-.061-.828-.157-1.653-.275-2.475a.335.335,0,0,1,.183-.388c.816-.542,1.629-1.09,2.463-1.65a12.064,12.064,0,0,0-1.737-3.333l-2.944,1.235-2.407-2.012c.147-.74.323-1.591.484-2.444.132-.7.232-.609-.466-.9a1.193,1.193,0,0,1-.185-.122l-1.873-.568a2.341,2.341,0,0,1-.437-.055c-.357-.114-.558-.032-.7.354-.3.8-.644,1.59-.989,2.375a.452.452,0,0,1-.306.224c-.73.094-1.471.123-2.194.255a.552.552,0,0,1-.677-.312c-.5-.788-1.023-1.556-1.589-2.41l-3.318,1.756c.086.222.134.35.187.477.322.781.638,1.566.975,2.341a.427.427,0,0,1-.1.523c-.514.616-.988,1.265-1.5,1.884a.5.5,0,0,1-.4.142c-.679-.119-1.351-.276-2.028-.408-.547-.108-.751-.145-.924.035Zm4.906-.078a7.722,7.722,0,0,1,3.534-4.767,7.68,7.68,0,0,1,10.573,2.708,7.81,7.81,0,0,1-2.687,10.657,7.68,7.68,0,0,1-10.573-2.708A7.778,7.778,0,0,1,6992.84,4086.608Z" fill="#dbd2d2"/>
    </g>
    <rect id="Rectángulo_40722" data-name="Rectángulo 40722" width="12.634" height="6.436" rx="3.218" transform="translate(6962.621 4023.172)" fill="#5184ce"/>
    <path id="Trazado_115695" data-name="Trazado 115695" d="M6961.336,4086.616l-9.762,4.5v1h34.767v-1l-9.851-4.5Z" fill="#466eb6"/>
    <rect id="Rectángulo_40723" data-name="Rectángulo 40723" width="15.161" height="19.295" transform="translate(6961.336 4067.329)" fill="#466eb6"/>
    <path id="Trazado_115696" data-name="Trazado 115696" d="M7014.792,4073.382v-43.51a3.744,3.744,0,0,0-3.744-3.744h-84.362a3.744,3.744,0,0,0-3.744,3.744v43.51Z" fill="#466eb6"/>
    <rect id="Rectángulo_40724" data-name="Rectángulo 40724" width="34.768" height="0.997" transform="translate(6951.574 4091.116)" fill="#184655" opacity="0.3" style="mix-blend-mode: multiply;isolation: isolate"/>
    <rect id="Rectángulo_40725" data-name="Rectángulo 40725" width="15.154" height="2.264" transform="translate(6961.336 4084.352)" fill="#184655" opacity="0.3" style="mix-blend-mode: multiply;isolation: isolate"/>
    <path id="Trazado_115697" data-name="Trazado 115697" d="M6922.942,4073.382v6.972a2.421,2.421,0,0,0,2.142,2.626h87.566a2.421,2.421,0,0,0,2.142-2.626v-6.972Z" fill="#5184ce"/>
    <path id="Trazado_115698" data-name="Trazado 115698" d="M6969.865,4024.881a.853.853,0,1,1-.853-.853A.853.853,0,0,1,6969.865,4024.881Z" fill="#184655"/>
    <path id="Trazado_115699" data-name="Trazado 115699" d="M7012.642,4071.493v-41.5a2.007,2.007,0,0,0-2.041-1.97h-83.468a2.007,2.007,0,0,0-2.041,1.97v41.5Z" fill="#cce6ff"/>
    <rect id="Rectángulo_40726" data-name="Rectángulo 40726" width="52.621" height="36.718" transform="translate(6928.937 4031.368)" fill="#e9ffff"/>
    <rect id="Rectángulo_40727" data-name="Rectángulo 40727" width="52.621" height="4.299" transform="translate(6928.937 4031.368)" fill="#5184ce"/>
    <rect id="Rectángulo_40728" data-name="Rectángulo 40728" width="3.592" height="27.802" transform="translate(7000.285 4040.555)" fill="#9bc1f9" opacity="0.6"/>
    <rect id="Rectángulo_40729" data-name="Rectángulo 40729" width="3.592" height="19.322" transform="translate(6995.269 4049.035)" fill="#9bc1f9" opacity="0.6"/>
    <rect id="Rectángulo_40730" data-name="Rectángulo 40730" width="3.592" height="21.778" transform="translate(7005.374 4046.578)" fill="#9bc1f9" opacity="0.6"/>
    <rect id="Rectángulo_40731" data-name="Rectángulo 40731" width="3.592" height="22.635" transform="translate(6990.252 4045.722)" fill="#9bc1f9" opacity="0.6"/>
    <rect id="Rectángulo_40732" data-name="Rectángulo 40732" width="3.592" height="15.924" transform="translate(6985.236 4052.433)" fill="#9bc1f9" opacity="0.6"/>
    <g id="Grupo_109256" data-name="Grupo 109256">
      <rect id="Rectángulo_40733" data-name="Rectángulo 40733" width="3.592" height="21.394" transform="translate(7000.285 4046.962)" fill="#9bc1f9" opacity="0.3" style="mix-blend-mode: multiply;isolation: isolate"/>
      <rect id="Rectángulo_40734" data-name="Rectángulo 40734" width="3.592" height="14.869" transform="translate(6995.269 4053.488)" fill="#9bc1f9" opacity="0.3" style="mix-blend-mode: multiply;isolation: isolate"/>
      <rect id="Rectángulo_40735" data-name="Rectángulo 40735" width="3.592" height="16.759" transform="translate(7005.374 4051.598)" fill="#9bc1f9" opacity="0.3" style="mix-blend-mode: multiply;isolation: isolate"/>
      <rect id="Rectángulo_40736" data-name="Rectángulo 40736" width="3.592" height="17.418" transform="translate(6990.252 4050.938)" fill="#9bc1f9" opacity="0.3" style="mix-blend-mode: multiply;isolation: isolate"/>
      <rect id="Rectángulo_40737" data-name="Rectángulo 40737" width="3.592" height="12.254" transform="translate(6985.236 4056.103)" fill="#9bc1f9" opacity="0.3" style="mix-blend-mode: multiply;isolation: isolate"/>
    </g>
    <rect id="Rectángulo_40738" data-name="Rectángulo 40738" width="48.569" height="6.234" transform="translate(6930.753 4037.438)" fill="#9bc1f9" opacity="0.6"/>
    <rect id="Rectángulo_40739" data-name="Rectángulo 40739" width="31.261" height="1.598" transform="translate(6948.061 4045.442)" fill="#9bc1f9" opacity="0.6"/>
    <rect id="Rectángulo_40740" data-name="Rectángulo 40740" width="15.379" height="18.439" transform="translate(6930.753 4045.442)" fill="#5184ce"/>
    <rect id="Rectángulo_40741" data-name="Rectángulo 40741" width="31.261" height="1.598" transform="translate(6948.061 4048.81)" fill="#9bc1f9" opacity="0.6"/>
    <rect id="Rectángulo_40742" data-name="Rectángulo 40742" width="31.261" height="1.598" transform="translate(6948.061 4058.915)" fill="#9bc1f9" opacity="0.6"/>
    <rect id="Rectángulo_40743" data-name="Rectángulo 40743" width="31.261" height="1.598" transform="translate(6948.061 4062.283)" fill="#9bc1f9" opacity="0.6"/>
    <rect id="Rectángulo_40744" data-name="Rectángulo 40744" width="7.577" height="7.577" transform="translate(6985.773 4031.365)" fill="#9bc1f9" opacity="0.6"/>
    <rect id="Rectángulo_40745" data-name="Rectángulo 40745" width="14.781" height="1.029" transform="translate(6994.69 4031.365)" fill="#9bc1f9" opacity="0.6"/>
    <rect id="Rectángulo_40746" data-name="Rectángulo 40746" width="9.975" height="1.029" transform="translate(6994.69 4033.547)" fill="#9bc1f9" opacity="0.6"/>
    <rect id="Rectángulo_40747" data-name="Rectángulo 40747" width="13.277" height="1.029" transform="translate(6994.69 4035.729)" fill="#9bc1f9" opacity="0.6"/>
    <g id="Grupo_109257" data-name="Grupo 109257">
      <path id="Trazado_115700" data-name="Trazado 115700" d="M6930.014,4084.4s-.411,2.87-1.119,3.8a7.232,7.232,0,0,0-.956,1.265,3.741,3.741,0,0,0,.128,2.893c.168.368-.011.367.371.486a2.344,2.344,0,0,0,2.818-1.331,6.8,6.8,0,0,0,.553-2.445,8.89,8.89,0,0,1,.926-3.93Z" fill="#f7a491"/>
      <path id="Trazado_115701" data-name="Trazado 115701" d="M6942.394,4085.717a27.226,27.226,0,0,1,.048,4.287c-.11.563-.725,1.722-.443,2.252a1.416,1.416,0,0,0,.6.662l7.308.118c.4.007.135-.251-.186-.488a14.7,14.7,0,0,0-2.627-1.462c-.11-.053-.508-.308-.652-.4a5.073,5.073,0,0,1-1.045-.929c-.525-.587-.571-3.437-.571-3.437Z" fill="#f7a491"/>
      <path id="Trazado_115702" data-name="Trazado 115702" d="M6948.106,4042.709s.92,5.253.316,8.7-3.5,35.367-3.5,35.367l-3.223.183s-.676-13.335-.555-15.189a28.924,28.924,0,0,1,1.077-4.958l-.321-10.767,4.067-14.144Z" fill="#8b959e"/>
      <path id="Trazado_115703" data-name="Trazado 115703" d="M6938.634,4041.6a24.068,24.068,0,0,0-3.142,7.02c-.6,3.179.443,12.949-.719,17.115-.629,2.256-3.014,5.738-3.376,8.652s-1.785,10.548-1.785,10.548l3.221.642,7.487-19.064,5.873-17.231,1.5-8.874Z" fill="#acb5bc"/>
      <path id="Trazado_115704" data-name="Trazado 115704" d="M6931.475,4090.94a3.592,3.592,0,0,1-3.531-1.484,3.911,3.911,0,0,0-.336,2.9c.289.634,1.134.616,1.8.641a1.737,1.737,0,0,0,1.6-.983A5.941,5.941,0,0,0,6931.475,4090.94Z" fill="url(#linear-gradient)"/>
      <path id="Trazado_115705" data-name="Trazado 115705" d="M6946.445,4090.689a6.577,6.577,0,0,1-4.161-.164,3.391,3.391,0,0,0-.334,1.749c.177.521.43.638.653.644,1.765.047,6.467.11,7.813.128a.222.222,0,0,0,.171-.364A35.413,35.413,0,0,0,6946.445,4090.689Z" fill="url(#linear-gradient-2)"/>
      <path id="Trazado_115706" data-name="Trazado 115706" d="M6959.673,4033.635c.135-.287-1.285-.676-1.331-.985s1.858-.135,1.953-.391c.176-.474-2.073-.319-2-.542s2.377-.5,2.174-.912-2.367.534-2.4.263,2.091-.7,2.114-1.286c.013-.313-3.539,1.2-3.911.987s.588-1.583.3-1.832-1.534,2.626-1.759,2.71-5.1,1.557-6.755,1.8c-.139-.561-1.385-3.649-1.5-4.178-.973.551-2.213-.112-3.209.379.5,1.767,1.627,7.59,2.077,7.852,1.369.8,8.575-3.008,9.766-3.682s1.8-.352,2.577-.523S6959.539,4033.921,6959.673,4033.635Z" fill="#f8a492"/>
      <path id="Trazado_115707" data-name="Trazado 115707" d="M6946.852,4016.483c.362-1.647.717-3.3-.238-5.115a4.644,4.644,0,0,0-3.657-2.491c-4.383-.52-3.447,3.572-9.573,4.457a13.757,13.757,0,0,0-5.261,1.487c-2.87,1.71-3.954,4.452-2.05,8.92,4.66,10.939,15.812,1.433,17.513-.5A19.836,19.836,0,0,0,6946.852,4016.483Z" fill="#0e2e35"/>
      <path id="Trazado_115708" data-name="Trazado 115708" d="M6939.953,4021.683a6.366,6.366,0,0,0-3.537,1.692c-1.324,1.44,2.14,13.016,2.381,14.849s-2.3,6.9-2.3,6.9,8.643,1.718,10.889.234c0,0,.2-14.166-.043-15.475a38.673,38.673,0,0,0-2.728-7.157C6944.131,4022.207,6939.953,4021.683,6939.953,4021.683Z" fill="#a9f1f7"/>
      <path id="Trazado_115709" data-name="Trazado 115709" d="M6941.067,4017.221s-.017.1-.048.266a25.4,25.4,0,0,1-1.112,4.2c-.469.885,1.606,3.708,3.6,3.363.594-.1-.5-2.593-.45-2.857.1-.5.238-1.194.378-1.9.079-.4.159-.8.234-1.183.213-1.079.388-1.962.388-1.962Z" fill="#f7a491"/>
      <path id="Trazado_115710" data-name="Trazado 115710" d="M6941.019,4017.487c.031-.168.048-.266.048-.266l2.993-.075s-.175.883-.388,1.962c-.075.378-.154.78-.233,1.176a2.808,2.808,0,0,1-1.429-.715,3.769,3.769,0,0,1-1.082-1.606C6940.965,4017.774,6941,4017.611,6941.019,4017.487Z" fill="#f47458" opacity="0.5"/>
      <path id="Trazado_115711" data-name="Trazado 115711" d="M6942.867,4010.108a3.535,3.535,0,0,0-2.1,1.311c-.885,1.141-1.838,4.67.359,6.589s4.366-.253,4.688-2.556S6946.067,4010.025,6942.867,4010.108Z" fill="#f7a491"/>
      <path id="Trazado_115712" data-name="Trazado 115712" d="M6946.451,4014.884c-.139.555-.5.93-.813.837s-.449-.617-.311-1.172.5-.931.813-.838S6946.589,4014.329,6946.451,4014.884Z" fill="#f7a491"/>
      <path id="Trazado_115713" data-name="Trazado 115713" d="M6944.223,4010.119s-2.868,3.292-4.216,3.447-1.526,1.939-1.526,1.939.482-4.11,1.817-4.9S6944.223,4010.119,6944.223,4010.119Z" fill="#0e2e35"/>
      <path id="Trazado_115714" data-name="Trazado 115714" d="M6940.447,4014.366c.11.6-.111,1.143-.492,1.221s-.78-.342-.89-.938.111-1.142.493-1.221S6940.338,4013.77,6940.447,4014.366Z" fill="#f7a491"/>
      <rect id="Rectángulo_40748" data-name="Rectángulo 40748" width="13.516" height="10.386" rx="0.51" transform="translate(6937.945 4044.377) rotate(-81.677)" fill="#184655"/>
      <path id="Trazado_115715" data-name="Trazado 115715" d="M6947.319,4031.679a.1.1,0,0,0-.087-.117l-3.866-.566a.1.1,0,0,0-.117.088l-.059.4,4.07.595Z" fill="#13375b"/>
      <path id="Trazado_115716" data-name="Trazado 115716" d="M6945.37,4030.791a.616.616,0,1,0,.521.7A.618.618,0,0,0,6945.37,4030.791Zm-.146,1a.4.4,0,1,1,.448-.333A.395.395,0,0,1,6945.224,4031.791Z" fill="#13375b"/>
      <path id="Trazado_115717" data-name="Trazado 115717" d="M6947.27,4031.576a.1.1,0,0,1,.049.1l-.059.4-4.07-.595a.508.508,0,0,0,.43.577l3.063.448a.508.508,0,0,0,.577-.43l.059-.4A.1.1,0,0,0,6947.27,4031.576Z" fill="#355389"/>
      <path id="Trazado_115718" data-name="Trazado 115718" d="M6944.437,4016.593l-2.086-.011a.912.912,0,0,0,.961.824C6944.43,4017.444,6944.437,4016.593,6944.437,4016.593Z" fill="#fff"/>
      <path id="Trazado_115719" data-name="Trazado 115719" d="M6933.9,4034.24l3.358.343s-.054,2.85,0,3.177c0,0,5.743,1.592,8.143,2.024,0,0,1.093-.619,1.535-.816a10.669,10.669,0,0,1,1.893-.446c.263-.035.173.253-.053.354a2.179,2.179,0,0,0-.975.712,1.824,1.824,0,0,0,.725-.06c.251-.111.6-.348.6-.471s.062-.418.144-.4c.021,0,.049.1.078.2s.055.2.078.292c.042.175.091.43.11.545a7.8,7.8,0,0,1-.14,1.24c-.041.468-.175.676-.422.8a6.126,6.126,0,0,1-1.443.291,9.647,9.647,0,0,1-2.65-.262c-.458-.051-7.771-.776-7.771-.776s-2.907-.419-3.1-.919S6933.9,4034.24,6933.9,4034.24Z" fill="#f7a491"/>
      <path id="Trazado_115720" data-name="Trazado 115720" d="M6936.822,4022.956a5.119,5.119,0,0,0-1.992,2.673c-.885,2.063-1.146,12.357-1.146,12.357l3.513-.585,1.785-4.8a8.8,8.8,0,0,0-.91-8.754C6937.578,4023.17,6937.122,4022.762,6936.822,4022.956Z" fill="#a9f1f7"/>
    </g>
  </g>
</svg>
