<svg xmlns="http://www.w3.org/2000/svg" xmlns:xlink="http://www.w3.org/1999/xlink" width="148" height="148" viewBox="0 0 148 148">
  <defs>
    <linearGradient id="linear-gradient" y1="0.5" x2="1" y2="0.5" gradientUnits="objectBoundingBox">
      <stop offset="0" stop-color="#09005d"/>
      <stop offset="1" stop-color="#1a0f91"/>
    </linearGradient>
    <linearGradient id="linear-gradient-2" y1="0.5" x2="1" y2="0.5" gradientUnits="objectBoundingBox">
      <stop offset="0" stop-color="#4f52ff"/>
      <stop offset="1" stop-color="#4042e2"/>
    </linearGradient>
    <linearGradient id="linear-gradient-3" x1="0" y1="0.5" x2="1" y2="0.5" xlink:href="#linear-gradient-2"/>
  </defs>
  <g id="Grupo_109426" data-name="Grupo 109426" transform="translate(-7067.395 -3971.82)">
    <g id="Elipse_4811" data-name="Elipse 4811">
      <circle id="Elipse_4830" data-name="Elipse 4830" cx="74" cy="74" r="74" transform="translate(7067.395 3971.82)" fill="#4dcedf"/>
      <circle id="Elipse_4831" data-name="Elipse 4831" cx="73.5" cy="73.5" r="73.5" transform="translate(7067.895 3972.32)" fill="#4dcedf"/>
    </g>
    <rect id="Rectángulo_40749" data-name="Rectángulo 40749" width="26.269" height="8.225" transform="translate(7143.868 4085.077)" fill="#f5f5f5"/>
    <g id="Grupo_109423" data-name="Grupo 109423">
      <g id="Grupo_109260" data-name="Grupo 109260">
        <g id="Grupo_109259" data-name="Grupo 109259">
          <path id="Trazado_115721" data-name="Trazado 115721" d="M7091.934,4010.916a4.884,4.884,0,0,1,1.191-.517l.245-1.179,1.991-.035.287,1.169a4.886,4.886,0,0,1,1.208.476l1.007-.66,1.433,1.384-.624,1.028a4.9,4.9,0,0,1,.517,1.191l1.179.246.035,1.991-1.17.287a4.849,4.849,0,0,1-.475,1.208l.66,1.006-1.383,1.433-1.029-.624a4.893,4.893,0,0,1-1.191.518l-.246,1.178-1.991.035-.287-1.169a4.9,4.9,0,0,1-1.208-.475l-1.006.659-1.433-1.383.624-1.029a4.889,4.889,0,0,1-.518-1.191l-1.178-.245-.035-1.991,1.169-.287a4.877,4.877,0,0,1,.475-1.208l-.659-1.007,1.383-1.433,1.029.624Zm1.062,2.653a2.136,2.136,0,1,0,3.021-.053A2.136,2.136,0,0,0,7093,4013.569Z" fill="#f5f5f5"/>
        </g>
      </g>
      <g id="Grupo_109262" data-name="Grupo 109262">
        <g id="Grupo_109261" data-name="Grupo 109261">
          <path id="Trazado_115722" data-name="Trazado 115722" d="M7145.084,3988a4.185,4.185,0,0,1,1.014-.44l.208-1,1.695-.03.244,1a4.143,4.143,0,0,1,1.029.405l.856-.562,1.22,1.178-.531.875a4.085,4.085,0,0,1,.44,1.014l1,.209.029,1.7-1,.244a4.131,4.131,0,0,1-.4,1.028l.561.857-1.177,1.22-.876-.532a4.156,4.156,0,0,1-1.014.441l-.209,1-1.7.03-.244-1a4.183,4.183,0,0,1-1.028-.4l-.857.562-1.219-1.178.531-.876a4.135,4.135,0,0,1-.441-1.013l-1-.209-.03-1.7,1-.244a4.153,4.153,0,0,1,.4-1.028l-.561-.857,1.177-1.22.876.531Zm.9,2.258a1.819,1.819,0,1,0,2.571-.045A1.819,1.819,0,0,0,7145.988,3990.255Z" fill="#f5f5f5"/>
        </g>
      </g>
      <g id="Grupo_109264" data-name="Grupo 109264">
        <g id="Grupo_109263" data-name="Grupo 109263">
          <path id="Trazado_115723" data-name="Trazado 115723" d="M7113.99,4049.06a6.768,6.768,0,0,1,1.646-.715l.339-1.63,2.754-.048.4,1.617a6.734,6.734,0,0,1,1.67.657l1.392-.912,1.981,1.912-.863,1.423a6.758,6.758,0,0,1,.716,1.646l1.629.34.048,2.753-1.616.4a6.723,6.723,0,0,1-.657,1.67l.912,1.392-1.913,1.981-1.422-.863a6.77,6.77,0,0,1-1.647.716l-.339,1.629-2.753.048-.4-1.616a6.766,6.766,0,0,1-1.671-.657l-1.391.912-1.981-1.913.862-1.422a6.743,6.743,0,0,1-.715-1.647l-1.63-.339-.048-2.753,1.617-.4a6.743,6.743,0,0,1,.657-1.671l-.912-1.391,1.912-1.981,1.423.862Zm1.468,3.668a2.954,2.954,0,1,0,4.176-.073A2.954,2.954,0,0,0,7115.458,4052.728Z" fill="#f5f5f5"/>
        </g>
      </g>
      <g id="Grupo_109266" data-name="Grupo 109266">
        <g id="Grupo_109265" data-name="Grupo 109265">
          <path id="Trazado_115724" data-name="Trazado 115724" d="M7148.032,4025.833a4.9,4.9,0,0,1,1.191-.518l.245-1.178,1.992-.035.286,1.169a4.891,4.891,0,0,1,1.208.475l1.007-.66,1.433,1.384-.624,1.029a4.868,4.868,0,0,1,.517,1.191l1.179.245.035,1.991-1.169.287a4.9,4.9,0,0,1-.476,1.208l.66,1.006-1.383,1.433-1.029-.624a4.893,4.893,0,0,1-1.191.518l-.246,1.179-1.991.034-.286-1.169a4.89,4.89,0,0,1-1.209-.475l-1.006.66-1.433-1.384.624-1.029a4.854,4.854,0,0,1-.518-1.191l-1.178-.245-.035-1.991,1.169-.287a4.86,4.86,0,0,1,.476-1.208l-.66-1.006,1.383-1.433,1.029.624Zm1.062,2.652a2.136,2.136,0,1,0,3.021-.053A2.136,2.136,0,0,0,7149.094,4028.485Z" fill="#f5f5f5"/>
        </g>
      </g>
      <g id="Grupo_109268" data-name="Grupo 109268">
        <g id="Grupo_109267" data-name="Grupo 109267">
          <path id="Trazado_115725" data-name="Trazado 115725" d="M7105.832,4039.17a3.314,3.314,0,0,1,.8-.349l.166-.8,1.342-.023.194.788a3.288,3.288,0,0,1,.814.321l.679-.445.966.933-.42.693a3.327,3.327,0,0,1,.348.8l.795.166.024,1.343-.789.193a3.282,3.282,0,0,1-.32.814l.445.679-.933.966-.694-.42a3.337,3.337,0,0,1-.8.349l-.165.794-1.343.024-.193-.789a3.277,3.277,0,0,1-.815-.32l-.679.445-.966-.933.421-.694a3.306,3.306,0,0,1-.349-.8l-.795-.165-.023-1.343.788-.193a3.24,3.24,0,0,1,.321-.815l-.445-.678.933-.967.693.421Zm.716,1.789a1.441,1.441,0,1,0,2.037-.036A1.442,1.442,0,0,0,7106.548,4040.959Z" fill="#f5f5f5"/>
        </g>
      </g>
      <g id="Grupo_109284" data-name="Grupo 109284">
        <g id="Grupo_109283" data-name="Grupo 109283">
          <g id="Grupo_109270" data-name="Grupo 109270">
            <g id="Grupo_109269" data-name="Grupo 109269">
              <path id="Trazado_115726" data-name="Trazado 115726" d="M7137.251,4004.658h-8.006a1,1,0,0,1-1-1v-11.08a1,1,0,0,1,1-1h5.077l3.931,4.051v8.031A1,1,0,0,1,7137.251,4004.658Z" fill="#f5f5f5"/>
            </g>
          </g>
          <g id="Grupo_109272" data-name="Grupo 109272">
            <g id="Grupo_109271" data-name="Grupo 109271">
              <path id="Rectángulo_40750" data-name="Rectángulo 40750" d="M0,0H10.009a0,0,0,0,1,0,0V.381A3.589,3.589,0,0,1,6.42,3.97H3.589A3.589,3.589,0,0,1,0,.381V0A0,0,0,0,1,0,0Z" transform="translate(7128.244 4000.688)" fill="#e1e1e1"/>
            </g>
          </g>
          <g id="Grupo_109275" data-name="Grupo 109275">
            <g id="Grupo_109273" data-name="Grupo 109273">
              <path id="Trazado_115727" data-name="Trazado 115727" d="M7131.791,4003.249l.251-.3a.452.452,0,0,0,.364.215c.182,0,.277-.109.277-.324v-.932H7132v-.364h1.139v1.27a.633.633,0,0,1-.7.722A.786.786,0,0,1,7131.791,4003.249Z" fill="#fafafa"/>
            </g>
            <g id="Grupo_109274" data-name="Grupo 109274">
              <path id="Trazado_115728" data-name="Trazado 115728" d="M7133.4,4003.361l.145-.314a1.034,1.034,0,0,0,.524.146c.2,0,.277-.053.277-.137,0-.246-.91.006-.91-.6,0-.286.258-.487.7-.487a1.244,1.244,0,0,1,.579.131l-.145.311a.866.866,0,0,0-.434-.112c-.2,0-.28.062-.28.14,0,.258.91.008.91.6,0,.28-.261.478-.711.478A1.3,1.3,0,0,1,7133.4,4003.361Z" fill="#fafafa"/>
            </g>
          </g>
          <g id="Grupo_109278" data-name="Grupo 109278">
            <g id="Grupo_109276" data-name="Grupo 109276">
              <path id="Trazado_115729" data-name="Trazado 115729" d="M7130.364,3998.6l.314-.368a.941.941,0,0,0,.79.449c.427,0,.649-.259.649-.768v-2.126h-1.369v-.471h1.9v2.57c0,.844-.411,1.261-1.185,1.261A1.321,1.321,0,0,1,7130.364,3998.6Z" fill="#fafafa"/>
            </g>
            <g id="Grupo_109277" data-name="Grupo 109277">
              <path id="Trazado_115730" data-name="Trazado 115730" d="M7133.319,3998.8l.216-.411a1.848,1.848,0,0,0,1.007.3c.482,0,.682-.146.682-.39,0-.644-1.813-.086-1.813-1.228,0-.514.46-.86,1.2-.86a2.091,2.091,0,0,1,1.044.259l-.222.412a1.5,1.5,0,0,0-.828-.228c-.454,0-.676.168-.676.4,0,.677,1.818.125,1.818,1.239,0,.52-.476.85-1.239.85A2.066,2.066,0,0,1,7133.319,3998.8Z" fill="#fafafa"/>
            </g>
          </g>
          <g id="Grupo_109280" data-name="Grupo 109280">
            <g id="Grupo_109279" data-name="Grupo 109279">
              <path id="Trazado_115731" data-name="Trazado 115731" d="M7134.322,3991.574v3.119a.931.931,0,0,0,.932.931h3Z" fill="#ececec"/>
            </g>
          </g>
          <g id="Grupo_109282" data-name="Grupo 109282">
            <g id="Grupo_109281" data-name="Grupo 109281">
              <path id="Trazado_115732" data-name="Trazado 115732" d="M7134.363,3994.966a1.037,1.037,0,0,0,.822,1,.634.634,0,0,0,.1.022c.392.07,2.97.529,2.97.47v-.838h-3S7134.5,3995.6,7134.363,3994.966Z" fill="#e1e1e1"/>
            </g>
          </g>
        </g>
      </g>
      <g id="Grupo_109301" data-name="Grupo 109301">
        <g id="Grupo_109293" data-name="Grupo 109293">
          <g id="Grupo_109286" data-name="Grupo 109286">
            <g id="Grupo_109285" data-name="Grupo 109285">
              <path id="Trazado_115733" data-name="Trazado 115733" d="M7183.281,4038.553h-13.575a1.7,1.7,0,0,1-1.7-1.7v-18.79a1.7,1.7,0,0,1,1.7-1.7h8.61l6.664,6.868v13.62A1.7,1.7,0,0,1,7183.281,4038.553Z" fill="#ff735d"/>
            </g>
          </g>
          <g id="Grupo_109288" data-name="Grupo 109288" opacity="0.2">
            <g id="Grupo_109287" data-name="Grupo 109287">
              <path id="Rectángulo_40751" data-name="Rectángulo 40751" d="M.977,0H15.995a.977.977,0,0,1,.977.977v.646a5.109,5.109,0,0,1-5.109,5.109H5.109A5.109,5.109,0,0,1,0,1.623V.977A.977.977,0,0,1,.977,0Z" transform="translate(7168.008 4031.822)"/>
            </g>
          </g>
          <g id="Grupo_109290" data-name="Grupo 109290" opacity="0.2">
            <g id="Grupo_109289" data-name="Grupo 109289">
              <path id="Trazado_115734" data-name="Trazado 115734" d="M7178.316,4016.367v5.288a1.58,1.58,0,0,0,1.579,1.58h5.085Z" fill="#fff"/>
            </g>
          </g>
          <g id="Grupo_109292" data-name="Grupo 109292" opacity="0.2">
            <g id="Grupo_109291" data-name="Grupo 109291">
              <path id="Trazado_115735" data-name="Trazado 115735" d="M7178.385,4022.119a1.757,1.757,0,0,0,1.393,1.7,1.615,1.615,0,0,0,.167.038c.664.118,5.035.9,5.035.795v-1.421H7179.9S7178.626,4023.192,7178.385,4022.119Z"/>
            </g>
          </g>
        </g>
        <g id="Grupo_109297" data-name="Grupo 109297">
          <g id="Grupo_109294" data-name="Grupo 109294">
            <path id="Trazado_115736" data-name="Trazado 115736" d="M7172.866,4034.754a1.453,1.453,0,0,1,2.519-.9l-.392.362a.846.846,0,0,0-.663-.309.845.845,0,1,0,0,1.689.838.838,0,0,0,.663-.313l.392.362a1.451,1.451,0,0,1-2.519-.894Z" fill="#fafafa"/>
          </g>
          <g id="Grupo_109295" data-name="Grupo 109295">
            <path id="Trazado_115737" data-name="Trazado 115737" d="M7175.565,4035.814l.207-.46a1.554,1.554,0,0,0,.871.275c.362,0,.509-.12.509-.282,0-.494-1.534-.155-1.534-1.135,0-.449.362-.823,1.112-.823a1.765,1.765,0,0,1,.916.234l-.188.464a1.487,1.487,0,0,0-.732-.207c-.362,0-.5.135-.5.3,0,.487,1.534.151,1.534,1.12,0,.441-.365.818-1.119.818A1.881,1.881,0,0,1,7175.565,4035.814Z" fill="#fafafa"/>
          </g>
          <g id="Grupo_109296" data-name="Grupo 109296">
            <path id="Trazado_115738" data-name="Trazado 115738" d="M7177.97,4035.814l.207-.46a1.552,1.552,0,0,0,.871.275c.362,0,.509-.12.509-.282,0-.494-1.535-.155-1.535-1.135,0-.449.362-.823,1.113-.823a1.764,1.764,0,0,1,.916.234l-.189.464a1.481,1.481,0,0,0-.731-.207c-.362,0-.5.135-.5.3,0,.487,1.535.151,1.535,1.12,0,.441-.366.818-1.12.818A1.876,1.876,0,0,1,7177.97,4035.814Z" fill="#fafafa"/>
          </g>
        </g>
        <g id="Grupo_109300" data-name="Grupo 109300">
          <g id="Grupo_109298" data-name="Grupo 109298">
            <path id="Trazado_115739" data-name="Trazado 115739" d="M7173.728,4026.212c.279.085.407.261.407.679v.97a.4.4,0,0,0,.442.449h.11v.74h-.352a1,1,0,0,1-1.146-1.086v-1.1a.248.248,0,0,0-.267-.285h-.2v-.74h.2a.249.249,0,0,0,.267-.285v-1.1a1,1,0,0,1,1.146-1.085h.352v.74h-.11a.4.4,0,0,0-.442.449v.97C7174.135,4025.951,7174.007,4026.127,7173.728,4026.212Z" fill="#fafafa"/>
          </g>
          <g id="Grupo_109299" data-name="Grupo 109299">
            <path id="Trazado_115740" data-name="Trazado 115740" d="M7180.266,4025.842v.74h-.2a.248.248,0,0,0-.267.285v1.1a1,1,0,0,1-1.146,1.086h-.352v-.74h.109a.4.4,0,0,0,.443-.449v-.97c0-.418.127-.594.406-.679-.279-.085-.406-.261-.406-.679v-.97a.4.4,0,0,0-.443-.449h-.109v-.74h.352a1,1,0,0,1,1.146,1.085v1.1a.249.249,0,0,0,.267.285Z" fill="#fafafa"/>
          </g>
        </g>
      </g>
      <g id="Grupo_109320" data-name="Grupo 109320">
        <g id="Grupo_109310" data-name="Grupo 109310">
          <g id="Grupo_109303" data-name="Grupo 109303">
            <g id="Grupo_109302" data-name="Grupo 109302">
              <path id="Trazado_115741" data-name="Trazado 115741" d="M7169.631,4012.214h-13.78a1.724,1.724,0,0,1-1.724-1.724v-19.074a1.724,1.724,0,0,1,1.724-1.724h8.739l6.765,6.972v13.826A1.724,1.724,0,0,1,7169.631,4012.214Z" fill="#ff735d"/>
            </g>
          </g>
          <g id="Grupo_109305" data-name="Grupo 109305" opacity="0.2">
            <g id="Grupo_109304" data-name="Grupo 109304">
              <path id="Rectángulo_40752" data-name="Rectángulo 40752" d="M0,0H17.228a0,0,0,0,1,0,0V.656a6.178,6.178,0,0,1-6.178,6.178H6.178A6.178,6.178,0,0,1,0,.656V0A0,0,0,0,1,0,0Z" transform="translate(7154.127 4005.38)"/>
            </g>
          </g>
          <g id="Grupo_109307" data-name="Grupo 109307" opacity="0.2">
            <g id="Grupo_109306" data-name="Grupo 109306">
              <path id="Trazado_115742" data-name="Trazado 115742" d="M7164.59,3989.692v5.368a1.6,1.6,0,0,0,1.6,1.6h5.161Z" fill="#fff"/>
            </g>
          </g>
          <g id="Grupo_109309" data-name="Grupo 109309" opacity="0.2">
            <g id="Grupo_109308" data-name="Grupo 109308">
              <path id="Trazado_115743" data-name="Trazado 115743" d="M7164.661,3995.531a1.782,1.782,0,0,0,1.414,1.73,1.612,1.612,0,0,0,.17.038c.674.121,5.11.91,5.11.808v-1.443h-5.161S7164.9,3996.62,7164.661,3995.531Z"/>
            </g>
          </g>
        </g>
        <g id="Grupo_109314" data-name="Grupo 109314">
          <g id="Grupo_109311" data-name="Grupo 109311">
            <path id="Trazado_115744" data-name="Trazado 115744" d="M7161.2,3999.737l-2.068.758,2.068.751v.777l-2.956-1.124v-.808l2.956-1.124Z" fill="#fafafa"/>
          </g>
          <g id="Grupo_109312" data-name="Grupo 109312">
            <path id="Trazado_115745" data-name="Trazado 115745" d="M7163.425,3997.439h.863l-2.05,5.851h-.863Z" fill="#fafafa"/>
          </g>
          <g id="Grupo_109313" data-name="Grupo 109313">
            <path id="Trazado_115746" data-name="Trazado 115746" d="M7167.355,4000.091v.808l-2.956,1.124v-.777l2.068-.751-2.068-.758v-.77Z" fill="#fafafa"/>
          </g>
        </g>
        <g id="Grupo_109319" data-name="Grupo 109319">
          <g id="Grupo_109315" data-name="Grupo 109315">
            <path id="Trazado_115747" data-name="Trazado 115747" d="M7160.5,4007.923v2.316h-.536v-.95h-1.052v.95h-.536v-2.316h.536v.913h1.052v-.913Z" fill="#fafafa"/>
          </g>
          <g id="Grupo_109316" data-name="Grupo 109316">
            <path id="Trazado_115748" data-name="Trazado 115748" d="M7161.527,4008.36h-.741v-.437h2.018v.437h-.741v1.879h-.536Z" fill="#fafafa"/>
          </g>
          <g id="Grupo_109317" data-name="Grupo 109317">
            <path id="Trazado_115749" data-name="Trazado 115749" d="M7165.2,4010.239l0-1.39-.681,1.145h-.242l-.678-1.115v1.36h-.5v-2.316h.444l.866,1.439.854-1.439h.44l.006,2.316Z" fill="#fafafa"/>
          </g>
          <g id="Grupo_109318" data-name="Grupo 109318">
            <path id="Trazado_115750" data-name="Trazado 115750" d="M7166.25,4007.923h.536v1.879h1.161v.437h-1.7Z" fill="#fafafa"/>
          </g>
        </g>
      </g>
      <g id="Grupo_109345" data-name="Grupo 109345">
        <rect id="Rectángulo_40753" data-name="Rectángulo 40753" width="26.671" height="42.991" rx="3.058" transform="translate(7095.263 3996.764)" fill="#fff"/>
        <path id="Rectángulo_40754" data-name="Rectángulo 40754" d="M3.607,0H23.2a3.472,3.472,0,0,1,3.472,3.472V4.8a0,0,0,0,1,0,0H0a0,0,0,0,1,0,0v-1.2A3.607,3.607,0,0,1,3.607,0Z" transform="translate(7095.263 3996.764)" fill="#e1e1e1"/>
        <g id="Grupo_109321" data-name="Grupo 109321">
          <path id="Trazado_115751" data-name="Trazado 115751" d="M7121.04,4039.754a1.02,1.02,0,0,0,.344-.076.92.92,0,0,0,.341-.261.894.894,0,0,0,.195-.552c0-.921-.007-2.273-.013-4.015-.005-3.489-.013-8.532-.022-14.764s-.01-13.657-.015-21.9v-.387a1.278,1.278,0,0,0-.032-.367.831.831,0,0,0-.81-.6h-4.383l-6.6,0h-13.883a.824.824,0,0,0-.824.757c-.007.136,0,.292,0,.437v5.267q0,3.476,0,6.842c0,4.485,0,8.811,0,12.933s0,8.038-.007,11.7q0,1.374,0,2.7v1.314a.853.853,0,0,0,.665.893,4.487,4.487,0,0,0,.622.019h1.865l2.393,0,14.763.023,4.014.013,1.044.007c.235,0,.356.007.356.007s-.121.005-.356.007l-1.044.007-4.014.014-14.763.022-2.393,0H7096.6a4.593,4.593,0,0,1-.645-.02.96.96,0,0,1-.561-.359.976.976,0,0,1-.191-.641v-1.314l0-2.7c0-3.665,0-7.582-.007-11.7s0-8.448,0-12.933q0-3.364,0-6.842v-5.267c0-.15,0-.29,0-.449a.965.965,0,0,1,.964-.886l13.883,0h6.6l3.2,0h1.182a.946.946,0,0,1,.407.086.958.958,0,0,1,.528.614,1.37,1.37,0,0,1,.036.4v.387c0,8.241-.011,15.663-.015,21.9s-.017,11.275-.022,14.764c-.006,1.742-.011,3.094-.014,4.015a.9.9,0,0,1-.559.826.881.881,0,0,1-.259.062C7121.07,4039.755,7121.04,4039.754,7121.04,4039.754Z" fill="#1a2e35"/>
        </g>
        <path id="Trazado_115752" data-name="Trazado 115752" d="M7099.194,3999.54a.786.786,0,1,1-.787-.787A.787.787,0,0,1,7099.194,3999.54Z" fill="#fff"/>
        <circle id="Elipse_4832" data-name="Elipse 4832" cx="0.787" cy="0.787" r="0.787" transform="translate(7100.042 3998.753)" fill="#fff"/>
        <circle id="Elipse_4833" data-name="Elipse 4833" cx="0.787" cy="0.787" r="0.787" transform="translate(7102.463 3998.753)" fill="#fff"/>
        <g id="Grupo_109322" data-name="Grupo 109322">
          <path id="Trazado_115753" data-name="Trazado 115753" d="M7106.869,4008.081h-4.912a.534.534,0,0,1-.533-.533h0a.533.533,0,0,1,.533-.533h4.912a.533.533,0,0,1,.533.533h0A.533.533,0,0,1,7106.869,4008.081Z" fill="#1a2e35"/>
        </g>
        <g id="Grupo_109323" data-name="Grupo 109323">
          <path id="Trazado_115754" data-name="Trazado 115754" d="M7106.869,4010.87h-4.912a.533.533,0,0,1-.533-.533h0a.534.534,0,0,1,.533-.533h4.912a.533.533,0,0,1,.533.533h0A.533.533,0,0,1,7106.869,4010.87Z" fill="#e1e1e1"/>
        </g>
        <g id="Grupo_109324" data-name="Grupo 109324">
          <path id="Trazado_115755" data-name="Trazado 115755" d="M7107.009,4018.511H7102.1a.532.532,0,0,1-.533-.533h0a.533.533,0,0,1,.533-.533h4.911a.533.533,0,0,1,.533.533h0A.532.532,0,0,1,7107.009,4018.511Z" fill="#e1e1e1"/>
        </g>
        <g id="Grupo_109325" data-name="Grupo 109325">
          <path id="Trazado_115756" data-name="Trazado 115756" d="M7106.869,4013.753h-4.912a.534.534,0,0,1-.533-.533h0a.534.534,0,0,1,.533-.533h4.912a.533.533,0,0,1,.533.533h0A.533.533,0,0,1,7106.869,4013.753Z" fill="#ff735d"/>
        </g>
        <g id="Grupo_109326" data-name="Grupo 109326">
          <path id="Trazado_115757" data-name="Trazado 115757" d="M7106.869,4029.829h-4.912a.534.534,0,0,1-.533-.533h0a.533.533,0,0,1,.533-.533h4.912a.533.533,0,0,1,.533.533h0A.533.533,0,0,1,7106.869,4029.829Z" fill="#ff735d"/>
        </g>
        <g id="Grupo_109327" data-name="Grupo 109327">
          <path id="Trazado_115758" data-name="Trazado 115758" d="M7114.738,4008.081h-4.912a.534.534,0,0,1-.533-.533h0a.533.533,0,0,1,.533-.533h4.912a.533.533,0,0,1,.533.533h0A.533.533,0,0,1,7114.738,4008.081Z" fill="#375a64"/>
        </g>
        <g id="Grupo_109328" data-name="Grupo 109328">
          <path id="Trazado_115759" data-name="Trazado 115759" d="M7120.056,4010.87H7109.78a.511.511,0,0,1-.487-.533h0a.512.512,0,0,1,.487-.533h10.276a.512.512,0,0,1,.488.533h0A.511.511,0,0,1,7120.056,4010.87Z" fill="#1a2e35"/>
        </g>
        <g id="Grupo_109329" data-name="Grupo 109329">
          <path id="Trazado_115760" data-name="Trazado 115760" d="M7119.78,4013.753h-10.347a.518.518,0,0,1-.5-.533h0a.518.518,0,0,1,.5-.533h10.347a.518.518,0,0,1,.5.533h0A.518.518,0,0,1,7119.78,4013.753Z" fill="#e1e1e1"/>
        </g>
        <g id="Grupo_109330" data-name="Grupo 109330">
          <path id="Trazado_115761" data-name="Trazado 115761" d="M7112.305,4016.084h-10.347a.518.518,0,0,1-.5-.533h0a.518.518,0,0,1,.5-.533h10.347a.518.518,0,0,1,.5.533h0A.517.517,0,0,1,7112.305,4016.084Z" fill="#e1e1e1"/>
        </g>
        <g id="Grupo_109331" data-name="Grupo 109331">
          <path id="Trazado_115762" data-name="Trazado 115762" d="M7099.549,4007.548a.541.541,0,1,1-.541-.542A.541.541,0,0,1,7099.549,4007.548Z" fill="#375a64"/>
        </g>
        <g id="Grupo_109332" data-name="Grupo 109332">
          <path id="Trazado_115763" data-name="Trazado 115763" d="M7099.549,4004.878a.541.541,0,1,1-.541-.541A.541.541,0,0,1,7099.549,4004.878Z" fill="#375a64"/>
        </g>
        <g id="Grupo_109333" data-name="Grupo 109333">
          <path id="Trazado_115764" data-name="Trazado 115764" d="M7099.549,4010.329a.541.541,0,1,1-.541-.541A.541.541,0,0,1,7099.549,4010.329Z" fill="#375a64"/>
        </g>
        <g id="Grupo_109334" data-name="Grupo 109334">
          <path id="Trazado_115765" data-name="Trazado 115765" d="M7099.549,4013.22a.541.541,0,1,1-.541-.541A.541.541,0,0,1,7099.549,4013.22Z" fill="#375a64"/>
        </g>
        <g id="Grupo_109335" data-name="Grupo 109335">
          <path id="Trazado_115766" data-name="Trazado 115766" d="M7107.009,4026.313H7102.1a.533.533,0,0,1-.533-.533h0a.533.533,0,0,1,.533-.533h4.911a.533.533,0,0,1,.533.533h0A.533.533,0,0,1,7107.009,4026.313Z" fill="#e1e1e1"/>
        </g>
        <g id="Grupo_109336" data-name="Grupo 109336">
          <path id="Trazado_115767" data-name="Trazado 115767" d="M7106.869,4021.555h-4.912a.534.534,0,0,1-.533-.533h0a.533.533,0,0,1,.533-.533h4.912a.533.533,0,0,1,.533.533h0A.533.533,0,0,1,7106.869,4021.555Z" fill="#ff735d"/>
        </g>
        <g id="Grupo_109337" data-name="Grupo 109337">
          <path id="Trazado_115768" data-name="Trazado 115768" d="M7119.78,4021.555h-10.347a.518.518,0,0,1-.5-.533h0a.517.517,0,0,1,.5-.533h10.347a.517.517,0,0,1,.5.533h0A.518.518,0,0,1,7119.78,4021.555Z" fill="#e1e1e1"/>
        </g>
        <g id="Grupo_109338" data-name="Grupo 109338">
          <path id="Trazado_115769" data-name="Trazado 115769" d="M7112.305,4023.886h-10.347a.518.518,0,0,1-.5-.533h0a.518.518,0,0,1,.5-.533h10.347a.517.517,0,0,1,.5.533h0A.518.518,0,0,1,7112.305,4023.886Z" fill="#e1e1e1"/>
        </g>
        <g id="Grupo_109339" data-name="Grupo 109339">
          <path id="Trazado_115770" data-name="Trazado 115770" d="M7099.549,4021.022a.541.541,0,1,1-.541-.542A.541.541,0,0,1,7099.549,4021.022Z" fill="#375a64"/>
        </g>
        <rect id="Rectángulo_40755" data-name="Rectángulo 40755" width="3.593" height="1.028" rx="0.465" transform="translate(7101.453 4004.494)" fill="#375a64"/>
        <g id="Grupo_109343" data-name="Grupo 109343">
          <g id="Grupo_109340" data-name="Grupo 109340">
            <path id="Trazado_115771" data-name="Trazado 115771" d="M7106.869,4032.669h-4.912a.533.533,0,0,1-.533-.533h0a.534.534,0,0,1,.533-.533h4.912a.533.533,0,0,1,.533.533h0A.533.533,0,0,1,7106.869,4032.669Z" fill="#1a2e35"/>
          </g>
          <g id="Grupo_109341" data-name="Grupo 109341">
            <path id="Trazado_115772" data-name="Trazado 115772" d="M7114.738,4032.669h-4.912a.533.533,0,0,1-.533-.533h0a.534.534,0,0,1,.533-.533h4.912a.533.533,0,0,1,.533.533h0A.533.533,0,0,1,7114.738,4032.669Z" fill="#375a64"/>
          </g>
          <g id="Grupo_109342" data-name="Grupo 109342">
            <path id="Trazado_115773" data-name="Trazado 115773" d="M7099.549,4032.136a.541.541,0,1,1-.541-.541A.541.541,0,0,1,7099.549,4032.136Z" fill="#375a64"/>
          </g>
        </g>
        <g id="Grupo_109344" data-name="Grupo 109344">
          <path id="Trazado_115774" data-name="Trazado 115774" d="M7099.549,4034.7a.541.541,0,1,1-.541-.541A.542.542,0,0,1,7099.549,4034.7Z" fill="#375a64"/>
        </g>
        <rect id="Rectángulo_40756" data-name="Rectángulo 40756" width="3.593" height="1.028" rx="0.465" transform="translate(7101.453 4034.319)" fill="#375a64"/>
      </g>
      <g id="Grupo_109405" data-name="Grupo 109405">
        <g id="Grupo_109403" data-name="Grupo 109403">
          <rect id="Rectángulo_40757" data-name="Rectángulo 40757" width="48.717" height="30.989" transform="translate(7123.715 4033.118)" fill="#fff"/>
          <g id="Grupo_109346" data-name="Grupo 109346">
            <rect id="Rectángulo_40758" data-name="Rectángulo 40758" width="8.774" height="30.989" transform="translate(7123.715 4033.118)" fill="#ececec"/>
          </g>
          <g id="Grupo_109353" data-name="Grupo 109353">
            <g id="Grupo_109352" data-name="Grupo 109352">
              <g id="Grupo_109351" data-name="Grupo 109351">
                <g id="Grupo_109350" data-name="Grupo 109350">
                  <g id="Grupo_109349" data-name="Grupo 109349">
                    <g id="Grupo_109348" data-name="Grupo 109348">
                      <g id="Grupo_109347" data-name="Grupo 109347">
                        <path id="Trazado_115775" data-name="Trazado 115775" d="M7127.572,4036.463a.635.635,0,0,1,.146-.064l.03-.144.244,0,.035.144a.587.587,0,0,1,.149.058l.123-.081.176.17-.077.126a.64.64,0,0,1,.064.146l.144.03,0,.245-.144.035a.574.574,0,0,1-.058.148l.081.124-.17.175-.126-.076a.56.56,0,0,1-.146.063l-.03.145-.245,0-.035-.143a.589.589,0,0,1-.148-.059l-.123.081-.176-.169.076-.127a.551.551,0,0,1-.063-.146l-.145-.03,0-.244.143-.035a.6.6,0,0,1,.059-.148l-.081-.124.169-.176.127.077Zm.13.325a.262.262,0,1,0,.371-.006A.262.262,0,0,0,7127.7,4036.788Z" fill="#e1e1e1"/>
                      </g>
                    </g>
                  </g>
                </g>
              </g>
            </g>
          </g>
          <g id="Grupo_109354" data-name="Grupo 109354">
            <path id="Trazado_115776" data-name="Trazado 115776" d="M7129.6,4043.309h-3.825a.393.393,0,0,1-.393-.393h0a.393.393,0,0,1,.393-.393h3.825a.393.393,0,0,1,.393.393h0A.393.393,0,0,1,7129.6,4043.309Z" fill="#e1e1e1"/>
          </g>
          <g id="Grupo_109355" data-name="Grupo 109355">
            <path id="Trazado_115777" data-name="Trazado 115777" d="M7129.6,4041.306h-3.825a.393.393,0,0,1-.393-.393h0a.393.393,0,0,1,.393-.393h3.825a.393.393,0,0,1,.393.393h0A.393.393,0,0,1,7129.6,4041.306Z" fill="#e1e1e1"/>
          </g>
          <g id="Grupo_109356" data-name="Grupo 109356">
            <path id="Trazado_115778" data-name="Trazado 115778" d="M7129.6,4039.475h-3.825a.393.393,0,0,1-.393-.394h0a.393.393,0,0,1,.393-.393h3.825a.393.393,0,0,1,.393.393h0A.393.393,0,0,1,7129.6,4039.475Z" fill="#e1e1e1"/>
          </g>
          <g id="Grupo_109357" data-name="Grupo 109357">
            <path id="Trazado_115779" data-name="Trazado 115779" d="M7139.875,4037.7h-3.622a.394.394,0,0,1-.394-.394h0a.393.393,0,0,1,.394-.393h3.622a.393.393,0,0,1,.393.393h0A.393.393,0,0,1,7139.875,4037.7Z" fill="#1a2e35"/>
          </g>
          <g id="Grupo_109358" data-name="Grupo 109358">
            <path id="Trazado_115780" data-name="Trazado 115780" d="M7139.875,4039.754h-3.622a.393.393,0,0,1-.394-.393h0a.393.393,0,0,1,.394-.393h3.622a.393.393,0,0,1,.393.393h0A.393.393,0,0,1,7139.875,4039.754Z" fill="#e1e1e1"/>
          </g>
          <g id="Grupo_109359" data-name="Grupo 109359">
            <path id="Trazado_115781" data-name="Trazado 115781" d="M7139.875,4041.88h-3.622a.393.393,0,0,1-.394-.393h0a.393.393,0,0,1,.394-.393h3.622a.393.393,0,0,1,.393.393h0A.393.393,0,0,1,7139.875,4041.88Z" fill="#ff735d"/>
          </g>
          <g id="Grupo_109360" data-name="Grupo 109360">
            <path id="Trazado_115782" data-name="Trazado 115782" d="M7138.33,4045.991h-2.077a.393.393,0,0,1-.394-.393h0a.393.393,0,0,1,.394-.393h2.077a.393.393,0,0,1,.393.393h0A.393.393,0,0,1,7138.33,4045.991Z" fill="#1a2e35"/>
          </g>
          <g id="Grupo_109361" data-name="Grupo 109361">
            <path id="Trazado_115783" data-name="Trazado 115783" d="M7138.33,4048.122h-2.077a.393.393,0,0,1-.394-.393h0a.393.393,0,0,1,.394-.393h2.077a.393.393,0,0,1,.393.393h0A.393.393,0,0,1,7138.33,4048.122Z" fill="#1a2e35"/>
          </g>
          <g id="Grupo_109362" data-name="Grupo 109362">
            <path id="Trazado_115784" data-name="Trazado 115784" d="M7144.5,4048.122h-3.809a.393.393,0,0,1-.393-.393h0a.393.393,0,0,1,.393-.393h3.809a.393.393,0,0,1,.393.393h0A.393.393,0,0,1,7144.5,4048.122Z" fill="#e1e1e1"/>
          </g>
          <g id="Grupo_109363" data-name="Grupo 109363">
            <path id="Trazado_115785" data-name="Trazado 115785" d="M7142.35,4050.017h-3.81a.393.393,0,0,1-.393-.393h0a.393.393,0,0,1,.393-.393h3.81a.393.393,0,0,1,.393.393h0A.393.393,0,0,1,7142.35,4050.017Z" fill="#ff735d"/>
          </g>
          <g id="Grupo_109364" data-name="Grupo 109364">
            <rect id="Rectángulo_40759" data-name="Rectángulo 40759" width="3.153" height="0.786" rx="0.355" transform="translate(7140.309 4051.393)" fill="#ff735d"/>
          </g>
          <g id="Grupo_109365" data-name="Grupo 109365">
            <path id="Trazado_115786" data-name="Trazado 115786" d="M7143.069,4056.415H7140.7a.393.393,0,0,1-.393-.393h0a.393.393,0,0,1,.393-.393h2.367a.393.393,0,0,1,.393.393h0A.393.393,0,0,1,7143.069,4056.415Z" fill="#ff735d"/>
          </g>
          <g id="Grupo_109366" data-name="Grupo 109366">
            <path id="Trazado_115787" data-name="Trazado 115787" d="M7143.069,4060.889H7140.7a.393.393,0,0,1-.393-.393h0a.393.393,0,0,1,.393-.393h2.367a.393.393,0,0,1,.393.393h0A.393.393,0,0,1,7143.069,4060.889Z" fill="#ff735d"/>
          </g>
          <g id="Grupo_109367" data-name="Grupo 109367">
            <path id="Trazado_115788" data-name="Trazado 115788" d="M7148.887,4060.889h-4.149a.393.393,0,0,1-.393-.393h0a.393.393,0,0,1,.393-.393h4.149a.392.392,0,0,1,.393.393h0A.392.392,0,0,1,7148.887,4060.889Z" fill="#375a64"/>
          </g>
          <g id="Grupo_109368" data-name="Grupo 109368">
            <path id="Trazado_115789" data-name="Trazado 115789" d="M7151.792,4060.889h-.6a.393.393,0,0,1-.393-.393h0a.393.393,0,0,1,.393-.393h.6a.393.393,0,0,1,.393.393h0A.393.393,0,0,1,7151.792,4060.889Z" fill="#e1e1e1"/>
          </g>
          <g id="Grupo_109369" data-name="Grupo 109369">
            <path id="Trazado_115790" data-name="Trazado 115790" d="M7148.639,4056.415h-3.507a.393.393,0,0,1-.393-.393h0a.393.393,0,0,1,.393-.393h3.507a.393.393,0,0,1,.393.393h0A.393.393,0,0,1,7148.639,4056.415Z" fill="#e1e1e1"/>
          </g>
          <g id="Grupo_109370" data-name="Grupo 109370">
            <path id="Trazado_115791" data-name="Trazado 115791" d="M7156.329,4058.379h-11.2a.393.393,0,0,1-.393-.393h0a.393.393,0,0,1,.393-.393h11.2a.393.393,0,0,1,.393.393h0A.393.393,0,0,1,7156.329,4058.379Z" fill="#e1e1e1"/>
          </g>
          <g id="Grupo_109371" data-name="Grupo 109371">
            <path id="Trazado_115792" data-name="Trazado 115792" d="M7157.622,4056.415h-7.149a.393.393,0,0,1-.393-.393h0a.393.393,0,0,1,.393-.393h7.149a.393.393,0,0,1,.393.393h0A.393.393,0,0,1,7157.622,4056.415Z" fill="#375a64"/>
          </g>
          <g id="Grupo_109372" data-name="Grupo 109372">
            <rect id="Rectángulo_40760" data-name="Rectángulo 40760" width="3.748" height="0.786" rx="0.355" transform="translate(7144.492 4051.393)" fill="#375a64"/>
          </g>
          <g id="Grupo_109373" data-name="Grupo 109373">
            <rect id="Rectángulo_40761" data-name="Rectángulo 40761" width="1.522" height="0.786" rx="0.355" transform="translate(7149.28 4051.393)" fill="#e1e1e1"/>
          </g>
          <g id="Grupo_109374" data-name="Grupo 109374">
            <rect id="Rectángulo_40762" data-name="Rectángulo 40762" width="4.489" height="0.786" rx="0.355" transform="translate(7151.96 4051.393)" fill="#e1e1e1"/>
          </g>
          <g id="Grupo_109375" data-name="Grupo 109375">
            <path id="Trazado_115793" data-name="Trazado 115793" d="M7144.93,4050.017h-.849a.393.393,0,0,1-.393-.393h0a.393.393,0,0,1,.393-.393h.849a.393.393,0,0,1,.393.393h0A.393.393,0,0,1,7144.93,4050.017Z" fill="#1a2e35"/>
          </g>
          <g id="Grupo_109376" data-name="Grupo 109376">
            <path id="Trazado_115794" data-name="Trazado 115794" d="M7152.121,4050.017h-5.4a.392.392,0,0,1-.393-.393h0a.392.392,0,0,1,.393-.393h5.4a.393.393,0,0,1,.393.393h0A.393.393,0,0,1,7152.121,4050.017Z" fill="#e1e1e1"/>
          </g>
          <g id="Grupo_109377" data-name="Grupo 109377">
            <path id="Trazado_115795" data-name="Trazado 115795" d="M7145.679,4037.7h-3.622a.393.393,0,0,1-.393-.394h0a.393.393,0,0,1,.393-.393h3.622a.393.393,0,0,1,.394.393h0A.394.394,0,0,1,7145.679,4037.7Z" fill="#375a64"/>
          </g>
          <g id="Grupo_109378" data-name="Grupo 109378">
            <path id="Trazado_115796" data-name="Trazado 115796" d="M7150.348,4039.754h-8.291a.393.393,0,0,1-.393-.393h0a.393.393,0,0,1,.393-.393h8.291a.393.393,0,0,1,.393.393h0A.393.393,0,0,1,7150.348,4039.754Z" fill="#1a2e35"/>
          </g>
          <g id="Grupo_109379" data-name="Grupo 109379">
            <path id="Trazado_115797" data-name="Trazado 115797" d="M7159.274,4041.88h-17.217a.393.393,0,0,1-.393-.393h0a.393.393,0,0,1,.393-.393h17.217a.393.393,0,0,1,.393.393h0A.393.393,0,0,1,7159.274,4041.88Z" fill="#e1e1e1"/>
          </g>
          <g id="Grupo_109380" data-name="Grupo 109380">
            <path id="Trazado_115798" data-name="Trazado 115798" d="M7150.175,4043.378h-8.118a.393.393,0,0,1-.393-.393h0a.393.393,0,0,1,.393-.393h8.118a.393.393,0,0,1,.393.393h0A.393.393,0,0,1,7150.175,4043.378Z" fill="#e1e1e1"/>
          </g>
          <g id="Grupo_109381" data-name="Grupo 109381">
            <path id="Trazado_115799" data-name="Trazado 115799" d="M7148.514,4045.991H7140.4a.393.393,0,0,1-.393-.393h0a.393.393,0,0,1,.393-.393h8.118a.393.393,0,0,1,.393.393h0A.393.393,0,0,1,7148.514,4045.991Z" fill="#375a64"/>
          </g>
          <g id="Grupo_109382" data-name="Grupo 109382">
            <path id="Trazado_115800" data-name="Trazado 115800" d="M7153.059,4045.991h-2.721a.393.393,0,0,1-.393-.393h0a.393.393,0,0,1,.393-.393h2.721a.393.393,0,0,1,.393.393h0A.393.393,0,0,1,7153.059,4045.991Z" fill="#ff735d"/>
          </g>
          <g id="Grupo_109383" data-name="Grupo 109383">
            <path id="Trazado_115801" data-name="Trazado 115801" d="M7160.016,4045.979h-5.14a.393.393,0,0,1-.393-.393h0a.393.393,0,0,1,.393-.393h5.14a.393.393,0,0,1,.393.393h0A.393.393,0,0,1,7160.016,4045.979Z" fill="#1a2e35"/>
          </g>
          <g id="Grupo_109384" data-name="Grupo 109384">
            <path id="Trazado_115802" data-name="Trazado 115802" d="M7167.011,4045.979h-5.14a.393.393,0,0,1-.393-.393h0a.393.393,0,0,1,.393-.393h5.14a.393.393,0,0,1,.393.393h0A.393.393,0,0,1,7167.011,4045.979Z" fill="#e1e1e1"/>
          </g>
          <g id="Grupo_109385" data-name="Grupo 109385">
            <path id="Trazado_115803" data-name="Trazado 115803" d="M7127.942,4045.429h-2.168a.393.393,0,0,1-.393-.393h0a.393.393,0,0,1,.393-.394h2.168a.393.393,0,0,1,.393.394h0A.393.393,0,0,1,7127.942,4045.429Z" fill="#e1e1e1"/>
          </g>
          <g id="Grupo_109386" data-name="Grupo 109386">
            <path id="Trazado_115804" data-name="Trazado 115804" d="M7127.293,4051.788h-1.519a.393.393,0,0,1-.393-.393h0a.393.393,0,0,1,.393-.393h1.519a.393.393,0,0,1,.393.393h0A.393.393,0,0,1,7127.293,4051.788Z" fill="#e1e1e1"/>
          </g>
          <g id="Grupo_109387" data-name="Grupo 109387">
            <path id="Trazado_115805" data-name="Trazado 115805" d="M7129.992,4047.548h-4.218a.393.393,0,0,1-.393-.393h0a.393.393,0,0,1,.393-.393h4.218a.393.393,0,0,1,.393.393h0A.393.393,0,0,1,7129.992,4047.548Z" fill="#e1e1e1"/>
          </g>
          <g id="Grupo_109388" data-name="Grupo 109388">
            <path id="Trazado_115806" data-name="Trazado 115806" d="M7129.252,4049.668h-3.478a.393.393,0,0,1-.393-.393h0a.393.393,0,0,1,.393-.393h3.478a.393.393,0,0,1,.393.393h0A.393.393,0,0,1,7129.252,4049.668Z" fill="#e1e1e1"/>
          </g>
          <g id="Grupo_109389" data-name="Grupo 109389">
            <path id="Trazado_115807" data-name="Trazado 115807" d="M7134.477,4037.3a.4.4,0,1,1-.4-.4A.4.4,0,0,1,7134.477,4037.3Z" fill="#375a64"/>
          </g>
          <g id="Grupo_109390" data-name="Grupo 109390">
            <circle id="Elipse_4834" data-name="Elipse 4834" cx="0.399" cy="0.399" r="0.399" transform="translate(7133.678 4034.807)" fill="#375a64"/>
          </g>
          <g id="Grupo_109391" data-name="Grupo 109391">
            <circle id="Elipse_4835" data-name="Elipse 4835" cx="0.399" cy="0.399" r="0.399" transform="translate(7133.678 4038.956)" fill="#375a64"/>
          </g>
          <g id="Grupo_109392" data-name="Grupo 109392">
            <circle id="Elipse_4836" data-name="Elipse 4836" cx="0.399" cy="0.399" r="0.399" transform="translate(7133.678 4041.088)" fill="#375a64"/>
          </g>
          <g id="Grupo_109393" data-name="Grupo 109393">
            <circle id="Elipse_4837" data-name="Elipse 4837" cx="0.399" cy="0.399" r="0.399" transform="translate(7133.678 4043.221)" fill="#375a64"/>
          </g>
          <g id="Grupo_109394" data-name="Grupo 109394">
            <path id="Trazado_115808" data-name="Trazado 115808" d="M7134.477,4045.752a.4.4,0,1,1-.4-.4A.4.4,0,0,1,7134.477,4045.752Z" fill="#375a64"/>
          </g>
          <g id="Grupo_109395" data-name="Grupo 109395">
            <circle id="Elipse_4838" data-name="Elipse 4838" cx="0.399" cy="0.399" r="0.399" transform="translate(7133.678 4047.486)" fill="#375a64"/>
          </g>
          <g id="Grupo_109396" data-name="Grupo 109396">
            <circle id="Elipse_4839" data-name="Elipse 4839" cx="0.399" cy="0.399" r="0.399" transform="translate(7133.678 4049.618)" fill="#375a64"/>
          </g>
          <g id="Grupo_109397" data-name="Grupo 109397">
            <path id="Trazado_115809" data-name="Trazado 115809" d="M7134.477,4052.15a.4.4,0,1,1-.4-.4A.4.4,0,0,1,7134.477,4052.15Z" fill="#375a64"/>
          </g>
          <g id="Grupo_109398" data-name="Grupo 109398">
            <path id="Trazado_115810" data-name="Trazado 115810" d="M7134.477,4054.282a.4.4,0,1,1-.4-.4A.4.4,0,0,1,7134.477,4054.282Z" fill="#375a64"/>
          </g>
          <g id="Grupo_109399" data-name="Grupo 109399">
            <circle id="Elipse_4840" data-name="Elipse 4840" cx="0.399" cy="0.399" r="0.399" transform="translate(7133.678 4056.016)" fill="#375a64"/>
          </g>
          <g id="Grupo_109400" data-name="Grupo 109400">
            <path id="Trazado_115811" data-name="Trazado 115811" d="M7134.477,4058.547a.4.4,0,1,1-.4-.4A.4.4,0,0,1,7134.477,4058.547Z" fill="#375a64"/>
          </g>
          <g id="Grupo_109401" data-name="Grupo 109401">
            <circle id="Elipse_4841" data-name="Elipse 4841" cx="0.399" cy="0.399" r="0.399" transform="translate(7133.678 4060.281)" fill="#375a64"/>
          </g>
          <path id="Rectángulo_40763" data-name="Rectángulo 40763" d="M3.82,0H44.9a3.82,3.82,0,0,1,3.82,3.82v.405a0,0,0,0,1,0,0H0a0,0,0,0,1,0,0V3.82A3.82,3.82,0,0,1,3.82,0Z" transform="translate(7123.715 4028.893)" fill="#e1e1e1"/>
          <g id="Grupo_109402" data-name="Grupo 109402">
            <circle id="Elipse_4842" data-name="Elipse 4842" cx="0.58" cy="0.58" r="0.58" transform="translate(7125.653 4030.553)" fill="#fff"/>
            <path id="Trazado_115812" data-name="Trazado 115812" d="M7128.6,4031.133a.581.581,0,1,1-.58-.58A.581.581,0,0,1,7128.6,4031.133Z" fill="#fff"/>
            <path id="Trazado_115813" data-name="Trazado 115813" d="M7130.385,4031.133a.58.58,0,1,1-.581-.58A.581.581,0,0,1,7130.385,4031.133Z" fill="#fff"/>
          </g>
        </g>
        <path id="Trazado_115814" data-name="Trazado 115814" d="M7134.077,4063.624l4.118,4.452,3.738-4.452Z" fill="#fff"/>
        <g id="Grupo_109404" data-name="Grupo 109404">
          <path id="Trazado_115815" data-name="Trazado 115815" d="M7171.111,4064.108a1.543,1.543,0,0,0,.427-.08,1.287,1.287,0,0,0,.454-.273,1.305,1.305,0,0,0,.378-.62,1.452,1.452,0,0,0,.047-.44l0-.5,0-1.139c0-.824,0-1.775-.007-2.844,0-4.282-.013-10.474-.022-18.125q0-2.87,0-6.006,0-1.566,0-3.2c0-.268.008-.55-.008-.811a1.27,1.27,0,0,0-1-1.1,5.738,5.738,0,0,0-.826-.027l-14.365.007-15.874,0h-14.86c-.178,0-.37-.006-.537.007a1.242,1.242,0,0,0-.488.155,1.262,1.262,0,0,0-.6.8,3.79,3.79,0,0,0-.034.744v5.293q0,3,0,5.94c0,3.917,0,7.745,0,11.464q0,2.788,0,5.493,0,1.351,0,2.68c0,.441,0,.888,0,1.319a1.254,1.254,0,0,0,1.221,1.179l.646,0h3.818l4.9,0h.025l.018.018,3.771,3.97-.084,0,3.334-3.966.016-.019h.025l21.656.024,5.911.014,1.54.008c.347,0,.525.008.525.008s-.178.005-.525.007l-1.54.008-5.911.014-21.656.024.041-.019-3.329,3.97-.041.049-.044-.046q-1.83-1.922-3.776-3.966l.044.018-4.9,0H7125a1.368,1.368,0,0,1-.651-.181,1.384,1.384,0,0,1-.7-1.118c-.009-.447,0-.882,0-1.327q0-1.328,0-2.68,0-2.7,0-5.493c0-3.719,0-7.547,0-11.464q0-2.938,0-5.94v-5.674a1.609,1.609,0,0,1,.038-.4,1.4,1.4,0,0,1,.67-.9,1.374,1.374,0,0,1,.543-.173c.2-.014.367,0,.551-.007h14.86l15.874,0,14.365.007a5.674,5.674,0,0,1,.85.03,1.384,1.384,0,0,1,1.085,1.2c.017.285,0,.549.008.823l0,3.2q0,3.132,0,6.006c-.009,7.651-.017,13.843-.022,18.125,0,1.069,0,2.02-.006,2.844l0,1.139v.5a1.443,1.443,0,0,1-.052.447,1.313,1.313,0,0,1-.391.629,1.29,1.29,0,0,1-.464.271,1.31,1.31,0,0,1-.32.064Z" fill="#1a2e35"/>
        </g>
      </g>
      <g id="Grupo_109422" data-name="Grupo 109422">
        <path id="Rectángulo_40764" data-name="Rectángulo 40764" d="M3.169,0H35.346a3.169,3.169,0,0,1,3.169,3.169V16.6a3.789,3.789,0,0,1-3.789,3.789H3.169A3.169,3.169,0,0,1,0,17.221V3.169A3.169,3.169,0,0,1,3.169,0Z" transform="translate(7126.685 4002.199)" fill="#fff"/>
        <path id="Rectángulo_40765" data-name="Rectángulo 40765" d="M3.473,0H35.042a3.473,3.473,0,0,1,3.473,3.473v.906a0,0,0,0,1,0,0H0a0,0,0,0,1,0,0V3.473A3.473,3.473,0,0,1,3.473,0Z" transform="translate(7126.685 4002.199)" fill="#e1e1e1"/>
        <g id="Grupo_109406" data-name="Grupo 109406">
          <path id="Trazado_115816" data-name="Trazado 115816" d="M7164.117,4022.589a1.53,1.53,0,0,0,.294-.049,1.081,1.081,0,0,0,.653-.539,1.192,1.192,0,0,0,.119-.621l0-.783c0-.566,0-1.218-.007-1.952,0-2.94-.013-7.19-.022-12.441l0-2.016v-1.042a.819.819,0,0,0-.468-.817,1.031,1.031,0,0,0-.505-.075h-1.653l-2.276,0-9.86.007-22.594.005a1.481,1.481,0,0,0-.357.025.883.883,0,0,0-.666.718,2.635,2.635,0,0,0-.013.362v4.064q0,2.928,0,5.765t0,5.564q0,1.363,0,2.7a1.025,1.025,0,0,0,.636.984,1.486,1.486,0,0,0,.622.075h.654l18.452.016,12.44.022,3.383.013.879.007c.2,0,.3.007.3.007s-.1,0-.3.007l-.879.007-3.383.014-12.44.022-18.452.015h-.654a1.615,1.615,0,0,1-.671-.084,1.157,1.157,0,0,1-.719-1.1q0-1.335,0-2.7,0-2.727,0-5.564t0-5.765v-4.064a2.648,2.648,0,0,1,.014-.384,1.024,1.024,0,0,1,.41-.666,1.012,1.012,0,0,1,.363-.167,1.587,1.587,0,0,1,.389-.028l22.594.005,9.86.007,2.276,0h1.653a1.163,1.163,0,0,1,.551.086.932.932,0,0,1,.529.916v1.042l0,2.016c-.009,5.251-.017,9.5-.022,12.441,0,.734,0,1.386-.007,1.952l0,.783a1.731,1.731,0,0,1-.023.342,1.138,1.138,0,0,1-.106.292,1.086,1.086,0,0,1-.674.54A.877.877,0,0,1,7164.117,4022.589Z" fill="#1a2e35"/>
        </g>
        <g id="Grupo_109407" data-name="Grupo 109407">
          <circle id="Elipse_4843" data-name="Elipse 4843" cx="0.717" cy="0.717" r="0.717" transform="translate(7128.834 4004.012)" fill="#fff"/>
          <path id="Trazado_115817" data-name="Trazado 115817" d="M7132.476,4004.73a.718.718,0,1,1-.718-.718A.718.718,0,0,1,7132.476,4004.73Z" fill="#fff"/>
          <circle id="Elipse_4844" data-name="Elipse 4844" cx="0.717" cy="0.717" r="0.717" transform="translate(7133.248 4004.012)" fill="#fff"/>
        </g>
        <g id="Grupo_109421" data-name="Grupo 109421">
          <g id="Grupo_109408" data-name="Grupo 109408">
            <path id="Trazado_115818" data-name="Trazado 115818" d="M7137.783,4012.748h-4.477a.486.486,0,0,1-.486-.486h0a.486.486,0,0,1,.486-.485h4.477a.486.486,0,0,1,.486.485h0A.486.486,0,0,1,7137.783,4012.748Z" fill="#1a2e35"/>
          </g>
          <g id="Grupo_109409" data-name="Grupo 109409">
            <path id="Trazado_115819" data-name="Trazado 115819" d="M7137.783,4015.291h-4.477a.486.486,0,0,1-.486-.486h0a.487.487,0,0,1,.486-.486h4.477a.487.487,0,0,1,.486.486h0A.486.486,0,0,1,7137.783,4015.291Z" fill="#e1e1e1"/>
          </g>
          <g id="Grupo_109410" data-name="Grupo 109410">
            <path id="Trazado_115820" data-name="Trazado 115820" d="M7161.418,4012.748h-12.986a.486.486,0,0,1-.486-.486h0a.485.485,0,0,1,.486-.485h12.986a.485.485,0,0,1,.486.485h0A.485.485,0,0,1,7161.418,4012.748Z" fill="#e1e1e1"/>
          </g>
          <g id="Grupo_109411" data-name="Grupo 109411">
            <path id="Trazado_115821" data-name="Trazado 115821" d="M7137.783,4017.919h-4.477a.487.487,0,0,1-.486-.486h0a.487.487,0,0,1,.486-.486h4.477a.487.487,0,0,1,.486.486h0A.487.487,0,0,1,7137.783,4017.919Z" fill="#ff735d"/>
          </g>
          <g id="Grupo_109412" data-name="Grupo 109412">
            <path id="Trazado_115822" data-name="Trazado 115822" d="M7158.32,4015.291h-4.477a.486.486,0,0,1-.486-.486h0a.487.487,0,0,1,.486-.486h4.477a.486.486,0,0,1,.486.486h0A.486.486,0,0,1,7158.32,4015.291Z" fill="#ff735d"/>
          </g>
          <g id="Grupo_109413" data-name="Grupo 109413">
            <path id="Trazado_115823" data-name="Trazado 115823" d="M7144.956,4012.748h-4.477a.486.486,0,0,1-.486-.486h0a.485.485,0,0,1,.486-.485h4.477a.485.485,0,0,1,.486.485h0A.486.486,0,0,1,7144.956,4012.748Z" fill="#375a64"/>
          </g>
          <g id="Grupo_109414" data-name="Grupo 109414">
            <path id="Trazado_115824" data-name="Trazado 115824" d="M7150.725,4015.291h-10.246a.486.486,0,0,1-.486-.486h0a.486.486,0,0,1,.486-.486h10.246a.486.486,0,0,1,.486.486h0A.486.486,0,0,1,7150.725,4015.291Z" fill="#1a2e35"/>
          </g>
          <g id="Grupo_109415" data-name="Grupo 109415">
            <path id="Trazado_115825" data-name="Trazado 115825" d="M7160.775,4017.919h-20.318a.476.476,0,0,1-.464-.486h0a.476.476,0,0,1,.464-.486h20.318a.475.475,0,0,1,.464.486h0A.475.475,0,0,1,7160.775,4017.919Z" fill="#e1e1e1"/>
          </g>
          <g id="Grupo_109416" data-name="Grupo 109416">
            <path id="Trazado_115826" data-name="Trazado 115826" d="M7150.512,4019.77h-10.033a.486.486,0,0,1-.486-.486h0a.486.486,0,0,1,.486-.486h10.033a.486.486,0,0,1,.485.486h0A.486.486,0,0,1,7150.512,4019.77Z" fill="#e1e1e1"/>
          </g>
          <g id="Grupo_109417" data-name="Grupo 109417">
            <path id="Trazado_115827" data-name="Trazado 115827" d="M7131.111,4012.262a.493.493,0,1,1-.493-.493A.493.493,0,0,1,7131.111,4012.262Z" fill="#375a64"/>
          </g>
          <g id="Grupo_109418" data-name="Grupo 109418">
            <path id="Trazado_115828" data-name="Trazado 115828" d="M7131.111,4009.829a.493.493,0,1,1-.493-.493A.492.492,0,0,1,7131.111,4009.829Z" fill="#375a64"/>
          </g>
          <g id="Grupo_109419" data-name="Grupo 109419">
            <circle id="Elipse_4845" data-name="Elipse 4845" cx="0.493" cy="0.493" r="0.493" transform="translate(7130.124 4014.304)" fill="#375a64"/>
          </g>
          <g id="Grupo_109420" data-name="Grupo 109420">
            <circle id="Elipse_4846" data-name="Elipse 4846" cx="0.493" cy="0.493" r="0.493" transform="translate(7130.124 4016.94)" fill="#375a64"/>
          </g>
        </g>
        <rect id="Rectángulo_40766" data-name="Rectángulo 40766" width="3.275" height="0.937" rx="0.424" transform="translate(7132.922 4009.245)" fill="#375a64"/>
      </g>
    </g>
    <g id="Grupo_109425" data-name="Grupo 109425">
      <path id="Trazado_115829" data-name="Trazado 115829" d="M7148.742,4057.559c-.213.009-.8.2-1.654,1.822-1.093,2.066-2.69,8.3-2.69,8.3l4.768,1.775.612-1.3,1.009-10.026S7148.8,4057.557,7148.742,4057.559Z" fill="#333435"/>
      <path id="Trazado_115830" data-name="Trazado 115830" d="M7155.045,4056.66a29.037,29.037,0,0,0-6.3.9s-1.15,9.886,1.036,17.4c.489,1.681-.4,6.971-.4,6.971l14.128-.187s-1.673-12.787-1.043-14.852.646-9.264.646-9.264-.1-.015-3.175-.547A31.977,31.977,0,0,0,7155.045,4056.66Z" fill="url(#linear-gradient)"/>
      <path id="Trazado_115831" data-name="Trazado 115831" d="M7156.691,4100.278s-.312,3.607-.887,4.606.03,2.7.061,2.931,1.209.566,3.085.366,1.845-.633,1.693-1.332-1.149-1.6-1.209-2.264a17.352,17.352,0,0,1,.574-3.064Z" fill="#f7a491"/>
      <path id="Trazado_115832" data-name="Trazado 115832" d="M7150.967,4078.951s-9.752-.541-11.93.778,1.547,7.792,1.547,7.792,6.786-.313,20.079.454c3.147.182,3.419-8.207,2.83-8.9S7150.967,4078.951,7150.967,4078.951Z" fill="#8b959e"/>
      <path id="Trazado_115833" data-name="Trazado 115833" d="M7159.184,4108.461c1.931-.206,1.692-1.155,1.536-1.875a6.375,6.375,0,0,0-.982-1.485,3.2,3.2,0,0,1-1.292.628,4.842,4.842,0,0,1-2.825-.57,9.342,9.342,0,0,0-.258,2.49C7155.394,4107.889,7157.253,4108.667,7159.184,4108.461Z" fill="url(#linear-gradient-2)"/>
      <path id="Trazado_115834" data-name="Trazado 115834" d="M7158.118,4085.928c-.39,2.949-2.319,17.626-2.319,17.626l4.476.555s5.5-19.158,5.223-22.088-2.343-3.177-2.343-3.177S7159.149,4078.123,7158.118,4085.928Z" fill="#acb5bc"/>
      <path id="Trazado_115835" data-name="Trazado 115835" d="M7163.257,4058.725c-1.321-.5-1.967,11.406-2.145,16.3a57.648,57.648,0,0,1-7.431-.074c-.478-.036-1.579-.439-2.054-.5a4.771,4.771,0,0,0-1.167-.055,21.979,21.979,0,0,0-2.734,1.231c-.259.271-.958.955-.84,1.251s1.345-.824,1.345-.824l.6-.336c-.746.729-2.17,1.689-1.965,2.039s1.484-.634,2.4-1.3c-.785.709-1.761,1.978-1.536,2.176.2.178,1.311-1.291,2.5-1.714.44-.157.878.277,1.223.329a2.467,2.467,0,0,0,.9.05l1.283-.364c.438.04.449.3.89.392.513.11,1.354.224,2.007.384,3.76.919,5.014,1.345,6.165,1.345C7166.177,4079.057,7166.379,4059.9,7163.257,4058.725Z" fill="#f7a491"/>
      <path id="Trazado_115836" data-name="Trazado 115836" d="M7165.764,4069.9c.248-5.018.212-11.2-2.6-12.258-1.11-.417-3.067,2.087-2.715,12.36A21.156,21.156,0,0,0,7165.764,4069.9Z" fill="#333435"/>
      <path id="Trazado_115837" data-name="Trazado 115837" d="M7143.134,4103.776a2.442,2.442,0,0,1,.138,2.1c-.509.957-3.178,2.365-3.456,2.884a1.26,1.26,0,0,0-.169.887l7.925-1.943-.607-2.389-.741-1.651Z" fill="#f7a491"/>
      <path id="Trazado_115838" data-name="Trazado 115838" d="M7142.863,4106.386s2.228.386,3.111-.319.825-.834,1.15-.713c.21.078.529,1.029.73,1.7a.651.651,0,0,1-.469.819l-8.252,2.039c-.627.121-1.042-.27-.62-.773a7.41,7.41,0,0,1,.852-.793A28.684,28.684,0,0,1,7142.863,4106.386Z" fill="url(#linear-gradient-3)"/>
      <path id="Trazado_115839" data-name="Trazado 115839" d="M7143.911,4081.263c-.631-1.327-2.064-3.054-4.587-2.014-2.406.993-3.052,3.431-2.293,5.928s5.757,17.177,5.931,19.2l3.991.026s-.726-11.623-.9-14.432A27.2,27.2,0,0,0,7143.911,4081.263Z" fill="#acb5bc"/>
      <path id="Trazado_115840" data-name="Trazado 115840" d="M7137.433,4067.743h13.339a.869.869,0,0,1,.8.541l4.108,10.052h7.353a.373.373,0,0,1,.373.373h0a.373.373,0,0,1-.373.373h-20.929a1.462,1.462,0,0,1-1.333-.865l-4.136-9.244A.872.872,0,0,1,7137.433,4067.743Z" fill="#184655"/>
      <path id="Trazado_115841" data-name="Trazado 115841" d="M7144.615,4073.6a.734.734,0,1,0,.55-.961A.784.784,0,0,0,7144.615,4073.6Z" fill="#fff"/>
      <g id="Grupo_109424" data-name="Grupo 109424">
        <path id="Trazado_115842" data-name="Trazado 115842" d="M7151.875,4044.585a10.206,10.206,0,0,0,1.18-.472,5.853,5.853,0,0,1,1.346-.507,3.242,3.242,0,0,1,2.729.727c.88.955,2.443.173,2.128,5.172-.356,5.658-3.5,5.037-3.578,4.941s-2.806-3.62-2.806-3.62-.955,2.088-.955,2.011S7147.046,4046.211,7151.875,4044.585Z" fill="#0e2e35"/>
        <path id="Trazado_115843" data-name="Trazado 115843" d="M7154.264,4054.864l-.272,2.022s-.608,2.912.174,3.474,3.329-3.557,3.329-3.557l-.269-5.123Z" fill="#f7a491"/>
        <path id="Trazado_115844" data-name="Trazado 115844" d="M7157.313,4053.34a5.805,5.805,0,0,1-3.28,3.238l.231-1.714,2.962-3.184Z" fill="#f47458"/>
        <path id="Trazado_115845" data-name="Trazado 115845" d="M7154.424,4046.1a2.7,2.7,0,0,0-3.1,2.726,20.494,20.494,0,0,0,.227,2.593c.36,2.334,1.953,4.389,3.006,4.206a5.06,5.06,0,0,0,3.235-5.518A4.464,4.464,0,0,0,7154.424,4046.1Z" fill="#f7a491"/>
        <path id="Trazado_115846" data-name="Trazado 115846" d="M7157.058,4050.508a.784.784,0,1,0,.6-1.061A.867.867,0,0,0,7157.058,4050.508Z" fill="#f7a491"/>
        <path id="Trazado_115847" data-name="Trazado 115847" d="M7157.654,4049.447s-1.273.316-1.745-.5-2.162-2.585-4.309-1.853,1.889-1.781,2.061-1.781,2.233-.014,2.233-.014,1.589,1.307,1.647,1.451.515,1.709.515,1.709Z" fill="#0e2e35"/>
      </g>
      <path id="Trazado_115848" data-name="Trazado 115848" d="M7155.325,4052.863l-2.316.443a1.031,1.031,0,0,0,1.245.707C7155.5,4053.812,7155.325,4052.863,7155.325,4052.863Z" fill="#fff"/>
    </g>
  </g>
</svg>
