<svg xmlns="http://www.w3.org/2000/svg" width="243.888" height="263.809" viewBox="0 0 243.888 263.809">
  <g id="Group_129990" data-name="Group 129990" transform="translate(-500.174 -2368.652)">
    <g id="Group_108694" data-name="Group 108694" transform="translate(506.632 2415.395)">
      <rect id="Rectangle_40360" data-name="Rectangle 40360" width="188.363" height="126.001" transform="translate(24.533)" fill="#dcdcdc"/>
      <rect id="Rectangle_40361" data-name="Rectangle 40361" width="185.625" height="122.927" transform="translate(25.902 1.537)" fill="#1a2e35"/>
      <g id="Group_108667" data-name="Group 108667" transform="translate(0 126.001)">
        <rect id="Rectangle_40362" data-name="Rectangle 40362" width="237.43" height="8.648" transform="translate(0 9.449)" fill="#c8c8c8"/>
        <path id="Path_114962" data-name="Path 114962" d="M2587.059,5519.113l24.533-9.449h188.363l24.533,9.449Z" transform="translate(-2587.059 -5509.664)" fill="#dcdcdc"/>
        <path id="Path_114963" data-name="Path 114963" d="M2618.558,5515.761l15.832-6.1h152.318l15.832,6.1Z" transform="translate(-2591.834 -5509.664)" fill="#1a2e35"/>
      </g>
      <g id="Group_108693" data-name="Group 108693" transform="translate(36.253 10.876)">
        <rect id="Rectangle_40363" data-name="Rectangle 40363" width="164.645" height="104.248" transform="translate(0.139)" fill="#fff"/>
        <g id="Group_108669" data-name="Group 108669">
          <rect id="Rectangle_40364" data-name="Rectangle 40364" width="164.784" height="4.011" fill="#375a64"/>
          <g id="Group_108668" data-name="Group 108668" transform="translate(1.198 1.011)">
            <path id="Path_114964" data-name="Path 114964" d="M2633.192,5376.156a1,1,0,1,1-1-1A1,1,0,0,1,2633.192,5376.156Z" transform="translate(-2631.202 -5375.161)" fill="#c8c8c8"/>
            <path id="Path_114965" data-name="Path 114965" d="M2637.98,5376.156a.995.995,0,1,1-.995-1A1,1,0,0,1,2637.98,5376.156Z" transform="translate(-2631.928 -5375.161)" fill="#fff"/>
            <path id="Path_114966" data-name="Path 114966" d="M2642.769,5376.156a.995.995,0,1,1-1-1A1,1,0,0,1,2642.769,5376.156Z" transform="translate(-2632.654 -5375.161)" fill="#ffc800"/>
          </g>
        </g>
        <g id="Group_108670" data-name="Group 108670" transform="translate(161.861 4.011)">
          <rect id="Rectangle_40365" data-name="Rectangle 40365" width="2.923" height="100.237" fill="#dcdcdc"/>
          <path id="Path_114967" data-name="Path 114967" d="M2822.156,5413.554h0a.755.755,0,0,1-.754-.755v-32.655a.754.754,0,0,1,.754-.754h0a.754.754,0,0,1,.755.754V5412.8A.755.755,0,0,1,2822.156,5413.554Z" transform="translate(-2820.697 -5378.803)" fill="#a8a8a8"/>
        </g>
        <g id="Group_108692" data-name="Group 108692" transform="translate(45.615 20.724)">
          <g id="Group_108681" data-name="Group 108681" transform="translate(24.552 42.271)">
            <g id="Group_108672" data-name="Group 108672" transform="translate(0 7.046)">
              <g id="Group_108671" data-name="Group 108671">
                <path id="Path_114968" data-name="Path 114968" d="M2719.464,5460.339a3.057,3.057,0,1,0-3.058,3.058A3.058,3.058,0,0,0,2719.464,5460.339Zm-1.63,0a1.428,1.428,0,1,1-1.428-1.427A1.428,1.428,0,0,1,2717.835,5460.339Z" transform="translate(-2712.623 -5456.639)" fill="#a8a8a8"/>
                <path id="Path_114969" data-name="Path 114969" d="M2717.436,5464.339h-1.176l.065.833h1.046Z" transform="translate(-2713.063 -5457.708)" fill="#a8a8a8"/>
                <path id="Path_114970" data-name="Path 114970" d="M2714.763,5463.724l-.831-.831-.542.635.739.739Z" transform="translate(-2712.629 -5457.489)" fill="#a8a8a8"/>
                <path id="Path_114971" data-name="Path 114971" d="M2713.325,5461.467v-1.176l-.832.065v1.046Z" transform="translate(-2712.492 -5457.095)" fill="#a8a8a8"/>
                <path id="Path_114972" data-name="Path 114972" d="M2713.843,5458.794l.832-.832-.635-.542-.74.74Z" transform="translate(-2712.615 -5456.66)" fill="#a8a8a8"/>
                <path id="Path_114973" data-name="Path 114973" d="M2716.135,5457.356h1.176l-.065-.832H2716.2Z" transform="translate(-2713.045 -5456.524)" fill="#a8a8a8"/>
                <path id="Path_114974" data-name="Path 114974" d="M2718.773,5457.875l.831.832.543-.635-.74-.739Z" transform="translate(-2713.445 -5456.646)" fill="#a8a8a8"/>
                <path id="Path_114975" data-name="Path 114975" d="M2720.308,5460.167v1.176l.832-.065v-1.045Z" transform="translate(-2713.677 -5457.076)" fill="#a8a8a8"/>
                <path id="Path_114976" data-name="Path 114976" d="M2719.692,5462.8l-.831.832.634.542.74-.739Z" transform="translate(-2713.458 -5457.476)" fill="#a8a8a8"/>
              </g>
              <path id="Path_114977" data-name="Path 114977" d="M2716.095,5461.407l.943.252.69-.69-.253-.942-.942-.252-.691.689Zm.69-1a.309.309,0,1,1-.31.309A.309.309,0,0,1,2716.785,5460.408Z" transform="translate(-2713 -5457.017)" fill="#a8a8a8"/>
            </g>
            <g id="Group_108676" data-name="Group 108676" transform="translate(6.288)">
              <g id="Group_108675" data-name="Group 108675">
                <g id="Group_108674" data-name="Group 108674">
                  <path id="Path_114978" data-name="Path 114978" d="M2729.342,5454.617a3.04,3.04,0,1,0-3.039,3.041A3.044,3.044,0,0,0,2729.342,5454.617Zm-.646,0a2.394,2.394,0,1,1-2.393-2.394A2.393,2.393,0,0,1,2728.7,5454.617Zm.646,0a3.04,3.04,0,1,0-3.039,3.041A3.044,3.044,0,0,0,2729.342,5454.617Zm-.646,0a2.394,2.394,0,1,1-2.393-2.394A2.393,2.393,0,0,1,2728.7,5454.617Zm2.732,0a5.126,5.126,0,1,0-5.125,5.126A5.125,5.125,0,0,0,2731.427,5454.617Zm-1.793,0a3.333,3.333,0,1,1-3.331-3.333A3.336,3.336,0,0,1,2729.634,5454.617Zm-.292,0a3.04,3.04,0,1,0-3.039,3.041A3.044,3.044,0,0,0,2729.342,5454.617Zm-.646,0a2.394,2.394,0,1,1-2.393-2.394A2.393,2.393,0,0,1,2728.7,5454.617Z" transform="translate(-2720.097 -5448.412)" fill="#a8a8a8"/>
                  <g id="Group_108673" data-name="Group 108673">
                    <path id="Path_114979" data-name="Path 114979" d="M2727.717,5461.466h-1.174l.117,1.172h.94Z" transform="translate(-2720.91 -5450.227)" fill="#a8a8a8"/>
                    <path id="Path_114980" data-name="Path 114980" d="M2724.6,5460.92l-1.016-.586-.485,1.073.814.47Z" transform="translate(-2720.388 -5450.056)" fill="#a8a8a8"/>
                    <path id="Path_114981" data-name="Path 114981" d="M2722.159,5458.932l-.587-1.017-.956.687.47.814Z" transform="translate(-2720.012 -5449.689)" fill="#a8a8a8"/>
                    <path id="Path_114982" data-name="Path 114982" d="M2721.075,5456.033v-1.174l-1.172.117v.94Z" transform="translate(-2719.904 -5449.226)" fill="#a8a8a8"/>
                    <path id="Path_114983" data-name="Path 114983" d="M2721.554,5452.913l.587-1.017-1.073-.485-.47.814Z" transform="translate(-2720.009 -5448.703)" fill="#a8a8a8"/>
                    <path id="Path_114984" data-name="Path 114984" d="M2723.55,5450.474l1.016-.586-.687-.956-.814.47Z" transform="translate(-2720.383 -5448.327)" fill="#a8a8a8"/>
                    <path id="Path_114985" data-name="Path 114985" d="M2726.508,5449.391h1.174l-.117-1.171h-.94Z" transform="translate(-2720.905 -5448.219)" fill="#a8a8a8"/>
                    <path id="Path_114986" data-name="Path 114986" d="M2729.569,5449.869l1.016.587.485-1.072-.814-.471Z" transform="translate(-2721.369 -5448.324)" fill="#a8a8a8"/>
                    <path id="Path_114987" data-name="Path 114987" d="M2732,5451.866l.587,1.016.956-.687-.47-.814Z" transform="translate(-2721.738 -5448.699)" fill="#a8a8a8"/>
                    <path id="Path_114988" data-name="Path 114988" d="M2733.15,5454.823V5456l1.171-.117v-.94Z" transform="translate(-2721.912 -5449.22)" fill="#a8a8a8"/>
                    <path id="Path_114989" data-name="Path 114989" d="M2732.605,5457.885l-.587,1.017,1.073.484.47-.814Z" transform="translate(-2721.74 -5449.685)" fill="#a8a8a8"/>
                    <path id="Path_114990" data-name="Path 114990" d="M2730.617,5460.316l-1.017.587.687.956.814-.471Z" transform="translate(-2721.374 -5450.053)" fill="#a8a8a8"/>
                  </g>
                </g>
              </g>
            </g>
            <g id="Group_108680" data-name="Group 108680" transform="translate(18.06 4.435)">
              <g id="Group_108679" data-name="Group 108679">
                <g id="Group_108678" data-name="Group 108678">
                  <path id="Path_114991" data-name="Path 114991" d="M2737.718,5455.774a1.4,1.4,0,1,0,1.259,1.519A1.4,1.4,0,0,0,2737.718,5455.774Zm1.09,1.5a1.225,1.225,0,1,1-1.105-1.333A1.225,1.225,0,0,1,2738.808,5457.276Zm-1.09-1.5a1.4,1.4,0,1,0,1.259,1.519A1.4,1.4,0,0,0,2737.718,5455.774Zm1.09,1.5a1.225,1.225,0,1,1-1.105-1.333A1.225,1.225,0,0,1,2738.808,5457.276Zm-1.09-1.5a1.4,1.4,0,1,0,1.259,1.519A1.4,1.4,0,0,0,2737.718,5455.774Zm1.09,1.5a1.225,1.225,0,1,1-1.105-1.333A1.225,1.225,0,0,1,2738.808,5457.276Zm-.947-3.042a2.941,2.941,0,1,0,2.655,3.2A2.942,2.942,0,0,0,2737.861,5454.235Zm1.332,3.077a1.612,1.612,0,1,1-1.455-1.754A1.613,1.613,0,0,1,2739.193,5457.312Zm-.216-.02a1.395,1.395,0,1,0-1.517,1.26A1.395,1.395,0,0,0,2738.977,5457.292Zm-.169-.016a1.225,1.225,0,1,1-1.105-1.333A1.225,1.225,0,0,1,2738.808,5457.276Zm-1.09-1.5a1.4,1.4,0,1,0,1.259,1.519A1.4,1.4,0,0,0,2737.718,5455.774Zm1.09,1.5a1.225,1.225,0,1,1-1.105-1.333A1.225,1.225,0,0,1,2738.808,5457.276Zm-1.09-1.5a1.4,1.4,0,1,0,1.259,1.519A1.4,1.4,0,0,0,2737.718,5455.774Zm1.09,1.5a1.225,1.225,0,1,1-1.105-1.333A1.225,1.225,0,0,1,2738.808,5457.276Z" transform="translate(-2733.911 -5453.564)" fill="#a8a8a8"/>
                  <g id="Group_108677" data-name="Group 108677">
                    <path id="Path_114992" data-name="Path 114992" d="M2738.267,5461.04l-1.126-.1-.012.8,1,.093Z" transform="translate(-2734.287 -5454.582)" fill="#a8a8a8"/>
                    <path id="Path_114993" data-name="Path 114993" d="M2735.754,5460.221l-.722-.87-.576.559.642.774Z" transform="translate(-2733.881 -5454.342)" fill="#a8a8a8"/>
                    <path id="Path_114994" data-name="Path 114994" d="M2734.57,5457.935l.1-1.125-.8-.012-.093,1Z" transform="translate(-2733.779 -5453.955)" fill="#a8a8a8"/>
                    <path id="Path_114995" data-name="Path 114995" d="M2735.31,5455.422l.87-.722-.559-.576-.774.643Z" transform="translate(-2733.941 -5453.549)" fill="#a8a8a8"/>
                    <path id="Path_114996" data-name="Path 114996" d="M2737.632,5454.238l1.126.1.012-.8-1-.093Z" transform="translate(-2734.363 -5453.447)" fill="#a8a8a8"/>
                    <path id="Path_114997" data-name="Path 114997" d="M2740.116,5454.979l.722.87.576-.56-.642-.774Z" transform="translate(-2734.74 -5453.609)" fill="#a8a8a8"/>
                    <path id="Path_114998" data-name="Path 114998" d="M2741.371,5457.3l-.1,1.125.8.012.093-1Z" transform="translate(-2734.914 -5454.031)" fill="#a8a8a8"/>
                    <path id="Path_114999" data-name="Path 114999" d="M2740.553,5459.784l-.87.722.559.576.774-.642Z" transform="translate(-2734.674 -5454.407)" fill="#a8a8a8"/>
                  </g>
                </g>
              </g>
            </g>
          </g>
          <g id="Group_108682" data-name="Group 108682" transform="translate(24.983 59.99)">
            <path id="Path_115000" data-name="Path 115000" d="M2713,5469.407a.208.208,0,0,1,.211-.211.214.214,0,0,1,.215.211v2.267a.214.214,0,0,1-.215.211.208.208,0,0,1-.211-.211Z" transform="translate(-2713.001 -5469.119)" fill="#2b454e"/>
            <path id="Path_115001" data-name="Path 115001" d="M2714.772,5471.678a.209.209,0,1,1-.418,0v-2.236a.2.2,0,0,1,.085-.176.211.211,0,0,1,.292.046l1.24,1.717v-1.583a.209.209,0,0,1,.208-.207.212.212,0,0,1,.211.207v2.232a.213.213,0,0,1-.211.211.208.208,0,0,1-.158-.077.14.14,0,0,1-.02-.024l-1.229-1.705Z" transform="translate(-2713.206 -5469.124)" fill="#2b454e"/>
            <path id="Path_115002" data-name="Path 115002" d="M2717.732,5471.2a.2.2,0,0,1,.28-.027,1.252,1.252,0,0,0,.734.3.833.833,0,0,0,.48-.142.346.346,0,0,0,.165-.278.221.221,0,0,0-.034-.122.353.353,0,0,0-.115-.115,1.544,1.544,0,0,0-.526-.181h-.008a1.994,1.994,0,0,1-.5-.15.81.81,0,0,1-.357-.3.578.578,0,0,1-.088-.315.709.709,0,0,1,.306-.561,1.137,1.137,0,0,1,.665-.2,1.508,1.508,0,0,1,.837.307.2.2,0,0,1,.053.273.194.194,0,0,1-.272.057,1.114,1.114,0,0,0-.618-.246.728.728,0,0,0-.43.131.306.306,0,0,0-.146.241.185.185,0,0,0,.027.108.363.363,0,0,0,.1.1,1.334,1.334,0,0,0,.48.169h.007a2.264,2.264,0,0,1,.531.161.892.892,0,0,1,.384.319.617.617,0,0,1,.093.325.744.744,0,0,1-.33.6,1.2,1.2,0,0,1-.711.22,1.659,1.659,0,0,1-.983-.384A.205.205,0,0,1,2717.732,5471.2Z" transform="translate(-2713.712 -5469.105)" fill="#2b454e"/>
            <path id="Path_115003" data-name="Path 115003" d="M2722.4,5469.622h-.611v2.051a.208.208,0,0,1-.211.211.211.211,0,0,1-.211-.211v-2.051h-.607a.214.214,0,0,1-.211-.215.208.208,0,0,1,.211-.211h1.64a.21.21,0,0,1,.211.211A.217.217,0,0,1,2722.4,5469.622Z" transform="translate(-2714.145 -5469.119)" fill="#2b454e"/>
            <path id="Path_115004" data-name="Path 115004" d="M2724.636,5471.252h-.934l-.188.5a.216.216,0,0,1-.2.135.212.212,0,0,1-.073-.012.217.217,0,0,1-.127-.276l.848-2.263a.216.216,0,0,1,.2-.135.212.212,0,0,1,.2.135l.848,2.263a.217.217,0,0,1-.126.276.2.2,0,0,1-.074.012.206.206,0,0,1-.2-.135Zm-.158-.423-.312-.826-.31.826Z" transform="translate(-2714.532 -5469.12)" fill="#2b454e"/>
            <path id="Path_115005" data-name="Path 115005" d="M2726.217,5471.673v-2.267a.211.211,0,0,1,.211-.211.214.214,0,0,1,.215.211v2.052h1.041a.213.213,0,0,1,0,.426h-1.256A.211.211,0,0,1,2726.217,5471.673Z" transform="translate(-2715.004 -5469.119)" fill="#2b454e"/>
            <path id="Path_115006" data-name="Path 115006" d="M2728.766,5471.673v-2.267a.211.211,0,0,1,.211-.211.214.214,0,0,1,.215.211v2.052h1.041a.213.213,0,0,1,0,.426h-1.256A.211.211,0,0,1,2728.766,5471.673Z" transform="translate(-2715.391 -5469.119)" fill="#2b454e"/>
            <path id="Path_115007" data-name="Path 115007" d="M2731.369,5469.407a.208.208,0,0,1,.211-.211.214.214,0,0,1,.215.211v2.267a.214.214,0,0,1-.215.211.208.208,0,0,1-.211-.211Z" transform="translate(-2715.785 -5469.119)" fill="#2b454e"/>
            <path id="Path_115008" data-name="Path 115008" d="M2733.14,5471.678a.209.209,0,1,1-.418,0v-2.236a.207.207,0,0,1,.084-.176.212.212,0,0,1,.293.046l1.24,1.717v-1.583a.209.209,0,0,1,.207-.207.212.212,0,0,1,.211.207v2.232a.213.213,0,0,1-.211.211.208.208,0,0,1-.157-.077.118.118,0,0,1-.019-.024l-1.229-1.705Z" transform="translate(-2715.99 -5469.124)" fill="#2b454e"/>
            <path id="Path_115009" data-name="Path 115009" d="M2735.841,5470.491a1.4,1.4,0,0,1,1.417-1.386,1.416,1.416,0,0,1,.875.3.222.222,0,0,1,.042.312.224.224,0,0,1-.311.035.989.989,0,0,0-.607-.208.951.951,0,0,0-.691.281.911.911,0,0,0,0,1.329.951.951,0,0,0,.691.281,1.065,1.065,0,0,0,.526-.146v-.526h-.549a.221.221,0,0,1-.219-.22.214.214,0,0,1,.219-.214H2738a.215.215,0,0,1,.222.214v.85a.3.3,0,0,1-.011.065.19.19,0,0,0-.008.019v0a.181.181,0,0,1-.073.093,1.419,1.419,0,0,1-.872.3A1.4,1.4,0,0,1,2735.841,5470.491Z" transform="translate(-2716.463 -5469.105)" fill="#2b454e"/>
            <path id="Path_115010" data-name="Path 115010" d="M2739.85,5471.722a.291.291,0,0,1,.288.289.287.287,0,0,1-.288.284.284.284,0,0,1-.284-.284A.287.287,0,0,1,2739.85,5471.722Z" transform="translate(-2717.028 -5469.502)" fill="#2b454e"/>
            <path id="Path_115011" data-name="Path 115011" d="M2740.891,5471.722a.29.29,0,0,1,.288.289.287.287,0,0,1-.288.284.284.284,0,0,1-.284-.284A.287.287,0,0,1,2740.891,5471.722Z" transform="translate(-2717.186 -5469.502)" fill="#2b454e"/>
            <path id="Path_115012" data-name="Path 115012" d="M2741.932,5471.722a.291.291,0,0,1,.289.289.288.288,0,0,1-.289.284.284.284,0,0,1-.284-.284A.287.287,0,0,1,2741.932,5471.722Z" transform="translate(-2717.344 -5469.502)" fill="#2b454e"/>
          </g>
          <g id="Group_108683" data-name="Group 108683" transform="translate(9.396 65.706)">
            <rect id="Rectangle_40366" data-name="Rectangle 40366" width="55.619" height="3.83" fill="#ececec"/>
            <rect id="Rectangle_40367" data-name="Rectangle 40367" width="2.097" height="2.625" transform="translate(0.749 0.602)" fill="#ffc800"/>
            <rect id="Rectangle_40368" data-name="Rectangle 40368" width="2.097" height="2.625" transform="translate(3.181 0.602)" fill="#ffc800"/>
            <rect id="Rectangle_40369" data-name="Rectangle 40369" width="2.097" height="2.625" transform="translate(5.614 0.602)" fill="#ffc800"/>
            <rect id="Rectangle_40370" data-name="Rectangle 40370" width="2.097" height="2.625" transform="translate(8.047 0.602)" fill="#ffc800"/>
            <rect id="Rectangle_40371" data-name="Rectangle 40371" width="2.097" height="2.625" transform="translate(10.479 0.602)" fill="#ffc800"/>
            <rect id="Rectangle_40372" data-name="Rectangle 40372" width="2.097" height="2.625" transform="translate(12.912 0.602)" fill="#ffc800"/>
          </g>
          <g id="Group_108691" data-name="Group 108691">
            <g id="Group_108688" data-name="Group 108688" transform="translate(17.816)">
              <g id="Group_108684" data-name="Group 108684" transform="translate(21.183 17.532)">
                <path id="Path_115013" data-name="Path 115013" d="M2729.521,5424.9l10.122-5.843v11.688Z" transform="translate(-2729.521 -5419.061)" fill="#ffc800"/>
                <path id="Path_115014" data-name="Path 115014" d="M2729.521,5424.9l10.122-5.843v11.688Z" transform="translate(-2729.521 -5419.061)" opacity="0.1"/>
              </g>
              <path id="Path_115015" data-name="Path 115015" d="M2729.521,5423.859v-11.687l10.122,5.844Z" transform="translate(-2708.338 -5400.484)" fill="#ffc800"/>
              <path id="Path_115016" data-name="Path 115016" d="M2736.3,5410.083V5398.4l10.122,5.844Z" transform="translate(-2709.365 -5398.396)" fill="#ffc800"/>
              <path id="Path_115017" data-name="Path 115017" d="M2717.591,5416.972v-11.688l10.122,5.844Z" transform="translate(-2706.529 -5399.44)" fill="#ffc800"/>
              <g id="Group_108685" data-name="Group 108685" transform="translate(11.061 11.688)">
                <path id="Path_115018" data-name="Path 115018" d="M2727.712,5423.859l-10.122-5.843,10.122-5.844Z" transform="translate(-2717.591 -5412.172)" fill="#ffc800"/>
                <path id="Path_115019" data-name="Path 115019" d="M2727.712,5423.859l-10.122-5.843,10.122-5.844Z" transform="translate(-2717.591 -5412.172)" opacity="0.1"/>
              </g>
              <g id="Group_108686" data-name="Group 108686" transform="translate(11.061)">
                <path id="Path_115020" data-name="Path 115020" d="M2727.712,5410.083l-10.122-5.844,10.122-5.844Z" transform="translate(-2717.591 -5398.396)" fill="#ffc800"/>
                <path id="Path_115021" data-name="Path 115021" d="M2727.712,5410.083l-10.122-5.844,10.122-5.844Z" transform="translate(-2717.591 -5398.396)" opacity="0.1"/>
              </g>
              <path id="Path_115022" data-name="Path 115022" d="M2704.553,5411.446l7.037-4.062v8.125Z" transform="translate(-2704.553 -5399.759)" fill="#ffc800"/>
              <g id="Group_108687" data-name="Group 108687" transform="translate(11.061 23.375)">
                <path id="Path_115023" data-name="Path 115023" d="M2727.712,5425.948v11.688l-10.122-5.844Z" transform="translate(-2717.591 -5425.948)" fill="#ffc800"/>
                <path id="Path_115024" data-name="Path 115024" d="M2727.712,5425.948v11.688l-10.122-5.844Z" transform="translate(-2717.591 -5425.948)" opacity="0.1"/>
              </g>
              <path id="Path_115025" data-name="Path 115025" d="M2729.521,5425.948l10.122,5.844-10.122,5.844Z" transform="translate(-2708.338 -5402.573)" fill="#ffc800"/>
            </g>
            <g id="Group_108689" data-name="Group 108689" transform="translate(0 21.8)">
              <path id="Path_115026" data-name="Path 115026" d="M2686.572,5424.644a1.9,1.9,0,0,1,0,2.619,1.694,1.694,0,0,1-1.237.554,1.745,1.745,0,0,1-1.269-.554,1.93,1.93,0,0,1,0-2.619,1.728,1.728,0,0,1,1.269-.553A1.677,1.677,0,0,1,2686.572,5424.644Zm-.068,1.31a1.342,1.342,0,0,0-.351-.906,1.117,1.117,0,0,0-1.656,0,1.315,1.315,0,0,0-.352.906,1.289,1.289,0,0,0,.352.9,1.1,1.1,0,0,0,1.656,0A1.315,1.315,0,0,0,2686.5,5425.954Z" transform="translate(-2683.554 -5424.091)" fill="#375a64"/>
              <path id="Path_115027" data-name="Path 115027" d="M2690.138,5426.428h-.637v1.123a.287.287,0,0,1-.574,0V5424.5a.284.284,0,0,1,.285-.284h.927a1.108,1.108,0,1,1,0,2.215Zm-.637-.575h.637a.533.533,0,1,0,0-1.065h-.637Z" transform="translate(-2684.368 -5424.109)" fill="#375a64"/>
              <path id="Path_115028" data-name="Path 115028" d="M2692.483,5427.551V5424.5a.28.28,0,0,1,.285-.284h1.693a.287.287,0,0,1,.284.284.293.293,0,0,1-.284.291h-1.4v.946h1.207a.291.291,0,0,1,.284.285.288.288,0,0,1-.284.29h-1.207v.953h1.4a.287.287,0,0,1,0,.574h-1.677c-.01,0-.01,0-.01,0l-.005,0A.283.283,0,0,1,2692.483,5427.551Z" transform="translate(-2684.907 -5424.109)" fill="#375a64"/>
              <path id="Path_115029" data-name="Path 115029" d="M2698.6,5427.406a.286.286,0,0,1-.181.362.447.447,0,0,1-.114.015h-.005a.374.374,0,0,1-.2-.057.507.507,0,0,1-.166-.182,1.379,1.379,0,0,1-.109-.621.445.445,0,0,0-.062-.223.49.49,0,0,0-.156-.15.958.958,0,0,0-.29-.124h-.611v1.123a.288.288,0,0,1-.29.284.283.283,0,0,1-.284-.284V5424.5a.28.28,0,0,1,.284-.284h.927a1.107,1.107,0,0,1,.7,1.961.8.8,0,0,1,.181.192.975.975,0,0,1,.171.559,1.323,1.323,0,0,0,.02.305A.28.28,0,0,1,2698.6,5427.406Zm-.725-2.081a.533.533,0,0,0-.533-.538h-.637v1.065h.637A.531.531,0,0,0,2697.88,5425.325Z" transform="translate(-2685.461 -5424.109)" fill="#375a64"/>
              <path id="Path_115030" data-name="Path 115030" d="M2701.842,5426.983h-1.258l-.253.673a.29.29,0,0,1-.27.181.3.3,0,0,1-.1-.015.294.294,0,0,1-.172-.373l1.144-3.049a.289.289,0,0,1,.275-.181.283.283,0,0,1,.274.181l1.144,3.049a.292.292,0,0,1-.17.373.291.291,0,0,1-.362-.166Zm-.212-.569-.419-1.113-.419,1.113Z" transform="translate(-2686.013 -5424.11)" fill="#375a64"/>
              <path id="Path_115031" data-name="Path 115031" d="M2705.528,5424.788h-.823v2.764a.28.28,0,0,1-.284.284.284.284,0,0,1-.285-.284v-2.764h-.818a.288.288,0,0,1-.284-.291.28.28,0,0,1,.284-.284h2.21a.284.284,0,0,1,.285.284A.293.293,0,0,1,2705.528,5424.788Z" transform="translate(-2686.507 -5424.109)" fill="#375a64"/>
              <path id="Path_115032" data-name="Path 115032" d="M2707.358,5424.5a.28.28,0,0,1,.285-.284.287.287,0,0,1,.289.284v3.054a.287.287,0,0,1-.289.284.28.28,0,0,1-.285-.284Z" transform="translate(-2687.162 -5424.109)" fill="#375a64"/>
              <path id="Path_115033" data-name="Path 115033" d="M2709.746,5427.558a.286.286,0,0,1-.28.284.283.283,0,0,1-.284-.284v-3.012a.278.278,0,0,1,.114-.239.286.286,0,0,1,.394.062l1.671,2.314v-2.133a.282.282,0,0,1,.28-.279.285.285,0,0,1,.284.279v3.007a.286.286,0,0,1-.284.284.281.281,0,0,1-.213-.1.118.118,0,0,1-.025-.03l-1.656-2.3Z" transform="translate(-2687.439 -5424.115)" fill="#375a64"/>
              <path id="Path_115034" data-name="Path 115034" d="M2713.384,5425.959a1.886,1.886,0,0,1,1.91-1.868,1.921,1.921,0,0,1,1.18.4.3.3,0,0,1,.057.42.3.3,0,0,1-.42.046,1.338,1.338,0,0,0-.817-.28,1.284,1.284,0,0,0-.932.377,1.225,1.225,0,0,0,0,1.791,1.279,1.279,0,0,0,.932.379,1.426,1.426,0,0,0,.708-.2v-.709h-.74a.3.3,0,0,1-.295-.3.29.29,0,0,1,.295-.29h1.03a.292.292,0,0,1,.3.29v1.144a.462.462,0,0,1-.015.088c-.006.011-.006.016-.011.026v0a.238.238,0,0,1-.1.124,1.91,1.91,0,0,1-1.175.4A1.881,1.881,0,0,1,2713.384,5425.959Z" transform="translate(-2688.076 -5424.091)" fill="#375a64"/>
            </g>
            <g id="Group_108690" data-name="Group 108690" transform="translate(54.841 21.8)">
              <path id="Path_115035" data-name="Path 115035" d="M2748.251,5426.917a.269.269,0,0,1,.378-.037,1.684,1.684,0,0,0,.989.4,1.12,1.12,0,0,0,.647-.192.468.468,0,0,0,.222-.373.3.3,0,0,0-.047-.167.466.466,0,0,0-.155-.154,2.039,2.039,0,0,0-.709-.244h-.01a2.787,2.787,0,0,1-.668-.2,1.115,1.115,0,0,1-.481-.4.79.79,0,0,1-.119-.424.957.957,0,0,1,.413-.756,1.529,1.529,0,0,1,.9-.274,2.022,2.022,0,0,1,1.128.414.266.266,0,0,1,.072.368.261.261,0,0,1-.367.077,1.505,1.505,0,0,0-.833-.331.986.986,0,0,0-.579.175.413.413,0,0,0-.2.327.247.247,0,0,0,.036.144.493.493,0,0,0,.139.135,1.783,1.783,0,0,0,.647.228h.01a3.016,3.016,0,0,1,.715.218,1.207,1.207,0,0,1,.517.429.832.832,0,0,1,.125.44,1,1,0,0,1-.445.8,1.616,1.616,0,0,1-.958.3,2.233,2.233,0,0,1-1.325-.518A.275.275,0,0,1,2748.251,5426.917Z" transform="translate(-2748.194 -5424.091)" fill="#2b454e"/>
              <path id="Path_115036" data-name="Path 115036" d="M2754.761,5424.706l-1.061,1.454v1.4a.28.28,0,0,1-.284.284.286.286,0,0,1-.285-.284v-1.4l-1.051-1.454a.272.272,0,0,1,.058-.393.274.274,0,0,1,.393.062l.886,1.211.885-1.211a.282.282,0,0,1,.4-.062A.286.286,0,0,1,2754.761,5424.706Z" transform="translate(-2748.774 -5424.116)" fill="#2b454e"/>
              <path id="Path_115037" data-name="Path 115037" d="M2755.606,5426.917a.269.269,0,0,1,.378-.037,1.687,1.687,0,0,0,.989.4,1.118,1.118,0,0,0,.647-.192.466.466,0,0,0,.222-.373.3.3,0,0,0-.046-.167.488.488,0,0,0-.156-.154,2.032,2.032,0,0,0-.709-.244h-.01a2.768,2.768,0,0,1-.667-.2,1.112,1.112,0,0,1-.482-.4.8.8,0,0,1-.119-.424.956.956,0,0,1,.414-.756,1.526,1.526,0,0,1,.9-.274,2.021,2.021,0,0,1,1.128.414.266.266,0,0,1,.072.368.26.26,0,0,1-.366.077,1.51,1.51,0,0,0-.834-.331.99.99,0,0,0-.58.175.413.413,0,0,0-.2.327.245.245,0,0,0,.037.144.487.487,0,0,0,.139.135,1.785,1.785,0,0,0,.647.228h.01a3.014,3.014,0,0,1,.714.218,1.2,1.2,0,0,1,.517.429.831.831,0,0,1,.124.44,1,1,0,0,1-.445.8,1.616,1.616,0,0,1-.958.3,2.228,2.228,0,0,1-1.324-.518A.274.274,0,0,1,2755.606,5426.917Z" transform="translate(-2749.309 -5424.091)" fill="#2b454e"/>
              <path id="Path_115038" data-name="Path 115038" d="M2761.891,5424.788h-.823v2.764a.28.28,0,0,1-.284.284.284.284,0,0,1-.285-.284v-2.764h-.818a.288.288,0,0,1-.284-.291.28.28,0,0,1,.284-.284h2.21a.283.283,0,0,1,.285.284A.292.292,0,0,1,2761.891,5424.788Z" transform="translate(-2749.892 -5424.109)" fill="#2b454e"/>
              <path id="Path_115039" data-name="Path 115039" d="M2763.679,5427.551V5424.5a.28.28,0,0,1,.284-.284h1.693a.287.287,0,0,1,.284.284.293.293,0,0,1-.284.291h-1.4v.946h1.206a.292.292,0,0,1,.285.285.289.289,0,0,1-.285.29h-1.206v.953h1.4a.287.287,0,0,1,0,.574h-1.677c-.01,0-.01,0-.01,0l-.005,0A.283.283,0,0,1,2763.679,5427.551Z" transform="translate(-2750.542 -5424.109)" fill="#2b454e"/>
              <path id="Path_115040" data-name="Path 115040" d="M2770.41,5424.5v3.054a.291.291,0,0,1-.289.284.284.284,0,0,1-.285-.284v-2.179l-.745,1.035a.282.282,0,0,1-.232.12h-.011a.291.291,0,0,1-.239-.12l-.74-1.035v2.179a.287.287,0,0,1-.574,0V5424.5a.287.287,0,0,1,.285-.284h.015a.279.279,0,0,1,.228.119l1.03,1.429,1.03-1.429a.283.283,0,0,1,.233-.119h.005A.3.3,0,0,1,2770.41,5424.5Z" transform="translate(-2751.09 -5424.109)" fill="#2b454e"/>
            </g>
          </g>
        </g>
      </g>
    </g>
    <g id="Group_108750" data-name="Group 108750" transform="translate(500.173 2493.804)">
      <g id="Group_108705" data-name="Group 108705" transform="translate(14.968 52.231)">
        <g id="Group_108700" data-name="Group 108700" transform="translate(127.719 27.354)">
          <g id="Group_108695" data-name="Group 108695">
            <path id="Path_115041" data-name="Path 115041" d="M2840.369,5604.824c-2,.768-60.015,1.822-62.285.524-.248-.145-.179-2.706-1.032-9.329-.042-.316-1.366-1.545-3.432-3.278-7.759-6.5-25.991-20.213-25.991-20.213l28.953-25.154,28.057,27.579,7.3,7.17s23.7,12.8,26.051,14.489C2840.318,5598.311,2842.366,5604.056,2840.369,5604.824Z" transform="translate(-2747.628 -5547.374)" fill="#ffaba1"/>
            <path id="Path_115042" data-name="Path 115042" d="M2843.583,5609.362c-2,.774-60.016,1.823-62.284.528-.246-.146-.176-2.7-1.035-9.333-.038-.314-1.364-1.54-3.433-3.279-2.7-2.26-3.978-3.293-7.993-6.419l36.81-13.533,2.207,2.168,7.294,7.171s23.706,12.8,26.051,14.489C2843.53,5602.849,2845.583,5608.6,2843.583,5609.362Z" transform="translate(-2750.843 -5551.915)" fill="#ececec"/>
          </g>
          <g id="Group_108699" data-name="Group 108699" transform="translate(22.131 24.93)">
            <path id="Path_115043" data-name="Path 115043" d="M2844.425,5611.006c-2.016.7-59.934,1.376-62.16.007-.522-.322-1-3.912-1.386-8.831-.047-.616-6.309-5.622-7.166-6.548l37.879-12.759,4.783,4.5s23.979,12.971,26.258,14.735S2846.44,5610.305,2844.425,5611.006Z" transform="translate(-2773.713 -5577.685)" fill="#ffc800"/>
            <g id="Group_108698" data-name="Group 108698" transform="translate(11.292)">
              <path id="Path_115044" data-name="Path 115044" d="M2845.584,5613.308c-9.711-.124-48.894.288-58.5.9-.078,0-.077.058,0,.06,9.624.335,48.8-.395,58.5-.8C2845.791,5613.459,2845.789,5613.311,2845.584,5613.308Z" transform="translate(-2787.022 -5582.295)" fill="#1a2e35"/>
              <g id="Group_108697" data-name="Group 108697" transform="translate(16.726)">
                <path id="Path_115045" data-name="Path 115045" d="M2825.6,5588.62c-3.829-.669-8.494-.027-11.382,2.728-.112.108.042.265.166.224a53.719,53.719,0,0,1,11.208-2.47A.244.244,0,0,0,2825.6,5588.62Z" transform="translate(-2807.865 -5578.519)" fill="#1a2e35"/>
                <path id="Path_115046" data-name="Path 115046" d="M2828.872,5590.54c-3.829-.668-8.5-.027-11.382,2.729-.112.107.042.264.165.223a53.784,53.784,0,0,1,11.208-2.47A.244.244,0,0,0,2828.872,5590.54Z" transform="translate(-2808.361 -5578.81)" fill="#1a2e35"/>
                <path id="Path_115047" data-name="Path 115047" d="M2832.146,5592.461c-3.829-.668-8.5-.027-11.382,2.729-.112.106.042.265.165.224a53.759,53.759,0,0,1,11.208-2.47A.244.244,0,0,0,2832.146,5592.461Z" transform="translate(-2808.857 -5579.102)" fill="#1a2e35"/>
                <path id="Path_115048" data-name="Path 115048" d="M2835.418,5594.382c-3.829-.668-8.494-.027-11.382,2.729-.112.107.042.265.166.224a53.764,53.764,0,0,1,11.207-2.469A.244.244,0,0,0,2835.418,5594.382Z" transform="translate(-2809.354 -5579.393)" fill="#1a2e35"/>
                <g id="Group_108696" data-name="Group 108696">
                  <path id="Path_115049" data-name="Path 115049" d="M2833.749,5577.94c-1.525-2.05-4.311-1.087-5.89.272a20.4,20.4,0,0,0-5.782,8.82.1.1,0,0,0,.092.136.475.475,0,0,0,.6.471c3.141-1.206,6.649-2.1,9.327-4.238C2833.663,5582.156,2835.192,5579.88,2833.749,5577.94Zm-6.586,6.9c-1.531.63-3.082,1.182-4.59,1.868a61.368,61.368,0,0,1,3.49-5.077,22.089,22.089,0,0,1,2-2.212c1.124-1.046,5.6-3.3,4.975.9C2832.692,5582.631,2828.986,5584.086,2827.162,5584.838Z" transform="translate(-2809.061 -5576.758)" fill="#1a2e35"/>
                  <path id="Path_115050" data-name="Path 115050" d="M2810.031,5586.622c3.165,1.306,6.784,1.195,10.136,1.48a.474.474,0,0,0,.45-.619.1.1,0,0,0,.05-.157,20.4,20.4,0,0,0-8-6.868c-1.894-.866-4.837-1.018-5.732,1.375C2806.083,5584.1,2808.183,5585.859,2810.031,5586.622Zm-1.756-2.7c-1.766-3.861,3.158-2.939,4.529-2.244a21.89,21.89,0,0,1,2.534,1.568,60.934,60.934,0,0,1,4.763,3.908c-1.638-.241-3.281-.34-4.927-.52C2813.212,5586.415,2809.248,5586.046,2808.274,5583.917Z" transform="translate(-2806.737 -5577.231)" fill="#1a2e35"/>
                </g>
              </g>
            </g>
          </g>
        </g>
        <g id="Group_108704" data-name="Group 108704">
          <path id="Path_115051" data-name="Path 115051" d="M2782.218,5568.526l-35.789,18.545s-37.283-33.75-40.7-34c-3.317-.242-55.914,33.782-81.164,33.889-26.155.109-27.478-27.292-27.478-27.292l38.152-8.762c27.5-13.555,58.487-37.9,77.222-35.628C2732.813,5517.747,2782.218,5568.526,2782.218,5568.526Z" transform="translate(-2597.089 -5515.132)" fill="#375a64"/>
          <g id="Group_108703" data-name="Group 108703" transform="translate(22.27 34.415)">
            <g id="Group_108702" data-name="Group 108702" transform="translate(123.486 14.245)">
              <g id="Group_108701" data-name="Group 108701">
                <path id="Path_115052" data-name="Path 115052" d="M2799.518,5572.5c-6.041,2.986-4.347,2.048-10.356,5.1-2.94,1.494-17.74,8.96-20.251,10.809a.067.067,0,0,0,.06.115c2.958-.99,17.591-8.775,20.5-10.321,5.952-3.16,4.211-2.313,10.129-5.536A.093.093,0,1,0,2799.518,5572.5Z" transform="translate(-2768.887 -5572.486)" fill="#1a2e35"/>
              </g>
            </g>
            <path id="Path_115053" data-name="Path 115053" d="M2744.07,5584.671c-7-6.17-29.921-26.254-30.852-27a12.637,12.637,0,0,0-2.386-1.789,2.523,2.523,0,0,0-2.208.178c-1.059.494-2.1,1.037-3.148,1.55l-6.2,3.028c-8.019,3.914-15.991,7.93-24.07,11.714a243.423,243.423,0,0,1-23.77,9.864,121.883,121.883,0,0,1-24.895,5.936q-1.569.19-3.143.335c-.076.007-.075.124,0,.119a100.084,100.084,0,0,0,24.5-4.557,189.689,189.689,0,0,0,23.468-9.194c7.914-3.641,15.713-7.537,23.513-11.413,4.118-2.046,8.227-4.113,12.357-6.136.937-.459,2.27-1.453,3.339-.96a5.9,5.9,0,0,1,1.234.909l1.374,1.143c1.771,1.473,29.87,25.677,30.792,26.375C2744.044,5584.823,2744.138,5584.731,2744.07,5584.671Z" transform="translate(-2623.338 -5555.697)" fill="#1a2e35"/>
          </g>
        </g>
      </g>
      <g id="Group_108708" data-name="Group 108708" transform="translate(14.252 85.203)">
        <g id="Group_108707" data-name="Group 108707">
          <path id="Path_115054" data-name="Path 115054" d="M2596.961,5566s-4.28,24.742,8.093,34.464,103.014,8.549,116.767,4.1,14.183-26.638-.852-31.78c-14.3-4.892-75.136-7.269-76.639-7.867-.375-.15,5.4-3.61,5.37-3.82l-13.842-4.23Z" transform="translate(-2596.246 -5554.43)" fill="#375a64"/>
          <g id="Group_108706" data-name="Group 108706" transform="translate(3.689)">
            <path id="Path_115055" data-name="Path 115055" d="M2617.224,5566.881c-.017-.106-.182-.072-.182.028a12.214,12.214,0,0,1-2.86,7.86c-2.105,2.432-5.211,3.793-8.026,5.217-.271.137-.065.56.215.476a24.815,24.815,0,0,0,4.969-2.141,12.044,12.044,0,0,0,3.738-3.108A10.686,10.686,0,0,0,2617.224,5566.881Z" transform="translate(-2601.418 -5555.938)" fill="#1a2e35"/>
            <path id="Path_115056" data-name="Path 115056" d="M2649.831,5561.871c-.628-.8-1.312-1.564-1.968-2.345-1.55-1.845-3.106-3.7-4.73-5.474-.155-.169-.455.069-.314.254,1.094,1.43,2.251,2.814,3.39,4.209q.876,1.071,1.76,2.136a13.429,13.429,0,0,1,1.642,2.083c.424.793-.133,1.471-.955,1.558a2.85,2.85,0,0,1-1.978-.728,26.3,26.3,0,0,1-3.356-3.588c-.652-.734-1.3-1.467-1.967-2.192-.7-.771-1.455-1.5-2.157-2.271-.046-.05-.133.02-.093.075.615.84,1.181,1.721,1.8,2.564s1.238,1.678,1.872,2.506q.9,1.175,1.863,2.3a7.686,7.686,0,0,0,1.889,1.69c1.177.692,3.219.841,3.845-.68A2.142,2.142,0,0,0,2649.831,5561.871Z" transform="translate(-2606.43 -5553.995)" fill="#1a2e35"/>
            <path id="Path_115057" data-name="Path 115057" d="M2720.6,5606.49c-4.735.088-9.467.363-14.2.465q-7.045.15-14.094.083-14.153-.134-28.283-1.1c-9.512-.658-19.773-1.6-29.223-2.914-4.521-.627-9.1-1.148-13.573-2.109a21.416,21.416,0,0,1-10.706-5.469c-6.12-5.937-8.5-14.664-9.478-23q-.2-1.679-.329-3.362c-.006-.076-.122-.075-.116,0,.553,8.55,1.882,17.463,7.26,24.336a21.373,21.373,0,0,0,8.759,6.8c4.232,1.695,8.929,2.093,13.4,2.7,9.488,1.287,19.788,2.28,29.33,3.021q14.4,1.118,28.858,1.351c9.628.142,19.266.007,28.885-.466,1.174-.058,2.346-.126,3.518-.229A.054.054,0,0,0,2720.6,5606.49Z" transform="translate(-2600.594 -5556.274)" fill="#1a2e35"/>
            <path id="Path_115058" data-name="Path 115058" d="M2698.563,5569.7c-2.981-.437-5.956-.866-8.953-1.178-3.026-.314-6.058-.585-9.089-.842-6-.508-12.008-.964-18.02-1.246-3.416-.161-6.831-.178-10.249-.134-.11,0-.1.158,0,.167,6.011.545,12.025.924,18.047,1.325s12.009.926,18,1.5c3.4.324,6.8.574,10.206.852C2698.763,5570.164,2698.813,5569.738,2698.563,5569.7Z" transform="translate(-2608.413 -5555.857)" fill="#1a2e35"/>
            <path id="Path_115059" data-name="Path 115059" d="M2657.708,5561.491a46.43,46.43,0,0,0-6.9,3.695,55.3,55.3,0,0,0-6.389,4.468c-.056.048.02.118.075.092,2.342-1.083,4.593-2.439,6.823-3.737a64.4,64.4,0,0,0,6.535-4.2C2658,5561.7,2657.909,5561.409,2657.708,5561.491Z" transform="translate(-2607.234 -5555.129)" fill="#1a2e35"/>
          </g>
        </g>
      </g>
      <g id="Group_108743" data-name="Group 108743" transform="translate(0)">
        <g id="Group_108713" data-name="Group 108713" transform="translate(45.75 35.594)">
          <g id="Group_108711" data-name="Group 108711" transform="translate(0.037 0.367)">
            <path id="Path_115060" data-name="Path 115060" d="M2633.93,5503.456c3.6,15.864,11.1,34.886,14.308,37.978,4.059,3.911,30.968,11.128,32.311,11.276,3.326.344,10.043-23.581,6.5-24.1-5.389-.79-24.987-1.9-26.16-3.112-1.216-1.265-9.463-11.716-17.943-23.524C2637.1,5493.814,2631.694,5493.613,2633.93,5503.456Z" transform="translate(-2633.414 -5495.956)" fill="#ffaba1"/>
            <g id="Group_108710" data-name="Group 108710" transform="translate(44.468 32.303)">
              <path id="Path_115061" data-name="Path 115061" d="M2685.827,5557.185a72.626,72.626,0,0,0,9.491,4.061c2.594.759,10.118,2.741,11.236-.031.765-1.889-3.522-3.576-6.528-4.837-1.583-.664-3.532-2.327-3.063-3.345.821-1.779,4.9.02,7.575,1.585,5.181,3.025,12.079,8.469,15.254,5.844,1.2-.992-.187-2.808-2.219-4.589,3.3,2.078,6.815,3.785,8.191,2.735a1.743,1.743,0,0,0,.392-2.361,2.31,2.31,0,0,0,2.549-.392c1.076-1.12.557-2.779-.613-4.481a1.279,1.279,0,0,0,.976-.639c2.281-3.46-9.071-13.437-13-14.376a99.6,99.6,0,0,0-23.767-2.295C2687.745,5537.685,2685.818,5557.178,2685.827,5557.185Z" transform="translate(-2685.827 -5534.031)" fill="#ffaba1"/>
              <g id="Group_108709" data-name="Group 108709" transform="translate(17.017 3.344)">
                <path id="Path_115062" data-name="Path 115062" d="M2705.913,5548.81a19.64,19.64,0,0,1,7.714,2.99c2.929,1.944,4.871,4.215,7.328,6.5.064.06-.027.162-.092.1-1.171-1.088-6.023-5.179-7.276-6.109a18.71,18.71,0,0,0-7.684-3.44A.024.024,0,0,1,2705.913,5548.81Z" transform="translate(-2705.885 -5539.615)" fill="#1a2e35"/>
                <path id="Path_115063" data-name="Path 115063" d="M2708.468,5543.027a46.824,46.824,0,0,1,8.975,3.132c3.086,1.582,5.5,4.155,7.87,6.631q2.137,2.229,4.172,4.554c.057.065-.03.167-.091.1q-3.61-3.837-7.448-7.453a24.749,24.749,0,0,0-8.18-5.182c-1.739-.667-3.527-1.2-5.311-1.731C2708.423,5543.07,2708.434,5543.018,2708.468,5543.027Z" transform="translate(-2706.271 -5538.739)" fill="#1a2e35"/>
                <path id="Path_115064" data-name="Path 115064" d="M2712.314,5537.973c2.954.614,5.531,1.139,8.146,2.729a42.228,42.228,0,0,1,7.967,6.9c1.294,1.386,2.539,2.815,3.763,4.262.05.059-.052.147-.1.089a98.26,98.26,0,0,0-9-8.951,19.521,19.521,0,0,0-5.034-3.29,35.172,35.172,0,0,0-5.746-1.721A.01.01,0,0,1,2712.314,5537.973Z" transform="translate(-2706.857 -5537.973)" fill="#1a2e35"/>
              </g>
            </g>
          </g>
          <g id="Group_108712" data-name="Group 108712">
            <path id="Path_115065" data-name="Path 115065" d="M2682.487,5527.242l-8.343,26.212s-22.4-6.452-26.49-10.881-11.594-27.26-13.793-38.322,3.393-10.777,8.515-3.793,17.877,23.911,18.59,24.28S2682.487,5527.242,2682.487,5527.242Z" transform="translate(-2633.371 -5495.522)" fill="#ffc800"/>
            <path id="Path_115066" data-name="Path 115066" d="M2678.329,5547.434c1.01-3.09,2.045-6.174,2.941-9.3.509-1.777,1.027-3.552,1.52-5.335.019-.068-.094-.108-.119-.042-1.136,3.062-2.27,6.135-3.265,9.248-.992,3.1-2.009,6.188-2.96,9.3q-.812,2.654-1.46,5.348c-.009.036.048.057.063.022C2676.287,5553.646,2677.312,5550.546,2678.329,5547.434Z" transform="translate(-2639.679 -5501.162)" fill="#1a2e35"/>
            <path id="Path_115067" data-name="Path 115067" d="M2662.847,5549.822l-.994-.351c-1.866-.671-3.769-1.392-5.56-2.128-.232-.091-.459-.187-.682-.283-.361-.15-.72-.3-1.067-.458-.178-.075-.348-.154-.521-.229-.063-.029-.125-.054-.187-.083-.182-.083-.36-.166-.538-.25-.711-.329-1.385-.657-2.014-.99-.144-.075-.294-.154-.433-.233a15.535,15.535,0,0,1-2.762-1.824c-.079-.07-.157-.141-.228-.211s-.145-.142-.207-.208c-4.089-4.428-11.6-27.26-13.793-38.324-.025-.129-.049-.257-.074-.381,0-.029-.009-.054-.013-.083-.147-.841-.277-1.881-.382-3.007v-.012c-.3-5.5,2.309-6.4,5.521-3.971C2646.927,5514.04,2659.145,5542.509,2662.847,5549.822Z" transform="translate(-2633.371 -5495.522)" fill="#1a2e35"/>
          </g>
        </g>
        <g id="Group_108715" data-name="Group 108715" transform="translate(11.647 35.045)">
          <path id="Path_115068" data-name="Path 115068" d="M2650.978,5552.462l-53.225,6.146c0-1.094,6.133-33.334,11.477-45.337,6.85-15.392,10.611-16.737,12.854-17.632a17.687,17.687,0,0,1,9.309-.268c1.415.6,6.116,8.191,7.9,13.814C2642.877,5520.477,2651.669,5551.741,2650.978,5552.462Z" transform="translate(-2593.869 -5494.875)" fill="#ececec"/>
          <g id="Group_108714" data-name="Group 108714" transform="translate(0 2.05)">
            <path id="Path_115069" data-name="Path 115069" d="M2618.84,5497.291s6.914,24.8,7.3,26.38c.565,2.292,2.5,36.36,2.5,36.36l-35.466,1.557s8.567-33.217,13.844-46.785C2612.789,5499.964,2618.84,5497.291,2618.84,5497.291Z" transform="translate(-2593.175 -5497.291)" fill="#ffc800"/>
          </g>
          <path id="Path_115070" data-name="Path 115070" d="M2637.978,5495.879c.218.757,6.844,19.98,7.424,24.806.644,5.358,6.99,35.981,6.99,35.981l5.364-3.244s-10.432-41.091-12.65-45.759C2640.584,5498.153,2637.978,5495.879,2637.978,5495.879Z" transform="translate(-2599.967 -5495.027)" fill="#ffc800"/>
        </g>
        <g id="Group_108727" data-name="Group 108727" transform="translate(0 37.82)">
          <g id="Group_108726" data-name="Group 108726">
            <g id="Group_108723" data-name="Group 108723" transform="translate(0.719 0.423)">
              <path id="Path_115071" data-name="Path 115071" d="M2611.543,5501.807c-9.89,7.607-35.957,38.365-30.508,45.663,5.488,7.35,42.793,4.867,53.689,1.727,3.241-.934-5.076-21.555-8.535-22.577-2.879-.85-19.048,3.538-19.339,2.6-.329-1.058,3.251-7.877,9.028-20.337C2622.538,5494.518,2615.91,5498.447,2611.543,5501.807Z" transform="translate(-2580.294 -5498.644)" fill="#ffaba1"/>
              <g id="Group_108722" data-name="Group 108722" transform="translate(41.263 21.717)">
                <g id="Group_108721" data-name="Group 108721">
                  <path id="Path_115072" data-name="Path 115072" d="M2653.161,5526.924c7.471.191,9.36,1.387,15.75-1.8,4.194-2.091,7.328-.312,4.479,3.642-4.66,6.468-14.35,8.245-17.887,7.894Z" transform="translate(-2632.602 -5524.241)" fill="#ffaba1"/>
                  <g id="Group_108716" data-name="Group 108716" transform="translate(0 2.635)">
                    <path id="Path_115073" data-name="Path 115073" d="M2628.929,5531.214a76.155,76.155,0,0,1,16.939-3.782c5.52-.4,17.625.057,27.034,13.633,2.231,3.221,3.128,9.391-2.427,5.457-3.946-2.8-5.6-5.761-8.195-6.969,0,0,.209,7.985-3.1,10.094a72.341,72.341,0,0,1-9.051,4.9,15.135,15.135,0,0,1-1.068-1.611s-3.281,1.678-8.7.244Z" transform="translate(-2628.929 -5527.346)" fill="#ffaba1"/>
                  </g>
                  <g id="Group_108720" data-name="Group 108720" transform="translate(16.93 3.177)">
                    <path id="Path_115074" data-name="Path 115074" d="M2654.223,5527.986c2.318,1.743,7.17,5.52,10.064,9.988,3.216,4.965,8.07,15.395,4.381,17.73-2.706,1.713-4.909-2.107-4.909-2.107s1.1,4.734-1.684,5.747c-2.535.923-4.063-2.134-4.063-2.134s.172,2.986-2.44,3.4c-3.143.5-2.989-5.837-6.613-8.079C2648.145,5552.033,2654.223,5527.986,2654.223,5527.986Z" transform="translate(-2648.884 -5527.986)" fill="#ffaba1"/>
                    <g id="Group_108719" data-name="Group 108719" transform="translate(4.622 12.502)">
                      <g id="Group_108717" data-name="Group 108717" transform="translate(4.918)">
                        <path id="Path_115075" data-name="Path 115075" d="M2660.18,5542.73a23.567,23.567,0,0,1,5.342,12.993c0,.122-.083.191-.112.082a58.019,58.019,0,0,0-5.277-13.043C2660.117,5542.732,2660.159,5542.708,2660.18,5542.73Z" transform="translate(-2660.13 -5542.722)" fill="#1a2e35"/>
                      </g>
                      <g id="Group_108718" data-name="Group 108718" transform="translate(0 3.39)">
                        <path id="Path_115076" data-name="Path 115076" d="M2654.384,5546.727a26.447,26.447,0,0,1,4.558,13.289c0,.121-.092.185-.115.074a62.294,62.294,0,0,0-4.49-13.335C2654.321,5546.726,2654.365,5546.7,2654.384,5546.727Z" transform="translate(-2654.333 -5546.717)" fill="#1a2e35"/>
                      </g>
                    </g>
                  </g>
                </g>
                <path id="Path_115077" data-name="Path 115077" d="M2668.239,5541.676a19.851,19.851,0,0,1,5.4,4.246,33.1,33.1,0,0,0,2.744,2.448c.883.685,2.182,1.714,3.35,1.063a1.977,1.977,0,0,0,.76-1.87,9.661,9.661,0,0,0-.86-2.925c-.017-.035.043-.065.061-.031a13.755,13.755,0,0,1,1.031,2.648,3.208,3.208,0,0,1-.092,1.893c-.567,1.254-2.143,1.17-3.178.628a10.582,10.582,0,0,1-1.723-1.216c-.522-.427-1.024-.878-1.514-1.341-1-.952-1.953-1.96-2.946-2.923a31.4,31.4,0,0,0-3.076-2.546C2668.149,5541.719,2668.194,5541.655,2668.239,5541.676Z" transform="translate(-2634.878 -5526.883)" fill="#1a2e35"/>
                <path id="Path_115078" data-name="Path 115078" d="M2671.565,5550.874a75.17,75.17,0,0,0-3.656-9.148.035.035,0,0,1,.057-.039,39.333,39.333,0,0,1,4.219,8.839,13.226,13.226,0,0,1,.648,5.261c-.411,2.487-2.138,2.686-2.769,2.706a3.265,3.265,0,0,1-2.058-.7,6.577,6.577,0,0,1-1.62-2.119c-.02-.039.032-.078.057-.04a4.656,4.656,0,0,0,3.351,2.372,2.29,2.29,0,0,0,1.675-.575,2.971,2.971,0,0,0,.729-1.937A13.758,13.758,0,0,0,2671.565,5550.874Z" transform="translate(-2634.606 -5526.883)" fill="#1a2e35"/>
              </g>
            </g>
            <g id="Group_108725" data-name="Group 108725">
              <path id="Path_115079" data-name="Path 115079" d="M2621.428,5526.788l7.5,26.116s-46.691,2.662-49.278-5.817,19.971-36.256,29.326-43.884c10.844-8.839,11.427-5.126,7.9,3.715-3.7,9.257-10.061,22.476-10.061,22.476Z" transform="translate(-2579.447 -5498.146)" fill="#ffc800"/>
              <g id="Group_108724" data-name="Group 108724" transform="translate(3.828 17.548)">
                <path id="Path_115080" data-name="Path 115080" d="M2594.314,5539.02a53.467,53.467,0,0,1,7.2-2.77,51.855,51.855,0,0,1,7.447-1.646c1.436-.225,2.877-.379,4.32-.544a.035.035,0,0,1,.007.069,66.492,66.492,0,0,0-7.507,1.578q-3.689.961-7.338,2.057c-1.377.414-2.734.893-4.1,1.353A.052.052,0,0,1,2594.314,5539.02Z" transform="translate(-2585.524 -5521.138)" fill="#1a2e35"/>
                <path id="Path_115081" data-name="Path 115081" d="M2626.19,5529.833c-.236.021-13.219,2.049-13.654,2.17.082-.176,3.373-6.358,3.863-7.262.049-.09.093-.181.141-.271.3-.391.593-.779.872-1.181.359-.516.714-1.033,1.069-1.552.011-.015-.012-.034-.024-.019q-.568.75-1.133,1.5c-.173.232-.34.47-.5.708.329-.641.649-1.286.969-1.934.512-1.032.989-2.078,1.464-3.127.015-.034-.035-.054-.053-.023-.969,1.8-1.995,3.571-2.969,5.369s-4.67,8.405-4.649,8.4c.019.022,14.351-2.541,14.63-2.607A.089.089,0,0,0,2626.19,5529.833Z" transform="translate(-2588.146 -5518.83)" fill="#1a2e35"/>
                <path id="Path_115082" data-name="Path 115082" d="M2625.94,5548.137c-.82-2.912-1.617-5.831-2.544-8.713-.528-1.637-1.046-3.278-1.589-4.91-.02-.062-.128-.035-.113.029.707,2.955,1.423,5.916,2.265,8.839s1.651,5.823,2.527,8.721q.747,2.47,1.641,4.889c.012.032.067.02.06-.015C2627.578,5554,2626.766,5551.069,2625.94,5548.137Z" transform="translate(-2589.679 -5521.202)" fill="#1a2e35"/>
                <path id="Path_115083" data-name="Path 115083" d="M2630.132,5562.66c-.328-.819-.719-1.989-1.08-2.794-.1-.213-.25-.2-.181.021.231.734.389,1.542.614,2.292-.653.021-1.306.028-1.959.056-.755.033-1.51.068-2.265.1q-2.218.088-4.438.129-4.495.083-8.99-.022a173.666,173.666,0,0,1-17.983-1.268c-1.668-.213-3.332-.459-4.986-.757a48.542,48.542,0,0,1-4.858-1.045c-.044-.013-.065.061-.022.078a27.706,27.706,0,0,0,4.167,1.257c1.489.321,2.987.6,4.493.834,3,.461,6.019.762,9.044.982q9,.653,18.03.545,2.528-.029,5.054-.114c.849-.029,1.7-.058,2.549-.1A16.214,16.214,0,0,0,2630.132,5562.66Z" transform="translate(-2583.959 -5524.975)" fill="#1a2e35"/>
              </g>
            </g>
          </g>
        </g>
        <g id="Group_108742" data-name="Group 108742" transform="translate(37.095)">
          <g id="Group_108740" data-name="Group 108740" transform="translate(2.032)">
            <g id="Group_108729" data-name="Group 108729" transform="translate(0.704 25.135)">
              <g id="Group_108728" data-name="Group 108728">
                <path id="Path_115084" data-name="Path 115084" d="M2635.855,5504.5c-3.106.387-7.8-4.806-9.449-8.78-.111-.273.577-2.94,1.261-6.221.407-1.993.813-4.222,1.037-6.282.043-.423,12.581,4.542,12.581,4.542a33.031,33.031,0,0,0-2.107,7.775,4.635,4.635,0,0,0,0,.855c0,.039.006.087,0,.142C2639.265,5498.169,2638.857,5504.126,2635.855,5504.5Z" transform="translate(-2626.395 -5483.195)" fill="#ffaba1"/>
              </g>
              <path id="Path_115085" data-name="Path 115085" d="M2630.046,5483.39c.221,3.548,1.474,12.2,8.352,13.1a7.769,7.769,0,0,0,1.33.071.61.61,0,0,0,0-.143,5.284,5.284,0,0,1,0-.853,33,33,0,0,1,2.112-7.78S2632.795,5484.207,2630.046,5483.39Z" transform="translate(-2626.948 -5483.225)" fill="#1a2e35"/>
            </g>
            <g id="Group_108739" data-name="Group 108739">
              <g id="Group_108730" data-name="Group 108730" transform="translate(2.537 3.731)">
                <path id="Path_115086" data-name="Path 115086" d="M2632.1,5462.149c-2.813,3.911-4.789,17.3-2.64,21.165,3.116,5.6,10.351,8.494,15.649,4.26,5.136-4.1,7.4-21.6,4.8-25.329C2646.088,5456.749,2636.261,5456.37,2632.1,5462.149Z" transform="translate(-2628.555 -5457.967)" fill="#ffaba1"/>
              </g>
              <g id="Group_108736" data-name="Group 108736" transform="translate(12.93 14.603)">
                <g id="Group_108731" data-name="Group 108731" transform="translate(0.831 4.145)">
                  <path id="Path_115087" data-name="Path 115087" d="M2643.98,5476.911c0-.035-.076.035-.079.072-.075.908-.313,1.937-1.167,2.144-.026.007-.029.053,0,.052C2643.751,5479.153,2644.054,5477.784,2643.98,5476.911Z" transform="translate(-2641.925 -5475.854)" fill="#1a2e35"/>
                  <path id="Path_115088" data-name="Path 115088" d="M2643.137,5475.686c-1.444-.277-1.891,2.632-.553,2.888C2643.9,5478.827,2644.348,5475.917,2643.137,5475.686Z" transform="translate(-2641.784 -5475.667)" fill="#1a2e35"/>
                </g>
                <g id="Group_108732" data-name="Group 108732" transform="translate(7.726 5.186)">
                  <path id="Path_115089" data-name="Path 115089" d="M2650.11,5477.857c.012-.033.064.054.057.09-.167.9-.207,1.952.562,2.377.024.012.015.058-.015.049C2649.74,5480.08,2649.808,5478.68,2650.11,5477.857Z" transform="translate(-2649.911 -5477.039)" fill="#1a2e35"/>
                  <path id="Path_115090" data-name="Path 115090" d="M2651.07,5476.9c1.466.113,1.133,3.037-.226,2.932C2649.507,5479.724,2649.841,5476.8,2651.07,5476.9Z" transform="translate(-2649.922 -5476.893)" fill="#1a2e35"/>
                </g>
                <path id="Path_115091" data-name="Path 115091" d="M2642.107,5472.438a11.094,11.094,0,0,0,1.209-.011,1.947,1.947,0,0,0,1.229-.246.621.621,0,0,0,.149-.744,1.542,1.542,0,0,0-1.42-.654,2.268,2.268,0,0,0-1.553.5A.663.663,0,0,0,2642.107,5472.438Z" transform="translate(-2640.909 -5470.781)" fill="#1a2e35"/>
                <path id="Path_115092" data-name="Path 115092" d="M2652.826,5474.248a11.2,11.2,0,0,1-1.11-.478,1.951,1.951,0,0,1-1.04-.7.623.623,0,0,1,.151-.745,1.544,1.544,0,0,1,1.563-.053,2.261,2.261,0,0,1,1.236,1.066A.663.663,0,0,1,2652.826,5474.248Z" transform="translate(-2642.291 -5470.979)" fill="#1a2e35"/>
                <path id="Path_115093" data-name="Path 115093" d="M2640.9,5486.5c.184.245.354.567.677.645a2.4,2.4,0,0,0,1-.078.032.032,0,0,1,.031.053,1.227,1.227,0,0,1-1.219.313.972.972,0,0,1-.586-.906C2640.8,5486.477,2640.871,5486.468,2640.9,5486.5Z" transform="translate(-2640.804 -5473.161)" fill="#1a2e35"/>
                <g id="Group_108734" data-name="Group 108734" transform="translate(1.443 1.619)">
                  <g id="Group_108733" data-name="Group 108733">
                    <path id="Path_115094" data-name="Path 115094" d="M2642.518,5481.861a3.1,3.1,0,0,0,1.838,1.68,3.872,3.872,0,0,0,1.1.221,1.1,1.1,0,0,0,.215.008c.067,0,.127,0,.2,0a.227.227,0,0,0,.212-.173v-.006a.489.489,0,0,0,.006-.095v-.006l.01-.08c.125-.69.22-1.756.22-1.756.234.167,1.438.946,1.473.581a46.739,46.739,0,0,0,.238-9.468.084.084,0,0,0-.168,0c-.386,2.9-.26,5.846-.6,8.765a5.5,5.5,0,0,0-1.38-.662c-.1.014-.147,2.062-.228,2.369a.128.128,0,0,1-.011.032,4.307,4.307,0,0,1-3.024-1.475C2642.555,5481.731,2642.475,5481.781,2642.518,5481.861Z" transform="translate(-2642.506 -5472.689)" fill="#1a2e35"/>
                  </g>
                </g>
                <g id="Group_108735" data-name="Group 108735" transform="translate(0.853 10.768)">
                  <path id="Path_115095" data-name="Path 115095" d="M2644.991,5484.981a3.691,3.691,0,0,1-1.631.905,1.657,1.657,0,0,1-1-.091c-.69-.3-.607-.962-.387-1.507a3.927,3.927,0,0,1,.455-.815A4.766,4.766,0,0,0,2644.991,5484.981Z" transform="translate(-2641.811 -5483.473)" fill="#1a2e35"/>
                  <path id="Path_115096" data-name="Path 115096" d="M2643.359,5486.032a1.657,1.657,0,0,1-1-.091c-.69-.3-.607-.962-.387-1.507A1.711,1.711,0,0,1,2643.359,5486.032Z" transform="translate(-2641.811 -5483.619)" fill="#ff98bb"/>
                </g>
              </g>
              <g id="Group_108737" data-name="Group 108737" transform="translate(2.647)">
                <path id="Path_115097" data-name="Path 115097" d="M2628.891,5471.924s-.95-8.587,1.225-12.286c.983-1.673,3.918-1.747,3.918-1.747a4.364,4.364,0,0,1,3.1-3.4c2.975-.99,7.789,1.774,7.789,1.774s5.431-3.191,9.167.806-1.679,7.822-1.679,7.822.578,3.179-4.414,3.14c-4.861-.039-12.238-5.639-12.238-5.639a31.54,31.54,0,0,1-4.07,8.441A2.868,2.868,0,0,1,2628.891,5471.924Z" transform="translate(-2628.685 -5453.676)" fill="#1a2e35"/>
                <path id="Path_115098" data-name="Path 115098" d="M2646.615,5456.588a8.92,8.92,0,0,0-2.963-2.093,9.617,9.617,0,0,0-3.125-.9,5.329,5.329,0,0,0-5.09,2.053,3.718,3.718,0,0,0-.538,2.845c.008.04.071.02.061-.021-.454-1.81,1.056-3.6,2.667-4.192a8.041,8.041,0,0,1,5.686.459,15.569,15.569,0,0,1,3.226,1.931A.057.057,0,0,0,2646.615,5456.588Z" transform="translate(-2629.614 -5453.569)" fill="#1a2e35"/>
                <path id="Path_115099" data-name="Path 115099" d="M2659.363,5460.975a4.338,4.338,0,0,0-1.561-3.776,7.4,7.4,0,0,0-4.426-1.868,9.342,9.342,0,0,0-4.787.988c-.033.016-.005.074.028.059a8.194,8.194,0,0,1,8.339.652,4.01,4.01,0,0,1,.326,6.748,8.357,8.357,0,0,1-4.332,1.593.028.028,0,0,0,0,.055,8.577,8.577,0,0,0,4.114-1.149A4.848,4.848,0,0,0,2659.363,5460.975Z" transform="translate(-2631.7 -5453.833)" fill="#1a2e35"/>
                <path id="Path_115100" data-name="Path 115100" d="M2649.813,5469.881a15.306,15.306,0,0,1-6.25-1.681,31.235,31.235,0,0,1-5.7-3.659c-1.032-.819-2.034-1.678-3.019-2.553-.032-.029-.071.019-.043.048a34.064,34.064,0,0,0,5.339,4.814,17.145,17.145,0,0,0,6.037,2.732,14.512,14.512,0,0,0,3.641.346C2649.848,5469.929,2649.844,5469.882,2649.813,5469.881Z" transform="translate(-2629.61 -5454.844)" fill="#1a2e35"/>
              </g>
              <g id="Group_108738" data-name="Group 108738" transform="translate(0 14.494)">
                <path id="Path_115101" data-name="Path 115101" d="M2630.858,5475.261s-1.568-5.014-3.754-4.581-1.917,7.065.011,8.572a2.333,2.333,0,0,0,3.358-.25Z" transform="translate(-2625.565 -5470.653)" fill="#ffaba1"/>
                <path id="Path_115102" data-name="Path 115102" d="M2627.518,5472.921a.032.032,0,0,0-.03.055,5.9,5.9,0,0,1,1.789,4.437,1.288,1.288,0,0,0-1.73-.918c-.049.016-.031.091.016.1a1.435,1.435,0,0,1,1.353.956,6.911,6.911,0,0,1,.334,1.446c.028.16.3.165.3-.01l0-.039C2630.206,5477,2629.554,5473.784,2627.518,5472.921Z" transform="translate(-2625.854 -5470.997)" fill="#1a2e35"/>
              </g>
            </g>
          </g>
          <g id="Group_108741" data-name="Group 108741" transform="translate(0 34.488)">
            <path id="Path_115103" data-name="Path 115103" d="M2638.709,5497.992l-4.116,7.146-8.058-10.919-3.1,2.7s7.053,16.535,7.209,15.855l4.047-6.089,3.865,5.182,1.249-11.459Z" transform="translate(-2623.21 -5494.219)" fill="#ececec"/>
            <path id="Path_115104" data-name="Path 115104" d="M2639.451,5506.706c.143-1.9.34-3.807.394-5.709,0-.068-.1-.113-.125-.037-.634,1.765-1.141,9.028-1.394,10.751l-.016-.021c-.16-.223-3.612-4.59-3.661-4.535-.824.941-3.789,5.373-4.006,5.784-1.114-2.626-5.947-13.04-7.346-15.571a.066.066,0,0,0-.122.05c.926,2.736,7.13,16.454,7.249,16.437a74.041,74.041,0,0,0,4.242-6.442c.558.924,3.978,5.784,4.032,5.506A59.657,59.657,0,0,0,2639.451,5506.706Z" transform="translate(-2623.17 -5494.69)" fill="#1a2e35"/>
          </g>
        </g>
      </g>
      <g id="Group_108749" data-name="Group 108749" transform="translate(57.947 65.383)">
        <g id="Group_108748" data-name="Group 108748">
          <g id="Group_108746" data-name="Group 108746" transform="translate(0 34.025)">
            <g id="Group_108744" data-name="Group 108744">
              <rect id="Rectangle_40373" data-name="Rectangle 40373" width="55.136" height="2.469" fill="#c8c8c8"/>
            </g>
            <g id="Group_108745" data-name="Group 108745" transform="translate(17.657)">
              <path id="Path_115105" data-name="Path 115105" d="M2706.038,5570.739v2.47h-37.479l1.889-2.47Z" transform="translate(-2668.559 -5570.739)" fill="#a8a8a8"/>
            </g>
          </g>
          <g id="Group_108747" data-name="Group 108747" transform="translate(21.925)">
            <path id="Path_115106" data-name="Path 115106" d="M2673.59,5567.129h53.735l4.474-36.5h-53.736Z" transform="translate(-2673.59 -5530.634)" fill="#c8c8c8"/>
            <path id="Path_115107" data-name="Path 115107" d="M2704.039,5551.559a3.2,3.2,0,0,0,3.214,3.271,3.341,3.341,0,0,0,3.328-3.271,3.2,3.2,0,0,0-3.214-3.271A3.342,3.342,0,0,0,2704.039,5551.559Z" transform="translate(-2678.205 -5533.31)" fill="#fff"/>
          </g>
        </g>
      </g>
    </g>
    <g id="Group_108755" data-name="Group 108755" transform="translate(509.862 2368.652)">
      <g id="Group_108754" data-name="Group 108754">
        <g id="Group_108751" data-name="Group 108751">
          <rect id="Rectangle_40374" data-name="Rectangle 40374" width="63.273" height="64.203" transform="translate(0.339 0.339)" fill="#fff"/>
          <path id="Path_115108" data-name="Path 115108" d="M2654.818,5370.937h-63.952v-64.882h63.952Zm-63.274-.678h62.595v-63.525h-62.595Z" transform="translate(-2590.866 -5306.055)" fill="#ececec"/>
        </g>
        <rect id="Rectangle_40375" data-name="Rectangle 40375" width="63.273" height="7.348" transform="translate(0.339 0.339)" fill="#375a64"/>
        <g id="Group_108752" data-name="Group 108752" transform="translate(3.538 2.218)">
          <path id="Path_115109" data-name="Path 115109" d="M2598.732,5310.518a1.848,1.848,0,1,1-1.849-1.849A1.849,1.849,0,0,1,2598.732,5310.518Z" transform="translate(-2595.036 -5308.669)" fill="#c8c8c8"/>
          <path id="Path_115110" data-name="Path 115110" d="M2607.63,5310.518a1.849,1.849,0,1,1-1.849-1.849A1.849,1.849,0,0,1,2607.63,5310.518Z" transform="translate(-2596.385 -5308.669)" fill="#fff"/>
          <path id="Path_115111" data-name="Path 115111" d="M2616.527,5310.518a1.849,1.849,0,1,1-1.849-1.849A1.849,1.849,0,0,1,2616.527,5310.518Z" transform="translate(-2597.733 -5308.669)" fill="#ffc800"/>
        </g>
        <rect id="Rectangle_40376" data-name="Rectangle 40376" width="63.273" height="0.679" transform="translate(0.34 7.348)" fill="#ececec"/>
        <g id="Group_108753" data-name="Group 108753" transform="translate(14.404 13.554)">
          <path id="Path_115112" data-name="Path 115112" d="M2642.988,5333.476s-2.567,20.551-6.786,25.175c-5.064,5.548-8.74,4.736-10.784,7.6a0,0,0,0,0,0,0c-2.045-2.864-5.72-2.049-10.789-7.6-4.218-4.624-6.781-25.175-6.781-25.175a77.038,77.038,0,0,0,17.57-11.444l0,0A77.19,77.19,0,0,0,2642.988,5333.476Z" transform="translate(-2607.844 -5322.031)" fill="#ffc800"/>
          <path id="Path_115113" data-name="Path 115113" d="M2625.418,5322.035v44.212a0,0,0,0,0,0,0c-2.045-2.864-5.72-2.049-10.789-7.6-4.218-4.624-6.781-25.175-6.781-25.175a77.038,77.038,0,0,0,17.57-11.444Z" transform="translate(-2607.844 -5322.031)" opacity="0.2"/>
          <path id="Path_115114" data-name="Path 115114" d="M2646.128,5333.476s-2.567,20.551-6.786,25.175c-5.064,5.548-8.74,4.737-10.784,7.6v-44.211A77.18,77.18,0,0,0,2646.128,5333.476Z" transform="translate(-2610.984 -5322.032)" opacity="0.1"/>
          <path id="Path_115115" data-name="Path 115115" d="M2640.751,5335.747s-2.172,17.356-5.733,21.265c-4.275,4.688-7.383,4-9.113,6.419l-.007.007c-1.723-2.422-4.831-1.731-9.113-6.426-3.562-3.909-5.727-21.265-5.727-21.265a65.014,65.014,0,0,0,14.839-9.669l.007.007A65.276,65.276,0,0,0,2640.751,5335.747Z" transform="translate(-2608.331 -5322.644)" fill="#ffc800"/>
          <path id="Path_115116" data-name="Path 115116" d="M2611.059,5335.748s2.172,17.356,5.733,21.265c4.275,4.688,7.383,4,9.113,6.419v-37.346A65.276,65.276,0,0,1,2611.059,5335.748Z" transform="translate(-2608.331 -5322.646)" fill="#fff" opacity="0.2"/>
        </g>
      </g>
    </g>
  </g>
</svg>
