<svg xmlns="http://www.w3.org/2000/svg" width="216.694" height="279" viewBox="0 0 216.694 279">
  <g id="Group_129988" data-name="Group 129988" transform="translate(-705 -1664.804)">
    <g id="Group_108588" data-name="Group 108588" transform="translate(708.307 1664.804)">
      <g id="Group_108558" data-name="Group 108558" transform="translate(0 103.917)">
        <path id="Path_114783" data-name="Path 114783" d="M2366.918,5477.1c-32.662,3.185-52.164,3.429-84.694.019a2.914,2.914,0,0,1-2.611-2.894V5418.8a2.91,2.91,0,0,1,3.295-2.881c30.65,4.061,51.741,4.054,83.358-.015a2.911,2.911,0,0,1,3.284,2.883V5474.2A2.913,2.913,0,0,1,2366.918,5477.1Z" transform="translate(-2279.613 -5412.235)" fill="#dae6ea"/>
        <path id="Path_114784" data-name="Path 114784" d="M2372.587,5472.548c-32.662,3.185-52.165,3.43-84.695.019a2.913,2.913,0,0,1-2.611-2.894v-55.421a2.91,2.91,0,0,1,3.295-2.881c30.65,4.061,51.74,4.054,83.358-.015a2.911,2.911,0,0,1,3.283,2.883v55.415A2.913,2.913,0,0,1,2372.587,5472.548Z" transform="translate(-2280.741 -5411.331)" fill="#ecf9ff"/>
        <g id="Group_108557" data-name="Group 108557" transform="translate(12.585 10.072)">
          <g id="Group_108552" data-name="Group 108552">
            <path id="Path_114785" data-name="Path 114785" d="M2306.128,5426.178h-9.666a1.137,1.137,0,1,1,0-2.274h9.666a1.137,1.137,0,0,1,0,2.274Z" transform="translate(-2295.324 -5423.904)" fill="#fff"/>
            <path id="Path_114786" data-name="Path 114786" d="M2330.689,5426.178h-9.667a1.137,1.137,0,0,1,0-2.274h9.667a1.137,1.137,0,0,1,0,2.274Z" transform="translate(-2300.21 -5423.904)" fill="#fff"/>
            <path id="Path_114787" data-name="Path 114787" d="M2355.249,5426.178h-9.666a1.137,1.137,0,0,1,0-2.274h9.666a1.137,1.137,0,1,1,0,2.274Z" transform="translate(-2305.097 -5423.904)" fill="#fff"/>
            <path id="Path_114788" data-name="Path 114788" d="M2379.81,5426.178h-9.666a1.137,1.137,0,0,1,0-2.274h9.666a1.137,1.137,0,1,1,0,2.274Z" transform="translate(-2309.983 -5423.904)" fill="#fff"/>
          </g>
          <g id="Group_108553" data-name="Group 108553" transform="translate(0 10.192)">
            <path id="Path_114789" data-name="Path 114789" d="M2306.128,5438.9h-9.666a1.137,1.137,0,1,1,0-2.274h9.666a1.137,1.137,0,0,1,0,2.274Z" transform="translate(-2295.324 -5436.627)" fill="#fff"/>
            <path id="Path_114790" data-name="Path 114790" d="M2330.689,5438.9h-9.667a1.137,1.137,0,0,1,0-2.274h9.667a1.137,1.137,0,0,1,0,2.274Z" transform="translate(-2300.21 -5436.627)" fill="#fff"/>
            <path id="Path_114791" data-name="Path 114791" d="M2355.249,5438.9h-9.666a1.137,1.137,0,0,1,0-2.274h9.666a1.137,1.137,0,1,1,0,2.274Z" transform="translate(-2305.097 -5436.627)" fill="#fff"/>
            <path id="Path_114792" data-name="Path 114792" d="M2379.81,5438.9h-9.666a1.137,1.137,0,0,1,0-2.274h9.666a1.137,1.137,0,1,1,0,2.274Z" transform="translate(-2309.983 -5436.627)" fill="#fff"/>
          </g>
          <g id="Group_108554" data-name="Group 108554" transform="translate(0 20.641)">
            <path id="Path_114793" data-name="Path 114793" d="M2306.128,5451.946h-9.666a1.137,1.137,0,1,1,0-2.274h9.666a1.137,1.137,0,0,1,0,2.274Z" transform="translate(-2295.324 -5449.672)" fill="#fff"/>
            <path id="Path_114794" data-name="Path 114794" d="M2330.689,5451.946h-9.667a1.137,1.137,0,0,1,0-2.274h9.667a1.137,1.137,0,0,1,0,2.274Z" transform="translate(-2300.21 -5449.672)" fill="#fff"/>
            <path id="Path_114795" data-name="Path 114795" d="M2355.249,5451.946h-9.666a1.137,1.137,0,0,1,0-2.274h9.666a1.137,1.137,0,1,1,0,2.274Z" transform="translate(-2305.097 -5449.672)" fill="#fff"/>
            <path id="Path_114796" data-name="Path 114796" d="M2379.81,5451.946h-9.666a1.137,1.137,0,0,1,0-2.274h9.666a1.137,1.137,0,1,1,0,2.274Z" transform="translate(-2309.983 -5449.672)" fill="#fff"/>
          </g>
          <g id="Group_108555" data-name="Group 108555" transform="translate(0 30.686)">
            <path id="Path_114797" data-name="Path 114797" d="M2306.128,5464.485h-9.666a1.137,1.137,0,1,1,0-2.274h9.666a1.137,1.137,0,0,1,0,2.274Z" transform="translate(-2295.324 -5462.211)" fill="#fff"/>
            <path id="Path_114798" data-name="Path 114798" d="M2330.689,5464.485h-9.667a1.137,1.137,0,0,1,0-2.274h9.667a1.137,1.137,0,0,1,0,2.274Z" transform="translate(-2300.21 -5462.211)" fill="#fff"/>
            <path id="Path_114799" data-name="Path 114799" d="M2355.249,5464.485h-9.666a1.137,1.137,0,0,1,0-2.274h9.666a1.137,1.137,0,1,1,0,2.274Z" transform="translate(-2305.097 -5462.211)" fill="#fff"/>
            <path id="Path_114800" data-name="Path 114800" d="M2379.81,5464.485h-9.666a1.137,1.137,0,0,1,0-2.274h9.666a1.137,1.137,0,1,1,0,2.274Z" transform="translate(-2309.983 -5462.211)" fill="#fff"/>
          </g>
          <g id="Group_108556" data-name="Group 108556" transform="translate(0 39.526)">
            <path id="Path_114801" data-name="Path 114801" d="M2306.128,5475.52h-9.666a1.137,1.137,0,1,1,0-2.274h9.666a1.137,1.137,0,0,1,0,2.274Z" transform="translate(-2295.324 -5473.246)" fill="#fff"/>
            <path id="Path_114802" data-name="Path 114802" d="M2330.689,5475.52h-9.667a1.137,1.137,0,0,1,0-2.274h9.667a1.137,1.137,0,0,1,0,2.274Z" transform="translate(-2300.21 -5473.246)" fill="#fff"/>
            <path id="Path_114803" data-name="Path 114803" d="M2355.249,5475.52h-9.666a1.137,1.137,0,0,1,0-2.274h9.666a1.137,1.137,0,1,1,0,2.274Z" transform="translate(-2305.097 -5473.246)" fill="#fff"/>
            <path id="Path_114804" data-name="Path 114804" d="M2379.81,5475.52h-9.666a1.137,1.137,0,0,1,0-2.274h9.666a1.137,1.137,0,1,1,0,2.274Z" transform="translate(-2309.983 -5473.246)" fill="#fff"/>
          </g>
        </g>
      </g>
      <g id="Group_108560" data-name="Group 108560" transform="translate(65.989 0)">
        <path id="Path_114805" data-name="Path 114805" d="M2466.594,5351.825c-38.228-1.967-64.941-3-101.463-.1a2.909,2.909,0,0,1-3.139-2.9v-64.144a2.9,2.9,0,0,1,3.184-2.895c28.98,2.891,62.17,1.792,101.42-.181a2.912,2.912,0,0,1,3.059,2.9v64.408A2.911,2.911,0,0,1,2466.594,5351.825Z" transform="translate(-2361.992 -5281.604)" fill="#edf2f2"/>
        <path id="Path_114806" data-name="Path 114806" d="M2470.644,5358.027c-38.228-1.967-64.941-3-101.463-.1a2.91,2.91,0,0,1-3.139-2.9v-64.145a2.9,2.9,0,0,1,3.184-2.893c28.98,2.89,62.17,1.792,101.42-.181a2.911,2.911,0,0,1,3.059,2.9v64.408A2.91,2.91,0,0,1,2470.644,5358.027Z" transform="translate(-2362.798 -5282.838)" fill="#fff"/>
        <g id="Group_108559" data-name="Group 108559" transform="translate(19.101 35.691)">
          <path id="Path_114807" data-name="Path 114807" d="M2388.914,5326.36h1.275v6.609c0,2.624-1.29,3.429-2.989,3.429a4.111,4.111,0,0,1-1.363-.234l.19-1.041a3.025,3.025,0,0,0,1.07.191c1.143,0,1.817-.513,1.817-2.447Z" transform="translate(-2385.837 -5326.199)" fill="#444244"/>
          <path id="Path_114808" data-name="Path 114808" d="M2397.657,5336.889l-.1-.894h-.044a2.642,2.642,0,0,1-2.169,1.055,2.02,2.02,0,0,1-2.168-2.036c0-1.715,1.523-2.652,4.264-2.639v-.146a1.462,1.462,0,0,0-1.612-1.641,3.526,3.526,0,0,0-1.846.527l-.293-.85a4.4,4.4,0,0,1,2.33-.631c2.168,0,2.7,1.48,2.7,2.9v2.653a10.035,10.035,0,0,0,.117,1.7Zm-.191-3.619c-1.406-.03-3,.219-3,1.6a1.141,1.141,0,0,0,1.216,1.231,1.764,1.764,0,0,0,1.714-1.187,1.34,1.34,0,0,0,.074-.411Z" transform="translate(-2387.296 -5326.851)" fill="#444244"/>
          <path id="Path_114809" data-name="Path 114809" d="M2402.82,5329.836l1.392,3.986a18.441,18.441,0,0,1,.571,1.817h.044c.161-.586.366-1.173.6-1.817l1.378-3.986h1.348l-2.785,7.093h-1.231l-2.7-7.093Z" transform="translate(-2388.942 -5326.891)" fill="#444244"/>
          <path id="Path_114810" data-name="Path 114810" d="M2415.055,5336.889l-.1-.894h-.044a2.642,2.642,0,0,1-2.169,1.055,2.02,2.02,0,0,1-2.168-2.036c0-1.715,1.523-2.652,4.264-2.639v-.146a1.461,1.461,0,0,0-1.612-1.641,3.527,3.527,0,0,0-1.847.527l-.293-.85a4.4,4.4,0,0,1,2.331-.631c2.169,0,2.7,1.48,2.7,2.9v2.653a10.035,10.035,0,0,0,.117,1.7Zm-.191-3.619c-1.406-.03-3,.219-3,1.6a1.141,1.141,0,0,0,1.216,1.231,1.763,1.763,0,0,0,1.714-1.187,1.347,1.347,0,0,0,.073-.411Z" transform="translate(-2390.758 -5326.851)" fill="#444244"/>
          <path id="Path_114811" data-name="Path 114811" d="M2423.717,5334.644a4.516,4.516,0,0,0,2.286.645c1.305,0,2.067-.689,2.067-1.685,0-.924-.528-1.451-1.861-1.964-1.613-.571-2.609-1.407-2.609-2.8,0-1.539,1.275-2.682,3.195-2.682a4.489,4.489,0,0,1,2.184.484l-.352,1.041a3.929,3.929,0,0,0-1.876-.469c-1.348,0-1.861.806-1.861,1.48,0,.923.6,1.377,1.963,1.9,1.671.645,2.521,1.451,2.521,2.9,0,1.523-1.129,2.843-3.458,2.843a5.1,5.1,0,0,1-2.521-.631Z" transform="translate(-2393.309 -5326.159)" fill="#444244"/>
          <path id="Path_114812" data-name="Path 114812" d="M2438.02,5336.629a4.753,4.753,0,0,1-2.037.411,3.37,3.37,0,0,1-3.532-3.62,3.6,3.6,0,0,1,3.81-3.767,4.309,4.309,0,0,1,1.788.367l-.293,1a2.987,2.987,0,0,0-1.495-.337,2.674,2.674,0,0,0-.044,5.334,3.665,3.665,0,0,0,1.583-.352Z" transform="translate(-2395.111 -5326.854)" fill="#444244"/>
          <path id="Path_114813" data-name="Path 114813" d="M2441.272,5332.009c0-.835-.014-1.553-.058-2.213h1.128l.044,1.393h.059a2.127,2.127,0,0,1,1.963-1.554,1.392,1.392,0,0,1,.366.044v1.216a1.994,1.994,0,0,0-.44-.043,1.808,1.808,0,0,0-1.729,1.656,3.581,3.581,0,0,0-.059.6v3.78h-1.275Z" transform="translate(-2396.854 -5326.851)" fill="#444244"/>
          <path id="Path_114814" data-name="Path 114814" d="M2448.738,5327.148a.8.8,0,0,1-1.6,0,.786.786,0,0,1,.806-.806A.765.765,0,0,1,2448.738,5327.148Zm-1.436,9.086v-7.093h1.29v7.093Z" transform="translate(-2398.033 -5326.195)" fill="#444244"/>
          <path id="Path_114815" data-name="Path 114815" d="M2451.608,5332.111c0-.908-.029-1.641-.058-2.315h1.157l.059,1.217h.029a2.788,2.788,0,0,1,2.521-1.378c1.714,0,3,1.45,3,3.6,0,2.551-1.553,3.811-3.224,3.811a2.487,2.487,0,0,1-2.183-1.113h-.03v3.854h-1.275Zm1.275,1.891a2.936,2.936,0,0,0,.059.528,1.991,1.991,0,0,0,1.934,1.509c1.363,0,2.154-1.114,2.154-2.74,0-1.422-.747-2.638-2.11-2.638a2.236,2.236,0,0,0-2.037,2.125Z" transform="translate(-2398.911 -5326.851)" fill="#444244"/>
          <path id="Path_114816" data-name="Path 114816" d="M2463.386,5327.292v2.037h1.847v.982h-1.847v3.825c0,.88.249,1.378.967,1.378a2.843,2.843,0,0,0,.748-.088l.059.967a3.15,3.15,0,0,1-1.144.177,1.784,1.784,0,0,1-1.392-.542,2.624,2.624,0,0,1-.5-1.846v-3.869h-1.1v-.982h1.1v-1.7Z" transform="translate(-2400.796 -5326.384)" fill="#444244"/>
        </g>
      </g>
      <g id="Group_108565" data-name="Group 108565" transform="translate(21.725 42.396)">
        <path id="Path_114817" data-name="Path 114817" d="M2377.614,5380.149c-24.865,2.854-40.716,3.165-63.671.051a2.915,2.915,0,0,1-2.526-2.884v-39.878a2.912,2.912,0,0,1,3.156-2.9c24.129,2.021,39.519,2.8,62.371.129a2.911,2.911,0,0,1,3.252,2.887v39.7A2.914,2.914,0,0,1,2377.614,5380.149Z" transform="translate(-2307.666 -5334.53)" fill="#dae6ea"/>
        <path id="Path_114818" data-name="Path 114818" d="M2372.931,5384.14c-24.865,2.854-40.716,3.165-63.672.051a2.916,2.916,0,0,1-2.526-2.884v-39.879a2.912,2.912,0,0,1,3.156-2.9c24.129,2.021,39.519,2.8,62.371.129a2.911,2.911,0,0,1,3.252,2.887v39.7A2.913,2.913,0,0,1,2372.931,5384.14Z" transform="translate(-2306.734 -5335.324)" fill="#ecf9ff"/>
        <g id="Group_108564" data-name="Group 108564" transform="translate(4.732 16.729)">
          <g id="Group_108561" data-name="Group 108561">
            <path id="Path_114819" data-name="Path 114819" d="M2329.381,5359.94H2314.9a2.263,2.263,0,0,1,0-4.527h14.477a2.263,2.263,0,1,1,0,4.527Z" transform="translate(-2312.641 -5355.414)" fill="#fff"/>
            <path id="Path_114820" data-name="Path 114820" d="M2354.543,5359.94h-14.477a2.263,2.263,0,0,1,0-4.527h14.477a2.263,2.263,0,1,1,0,4.527Z" transform="translate(-2317.647 -5355.414)" fill="#fff"/>
            <path id="Path_114821" data-name="Path 114821" d="M2379.706,5359.94H2365.23a2.263,2.263,0,1,1,0-4.527h14.477a2.263,2.263,0,1,1,0,4.527Z" transform="translate(-2322.653 -5355.414)" fill="#fff"/>
          </g>
          <g id="Group_108562" data-name="Group 108562" transform="translate(0 8.147)">
            <path id="Path_114822" data-name="Path 114822" d="M2329.381,5370.11H2314.9a2.263,2.263,0,0,1,0-4.526h14.477a2.263,2.263,0,1,1,0,4.526Z" transform="translate(-2312.641 -5365.584)" fill="#fff"/>
            <path id="Path_114823" data-name="Path 114823" d="M2354.543,5370.11h-14.477a2.263,2.263,0,0,1,0-4.526h14.477a2.263,2.263,0,1,1,0,4.526Z" transform="translate(-2317.647 -5365.584)" fill="#fff"/>
            <path id="Path_114824" data-name="Path 114824" d="M2379.706,5370.11H2365.23a2.263,2.263,0,1,1,0-4.526h14.477a2.263,2.263,0,1,1,0,4.526Z" transform="translate(-2322.653 -5365.584)" fill="#fff"/>
          </g>
          <g id="Group_108563" data-name="Group 108563" transform="translate(0 16.293)">
            <path id="Path_114825" data-name="Path 114825" d="M2329.381,5380.28H2314.9a2.263,2.263,0,0,1,0-4.526h14.477a2.263,2.263,0,1,1,0,4.526Z" transform="translate(-2312.641 -5375.754)" fill="#fff"/>
            <path id="Path_114826" data-name="Path 114826" d="M2354.543,5380.28h-14.477a2.263,2.263,0,0,1,0-4.526h14.477a2.263,2.263,0,1,1,0,4.526Z" transform="translate(-2317.647 -5375.754)" fill="#fff"/>
            <path id="Path_114827" data-name="Path 114827" d="M2379.706,5380.28H2365.23a2.263,2.263,0,1,1,0-4.526h14.477a2.263,2.263,0,1,1,0,4.526Z" transform="translate(-2322.653 -5375.754)" fill="#fff"/>
          </g>
        </g>
      </g>
      <g id="Group_108577" data-name="Group 108577" transform="translate(137.162 53.636)">
        <path id="Path_114845" data-name="Path 114845" d="M2524.672,5389.263c-26.458-2.593-42.373-1.475-66.679.124a2.912,2.912,0,0,1-3.1-2.9V5356.07a2.911,2.911,0,0,1,3.261-2.886c25.749,3.105,43.43,4.4,66.285.258a2.91,2.91,0,0,1,3.435,2.857v30.072A2.91,2.91,0,0,1,2524.672,5389.263Z" transform="translate(-2451.646 -5349.477)" fill="#9cd1f0"/>
        <path id="Path_114846" data-name="Path 114846" d="M2520.624,5384.663c-26.459-2.595-42.374-1.475-66.679.123a2.911,2.911,0,0,1-3.1-2.9v-30.415a2.911,2.911,0,0,1,3.261-2.886c25.749,3.105,43.43,4.4,66.285.258a2.91,2.91,0,0,1,3.434,2.858v30.07A2.911,2.911,0,0,1,2520.624,5384.663Z" transform="translate(-2450.841 -5348.561)" fill="#a9e2ff"/>
        <g id="Group_108576" data-name="Group 108576" transform="translate(6.533 10.015)">
          <g id="Group_108573" data-name="Group 108573">
            <path id="Path_114847" data-name="Path 114847" d="M2469.046,5363.887h-8.637a1.412,1.412,0,1,1,0-2.824h8.637a1.412,1.412,0,0,1,0,2.824Z" transform="translate(-2458.997 -5361.063)" fill="#fff"/>
            <path id="Path_114848" data-name="Path 114848" d="M2489.208,5363.887h-8.637a1.412,1.412,0,1,1,0-2.824h8.637a1.412,1.412,0,1,1,0,2.824Z" transform="translate(-2463.008 -5361.063)" fill="#fff"/>
            <path id="Path_114849" data-name="Path 114849" d="M2509.37,5363.887h-8.637a1.412,1.412,0,0,1,0-2.824h8.637a1.412,1.412,0,1,1,0,2.824Z" transform="translate(-2467.02 -5361.063)" fill="#fff"/>
            <path id="Path_114850" data-name="Path 114850" d="M2529.532,5363.887H2520.9a1.412,1.412,0,0,1,0-2.824h8.637a1.412,1.412,0,1,1,0,2.824Z" transform="translate(-2471.031 -5361.063)" fill="#fff"/>
          </g>
          <g id="Group_108574" data-name="Group 108574" transform="translate(0 6.689)">
            <path id="Path_114851" data-name="Path 114851" d="M2469.046,5372.236h-8.637a1.412,1.412,0,1,1,0-2.823h8.637a1.412,1.412,0,0,1,0,2.823Z" transform="translate(-2458.997 -5369.413)" fill="#fff"/>
            <path id="Path_114852" data-name="Path 114852" d="M2489.208,5372.236h-8.637a1.412,1.412,0,1,1,0-2.823h8.637a1.412,1.412,0,1,1,0,2.823Z" transform="translate(-2463.008 -5369.413)" fill="#fff"/>
            <path id="Path_114853" data-name="Path 114853" d="M2509.37,5372.236h-8.637a1.412,1.412,0,0,1,0-2.823h8.637a1.412,1.412,0,1,1,0,2.823Z" transform="translate(-2467.02 -5369.413)" fill="#fff"/>
            <path id="Path_114854" data-name="Path 114854" d="M2529.532,5372.236H2520.9a1.412,1.412,0,0,1,0-2.823h8.637a1.412,1.412,0,1,1,0,2.823Z" transform="translate(-2471.031 -5369.413)" fill="#fff"/>
          </g>
          <g id="Group_108575" data-name="Group 108575" transform="translate(0 13.378)">
            <path id="Path_114855" data-name="Path 114855" d="M2469.046,5380.588h-8.637a1.412,1.412,0,1,1,0-2.824h8.637a1.412,1.412,0,0,1,0,2.824Z" transform="translate(-2458.997 -5377.764)" fill="#fff"/>
            <path id="Path_114856" data-name="Path 114856" d="M2489.208,5380.588h-8.637a1.412,1.412,0,1,1,0-2.824h8.637a1.412,1.412,0,1,1,0,2.824Z" transform="translate(-2463.008 -5377.764)" fill="#fff"/>
            <path id="Path_114857" data-name="Path 114857" d="M2509.37,5380.588h-8.637a1.412,1.412,0,0,1,0-2.824h8.637a1.412,1.412,0,1,1,0,2.824Z" transform="translate(-2467.02 -5377.764)" fill="#fff"/>
            <path id="Path_114858" data-name="Path 114858" d="M2529.532,5380.588H2520.9a1.412,1.412,0,0,1,0-2.824h8.637a1.412,1.412,0,1,1,0,2.824Z" transform="translate(-2471.031 -5377.764)" fill="#fff"/>
          </g>
        </g>
      </g>
      <g id="Group_108580" data-name="Group 108580" transform="translate(122.5 80.659)">
        <path id="Path_114859" data-name="Path 114859" d="M2476.827,5422.389c-11.732.556-24.256-10.322-40.292.279-1.675,1.107-3.722-1.332-3.4-3.314,1.7-10.6.379-19.79-.587-33.947a2.916,2.916,0,0,1,3.187-3.1c15.74,1.534,25.164,7.052,41.33.394,1.68-.692,3.434,1.042,3.434,2.857v34.026C2480.5,5421.5,2478.741,5422.3,2476.827,5422.389Z" transform="translate(-2432.537 -5382.295)" fill="#f2f2f2"/>
        <path id="Path_114860" data-name="Path 114860" d="M2478.937,5424.587c-11.733.557-24.256-10.321-40.292.28-1.676,1.107-3.722-1.332-3.4-3.314,1.7-10.6.379-19.79-.588-33.947a2.914,2.914,0,0,1,3.187-3.1c15.74,1.532,25.164,7.051,41.33.393,1.68-.691,3.434,1.041,3.434,2.857v34.026C2482.6,5423.7,2480.85,5424.5,2478.937,5424.587Z" transform="translate(-2432.957 -5382.732)" fill="#fff"/>
        <g id="Group_108579" data-name="Group 108579" transform="translate(7.18 15.653)">
          <g id="Group_108578" data-name="Group 108578">
            <path id="Path_114861" data-name="Path 114861" d="M2441.5,5402.515a13.179,13.179,0,0,1,2.191-.17,3.633,3.633,0,0,1,2.479.734,2.377,2.377,0,0,1,.774,1.849,2.605,2.605,0,0,1-.682,1.889,3.666,3.666,0,0,1-2.7.971,3.93,3.93,0,0,1-.918-.079v3.541H2441.5Zm1.142,4.263a3.829,3.829,0,0,0,.944.092c1.377,0,2.217-.669,2.217-1.889,0-1.168-.826-1.732-2.085-1.732a4.766,4.766,0,0,0-1.076.092Z" transform="translate(-2441.501 -5401.937)" fill="#444244"/>
            <path id="Path_114862" data-name="Path 114862" d="M2450.442,5405.537l1.391,3.752c.144.42.3.918.407,1.3h.026c.118-.38.25-.866.407-1.325l1.259-3.726h1.22l-1.732,4.526c-.826,2.177-1.39,3.293-2.177,3.975a3.127,3.127,0,0,1-1.417.748l-.288-.971a3.053,3.053,0,0,0,1.01-.563,3.5,3.5,0,0,0,.971-1.287.83.83,0,0,0,.092-.275,1,1,0,0,0-.079-.3l-2.348-5.851Z" transform="translate(-2443.029 -5402.572)" fill="#444244"/>
            <path id="Path_114863" data-name="Path 114863" d="M2459.157,5403.261v1.823h1.653v.878h-1.653v3.425c0,.787.223,1.233.866,1.233a2.582,2.582,0,0,0,.669-.079l.052.866a2.836,2.836,0,0,1-1.023.157,1.6,1.6,0,0,1-1.246-.485,2.351,2.351,0,0,1-.446-1.652v-3.464h-.984v-.878h.984v-1.521Z" transform="translate(-2444.594 -5402.12)" fill="#444244"/>
            <path id="Path_114864" data-name="Path 114864" d="M2463.367,5401.836h1.154v3.962h.026a2.13,2.13,0,0,1,.827-.813,2.369,2.369,0,0,1,1.181-.329c.852,0,2.217.525,2.217,2.716v3.777h-1.154V5407.5c0-1.024-.381-1.889-1.469-1.889a1.659,1.659,0,0,0-1.548,1.154,1.4,1.4,0,0,0-.079.55v3.83h-1.154Z" transform="translate(-2445.851 -5401.836)" fill="#444244"/>
            <path id="Path_114865" data-name="Path 114865" d="M2478.089,5408.624a3.1,3.1,0,0,1-3.161,3.371,3.018,3.018,0,0,1-3.043-3.266,3.1,3.1,0,0,1,3.149-3.372A3.006,3.006,0,0,1,2478.089,5408.624Zm-5.037.066c0,1.391.8,2.44,1.928,2.44,1.1,0,1.928-1.037,1.928-2.466,0-1.076-.538-2.44-1.9-2.44S2473.052,5407.482,2473.052,5408.689Z" transform="translate(-2447.546 -5402.537)" fill="#444244"/>
            <path id="Path_114866" data-name="Path 114866" d="M2481.437,5407.22c0-.656-.013-1.194-.053-1.718h1.024l.065,1.05h.026a2.335,2.335,0,0,1,2.1-1.194c.879,0,2.244.525,2.244,2.7v3.791h-1.154v-3.659c0-1.023-.381-1.875-1.469-1.875a1.64,1.64,0,0,0-1.549,1.18,1.674,1.674,0,0,0-.078.538v3.816h-1.155Z" transform="translate(-2449.436 -5402.537)" fill="#444244"/>
          </g>
        </g>
      </g>
      <g id="Group_108583" data-name="Group 108583" transform="translate(1.725 31.629)">
        <path id="Path_114867" data-name="Path 114867" d="M2317,5327c-11.733.557-24.256-10.32-40.292.28-1.676,1.106-3.722-1.332-3.4-3.314,1.7-10.6.379-19.79-.588-33.946a2.915,2.915,0,0,1,3.187-3.1c15.74,1.533,25.164,7.052,41.33.393,1.68-.69,3.434,1.042,3.434,2.857V5324.2C2320.669,5326.113,2318.915,5326.911,2317,5327Z" transform="translate(-2270.598 -5286.908)" fill="#edf2f2"/>
        <path id="Path_114868" data-name="Path 114868" d="M2314.363,5330.64c-11.732.557-24.256-10.321-40.292.279-1.675,1.107-3.722-1.331-3.4-3.314,1.7-10.6.38-19.789-.587-33.947a2.914,2.914,0,0,1,3.187-3.1c15.74,1.532,25.163,7.052,41.33.393,1.679-.691,3.434,1.041,3.434,2.858v34.025C2318.031,5329.751,2316.277,5330.549,2314.363,5330.64Z" transform="translate(-2270.073 -5287.632)" fill="#fff"/>
        <g id="Group_108582" data-name="Group 108582" transform="translate(11.244 17.498)">
          <g id="Group_108581" data-name="Group 108581">
            <path id="Path_114869" data-name="Path 114869" d="M2284.11,5308.943a14.71,14.71,0,0,1,2.447-.191,4.06,4.06,0,0,1,2.77.821,2.657,2.657,0,0,1,.864,2.066,2.907,2.907,0,0,1-.762,2.111,4.092,4.092,0,0,1-3.019,1.084,4.365,4.365,0,0,1-1.026-.088v3.957h-1.274Zm1.274,4.763a4.307,4.307,0,0,0,1.055.1c1.539,0,2.477-.748,2.477-2.11,0-1.3-.923-1.935-2.33-1.935a5.358,5.358,0,0,0-1.2.1Z" transform="translate(-2284.11 -5308.752)" fill="#444244"/>
            <path id="Path_114870" data-name="Path 114870" d="M2295.117,5308.844v4.133h4.777v-4.133h1.29v9.877h-1.29v-4.631h-4.777v4.631h-1.275v-9.877Z" transform="translate(-2286.046 -5308.77)" fill="#444244"/>
            <path id="Path_114871" data-name="Path 114871" d="M2305.771,5308.943a14.712,14.712,0,0,1,2.447-.191,4.057,4.057,0,0,1,2.769.821,2.655,2.655,0,0,1,.865,2.066,2.91,2.91,0,0,1-.763,2.111,4.091,4.091,0,0,1-3.018,1.084,4.364,4.364,0,0,1-1.026-.088v3.957h-1.274Zm1.274,4.763a4.3,4.3,0,0,0,1.055.1c1.539,0,2.477-.748,2.477-2.11,0-1.3-.924-1.935-2.33-1.935a5.35,5.35,0,0,0-1.2.1Z" transform="translate(-2288.42 -5308.752)" fill="#444244"/>
          </g>
        </g>
      </g>
      <g id="Group_108585" data-name="Group 108585" transform="translate(89.19 86.579)">
        <circle id="Ellipse_4728" data-name="Ellipse 4728" cx="11.729" cy="11.729" r="11.729" transform="matrix(0.23, -0.973, 0.973, 0.23, 1.505, 24.336)" fill="#ecf9ff"/>
        <g id="Group_108584" data-name="Group 108584">
          <path id="Path_114872" data-name="Path 114872" d="M2406.569,5420.916a15.615,15.615,0,1,1,15.615-15.614A15.633,15.633,0,0,1,2406.569,5420.916Zm0-30.857a15.242,15.242,0,1,0,15.242,15.243A15.259,15.259,0,0,0,2406.569,5390.059Z" transform="translate(-2390.954 -5389.686)" fill="#ecf9ff"/>
        </g>
      </g>
      <g id="Group_108587" data-name="Group 108587" transform="translate(150.168 107.255)">
        <ellipse id="Ellipse_4729" data-name="Ellipse 4729" cx="24.349" cy="11.799" rx="24.349" ry="11.799" transform="translate(2.378 1.249)" fill="#ecf9ff"/>
        <g id="Group_108586" data-name="Group 108586">
          <path id="Path_114873" data-name="Path 114873" d="M2493.8,5441.592c-14.737,0-26.727-5.853-26.727-13.047s11.99-13.048,26.727-13.048,26.727,5.854,26.727,13.048S2508.543,5441.592,2493.8,5441.592Zm0-25.722c-14.531,0-26.354,5.686-26.354,12.674s11.823,12.674,26.354,12.674,26.354-5.686,26.354-12.674S2508.337,5415.87,2493.8,5415.87Z" transform="translate(-2467.078 -5415.497)" fill="#ecf9ff"/>
        </g>
      </g>
    </g>
    <g id="Group_108659" data-name="Group 108659" transform="translate(705 1715.021)">
      <path id="Path_114874" data-name="Path 114874" d="M2384.922,5623.633c-119.456,0-120.4-25.222,0-25.222C2504.378,5598.411,2505.326,5623.633,2384.922,5623.633Z" transform="translate(-2279.362 -5394.85)" fill="#e0dfea" opacity="0.5" style="mix-blend-mode: multiply;isolation: isolate"/>
      <g id="Group_108589" data-name="Group 108589" transform="translate(10.809 154.038)">
        <path id="Path_114875" data-name="Path 114875" d="M2386.888,5549.841c25.139,7.91,13.674,39.867-10.219,37.075-13.335-1.559-78.316-24.536-85.3-34.265a10.79,10.79,0,0,1-.672-11.63c3.226-5.263,8.5-4.247,13.54-3.472C2304.989,5537.665,2366.61,5543.461,2386.888,5549.841Z" transform="translate(-2289.042 -5536.653)" fill="#514342"/>
        <path id="Path_114876" data-name="Path 114876" d="M2379.518,5587.285a25.3,25.3,0,0,1-2.944-.174c-13.792-1.612-78.574-24.747-85.484-34.372a11.065,11.065,0,0,1-.683-11.922c3.21-5.236,8.34-4.44,13.3-3.671l.5.077c.061.01.633.066,1.5.155,23.4,2.357,65.063,7.072,81.192,12.146,12.745,4.01,15.463,13.877,13.917,21.106A21.567,21.567,0,0,1,2379.518,5587.285Zm-81.093-50.165c-2.944,0-5.646.834-7.569,3.973a10.527,10.527,0,0,0,.661,11.34c6.862,9.557,71.374,32.55,85.119,34.156,12.823,1.5,21.767-7.16,23.671-16.068,1.571-7.351-1.167-16.6-13.561-20.5-16.086-5.061-57.708-9.769-81.088-12.125-1.034-.1-1.457-.147-1.526-.158l-.5-.078A34.8,34.8,0,0,0,2298.425,5537.12Z" transform="translate(-2288.978 -5536.588)" fill="#463c3a"/>
      </g>
      <g id="Group_108590" data-name="Group 108590" transform="translate(88.291 152.556)">
        <path id="Path_114877" data-name="Path 114877" d="M2400.15,5547.991c-25.139,7.911-13.674,39.867,10.219,37.075,13.334-1.559,78.316-24.535,85.3-34.265a10.79,10.79,0,0,0,.672-11.63c-3.225-5.263-8.5-4.246-13.539-3.472C2482.049,5535.814,2420.427,5541.611,2400.15,5547.991Z" transform="translate(-2385.763 -5534.804)" fill="#514342"/>
        <path id="Path_114878" data-name="Path 114878" d="M2407.4,5585.435a21.568,21.568,0,0,1-21.3-16.653c-1.545-7.23,1.172-17.1,13.917-21.106,16.13-5.075,57.793-9.789,81.193-12.146.866-.088,1.439-.145,1.5-.154l.5-.078c4.961-.77,10.091-1.564,13.3,3.671a11.066,11.066,0,0,1-.682,11.922c-6.911,9.625-71.692,32.76-85.484,34.372A25.517,25.517,0,0,1,2407.4,5585.435Zm-7.305-37.509.078.25c-12.4,3.9-15.133,13.145-13.561,20.5,1.9,8.908,10.85,17.571,23.671,16.067,13.744-1.606,78.257-24.6,85.118-34.157a10.526,10.526,0,0,0,.662-11.341c-3.027-4.937-7.981-4.169-12.772-3.427l-.5.079c-.07.01-.493.053-1.527.158-23.379,2.355-65,7.063-81.087,12.125Z" transform="translate(-2385.703 -5534.737)" fill="#463c3a"/>
      </g>
      <g id="Group_108591" data-name="Group 108591" transform="translate(66.316 134.673)">
        <path id="Path_114879" data-name="Path 114879" d="M2435.439,5574.158c-30.048,7.746-47.63,7.854-76.816,0,2.227-23.98,2.076-39.145,8.118-61.406l59.814,2.694C2433.656,5538.1,2433.74,5551.854,2435.439,5574.158Z" transform="translate(-2358.341 -5512.48)" fill="#514342"/>
        <path id="Path_114880" data-name="Path 114880" d="M2396.481,5580.238c-11.778,0-23.392-1.964-38-5.894l-.213-.058.02-.22c.516-5.556.9-10.583,1.272-15.446,1.233-16.135,2.207-28.879,6.854-46l.055-.2.21.009,60,2.7.055.175c6.136,19.581,7.029,32.355,8.265,50.035.195,2.781.4,5.678.63,8.735l.016.22-.212.055C2420.194,5578.273,2408.255,5580.238,2396.481,5580.238Zm-37.647-6.343c28.906,7.756,46.08,7.755,76.256,0-.226-2.978-.423-5.8-.613-8.52-1.23-17.592-2.121-30.316-8.188-49.739l-59.42-2.676c-4.587,16.977-5.557,29.661-6.783,45.7C2359.719,5563.461,2359.34,5568.422,2358.834,5573.9Z" transform="translate(-2358.271 -5512.413)" fill="#463c3a"/>
      </g>
      <g id="Group_108597" data-name="Group 108597" transform="translate(70.408 130.55)">
        <g id="Group_108592" data-name="Group 108592" transform="translate(34.596 1.606)">
          <path id="Path_114881" data-name="Path 114881" d="M2410.253,5555.216A.262.262,0,0,1,2410,5555c-2.474-14.236-5.277-30.373-1.8-45.524a.263.263,0,1,1,.512.118c-3.455,15.048-.661,31.128,1.8,45.316a.262.262,0,0,1-.213.3A.206.206,0,0,1,2410.253,5555.216Z" transform="translate(-2406.567 -5509.271)" fill="#323d4e"/>
        </g>
        <g id="Group_108593" data-name="Group 108593" transform="translate(28.316)">
          <path id="Path_114882" data-name="Path 114882" d="M2406.458,5540.875a.262.262,0,0,1-.169-.062c-8.755-7.409-8.51-9.86-6.17-33.311a.262.262,0,0,1,.522.052c-2.316,23.2-2.558,25.628,5.986,32.858a.262.262,0,0,1-.17.463Z" transform="translate(-2398.728 -5507.266)" fill="#323d4e"/>
        </g>
        <g id="Group_108594" data-name="Group 108594" transform="translate(0 1.561)">
          <path id="Path_114883" data-name="Path 114883" d="M2363.642,5531.169a.263.263,0,0,1-.083-.512c8.577-2.867,10.362-3.463,14.558-21.24a.263.263,0,0,1,.511.121c-4.264,18.061-6.1,18.673-14.9,21.617A.252.252,0,0,1,2363.642,5531.169Z" transform="translate(-2363.379 -5509.215)" fill="#323d4e"/>
        </g>
        <g id="Group_108595" data-name="Group 108595" transform="translate(0 1.561)">
          <path id="Path_114884" data-name="Path 114884" d="M2363.642,5531.169a.263.263,0,0,1-.083-.512c8.577-2.867,10.362-3.463,14.558-21.24a.263.263,0,0,1,.511.121c-4.264,18.061-6.1,18.673-14.9,21.617A.252.252,0,0,1,2363.642,5531.169Z" transform="translate(-2363.379 -5509.215)" fill="#323d4e"/>
        </g>
        <g id="Group_108596" data-name="Group 108596" transform="translate(53.584 2.355)">
          <path id="Path_114885" data-name="Path 114885" d="M2445.179,5531.867a.243.243,0,0,1-.083-.014l-.337-.112c-8.51-2.843-10.281-3.434-14.479-21.212a.262.262,0,0,1,.511-.121c4.13,17.493,5.658,18,14.135,20.834l.337.112a.263.263,0,0,1,.165.333A.26.26,0,0,1,2445.179,5531.867Z" transform="translate(-2430.272 -5510.206)" fill="#323d4e"/>
        </g>
      </g>
      <g id="Group_108600" data-name="Group 108600" transform="translate(58.044 199.006)">
        <g id="Group_108598" data-name="Group 108598">
          <path id="Path_114886" data-name="Path 114886" d="M2408.047,5594.6a26.467,26.467,0,0,0,.578,14.193c-18.069,1.047-59.206,9.845-60.315,2.767-.229-1.466-.462-.875,30.668-17.142,5.285-2.761,8.223-1.308,8.988,4.059C2388.249,5600.46,2406.148,5595.242,2408.047,5594.6Z" transform="translate(-2348.009 -5592.789)" fill="#fffff6"/>
          <path id="Path_114887" data-name="Path 114887" d="M2357.424,5614.481c-5.481,0-9.1-.79-9.438-2.949-.209-1.315-.209-1.315,13.982-8.667,4.215-2.184,9.7-5.023,16.823-8.747,2.769-1.446,4.976-1.769,6.558-.957,1.48.759,2.426,2.512,2.811,5.211,0,.008,0,.033.065.069,1.711,1.052,17.006-3.249,19.671-4.159l.449-.153-.11.462a26.054,26.054,0,0,0,.573,14.052l.1.323-.34.02c-5.529.319-13.182,1.362-21.285,2.466C2376.279,5612.952,2365.05,5614.481,2357.424,5614.481Zm25.98-21.234a9.863,9.863,0,0,0-4.37,1.336c-7.125,3.723-12.608,6.564-16.824,8.748-13.6,7.043-13.853,7.194-13.712,8.079.735,4.7,20.917,1.947,38.721-.477,7.949-1.083,15.467-2.106,20.988-2.45a26.58,26.58,0,0,1-.584-13.562c-2.986.929-17.7,5.178-19.673,3.969a.617.617,0,0,1-.31-.444c-.359-2.52-1.21-4.142-2.531-4.818A3.683,3.683,0,0,0,2383.4,5593.247Z" transform="translate(-2347.944 -5592.725)" fill="#ede3d7"/>
        </g>
        <g id="Group_108599" data-name="Group 108599" transform="translate(13.131 16.004)">
          <path id="Path_114888" data-name="Path 114888" d="M2364.6,5615.824a.263.263,0,0,1,0-.525,114.914,114.914,0,0,0,23.695-2.59.262.262,0,1,1,.111.513,115.485,115.485,0,0,1-23.8,2.6Z" transform="translate(-2364.336 -5612.703)" fill="#ede3d7"/>
        </g>
      </g>
      <g id="Group_108601" data-name="Group 108601" transform="translate(98.357 152.198)">
        <path id="Path_114889" data-name="Path 114889" d="M2500.218,5572.8c25.26-11.51,9.154-43.437-15.463-37.437-13.738,3.348-78.7,35.747-84.749,46.817a11.364,11.364,0,0,0,.8,12.245c4.05,5.085,9.434,3.342,14.6,1.883C2416.177,5596.087,2479.845,5582.082,2500.218,5572.8Z" transform="translate(-2398.334 -5534.356)" fill="#514342"/>
        <path id="Path_114890" data-name="Path 114890" d="M2407.683,5598.021a8.607,8.607,0,0,1-7.149-3.5,11.637,11.637,0,0,1-.822-12.534c5.981-10.951,70.709-43.483,84.917-46.946,13.521-3.3,24.236,4.8,27.452,14.091,2.546,7.353.978,18.008-11.819,23.84-16.194,7.379-59.13,17.679-83.283,23.163-.906.205-1.506.341-1.568.358l-.517.147A27.4,27.4,0,0,1,2407.683,5598.021Zm83.026-63.2a25.113,25.113,0,0,0-5.956.733c-14.162,3.452-78.639,35.81-84.581,46.688a11.1,11.1,0,0,0,.772,11.956c3.808,4.779,8.892,3.335,13.807,1.94l.518-.147c.071-.02.514-.12,1.595-.366,24.132-5.478,67.03-15.767,83.181-23.127l.109.239-.109-.239c12.462-5.679,14.133-15.7,11.541-23.19A22.1,22.1,0,0,0,2490.709,5534.817Z" transform="translate(-2398.269 -5534.291)" fill="#463c3a"/>
      </g>
      <g id="Group_108604" data-name="Group 108604" transform="translate(94.3 198.128)">
        <g id="Group_108602" data-name="Group 108602">
          <path id="Path_114891" data-name="Path 114891" d="M2394.165,5593.6a26.485,26.485,0,0,1-.518,14.195c18.073.971,59.247,9.6,60.325,2.513.223-1.467.458-.877-30.74-17.012-5.3-2.739-8.228-1.273-8.97,4.1C2413.987,5599.385,2396.065,5594.244,2394.165,5593.6Z" transform="translate(-2393.293 -5591.693)" fill="#fffff6"/>
          <path id="Path_114892" data-name="Path 114892" d="M2444.412,5613.269c-7.619,0-18.7-1.462-29.57-2.895-8.108-1.069-15.767-2.079-21.3-2.377l-.339-.018.1-.324a26.047,26.047,0,0,0,.513-14.054l-.111-.462.45.151c2.67.9,17.986,5.129,19.689,4.075.06-.036.063-.062.064-.069.373-2.7,1.312-4.458,2.79-5.224,1.58-.819,3.787-.507,6.562.93,7.141,3.693,12.635,6.51,16.859,8.676,14.223,7.291,14.223,7.291,14.025,8.567C2453.812,5612.464,2450.065,5613.269,2444.412,5613.269Zm-50.5-5.776c5.522.32,13.046,1.312,21,2.361,17.813,2.349,38,5.012,38.714.354.143-.927-.114-1.075-13.74-8.062-4.225-2.165-9.719-4.982-16.861-8.676-2.615-1.353-4.66-1.664-6.08-.929-1.317.682-2.162,2.307-2.51,4.828a.613.613,0,0,1-.308.444c-1.969,1.219-16.7-2.97-19.69-3.884A26.56,26.56,0,0,1,2393.91,5607.492Z" transform="translate(-2393.205 -5591.628)" fill="#ede3d7"/>
        </g>
        <g id="Group_108603" data-name="Group 108603" transform="translate(23.565 16.012)">
          <path id="Path_114893" data-name="Path 114893" d="M2446.646,5614.638a115.66,115.66,0,0,1-23.814-2.5.262.262,0,1,1,.108-.514,115.06,115.06,0,0,0,23.706,2.49.262.262,0,1,1,0,.525Z" transform="translate(-2422.623 -5611.617)" fill="#ede3d7"/>
        </g>
      </g>
      <g id="Group_108605" data-name="Group 108605" transform="translate(0 153.899)">
        <path id="Path_114894" data-name="Path 114894" d="M2288.556,5574.954c-25.3-11.422-9.3-43.4,15.331-37.491,13.75,3.3,78.827,35.47,84.913,46.52a11.366,11.366,0,0,1-.755,12.247c-4.032,5.1-9.423,3.376-14.594,1.935C2372.678,5597.949,2308.962,5584.167,2288.556,5574.954Z" transform="translate(-2275.54 -5536.479)" fill="#514342"/>
        <path id="Path_114895" data-name="Path 114895" d="M2381.017,5599.853a27.552,27.552,0,0,1-7.176-1.355l-.517-.146c-.062-.017-.657-.149-1.558-.351-24.173-5.4-67.148-15.548-83.375-22.873-12.818-5.787-14.422-16.436-11.9-23.8,3.184-9.3,13.872-17.435,27.4-14.187,14.22,3.413,79.062,35.719,85.082,46.648a11.638,11.638,0,0,1-.779,12.536A8.607,8.607,0,0,1,2381.017,5599.853Zm-83.123-62.913a22.1,22.1,0,0,0-20.907,14.561c-2.567,7.5-.861,17.514,11.622,23.148,16.183,7.308,59.119,17.446,83.273,22.84,1.074.24,1.513.338,1.584.358l.518.145c4.921,1.378,10.01,2.8,13.8-1.99a11.1,11.1,0,0,0,.73-11.957c-5.979-10.857-70.571-42.989-84.744-46.391A25.137,25.137,0,0,0,2297.894,5536.939Z" transform="translate(-2275.484 -5536.415)" fill="#463c3a"/>
      </g>
      <g id="Group_108625" data-name="Group 108625" transform="translate(81.005 0)">
        <path id="Path_114896" data-name="Path 114896" d="M2389.969,5400.651c.109,8.934,3.068,15.558-13.361,23.288,9.779,13.454,19.41,18.426,19.41,18.426s20.6-9.275,27.684-15.412c-3.684-2.681-7.53-4.684-10.928-7.071-6.712-4.717-2.751-15.2-4.062-19.066Z" transform="translate(-2376.608 -5355.505)" fill="#f9a587"/>
        <path id="Path_114897" data-name="Path 114897" d="M2414.057,5419.255c-1.809-2.655-1.92-5.708-1.809-9.94-8.626,6.1-12.772,3.3-18.214-.7C2401.839,5419.883,2406.433,5415.734,2414.057,5419.255Z" transform="translate(-2380.075 -5357.089)" fill="#ea795c"/>
        <path id="Path_114898" data-name="Path 114898" d="M2407.8,5401.029c4.7-1.5,12.336-15.162,9.47-31.989-2.89-16.965-21.762-19-29.249-7.55C2380.817,5372.5,2385.479,5408.151,2407.8,5401.029Z" transform="translate(-2378.255 -5346.285)" fill="#f9a587"/>
        <path id="Path_114899" data-name="Path 114899" d="M2393.416,5364.46c3.1-.627,6.77-4.806,10.04-2.727,5.743,3.652,11.811,6.383,12.1,22.253,3.427-13.506,2.638-10.379,5.492-12.863,4.5-3.912-1.9-10.875-2.958-14.311-1.025-3.323-.1-7.713-7.231-10.058-2.262-.744-2.792-.256-4.374.187-8.289,2.32-17.34-9.444-23.626,3.643-1.384,2.883-.7,3.16-.241,5.277,1.009,4.666-3.5,8.747-4.1,13.483-.256,2.027,6.341,14.26,6.341,14.26s-.035-5.585.121-6.734C2386.88,5362.907,2390.747,5365,2393.416,5364.46Z" transform="translate(-2376.987 -5344.292)" fill="#30323e"/>
        <g id="Group_108608" data-name="Group 108608" transform="translate(3.67 30.168)">
          <g id="Group_108606" data-name="Group 108606" transform="translate(34.485)">
            <path id="Path_114900" data-name="Path 114900" d="M2427.349,5382.021c-3.271-.815-3.195,5.959-3.063,9.319C2424.543,5397.962,2432.5,5383.306,2427.349,5382.021Z" transform="translate(-2424.239 -5381.953)" fill="#f9a587"/>
          </g>
          <g id="Group_108607" data-name="Group 108607" transform="translate(0 1.355)">
            <path id="Path_114901" data-name="Path 114901" d="M2382.7,5383.76c3.192-1.084,3.677,5.675,3.824,9.033C2386.817,5399.414,2377.674,5385.467,2382.7,5383.76Z" transform="translate(-2381.19 -5383.644)" fill="#f9a587"/>
          </g>
        </g>
        <g id="Group_108610" data-name="Group 108610" transform="translate(10.46 25.743)">
          <path id="Path_114902" data-name="Path 114902" d="M2410.169,5378.311c.246.128,8.409.731,8.539.688,1.975-.654-5-3.442-8.431-1.941C2409.839,5377.248,2409.722,5378.078,2410.169,5378.311Z" transform="translate(-2393.688 -5376.467)" fill="#30323e"/>
          <path id="Path_114903" data-name="Path 114903" d="M2398.26,5376.771c-3.485-1.371-9.982,1.773-8.33,2.338C2392.112,5379.109,2401.35,5377.988,2398.26,5376.771Z" transform="translate(-2389.665 -5376.429)" fill="#30323e"/>
          <g id="Group_108609" data-name="Group 108609" transform="translate(11.228 7.145)">
            <path id="Path_114904" data-name="Path 114904" d="M2405.208,5393.7a2.252,2.252,0,0,1-.771-.15c-1.105-.4-.782-1.945-.373-3.9a16.6,16.6,0,0,0,.5-4.028.263.263,0,0,1,.525-.024,17.047,17.047,0,0,1-.515,4.16c-.343,1.64-.639,3.056.038,3.3a1.556,1.556,0,0,0,1.254-.03,2.985,2.985,0,0,1,1.06-.21.262.262,0,1,1,0,.525,2.479,2.479,0,0,0-.888.181A2.428,2.428,0,0,1,2405.208,5393.7Z" transform="translate(-2403.682 -5385.349)" fill="#ea795c"/>
          </g>
          <path id="Path_114905" data-name="Path 114905" d="M2408.433,5401.21c.214-.124.578-.034.554.212a6.746,6.746,0,0,1-2.31,4.378c-2.687,1.618-5.582-3.941-3.629-3.922C2404.055,5401.889,2406.411,5402.381,2408.433,5401.21Z" transform="translate(-2392.2 -5381.348)" fill="#fff"/>
        </g>
        <g id="Group_108611" data-name="Group 108611" transform="translate(39.503 32.825)">
          <path id="Path_114906" data-name="Path 114906" d="M2426.185,5390.745a.262.262,0,0,1-.22-.4,5.5,5.5,0,0,0,.543-4.72.262.262,0,1,1,.494-.176,6.027,6.027,0,0,1-.6,5.181A.263.263,0,0,1,2426.185,5390.745Z" transform="translate(-2425.922 -5385.27)" fill="#ea795c"/>
        </g>
        <g id="Group_108612" data-name="Group 108612" transform="translate(5.691 34.233)">
          <path id="Path_114907" data-name="Path 114907" d="M2385.413,5392.35a.262.262,0,0,1-.2-.087,6.026,6.026,0,0,1-1.411-5.021.259.259,0,0,1,.305-.209.261.261,0,0,1,.211.3,5.494,5.494,0,0,0,1.285,4.574.262.262,0,0,1-.019.37A.258.258,0,0,1,2385.413,5392.35Z" transform="translate(-2383.713 -5387.028)" fill="#ea795c"/>
        </g>
        <g id="Group_108624" data-name="Group 108624" transform="translate(4.608 2.336)">
          <g id="Group_108613" data-name="Group 108613" transform="translate(20.069 1.875)">
            <path id="Path_114908" data-name="Path 114908" d="M2407.676,5360.607a.256.256,0,0,1-.115-.027.262.262,0,0,1-.12-.352,18.388,18.388,0,0,0,1.289-10.384.262.262,0,1,1,.521-.063,18.9,18.9,0,0,1-1.339,10.679A.262.262,0,0,1,2407.676,5360.607Z" transform="translate(-2407.413 -5349.549)" fill="#353b4a"/>
          </g>
          <g id="Group_108614" data-name="Group 108614" transform="translate(23.03 1.435)">
            <path id="Path_114909" data-name="Path 114909" d="M2418.693,5350.869a.258.258,0,0,1-.162-.057,5.438,5.438,0,0,0-7-.017.263.263,0,0,1-.311-.423,5.953,5.953,0,0,1,7.638.028.263.263,0,0,1-.163.468Z" transform="translate(-2411.11 -5349)" fill="#353b4a"/>
          </g>
          <g id="Group_108615" data-name="Group 108615" transform="translate(23.333 6.074)">
            <path id="Path_114910" data-name="Path 114910" d="M2416.677,5356.971c-.863,0-3.622-.132-5.117-1.738a.263.263,0,1,1,.385-.358c1.582,1.7,4.935,1.568,4.968,1.567a.255.255,0,0,1,.274.25.261.261,0,0,1-.25.274C2416.915,5356.967,2416.823,5356.971,2416.677,5356.971Z" transform="translate(-2411.489 -5354.792)" fill="#353b4a"/>
          </g>
          <g id="Group_108616" data-name="Group 108616" transform="translate(22.122 10.747)">
            <path id="Path_114911" data-name="Path 114911" d="M2416.659,5367.609a.264.264,0,0,1-.153-.05,10.192,10.192,0,0,1-3.361-3.986c-.67-1.266-1.112-2.1-2.952-2.428a.262.262,0,0,1,.092-.517c2.092.37,2.636,1.4,3.324,2.7a9.733,9.733,0,0,0,3.2,3.807.263.263,0,0,1-.154.476Z" transform="translate(-2409.977 -5360.625)" fill="#353b4a"/>
          </g>
          <g id="Group_108617" data-name="Group 108617" transform="translate(8.407)">
            <path id="Path_114912" data-name="Path 114912" d="M2403.207,5349.619a15.034,15.034,0,0,1-4.682-1.05c-2.19-.743-4.082-1.384-5.211-.108a.262.262,0,1,1-.393-.348c1.36-1.54,3.5-.812,5.772-.042,1.969.667,4.2,1.424,6.166.769a.263.263,0,0,1,.167.5A5.7,5.7,0,0,1,2403.207,5349.619Z" transform="translate(-2392.855 -5347.208)" fill="#353b4a"/>
          </g>
          <g id="Group_108618" data-name="Group 108618" transform="translate(15.46 5.953)">
            <path id="Path_114913" data-name="Path 114913" d="M2401.923,5356.05a.258.258,0,0,1-.15-.047.261.261,0,0,1-.065-.365c1.053-1.507,3.035-1,4.437-.478a.263.263,0,0,1-.182.493c-1.993-.736-3.173-.648-3.824.285A.264.264,0,0,1,2401.923,5356.05Z" transform="translate(-2401.661 -5354.64)" fill="#353b4a"/>
          </g>
          <g id="Group_108619" data-name="Group 108619" transform="translate(10.886 10.777)">
            <path id="Path_114914" data-name="Path 114914" d="M2396.212,5365.131a.262.262,0,0,1-.148-.479,6.3,6.3,0,0,1,3.5-1.384c.968-.087,1.8-.163,4.272-2.532a.263.263,0,0,1,.364.379c-2.6,2.5-3.567,2.584-4.589,2.675a5.794,5.794,0,0,0-3.246,1.3A.261.261,0,0,1,2396.212,5365.131Z" transform="translate(-2395.949 -5360.663)" fill="#353b4a"/>
          </g>
          <g id="Group_108620" data-name="Group 108620" transform="translate(0 26.232)">
            <path id="Path_114915" data-name="Path 114915" d="M2385.126,5382.683a.263.263,0,0,1-.248-.178,3.134,3.134,0,0,0-2.307-2.028.263.263,0,0,1,.1-.515,3.671,3.671,0,0,1,2.7,2.374.263.263,0,0,1-.164.333A.258.258,0,0,1,2385.126,5382.683Z" transform="translate(-2382.36 -5379.956)" fill="#353b4a"/>
          </g>
          <g id="Group_108621" data-name="Group 108621" transform="translate(33.516 25.161)">
            <path id="Path_114916" data-name="Path 114916" d="M2424.463,5381.13l-.034,0a.261.261,0,0,1-.226-.294c.186-1.41,1.757-1.924,2.6-2.2a.262.262,0,1,1,.163.5c-1.016.332-2.112.771-2.244,1.77A.262.262,0,0,1,2424.463,5381.13Z" transform="translate(-2424.2 -5378.62)" fill="#353b4a"/>
          </g>
          <g id="Group_108622" data-name="Group 108622" transform="translate(0.154 3.674)">
            <path id="Path_114917" data-name="Path 114917" d="M2382.815,5368.514a.332.332,0,0,1-.061-.006.262.262,0,0,1-.195-.315,9.673,9.673,0,0,1,1.929-3.88c1.2-1.622,2.153-2.9,1.054-7.57-.4-1.7-.61-3.357,1.2-4.884a.262.262,0,0,1,.339.4c-1.445,1.222-1.479,2.428-1.023,4.363,1.154,4.906.089,6.341-1.144,8a9.1,9.1,0,0,0-1.84,3.688A.263.263,0,0,1,2382.815,5368.514Z" transform="translate(-2382.552 -5351.795)" fill="#353b4a"/>
          </g>
          <g id="Group_108623" data-name="Group 108623" transform="translate(33.42 9.006)">
            <path id="Path_114918" data-name="Path 114918" d="M2429.24,5370.936a.262.262,0,0,1-.238-.372,4.826,4.826,0,0,0-.743-5.047,9.766,9.766,0,0,0-1.624-1.4c-1.406-1.04-2.734-2.022-2.535-5.413a.257.257,0,0,1,.277-.246.262.262,0,0,1,.247.277c-.182,3.106.924,3.924,2.324,4.96a10.177,10.177,0,0,1,1.706,1.48,5.364,5.364,0,0,1,.826,5.613A.263.263,0,0,1,2429.24,5370.936Z" transform="translate(-2424.08 -5358.452)" fill="#353b4a"/>
          </g>
        </g>
        <path id="Path_114919" data-name="Path 114919" d="M2394.962,5387.432c-.991-.07-1.5-3.895.907-3.723C2397.152,5383.8,2396.584,5387.548,2394.962,5387.432Z" transform="translate(-2380.095 -5352.133)" fill="#382823"/>
        <path id="Path_114920" data-name="Path 114920" d="M2414.4,5387.432c-.991-.07-1.5-3.895.907-3.723C2416.59,5383.8,2416.022,5387.548,2414.4,5387.432Z" transform="translate(-2383.963 -5352.133)" fill="#382823"/>
      </g>
      <g id="Group_108626" data-name="Group 108626" transform="translate(65.07 63.346)">
        <path id="Path_114921" data-name="Path 114921" d="M2381.712,5424.117c6.319,7.095,18.349,11.916,26.629,1.088.656-.858-.074-1.11,18.249,5.579,8.154,69.534,11.549,87.426,4.872,88.08-24.766,2.424-54.352,13.209-69.954,1.236-9.037-6.935-2.014-83.331.67-89.368C2381.512,5423.275,2380.87,5423.172,2381.712,5424.117Z" transform="translate(-2356.78 -5423.438)" fill="#8a9077"/>
        <path id="Path_114922" data-name="Path 114922" d="M2381.8,5525.815c-7.98,0-15.111-1.428-20.513-5.573-5.262-4.037-4.867-30.077-4.163-45.24.968-20.876,3.392-41.382,4.752-44.442l.044-.1.1-.038c4.21-1.625,7.473-2.9,10.011-3.891,9.042-3.534,9.042-3.534,9.763-2.712l.05.057c3.3,3.7,9.022,7.576,15.174,7.343,4.29-.16,8.008-2.26,11.051-6.239l.065-.089c.666-.921.664-.923,17.737,5.31l.9.327.018.161c1.263,10.765,2.412,20.3,3.426,28.711,4.783,39.685,6.573,54.532,3.39,58.5a3.047,3.047,0,0,1-2.179,1.164c-6.681.652-13.827,1.937-20.738,3.179C2400.818,5524.011,2390.771,5525.815,2381.8,5525.815Zm-19.486-94.944c-1.343,3.334-3.737,24.12-4.667,44.154-1.189,25.629.254,41.957,3.959,44.8,11.294,8.666,30.457,5.225,48.988,1.895,6.921-1.242,14.079-2.528,20.78-3.185a2.538,2.538,0,0,0,1.821-.97c3.044-3.791,1.128-19.691-3.5-58.1-1.009-8.37-2.152-17.852-3.407-28.552l-.594-.217c-15.755-5.752-16.7-6.1-17.131-5.5l-.074.1c-3.143,4.11-6.995,6.279-11.448,6.445-6.352.233-12.21-3.728-15.586-7.519l-.052-.06c-.469-.534-.643-.48-9.178,2.854C2369.7,5428,2366.473,5429.266,2362.313,5430.871Z" transform="translate(-2356.716 -5423.371)" fill="#787160"/>
      </g>
      <g id="Group_108628" data-name="Group 108628" transform="translate(69.219 151.048)">
        <g id="Group_108627" data-name="Group 108627" transform="translate(27.888 2.73)">
          <path id="Path_114923" data-name="Path 114923" d="M2399.607,5537.766c-.952-.988,1.136-2.393,1.837-.743a1.707,1.707,0,0,1-.281,1.663c1.289.26,1.674-2.137,2.947-2.018,2.41.228.531,12.176-6.549,10.861-1.514-.281-.616-1.5-.307-2.528C2399.331,5538.09,2394.99,5534.206,2399.607,5537.766Z" transform="translate(-2396.708 -5536.262)" fill="#ea795c"/>
        </g>
        <path id="Path_114924" data-name="Path 114924" d="M2361.894,5540.664l2.246-7.809,16.151,5.409c6.747-.664,10.54-3.618,15.185.145a.661.661,0,0,1-.049,1.079c-1.67.963-3.288.2-4,.1-2.982-.439-7.088,4.282-1.619,6.039,7.708,2.477,8.039-6.9,10.333-7.768,2.072-.78,1.417,3.211-2.034,8.878-1.951,3.2-2.41,1.512-6.86,3.171a2.69,2.69,0,0,1-2.805-.034C2376.89,5544.392,2380.643,5545.856,2361.894,5540.664Z" transform="translate(-2361.894 -5532.855)" fill="#f9a587"/>
      </g>
      <g id="Group_108629" data-name="Group 108629" transform="translate(21.617 70.31)">
        <path id="Path_114925" data-name="Path 114925" d="M2305.9,5497.537c-8.059,12.233,1.242,17.227,8.744,19.482,9.9,2.976,51.131,13.07,52.747,8.722,2.914-7.844,3.322-9.242,1.656-10.172-40.659-22.714-46.046-8.587-22.239-32.394a17.748,17.748,0,0,0,5-9.916c2.152-14.315,3.846-42.444-.42-40.8C2340.691,5436.586,2328.045,5463.925,2305.9,5497.537Z" transform="translate(-2302.534 -5432.129)" fill="#8a9077"/>
        <path id="Path_114926" data-name="Path 114926" d="M2363.2,5526.965c-11.617,0-42.5-7.9-48.694-9.76-6.349-1.908-10.23-4.7-11.537-8.3-1.174-3.232-.282-7.127,2.648-11.576,7.1-10.78,13.224-20.91,18.625-29.848,11.4-18.864,19.636-32.494,26.983-35.328a1.108,1.108,0,0,1,1.146.173c3.338,2.677,1.506,28.428-.371,40.909a17.886,17.886,0,0,1-5.071,10.062c-3.072,3.073-5.664,5.519-7.746,7.483-4.4,4.15-6.6,6.233-6.327,7.57.255,1.227,2.719,2.121,7.193,3.743a182.816,182.816,0,0,1,29.062,13.183c1.889,1.056,1.344,2.734-1.538,10.493C2367.262,5526.61,2365.664,5526.965,2363.2,5526.965Zm-57.145-29.349c-2.834,4.3-3.706,8.04-2.593,11.108,1.247,3.436,5.013,6.12,11.195,7.979,12.885,3.874,51.028,12.639,52.424,8.882,2.875-7.737,3.231-9.039,1.774-9.852a182.274,182.274,0,0,0-28.984-13.147c-4.8-1.742-7.214-2.616-7.528-4.131-.336-1.624,1.8-3.64,6.481-8.058,2.08-1.962,4.667-4.405,7.734-7.472a17.362,17.362,0,0,0,4.923-9.769c2.157-14.346,3.371-38.168.562-40.421a.585.585,0,0,0-.629-.093c-7.18,2.769-15.378,16.334-26.724,35.109-5.4,8.942-11.528,19.077-18.636,29.866Z" transform="translate(-2302.47 -5432.065)" fill="#787160"/>
      </g>
      <g id="Group_108631" data-name="Group 108631" transform="translate(96.203 149.058)">
        <g id="Group_108630" data-name="Group 108630" transform="translate(3.095 4.205)">
          <path id="Path_114927" data-name="Path 114927" d="M2404.886,5537.08c.9-1.034-1.255-2.333-1.872-.649a1.71,1.71,0,0,0,.364,1.646c-1.274.324-1.78-2.05-3.045-1.867-2.4.349.083,12.187,7.087,10.516,1.5-.356.54-1.527.179-2.539C2405.177,5537.391,2409.318,5533.293,2404.886,5537.08Z" transform="translate(-2399.445 -5535.62)" fill="#ea795c"/>
        </g>
        <path id="Path_114928" data-name="Path 114928" d="M2435.044,5538.058l-2.636-7.687-15.857,6.216c-6.772-.324-10.708-3.082-15.158.91a.66.66,0,0,0,.1,1.075c1.716.877,3.293.035,4-.106,2.958-.588,7.3,3.919,1.922,5.949-7.573,2.862-8.377-6.49-10.711-7.237-2.109-.676-1.254,3.278,2.478,8.764,2.11,3.1,2.483,1.389,7.012,2.821a2.686,2.686,0,0,0,2.8-.176C2420.256,5542.537,2416.58,5544.187,2435.044,5538.058Z" transform="translate(-2395.581 -5530.371)" fill="#f9a587"/>
      </g>
      <g id="Group_108632" data-name="Group 108632" transform="translate(115.081 70.393)">
        <path id="Path_114929" data-name="Path 114929" d="M2454.148,5499.1c-19.562,7.484-30.066,12.8-33.626,14.714-2.239,1.2-.451,3.445,1.469,10.384a2.081,2.081,0,0,0,2.325,1.5c62.9-9.858,65.949-14.957,60.308-27.37-3.879-8.537-36.494-62.486-45.61-65.788-3.3-1.2-3.84,26.205-1.7,37.528C2439.293,5480.581,2459.137,5497.188,2454.148,5499.1Z" transform="translate(-2419.214 -5432.233)" fill="#8a9077"/>
        <path id="Path_114930" data-name="Path 114930" d="M2423.925,5525.914a2.335,2.335,0,0,1-2.252-1.714c-.539-1.948-1.073-3.538-1.5-4.814-1.129-3.367-1.645-4.9.159-5.87,3.612-1.938,14.121-7.254,33.657-14.729a.879.879,0,0,0,.595-.6c.441-1.632-2.949-5.85-6.538-10.316-4.714-5.866-10.058-12.515-11.06-17.828-2-10.6-1.634-35.264,1.156-37.637a.868.868,0,0,1,.9-.187c9.332,3.379,42.146,57.973,45.761,65.925,1.816,4,2.707,7.25,1.152,10.134-3.453,6.4-19.587,11.01-61.66,17.6A2.366,2.366,0,0,1,2423.925,5525.914Zm30.251-26.637c-19.508,7.464-29.993,12.767-33.6,14.7-1.353.727-1.077,1.761.09,5.241.43,1.283.966,2.88,1.508,4.84a1.812,1.812,0,0,0,2.031,1.308c41.882-6.564,57.917-11.1,61.278-17.334,1.457-2.7.634-5.7-1.168-9.667-4.418-9.723-36.593-62.439-45.461-65.649a.347.347,0,0,0-.376.092c-2.443,2.079-3.076,26.03-.98,37.14.978,5.186,6.509,12.067,10.953,17.6,3.993,4.968,7.147,8.893,6.636,10.783a1.389,1.389,0,0,1-.915.949Z" transform="translate(-2419.148 -5432.168)" fill="#787160"/>
      </g>
      <g id="Group_108648" data-name="Group 108648" transform="translate(21.715 67.331)">
        <g id="Group_108633" data-name="Group 108633" transform="translate(56.343)">
          <path id="Path_114931" data-name="Path 114931" d="M2386.975,5503.919a.263.263,0,0,1-.212-.106c-5.018-6.831-11.261-15.331-12.22-25.034-.572-5.784.768-11.618,2.063-17.259,1.458-6.346,2.965-12.906,1.674-19.288a46.05,46.05,0,0,0-3.7-9.976l-1.632-3.538a.262.262,0,0,1,.477-.22l1.632,3.538a46.443,46.443,0,0,1,3.734,10.092c1.313,6.492-.207,13.109-1.677,19.508-1.286,5.6-2.616,11.391-2.053,17.091.944,9.56,7.141,18,12.121,24.774a.262.262,0,0,1-.211.417Z" transform="translate(-2372.929 -5428.347)" fill="#ffba73"/>
        </g>
        <g id="Group_108634" data-name="Group 108634" transform="translate(101.566 0.972)">
          <path id="Path_114932" data-name="Path 114932" d="M2437.131,5503.549a.267.267,0,0,1-.262-.282c.587-7.844,1.194-15.955-.46-23.79a85.883,85.883,0,0,0-3.13-10.367c-1.63-4.674-3.314-9.507-3.766-14.52-.787-8.724,2.128-17.109,5.4-24.871a.262.262,0,0,1,.484.2c-3.241,7.7-6.133,16.011-5.356,24.62.445,4.949,2.119,9.751,3.738,14.394a86.226,86.226,0,0,1,3.147,10.432c1.669,7.908,1.06,16.057.47,23.938A.263.263,0,0,1,2437.131,5503.549Z" transform="translate(-2429.384 -5429.559)" fill="#ffba73"/>
        </g>
        <g id="Group_108635" data-name="Group 108635" transform="translate(25.18 31.772)">
          <path id="Path_114933" data-name="Path 114933" d="M2399.8,5479.182c-12.007,0-24.2-3.21-35.265-6.124-8.8-2.317-17.118-4.506-23.673-4.523a33.731,33.731,0,0,0-6.525.639.263.263,0,1,1-.1-.515,34.5,34.5,0,0,1,6.629-.649c6.622.017,14.969,2.215,23.806,4.541,14.4,3.791,30.711,8.087,45.963,5.114a101.641,101.641,0,0,0,14.434-4.331c6.452-2.291,13.124-4.66,20.345-5.121a.262.262,0,1,1,.034.523c-7.148.456-13.785,2.813-20.2,5.092a102.11,102.11,0,0,1-14.509,4.351A57.074,57.074,0,0,1,2399.8,5479.182Z" transform="translate(-2334.026 -5468.01)" fill="#fff"/>
        </g>
        <g id="Group_108636" data-name="Group 108636" transform="translate(4.109 2.42)">
          <path id="Path_114934" data-name="Path 114934" d="M2307.985,5513.564a.256.256,0,0,1-.163-.057.263.263,0,0,1-.044-.368,136.86,136.86,0,0,1,10.4-11.338c5.951-6.016,12.105-12.237,15.846-19.907,2.279-4.673,3.62-9.814,4.916-14.786a67.249,67.249,0,0,1,8.56-21.626c1.3-2.3,2.646-4.671,3.783-7.095a35.808,35.808,0,0,0,2.448-6.819.263.263,0,0,1,.511.122,36.4,36.4,0,0,1-2.483,6.92c-1.146,2.442-2.5,4.826-3.8,7.131a66.791,66.791,0,0,0-8.509,21.5c-1.3,5-2.65,10.165-4.952,14.884-3.779,7.748-9.964,14-15.945,20.046a136.426,136.426,0,0,0-10.364,11.295A.264.264,0,0,1,2307.985,5513.564Z" transform="translate(-2307.722 -5431.367)" fill="#ffba73"/>
        </g>
        <g id="Group_108637" data-name="Group 108637" transform="translate(115.309 4.64)">
          <path id="Path_114935" data-name="Path 114935" d="M2481.248,5515.417a.259.259,0,0,1-.186-.078,25.451,25.451,0,0,1-5.8-9.884,77.5,77.5,0,0,1-2.361-9.838c-.5-2.588-1.023-5.265-1.749-7.836a55.763,55.763,0,0,0-10.6-19.912c-.675-.834-1.384-1.668-2.071-2.475a51.748,51.748,0,0,1-5.136-6.759c-2.485-4.143-3.768-8.943-4.783-13.514-.782-3.524-1.461-7.117-2.015-10.681a.263.263,0,1,1,.519-.08c.553,3.553,1.228,7.135,2.009,10.647,1.006,4.527,2.274,9.278,4.72,13.357a51.49,51.49,0,0,0,5.086,6.689c.688.81,1.4,1.645,2.08,2.484a56.314,56.314,0,0,1,10.7,20.1c.731,2.592,1.253,5.28,1.758,7.878a77.259,77.259,0,0,0,2.344,9.771,24.949,24.949,0,0,0,5.676,9.681.263.263,0,0,1-.186.448Z" transform="translate(-2446.54 -5434.138)" fill="#ffba73"/>
        </g>
        <g id="Group_108638" data-name="Group 108638" transform="translate(13.804 50.032)">
          <path id="Path_114936" data-name="Path 114936" d="M2393.355,5505.152a98.877,98.877,0,0,1-19.993-2.1c-5.814-1.2-11.629-2.946-17.253-4.64-11.565-3.482-23.524-7.087-36-5.981a.268.268,0,0,1-.285-.238.262.262,0,0,1,.239-.284c12.578-1.11,24.584,2.5,36.2,6,5.613,1.69,11.417,3.438,17.207,4.628,26.161,5.375,44.534-.723,60.743-6.1A155.914,155.914,0,0,1,2454,5490.81a.262.262,0,0,1,.1.516,155.436,155.436,0,0,0-19.719,5.611C2422.571,5500.854,2409.617,5505.151,2393.355,5505.152Z" transform="translate(-2319.825 -5490.805)" fill="#fff"/>
        </g>
        <g id="Group_108639" data-name="Group 108639" transform="translate(35.391 15.457)">
          <path id="Path_114937" data-name="Path 114937" d="M2410.895,5458.077c-9.344,0-18.565-2.528-27.517-4.982-11.791-3.234-23.983-6.577-36.289-4.023a.262.262,0,1,1-.107-.513c12.429-2.58,24.685.781,36.534,4.03,10.018,2.747,20.374,5.588,30.821,4.844,6.469-.46,12.836-2.306,18.994-4.092,1.955-.566,3.976-1.152,5.973-1.686a.263.263,0,0,1,.135.508c-1.991.532-4.01,1.117-5.962,1.683-6.184,1.792-12.58,3.646-19.1,4.111C2413.214,5458.039,2412.052,5458.077,2410.895,5458.077Z" transform="translate(-2346.773 -5447.643)" fill="#fff"/>
        </g>
        <g id="Group_108640" data-name="Group 108640" transform="translate(81.009 3.872)">
          <path id="Path_114938" data-name="Path 114938" d="M2413.69,5515.714a.261.261,0,0,1-.252-.334,40.621,40.621,0,0,0-.526-23.756,81.777,81.777,0,0,0-3.713-8.771,59.371,59.371,0,0,1-4.681-12.238c-1.472-6.674-.607-13.707.229-20.508.681-5.531,1.384-11.252.783-16.635a.263.263,0,0,1,.232-.29.267.267,0,0,1,.29.232c.607,5.443-.1,11.194-.785,16.756-.831,6.757-1.69,13.744-.237,20.331a58.915,58.915,0,0,0,4.644,12.128,81.942,81.942,0,0,1,3.735,8.829,41.142,41.142,0,0,1,.533,24.065A.263.263,0,0,1,2413.69,5515.714Z" transform="translate(-2403.721 -5433.181)" fill="#ffba73"/>
        </g>
        <g id="Group_108641" data-name="Group 108641" transform="translate(44.363 2.453)">
          <path id="Path_114939" data-name="Path 114939" d="M2390.871,5440.47c-6.835,0-13.708-1.5-20.42-2.97-4.012-.877-8.16-1.783-12.25-2.362a.263.263,0,0,1,.073-.52c4.11.582,8.268,1.491,12.29,2.37,9.441,2.064,19.2,4.2,28.667,2.084a63.042,63.042,0,0,0,8.68-2.811,82.786,82.786,0,0,1,17.053-4.848.262.262,0,1,1,.087.518,82.306,82.306,0,0,0-16.954,4.821,63.32,63.32,0,0,1-8.751,2.832A38.712,38.712,0,0,1,2390.871,5440.47Z" transform="translate(-2357.974 -5431.409)" fill="#fff"/>
        </g>
        <g id="Group_108642" data-name="Group 108642" transform="translate(0 69.981)">
          <path id="Path_114940" data-name="Path 114940" d="M2302.855,5521.481a.262.262,0,0,1-.146-.48c8.586-5.75,18.737-5.426,26.15-5.189,1.661.053,3.23.1,4.551.07a.276.276,0,0,1,.268.256.262.262,0,0,1-.255.27c-1.337.033-2.913-.018-4.581-.071-7.343-.234-17.4-.556-25.841,5.1A.255.255,0,0,1,2302.855,5521.481Z" transform="translate(-2302.592 -5515.708)" fill="#fff"/>
        </g>
        <g id="Group_108643" data-name="Group 108643" transform="translate(26.892 76.093)">
          <path id="Path_114941" data-name="Path 114941" d="M2336.426,5539.319a.262.262,0,0,1-.231-.384,31.691,31.691,0,0,1,18.572-15.586.262.262,0,1,1,.158.5,31.173,31.173,0,0,0-18.266,15.329A.263.263,0,0,1,2336.426,5539.319Z" transform="translate(-2336.164 -5523.338)" fill="#fff"/>
        </g>
        <g id="Group_108644" data-name="Group 108644" transform="translate(126.031 64.411)">
          <path id="Path_114942" data-name="Path 114942" d="M2494.6,5520.406a.171.171,0,0,1-.031,0c-6.5-.773-12.333-3.282-17.972-5.709-5.229-2.249-10.636-4.576-16.449-5.418a.263.263,0,0,1,.075-.521c5.881.853,11.32,3.193,16.581,5.456,5.6,2.412,11.4,4.906,17.827,5.671a.262.262,0,0,1-.031.522Z" transform="translate(-2459.925 -5508.754)" fill="#fff"/>
        </g>
        <g id="Group_108645" data-name="Group 108645" transform="translate(86.393 69.575)">
          <path id="Path_114943" data-name="Path 114943" d="M2410.7,5538.352a.263.263,0,0,1-.232-.387c1.857-3.465,10.31-4.994,21.011-6.93,8.9-1.608,18.982-3.433,27.133-6.8,2.146-.886,4.282-1.914,6.349-2.908a67.05,67.05,0,0,1,11.872-4.8c1.15-.3,2.406-.55,3.736-.812.819-.16,1.658-.325,2.5-.509a.262.262,0,0,1,.111.513c-.847.185-1.689.35-2.511.512-1.322.261-2.57.506-3.7.8a66.7,66.7,0,0,0-11.779,4.768c-2.072,1-4.216,2.028-6.375,2.919-8.2,3.386-18.317,5.215-27.24,6.829-10.144,1.835-18.9,3.42-20.641,6.662A.262.262,0,0,1,2410.7,5538.352Z" transform="translate(-2410.442 -5515.201)" fill="#ffba73"/>
        </g>
        <g id="Group_108646" data-name="Group 108646" transform="translate(112.932 71.266)">
          <path id="Path_114944" data-name="Path 114944" d="M2465.334,5536.258a.253.253,0,0,1-.118-.028c-5.072-2.548-8.983-6.771-12.434-10.5-3.015-3.255-5.863-6.33-9.065-7.924a.262.262,0,0,1,.234-.47c3.288,1.637,6.167,4.745,9.216,8.036,3.587,3.873,7.3,7.878,12.284,10.383a.263.263,0,0,1-.118.5Z" transform="translate(-2443.572 -5517.313)" fill="#fff"/>
        </g>
        <g id="Group_108647" data-name="Group 108647" transform="translate(3.792 66.93)">
          <path id="Path_114945" data-name="Path 114945" d="M2376.282,5537.006a.2.2,0,0,1-.042,0c-4.943-.794-9.359-3.412-13.631-5.941-4.194-2.485-8.531-5.054-13.33-5.859a39.6,39.6,0,0,0-7.394-.3c-1.106.023-2.251.047-3.375.03-13.91-.223-21.6-5.777-27.773-10.24-1.153-.833-2.241-1.62-3.295-2.312a.263.263,0,0,1,.289-.439c1.062.7,2.156,1.489,3.313,2.325,6.116,4.42,13.728,9.921,27.473,10.142,1.117.017,2.254-.007,3.355-.031a40.042,40.042,0,0,1,7.493.306c4.894.821,9.274,3.416,13.51,5.925s8.6,5.1,13.446,5.875a.262.262,0,0,1-.042.521Z" transform="translate(-2307.326 -5511.899)" fill="#ffba73"/>
        </g>
      </g>
      <g id="Group_108654" data-name="Group 108654" transform="translate(42.231 67.278)">
        <g id="Group_108649" data-name="Group 108649" transform="translate(110.901 68.807)">
          <path id="Path_114946" data-name="Path 114946" d="M2472.842,5516.311a11.962,11.962,0,0,1-6.064-1.646.263.263,0,0,1,.268-.453,11.423,11.423,0,0,0,8.586,1.225.263.263,0,0,1,.13.509A11.818,11.818,0,0,1,2472.842,5516.311Z" transform="translate(-2466.648 -5514.176)" fill="#787160"/>
        </g>
        <g id="Group_108650" data-name="Group 108650" transform="translate(0 65.297)">
          <path id="Path_114947" data-name="Path 114947" d="M2335.768,5514.544a8.817,8.817,0,0,1-7.53-4.357.263.263,0,0,1,.456-.262,8.28,8.28,0,0,0,7.074,4.094.127.127,0,0,0,.027,0,.263.263,0,0,1,.263.261A.279.279,0,0,1,2335.768,5514.544Z" transform="translate(-2328.203 -5509.794)" fill="#787160"/>
        </g>
        <g id="Group_108651" data-name="Group 108651" transform="translate(58.485 49.681)">
          <path id="Path_114948" data-name="Path 114948" d="M2401.477,5517.753a.263.263,0,0,1-.04-.522c14.112-2.154,21.527-16.977,26.435-26.786a.262.262,0,0,1,.469.235c-4.955,9.906-12.444,24.875-26.824,27.07A.227.227,0,0,1,2401.477,5517.753Z" transform="translate(-2401.214 -5490.3)" fill="#787160"/>
        </g>
        <g id="Group_108652" data-name="Group 108652" transform="translate(43.82)">
          <path id="Path_114949" data-name="Path 114949" d="M2399.011,5437.007c-7.047,0-14.51-3.863-16.09-8.379a.262.262,0,1,1,.495-.173c1.539,4.394,8.976,8.17,15.914,8.024a.27.27,0,0,1,.268.258.263.263,0,0,1-.258.268Z" transform="translate(-2382.906 -5428.28)" fill="#787160"/>
        </g>
        <g id="Group_108653" data-name="Group 108653" transform="translate(25.56 43.626)">
          <path id="Path_114950" data-name="Path 114950" d="M2360.374,5495.792a.262.262,0,0,1-.187-.446,21.023,21.023,0,0,0,5.891-12.372.267.267,0,0,1,.29-.231.262.262,0,0,1,.231.29,21.547,21.547,0,0,1-6.038,12.681A.257.257,0,0,1,2360.374,5495.792Z" transform="translate(-2360.111 -5482.741)" fill="#787160"/>
        </g>
      </g>
      <g id="Group_108657" data-name="Group 108657" transform="translate(59.873 110.333)">
        <g id="Group_108655" data-name="Group 108655">
          <rect id="Rectangle_40307" data-name="Rectangle 40307" width="87.874" height="67.11" rx="5.528" transform="translate(0.262 0.262)" fill="#858789"/>
          <path id="Path_114951" data-name="Path 114951" d="M2431.207,5549.662h-73.561a7.426,7.426,0,0,1-7.418-7.419v-52.8a7.427,7.427,0,0,1,7.418-7.419h73.561a7.428,7.428,0,0,1,7.418,7.419v52.8A7.426,7.426,0,0,1,2431.207,5549.662Zm-73.561-67.109a6.9,6.9,0,0,0-6.894,6.894v52.8a6.9,6.9,0,0,0,6.894,6.895h73.561a6.9,6.9,0,0,0,6.894-6.895v-52.8a6.9,6.9,0,0,0-6.894-6.894Z" transform="translate(-2350.227 -5482.027)" fill="#d2d4d5"/>
        </g>
        <g id="Group_108656" data-name="Group 108656" transform="translate(37.842 27.461)">
          <path id="Path_114952" data-name="Path 114952" d="M2409.984,5522.73a6.094,6.094,0,1,1-6.094-6.094A6.094,6.094,0,0,1,2409.984,5522.73Z" transform="translate(-2397.533 -5516.374)" fill="#d2d4d5"/>
          <path id="Path_114953" data-name="Path 114953" d="M2403.825,5529.022a6.357,6.357,0,1,1,6.356-6.357A6.364,6.364,0,0,1,2403.825,5529.022Zm0-12.188a5.832,5.832,0,1,0,5.832,5.831A5.838,5.838,0,0,0,2403.825,5516.834Z" transform="translate(-2397.468 -5516.309)" fill="#858789"/>
        </g>
      </g>
      <g id="Group_108658" data-name="Group 108658" transform="translate(81.783 135.061)">
        <path id="Path_114954" data-name="Path 114954" d="M2378.055,5513.222l-.475-.224.046-.1.479.216Z" transform="translate(-2377.58 -5512.897)" fill="#fff"/>
      </g>
    </g>
  </g>
</svg>
