<svg xmlns="http://www.w3.org/2000/svg" xmlns:xlink="http://www.w3.org/1999/xlink" width="307.899" height="279" viewBox="0 0 307.899 279">
  <defs>
    <clipPath id="clip-path">
      <path id="Path_115127" data-name="Path 115127" d="M2989.617,5603.377l-19.53-50.543h-66.8l19.488,50.543Z" fill="#1d2238"/>
    </clipPath>
    <clipPath id="clip-path-2">
      <rect id="Rectangle_40380" data-name="Rectangle 40380" width="70.992" height="81.856" fill="#f1f2f5"/>
    </clipPath>
    <clipPath id="clip-path-3">
      <rect id="Rectangle_40382" data-name="Rectangle 40382" width="32.181" height="37.105" fill="#f1f2f5"/>
    </clipPath>
  </defs>
  <g id="Group_130003" data-name="Group 130003" transform="translate(3856.169 9814.195)">
    <g id="Group_130002" data-name="Group 130002" transform="translate(-4664.279 -12221)">
      <rect id="Rectangle_40378" data-name="Rectangle 40378" width="307.899" height="0.567" transform="translate(808.11 2672.08)" fill="#1d2238"/>
      <g id="Group_108770" data-name="Group 108770" transform="translate(-2079.273 -2937.403)">
        <path id="Path_115123" data-name="Path 115123" d="M2992.783,5603.377h-73.042l-20.22-52.869h73.042Z" fill="#9ea9bd"/>
        <path id="Path_115124" data-name="Path 115124" d="M3020.838,5603.377h-101.1l2.289,6.215h136.526v-6.215Z" fill="#9ea9bd"/>
        <g id="Group_108768" data-name="Group 108768">
          <path id="Path_115125" data-name="Path 115125" d="M2989.617,5603.377l-19.53-50.543h-66.8l19.488,50.543Z" fill="#1d2238"/>
          <g id="Group_108767" data-name="Group 108767" clip-path="url(#clip-path)">
            <path id="Path_115126" data-name="Path 115126" d="M2929.6,5549.5c-.248,1-22.04,36.366-22.04,36.366l7,17.242,24.137-33.406-20.93,41.893h29.89l16.822-27.98-11.266,28.474H2972.4l22.512-33.988-16.459-38.5-25.236,42.3,14.516-39.829Z" fill="#9ea9bd" opacity="0.24"/>
          </g>
        </g>
        <g id="Group_108769" data-name="Group 108769">
          <rect id="Rectangle_40385" data-name="Rectangle 40385" width="10.997" height="2.245" rx="1.123" transform="translate(2927.04 5605.494)" fill="#1d2238"/>
          <rect id="Rectangle_40386" data-name="Rectangle 40386" width="10.997" height="2.245" rx="1.123" transform="translate(2940.14 5605.494)" fill="#1d2238"/>
        </g>
      </g>
    </g>
    <g id="Group_129996" data-name="Group 129996" transform="translate(731.749 -312.756)">
      <g id="Group_108766" data-name="Group 108766" transform="translate(-4549.188 -9501.439)">
        <g id="Group_108759" data-name="Group 108759">
          <path id="Path_115117" data-name="Path 115117" d="M2986.53,5383.369h-84.54v-95.405h84.54Zm-84.008-.532H2986V5288.5h-83.474Z" transform="translate(-2901.99 -5287.963)" fill="#d2d6e1"/>
          <g id="Group_108758" data-name="Group 108758" transform="translate(6.774 6.775)">
            <rect id="Rectangle_40379" data-name="Rectangle 40379" width="70.992" height="81.856" fill="#f1f2f5"/>
            <g id="Group_108757" data-name="Group 108757" clip-path="url(#clip-path-2)">
              <path id="Path_115118" data-name="Path 115118" d="M2937.065,5295.777l-27.263,38.828V5359.1l17.842-21.041-17.842,28.891v10.683h31.974l29.519-38-20.726,38H2966.9l13.9-23.244v-58.613h-11.07l-30.147,40.928,23.866-40.928h-26.379" transform="translate(-2909.802 -5295.777)" fill="#fff" opacity="0.45"/>
            </g>
          </g>
        </g>
        <g id="Group_108762" data-name="Group 108762" transform="translate(159.566)">
          <path id="Path_115119" data-name="Path 115119" d="M3124.64,5331.5h-38.613v-43.539h38.613Zm-38.081-.533h37.549V5288.5h-37.549Z" transform="translate(-3086.027 -5287.963)" fill="#d2d6e1"/>
          <g id="Group_108761" data-name="Group 108761" transform="translate(3.216 3.217)">
            <rect id="Rectangle_40381" data-name="Rectangle 40381" width="32.181" height="37.105" fill="#f1f2f5"/>
            <g id="Group_108760" data-name="Group 108760" clip-path="url(#clip-path-3)">
              <path id="Path_115120" data-name="Path 115120" d="M3102.1,5291.674l-12.359,17.6v11.1l8.088-9.538-8.088,13.1v4.842h14.494l13.381-17.227-9.4,17.227h7.4l6.3-10.536v-26.569H3116.9l-13.666,18.553,10.819-18.553H3102.1" transform="translate(-3089.736 -5291.674)" fill="#fff" opacity="0.45"/>
            </g>
          </g>
        </g>
        <g id="Group_108765" data-name="Group 108765" transform="translate(113.639)">
          <path id="Path_115121" data-name="Path 115121" d="M3071.669,5331.5h-38.613v-43.539h38.613Zm-38.08-.533h37.548V5288.5h-37.548Z" transform="translate(-3033.057 -5287.963)" fill="#d2d6e1"/>
          <g id="Group_108764" data-name="Group 108764" transform="translate(3.216 3.217)">
            <rect id="Rectangle_40383" data-name="Rectangle 40383" width="32.181" height="37.105" fill="#f1f2f5"/>
            <g id="Group_108763" data-name="Group 108763" clip-path="url(#clip-path-3)">
              <path id="Path_115122" data-name="Path 115122" d="M3049.125,5291.674l-12.358,17.6v11.1l8.088-9.538-8.088,13.1v4.842h14.494l13.381-17.227-9.4,17.227h7.4l6.3-10.536v-26.569h-5.018l-13.666,18.553,10.819-18.553h-11.958" transform="translate(-3036.766 -5291.674)" fill="#fff" opacity="0.45"/>
            </g>
          </g>
        </g>
      </g>
      <g id="Group_108778" data-name="Group 108778" transform="translate(-4555.089 -9447.056)">
        <g id="Group_108771" data-name="Group 108771" transform="translate(3.673 72.347)">
          <path id="Path_115128" data-name="Path 115128" d="M2899.421,5434.616h2.876V5445.9h6.87v2.474h-9.746Z" transform="translate(-2899.421 -5434.195)" fill="#1d2238"/>
          <path id="Path_115129" data-name="Path 115129" d="M2923.408,5447.089a7.138,7.138,0,0,1-9.018,0,7.425,7.425,0,0,1-2.091-5.677,7.279,7.279,0,0,1,2.091-5.676,7.135,7.135,0,0,1,9.018,0,7.3,7.3,0,0,1,2.082,5.676A7.444,7.444,0,0,1,2923.408,5447.089Zm-1.8-2.092a6.894,6.894,0,0,0,0-7.165,3.279,3.279,0,0,0-2.712-1.265,3.324,3.324,0,0,0-2.726,1.26,6.827,6.827,0,0,0,0,7.17,3.324,3.324,0,0,0,2.726,1.26A3.283,3.283,0,0,0,2921.611,5445Z" transform="translate(-2901.133 -5434.13)" fill="#1d2238"/>
          <path id="Path_115130" data-name="Path 115130" d="M2933.829,5434.616h3.253l4.868,13.76h-3.118l-.908-2.829h-5.068l-.933,2.829h-3.008Zm-.19,8.561h3.524l-1.738-5.414Z" transform="translate(-2903.343 -5434.195)" fill="#1d2238"/>
          <path id="Path_115131" data-name="Path 115131" d="M2954.031,5434.915a4.55,4.55,0,0,1,2.345,1.746,6.124,6.124,0,0,1,.981,2.222,10.672,10.672,0,0,1,.262,2.278,9.134,9.134,0,0,1-1.1,4.648,4.974,4.974,0,0,1-4.615,2.567h-5.933v-13.76h5.933A7.2,7.2,0,0,1,2954.031,5434.915Zm-5.272,2.09v8.981h2.655a2.868,2.868,0,0,0,2.843-2.007,7.072,7.072,0,0,0,.439-2.624,6.447,6.447,0,0,0-.66-3.226,2.784,2.784,0,0,0-2.623-1.125Z" transform="translate(-2905.61 -5434.195)" fill="#1d2238"/>
          <path id="Path_115132" data-name="Path 115132" d="M2964.481,5448.376h-2.857v-13.76h2.857Z" transform="translate(-2907.692 -5434.195)" fill="#1d2238"/>
          <path id="Path_115133" data-name="Path 115133" d="M2967.966,5434.616h3.014l5.463,9.594v-9.594h2.679v13.76h-2.875l-5.6-9.763v9.763h-2.679Z" transform="translate(-2908.535 -5434.195)" fill="#1d2238"/>
          <path id="Path_115134" data-name="Path 115134" d="M2993.094,5438.855a2.694,2.694,0,0,0-1.6-1.971,3.926,3.926,0,0,0-1.578-.308,3.427,3.427,0,0,0-2.73,1.254,5.685,5.685,0,0,0-1.069,3.769,4.68,4.68,0,0,0,1.157,3.588,3.808,3.808,0,0,0,2.633,1.052,3.413,3.413,0,0,0,2.371-.83,3.583,3.583,0,0,0,1.139-2.176h-3.183v-2.3h5.732v7.385h-1.9l-.29-1.718a6.555,6.555,0,0,1-1.494,1.375,5.27,5.27,0,0,1-2.8.7,5.82,5.82,0,0,1-4.481-1.894,7.22,7.22,0,0,1-1.821-5.206,7.639,7.639,0,0,1,1.839-5.355,6.271,6.271,0,0,1,4.864-2.015,6.353,6.353,0,0,1,4.215,1.33,4.945,4.945,0,0,1,1.825,3.319Z" transform="translate(-2910.558 -5434.14)" fill="#1d2238"/>
          <path id="Path_115135" data-name="Path 115135" d="M3000.795,5447.267h2.829v2.791h-2.829Z" transform="translate(-2912.9 -5435.877)" fill="#1d2238"/>
          <path id="Path_115136" data-name="Path 115136" d="M3006.922,5447.267h2.828v2.791h-2.828Z" transform="translate(-2913.715 -5435.877)" fill="#1d2238"/>
          <path id="Path_115137" data-name="Path 115137" d="M3013.049,5447.267h2.828v2.791h-2.828Z" transform="translate(-2914.53 -5435.877)" fill="#1d2238"/>
        </g>
        <g id="Group_108773" data-name="Group 108773" transform="translate(0 100.319)">
          <rect id="Rectangle_40387" data-name="Rectangle 40387" width="100.66" height="14.109" rx="7.055" transform="translate(61.664)" fill="#f1f2f5"/>
          <g id="Group_108772" data-name="Group 108772">
            <path id="Path_115138" data-name="Path 115138" d="M2949.419,5466.392l2.948,14.109h7.338l-2.948-14.109Z" transform="translate(-2902.396 -5466.392)" fill="#edb248"/>
            <path id="Path_115139" data-name="Path 115139" d="M2895.184,5473.462h0a7.054,7.054,0,0,0,7.054,7.055h1.729l-2.927-14.008A7.057,7.057,0,0,0,2895.184,5473.462Z" transform="translate(-2895.184 -5466.407)" fill="#edb248"/>
            <path id="Path_115140" data-name="Path 115140" d="M2963.411,5466.392l2.948,14.109h7.339l-2.948-14.109Z" transform="translate(-2904.256 -5466.392)" fill="#edb248"/>
            <path id="Path_115141" data-name="Path 115141" d="M2935.427,5466.392l2.948,14.109h7.339l-2.948-14.109Z" transform="translate(-2900.535 -5466.392)" fill="#edb248"/>
            <path id="Path_115142" data-name="Path 115142" d="M2907.442,5466.392l2.948,14.109h7.339l-2.948-14.109Z" transform="translate(-2896.814 -5466.392)" fill="#edb248"/>
            <path id="Path_115143" data-name="Path 115143" d="M3001.582,5466.392H2991.4l2.948,14.109h7.238a7.054,7.054,0,0,0,7.055-7.055h0A7.055,7.055,0,0,0,3001.582,5466.392Z" transform="translate(-2907.977 -5466.392)" fill="#edb248"/>
            <path id="Path_115144" data-name="Path 115144" d="M2921.434,5466.392l2.948,14.109h7.339l-2.948-14.109Z" transform="translate(-2898.675 -5466.392)" fill="#edb248"/>
            <path id="Path_115145" data-name="Path 115145" d="M2977.4,5466.392l2.948,14.109h7.339l-2.948-14.109Z" transform="translate(-2906.116 -5466.392)" fill="#edb248"/>
            <path id="Path_115146" data-name="Path 115146" d="M2903.136,5466.392a7.129,7.129,0,0,0-1.2.1l2.927,14.008h4.793l-2.948-14.109Z" transform="translate(-2896.083 -5466.392)" fill="#f0c36a"/>
            <path id="Path_115147" data-name="Path 115147" d="M2915.906,5466.392l2.948,14.109h4.793l-2.948-14.109Z" transform="translate(-2897.939 -5466.392)" fill="#f0c36a"/>
            <path id="Path_115148" data-name="Path 115148" d="M2929.9,5466.392l2.948,14.109h4.793l-2.948-14.109Z" transform="translate(-2899.8 -5466.392)" fill="#f0c36a"/>
            <path id="Path_115149" data-name="Path 115149" d="M2943.891,5466.392l2.948,14.109h4.793l-2.948-14.109Z" transform="translate(-2901.661 -5466.392)" fill="#f0c36a"/>
            <path id="Path_115150" data-name="Path 115150" d="M2957.883,5466.392l2.948,14.109h4.793l-2.948-14.109Z" transform="translate(-2903.521 -5466.392)" fill="#f0c36a"/>
            <path id="Path_115151" data-name="Path 115151" d="M2971.875,5466.392l2.948,14.109h4.793l-2.948-14.109Z" transform="translate(-2905.382 -5466.392)" fill="#f0c36a"/>
            <path id="Path_115152" data-name="Path 115152" d="M2985.868,5466.392l2.948,14.109h4.793l-2.948-14.109Z" transform="translate(-2907.242 -5466.392)" fill="#f0c36a"/>
          </g>
        </g>
        <g id="Group_108777" data-name="Group 108777" transform="translate(28.904)">
          <path id="Path_115153" data-name="Path 115153" d="M3144.173,5602.993s5.209-16.4-12.825-35.384a16.527,16.527,0,0,1-4.1-8.447l-.043-.235h-60.875l.651,3.636a31.086,31.086,0,0,1,.318,8.71l-3.316,31.72Z" transform="translate(-2946.533 -5378.377)" fill="#1d2238"/>
          <path id="Path_115154" data-name="Path 115154" d="M2942.748,5496.075l-2.627,15.529H2951.2l-2.627-15.529Z" transform="translate(-2930.063 -5370.02)" fill="#ad6359"/>
          <path id="Path_115155" data-name="Path 115155" d="M3043,5486.823l-24.565-13.664-8.659-8.435a5.163,5.163,0,0,0-4.591-1.371l-11.1,2.158a8.144,8.144,0,0,0-5.019,3.188l-.324,12.225,10.238,3.315a13.713,13.713,0,0,0,5.965,1.22l4.126-.162,23.033,20.249Z" transform="translate(-2936.529 -5365.656)" fill="#eb9481"/>
          <path id="Path_115156" data-name="Path 115156" d="M3031.332,5356.065c-3.181-1.6-10.567-.91-15.8,6.17-8.331,11.27-4.171,32.876.689,45.455a57.752,57.752,0,0,0,10.559,17.14,74.955,74.955,0,0,0,8.608,8.31c1.208,1,10.206,8.74,11.331,8.036l27.416-17.151-20.313-56.681Z" transform="translate(-2939.458 -5351.308)" fill="#1d2238"/>
          <path id="Path_115157" data-name="Path 115157" d="M3083.173,5426.576l-14.116-47.377-.2.058a25.34,25.34,0,0,0-27.891-20.213h0c-11.869,1.435-19.784,9.2-21.683,21.511a34.952,34.952,0,0,0-.094,9.518l.745,6.159a25.343,25.343,0,0,0,28.2,22.119h0a25.549,25.549,0,0,0,3.251-.616l6.386,27.175Z" transform="translate(-2940.54 -5351.774)" fill="#eb9481"/>
          <path id="Path_115158" data-name="Path 115158" d="M3028.442,5386.782c.083.338.147.675.2,1.012s.107.671.147,1.007q.122,1.007.174,2.007c.041.668.053,1.335.059,2l-.009,1-.032,1-.037,1.129-1.172-.07c-.422-.026-.846-.043-1.267-.076l-.316-.024-.079-.006c-.026,0-.03,0-.045,0l-.075,0a1.809,1.809,0,0,0-.3.04,1.253,1.253,0,0,0-.535.317,1.754,1.754,0,0,0-.2.265,1.514,1.514,0,0,0-.123.323,1.405,1.405,0,0,0,.033.742,1.828,1.828,0,0,0,.182.372,1.654,1.654,0,0,0,.7.58,2.341,2.341,0,0,0,.258.089c.1.03.208.058.313.089l.622.193c.207.073.415.14.622.222l.018.008a.062.062,0,0,1-.026.12l-1.268-.067c-.212-.012-.42-.018-.642-.046a2.358,2.358,0,0,1-.628-.2,2.245,2.245,0,0,1-.955-.9,2.418,2.418,0,0,1-.244-.616,2.26,2.26,0,0,1,.082-1.311,2.407,2.407,0,0,1,.32-.582,2.475,2.475,0,0,1,.476-.467,2.271,2.271,0,0,1,1.248-.435c.228,0,.434.015.646.027l1.266.089-.13.114.283-3.973.145-1.986.16-1.985a.062.062,0,0,1,.123-.01Z" transform="translate(-2941.185 -5355.479)" fill="#1d2238"/>
          <path id="Path_115159" data-name="Path 115159" d="M3038.82,5380.033c-.044.673-1.611,1.119-3.5,1s-3.385-.768-3.341-1.442,1.61-1.119,3.5-1S3038.863,5379.359,3038.82,5380.033Z" transform="translate(-2942.278 -5354.396)" fill="#1d2238"/>
          <ellipse id="Ellipse_4731" data-name="Ellipse 4731" cx="3.428" cy="1.222" rx="3.428" ry="1.222" transform="translate(77.019 26.711) rotate(-16.351)" fill="#1d2238"/>
          <circle id="Ellipse_4732" data-name="Ellipse 4732" cx="1.963" cy="1.963" r="1.963" transform="translate(92.271 28.397)" fill="#1d2238"/>
          <path id="Path_115160" data-name="Path 115160" d="M3023.325,5387.1a2.124,2.124,0,1,1-2.364-1.854A2.125,2.125,0,0,1,3023.325,5387.1Z" transform="translate(-2940.564 -5355.281)" fill="#1d2238"/>
          <path id="Path_115161" data-name="Path 115161" d="M3056.524,5442.2s-22.271,18.978-18.5,40.356c1.979,11.235,15.626,28.288,15.626,28.288l5.692,28.583a14.228,14.228,0,0,0,4.508,7.839c2.754,2.433,6.159,3.122,9.587,4.145,8.218,2.452,16.59,4.763,25.191,5.261s16.652-1.348,24.593-4.554c1.075-.435,6.759-2.314,6.228-4.2l-13.763-48.82s4.839-55.833-28.437-63.02Z" transform="translate(-2943.024 -5362.042)" fill="#f0c36a"/>
          <path id="Path_115162" data-name="Path 115162" d="M3090.739,5435.2l-3.593-7.137-29.394,7.137v8.442Z" transform="translate(-2945.705 -5360.976)" fill="#f0c36a"/>
          <path id="Path_115163" data-name="Path 115163" d="M3111.892,5435.613c-.765-5.7-4.674-11.027-7.322-16-6.1-11.455-12.115-22.956-18.522-34.243-5.684-10.013-11.771-20.877-21.157-28.043-6.475-4.943-15.906-7.936-24-6.082-5.222,1.2-11.031,5.5-10.748,11.44-.019-.407,7.3,1.729,12.168,3.31h0c-.1.026.009.038.263.086l.025.008a12.224,12.224,0,0,1,7.105,6.027c1.677,3.287,2.944,8.377,2.831,16.273-.265,18.6,1.546,25.38,1.546,25.38s1.637-15.848,2.508-27.275c.081,1.189.128,2.4.157,3.626.279,12.075.695,24.746,5.243,36.1,6.213,15.517,22.571,22.848,38.7,20.775C3106.765,5446.217,3112.824,5442.561,3111.892,5435.613Z" transform="translate(-2942.032 -5350.688)" fill="#1d2238"/>
          <g id="Group_108774" data-name="Group 108774" transform="translate(86.909 45.465)">
            <path id="Path_115164" data-name="Path 115164" d="M3029.043,5410.286s-2.256-6.564,5.928-7.161C3034.971,5403.125,3030.537,5405.987,3029.043,5410.286Z" transform="translate(-3028.759 -5403.125)" fill="#fff"/>
            <path id="Path_115165" data-name="Path 115165" d="M3029.087,5410.678a8.843,8.843,0,0,1,.86-2.506,11.09,11.09,0,0,1,1.486-2.219,9.639,9.639,0,0,1,2.009-1.772,7.454,7.454,0,0,1,2.438-1.057,18.8,18.8,0,0,0-2.084,1.531,16.673,16.673,0,0,0-1.795,1.79,21.9,21.9,0,0,0-1.546,2.025C3029.975,5409.179,3029.522,5409.912,3029.087,5410.678Z" transform="translate(-3028.802 -5403.125)" fill="#1d2238"/>
          </g>
          <path id="Path_115166" data-name="Path 115166" d="M3056.368,5426.456l4.112-2.007-3.728,3.639Z" transform="translate(-2945.52 -5360.496)" fill="#1d2238"/>
          <path id="Path_115167" data-name="Path 115167" d="M2944.276,5514h-15.755l7.626,34.954h16.258l7.626-34.954Z" transform="translate(-2928.521 -5372.403)" fill="#1d2238"/>
          <path id="Path_115168" data-name="Path 115168" d="M2961.878,5536.553c.067-.006.135-.012.2-.015a7.994,7.994,0,0,1,2.982.594c2.676.907,5.39,1.713,8.086,2.556l8.968,2.8,10.024,3.135,10.09,3.157,9.169,2.867,7.258,2.271,4.357,1.363c.271.084.539.182.813.253a20.176,20.176,0,0,0,24.637-14.334l14.658-55.224s2.707-13.441-11.434-22.63a4.461,4.461,0,0,0-.559-.266,18.088,18.088,0,0,0-25.549,13.894l-6.576,46.8-14.918-1.98c-7.49-.994-15.2-1.974-22.777-2.923-3.661-.458-7.321-.93-10.986-1.357a16.3,16.3,0,0,1-6.451-1.934c-2.266-1.338-3.025-3.356-4.614-5.181-1.208,1.235-2.378,2.52-3.564,3.781a11.516,11.516,0,0,1-7.433,3.6c-4.979.412-7.88.178-17.948-3,0,0-1.283,1.468-.607,4.444a6.34,6.34,0,0,0,4.321,4.63l10.381,3.224-12.575-2.607a7.208,7.208,0,0,0-.288,2.115,5.676,5.676,0,0,0,4.521,5.475l7.865,1.678-9.738-1.349a7.48,7.48,0,0,0,1.234,5.654c.385.5,1.516.718,2.06.883a43.523,43.523,0,0,0,8.416,1.393,21.041,21.041,0,0,0,6.3-.178,31.94,31.94,0,0,0,7.061-2.8A7.936,7.936,0,0,1,2961.878,5536.553Z" transform="translate(-2928.652 -5365.406)" fill="#eb9481"/>
          <path id="Path_115169" data-name="Path 115169" d="M3032.643,5533.352a31.337,31.337,0,0,0,.751,3.79,26.721,26.721,0,0,0,1.192,3.533c.057.145.116.288.181.428s.123.285.19.424c.13.282.262.564.4.84s.29.552.428.833c.073.139.153.272.229.411s.147.278.23.412c.627,1.1,1.332,2.163,2.043,3.308a11.18,11.18,0,0,1-3.1-2.555,12.455,12.455,0,0,1-1.2-1.646c-.183-.287-.339-.59-.5-.89-.079-.15-.146-.308-.22-.462s-.144-.31-.208-.468a12.625,12.625,0,0,1-.945-3.963,11.262,11.262,0,0,1,.043-2.031A7.277,7.277,0,0,1,3032.643,5533.352Z" transform="translate(-2942.292 -5374.976)" fill="#1d2238"/>
          <g id="Group_108776" data-name="Group 108776" transform="translate(7.243 99.056)">
            <rect id="Rectangle_40388" data-name="Rectangle 40388" width="8.187" height="6.763" transform="translate(15.37 4.922)" fill="#d2d6e1"/>
            <path id="Path_115170" data-name="Path 115170" d="M2999.2,5479.774l-37.288-2.782v-6.763l37.288-2.494Z" transform="translate(-2940.204 -5465.308)" fill="#1d2238"/>
            <g id="Group_108775" data-name="Group 108775">
              <path id="Path_115171" data-name="Path 115171" d="M2953.77,5473.382a8.448,8.448,0,1,0-13.284,6.925v11.627h9.426v-11.461A8.437,8.437,0,0,0,2953.77,5473.382Z" transform="translate(-2936.875 -5464.936)" fill="#1d2238"/>
              <circle id="Ellipse_4733" data-name="Ellipse 4733" cx="4.142" cy="4.142" r="4.142" transform="translate(3.695 11.872) rotate(-80.783)" fill="#d2d6e1"/>
            </g>
          </g>
          <path id="Path_115172" data-name="Path 115172" d="M3124.847,5508.764s-1.889,21.6-18.341,26.2c0,0,13.68.45,20.857-17.279Z" transform="translate(-2952.187 -5371.708)" fill="#edb248"/>
          <path id="Path_115173" data-name="Path 115173" d="M3000.609,5480.186l-1.517-4.153a3.155,3.155,0,0,0-4.045-1.881h0a3.1,3.1,0,0,1-4.4-.816,3.153,3.153,0,0,0-3.636-1.115h0a3.154,3.154,0,0,0-1.881,4.045l1.516,4.153a28.64,28.64,0,0,0,7.644,3.007h0a3.143,3.143,0,0,1,4.44.805h0A3.157,3.157,0,0,0,3000.609,5480.186Z" transform="translate(-2936.022 -5366.822)" fill="#eb9481"/>
          <path id="Path_115174" data-name="Path 115174" d="M3004.9,5466l-9.748,4.278a3.057,3.057,0,0,0-1.66,3.8h0a3.057,3.057,0,0,0,3.126,2.045c3.121-.247,8.54-.838,11.271-2.11C3011.869,5472.17,3004.9,5466,3004.9,5466Z" transform="translate(-2937.138 -5366.021)" fill="#eb9481"/>
          <path id="Path_115175" data-name="Path 115175" d="M2993.385,5474.8a3.429,3.429,0,0,0,.861,1.44,2.91,2.91,0,0,0,1.427.771,3.691,3.691,0,0,0,.813.083c.135,0,.278-.007.42-.013s.283-.011.424-.023c.566-.035,1.131-.1,1.7-.17s1.129-.153,1.691-.247,1.125-.186,1.685-.292l.843-.167.851-.139,1.7-.277.341-.056-.006.345a8.075,8.075,0,0,0,.066,1.11,9.471,9.471,0,0,0,.205,1.108,7.463,7.463,0,0,0,.83,2.08,5.532,5.532,0,0,0,1.5,1.662,5.761,5.761,0,0,0,.985.571,6.917,6.917,0,0,0,1.088.381,5.412,5.412,0,0,1-3.907-2.4,7.658,7.658,0,0,1-.985-2.165,9.863,9.863,0,0,1-.25-1.163,8.7,8.7,0,0,1-.1-1.2l.334.29-1.691.294-.845.148-.846.158q-.851.154-1.708.278c-.571.077-1.144.146-1.72.2s-1.153.088-1.733.1c-.145.005-.29,0-.435,0s-.289,0-.44-.011a4.063,4.063,0,0,1-.887-.154,3.056,3.056,0,0,1-1.486-.966A3.283,3.283,0,0,1,2993.385,5474.8Z" transform="translate(-2937.146 -5367.191)" fill="#1d2238"/>
          <path id="Path_115176" data-name="Path 115176" d="M2991.347,5473.536a1.472,1.472,0,0,0-.682.874,2.774,2.774,0,0,0-.091,1.106c.037.381.087.77.14,1.154l.157,1.161.151,1.164c.044.388.1.777.136,1.167.086.78.16,1.561.194,2.35-.22-.759-.391-1.526-.542-2.3-.08-.385-.141-.772-.211-1.159s-.119-.776-.175-1.165a20.723,20.723,0,0,1-.2-2.361,2.7,2.7,0,0,1,.238-1.2A1.426,1.426,0,0,1,2991.347,5473.536Z" transform="translate(-2936.725 -5367.022)" fill="#1d2238"/>
          <path id="Path_115177" data-name="Path 115177" d="M2996.4,5483.733a14.864,14.864,0,0,1-.473-1.576c-.136-.529-.25-1.062-.351-1.6s-.187-1.074-.253-1.617a.827.827,0,1,1,.346-.064c.136.53.25,1.063.35,1.6s.187,1.074.252,1.616A15.042,15.042,0,0,1,2996.4,5483.733Z" transform="translate(-2937.386 -5367.524)" fill="#1d2238"/>
          <path id="Path_115178" data-name="Path 115178" d="M3037.254,5482.8a18.211,18.211,0,0,0,.06,1.971c.052.654.126,1.3.232,1.948s.223,1.285.383,1.916c.068.319.158.63.24.946s.186.622.278.933l.021.07-.01.083c-.211,1.812-.433,3.623-.683,5.429s-.5,3.613-.78,5.416l-.43,2.7c-.154.9-.3,1.8-.462,2.7-.32,1.8-.658,3.591-1.049,5.378.116-1.825.285-3.643.472-5.458.092-.909.2-1.814.3-2.721l.332-2.716c.229-1.811.473-3.617.742-5.421s.544-3.607.839-5.408l.011.153c-.077-.326-.163-.648-.233-.976s-.14-.653-.191-.983c-.114-.659-.183-1.323-.239-1.986s-.057-1.331-.036-1.994A13,13,0,0,1,3037.254,5482.8Z" transform="translate(-2942.686 -5368.254)" fill="#1d2238"/>
          <path id="Path_115179" data-name="Path 115179" d="M3124.847,5508.764a17.931,17.931,0,0,1,.207,2.194c.035.736.027,1.474,0,2.213a29.048,29.048,0,0,1-.531,4.408,26.766,26.766,0,0,1-1.237,4.3c-.264.7-.573,1.386-.9,2.063s-.7,1.332-1.1,1.974-.841,1.256-1.307,1.851a19.728,19.728,0,0,1-1.507,1.7c-.264.271-.545.524-.823.782s-.571.5-.871.726-.6.455-.907.676-.625.422-.95.612a19.038,19.038,0,0,1-4.076,1.856,19.277,19.277,0,0,1-2.153.549c-.361.078-.727.128-1.089.187-.181.029-.365.044-.548.064s-.365.039-.547.056c.694-.243,1.383-.474,2.056-.746l.5-.2.5-.215c.333-.136.654-.3.981-.447a23.6,23.6,0,0,0,3.656-2.184,22,22,0,0,0,5.684-6.138,30.57,30.57,0,0,0,3.38-7.764c.4-1.373.722-2.774.987-4.192S3124.719,5510.223,3124.847,5508.764Z" transform="translate(-2952.187 -5371.708)" fill="#1d2238"/>
        </g>
      </g>
    </g>
  </g>
</svg>
