<svg id="Group_109058" data-name="Group 109058" xmlns="http://www.w3.org/2000/svg" width="169.101" height="169.101" viewBox="0 0 169.101 169.101">
  <g id="Elipse_4774" data-name="Elipse 4774">
    <circle id="Ellipse_4775" data-name="Ellipse 4775" cx="84.551" cy="84.551" r="84.551" fill="#0f2771"/>
    <circle id="Ellipse_4776" data-name="Ellipse 4776" cx="83.89" cy="83.89" r="83.89" transform="translate(0.66 0.661)" fill="#0f2771"/>
  </g>
  <path id="Path_115509" data-name="Path 115509" d="M2369.656,3375.026a5.087,5.087,0,0,1-2.107.547,4.162,4.162,0,0,1,4.2,4.349v2.175a4.163,4.163,0,0,1-4.2,4.349h-17.542V3382.1h15.258c.024,0,.05,0,.075,0a2.175,2.175,0,0,0,2.061-2.062c0-.024,0-.05,0-.073,0-.039,0-.077,0-.114a2.173,2.173,0,0,0-2.1-2.1c-.037,0-.073,0-.113,0h-10.836V3373.4H2365.2c.037,0,.076,0,.113,0a2.172,2.172,0,0,0,2.085-2.085l0-.113c0-.031,0-.059,0-.089a2.177,2.177,0,0,0-1.015-1.738c-.029-.017-.056-.034-.084-.05-.068-.039-.137-.071-.208-.1a2.164,2.164,0,0,0-.653-.167,1.8,1.8,0,0,0-.2-.011l-11.03-.062,0,.073h-4.205V3364.7h17.542a4.163,4.163,0,0,1,4.2,4.349v2.174A3.929,3.929,0,0,1,2369.656,3375.026Z" transform="translate(-2264.479 -3325.889)" fill="#e0f3ff"/>
  <path id="Path_115510" data-name="Path 115510" d="M2347.157,3446.652a5.089,5.089,0,0,1-2.108.547,4.163,4.163,0,0,1,4.2,4.349v2.174a4.165,4.165,0,0,1-4.2,4.35h-17.541v-4.35h15.332a2.176,2.176,0,0,0,2.062-2.062c0-.024,0-.05,0-.073,0-.04,0-.077,0-.114a2.172,2.172,0,0,0-2.1-2.1c-.038,0-.075,0-.114,0h-10.835v-4.349H2342.7c.038,0,.077,0,.114,0a2.175,2.175,0,0,0,2.086-2.086l0-.113c0-.031,0-.059,0-.089a2.182,2.182,0,0,0-1.015-1.739c-.029-.017-.057-.034-.085-.05-.068-.039-.136-.071-.208-.1a2.177,2.177,0,0,0-.653-.167,1.8,1.8,0,0,0-.2-.011l-11.03-.062,0,.072h-4.206v-4.35h17.541a4.165,4.165,0,0,1,4.2,4.35v2.174A3.931,3.931,0,0,1,2347.157,3446.652Z" transform="translate(-2268.639 -3312.644)" fill="#e0f3ff"/>
  <path id="Path_115511" data-name="Path 115511" d="M2345.105,3368.489a3.787,3.787,0,0,0-3.787-3.787h-14.171a3.787,3.787,0,0,0-3.787,3.787v4.911h4.349v-2.174a2.175,2.175,0,0,1,2.176-2.174h8.969a1.9,1.9,0,0,1,1.9,1.9v1.366a2.186,2.186,0,0,1-1.236,1.969l-16.16,7.809v4.349h21.745V3382.1h-11.746l9.646-4.8a3.786,3.786,0,0,0,2.1-3.39Z" transform="translate(-2269.406 -3325.889)" fill="#e0f3ff"/>
  <path id="Path_115512" data-name="Path 115512" d="M2394.049,3364.7v13.018h-12.174c2.25-3.378,6.334-9.511,8.671-13.018h-5.222l-8.671,13.018v4.339h17.4v4.339s4.349.109,4.349,0v-21.7Z" transform="translate(-2259.551 -3325.889)" fill="#e0f3ff"/>
  <path id="Path_115513" data-name="Path 115513" d="M2322.608,3392.969v-4.349h-21.745v13.047h15.257a2.138,2.138,0,0,1,2.139,2.137v.091a2.121,2.121,0,0,1-2.121,2.12h-15.275v4.349h17.831a3.914,3.914,0,0,0,3.914-3.914V3401.4a4.077,4.077,0,0,0-4.076-4.078h-13.32v-4.349Z" transform="translate(-2273.567 -3321.466)" fill="#e0f3ff"/>
  <path id="Path_115514" data-name="Path 115514" d="M2349.254,3392.957v-4.323a.014.014,0,0,0-.014-.013h-17.817a3.914,3.914,0,0,0-3.914,3.914v13.753a4.076,4.076,0,0,0,4.076,4.077h13.591a4.077,4.077,0,0,0,4.077-4.077v-4.878a4.092,4.092,0,0,0-4.092-4.092h-13.292a.013.013,0,0,1-.013-.013v-2.161a2.174,2.174,0,0,1,2.174-2.174h15.208A.014.014,0,0,0,2349.254,3392.957Zm-4.349,10.886h0a2.175,2.175,0,0,1-2.176,2.174h-8.684a2.188,2.188,0,0,1-2.187-2.188h0a2.16,2.16,0,0,1,2.16-2.16h8.712A2.174,2.174,0,0,1,2344.9,3403.843Z" transform="translate(-2268.639 -3321.466)" fill="#e0f3ff"/>
  <path id="Path_115515" data-name="Path 115515" d="M2300.863,3430.143v4.321a.013.013,0,0,0,.013.013h17.818a3.913,3.913,0,0,0,3.914-3.914V3416.81a4.078,4.078,0,0,0-4.078-4.078h-13.591a4.077,4.077,0,0,0-4.076,4.078v4.879a4.09,4.09,0,0,0,4.09,4.09h13.292a.013.013,0,0,1,.013.013v2.162a2.174,2.174,0,0,1-2.174,2.174h-15.208A.013.013,0,0,0,2300.863,3430.143Zm4.349-10.886h0a2.175,2.175,0,0,1,2.174-2.176h8.685a2.187,2.187,0,0,1,2.187,2.188h0a2.161,2.161,0,0,1-2.16,2.161h-8.712A2.174,2.174,0,0,1,2305.211,3419.257Z" transform="translate(-2273.567 -3317.007)" fill="#e0f3ff"/>
  <path id="Path_115516" data-name="Path 115516" d="M2375.9,3388.621h-21.745v4.349h16.05l-5.9,6.985a6.138,6.138,0,0,0-1.448,3.955c0,2.576,0,6.456,0,6.456h4.349V3405.5a6.128,6.128,0,0,1,1.449-3.959l7.25-8.575Z" transform="translate(-2263.712 -3321.466)" fill="#e0f3ff"/>
  <path id="Path_115517" data-name="Path 115517" d="M2398.523,3388.621h-13.7a4.022,4.022,0,0,0-4.023,4.023v2.5a3.928,3.928,0,0,0,2.1,3.8,5.081,5.081,0,0,0,2.107.549,4.162,4.162,0,0,0-4.2,4.349v2.537a3.986,3.986,0,0,0,3.985,3.986h13.763a4,4,0,0,0,4-4v-2.526a4.163,4.163,0,0,0-4.2-4.349,5.089,5.089,0,0,0,2.107-.549,3.93,3.93,0,0,0,2.1-3.8v-2.5A4.022,4.022,0,0,0,2398.523,3388.621Zm-.329,15.332a2.137,2.137,0,0,1-2.062,2.062c-.024,0-.05,0-.074,0h-8.772a2.138,2.138,0,0,1-2.138-2.138v-.054a2.156,2.156,0,0,1,2.157-2.156h8.792a2.214,2.214,0,0,1,2.1,2.1c0,.037,0,.073,0,.112C2398.2,3403.9,2398.2,3403.929,2398.194,3403.953Zm0-8.721a2.2,2.2,0,0,1-2.085,2.085H2387.3a2.146,2.146,0,0,1-2.146-2.146v-.073a2.128,2.128,0,0,1,2.128-2.129h8.771a2.218,2.218,0,0,1,.837.167c.072.033.141.066.208.105a.619.619,0,0,1,.085.05,2.145,2.145,0,0,1,1.015,1.737c0,.031,0,.059,0,.089Z" transform="translate(-2258.784 -3321.466)" fill="#feca2e"/>
  <path id="Path_115518" data-name="Path 115518" d="M2369.656,3422.732a5.079,5.079,0,0,1-2.107.548,4.162,4.162,0,0,1,4.2,4.349v2.175a4.163,4.163,0,0,1-4.2,4.349h-17.542V3429.8h15.258a.647.647,0,0,0,.075,0,2.174,2.174,0,0,0,2.061-2.061c0-.025,0-.051,0-.075,0-.039,0-.076,0-.112a2.173,2.173,0,0,0-2.1-2.1c-.037,0-.073,0-.113,0h-10.836v-4.349H2365.2c.037,0,.076,0,.113,0a2.173,2.173,0,0,0,2.085-2.085l0-.114c0-.03,0-.058,0-.089a2.174,2.174,0,0,0-1.015-1.737c-.029-.018-.056-.035-.084-.05a2.245,2.245,0,0,0-.208-.1,2.166,2.166,0,0,0-.653-.168c-.065-.006-.133-.01-.2-.01l-11.03-.061,0,.071h-4.205v-4.349h17.542a4.164,4.164,0,0,1,4.2,4.349v2.176A3.926,3.926,0,0,1,2369.656,3422.732Z" transform="translate(-2264.479 -3317.067)" fill="#e0f3ff"/>
  <path id="Path_115519" data-name="Path 115519" d="M2394.049,3412.408v13.018h-12.174l8.671-13.018h-5.222l-8.671,13.018v4.339h17.4v4.339s4.349.11,4.349,0v-21.7Z" transform="translate(-2259.551 -3317.067)" fill="#e0f3ff"/>
  <path id="Path_115520" data-name="Path 115520" d="M2367.729,3436.327h-13.7a4.023,4.023,0,0,0-4.023,4.023v2.5a3.932,3.932,0,0,0,2.1,3.8,5.092,5.092,0,0,0,2.107.547,4.163,4.163,0,0,0-4.2,4.349v2.538a3.987,3.987,0,0,0,3.986,3.986h13.762a4,4,0,0,0,4-4v-2.527a4.162,4.162,0,0,0-4.2-4.349,5.083,5.083,0,0,0,2.107-.547,3.929,3.929,0,0,0,2.1-3.8v-2.5A4.022,4.022,0,0,0,2367.729,3436.327Zm-.328,15.333a2.135,2.135,0,0,1-2.061,2.062h-8.847a2.137,2.137,0,0,1-2.137-2.136v-.055a2.157,2.157,0,0,1,2.158-2.158h8.678c.039,0,.076,0,.113,0a2.213,2.213,0,0,1,2.1,2.1c0,.037,0,.073,0,.114C2367.4,3451.61,2367.4,3451.636,2367.4,3451.66Zm0-8.722a2.2,2.2,0,0,1-2.085,2.086c-.037,0-.076,0-.113,0h-8.7a2.147,2.147,0,0,1-2.147-2.146v-.074a2.128,2.128,0,0,1,2.129-2.128h8.77a2.2,2.2,0,0,1,.838.167c.071.033.141.065.208.1.028.015.055.031.084.05a2.144,2.144,0,0,1,1.015,1.739c0,.03,0,.058,0,.089Z" transform="translate(-2264.479 -3312.644)" fill="#feca2e"/>
  <path id="Path_115521" data-name="Path 115521" d="M2327.509,3416.7v13.808a3.968,3.968,0,0,0,3.968,3.968h13.808a3.969,3.969,0,0,0,3.969-3.968V3416.7a3.969,3.969,0,0,0-3.969-3.969h-13.808A3.969,3.969,0,0,0,2327.509,3416.7Zm15.3,13.428h-8.861a2.093,2.093,0,0,1-2.093-2.093v-8.861a2.093,2.093,0,0,1,2.093-2.094h8.861a2.093,2.093,0,0,1,2.094,2.094v8.861A2.093,2.093,0,0,1,2342.811,3430.129Z" transform="translate(-2268.639 -3317.007)" fill="#e0f3ff"/>
  <path id="Path_115522" data-name="Path 115522" d="M2302.22,3364.7v4.349h4.349v17.4h4.349V3364.7Z" transform="translate(-2273.316 -3325.89)" fill="#feca2e"/>
</svg>
