<svg xmlns="http://www.w3.org/2000/svg" xmlns:xlink="http://www.w3.org/1999/xlink" width="318.877" height="302.512" viewBox="0 0 318.877 302.512">
  <defs>
    <linearGradient id="linear-gradient" y1="0.5" x2="1" y2="0.5" gradientUnits="objectBoundingBox">
      <stop offset="0" stop-color="#09005d"/>
      <stop offset="1" stop-color="#1a0f91"/>
    </linearGradient>
    <linearGradient id="linear-gradient-4" y1="0.5" x2="1" y2="0.5" gradientUnits="objectBoundingBox">
      <stop offset="0" stop-color="#4f52ff"/>
      <stop offset="1" stop-color="#4042e2"/>
    </linearGradient>
    <clipPath id="clip-path">
      <path id="Trazado_190959" data-name="Trazado 190959" d="M7234.468,4695.023q8.656-3.052,17.044-6.809c.63,1.7,1.562,4.545,1.181,5.135-.635.982-2.293,2.454-6.9,3.78s-17.987,5.12-19.392,5.531a78.269,78.269,0,0,1-14.029,2.777c-5.739.422-10.506.369-10.854-.051a7.876,7.876,0,0,1-.412-4.8,2.291,2.291,0,0,1,.135-.457,19.375,19.375,0,0,0,6.578.72C7216.944,4700.585,7225.856,4698.058,7234.468,4695.023Z" transform="translate(-7200.939 -4688.214)" fill="none"/>
    </clipPath>
    <clipPath id="clip-path-2">
      <path id="Trazado_190975" data-name="Trazado 190975" d="M7193.416,4683.161q8.183,4.16,16.69,7.635c-.8,1.63-2.212,4.267-2.9,4.4-1.149.219-3.357.035-7.5-2.386s-16.117-9.483-17.385-10.216a78.2,78.2,0,0,1-11.692-8.237c-4.268-3.861-7.517-7.348-7.454-7.888a7.876,7.876,0,0,1,3.188-3.609,2.187,2.187,0,0,1,.424-.218,19.374,19.374,0,0,0,4.019,5.258C7177.3,4674.318,7185.277,4679.024,7193.416,4683.161Z" transform="translate(-7163.173 -4662.641)" fill="none"/>
    </clipPath>
  </defs>
  <g id="Grupo_130146" data-name="Grupo 130146" transform="translate(-7086.913 -4437.074)">
    <g id="Grupo_130107" data-name="Grupo 130107" transform="translate(7086.913 4437.074)">
      <g id="Grupo_130093" data-name="Grupo 130093">
        <rect id="Rectángulo_41248" data-name="Rectángulo 41248" width="318.877" height="206.042" rx="22.893" fill="#414141"/>
        <rect id="Rectángulo_41249" data-name="Rectángulo 41249" width="300.419" height="194.116" rx="22.893" transform="translate(9.229 5.963)" fill="#727272"/>
        <rect id="Rectángulo_41250" data-name="Rectángulo 41250" width="32.89" height="57.833" transform="translate(141.122 201.309)" fill="#414141"/>
        <path id="Trazado_190880" data-name="Trazado 190880" d="M7299.183,4683.434h-131.25a20.1,20.1,0,0,1,20.1-20.1h91.055a20.1,20.1,0,0,1,20.1,20.1Z" transform="translate(-7075.991 -4406.571)" fill="#414141"/>
        <g id="Grupo_130092" data-name="Grupo 130092" transform="translate(91.943 271.149)" opacity="0.5" style="mix-blend-mode: multiply;isolation: isolate">
          <path id="Trazado_190881" data-name="Trazado 190881" d="M7168.763,4676.011a20.072,20.072,0,0,0-.83,5.714h131.25a20.072,20.072,0,0,0-.83-5.714Z" transform="translate(-7167.933 -4676.011)" fill="#414141"/>
        </g>
        <rect id="Rectángulo_41251" data-name="Rectángulo 41251" width="32.89" height="8.854" transform="translate(141.122 206.042)" fill="#414141" opacity="0.5" style="mix-blend-mode: multiply;isolation: isolate"/>
        <rect id="Rectángulo_41252" data-name="Rectángulo 41252" width="32.89" height="8.854" transform="translate(141.122 247.857)" fill="#414141" opacity="0.5" style="mix-blend-mode: multiply;isolation: isolate"/>
      </g>
      <g id="Grupo_130106" data-name="Grupo 130106" transform="translate(19.712 16.096)">
        <rect id="Rectángulo_41253" data-name="Rectángulo 41253" width="278.759" height="173.851" transform="translate(0.347)" fill="#f9fdf8"/>
        <g id="Grupo_130105" data-name="Grupo 130105">
          <rect id="Rectángulo_41254" data-name="Rectángulo 41254" width="47.248" height="41.631" rx="7.887" transform="translate(155.826 25.993)" fill="#d6dcfe"/>
          <g id="Grupo_130094" data-name="Grupo 130094" transform="translate(155.826 40.604)" opacity="0.5" style="mix-blend-mode: multiply;isolation: isolate">
            <path id="Trazado_190882" data-name="Trazado 190882" d="M7285.613,4504.939c-1.616-1.924-3.291-3.792-4.993-5.622-1.847-1.984-4.039-4.069-6.635-3.938-2.288.114-4.171,1.938-5.724,3.769-.937,1.107-1.824,2.263-2.685,3.439q3.237,5.077,6.163,10.348h8.819a5.054,5.054,0,0,0,5.054-5.054Z" transform="translate(-7238.365 -4485.915)" fill="#d6dcfe"/>
            <path id="Trazado_190883" data-name="Trazado 190883" d="M7259.6,4490.479c-1.673-2.207-3.773-4.617-7.355-2.8a7.687,7.687,0,0,0-2.053,1.563,77.922,77.922,0,0,0-8.6,10.8v8.993a5.028,5.028,0,0,0,5.027,5.027h15.627a108.811,108.811,0,0,1,6.558-10.347Q7264.474,4496.915,7259.6,4490.479Z" transform="translate(-7241.598 -4487.039)" fill="#d6dcfe"/>
            <path id="Trazado_190884" data-name="Trazado 190884" d="M7259.8,4512.077h12.721q-2.925-5.265-6.163-10.347A108.811,108.811,0,0,0,7259.8,4512.077Z" transform="translate(-7239.144 -4485.058)" fill="#d6dcfe"/>
          </g>
          <path id="Trazado_190885" data-name="Trazado 190885" d="M7274.446,4485.2a5.071,5.071,0,1,1-5.07-5.071A5.07,5.07,0,0,1,7274.446,4485.2Z" transform="translate(-7082.711 -4447.366)" fill="#f9fdf8"/>
          <g id="Grupo_130095" data-name="Grupo 130095" transform="translate(77.087 26.849)">
            <path id="Trazado_190886" data-name="Trazado 190886" d="M7236.18,4480.995h-60.928a3.039,3.039,0,0,1-3.039-3.039h0a3.039,3.039,0,0,1,3.039-3.039h60.928a3.039,3.039,0,0,1,3.039,3.039h0A3.039,3.039,0,0,1,7236.18,4480.995Z" transform="translate(-7172.213 -4474.917)" fill="#d6dcfe"/>
            <path id="Trazado_190887" data-name="Trazado 190887" d="M7236.18,4489.566h-60.928a3.039,3.039,0,0,1-3.039-3.04h0a3.04,3.04,0,0,1,3.039-3.04h60.928a3.039,3.039,0,0,1,3.039,3.04h0A3.039,3.039,0,0,1,7236.18,4489.566Z" transform="translate(-7172.213 -4473.762)" fill="#d6dcfe"/>
            <rect id="Rectángulo_41255" data-name="Rectángulo 41255" width="67.007" height="6.079" rx="2.678" transform="translate(0 19.372)" fill="#d6dcfe"/>
            <path id="Trazado_190888" data-name="Trazado 190888" d="M7236.18,4506.707h-60.928a3.039,3.039,0,0,1-3.039-3.039h0a3.04,3.04,0,0,1,3.039-3.04h60.928a3.039,3.039,0,0,1,3.039,3.04h0A3.039,3.039,0,0,1,7236.18,4506.707Z" transform="translate(-7172.213 -4471.45)" fill="#d6dcfe"/>
          </g>
          <g id="Grupo_130096" data-name="Grupo 130096" transform="translate(103.933 78.94)">
            <path id="Trazado_190889" data-name="Trazado 190889" d="M7354.5,4526.9H7198.91a3.039,3.039,0,0,1-3.04-3.039h0a3.04,3.04,0,0,1,3.04-3.04H7354.5a3.04,3.04,0,0,1,3.039,3.04h0A3.039,3.039,0,0,1,7354.5,4526.9Z" transform="translate(-7195.87 -4520.82)" fill="#d6dcfe"/>
            <rect id="Rectángulo_41256" data-name="Rectángulo 41256" width="161.667" height="6.079" rx="2.678" transform="translate(0.001 9.726)" fill="#d6dcfe"/>
            <rect id="Rectángulo_41257" data-name="Rectángulo 41257" width="161.667" height="6.079" rx="2.678" transform="translate(0.001 19.372)" fill="#d6dcfe"/>
            <path id="Trazado_190890" data-name="Trazado 190890" d="M7354.5,4552.61H7198.91a3.04,3.04,0,0,1-3.04-3.039h0a3.04,3.04,0,0,1,3.04-3.039H7354.5a3.039,3.039,0,0,1,3.039,3.039h0A3.04,3.04,0,0,1,7354.5,4552.61Z" transform="translate(-7195.87 -4517.354)" fill="#d6dcfe"/>
          </g>
          <g id="Grupo_130097" data-name="Grupo 130097" transform="translate(21.4 127.72)">
            <path id="Trazado_190891" data-name="Trazado 190891" d="M7282.285,4569.883h-156.1a3.039,3.039,0,0,1-3.039-3.039h0a3.039,3.039,0,0,1,3.039-3.039h156.1a3.039,3.039,0,0,1,3.039,3.039h0A3.04,3.04,0,0,1,7282.285,4569.883Z" transform="translate(-7123.141 -4563.805)" fill="#d6dcfe"/>
            <rect id="Rectángulo_41258" data-name="Rectángulo 41258" width="162.182" height="6.079" rx="2.678" transform="translate(0 9.726)" fill="#d6dcfe"/>
            <rect id="Rectángulo_41259" data-name="Rectángulo 41259" width="162.182" height="6.079" rx="2.678" transform="translate(0 19.372)" fill="#d6dcfe"/>
            <path id="Trazado_190892" data-name="Trazado 190892" d="M7282.285,4595.6h-156.1a3.039,3.039,0,0,1-3.039-3.039h0a3.039,3.039,0,0,1,3.039-3.039h156.1a3.039,3.039,0,0,1,3.039,3.039h0A3.04,3.04,0,0,1,7282.285,4595.6Z" transform="translate(-7123.141 -4560.339)" fill="#d6dcfe"/>
          </g>
          <g id="Grupo_130098" data-name="Grupo 130098" transform="translate(210.841 29.387)">
            <path id="Trazado_190893" data-name="Trazado 190893" d="M7341.8,4483.233h-48.682a3.039,3.039,0,0,1-3.04-3.039h0a3.04,3.04,0,0,1,3.04-3.041H7341.8a3.04,3.04,0,0,1,3.039,3.041h0A3.04,3.04,0,0,1,7341.8,4483.233Z" transform="translate(-7290.077 -4477.154)" fill="#d6dcfe"/>
            <path id="Trazado_190894" data-name="Trazado 190894" d="M7341.8,4491.8h-48.682a3.04,3.04,0,0,1-3.04-3.041h0a3.039,3.039,0,0,1,3.04-3.039H7341.8a3.039,3.039,0,0,1,3.039,3.039h0A3.041,3.041,0,0,1,7341.8,4491.8Z" transform="translate(-7290.077 -4475.998)" fill="#d6dcfe"/>
            <rect id="Rectángulo_41260" data-name="Rectángulo 41260" width="54.76" height="6.079" rx="2.678" transform="translate(0 19.373)" fill="#d6dcfe"/>
            <path id="Trazado_190895" data-name="Trazado 190895" d="M7341.8,4508.945h-48.682a3.039,3.039,0,0,1-3.04-3.04h0a3.039,3.039,0,0,1,3.04-3.039H7341.8a3.039,3.039,0,0,1,3.039,3.039h0A3.04,3.04,0,0,1,7341.8,4508.945Z" transform="translate(-7290.077 -4473.688)" fill="#d6dcfe"/>
          </g>
          <g id="Grupo_130100" data-name="Grupo 130100" transform="translate(21.004 20.903)">
            <circle id="Elipse_4908" data-name="Elipse 4908" cx="20.042" cy="20.042" r="20.042" transform="translate(0 38.899) rotate(-76.036)" fill="#d6dcfe"/>
            <circle id="Elipse_4909" data-name="Elipse 4909" cx="7.405" cy="7.405" r="7.405" transform="translate(16.88 13.075)" fill="#f9fdf8"/>
            <g id="Grupo_130099" data-name="Grupo 130099" transform="translate(9.721 27.551)">
              <path id="Trazado_190896" data-name="Trazado 190896" d="M7145.923,4510.732a19.977,19.977,0,0,0,14.564-6.282,14.624,14.624,0,0,0-6.105-10.495,11.024,11.024,0,0,1-16.918,0,14.624,14.624,0,0,0-6.1,10.495A19.979,19.979,0,0,0,7145.923,4510.732Z" transform="translate(-7131.359 -4493.955)" fill="#f9fdf8"/>
            </g>
          </g>
          <g id="Grupo_130102" data-name="Grupo 130102" transform="translate(194.938 124.744)">
            <circle id="Elipse_4910" data-name="Elipse 4910" cx="19.694" cy="19.694" r="19.694" fill="#d6dcfe"/>
            <circle id="Elipse_4911" data-name="Elipse 4911" cx="7.277" cy="7.277" r="7.277" transform="translate(12.417 8.678)" fill="#f9fdf8"/>
            <g id="Grupo_130101" data-name="Grupo 130101" transform="translate(5.383 22.902)">
              <path id="Trazado_190897" data-name="Trazado 190897" d="M7295.118,4597.85a19.636,19.636,0,0,0,14.313-6.172,14.378,14.378,0,0,0-6-10.313,10.83,10.83,0,0,1-16.624,0,14.37,14.37,0,0,0-6,10.313A19.638,19.638,0,0,0,7295.118,4597.85Z" transform="translate(-7280.807 -4581.364)" fill="#f9fdf8"/>
            </g>
          </g>
          <g id="Grupo_130103" data-name="Grupo 130103">
            <rect id="Rectángulo_41261" data-name="Rectángulo 41261" width="279.105" height="15.196" fill="#a5abeb"/>
            <rect id="Rectángulo_41262" data-name="Rectángulo 41262" width="271.72" height="7.33" transform="translate(3.693 3.933)" fill="#f9fdf8"/>
          </g>
          <g id="Grupo_130104" data-name="Grupo 130104" transform="translate(21.07 75.867)">
            <rect id="Rectángulo_41263" data-name="Rectángulo 41263" width="72.958" height="42.856" rx="7.859" fill="#d6dcfe"/>
            <circle id="Elipse_4912" data-name="Elipse 4912" cx="5.22" cy="5.22" r="5.22" transform="translate(31.259 7.945)" fill="#f9fdf8"/>
            <path id="Trazado_190898" data-name="Trazado 190898" d="M7186.078,4534.91c-1.164-1.537-2.531-3.167-4.431-3.487-2.43-.407-4.6,1.475-6.263,3.289a80.489,80.489,0,0,0-8.5,11.032c-.178-.193-.354-.387-.532-.579-1.9-2.043-4.158-4.189-6.829-4.056-2.357.118-4.3,2-5.892,3.88-.967,1.141-1.879,2.33-2.766,3.542q-4.461-7-9.474-13.621c-1.165-1.537-2.53-3.167-4.433-3.487-2.429-.407-4.6,1.475-6.263,3.289a80.566,80.566,0,0,0-7.843,10.037v9.346a5.086,5.086,0,0,0,5.086,5.086h62.786a5.087,5.087,0,0,0,5.086-5.086v-5.169Q7191.237,4541.719,7186.078,4534.91Z" transform="translate(-7122.851 -4516.325)" fill="#d6dcfe" opacity="0.5" style="mix-blend-mode: multiply;isolation: isolate"/>
          </g>
        </g>
      </g>
    </g>
    <g id="Grupo_130112" data-name="Grupo 130112" transform="translate(7269.774 4669.905)">
      <g id="Grupo_130110" data-name="Grupo 130110">
        <path id="Rectángulo_41264" data-name="Rectángulo 41264" d="M37.534,0h10.12A37.534,37.534,0,0,1,85.189,37.534V49.873a0,0,0,0,1,0,0H0a0,0,0,0,1,0,0V37.534A37.534,37.534,0,0,1,37.534,0Z" transform="translate(0.001)" fill="#414141"/>
        <line id="Línea_253" data-name="Línea 253" y1="24.27" transform="translate(42.595 9.261)" fill="none" stroke="#f9fdf8" stroke-linecap="round" stroke-linejoin="round" stroke-width="1" opacity="0.5"/>
        <g id="Grupo_130108" data-name="Grupo 130108" transform="translate(0 33.53)" opacity="0.5" style="mix-blend-mode: multiply;isolation: isolate">
          <path id="Trazado_190899" data-name="Trazado 190899" d="M7249.026,4671.792a42.781,42.781,0,0,0-.976,9.064v7.279h85.189v-7.279a42.717,42.717,0,0,0-.977-9.064Z" transform="translate(-7248.051 -4671.792)" fill="#414141"/>
        </g>
        <g id="Grupo_130109" data-name="Grupo 130109" transform="translate(29.341)" opacity="0.5">
          <path id="Trazado_190900" data-name="Trazado 190900" d="M7281.567,4650.762h10.468a7.785,7.785,0,0,0,7.7-6.628,42.566,42.566,0,0,0-12.57-1.889h0a42.536,42.536,0,0,0-13.255,2.114A7.789,7.789,0,0,0,7281.567,4650.762Z" transform="translate(-7273.905 -4642.245)" fill="#fff"/>
        </g>
      </g>
      <g id="Grupo_130111" data-name="Grupo 130111" transform="translate(16.664)" opacity="0.5" style="mix-blend-mode: multiply;isolation: isolate">
        <path id="Trazado_190901" data-name="Trazado 190901" d="M7314.742,4651.171a42.4,42.4,0,0,0-26.076-8.926h0a42.4,42.4,0,0,0-25.932,8.813A77.67,77.67,0,0,0,7314.742,4651.171Z" transform="translate(-7262.734 -4642.245)" fill="#414141"/>
      </g>
    </g>
    <path id="Trazado_190902" data-name="Trazado 190902" d="M7245.391,4607.248a52.458,52.458,0,0,1,.792-21.943,94.165,94.165,0,0,1,7.885-20.615,50.915,50.915,0,0,1,4.688-7.87,27.031,27.031,0,0,1,4.892-5.009c5.386-4.2,12.261-5.934,18.98-7.159.484-.089,1.184-.017,1.2.476-13.067,17.483-18.2,39.685-20.378,61.4a20.618,20.618,0,0,1-.908,5.013,6.583,6.583,0,0,1-3.193,3.818,7.185,7.185,0,0,1-4.357.323C7250.468,4614.815,7246.266,4611.771,7245.391,4607.248Z" transform="translate(21.255 14.498)" fill="url(#linear-gradient)"/>
    <path id="Trazado_190903" data-name="Trazado 190903" d="M7282.627,4544.652a77.5,77.5,0,0,0-7.9,1.8,51.506,51.506,0,0,0-18.538,34.536,22.086,22.086,0,0,1-6.079-7.666,80.37,80.37,0,0,0-3.924,11.979,52.458,52.458,0,0,0-.792,21.943c.875,4.523,5.077,7.567,9.6,8.436a7.185,7.185,0,0,0,4.357-.323,6.583,6.583,0,0,0,3.193-3.818,20.618,20.618,0,0,0,.908-5.013c2.18-21.718,7.311-43.919,20.378-61.4C7283.811,4544.635,7283.111,4544.563,7282.627,4544.652Z" transform="translate(21.255 14.498)" fill="#fc87bb" opacity="0.5" style="mix-blend-mode: multiply;isolation: isolate"/>
    <path id="Trazado_190904" data-name="Trazado 190904" d="M7313.81,4628.231c-.909-8.24,1.063-16.553,3.952-24.321s6.7-15.169,9.686-22.9c2.086-5.4,3.771-10.969,6.265-16.195a112.374,112.374,0,0,1,5.617-10.5c-4-4.667-10.153-5.265-14.456-9.652a221.537,221.537,0,0,0-30.709-2.609c-4.421-.067-8.936.015-13.111,1.471a25.669,25.669,0,0,0-8.372,5.053c-7.468,6.549-11.664,16.076-14.3,25.651a107.621,107.621,0,0,0-3.624,35.375c.093,1.432-.089,2.733.046,4.162A473.612,473.612,0,0,1,7313.81,4628.231Z" transform="translate(22.598 14.151)" fill="url(#linear-gradient)"/>
    <g id="Grupo_130113" data-name="Grupo 130113" transform="translate(7277.136 4568.801)" opacity="0.5" style="mix-blend-mode: multiply;isolation: isolate">
      <path id="Trazado_190905" data-name="Trazado 190905" d="M7318.921,4564.887c-5.113,6.041-8.595,13.3-11.285,20.748-.542,1.5-1.153,3.14-2.534,3.943a5.318,5.318,0,0,1-2.279.6c-3.683.292-7.277-1-10.9-1.737a36.53,36.53,0,0,0-12.78-.31c-2.2.336-4.449.873-6.609.355-2.653-.636-4.66-2.723-6.779-4.44a29.1,29.1,0,0,0-8.925-4.9,107.722,107.722,0,0,0-2.073,28.963c.093,1.432-.089,2.733.046,4.162a473.612,473.612,0,0,1,59.006,14.462c-.909-8.24,1.063-16.553,3.952-24.321s6.7-15.169,9.686-22.9c2.086-5.4,3.771-10.969,6.265-16.195a113.306,113.306,0,0,1,5.422-10.164C7331.8,4554.995,7323.643,4559.31,7318.921,4564.887Z" transform="translate(-7254.539 -4553.152)" fill="#fc87bb"/>
    </g>
    <path id="Trazado_190906" data-name="Trazado 190906" d="M7255.226,4604.986a31.135,31.135,0,0,1,8.517-22.677" transform="translate(22.687 19.579)" fill="none" stroke="#fc87bb" stroke-linecap="round" stroke-linejoin="round" stroke-width="1" opacity="0.5" style="mix-blend-mode: multiply;isolation: isolate"/>
    <g id="Grupo_130114" data-name="Grupo 130114" transform="translate(7298.717 4556.192)" opacity="0.5" style="mix-blend-mode: multiply;isolation: isolate">
      <path id="Trazado_190907" data-name="Trazado 190907" d="M7278.851,4551.641a46.312,46.312,0,0,1,5.086,6.235,19.285,19.285,0,0,0,2.914,3.738,5.106,5.106,0,0,0,4.355,1.4,10.731,10.731,0,0,0,4.7-2.75,44.84,44.84,0,0,1,8.712-6.452,41.424,41.424,0,0,1,17.665-4.52c2.385-.125,4.77-.109,7.151-.013a24.919,24.919,0,0,1-7.128-4.615,221.537,221.537,0,0,0-30.709-2.609c-4.421-.067-8.936.015-13.111,1.471a23.193,23.193,0,0,0-4.934,2.45A58.6,58.6,0,0,0,7278.851,4551.641Z" transform="translate(-7273.555 -4542.041)" fill="#fc87bb"/>
    </g>
    <path id="Trazado_190908" data-name="Trazado 190908" d="M7277.618,4548.488a8.921,8.921,0,0,1-2.546-3.72c-.741-2.623.771-5.36,2.607-7.375,4.521-4.963,11.189-7.587,17.865-8.288a6.145,6.145,0,0,1,2.209.058c1.968.524,3.007,2.651,4.66,3.838,1.871,1.345,4.386,1.389,6.43,2.453,1.686.878,2.945,2.392,4.514,3.467,2.419,1.659,5.477,2.208,7.853,3.929a9.575,9.575,0,0,1,3.205,4.055.773.773,0,0,1,.083.478c-.075.289-.426.395-.723.435a24.442,24.442,0,0,1-5.5-.347,27.312,27.312,0,0,0-13.822,2.659,57.382,57.382,0,0,0-11.906,7.742,21.27,21.27,0,0,0-2.134,2.034c-.765.812-.844.816-1.508-.113a32.408,32.408,0,0,0-3.443-4.112C7282.95,4553.167,7280.136,4550.987,7277.618,4548.488Z" transform="translate(25.34 12.397)" fill="url(#linear-gradient)"/>
    <path id="Trazado_190909" data-name="Trazado 190909" d="M7282.366,4540.769a2.082,2.082,0,0,0-.652.944,2.441,2.441,0,0,0,.273,1.528,119.429,119.429,0,0,0,5.812,11.948,2.259,2.259,0,0,0,.643.819,1.591,1.591,0,0,0,1.86-.252,5.371,5.371,0,0,0,1.127-1.66,23.263,23.263,0,0,1,4.792-6.227c2.537-2.34,5.676-4.21,7.285-7.264a2.456,2.456,0,0,0,.354-1.176,1.921,1.921,0,0,0-.394-1.039c-.874-1.221-2.5-1.6-4-1.763C7294.112,4536.047,7286.513,4536.9,7282.366,4540.769Z" transform="translate(26.256 13.399)" fill="#fc87bb" opacity="0.5" style="mix-blend-mode: multiply;isolation: isolate"/>
    <g id="Grupo_130119" data-name="Grupo 130119" transform="translate(7255.486 4579.021)">
      <g id="Grupo_130116" data-name="Grupo 130116">
        <path id="Trazado_190910" data-name="Trazado 190910" d="M7239.474,4570.905a49.533,49.533,0,0,1-3.927-6.792c-.318-.734.265-1.528,1.241-1.668a28.732,28.732,0,0,1,5.273-.26,6.077,6.077,0,0,1,2.366.453,4.442,4.442,0,0,1,1.9,2.22q5.093,10,9.7,20.153a.655.655,0,0,1,.082.508c-.139.345-.735.384-1.2.345a21.975,21.975,0,0,1-6.029-1.394c-2.238-.873-2.546-1.646-3.5-3.428Q7242.658,4575.9,7239.474,4570.905Z" transform="translate(-7235.46 -4562.159)" fill="#727272"/>
        <path id="Trazado_190911" data-name="Trazado 190911" d="M7239.379,4564.847l-1.178.126a.874.874,0,0,1-1-.593h0c-.067-.38.272-.729.759-.782l1.177-.126a.877.877,0,0,1,1,.592h0C7240.205,4564.445,7239.865,4564.795,7239.379,4564.847Z" transform="translate(-7235.227 -4561.982)" fill="#fff" opacity="0.5"/>
        <g id="Grupo_130115" data-name="Grupo 130115" transform="translate(5.833 0.012)">
          <path id="Trazado_190912" data-name="Trazado 190912" d="M7255.423,4585.517a.655.655,0,0,0-.082-.508q-4.61-10.146-9.7-20.153a4.442,4.442,0,0,0-1.9-2.22,6.077,6.077,0,0,0-2.366-.453c-.257-.012-.513-.012-.769-.015a10.924,10.924,0,0,1,3.063,2.6,22.858,22.858,0,0,1,3.025,5.57q3.369,7.816,7.269,15.488c.091.008.18.025.271.033C7254.688,4585.9,7255.284,4585.861,7255.423,4585.517Z" transform="translate(-7240.601 -4562.168)" fill="#414141"/>
        </g>
      </g>
      <path id="Trazado_190913" data-name="Trazado 190913" d="M7277.7,4598.312a16.385,16.385,0,0,1-1.725,3.22,4.522,4.522,0,0,1-2.592,1.948c-3.4-1.425-7.012-2.247-10.522-3.362a25.857,25.857,0,0,1-9.729-5.056c-1.215-1.1-2.334-2.757-2.208-4.392a19.357,19.357,0,0,1-4.115-2.845,6.524,6.524,0,0,1-2.114-4.411,1.444,1.444,0,0,1,.246-.906q-1.068-2.7-2.334-5.312a3.656,3.656,0,0,1-.513-1.741,1.406,1.406,0,0,1,1.234-1.3,4.787,4.787,0,0,1-.742-1.926.727.727,0,0,1,.033-.443c.179-.347.7-.239,1.054-.079a76.986,76.986,0,0,1,10.917,5.993,23.5,23.5,0,0,0,4.075,2.367c1.568.629,3.275.862,4.829,1.523a18.873,18.873,0,0,1,5.65,4.363L7278,4594.8A6.434,6.434,0,0,1,7277.7,4598.312Z" transform="translate(-7234.566 -4560.892)" fill="#ffc59a"/>
      <path id="Trazado_190914" data-name="Trazado 190914" d="M7244.574,4580.955a26.163,26.163,0,0,0,7.894,5.679" transform="translate(-7234.232 -4559.625)" fill="none" stroke="#ce7b5b" stroke-linecap="round" stroke-linejoin="round" stroke-width="1"/>
      <path id="Trazado_190915" data-name="Trazado 190915" d="M7243.14,4573.6a10.712,10.712,0,0,0,4.355,5.492,21.173,21.173,0,0,0,2.169,1.146l3.381,1.625" transform="translate(-7234.424 -4560.616)" fill="none" stroke="#ce7b5b" stroke-linecap="round" stroke-linejoin="round" stroke-width="1"/>
      <path id="Trazado_190916" data-name="Trazado 190916" d="M7253.1,4586.884a1.872,1.872,0,0,0,2.07-.488" transform="translate(-7233.082 -4558.891)" fill="none" stroke="#ce7b5b" stroke-linecap="round" stroke-linejoin="round" stroke-width="1"/>
      <path id="Trazado_190917" data-name="Trazado 190917" d="M7254.119,4581.168a3.173,3.173,0,0,0,1.513-.47" transform="translate(-7232.944 -4559.659)" fill="none" stroke="#ce7b5b" stroke-linecap="round" stroke-linejoin="round" stroke-width="1"/>
      <g id="Grupo_130117" data-name="Grupo 130117" transform="translate(7.527 10.664)">
        <path id="Trazado_190918" data-name="Trazado 190918" d="M7243.662,4573.833a.942.942,0,0,0,.3-.9,2.786,2.786,0,0,0-.385-.915l-.234-.411c-.309-.085-.641-.085-.778.179a.727.727,0,0,0-.033.443,4.763,4.763,0,0,0,.606,1.694A.614.614,0,0,0,7243.662,4573.833Z" transform="translate(-7242.037 -4571.556)" fill="#fff"/>
        <path id="Trazado_190919" data-name="Trazado 190919" d="M7243.742,4577.762a2.237,2.237,0,0,0-.095-1.482,9.894,9.894,0,0,0-1.125-2.095,1.51,1.51,0,0,0-.427.914,3.657,3.657,0,0,0,.513,1.743c.238.493.46.994.688,1.491A1.192,1.192,0,0,0,7243.742,4577.762Z" transform="translate(-7242.093 -4571.201)" fill="#fff"/>
      </g>
      <g id="Grupo_130118" data-name="Grupo 130118" transform="translate(10.719 11.574)">
        <path id="Trazado_190920" data-name="Trazado 190920" d="M7259.107,4580.293c.047,0,.092-.006.139-.006-.322-.1-.644-.2-.958-.329a23.5,23.5,0,0,1-4.075-2.367,76.991,76.991,0,0,0-9.307-5.233,64.188,64.188,0,0,0,6.924,5.186C7254.041,4578.97,7256.477,4580.3,7259.107,4580.293Z" transform="translate(-7244.906 -4572.358)" fill="#f2ab88"/>
        <path id="Trazado_190921" data-name="Trazado 190921" d="M7276.949,4592.61q-2.4-2.4-4.8-4.8-1.09,2.832-2.179,5.666a2.87,2.87,0,0,1-.783,1.289,2.749,2.749,0,0,1-1.79.393,31.362,31.362,0,0,1-16.2-4.984c-.429-.277-.852-.563-1.276-.85a6.616,6.616,0,0,0,2.156,3.543,25.857,25.857,0,0,0,9.729,5.056c3.511,1.115,7.125,1.937,10.522,3.362a4.522,4.522,0,0,0,2.592-1.948,16.385,16.385,0,0,0,1.725-3.22A6.434,6.434,0,0,0,7276.949,4592.61Z" transform="translate(-7244.229 -4570.274)" fill="#f2ab88"/>
      </g>
    </g>
    <g id="Grupo_130120" data-name="Grupo 130120" transform="translate(7290.437 4607.159)">
      <path id="Trazado_190922" data-name="Trazado 190922" d="M7266.361,4606.68a4.325,4.325,0,0,1,.345-2.668q2.4-6.76,4.8-13.522c.556-1.564,1.439-3.4,3.093-3.529a2.844,2.844,0,0,1,2.656,1.806,6.186,6.186,0,0,1,.255,3.373c-.5,3.421-.875,7.521-2.673,10.474C7274.013,4603.971,7267.692,4611,7266.361,4606.68Z" transform="translate(-7266.258 -4586.953)" fill="url(#linear-gradient-4)"/>
      <path id="Trazado_190923" data-name="Trazado 190923" d="M7266.361,4606.68a4.325,4.325,0,0,1,.345-2.668q2.4-6.76,4.8-13.522c.556-1.564,1.439-3.4,3.093-3.529a2.844,2.844,0,0,1,2.656,1.806,6.186,6.186,0,0,1,.255,3.373c-.5,3.421-.875,7.521-2.673,10.474C7274.013,4603.971,7267.692,4611,7266.361,4606.68Z" transform="translate(-7266.258 -4586.953)" opacity="0.5" fill="url(#linear-gradient-4)"/>
    </g>
    <path id="Trazado_190924" data-name="Trazado 190924" d="M7317.2,4630.654c-6.03.083-11.924-1.629-17.711-3.327-4.448-1.3-8.9-2.611-13.258-4.192a110.609,110.609,0,0,1-18.818-8.923c-.368-.22-1.116-.571-.74-.78,3.5-1.944,5.327-5.912,6.562-9.725a64.655,64.655,0,0,0,2.839-13.658,169.758,169.758,0,0,1,33.379,9.317c.142-5.765,1.531-11.208,3.188-16.733a75.057,75.057,0,0,1,6.159-15.462,33.3,33.3,0,0,1,11.149-12.166c2.329-1.44,5.048-2.531,7.757-2.136a108.038,108.038,0,0,1-13.084,72.693,12.32,12.32,0,0,1-2.875,3.7A7.735,7.735,0,0,1,7317.2,4630.654Z" transform="translate(24.221 15.6)" fill="url(#linear-gradient)"/>
    <g id="Grupo_130121" data-name="Grupo 130121" transform="translate(7290.792 4578.803)" opacity="0.5" style="mix-blend-mode: multiply;isolation: isolate">
      <path id="Trazado_190925" data-name="Trazado 190925" d="M7335.254,4578.8c-2.945,11.467-9.623,36.436-15.341,40.167-4.567,2.98-10.156,3.482-15.556,2.721a163.1,163.1,0,0,1-37.131-9.825c-.181.117-.363.229-.553.336-.376.209.372.56.74.779a110.572,110.572,0,0,0,18.818,8.923c4.357,1.582,8.81,2.889,13.258,4.192,5.787,1.7,11.681,3.41,17.711,3.327a7.738,7.738,0,0,0,4.546-1.395,12.332,12.332,0,0,0,2.875-3.7,108.729,108.729,0,0,0,14.393-62.359C7337.906,4567.608,7336.685,4573.228,7335.254,4578.8Z" transform="translate(-7266.571 -4561.966)" fill="#fc87bb"/>
    </g>
    <path id="Trazado_190926" data-name="Trazado 190926" d="M7306.767,4603.234a17.838,17.838,0,0,0-2.417-10.005,19.542,19.542,0,0,1,7.48,9.7" transform="translate(29.314 21.052)" fill="none" stroke="#fc87bb" stroke-linecap="round" stroke-linejoin="round" stroke-width="1" opacity="0.5" style="mix-blend-mode: multiply;isolation: isolate"/>
    <g id="Grupo_130123" data-name="Grupo 130123" transform="translate(7309.282 4528.728)">
      <path id="Trazado_190927" data-name="Trazado 190927" d="M7283,4532.34a34.673,34.673,0,0,1,.225,12.862,32.99,32.99,0,0,1,5.276,12.177,43.79,43.79,0,0,1,13.924-14.936,39.244,39.244,0,0,1-2.14-19.712c.21-1.4.419-3.052-.607-4.027a3.542,3.542,0,0,0-2.072-.794,12.45,12.45,0,0,0-10.155,3.879C7284.844,4524.492,7282.236,4528.663,7283,4532.34Z" transform="translate(-7282.865 -4517.839)" fill="#ffc59a"/>
      <g id="Grupo_130122" data-name="Grupo 130122">
        <path id="Trazado_190928" data-name="Trazado 190928" d="M7299.894,4529.967a38.618,38.618,0,0,1,.392-7.236c.211-1.4.419-3.052-.607-4.027a3.542,3.542,0,0,0-2.072-.794,12.45,12.45,0,0,0-10.155,3.879c-2.606,2.7-5.214,6.874-4.45,10.551a34.644,34.644,0,0,1,.705,7.8,35.143,35.143,0,0,0,9.043-4.538A77.62,77.62,0,0,0,7299.894,4529.967Z" transform="translate(-7282.865 -4517.839)" fill="#f2ab88"/>
      </g>
    </g>
    <path id="Trazado_190929" data-name="Trazado 190929" d="M7273.365,4518.644c-.131,1.621-.49,3.226-.485,4.854a21.674,21.674,0,0,0,1.012,5.594q.836,3.055,1.67,6.112c.479,1.75,1.064,3.654,2.584,4.645a6.362,6.362,0,0,0,4.763.466,32.851,32.851,0,0,0,10.463-4.7c2.929-1.823,5.868-3.893,7.564-6.9,2.185-3.87,1.941-8.622,1.291-13.017a85.222,85.222,0,0,0-2.532-11.531c-.644-2.19-1.461-4.484-3.257-5.895a7.914,7.914,0,0,0-6.976-1.02,21.018,21.018,0,0,0-6.39,3.487,39.822,39.822,0,0,0-8.358,7.521C7272.054,4511.678,7273.693,4514.58,7273.365,4518.644Z" transform="translate(25.071 8.064)" fill="#ffc59a"/>
    <g id="Grupo_130124" data-name="Grupo 130124" transform="translate(7298.23 4504.956)">
      <path id="Trazado_190930" data-name="Trazado 190930" d="M7276.594,4514.455a51.825,51.825,0,0,1,6.788-3.829,24.93,24.93,0,0,0,6.432-4.357,22.946,22.946,0,0,1-4.32,7.274,44.188,44.188,0,0,0,9.234-2.845c-.033,2.64-.105,5.491-.14,8.132a10.243,10.243,0,0,0,.905,5.353,1.828,1.828,0,0,0,1.273,1.013c.726.072,1.3-.561,1.755-1.132q2.02-2.569,4.041-5.139c-.082-1.083-.214-2.163-.37-3.221a85.222,85.222,0,0,0-2.532-11.531c-.644-2.19-1.461-4.484-3.257-5.895a7.914,7.914,0,0,0-6.976-1.02,21.018,21.018,0,0,0-6.39,3.487,39.822,39.822,0,0,0-8.358,7.521c-2.413,3.1-1.291,5.777-1.307,9.284A15.232,15.232,0,0,1,7276.594,4514.455Z" transform="translate(-7273.126 -4496.892)" fill="#f2ab88"/>
    </g>
    <path id="Trazado_190931" data-name="Trazado 190931" d="M7273.777,4512.916a2.377,2.377,0,0,1,2.5-.966" transform="translate(25.191 10.085)" fill="none" stroke="#371107" stroke-linecap="round" stroke-linejoin="round" stroke-width="1"/>
    <path id="Trazado_190932" data-name="Trazado 190932" d="M7282.014,4510.847a5.578,5.578,0,0,1,4.8,1.732" transform="translate(26.301 9.939)" fill="none" stroke="#371107" stroke-linecap="round" stroke-linejoin="round" stroke-width="0.5"/>
    <g id="Grupo_130125" data-name="Grupo 130125" transform="translate(7302.337 4539.485)">
      <path id="Trazado_190933" data-name="Trazado 190933" d="M7276.745,4529.342a10.83,10.83,0,0,0,8.934-2.024" transform="translate(-7276.745 -4527.318)" fill="none" stroke="#371107" stroke-linecap="round" stroke-linejoin="round" stroke-width="0.5"/>
      <path id="Trazado_190934" data-name="Trazado 190934" d="M7278.143,4530.811a6.826,6.826,0,0,0,2.679-.368" transform="translate(-7276.556 -4526.897)" fill="none" stroke="#ce7b5b" stroke-linecap="round" stroke-linejoin="round" stroke-width="0.5"/>
      <path id="Trazado_190935" data-name="Trazado 190935" d="M7277.982,4527.787a3.991,3.991,0,0,1,1.791-.16" transform="translate(-7276.579 -4527.283)" fill="none" stroke="#ce7b5b" stroke-linecap="round" stroke-linejoin="round" stroke-width="0.5"/>
    </g>
    <path id="Trazado_190936" data-name="Trazado 190936" d="M7284.348,4516.272c0,1.136-.413,2.056-.924,2.056s-.924-.92-.924-2.056.414-2.056.924-2.056S7284.348,4515.136,7284.348,4516.272Z" transform="translate(26.368 10.4)" fill="#371107"/>
    <path id="Trazado_190937" data-name="Trazado 190937" d="M7276.33,4516.272c0,1.136-.414,2.056-.924,2.056s-.925-.92-.925-2.056.414-2.056.925-2.056S7276.33,4515.136,7276.33,4516.272Z" transform="translate(25.287 10.4)" fill="#371107"/>
    <g id="Grupo_130126" data-name="Grupo 130126" transform="translate(7300.692 4523.031)">
      <path id="Trazado_190938" data-name="Trazado 190938" d="M7275.411,4521.6a1.331,1.331,0,0,0,.27.216l3.009,1.853a22.6,22.6,0,0,0,1.6-2.287A23.218,23.218,0,0,1,7275.411,4521.6Z" transform="translate(-7275.28 -4511.666)" fill="#f2ab88"/>
      <path id="Trazado_190939" data-name="Trazado 190939" d="M7278.679,4512.819a18,18,0,0,1-3.179,9.2c-.125.183-.258.392-.184.592a.836.836,0,0,0,.379.358l3.448,2.124" transform="translate(-7275.295 -4512.819)" fill="none" stroke="#371107" stroke-linecap="round" stroke-linejoin="round" stroke-width="0.5"/>
    </g>
    <g id="Grupo_130128" data-name="Grupo 130128" transform="translate(7296.266 4499.707)">
      <path id="Trazado_190940" data-name="Trazado 190940" d="M7301.32,4525.838c-.25-1.847-.386-3.218-.636-5.065a7.049,7.049,0,0,0-2.579,2.564c-.212.364-.441.788-.854.875a.936.936,0,0,1-.975-.6,2.659,2.659,0,0,1-.126-1.223c.261-4.716.98-9.17-.5-13.656a44.106,44.106,0,0,1-7.218,3.127,21.54,21.54,0,0,0,4.921-9.229c-3.095,3.284-7.338,5.174-11.294,7.347s-7.922,4.931-9.683,9.085c-.635-3.98-1.5-8.457-.6-12.384a15.818,15.818,0,0,1,22.232-10.726c4.67-1.337,9.985,1.867,12.231,6.173s2.123,9.487,1.085,14.231a40.589,40.589,0,0,1-5.687,13.532C7301.125,4528.366,7301.536,4527.434,7301.32,4525.838Z" transform="translate(-7271.395 -4491.974)" fill="#5a2a1a"/>
      <g id="Grupo_130127" data-name="Grupo 130127" transform="translate(0.905 7.473)" opacity="0.5" style="mix-blend-mode: multiply;isolation: isolate">
        <path id="Trazado_190941" data-name="Trazado 190941" d="M7300.864,4515.755a5.711,5.711,0,0,0-3.311,4.537c.308-3.624.616-7.252.639-10.89a11.483,11.483,0,0,0-.874-5.272c-1.7,1.5-2.814,2.75-4.872,3.7,1.991-2.565,2.38-5.739,2.573-8.981-4.623,3.116-9.9,5.187-14.409,8.462a32.694,32.694,0,0,0-4.679,4.136,13.734,13.734,0,0,0-3.738,6.523c.027.165.055.333.081.495,1.761-4.155,5.727-6.915,9.683-9.085s8.2-4.063,11.294-7.347a21.54,21.54,0,0,1-4.921,9.229,44.106,44.106,0,0,0,7.218-3.127c1.477,4.485.757,8.94.5,13.656a2.659,2.659,0,0,0,.126,1.223.936.936,0,0,0,.975.6c.412-.087.643-.511.854-.875a7.049,7.049,0,0,1,2.579-2.564c.25,1.847.386,3.218.636,5.065.216,1.6-.2,2.528.327,4.051a40.607,40.607,0,0,0,4.666-9.773,5.461,5.461,0,0,0-.354-1.916A3.965,3.965,0,0,0,7300.864,4515.755Z" transform="translate(-7272.193 -4498.851)" fill="#5a2a1a"/>
      </g>
      <path id="Trazado_190942" data-name="Trazado 190942" d="M7290.451,4492.266a10.85,10.85,0,0,1,1.2,3.891,11.4,11.4,0,0,1,3.531-2.816" transform="translate(-7268.827 -4492.266)" fill="none" stroke="#5a2a1a" stroke-linecap="round" stroke-linejoin="round" stroke-width="1"/>
      <path id="Trazado_190943" data-name="Trazado 190943" d="M7273.847,4512.1a6.206,6.206,0,0,1,1.609-2.419c4.063-4.182,9.866-6.272,14.1-10.28q-4.194,2.32-8.464,4.5c2.373-1.5,3.965-3.946,6.081-5.786a66.292,66.292,0,0,1-6.217,3.9,21.946,21.946,0,0,1,5.543-5.488,20.318,20.318,0,0,0-12.263,8.095,4.709,4.709,0,0,1,1.659-1.595q2.531-1.729,5.063-3.458a30,30,0,0,1-4.457,5.448l5.423-3.085c-1.891,2.506-4.678,4.216-6.6,6.694a12.855,12.855,0,0,0-2.395,5.1C7273.247,4513.022,7273.622,4512.834,7273.847,4512.1Z" transform="translate(-7271.189 -4491.692)" fill="#fff" opacity="0.2"/>
      <path id="Trazado_190944" data-name="Trazado 190944" d="M7296.818,4510.925a10.513,10.513,0,0,0,.722-5.2,30.465,30.465,0,0,1,2.5,8.357,32.627,32.627,0,0,0-.992-10.432,19.425,19.425,0,0,1,2.937,9.9,17.694,17.694,0,0,0-4.947-15.062l2.277,4.619-2.407-2.381a34.411,34.411,0,0,1,2.128,5.972c-.233-.913-3.393-4.277-3.393-4.277-.2.846,1.085,3.892,1.185,4.756A15.792,15.792,0,0,1,7296.818,4510.925Z" transform="translate(-7268.129 -4491.427)" fill="#fff" opacity="0.2"/>
    </g>
    <g id="Grupo_130129" data-name="Grupo 130129" transform="translate(7323.781 4523.307)">
      <path id="Trazado_190945" data-name="Trazado 190945" d="M7299.887,4513.135a2.134,2.134,0,0,1,1.371,1.506,4.847,4.847,0,0,1,.021,2.109,23.311,23.311,0,0,1-.982,3.647,8.7,8.7,0,0,1-1.135,2.431,1.894,1.894,0,0,1-1.872.911,1.727,1.727,0,0,1-.988-.911c-.868-1.641-.716-4.523-.461-6.346C7296.068,4514.86,7298.109,4512.633,7299.887,4513.135Z" transform="translate(-7295.642 -4513.063)" fill="#ffc59a"/>
      <path id="Trazado_190946" data-name="Trazado 190946" d="M7299.224,4514.93a1.311,1.311,0,0,1,.843.925,2.967,2.967,0,0,1,.012,1.294,14.142,14.142,0,0,1-.6,2.239,5.3,5.3,0,0,1-.7,1.492,1.161,1.161,0,0,1-1.149.56,1.061,1.061,0,0,1-.606-.56,7.439,7.439,0,0,1-.282-3.9C7296.88,4515.99,7298.133,4514.623,7299.224,4514.93Z" transform="translate(-7295.51 -4512.817)" fill="#f2ab88"/>
    </g>
    <path id="Trazado_190947" data-name="Trazado 190947" d="M7201.1,4702.051c.24-1.3,1.371-1.682,2.441-2.461,3.594-2.62,7.761-4.473,10.987-7.535.992-.942,1.88-1.986,2.815-2.984,3.462-3.7,7.811-6.911,9.467-11.7,3.161.8,4.748,4.36,7.526,6.067a8.8,8.8,0,0,0,6.574.863,5.963,5.963,0,0,0,1.871-.739,7.112,7.112,0,0,0,1.7-1.7,29.056,29.056,0,0,0,2.39-3.633,4.411,4.411,0,0,1,1.8,3.2c.047.508.009,1.024.092,1.528a6.315,6.315,0,0,0,.5,1.471l1.782,4.085c.369.845,2.136,5.521,1.636,6.3-.635.982-2.293,2.454-6.9,3.78s-17.987,5.12-19.392,5.531a78.269,78.269,0,0,1-14.029,2.777c-5.739.422-10.506.369-10.854-.051A7.873,7.873,0,0,1,7201.1,4702.051Z" transform="translate(15.372 32.395)" fill="url(#linear-gradient)"/>
    <path id="Trazado_190948" data-name="Trazado 190948" d="M7227.042,4686.18a3.48,3.48,0,0,0-1.845-.806,3.42,3.42,0,0,0-2,.895c-.792.6-1.661,1.444-1.431,2.409a2.52,2.52,0,0,0,.688,1.072,58.456,58.456,0,0,0,9.558,7.734,7.536,7.536,0,0,0,2.159,1.184,3.84,3.84,0,0,0,3.314-.6c.786-.588,1.883-2.127,1.447-3.174-.448-1.076-2.835-2.224-3.774-2.912Q7231.133,4689.036,7227.042,4686.18Z" transform="translate(18.175 33.474)" fill="#fff" opacity="0.5"/>
    <g id="Grupo_130130" data-name="Grupo 130130" transform="translate(7241.224 4709.769)">
      <path id="Trazado_190949" data-name="Trazado 190949" d="M7238.41,4688.948a9.242,9.242,0,0,1-8.672-3.562,25.5,25.5,0,0,0-6.846-5.887,13.514,13.514,0,0,0,.963-2.125c3.161.8,4.748,4.36,7.526,6.067a8.8,8.8,0,0,0,6.574.863,5.963,5.963,0,0,0,1.871-.739,7.112,7.112,0,0,0,1.7-1.7,28.94,28.94,0,0,0,2.389-3.633,4.408,4.408,0,0,1,1.8,3.2c.047.508.009,1.024.092,1.528C7245.81,4682.958,7242.93,4688.309,7238.41,4688.948Z" transform="translate(-7222.892 -4677.373)" fill="url(#linear-gradient)"/>
    </g>
    <g id="Grupo_130131" data-name="Grupo 130131" transform="translate(7218.987 4709.769)">
      <path id="Trazado_190950" data-name="Trazado 190950" d="M7214.218,4697.868a25.9,25.9,0,0,1-10.921,1.671c3.578-2.593,7.712-4.441,10.917-7.485.992-.942,1.88-1.986,2.815-2.984,3.462-3.7,7.811-6.911,9.467-11.7,2.619.659,4.161,3.219,6.193,5.047-3.462,5.455-8.718,9.613-14.2,13.092A29.738,29.738,0,0,1,7214.218,4697.868Z" transform="translate(-7203.297 -4677.373)" fill="url(#linear-gradient)"/>
    </g>
    <g id="Grupo_130132" data-name="Grupo 130132" transform="translate(7228.796 4712.055)">
      <path id="Trazado_190951" data-name="Trazado 190951" d="M7219.3,4688.516a1.054,1.054,0,0,1,.059,1.316,1.081,1.081,0,0,1-.94.29,3.6,3.6,0,0,1-.966-.327,19.11,19.11,0,0,0-2.912-1c.323-.355.646-.71.973-1.059.144-.154.29-.3.436-.456a10.42,10.42,0,0,1,2.145.5A2.579,2.579,0,0,1,7219.3,4688.516Z" transform="translate(-7211.59 -4678.324)" fill="#fff"/>
      <path id="Trazado_190952" data-name="Trazado 190952" d="M7221.643,4686.266c.316.377.5,1.012.105,1.312a.888.888,0,0,1-.411.149,4.733,4.733,0,0,1-2.763-.874,4.919,4.919,0,0,0-1.625-.576c.488-.48.981-.959,1.473-1.439.2.034.405.062.6.1A4.6,4.6,0,0,1,7221.643,4686.266Z" transform="translate(-7211.266 -4678.654)" fill="#fff"/>
      <path id="Trazado_190953" data-name="Trazado 190953" d="M7217.261,4690.963a.91.91,0,0,1-.13,1.167,1.237,1.237,0,0,1-.825.171c-1.478-.082-2.92-.718-4.365-.925.379-.312.75-.634,1.108-.975.265-.252.522-.511.775-.775a8.487,8.487,0,0,1,2.42.583A2.085,2.085,0,0,1,7217.261,4690.963Z" transform="translate(-7211.94 -4678.008)" fill="#fff"/>
      <path id="Trazado_190954" data-name="Trazado 190954" d="M7224.1,4684.347a.956.956,0,0,1,.179.809.7.7,0,0,1-.576.415,1.576,1.576,0,0,1-.731-.114,14.944,14.944,0,0,1-2.219-1.207,5.4,5.4,0,0,0-1.216-.522c.472-.486.933-.979,1.373-1.484a8.863,8.863,0,0,1,1.029.366A4.8,4.8,0,0,1,7224.1,4684.347Z" transform="translate(-7210.917 -4679.003)" fill="#fff"/>
      <path id="Trazado_190955" data-name="Trazado 190955" d="M7226.64,4682.285c.221.271.429.667.212.942a.626.626,0,0,1-.414.2,2.28,2.28,0,0,1-1.525-.508c-.708-.482-1.338-1.072-2.039-1.566a6.429,6.429,0,0,0-.874-.524,16.819,16.819,0,0,0,.923-1.44A10.635,10.635,0,0,1,7226.64,4682.285Z" transform="translate(-7210.584 -4679.388)" fill="#fff"/>
    </g>
    <g id="Grupo_130133" data-name="Grupo 130133" transform="translate(7216.312 4720.503)" opacity="0.5">
      <path id="Trazado_190956" data-name="Trazado 190956" d="M7201.1,4700.775c.239-1.3,1.37-1.682,2.44-2.461,2.154-1.571,4.514-2.867,6.754-4.312.151.083.3.165.453.251,1.826,1.053,3.59,2.331,5.65,2.77a15.015,15.015,0,0,0,6.208-.433c7.832-1.665,15.887-3.421,22.513-7.917.476-.324,5.34-2.8,5.935-1.435.369.845,2.136,5.521,1.636,6.3-.635.982-2.293,2.454-6.9,3.78s-17.987,5.12-19.392,5.531a78.269,78.269,0,0,1-14.029,2.777c-5.739.422-10.506.369-10.854-.051A7.868,7.868,0,0,1,7201.1,4700.775Z" transform="translate(-7200.94 -4686.833)" fill="url(#linear-gradient-4)"/>
    </g>
    <g id="Grupo_130134" data-name="Grupo 130134" transform="translate(7216.312 4722.071)">
      <path id="Trazado_190957" data-name="Trazado 190957" d="M7234.468,4695.023q8.656-3.052,17.044-6.809c.63,1.7,1.562,4.545,1.181,5.135-.635.982-2.293,2.454-6.9,3.78s-17.987,5.12-19.392,5.531a78.269,78.269,0,0,1-14.029,2.777c-5.739.422-10.506.369-10.854-.051a7.876,7.876,0,0,1-.412-4.8,2.291,2.291,0,0,1,.135-.457,19.375,19.375,0,0,0,6.578.72C7216.944,4700.585,7225.856,4698.058,7234.468,4695.023Z" transform="translate(-7200.939 -4688.214)" fill="#fff"/>
    </g>
    <g id="Grupo_130136" data-name="Grupo 130136" transform="translate(7216.312 4722.071)">
      <g id="Grupo_130135" data-name="Grupo 130135" clip-path="url(#clip-path)">
        <path id="Trazado_190958" data-name="Trazado 190958" d="M7252.562,4690.424s-7.265,3.53-12.146,5.244-23.016,7.381-29.687,7.39a51.027,51.027,0,0,1-11.152-1.1" transform="translate(-7201.123 -4687.916)" fill="none" stroke="#e1e1e1" stroke-linecap="round" stroke-linejoin="round" stroke-width="3"/>
      </g>
    </g>
    <path id="Trazado_190960" data-name="Trazado 190960" d="M7315.3,4626.769c.463.238.335-.727-.112-.99-14.395-8.521-30.039-17.239-46.3-21.152q-12.977-3.122-26.142-5.395c-4.229-.729-8.532-1.4-12.795-.9a11.59,11.59,0,0,0-6.131,2.263c-2.445,2.024-3.366,5.316-4.045,8.419-4.011,18.324-4.06,37.254-4.09,56.013a29.788,29.788,0,0,1-4.778,15.49c-1.958,3.081-4.78,6.3-3.96,9.856.748,3.241,4.2,5.01,7.36,6.051a55.085,55.085,0,0,0,19.576,2.714,26.561,26.561,0,0,0,9.895-2.023,13.164,13.164,0,0,0,7.016-6.994,1.515,1.515,0,0,0,.02-1.4c-.463-.647-1.5-.3-2.24-.58a1.962,1.962,0,0,1-.948-2.242,18.581,18.581,0,0,1,.945-2.469c.815-2.362-.05-4.932-.761-7.327-4.793-16.168-1.079-25.483,1.293-42.179,14.713,6.88,30.5,11.926,46.55,9.438,5.122-.794,10.243-2.425,14.3-5.652S7315.59,4631.944,7315.3,4626.769Z" transform="translate(16.163 21.716)" fill="#1c2270"/>
    <path id="Trazado_190961" data-name="Trazado 190961" d="M7238.1,4694.821q-2.832-3.97-5.666-7.939a5.341,5.341,0,0,1-1.168-2.43c-.14-1.342.73-2.545,1.343-3.749a10.661,10.661,0,0,0,.987-6.654c-.3-1.672-.994-3.248-1.357-4.907a25.342,25.342,0,0,1-.4-5.3q-.054-11.768-.11-23.534a31.628,31.628,0,0,1,.749-8.6c1.739-6.274,7.358-10.967,13.576-12.9s12.95-1.45,19.314-.075,12.51,3.611,18.828,5.181" transform="translate(19.459 24.326)" fill="none" stroke="#d6dcfe" stroke-linecap="round" stroke-linejoin="round" stroke-width="1" opacity="0.5"/>
    <g id="Grupo_130137" data-name="Grupo 130137" transform="translate(7222.963 4622.213)" opacity="0.5" style="mix-blend-mode: multiply;isolation: isolate">
      <path id="Trazado_190962" data-name="Trazado 190962" d="M7315.188,4625.5c-14.395-8.521-30.039-17.239-46.3-21.152q-9.542-2.3-19.187-4.129a32.551,32.551,0,0,0-8.46,4.28,60.306,60.306,0,0,0-8.09,7.285q-8.5,8.725-16.439,17.984c-.979,11.6-1.007,23.323-1.025,34.979a29.787,29.787,0,0,1-4.778,15.49c-1.958,3.081-4.78,6.3-3.96,9.857.748,3.241,4.2,5.009,7.36,6.051a55.107,55.107,0,0,0,19.576,2.714,26.561,26.561,0,0,0,9.895-2.024,13.163,13.163,0,0,0,7.016-6.994,1.516,1.516,0,0,0,.02-1.4c-.463-.647-1.5-.3-2.24-.58a1.342,1.342,0,0,1-.607-.484c-5.33,3.957-11.12,7.037-17.644,8.03-2.139.326-4.966-.026-5.5-2.124a4.816,4.816,0,0,1,.381-2.712q2.366-6.824,4.729-13.648a32.613,32.613,0,0,1,2.931-6.76,29.835,29.835,0,0,1,4.64-5.372q3.918-3.818,8.075-7.384c.422-7.275,2.188-14.345,3.525-23.763,14.713,6.88,30.5,11.926,46.55,9.438,5.122-.793,10.243-2.424,14.3-5.652s5.639-5.766,5.35-10.942C7315.764,4626.729,7315.636,4625.765,7315.188,4625.5Z" transform="translate(-7206.8 -4600.219)" fill="#1c2270"/>
    </g>
    <path id="Trazado_190963" data-name="Trazado 190963" d="M7166.362,4662.875c1.107-.725,2.162-.169,3.465.067,4.376.793,8.593,2.53,13.036,2.75,1.367.068,2.735-.009,4.1-.021,5.064-.047,10.39.883,15-1.222,1.607,2.837.123,6.446.806,9.633a8.8,8.8,0,0,0,3.912,5.354,5.926,5.926,0,0,0,1.827.844,7.125,7.125,0,0,0,2.4.055,29.025,29.025,0,0,0,4.277-.778,4.41,4.41,0,0,1-1.07,3.513c-.337.385-.737.712-1.043,1.122a6.309,6.309,0,0,0-.717,1.38l-1.726,4.109c-.357.851-2.521,5.356-3.427,5.529-1.149.219-3.357.035-7.5-2.386s-16.118-9.483-17.385-10.216a78.2,78.2,0,0,1-11.692-8.237c-4.268-3.861-7.517-7.348-7.454-7.888A7.876,7.876,0,0,1,7166.362,4662.875Z" transform="translate(10.281 30.392)" fill="url(#linear-gradient)"/>
    <path id="Trazado_190964" data-name="Trazado 190964" d="M7193.585,4672.5a3.491,3.491,0,0,0-.691-1.892,3.415,3.415,0,0,0-2.028-.83c-.978-.161-2.192-.206-2.732.626a2.545,2.545,0,0,0-.3,1.239,58.411,58.411,0,0,0,1,12.254,7.569,7.569,0,0,0,.634,2.38,3.838,3.838,0,0,0,2.724,1.982c.967.163,2.838-.105,3.294-1.143.47-1.066-.346-3.585-.5-4.74Q7194.342,4677.43,7193.585,4672.5Z" transform="translate(13.598 31.359)" fill="#fff" opacity="0.5"/>
    <g id="Grupo_130138" data-name="Grupo 130138" transform="translate(7210.042 4694.842)">
      <path id="Trazado_190965" data-name="Trazado 190965" d="M7199.286,4682.741a9.249,9.249,0,0,1-3.408-8.733,25.509,25.509,0,0,0-.463-9.018,13.585,13.585,0,0,0,2.2-.771c1.607,2.837.123,6.446.806,9.633a8.8,8.8,0,0,0,3.912,5.354,5.926,5.926,0,0,0,1.827.844,7.125,7.125,0,0,0,2.4.055,29.025,29.025,0,0,0,4.277-.778,4.41,4.41,0,0,1-1.07,3.513c-.337.385-.737.712-1.043,1.122C7208.729,4683.963,7202.868,4685.572,7199.286,4682.741Z" transform="translate(-7195.415 -4664.22)" fill="url(#linear-gradient)"/>
    </g>
    <g id="Grupo_130139" data-name="Grupo 130139" transform="translate(7180.192 4693.353)">
      <path id="Trazado_190966" data-name="Trazado 190966" d="M7177.859,4669.657a25.928,25.928,0,0,1-8.749-6.75c4.347.8,8.537,2.515,12.952,2.733,1.367.068,2.735-.009,4.1-.021,5.064-.047,10.39.883,15-1.222,1.332,2.351.542,5.232.622,7.967-6.336,1.259-12.972.324-19.271-1.237A29.811,29.811,0,0,1,7177.859,4669.657Z" transform="translate(-7169.111 -4662.907)" fill="url(#linear-gradient)"/>
    </g>
    <g id="Grupo_130140" data-name="Grupo 130140" transform="translate(7191.674 4695.659)">
      <path id="Trazado_190967" data-name="Trazado 190967" d="M7186.359,4668.578a1.053,1.053,0,0,1-.913.95,1.08,1.08,0,0,1-.859-.481,3.629,3.629,0,0,1-.429-.925,19.061,19.061,0,0,0-1.285-2.8c.479-.011.958-.022,1.439-.027.209,0,.419,0,.629,0a10.584,10.584,0,0,1,1.118,1.9A2.6,2.6,0,0,1,7186.359,4668.578Z" transform="translate(-7178.738 -4664.892)" fill="#fff"/>
      <path id="Trazado_190968" data-name="Trazado 190968" d="M7189.6,4668.722c-.053.489-.39,1.058-.876.981a.859.859,0,0,1-.39-.194,4.727,4.727,0,0,1-1.275-2.6,4.907,4.907,0,0,0-.706-1.575c.686.023,1.372.049,2.059.073.115.17.235.335.342.511A4.583,4.583,0,0,1,7189.6,4668.722Z" transform="translate(-7178.269 -4664.887)" fill="#fff"/>
      <path id="Trazado_190969" data-name="Trazado 190969" d="M7183.2,4668.766a.909.909,0,0,1-.934.712,1.229,1.229,0,0,1-.694-.479c-.96-1.125-1.5-2.607-2.342-3.8.487.059.977.1,1.469.128.365.018.731.025,1.1.027a8.528,8.528,0,0,1,1.248,2.151A2.091,2.091,0,0,1,7183.2,4668.766Z" transform="translate(-7179.229 -4664.904)" fill="#fff"/>
      <path id="Trazado_190970" data-name="Trazado 190970" d="M7192.683,4669.172a.961.961,0,0,1-.462.69.706.706,0,0,1-.7-.132,1.564,1.564,0,0,1-.422-.606,14.984,14.984,0,0,1-.657-2.44,5.473,5.473,0,0,0-.462-1.241c.678.006,1.351,0,2.021-.03a8.9,8.9,0,0,1,.446,1A4.786,4.786,0,0,1,7192.683,4669.172Z" transform="translate(-7177.779 -4664.876)" fill="#fff"/>
      <path id="Trazado_190971" data-name="Trazado 190971" d="M7195.926,4669.629c-.044.347-.187.772-.534.8a.624.624,0,0,1-.432-.161,2.28,2.28,0,0,1-.684-1.455c-.139-.845-.147-1.708-.274-2.557a6.356,6.356,0,0,0-.224-.994,17.027,17.027,0,0,0,1.678-.326A10.612,10.612,0,0,1,7195.926,4669.629Z" transform="translate(-7177.268 -4664.94)" fill="#fff"/>
    </g>
    <g id="Grupo_130141" data-name="Grupo 130141" transform="translate(7173.454 4692.908)" opacity="0.5">
      <path id="Trazado_190972" data-name="Trazado 190972" d="M7166.362,4662.875c1.107-.725,2.162-.169,3.465.067,2.625.475,5.19,1.289,7.782,1.913.044.167.091.333.131.5.5,2.048.79,4.206,1.895,6a15,15,0,0,0,4.6,4.192c6.611,4.52,13.44,9.135,21.268,10.828.56.122,5.708,1.935,5.132,3.3-.357.851-2.521,5.356-3.427,5.529-1.149.219-3.357.035-7.5-2.386s-16.118-9.483-17.385-10.216a78.2,78.2,0,0,1-11.692-8.237c-4.268-3.861-7.517-7.348-7.454-7.888A7.876,7.876,0,0,1,7166.362,4662.875Z" transform="translate(-7163.173 -4662.516)" fill="url(#linear-gradient-4)"/>
    </g>
    <g id="Grupo_130142" data-name="Grupo 130142" transform="translate(7173.454 4693.05)">
      <path id="Trazado_190973" data-name="Trazado 190973" d="M7193.416,4683.161q8.183,4.16,16.69,7.635c-.8,1.63-2.212,4.267-2.9,4.4-1.149.219-3.357.035-7.5-2.386s-16.117-9.483-17.385-10.216a78.2,78.2,0,0,1-11.692-8.237c-4.268-3.861-7.517-7.348-7.454-7.888a7.876,7.876,0,0,1,3.188-3.609,2.187,2.187,0,0,1,.424-.218,19.374,19.374,0,0,0,4.019,5.258C7177.3,4674.318,7185.277,4679.024,7193.416,4683.161Z" transform="translate(-7163.173 -4662.641)" fill="#fff"/>
    </g>
    <g id="Grupo_130144" data-name="Grupo 130144" transform="translate(7173.454 4693.05)">
      <g id="Grupo_130143" data-name="Grupo 130143" clip-path="url(#clip-path-2)">
        <path id="Trazado_190974" data-name="Trazado 190974" d="M7208.794,4693.138s-7.568-2.821-12.176-5.17-21.227-11.562-25.836-16.383a51.07,51.07,0,0,1-6.905-8.827" transform="translate(-7163.078 -4662.625)" fill="none" stroke="#e1e1e1" stroke-linecap="round" stroke-linejoin="round" stroke-width="3"/>
      </g>
    </g>
    <path id="Trazado_190976" data-name="Trazado 190976" d="M7256.588,4640.143c.52.293,1.064.542,1.606.79a127.72,127.72,0,0,0,18,7.149c3.261.926,6.589,1.591,9.913,2.255l9.978,1.991a57.427,57.427,0,0,0,10.639,1.443,19.31,19.31,0,0,0,10.311-2.509c4.73-2.9,7.371-8.243,9.117-13.509,1.445-4.358,2.27-9.7,1.368-14.2-13.812-4.621-27.624-8.436-41.436-13.056-6.446-2.156-12.944-4.325-19.69-5.154s-14.286-.9-19.691,3.221a40.96,40.96,0,0,0-3.946,3.59c-13.762,13.665-22.812,24.775-34.948,39.9-1.208,1.5-2.563,3.107-4.448,3.518-1.909.417-4.252-.4-5.639.977-1.244,1.233-.914,3.609-2.37,4.582-1.222.816-3.019.128-4.248.935-1.029.674-1.215,2.083-1.271,3.313q-.128,2.868-.033,5.74c.312,9.38,10.653,16.138,18.978,20.471a24.5,24.5,0,0,0,8.564,2.838c1.4.152,2.388-1.893,2.473-3.294s-.272-2.887.3-4.169c.711-1.6,2.633-2.343,3.479-3.874.854-1.545.409-3.458.633-5.209.3-2.347,1.795-4.345,3.265-6.2C7237.594,4658.94,7244.081,4650.532,7256.588,4640.143Z" transform="translate(13.865 22.624)" fill="#29378d"/>
    <path id="Trazado_190977" data-name="Trazado 190977" d="M7203.177,4684.882c1.572.423,2.8-1.524,2.8-3.151s-.592-3.308-.057-4.846c.815-2.342,3.768-3.143,5.249-5.132,1.12-1.5,1.265-3.493,1.821-5.283,1.258-4.045,4.6-7.029,7.74-9.872a132.281,132.281,0,0,0,9.756-9.62c4.145-4.619,7.957-9.65,13.081-13.151,13.445-9.189,13.663-4.893,28.172-3.765,9.675.752,18.84,4.918,28.5,5.826s20.267-.968,26.954-8" transform="translate(15.674 25.724)" fill="none" stroke="#d6dcfe" stroke-linecap="round" stroke-linejoin="round" stroke-width="1" opacity="0.5"/>
    <g id="Grupo_130145" data-name="Grupo 130145" transform="translate(7203.621 4646.951)" opacity="0.5" style="mix-blend-mode: multiply;isolation: isolate">
      <path id="Trazado_190978" data-name="Trazado 190978" d="M7320.068,4637.484c-6.907,4.82-15.636,6.492-24.052,6.127s-16.625-2.62-24.683-5.075a37.629,37.629,0,0,1-10.278-4.334,4.635,4.635,0,0,1-1.921-2.09,5.244,5.244,0,0,1-.092-2.387c.336-2.888.354-4.819.689-7.707-10.838,16.769-25.729,30.437-39.13,45.239-1.239,1.369-2.527,2.882-2.7,4.72-.173,1.876.834,3.935-.121,5.559-.795,1.35-2.547,1.689-3.982,2.318s-2.819,2.315-1.953,3.621c-1.424.521-2.965-.314-4.2-1.2a35.5,35.5,0,0,1-14.125-23,4.751,4.751,0,0,0-2.425.48c-1.029.674-1.215,2.083-1.271,3.313q-.128,2.868-.033,5.74c.312,9.38,10.653,16.138,18.978,20.471a24.5,24.5,0,0,0,8.564,2.838c1.4.152,2.388-1.893,2.473-3.294s-.272-2.887.3-4.169c.711-1.6,2.633-2.343,3.479-3.874.854-1.545.409-3.458.633-5.209.3-2.347,1.795-4.347,3.265-6.2,10.106-12.741,16.593-21.149,29.1-31.538.52.293,1.064.542,1.606.79a127.72,127.72,0,0,0,18,7.149c3.261.926,6.589,1.591,9.913,2.255l9.978,1.991a57.427,57.427,0,0,0,10.639,1.443,19.308,19.308,0,0,0,10.311-2.509c4.73-2.9,7.371-8.242,9.117-13.509a36.208,36.208,0,0,0,1.2-4.706A40.579,40.579,0,0,1,7320.068,4637.484Z" transform="translate(-7189.756 -4622.018)" fill="#29378d"/>
    </g>
  </g>
</svg>
