<svg xmlns="http://www.w3.org/2000/svg" width="291.226" height="230.258" viewBox="0 0 291.226 230.258">
  <g id="Group_133239" data-name="Group 133239" transform="translate(346.663 -1820.43)">
    <rect id="Rectangle_41399" data-name="Rectangle 41399" width="15.959" height="64.387" transform="translate(-168.684 1985.348)" fill="#1a2e35" stroke="#1a2e35" stroke-linecap="round" stroke-linejoin="round" stroke-width="1"/>
    <rect id="Rectangle_41400" data-name="Rectangle 41400" width="201.417" height="122.171" transform="translate(-257.355 1879.136)" fill="#1a2e35" stroke="#1a2e35" stroke-linecap="round" stroke-linejoin="round" stroke-width="1"/>
    <rect id="Rectangle_41401" data-name="Rectangle 41401" width="201.417" height="122.171" transform="translate(-261.413 1879.136)" fill="#4dcedf" stroke="#000" stroke-miterlimit="10" stroke-width="1"/>
    <g id="Group_133208" data-name="Group 133208" transform="translate(-254.154 1883.539)">
      <rect id="Rectangle_41402" data-name="Rectangle 41402" width="186.901" height="113.366" fill="#fff" stroke="#1a2e35" stroke-linecap="round" stroke-linejoin="round" stroke-width="1"/>
      <rect id="Rectangle_41403" data-name="Rectangle 41403" width="186.901" height="6.827" transform="translate(0 106.539)" fill="#fff" stroke="#1a2e35" stroke-linecap="round" stroke-linejoin="round" stroke-width="1"/>
    </g>
    <path id="Path_192130" data-name="Path 192130" d="M-46.192,2240.985l-59.171,3.824v3.852h116.6v-3.852Z" transform="translate(-113.641 -198.473)" fill="#1a2e35" stroke="#1a2e35" stroke-linecap="round" stroke-linejoin="round" stroke-width="1"/>
    <rect id="Rectangle_41404" data-name="Rectangle 41404" width="186.901" height="113.366" transform="translate(-254.154 1883.539)" fill="#fff" stroke="#1a2e35" stroke-linecap="round" stroke-linejoin="round" stroke-width="1"/>
    <line id="Line_268" data-name="Line 268" x1="16.026" y2="24.299" transform="translate(-204.945 1857.535)" fill="none" stroke="#1a2e35" stroke-miterlimit="10" stroke-width="1" stroke-dasharray="5"/>
    <path id="Path_192131" data-name="Path 192131" d="M-32.808,1847.284v-5.52l-5.511-.613a13.144,13.144,0,0,0-1.352-3.284l3.482-4.353-3.9-3.9-4.334,3.466a13.139,13.139,0,0,0-3.276-1.372l-.616-5.537h-5.519l-.613,5.512a13.11,13.11,0,0,0-3.285,1.351l-4.353-3.482-3.9,3.9,3.466,4.334a13.14,13.14,0,0,0-1.372,3.276l-5.537.616v5.52l5.511.613a13.153,13.153,0,0,0,1.351,3.285l-3.482,4.353,3.9,3.9,4.334-3.466a13.167,13.167,0,0,0,3.276,1.372l.616,5.537H-48.4l.613-5.511a13.165,13.165,0,0,0,3.285-1.352l4.353,3.482,3.9-3.9-3.466-4.334a13.148,13.148,0,0,0,1.372-3.276Zm-18.313,3.784a6.587,6.587,0,0,1-6.587-6.587,6.587,6.587,0,0,1,6.587-6.587,6.587,6.587,0,0,1,6.587,6.587A6.587,6.587,0,0,1-51.121,1851.068Z" transform="translate(-130.597 -2.708)" fill="#fcc82e" stroke="#000" stroke-miterlimit="10" stroke-width="1"/>
    <path id="Path_192132" data-name="Path 192132" d="M18.772,1834.218l-.612-3.654-3.717.2a8.8,8.8,0,0,0-1.258-2.025l1.822-3.268-3.016-2.151L9.506,1826.1a8.829,8.829,0,0,0-2.321-.545l-1.021-3.6-3.654.611.2,3.717a8.808,8.808,0,0,0-2.025,1.258l-3.268-1.822-2.151,3.016,2.775,2.485a8.836,8.836,0,0,0-.545,2.32l-3.6,1.021.612,3.654,3.717-.2a8.811,8.811,0,0,0,1.258,2.025l-1.822,3.268,3.016,2.151,2.485-2.775a8.858,8.858,0,0,0,2.321.546l1.021,3.6,3.654-.612-.2-3.717a8.809,8.809,0,0,0,2.025-1.258l3.268,1.822,2.151-3.016-2.775-2.485a8.857,8.857,0,0,0,.545-2.321Zm-11.7,4.534a4.421,4.421,0,1,1,3.631-5.091A4.421,4.421,0,0,1,7.067,1838.752Z" transform="translate(-160.488 -0.721)" fill="#1a2e35" stroke="#1a2e35" stroke-miterlimit="10" stroke-width="1"/>
    <line id="Line_269" data-name="Line 269" x2="4.873" y2="24.503" transform="translate(-236 1857.79)" fill="none" stroke="#1a2e35" stroke-miterlimit="10" stroke-width="1" stroke-dasharray="5"/>
    <g id="Group_133209" data-name="Group 133209" transform="translate(-262.11 1827.763)">
      <rect id="Rectangle_41405" data-name="Rectangle 41405" width="7.456" height="27.759" transform="translate(37.282 27.759) rotate(180)" fill="#fcc82e" stroke="#000" stroke-miterlimit="10" stroke-width="1"/>
      <rect id="Rectangle_41406" data-name="Rectangle 41406" width="7.456" height="21.545" transform="translate(27.34 27.759) rotate(180)" fill="#1a2e35" stroke="#1a2e35" stroke-miterlimit="10" stroke-width="1"/>
      <rect id="Rectangle_41407" data-name="Rectangle 41407" width="7.456" height="16.573" transform="translate(17.398 27.759) rotate(180)" fill="#fcc82e" stroke="#000" stroke-miterlimit="10" stroke-width="1"/>
      <rect id="Rectangle_41408" data-name="Rectangle 41408" width="7.456" height="12.43" transform="translate(7.456 27.759) rotate(180)" fill="#1a2e35" stroke="#1a2e35" stroke-miterlimit="10" stroke-width="1"/>
    </g>
    <g id="Group_133213" data-name="Group 133213" transform="translate(-259.35 1820.43)">
      <g id="Group_133210" data-name="Group 133210" transform="translate(0 1.85)">
        <path id="Path_192133" data-name="Path 192133" d="M-181.038,1842.912l-.728-.957,7.624-5.8,3.78,1.26,6.242-6.722,3.673,1.118,6.656-7.63,2.82,1.824,2.928-2.071.694.981-3.592,2.541-2.628-1.7-6.483,7.432-3.7-1.126-6.256,6.738-3.912-1.3Z" transform="translate(181.766 -1823.934)" fill="#1a2e35"/>
      </g>
      <g id="Group_133212" data-name="Group 133212" transform="translate(31.77)">
        <g id="Group_133211" data-name="Group 133211">
          <path id="Path_192134" data-name="Path 192134" d="M-118.35,1825.546l2.356-5.116-5.609.517Z" transform="translate(121.603 -1820.43)" fill="#1a2e35"/>
        </g>
      </g>
    </g>
    <line id="Line_270" data-name="Line 270" x2="39.737" y2="26.272" transform="translate(-294.455 1856.805)" fill="none" stroke="#1a2e35" stroke-miterlimit="10" stroke-width="1" stroke-dasharray="5"/>
    <g id="Group_133215" data-name="Group 133215" transform="translate(-333.395 1834.16)">
      <path id="Rectangle_41409" data-name="Rectangle 41409" d="M6.376,0H38.7a6.376,6.376,0,0,1,6.376,6.376V29.588a0,0,0,0,1,0,0H0a0,0,0,0,1,0,0V6.376A6.376,6.376,0,0,1,6.376,0Z" transform="translate(0 0)" fill="#fff" stroke="#1a2e35" stroke-linecap="round" stroke-linejoin="round" stroke-width="1"/>
      <g id="Group_133214" data-name="Group 133214" transform="translate(11.371 11.891)">
        <line id="Line_271" data-name="Line 271" x2="21.349" fill="none" stroke="#1a2e35" stroke-linecap="round" stroke-linejoin="round" stroke-width="1"/>
        <line id="Line_272" data-name="Line 272" x2="21.349" transform="translate(0 3.443)" fill="none" stroke="#1a2e35" stroke-linecap="round" stroke-linejoin="round" stroke-width="1"/>
        <line id="Line_273" data-name="Line 273" x2="21.349" transform="translate(0 6.887)" fill="none" stroke="#1a2e35" stroke-linecap="round" stroke-linejoin="round" stroke-width="1"/>
        <line id="Line_274" data-name="Line 274" x2="21.349" transform="translate(0 10.33)" fill="none" stroke="#1a2e35" stroke-linecap="round" stroke-linejoin="round" stroke-width="1"/>
      </g>
      <path id="Path_192135" data-name="Path 192135" d="M-276.913,1851.1v-1.916a2.756,2.756,0,0,0-2.756-2.756h-39.559a2.756,2.756,0,0,0-2.756,2.756v1.916Z" transform="translate(321.984 -1846.431)" fill="#fcc82e" stroke="#000" stroke-miterlimit="10" stroke-width="1"/>
      <path id="Path_192136" data-name="Path 192136" d="M-252.469,1850.462a.7.7,0,0,0-.7-.7.7.7,0,0,0-.7.7.7.7,0,0,0,.7.7A.7.7,0,0,0-252.469,1850.462Z" transform="translate(289.834 -1848.005)" fill="#1a2e35" stroke="#1a2e35" stroke-linecap="round" stroke-linejoin="round" stroke-width="1"/>
      <path id="Path_192137" data-name="Path 192137" d="M-247.2,1850.462a.7.7,0,0,0-.7-.7.7.7,0,0,0-.7.7.7.7,0,0,0,.7.7A.7.7,0,0,0-247.2,1850.462Z" transform="translate(287.348 -1848.005)" fill="#1a2e35" stroke="#1a2e35" stroke-linecap="round" stroke-linejoin="round" stroke-width="1"/>
      <path id="Path_192138" data-name="Path 192138" d="M-241.933,1850.462a.7.7,0,0,0-.7-.7.7.7,0,0,0-.7.7.7.7,0,0,0,.7.7A.7.7,0,0,0-241.933,1850.462Z" transform="translate(284.862 -1848.005)" fill="#1a2e35" stroke="#1a2e35" stroke-linecap="round" stroke-linejoin="round" stroke-width="1"/>
    </g>
    <g id="Group_133216" data-name="Group 133216" transform="translate(-339.744 1840.404)">
      <path id="Path_192139" data-name="Path 192139" d="M-333.376,1899.163h0a1.741,1.741,0,0,1-.2-2.491l12.659-14.525,1.935,1.6-11.913,15.143A1.742,1.742,0,0,1-333.376,1899.163Z" transform="translate(334.007 -1869.53)" fill="#1a2e35" stroke="#1a2e35" stroke-linejoin="round" stroke-width="1"/>
      <path id="Path_192140" data-name="Path 192140" d="M-324.282,1889.466l-9.291,10.66a1.741,1.741,0,0,0,.2,2.491,1.742,1.742,0,0,0,2.485-.271l8.788-11.171Z" transform="translate(334.007 -1872.984)" fill="#fff" stroke="#1a2e35" stroke-linejoin="round" stroke-width="1"/>
      <path id="Path_192141" data-name="Path 192141" d="M-300.906,1860.09a7.987,7.987,0,0,0-11.245,1.058,7.986,7.986,0,0,0,1.058,11.244,7.986,7.986,0,0,0,11.245-1.058A7.986,7.986,0,0,0-300.906,1860.09Zm-9.452,11.414a6.834,6.834,0,0,1-.905-9.621,6.834,6.834,0,0,1,9.622-.905,6.834,6.834,0,0,1,.905,9.621A6.834,6.834,0,0,1-310.358,1871.5Z" transform="translate(324.559 -1858.255)" fill="#1a2e35" stroke="#1a2e35" stroke-linejoin="round" stroke-width="1"/>
    </g>
    <line id="Line_275" data-name="Line 275" x2="52.91" transform="translate(-310.219 1919.529)" fill="none" stroke="#1a2e35" stroke-miterlimit="10" stroke-width="1" stroke-dasharray="5"/>
    <line id="Line_276" data-name="Line 276" x2="29.853" transform="translate(-331.941 1899.878)" fill="none" stroke="#1a2e35" stroke-linecap="round" stroke-linejoin="round" stroke-width="1"/>
    <line id="Line_277" data-name="Line 277" y1="14.707" transform="translate(-317.015 1899.878)" fill="none" stroke="#1a2e35" stroke-linecap="round" stroke-linejoin="round" stroke-width="1"/>
    <line id="Line_278" data-name="Line 278" y2="18.603" transform="translate(-340.672 1903.539)" fill="none" stroke="#1a2e35" stroke-linecap="round" stroke-linejoin="round" stroke-width="1"/>
    <path id="Path_192142" data-name="Path 192142" d="M-281.365,2016.745h27.036v16.35" transform="translate(-30.58 -92.647)" fill="none" stroke="#1a2e35" stroke-linecap="round" stroke-linejoin="round" stroke-width="1"/>
    <line id="Line_279" data-name="Line 279" y2="15.771" transform="translate(-302.088 1924.38)" fill="none" stroke="#1a2e35" stroke-linecap="round" stroke-linejoin="round" stroke-width="1"/>
    <rect id="Rectangle_41410" data-name="Rectangle 41410" width="19.432" height="13.237" transform="translate(-346.022 1893.682)" fill="#1a2e35" stroke="#1a2e35" stroke-miterlimit="10" stroke-width="1"/>
    <rect id="Rectangle_41411" data-name="Rectangle 41411" width="19.432" height="13.237" transform="translate(-309.27 1893.682)" fill="#fcc82e" stroke="#000" stroke-miterlimit="10" stroke-width="1"/>
    <rect id="Rectangle_41412" data-name="Rectangle 41412" width="12.45" height="8.48" transform="translate(-308.143 1936.208)" fill="#fcc82e" stroke="#000" stroke-miterlimit="10" stroke-width="1"/>
    <rect id="Rectangle_41413" data-name="Rectangle 41413" width="12.45" height="8.48" transform="translate(-346.163 1917.902)" fill="#fff" stroke="#1a2e35" stroke-linecap="round" stroke-linejoin="round" stroke-width="1"/>
    <rect id="Rectangle_41414" data-name="Rectangle 41414" width="12.45" height="8.48" transform="translate(-291.809 1936.208)" fill="#1a2e35" stroke="#1a2e35" stroke-miterlimit="10" stroke-width="1"/>
    <rect id="Rectangle_41415" data-name="Rectangle 41415" width="13.851" height="13.851" transform="translate(-326.809 1924.38) rotate(-45)" fill="#fcc82e" stroke="#000" stroke-miterlimit="10" stroke-width="1"/>
    <line id="Line_280" data-name="Line 280" y1="8.555" x2="25.06" transform="translate(-280.991 1973.699)" fill="none" stroke="#1a2e35" stroke-miterlimit="10" stroke-width="1" stroke-dasharray="5"/>
    <g id="Group_133219" data-name="Group 133219" transform="translate(-343.476 1974.044)">
      <rect id="Rectangle_41416" data-name="Rectangle 41416" width="59.517" height="13.979" transform="translate(0)" fill="#fff" stroke="#1a2e35" stroke-linecap="round" stroke-linejoin="round" stroke-width="1"/>
      <g id="Group_133217" data-name="Group 133217" transform="translate(28.212 17.326)">
        <rect id="Rectangle_41417" data-name="Rectangle 41417" width="31.108" height="18.507" fill="#fff" stroke="#1a2e35" stroke-linecap="round" stroke-linejoin="round" stroke-width="1"/>
        <path id="Path_192143" data-name="Path 192143" d="M-287.649,2167.924l10.829-8.663,4.528,3.347,9.451-7.285,6.1,5.907v6.694Z" transform="translate(287.649 -2149.417)" fill="#1a2e35" stroke="#1a2e35" stroke-linecap="round" stroke-linejoin="round" stroke-width="1"/>
        <circle id="Ellipse_4927" data-name="Ellipse 4927" cx="2.166" cy="2.166" r="2.166" transform="translate(3.15 2.56)" fill="#1a2e35" stroke="#1a2e35" stroke-linecap="round" stroke-linejoin="round" stroke-width="1"/>
      </g>
      <g id="Group_133218" data-name="Group 133218" transform="translate(28.212 38.393)">
        <rect id="Rectangle_41418" data-name="Rectangle 41418" width="31.108" height="18.507" fill="#fff" stroke="#1a2e35" stroke-linecap="round" stroke-linejoin="round" stroke-width="1"/>
        <path id="Path_192144" data-name="Path 192144" d="M-287.649,2207.819l10.829-8.663,4.528,3.347,9.451-7.285,6.1,5.906v6.694Z" transform="translate(287.649 -2189.311)" fill="#1a2e35" stroke="#1a2e35" stroke-linecap="round" stroke-linejoin="round" stroke-width="1"/>
        <circle id="Ellipse_4928" data-name="Ellipse 4928" cx="2.166" cy="2.166" r="2.166" transform="translate(3.15 2.56)" fill="#1a2e35" stroke="#1a2e35" stroke-linecap="round" stroke-linejoin="round" stroke-width="1"/>
      </g>
      <line id="Line_281" data-name="Line 281" x2="23.645" transform="translate(0.906 18.719)" fill="none" stroke="#1a2e35" stroke-miterlimit="10" stroke-width="1"/>
      <line id="Line_282" data-name="Line 282" x2="23.645" transform="translate(0.906 23.973)" fill="none" stroke="#1a2e35" stroke-miterlimit="10" stroke-width="1"/>
      <line id="Line_283" data-name="Line 283" x2="23.645" transform="translate(0.906 29.228)" fill="none" stroke="#1a2e35" stroke-miterlimit="10" stroke-width="1"/>
      <line id="Line_284" data-name="Line 284" x2="23.645" transform="translate(0.906 34.482)" fill="none" stroke="#1a2e35" stroke-miterlimit="10" stroke-width="1"/>
      <line id="Line_285" data-name="Line 285" x2="23.645" transform="translate(0.906 39.737)" fill="none" stroke="#1a2e35" stroke-miterlimit="10" stroke-width="1"/>
      <line id="Line_286" data-name="Line 286" x2="23.645" transform="translate(0.906 44.991)" fill="none" stroke="#1a2e35" stroke-miterlimit="10" stroke-width="1"/>
      <line id="Line_287" data-name="Line 287" x2="23.645" transform="translate(0.906 50.245)" fill="none" stroke="#1a2e35" stroke-miterlimit="10" stroke-width="1"/>
      <line id="Line_288" data-name="Line 288" x2="23.645" transform="translate(0.906 55.5)" fill="none" stroke="#1a2e35" stroke-miterlimit="10" stroke-width="1"/>
    </g>
    <rect id="Rectangle_41419" data-name="Rectangle 41419" width="90.119" height="25.534" transform="translate(-161.271 1889.692)" fill="#fff" stroke="#1a2e35" stroke-linecap="round" stroke-linejoin="round" stroke-width="1"/>
    <g id="Group_133220" data-name="Group 133220" transform="translate(-128.334 1921.341)">
      <rect id="Rectangle_41420" data-name="Rectangle 41420" width="56.823" height="33.806" fill="#fff" stroke="#1a2e35" stroke-linecap="round" stroke-linejoin="round" stroke-width="1"/>
      <path id="Path_192145" data-name="Path 192145" d="M66.339,2054.972l19.78-15.824,8.272,6.114,17.263-13.307,11.149,10.789v12.228Z" transform="translate(-66.339 -2021.166)" fill="#1a2e35" stroke="#1a2e35" stroke-linecap="round" stroke-linejoin="round" stroke-width="1"/>
      <path id="Path_192146" data-name="Path 192146" d="M85.148,2024.333a3.956,3.956,0,1,1-3.956-3.956A3.956,3.956,0,0,1,85.148,2024.333Z" transform="translate(-71.482 -2015.702)" fill="#1a2e35" stroke="#1a2e35" stroke-linecap="round" stroke-linejoin="round" stroke-width="1"/>
    </g>
    <g id="Group_133221" data-name="Group 133221" transform="translate(-128.334 1959.822)">
      <rect id="Rectangle_41421" data-name="Rectangle 41421" width="56.823" height="33.806" fill="#fff" stroke="#1a2e35" stroke-linecap="round" stroke-linejoin="round" stroke-width="1"/>
      <path id="Path_192147" data-name="Path 192147" d="M66.339,2127.844l19.78-15.824,8.272,6.114,17.263-13.307,11.149,10.789v12.228Z" transform="translate(-66.339 -2094.038)" fill="#1a2e35" stroke="#1a2e35" stroke-linecap="round" stroke-linejoin="round" stroke-width="1"/>
      <path id="Path_192148" data-name="Path 192148" d="M85.148,2097.205a3.956,3.956,0,1,1-3.956-3.956A3.956,3.956,0,0,1,85.148,2097.205Z" transform="translate(-71.482 -2088.574)" fill="#1a2e35" stroke="#1a2e35" stroke-linecap="round" stroke-linejoin="round" stroke-width="1"/>
    </g>
    <g id="Group_133223" data-name="Group 133223" transform="translate(-158.817 1962.641)">
      <g id="Group_133222" data-name="Group 133222" transform="translate(0)">
        <path id="Path_192149" data-name="Path 192149" d="M10.825,2103.317l-2.213-13.583h1.576l1.459,9.76,1.828-9.709h1.342l1.844,9.759,1.426-9.81H19.63l-2.18,13.583H16.074l-1.895-10.061-1.912,10.061Z" transform="translate(-8.612 -2089.734)" fill="#1a2e35"/>
      </g>
      <line id="Line_289" data-name="Line 289" x2="13.285" transform="translate(13.082 0.825)" fill="none" stroke="#1a2e35" stroke-miterlimit="10" stroke-width="1"/>
      <line id="Line_290" data-name="Line 290" x2="13.285" transform="translate(13.082 4.49)" fill="none" stroke="#1a2e35" stroke-miterlimit="10" stroke-width="1"/>
      <line id="Line_291" data-name="Line 291" x2="13.285" transform="translate(13.082 8.155)" fill="none" stroke="#1a2e35" stroke-miterlimit="10" stroke-width="1"/>
      <line id="Line_292" data-name="Line 292" x2="13.285" transform="translate(13.082 11.82)" fill="none" stroke="#1a2e35" stroke-miterlimit="10" stroke-width="1"/>
      <line id="Line_293" data-name="Line 293" x2="13.285" transform="translate(13.082 15.484)" fill="none" stroke="#1a2e35" stroke-miterlimit="10" stroke-width="1"/>
      <line id="Line_294" data-name="Line 294" x2="13.285" transform="translate(13.082 19.149)" fill="none" stroke="#1a2e35" stroke-miterlimit="10" stroke-width="1"/>
      <line id="Line_295" data-name="Line 295" x2="13.285" transform="translate(13.082 22.814)" fill="none" stroke="#1a2e35" stroke-miterlimit="10" stroke-width="1"/>
      <line id="Line_296" data-name="Line 296" x2="13.285" transform="translate(13.082 26.479)" fill="none" stroke="#1a2e35" stroke-miterlimit="10" stroke-width="1"/>
      <line id="Line_297" data-name="Line 297" x2="13.285" transform="translate(13.082 30.144)" fill="none" stroke="#1a2e35" stroke-miterlimit="10" stroke-width="1"/>
    </g>
    <path id="Path_192150" data-name="Path 192150" d="M-71.441,1978.28a18.251,18.251,0,0,0-10.191,3.092v-41.434h-90.295V2053.3h90.295V2011.87a18.251,18.251,0,0,0,10.191,3.092A18.341,18.341,0,0,0-53.1,1996.621,18.341,18.341,0,0,0-71.441,1978.28Z" transform="translate(-82.227 -56.4)" fill="#1a2e35" stroke="#1a2e35" stroke-linecap="round" stroke-linejoin="round" stroke-width="1"/>
    <g id="Group_133238" data-name="Group 133238" transform="translate(-244.763 1890.32)">
      <g id="Group_133236" data-name="Group 133236" transform="translate(0 10.521)">
        <g id="Group_133229" data-name="Group 133229">
          <line id="Line_298" data-name="Line 298" x2="40.639" fill="none" stroke="#fff" stroke-linecap="round" stroke-linejoin="round" stroke-width="2"/>
          <line id="Line_299" data-name="Line 299" x2="21.219" transform="translate(0 12.161)" fill="none" stroke="#fff" stroke-linecap="round" stroke-linejoin="round" stroke-width="2"/>
          <g id="Group_133224" data-name="Group 133224" transform="translate(0 5.472)">
            <line id="Line_300" data-name="Line 300" x2="19.78" fill="none" stroke="#5ae4a7" stroke-linecap="round" stroke-linejoin="round" stroke-width="2"/>
            <line id="Line_301" data-name="Line 301" x2="10.43" transform="translate(24.096)" fill="none" stroke="#5ae4a7" stroke-linecap="round" stroke-linejoin="round" stroke-width="2"/>
            <line id="Line_302" data-name="Line 302" x2="10.43" transform="translate(40.639)" fill="none" stroke="#5ae4a7" stroke-linecap="round" stroke-linejoin="round" stroke-width="2"/>
          </g>
          <g id="Group_133225" data-name="Group 133225" transform="translate(0 17.329)">
            <line id="Line_303" data-name="Line 303" x2="19.78" fill="none" stroke="#fff" stroke-linecap="round" stroke-linejoin="round" stroke-width="2"/>
            <line id="Line_304" data-name="Line 304" x2="10.43" transform="translate(24.096)" fill="none" stroke="#fff" stroke-linecap="round" stroke-linejoin="round" stroke-width="2"/>
            <line id="Line_305" data-name="Line 305" x2="10.43" transform="translate(40.639)" fill="none" stroke="#5ae4a7" stroke-linecap="round" stroke-linejoin="round" stroke-width="2"/>
          </g>
          <g id="Group_133226" data-name="Group 133226" transform="translate(0 29.186)">
            <line id="Line_306" data-name="Line 306" x2="19.78" fill="none" stroke="#fff" stroke-linecap="round" stroke-linejoin="round" stroke-width="2"/>
            <line id="Line_307" data-name="Line 307" x2="10.43" transform="translate(24.096)" fill="none" stroke="#5ae4a7" stroke-linecap="round" stroke-linejoin="round" stroke-width="2"/>
            <line id="Line_308" data-name="Line 308" x2="10.43" transform="translate(40.639)" fill="none" stroke="#fff" stroke-linecap="round" stroke-linejoin="round" stroke-width="2"/>
          </g>
          <g id="Group_133227" data-name="Group 133227" transform="translate(12.228 34.355)">
            <line id="Line_309" data-name="Line 309" x2="15.044" fill="none" stroke="#fff" stroke-linecap="round" stroke-linejoin="round" stroke-width="2"/>
            <line id="Line_310" data-name="Line 310" x2="7.932" transform="translate(18.326)" fill="none" stroke="#fff" stroke-linecap="round" stroke-linejoin="round" stroke-width="2"/>
            <line id="Line_311" data-name="Line 311" x2="7.932" transform="translate(30.909)" fill="none" stroke="#fff" stroke-linecap="round" stroke-linejoin="round" stroke-width="2"/>
          </g>
          <g id="Group_133228" data-name="Group 133228" transform="translate(12.228 40.739)">
            <line id="Line_312" data-name="Line 312" x2="15.044" fill="none" stroke="#fff" stroke-linecap="round" stroke-linejoin="round" stroke-width="2"/>
            <line id="Line_313" data-name="Line 313" x2="7.932" transform="translate(18.326)" fill="none" stroke="#fff" stroke-linecap="round" stroke-linejoin="round" stroke-width="2"/>
            <line id="Line_314" data-name="Line 314" x2="7.932" transform="translate(30.909)" fill="none" stroke="#fff" stroke-linecap="round" stroke-linejoin="round" stroke-width="2"/>
          </g>
        </g>
        <g id="Group_133235" data-name="Group 133235" transform="translate(0 47.732)">
          <line id="Line_315" data-name="Line 315" x2="40.639" fill="none" stroke="#5ae4a7" stroke-linecap="round" stroke-linejoin="round" stroke-width="2"/>
          <line id="Line_316" data-name="Line 316" x2="21.219" transform="translate(0 12.161)" fill="none" stroke="#fff" stroke-linecap="round" stroke-linejoin="round" stroke-width="2"/>
          <g id="Group_133230" data-name="Group 133230" transform="translate(0 5.473)">
            <line id="Line_317" data-name="Line 317" x2="19.78" fill="none" stroke="#5ae4a7" stroke-linecap="round" stroke-linejoin="round" stroke-width="2"/>
            <line id="Line_318" data-name="Line 318" x2="10.43" transform="translate(24.096)" fill="none" stroke="#fff" stroke-linecap="round" stroke-linejoin="round" stroke-width="2"/>
            <line id="Line_319" data-name="Line 319" x2="10.43" transform="translate(40.639)" fill="none" stroke="#5ae4a7" stroke-linecap="round" stroke-linejoin="round" stroke-width="2"/>
          </g>
          <g id="Group_133231" data-name="Group 133231" transform="translate(0 17.329)">
            <line id="Line_320" data-name="Line 320" x2="19.78" fill="none" stroke="#5ae4a7" stroke-linecap="round" stroke-linejoin="round" stroke-width="2"/>
            <line id="Line_321" data-name="Line 321" x2="10.43" transform="translate(24.096)" fill="none" stroke="#5ae4a7" stroke-linecap="round" stroke-linejoin="round" stroke-width="2"/>
            <line id="Line_322" data-name="Line 322" x2="10.43" transform="translate(40.639)" fill="none" stroke="#fff" stroke-linecap="round" stroke-linejoin="round" stroke-width="2"/>
          </g>
          <g id="Group_133232" data-name="Group 133232" transform="translate(0 29.186)">
            <line id="Line_323" data-name="Line 323" x2="19.78" fill="none" stroke="#fff" stroke-linecap="round" stroke-linejoin="round" stroke-width="2"/>
            <line id="Line_324" data-name="Line 324" x2="10.43" transform="translate(24.096)" fill="none" stroke="#5ae4a7" stroke-linecap="round" stroke-linejoin="round" stroke-width="2"/>
            <line id="Line_325" data-name="Line 325" x2="10.43" transform="translate(40.639)" fill="none" stroke="#5ae4a7" stroke-linecap="round" stroke-linejoin="round" stroke-width="2"/>
          </g>
          <g id="Group_133233" data-name="Group 133233" transform="translate(12.228 34.355)">
            <line id="Line_326" data-name="Line 326" x2="15.044" fill="none" stroke="#fff" stroke-linecap="round" stroke-linejoin="round" stroke-width="2"/>
            <line id="Line_327" data-name="Line 327" x2="7.932" transform="translate(18.326)" fill="none" stroke="#fff" stroke-linecap="round" stroke-linejoin="round" stroke-width="2"/>
            <line id="Line_328" data-name="Line 328" x2="7.932" transform="translate(30.909)" fill="none" stroke="#fff" stroke-linecap="round" stroke-linejoin="round" stroke-width="2"/>
          </g>
          <g id="Group_133234" data-name="Group 133234" transform="translate(12.228 40.739)">
            <line id="Line_329" data-name="Line 329" x2="15.044" fill="none" stroke="#fff" stroke-linecap="round" stroke-linejoin="round" stroke-width="2"/>
            <line id="Line_330" data-name="Line 330" x2="7.932" transform="translate(18.326)" fill="none" stroke="#fff" stroke-linecap="round" stroke-linejoin="round" stroke-width="2"/>
            <line id="Line_331" data-name="Line 331" x2="7.932" transform="translate(30.909)" fill="none" stroke="#fff" stroke-linecap="round" stroke-linejoin="round" stroke-width="2"/>
          </g>
        </g>
      </g>
      <g id="Group_133237" data-name="Group 133237" transform="translate(1.109)">
        <path id="Path_192151" data-name="Path 192151" d="M-152.042,1957.134l3.821-1.968v.569l-3.22,1.614v.016l3.22,1.614v.568l-3.821-1.968Z" transform="translate(152.042 -1953.907)" fill="#fff" stroke="#fff" stroke-miterlimit="10" stroke-width="1"/>
        <path id="Path_192152" data-name="Path 192152" d="M-140.479,1958.751l2.3-5.97h.56l-2.306,5.97Z" transform="translate(146.585 -1952.781)" fill="#fff" stroke="#fff" stroke-miterlimit="10" stroke-width="1"/>
        <path id="Path_192153" data-name="Path 192153" d="M-126.954,1957.587l-3.821,1.96v-.568l3.245-1.614v-.016l-3.245-1.614v-.569l3.821,1.96Z" transform="translate(142.005 -1953.907)" fill="#fff" stroke="#fff" stroke-miterlimit="10" stroke-width="1"/>
      </g>
    </g>
  </g>
</svg>
